g BendingPipe
v 14.493767 -1.5029268 3.9994893E-07
v -49.41295 -1.5029263 1.8137393E-07
v -49.412952 -1.0000002 1
v 14.493769 -1.0000007 1.0000004
v 19.191908 -0.42321932 2.3781314
v 14.493767 -6.900266E-07 1.4319997
v -49.41295 -2.0859977E-07 1.4319993
v 18.529709 -0.010043681 3.1804497
v 23.56222 1.5431576 6.7092123
v 18.052055 0.92521745 3.4698572
v 22.562397 1.7909513 7.1472654
v 25.770283 4.156418 12.465098
v 21.841213 2.60692 7.1739235
v 24.652079 4.187076 12.424895
v 25.829838 11.798228 29.296715
v 23.845505 4.8464217 12.106582
v 24.711636 11.828887 29.256512
v 23.90506 12.488233 28.938198
v -49.412952 0.9999997 -0.9999999
v 14.493767 1.5029235 2.8073964E-07
v -49.41295 1.502924 6.2164645E-08
v 14.493769 0.9999992 -0.99999964
v 18.456194 2.4829164 2.1585028
v 14.493767 -8.0923587E-07 -1.4319973
v -49.41295 -3.2780906E-07 -1.4319977
v 19.118393 2.0697432 1.3561862
v 22.451399 4.265551 6.084879
v 19.596045 1.1344811 1.0667782
v 23.451221 4.0177603 5.6468287
v 24.527939 6.6375694 11.309414
v 24.172403 3.20179 5.6201696
v 25.646141 6.6069145 11.34962
v 24.587496 14.27938 28.141033
v 26.452715 5.9475665 11.667932
v 25.705698 14.248725 28.181236
v 26.512272 13.589377 28.49955
v -49.41295 -3.2780906E-07 -1.4319977
v -49.412952 0.9999997 -0.9999999
v -49.41295 1.502924 6.2164645E-08
v -49.41295 -1.2218788E-06 9.457411E-07
v -49.412952 -1.0000002 -0.9999999
v -49.412952 0.9999997 1
v -49.41295 -1.5029263 1.8137393E-07
v -49.41295 -2.0859977E-07 1.4319993
v -49.412952 -1.0000002 1
v 14.493767 1.5029235 2.8073964E-07
v 18.456194 2.4829164 2.1585028
v 18.040188 1.9236093 3.0343158
v 14.493769 0.9999992 1.0000004
v -49.41295 1.502924 6.2164645E-08
v 18.052055 0.92521745 3.4698572
v -49.412952 0.9999997 1
v 14.493767 -6.900266E-07 1.4319997
v -49.41295 -2.0859977E-07 1.4319993
v 19.607914 0.13609034 1.5023203
v 24.172403 3.20179 5.6201696
v 19.596045 1.1344811 1.0667782
v 24.190325 2.206364 6.0622406
v 19.191908 -0.42321932 2.3781314
v 23.56222 1.5431576 6.7092123
v 26.47276 4.9560323 12.118576
v 25.770283 4.156418 12.465098
v 26.532314 12.597844 28.950191
v 25.829838 11.798228 29.296715
v 14.493767 -1.5029268 3.9994893E-07
v 19.191908 -0.42321932 2.3781314
v 19.607914 0.13609034 1.5023203
v 14.493769 -1.0000007 -0.99999964
v -49.41295 -1.5029263 1.8137393E-07
v 19.596045 1.1344811 1.0667782
v -49.412952 -1.0000002 -0.9999999
v 14.493767 -8.0923587E-07 -1.4319973
v -49.41295 -3.2780906E-07 -1.4319977
v 21.823294 3.6023476 6.7318535
v 23.845505 4.8464217 12.106582
v 21.841213 2.60692 7.1739235
v 23.825462 5.837958 11.655939
v 23.90506 12.488233 28.938198
v 23.885017 13.479769 28.487556
v 18.040188 1.9236093 3.0343158
v 21.841213 2.60692 7.1739235
v 18.052055 0.92521745 3.4698572
v 21.823294 3.6023476 6.7318535
v 18.456194 2.4829164 2.1585028
v 22.451399 4.265551 6.084879
v 23.825462 5.837958 11.655939
v 24.527939 6.6375694 11.309414
v 23.885017 13.479769 28.487556
v 24.587496 14.27938 28.141033
v 26.47276 4.9560323 12.118576
v 26.532314 12.597844 28.950191
v 26.512272 13.589377 28.49955
v 26.452715 5.9475665 11.667932
v 24.190325 2.206364 6.0622406
v 24.172403 3.20179 5.6201696
v 26.512272 13.589377 28.49955
v 26.532314 12.597844 28.950191
v 25.829838 11.798228 29.296715
v 25.208666 13.038804 28.718872
v 25.705698 14.248725 28.181236
v 24.711636 11.828887 29.256512
v 24.587496 14.27938 28.141033
v 23.90506 12.488233 28.938198
v 23.885017 13.479769 28.487556
vt 0 0.31527665
vt 0.24799196 0.9602312
vt 0.25885987 0.95336676
vt 0.010867917 0.30841222
vt 0.0063771005 0.2515569
vt 0.023886995 0.30531988
vt 0.27187893 0.95027435
vt 0.017769134 0.25273085
vt 0.034234982 0.17775527
vt 0.03116622 0.25543672
vt 0.043167852 0.1848342
vt 0.085227124 0.11600627
vt 0.05479109 0.19179927
vt 0.08967047 0.127559
vt 0.25916576 0
vt 0.098055415 0.13775116
vt 0.26360908 0.011552716
vt 0.27199405 0.02174492
vt 0.54430985 0.0031491087
vt 0.3039852 0.65570074
vt 0.55516475 0.010027381
vt 0.2931303 0.6488224
vt 0.31072047 0.7105575
vt 0.28012916 0.64567333
vt 0.5313087 0
vt 0.29930606 0.7117272
vt 0.33559883 0.7778859
vt 0.28590128 0.7143832
vt 0.32662228 0.7849682
vt 0.38143545 0.83474404
vt 0.31497598 0.791889
vt 0.37693664 0.8463067
vt 0.55516493 0.9509323
vt 0.36852017 0.8564592
vt 0.5506661 0.96249485
vt 0.5422497 0.97264755
vt 0.25607115 0.9697003
vt 0.2690902 0.966608
vt 0.2799581 0.9597435
vt 0.26397502 0.95998734
vt 0.24782094 0.9669324
vt 0.28012913 0.9530423
vt 0.24799196 0.9602312
vt 0.27187893 0.95027435
vt 0.25885987 0.95336676
vt 0.77905256 0.7348814
vt 0.78419095 0.7896722
vt 0.79813486 0.7877107
vt 0.7927131 0.73823446
vt 0.97583514 0
vt 0.8086311 0.7885574
vt 0.9894957 0.0033530372
vt 0.8032175 0.7389295
vt 1 0.0040481845
vt 0.5697601 0.19243139
vt 0.5815246 0.12201344
vt 0.5592761 0.19348677
vt 0.592042 0.120861515
vt 0.58371085 0.19433463
vt 0.6048188 0.12615028
vt 0.6335253 0.06969502
vt 0.64412266 0.07707381
vt 0.76845515 0
vt 0.77905256 0.007378723
vt 0.579305 0.2582948
vt 0.58371085 0.19433463
vt 0.5697601 0.19243139
vt 0.5656575 0.26170084
vt 0.7790525 0.99569017
vt 0.5592761 0.19348677
vt 0.76540506 0.9990963
vt 0.55516493 0.2626047
vt 0.75491244 1
vt 0.06300666 0.19481711
vt 0.098055415 0.13775116
vt 0.05479109 0.19179927
vt 0.10619048 0.14084917
vt 0.27199405 0.02174492
vt 0.28012913 0.024842907
vt 0.79813486 0.7877107
vt 0.8267188 0.8479618
vt 0.8086311 0.7885574
vt 0.8161887 0.8470176
vt 0.78419095 0.7896722
vt 0.80342996 0.8523962
vt 0.84957945 0.8910874
vt 0.8390053 0.8986054
vt 0.9846069 0.9637132
vt 0.9740327 0.9712312
vt 0.36039734 0.85948485
vt 0.53412676 0.9756732
vt 0.5422497 0.97264755
vt 0.36852017 0.8564592
vt 0.30677286 0.7948344
vt 0.31497598 0.791889
vt 0.9760008 0.9940763
vt 0.9865931 0.99508154
vt 0.99716735 0.9875635
vt 0.98560005 0.97939736
vt 0.9712001 0.98421454
vt 0.99999994 0.9745803
vt 0.9740327 0.9712312
vt 0.99519926 0.96471846
vt 0.9846069 0.9637132
vn 0.1295167 -0.9904269 -0.047748677
vn -0 -1 0
vn -0 -0.686233 0.7273818
vn -0.07923473 -0.72976 0.6790966
vn 0.28230986 -0.9584913 0.039943114
vn -0.26005015 -0.045956574 0.96450084
vn -0 0 1
vn -0.22720598 -0.73277754 0.64141595
vn 0.39526135 -0.90637213 0.14919126
vn -0.5785696 -0.0881463 0.8108559
vn -0.29425678 -0.7821309 0.5492578
vn 0.44502994 -0.84592366 0.29387304
vn -0.7679106 -0.19512665 0.6101137
vn -0.34196723 -0.83083194 0.4390633
vn 0.41931057 -0.82719237 0.37407422
vn -0.88770473 -0.32241818 0.32867447
vn -0.37411672 -0.8439267 0.38447922
vn -0.909517 -0.37726372 0.17450193
vn -0 0.6862329 -0.7273818
vn -0.082585186 0.9931503 -0.082657866
vn -0 1 0
vn 0.11740596 0.6549716 -0.746477
vn -0.24413311 0.9637378 -0.10774309
vn 0.2167754 -0.012143584 -0.976146
vn -0 0 -1
vn 0.2573757 0.6923207 -0.674129
vn -0.31395593 0.9253076 -0.2126915
vn 0.56545126 0.054970887 -0.8229477
vn 0.35792357 0.7376375 -0.5725221
vn -0.36672574 0.8700772 -0.3293599
vn 0.7917946 0.16401914 -0.5883528
vn 0.40350124 0.79958874 -0.44479725
vn -0.40763134 0.83200574 -0.37630188
vn 0.9052894 0.30123103 -0.29951796
vn 0.38328838 0.8404975 -0.3829544
vn 0.9116404 0.37300164 -0.17257339
vn -1 0 0
vn -1 0 0
vn -1 0 0
vn -1 0 0
vn -1 0 0
vn -1 0 0
vn -1 0 0
vn -1 0 0
vn -1 0 0
vn -0.082585186 0.9931503 -0.082657866
vn -0.24413311 0.9637378 -0.10774309
vn -0.6022959 0.59583926 0.5312394
vn -0.2717522 0.6839119 0.6770637
vn -0 1 0
vn -0.5785696 -0.0881463 0.8108559
vn -0 0.6862335 0.72738135
vn -0.26005015 -0.045956574 0.96450084
vn -0 0 1
vn 0.58471215 -0.589208 -0.557625
vn 0.7917946 0.16401914 -0.5883528
vn 0.56545126 0.054970887 -0.8229477
vn 0.8188212 -0.48126057 -0.3129218
vn 0.28230986 -0.9584913 0.039943114
vn 0.39526135 -0.90637213 0.14919126
vn 0.93722457 -0.3485793 -0.010124147
vn 0.44502994 -0.84592366 0.29387304
vn 0.94658864 -0.29484844 0.13051571
vn 0.41931057 -0.82719237 0.37407422
vn 0.1295167 -0.9904269 -0.047748677
vn 0.28230986 -0.9584913 0.039943114
vn 0.58471215 -0.589208 -0.557625
vn 0.2238905 -0.6638472 -0.7135684
vn -0 -1 0
vn 0.56545126 0.054970887 -0.8229477
vn -0 -0.6862324 -0.7273823
vn 0.2167754 -0.012143584 -0.976146
vn -0 0 -1
vn -0.80135787 0.5097788 0.31297153
vn -0.88770473 -0.32241818 0.32867447
vn -0.7679106 -0.19512665 0.6101137
vn -0.9261742 0.37661335 0.019074125
vn -0.909517 -0.37726372 0.17450193
vn -0.9454636 0.29783705 -0.13187689
vn -0.6022959 0.59583926 0.5312394
vn -0.7679106 -0.19512665 0.6101137
vn -0.5785696 -0.0881463 0.8108559
vn -0.80135787 0.5097788 0.31297153
vn -0.24413311 0.9637378 -0.10774309
vn -0.31395593 0.9253076 -0.2126915
vn -0.9261742 0.37661335 0.019074125
vn -0.36672574 0.8700772 -0.3293599
vn -0.9454636 0.29783705 -0.13187689
vn -0.40763134 0.83200574 -0.37630188
vn 0.93722457 -0.3485793 -0.010124147
vn 0.94658864 -0.29484844 0.13051571
vn 0.9116404 0.37300164 -0.17257339
vn 0.9052894 0.30123103 -0.29951796
vn 0.8188212 -0.48126057 -0.3129218
vn 0.7917946 0.16401914 -0.5883528
vn -0.021399898 0.41330728 0.9103402
vn -0.021400545 0.41330737 0.9103401
vn -0.021399066 0.41330838 0.91033965
vn -0.021398671 0.4133077 0.91033995
vn -0.021399248 0.4133071 0.9103402
vn -0.021397589 0.41330943 0.9103392
vn -0.021398276 0.41330698 0.91034025
vn -0.021397443 0.4133081 0.9103398
vn -0.021397306 0.41330686 0.91034037
g BendingPipe_0
f 3/3/3 2/2/2 1/1/1
f 4/4/4 3/3/3 1/1/1
f 1/1/1 5/5/5 4/4/4
f 3/3/3 4/4/4 6/6/6
f 7/7/7 3/3/3 6/6/6
f 5/5/5 8/8/8 4/4/4
f 4/4/4 8/8/8 6/6/6
f 5/5/5 9/9/9 8/8/8
f 8/8/8 10/10/10 6/6/6
f 9/9/9 11/11/11 8/8/8
f 8/8/8 11/11/11 10/10/10
f 9/9/9 12/12/12 11/11/11
f 11/11/11 13/13/13 10/10/10
f 12/12/12 14/14/14 11/11/11
f 11/11/11 14/14/14 13/13/13
f 12/12/12 15/15/15 14/14/14
f 14/14/14 16/16/16 13/13/13
f 15/15/15 17/17/17 14/14/14
f 14/14/14 17/17/17 16/16/16
f 17/17/17 18/18/18 16/16/16
f 21/21/21 20/20/20 19/19/19
f 20/20/20 22/22/22 19/19/19
f 20/20/20 23/23/23 22/22/22
f 22/22/22 24/24/24 19/19/19
f 24/24/24 25/25/25 19/19/19
f 23/23/23 26/26/26 22/22/22
f 22/22/22 26/26/26 24/24/24
f 23/23/23 27/27/27 26/26/26
f 26/26/26 28/28/28 24/24/24
f 27/27/27 29/29/29 26/26/26
f 26/26/26 29/29/29 28/28/28
f 27/27/27 30/30/30 29/29/29
f 29/29/29 31/31/31 28/28/28
f 30/30/30 32/32/32 29/29/29
f 29/29/29 32/32/32 31/31/31
f 30/30/30 33/33/33 32/32/32
f 32/32/32 34/34/34 31/31/31
f 33/33/33 35/35/35 32/32/32
f 32/32/32 35/35/35 34/34/34
f 35/35/35 36/36/36 34/34/34
f 39/39/39 38/38/38 37/37/37
f 40/40/40 39/39/39 37/37/37
f 40/40/40 37/37/37 41/41/41
f 42/42/42 39/39/39 40/40/40
f 43/43/43 40/40/40 41/41/41
f 44/44/44 42/42/42 40/40/40
f 44/44/44 40/40/40 43/43/43
f 45/45/45 44/44/44 43/43/43
f 48/48/48 47/47/47 46/46/46
f 49/49/49 48/48/48 46/46/46
f 49/49/49 46/46/46 50/50/50
f 51/51/51 48/48/48 49/49/49
f 52/52/52 49/49/49 50/50/50
f 53/53/53 51/51/51 49/49/49
f 52/52/52 54/54/54 49/49/49
f 54/54/54 53/53/53 49/49/49
f 57/57/57 56/56/56 55/55/55
f 56/56/56 58/58/58 55/55/55
f 55/55/55 58/58/58 59/59/59
f 58/58/58 60/60/60 59/59/59
f 58/58/58 61/61/61 60/60/60
f 61/61/61 62/62/62 60/60/60
f 61/61/61 63/63/63 62/62/62
f 63/63/63 64/64/64 62/62/62
f 67/67/67 66/66/66 65/65/65
f 68/68/68 67/67/67 65/65/65
f 65/65/65 69/69/69 68/68/68
f 70/70/70 67/67/67 68/68/68
f 69/69/69 71/71/71 68/68/68
f 72/72/72 70/70/70 68/68/68
f 68/68/68 71/71/71 73/73/73
f 72/72/72 68/68/68 73/73/73
f 76/76/76 75/75/75 74/74/74
f 75/75/75 77/77/77 74/74/74
f 75/75/75 78/78/78 77/77/77
f 78/78/78 79/79/79 77/77/77
f 82/82/82 81/81/81 80/80/80
f 81/81/81 83/83/83 80/80/80
f 80/80/80 83/83/83 84/84/84
f 83/83/83 85/85/85 84/84/84
f 83/83/83 86/86/86 85/85/85
f 86/86/86 87/87/87 85/85/85
f 86/86/86 88/88/88 87/87/87
f 88/88/88 89/89/89 87/87/87
f 92/92/92 91/91/91 90/90/90
f 93/93/93 92/92/92 90/90/90
f 93/93/93 90/90/90 94/94/94
f 95/95/95 93/93/93 94/94/94
f 98/98/98 97/97/97 96/96/96
f 99/99/99 98/98/98 96/96/96
f 99/99/99 96/96/96 100/100/100
f 101/101/101 98/98/98 99/99/99
f 102/102/102 99/99/99 100/100/100
f 103/103/103 101/101/101 99/99/99
f 103/103/103 99/99/99 102/102/102
f 104/104/104 103/103/103 102/102/102
