g BezierCurve.001
v -1.096591 1.529883 0.26754075
v -1.1089321 1.5429959 0.28553373
v -0.9991982 1.6348628 0.2873973
v -0.98828244 1.6205575 0.26939163
v -1.1096457 1.5422857 0.2495478
v -0.8801822 1.7034898 0.29702896
v -0.99799514 1.6357559 0.25142848
v -1.1219869 1.5553986 0.26754075
v -0.8714119 1.6879483 0.27887553
v -0.75544643 1.7485954 0.30816004
v -1.0089109 1.6500611 0.26943418
v -1.1089321 1.5429959 0.28553373
v -0.9991982 1.6348628 0.2873973
v -0.8778426 1.7050376 0.26113844
v -0.7498149 1.731924 0.2897656
v -0.6286599 1.7697498 0.3144208
v -0.8866129 1.720579 0.27929187
v -0.8801822 1.7034898 0.29702896
v -0.75335515 1.7500538 0.27225044
v -0.6273765 1.7523651 0.29587016
v -0.5035649 1.7664266 0.3092879
v -0.75898665 1.7667251 0.29064488
v -0.75544643 1.7485954 0.30816004
v -0.6285929 1.770876 0.27843848
v -0.5079112 1.7492081 0.2910497
v -0.38418794 1.7380476 0.28607753
v -0.6298763 1.7882607 0.2969891
v -0.6286599 1.7697498 0.3144208
v -0.5075428 1.7676723 0.27353007
v -0.3949888 1.722368 0.269181
v -0.2750354 1.6842449 0.2381509
v -0.5031965 1.7848908 0.29176828
v -0.5035649 1.7664266 0.3092879
v -0.39390755 1.7406623 0.2515132
v -0.29191792 1.671526 0.22396597
v -0.18077984 1.6051219 0.15926087
v -0.38310668 1.7563419 0.26840973
v -0.38418794 1.7380476 0.28607753
v -0.29090992 1.6898559 0.20633084
v -0.20213373 1.5960667 0.14877199
v -0.105639875 1.5010248 0.043510567
v -0.2740274 1.7025747 0.22051576
v -0.2750354 1.6842449 0.2381509
v -0.20160657 1.6147907 0.13153431
v -0.12955186 1.495392 0.0368407
v -0.053317703 1.3721073 -0.11505328
v -0.18025269 1.6238458 0.14202319
v -0.18077984 1.6051219 0.15926087
v -0.1295081 1.5147625 0.020324696
v -0.07838213 1.3691777 -0.118398845
v -0.027369957 1.2182531 -0.3226237
v -0.10559611 1.5203954 0.026994564
v -0.105639875 1.5010248 0.043510567
v -0.07864146 1.3892593 -0.13404055
v -0.05279875 1.2172998 -0.32330775
v -0.031376142 1.0393342 -0.58546525
v -0.053577043 1.3921889 -0.13069499
v -0.053317703 1.3721073 -0.11505328
v -0.05317928 1.2380388 -0.33806422
v -0.056827098 1.0388356 -0.585441
v -0.02242428 0.9137369 -0.845676
v -0.027750487 1.2389921 -0.33738017
v -0.027369957 1.2182531 -0.3226237
v -0.057270832 1.0608717 -0.5981774
v -0.047502153 0.9116689 -0.8495262
v 0.038996276 0.90809226 -1.0464497
v -0.03181988 1.0613703 -0.59820163
v -0.031376142 1.0393342 -0.58546525
v -0.04856419 0.93630606 -0.8558416
v 0.01632572 0.905995 -1.0578359
v 0.1437853 1.0044092 -1.1949863
v -0.023486316 0.93837404 -0.85199136
v -0.02242428 0.9137369 -0.845676
v 0.011854787 0.9306736 -1.0534797
v 0.12469625 1.0054249 -1.2117964
v 0.28246233 1.1838806 -1.2988639
v 0.034525342 0.93277085 -1.0420934
v 0.038996276 0.90809226 -1.0464497
v 0.115096934 1.0256461 -1.1996739
v 0.26581413 1.1879593 -1.3176842
v 0.4460103 1.4280909 -1.3663688
v 0.13418597 1.0246304 -1.1828638
v 0.1437853 1.0044092 -1.1949863
v 0.25265327 1.203711 -1.3026285
v 0.4306227 1.4340259 -1.3857595
v 0.62555057 1.7189577 -1.405609
v 0.26930147 1.1996323 -1.2838082
v 0.28246233 1.1838806 -1.2988639
v 0.41555148 1.4469646 -1.3698394
v 0.61080366 1.7259238 -1.425154
v 0.81215346 2.038396 -1.4245412
v 0.43093908 1.4410297 -1.3504487
v 0.4460103 1.4280909 -1.3663688
v 0.59468085 1.7371702 -1.4089807
v 0.7977123 2.0458837 -1.4441215
v 0.99685776 2.3682933 -1.4310772
v 0.60942775 1.7302041 -1.3894358
v 0.62555057 1.7189577 -1.405609
v 0.78098166 2.0560932 -1.4278779
v 0.9824999 2.3759296 -1.4506614
v 1.1706924 2.6905298 -1.4331164
v 0.7954228 2.0486054 -1.4082977
v 0.81215346 2.038396 -1.4245412
v 0.9654256 2.3855262 -1.4344018
v 1.1562183 2.6979506 -1.4526979
v 1.3246901 2.9869998 -1.4385585
v 0.9797835 2.3778899 -1.4148176
v 0.99685776 2.3682933 -1.4310772
v 1.1389945 2.7072701 -1.4364347
v 1.3098444 2.9937036 -1.4581202
v 1.4499112 3.2396653 -1.4553235
v 1.1534686 2.6998494 -1.4168533
v 1.1706924 2.6905298 -1.4331164
v 1.2926662 3.0031111 -1.4418595
v 1.434228 3.2446675 -1.4747403
v 1.5374299 3.4305618 -1.4914219
v 1.5201617 3.4320567 -1.5100653
v 1.3075119 2.9964073 -1.4222978
v 1.3246901 2.9869998 -1.4385585
v 1.417391 3.2547681 -1.4585385
v 1.504105 3.4438837 -1.4942443
v 1.4330742 3.2497659 -1.4391217
v 1.4499112 3.2396653 -1.4553235
v 1.5213732 3.4423888 -1.475601
v 1.5374299 3.4305618 -1.4914219
vt 0 0.25
vt 0 0
vt 0.041656494 0
vt 0.041656494 0.25
vt 0 0.5
vt 0.08331299 0
vt 0.041656494 0.5
vt 0 0.75
vt 0.08331299 0.25
vt 0.125 0
vt 0.041656494 0.75
vt 0 1
vt 0.041656494 1
vt 0.08331299 0.5
vt 0.125 0.25
vt 0.16662598 0
vt 0.08331299 0.75
vt 0.08331299 1
vt 0.125 0.5
vt 0.16662598 0.25
vt 0.20837402 0
vt 0.125 0.75
vt 0.125 1
vt 0.16662598 0.5
vt 0.20837402 0.25
vt 0.25 0
vt 0.16662598 0.75
vt 0.16662598 1
vt 0.20837402 0.5
vt 0.25 0.25
vt 0.29174805 0
vt 0.20837402 0.75
vt 0.20837402 1
vt 0.25 0.5
vt 0.29174805 0.25
vt 0.33325195 0
vt 0.25 0.75
vt 0.25 1
vt 0.29174805 0.5
vt 0.33325195 0.25
vt 0.375 0
vt 0.29174805 0.75
vt 0.29174805 1
vt 0.33325195 0.5
vt 0.375 0.25
vt 0.41674805 0
vt 0.33325195 0.75
vt 0.33325195 1
vt 0.375 0.5
vt 0.41674805 0.25
vt 0.45825195 0
vt 0.375 0.75
vt 0.375 1
vt 0.41674805 0.5
vt 0.45825195 0.25
vt 0.5 0
vt 0.41674805 0.75
vt 0.41674805 1
vt 0.45825195 0.5
vt 0.5 0.25
vt 0.5415039 0
vt 0.45825195 0.75
vt 0.45825195 1
vt 0.5 0.5
vt 0.5415039 0.25
vt 0.5834961 0
vt 0.5 0.75
vt 0.5 1
vt 0.5415039 0.5
vt 0.5834961 0.25
vt 0.625 0
vt 0.5415039 0.75
vt 0.5415039 1
vt 0.5834961 0.5
vt 0.625 0.25
vt 0.6665039 0
vt 0.5834961 0.75
vt 0.5834961 1
vt 0.625 0.5
vt 0.6665039 0.25
vt 0.7084961 0
vt 0.625 0.75
vt 0.625 1
vt 0.6665039 0.5
vt 0.7084961 0.25
vt 0.75 0
vt 0.6665039 0.75
vt 0.6665039 1
vt 0.7084961 0.5
vt 0.75 0.25
vt 0.7915039 0
vt 0.7084961 0.75
vt 0.7084961 1
vt 0.75 0.5
vt 0.7915039 0.25
vt 0.8334961 0
vt 0.75 0.75
vt 0.75 1
vt 0.7915039 0.5
vt 0.8334961 0.25
vt 0.875 0
vt 0.7915039 0.75
vt 0.7915039 1
vt 0.8334961 0.5
vt 0.875 0.25
vt 0.9165039 0
vt 0.8334961 0.75
vt 0.8334961 1
vt 0.875 0.5
vt 0.9165039 0.25
vt 0.9584961 0
vt 0.875 0.75
vt 0.875 1
vt 0.9165039 0.5
vt 0.9584961 0.25
vt 1 0
vt 1 0.25
vt 0.9165039 0.75
vt 0.9165039 1
vt 0.9584961 0.5
vt 1 0.5
vt 0.9584961 0.75
vt 0.9584961 1
vt 1 0.75
vt 1 1
vn 0.64208984 -0.76660156 -0.016799927
vn -0.035003662 0.021591187 0.99902344
vn -0.05621338 0.007904053 0.99853516
vn 0.5732422 -0.81933594 -0.014755249
vn -0.014877319 0.03793335 -0.99902344
vn -0.081604004 -0.0069999695 0.99658203
vn 0.011444092 0.05609131 -0.99853516
vn -0.64160156 0.76660156 -0.019943237
vn 0.42236328 -0.90625 -0.015312195
vn -0.068237305 -0.0012722015 0.9975586
vn -0.5727539 0.8198242 -0.011047363
vn -0.035003662 0.021591187 0.99902344
vn -0.05621338 0.007904053 0.99853516
vn 0.048339844 0.078430176 -0.99560547
vn 0.25439453 -0.9667969 -0.017105103
vn -0.004611969 0.011161804 1
vn -0.42211914 0.9067383 0.00818634
vn -0.081604004 -0.0069999695 0.99658203
vn 0.047546387 0.0803833 -0.99560547
vn 0.06958008 -0.9975586 -0.010986328
vn 0.11645508 0.009597778 0.99316406
vn -0.25512695 0.9663086 0.03086853
vn -0.068237305 -0.0012722015 0.9975586
vn -0.0011959076 0.07598877 -0.9970703
vn -0.12683105 -0.9916992 0.014030457
vn 0.28442383 -0.030731201 0.9580078
vn -0.06933594 0.99658203 0.048736572
vn -0.004611969 0.011161804 1
vn -0.103881836 0.08312988 -0.99121094
vn -0.31689453 -0.94628906 0.06616211
vn 0.46044922 -0.121398926 0.87939453
vn 0.13427734 0.9897461 0.049560547
vn 0.11645508 0.009597778 0.99316406
vn -0.2529297 0.12030029 -0.95996094
vn -0.47338867 -0.8696289 0.14172363
vn 0.59716797 -0.24401855 0.76416016
vn 0.3408203 0.9399414 0.017578125
vn 0.28442383 -0.030731201 0.9580078
vn -0.4177246 0.19555664 -0.88720703
vn -0.57910156 -0.7836914 0.22473145
vn 0.67822266 -0.36547852 0.6376953
vn 0.51660156 0.8544922 -0.05508423
vn 0.46044922 -0.121398926 0.87939453
vn -0.55615234 0.29663086 -0.7763672
vn -0.6381836 -0.70947266 0.2993164
vn 0.71435547 -0.4663086 0.52197266
vn 0.6328125 0.75927734 -0.15319824
vn 0.59716797 -0.24401855 0.76416016
vn -0.6455078 0.39941406 -0.6508789
vn -0.6665039 -0.6538086 0.3581543
vn 0.7246094 -0.54248047 0.42456055
vn 0.6899414 0.6796875 -0.24890137
vn 0.67822266 -0.36547852 0.6376953
vn -0.69140625 0.48754883 -0.5332031
vn -0.6772461 -0.61621094 0.40161133
vn 0.6982422 -0.6166992 0.36328125
vn 0.70996094 0.6245117 -0.3251953
vn 0.71435547 -0.4663086 0.52197266
vn -0.7089844 0.55615234 -0.4333496
vn -0.68359375 -0.6352539 0.359375
vn 0.65185547 -0.70214844 0.28759766
vn 0.71240234 0.58935547 -0.38061523
vn 0.7246094 -0.54248047 0.42456055
vn -0.74072266 0.5776367 -0.34228516
vn -0.6557617 -0.75146484 0.07098389
vn 0.6845703 -0.71533203 0.13916016
vn 0.70654297 0.61572266 -0.3486328
vn 0.6982422 -0.6166992 0.36328125
vn -0.7949219 0.5410156 -0.27416992
vn -0.49121094 -0.7558594 -0.43310547
vn 0.7709961 -0.63427734 0.060821533
vn 0.68310547 0.72753906 -0.061676025
vn 0.65185547 -0.70214844 0.28759766
vn -0.8149414 0.52197266 -0.25195312
vn -0.25317383 -0.54296875 -0.80078125
vn 0.8222656 -0.5654297 0.060760498
vn 0.52685547 0.72558594 0.44262695
vn 0.6845703 -0.71533203 0.13916016
vn -0.8178711 0.5385742 -0.20166016
vn -0.090026855 -0.3293457 -0.9399414
vn 0.8457031 -0.5292969 0.0713501
vn 0.27807617 0.52246094 0.80615234
vn 0.7709961 -0.63427734 0.060821533
vn -0.83203125 0.53466797 -0.14929199
vn -0.004173279 -0.19750977 -0.98046875
vn 0.85791016 -0.5078125 0.0791626
vn 0.10491943 0.31884766 0.94189453
vn 0.8222656 -0.5654297 0.060760498
vn -0.8461914 0.51904297 -0.12182617
vn 0.041656494 -0.12097168 -0.9916992
vn 0.86621094 -0.4921875 0.08477783
vn 0.0137786865 0.19140625 0.9814453
vn 0.8457031 -0.5292969 0.0713501
vn -0.8569336 0.50390625 -0.10827637
vn 0.066467285 -0.07727051 -0.9946289
vn 0.87353516 -0.47875977 0.089416504
vn -0.03463745 0.116760254 0.9926758
vn 0.85791016 -0.5078125 0.0791626
vn -0.8652344 0.4909668 -0.10064697
vn 0.078308105 -0.055999756 -0.9951172
vn 0.8803711 -0.46484375 0.09423828
vn -0.060638428 0.073913574 0.99560547
vn 0.86621094 -0.4921875 0.08477783
vn -0.8730469 0.47851562 -0.09527588
vn 0.07965088 -0.054473877 -0.9951172
vn 0.88916016 -0.44677734 0.10083008
vn -0.0725708 0.052886963 0.99609375
vn 0.87353516 -0.47875977 0.089416504
vn -0.8808594 0.4650879 -0.09008789
vn 0.06939697 -0.07739258 -0.9946289
vn 0.90234375 -0.41601562 0.11291504
vn -0.07312012 0.05102539 0.99609375
vn 0.8803711 -0.46484375 0.09423828
vn -0.8901367 0.4482422 -0.08239746
vn 0.04046631 -0.14538574 -0.98876953
vn 0.91015625 -0.39160156 0.1352539
vn 0.023406982 -0.19580078 -0.98046875
vn -0.060272217 0.07287598 0.99560547
vn 0.88916016 -0.44677734 0.10083008
vn -0.9038086 0.4230957 -0.06500244
vn -0.9111328 0.41064453 -0.038757324
vn -0.024139404 0.13806152 0.9902344
vn 0.90234375 -0.41601562 0.11291504
vn 0.005908966 0.18322754 0.98291016
vn 0.91015625 -0.39160156 0.1352539
g BezierCurve.001_0
f 3/3/3 2/2/2 1/1/1
f 4/4/4 3/3/3 1/1/1
f 4/4/4 1/1/1 5/5/5
f 6/6/6 3/3/3 4/4/4
f 7/7/7 4/4/4 5/5/5
f 7/7/7 5/5/5 8/8/8
f 9/9/9 6/6/6 4/4/4
f 9/9/9 4/4/4 7/7/7
f 10/10/10 6/6/6 9/9/9
f 11/11/11 7/7/7 8/8/8
f 11/11/11 8/8/8 12/12/12
f 13/13/13 11/11/11 12/12/12
f 14/14/14 9/9/9 7/7/7
f 14/14/14 7/7/7 11/11/11
f 15/15/15 10/10/10 9/9/9
f 15/15/15 9/9/9 14/14/14
f 16/16/16 10/10/10 15/15/15
f 17/17/17 11/11/11 13/13/13
f 17/17/17 14/14/14 11/11/11
f 18/18/18 17/17/17 13/13/13
f 19/19/19 15/15/15 14/14/14
f 19/19/19 14/14/14 17/17/17
f 20/20/20 16/16/16 15/15/15
f 20/20/20 15/15/15 19/19/19
f 21/21/21 16/16/16 20/20/20
f 22/22/22 17/17/17 18/18/18
f 22/22/22 19/19/19 17/17/17
f 23/23/23 22/22/22 18/18/18
f 24/24/24 20/20/20 19/19/19
f 24/24/24 19/19/19 22/22/22
f 25/25/25 21/21/21 20/20/20
f 25/25/25 20/20/20 24/24/24
f 26/26/26 21/21/21 25/25/25
f 27/27/27 22/22/22 23/23/23
f 27/27/27 24/24/24 22/22/22
f 28/28/28 27/27/27 23/23/23
f 29/29/29 25/25/25 24/24/24
f 29/29/29 24/24/24 27/27/27
f 30/30/30 26/26/26 25/25/25
f 30/30/30 25/25/25 29/29/29
f 31/31/31 26/26/26 30/30/30
f 32/32/32 27/27/27 28/28/28
f 32/32/32 29/29/29 27/27/27
f 33/33/33 32/32/32 28/28/28
f 34/34/34 30/30/30 29/29/29
f 34/34/34 29/29/29 32/32/32
f 35/35/35 31/31/31 30/30/30
f 35/35/35 30/30/30 34/34/34
f 36/36/36 31/31/31 35/35/35
f 37/37/37 32/32/32 33/33/33
f 37/37/37 34/34/34 32/32/32
f 38/38/38 37/37/37 33/33/33
f 39/39/39 35/35/35 34/34/34
f 39/39/39 34/34/34 37/37/37
f 40/40/40 36/36/36 35/35/35
f 40/40/40 35/35/35 39/39/39
f 41/41/41 36/36/36 40/40/40
f 42/42/42 37/37/37 38/38/38
f 42/42/42 39/39/39 37/37/37
f 43/43/43 42/42/42 38/38/38
f 44/44/44 40/40/40 39/39/39
f 44/44/44 39/39/39 42/42/42
f 45/45/45 41/41/41 40/40/40
f 45/45/45 40/40/40 44/44/44
f 46/46/46 41/41/41 45/45/45
f 47/47/47 42/42/42 43/43/43
f 47/47/47 44/44/44 42/42/42
f 48/48/48 47/47/47 43/43/43
f 49/49/49 45/45/45 44/44/44
f 49/49/49 44/44/44 47/47/47
f 50/50/50 46/46/46 45/45/45
f 50/50/50 45/45/45 49/49/49
f 51/51/51 46/46/46 50/50/50
f 52/52/52 47/47/47 48/48/48
f 52/52/52 49/49/49 47/47/47
f 53/53/53 52/52/52 48/48/48
f 54/54/54 50/50/50 49/49/49
f 54/54/54 49/49/49 52/52/52
f 55/55/55 51/51/51 50/50/50
f 55/55/55 50/50/50 54/54/54
f 56/56/56 51/51/51 55/55/55
f 57/57/57 52/52/52 53/53/53
f 57/57/57 54/54/54 52/52/52
f 58/58/58 57/57/57 53/53/53
f 59/59/59 55/55/55 54/54/54
f 59/59/59 54/54/54 57/57/57
f 60/60/60 56/56/56 55/55/55
f 60/60/60 55/55/55 59/59/59
f 61/61/61 56/56/56 60/60/60
f 62/62/62 57/57/57 58/58/58
f 62/62/62 59/59/59 57/57/57
f 63/63/63 62/62/62 58/58/58
f 64/64/64 60/60/60 59/59/59
f 64/64/64 59/59/59 62/62/62
f 65/65/65 61/61/61 60/60/60
f 65/65/65 60/60/60 64/64/64
f 66/66/66 61/61/61 65/65/65
f 67/67/67 62/62/62 63/63/63
f 67/67/67 64/64/64 62/62/62
f 68/68/68 67/67/67 63/63/63
f 69/69/69 65/65/65 64/64/64
f 69/69/69 64/64/64 67/67/67
f 70/70/70 66/66/66 65/65/65
f 70/70/70 65/65/65 69/69/69
f 71/71/71 66/66/66 70/70/70
f 72/72/72 67/67/67 68/68/68
f 72/72/72 69/69/69 67/67/67
f 73/73/73 72/72/72 68/68/68
f 74/74/74 70/70/70 69/69/69
f 74/74/74 69/69/69 72/72/72
f 75/75/75 71/71/71 70/70/70
f 75/75/75 70/70/70 74/74/74
f 76/76/76 71/71/71 75/75/75
f 77/77/77 72/72/72 73/73/73
f 77/77/77 74/74/74 72/72/72
f 78/78/78 77/77/77 73/73/73
f 79/79/79 75/75/75 74/74/74
f 79/79/79 74/74/74 77/77/77
f 80/80/80 76/76/76 75/75/75
f 80/80/80 75/75/75 79/79/79
f 81/81/81 76/76/76 80/80/80
f 82/82/82 77/77/77 78/78/78
f 82/82/82 79/79/79 77/77/77
f 83/83/83 82/82/82 78/78/78
f 84/84/84 80/80/80 79/79/79
f 84/84/84 79/79/79 82/82/82
f 85/85/85 81/81/81 80/80/80
f 85/85/85 80/80/80 84/84/84
f 86/86/86 81/81/81 85/85/85
f 87/87/87 82/82/82 83/83/83
f 87/87/87 84/84/84 82/82/82
f 88/88/88 87/87/87 83/83/83
f 89/89/89 85/85/85 84/84/84
f 89/89/89 84/84/84 87/87/87
f 90/90/90 86/86/86 85/85/85
f 90/90/90 85/85/85 89/89/89
f 91/91/91 86/86/86 90/90/90
f 92/92/92 87/87/87 88/88/88
f 92/92/92 89/89/89 87/87/87
f 93/93/93 92/92/92 88/88/88
f 94/94/94 90/90/90 89/89/89
f 94/94/94 89/89/89 92/92/92
f 95/95/95 91/91/91 90/90/90
f 95/95/95 90/90/90 94/94/94
f 96/96/96 91/91/91 95/95/95
f 97/97/97 92/92/92 93/93/93
f 97/97/97 94/94/94 92/92/92
f 98/98/98 97/97/97 93/93/93
f 99/99/99 95/95/95 94/94/94
f 99/99/99 94/94/94 97/97/97
f 100/100/100 96/96/96 95/95/95
f 100/100/100 95/95/95 99/99/99
f 101/101/101 96/96/96 100/100/100
f 102/102/102 97/97/97 98/98/98
f 102/102/102 99/99/99 97/97/97
f 103/103/103 102/102/102 98/98/98
f 104/104/104 100/100/100 99/99/99
f 104/104/104 99/99/99 102/102/102
f 105/105/105 101/101/101 100/100/100
f 105/105/105 100/100/100 104/104/104
f 106/106/106 101/101/101 105/105/105
f 107/107/107 102/102/102 103/103/103
f 107/107/107 104/104/104 102/102/102
f 108/108/108 107/107/107 103/103/103
f 109/109/109 105/105/105 104/104/104
f 109/109/109 104/104/104 107/107/107
f 110/110/110 106/106/106 105/105/105
f 110/110/110 105/105/105 109/109/109
f 111/111/111 106/106/106 110/110/110
f 112/112/112 107/107/107 108/108/108
f 112/112/112 109/109/109 107/107/107
f 113/113/113 112/112/112 108/108/108
f 114/114/114 110/110/110 109/109/109
f 114/114/114 109/109/109 112/112/112
f 115/115/115 111/111/111 110/110/110
f 115/115/115 110/110/110 114/114/114
f 116/116/116 111/111/111 115/115/115
f 117/117/117 116/116/116 115/115/115
f 118/118/118 112/112/112 113/113/113
f 118/118/118 114/114/114 112/112/112
f 119/119/119 118/118/118 113/113/113
f 120/120/120 115/115/115 114/114/114
f 117/117/117 115/115/115 120/120/120
f 120/120/120 114/114/114 118/118/118
f 121/121/121 117/117/117 120/120/120
f 122/122/122 118/118/118 119/119/119
f 122/122/122 120/120/120 118/118/118
f 121/121/121 120/120/120 122/122/122
f 123/123/123 122/122/122 119/119/119
f 124/124/124 121/121/121 122/122/122
f 124/124/124 122/122/122 123/123/123
f 125/125/125 124/124/124 123/123/123
