g BezierCurve
v -0.99973434 0.033730976 0.049999245
v -1.0133468 0.08184309 1.5431123E-08
v 0.6861938 0.48237 -0.008149742
v 0.6961049 0.43337962 0.041867383
v 2.3786764 0.7555138 -0.013469783
v 2.3852031 0.7059698 0.036558162
v 4.0413623 0.917509 -0.016364943
v 4.044883 0.86766654 0.03366837
v 5.6516113 0.9845927 -0.017240081
v 5.652464 0.93463486 0.032794792
v 7.1867886 0.9729832 -0.016499635
v 7.185267 0.9230402 0.03353418
v 8.624259 0.8988838 -0.0145477
v 8.620611 0.84904814 0.035483308
v 9.941389 0.7784862 -0.011788122
v 9.935819 0.72882473 0.038238924
v 11.115553 0.627971 -0.008624558
v 11.108211 0.5785357 0.041397784
v 12.124138 0.46350735 -0.0054604933
v 12.1151085 0.41434687 0.044556648
v 12.94459 0.301242 -0.0026992299
v 12.93384 0.25242314 0.04731229
v 13.554595 0.15724012 -0.0007438401
v 13.541744 0.108925186 0.0492615
v 13.932494 0.047268502 1.5465048E-07
v 13.916196 2.2145127E-07 0.05000097
v -0.98665315 -0.014528312 -1.0645909E-08
v -0.99973434 0.033730976 0.049999245
v 0.6961049 0.43337962 0.041867383
v 0.7056414 0.38427928 -0.00811474
v 2.3852031 0.7059698 0.036558162
v 2.3914971 0.65633905 -0.013413583
v 4.044883 0.86766654 0.03366837
v 4.0482945 0.81774956 -0.01629822
v 5.652464 0.93463486 0.032794792
v 5.6533146 0.8846072 -0.01717031
v 7.185267 0.9230402 0.03353418
v 7.183835 0.8730268 -0.016431935
v 8.620611 0.84904814 0.035483308
v 8.617131 0.7991382 -0.014485519
v 9.935819 0.72882473 0.038238924
v 9.930479 0.6790832 -0.011733735
v 11.108211 0.5785357 0.041397784
v 11.101147 0.52901417 -0.008579445
v 12.1151085 0.41434687 0.044556648
v 12.106388 0.36509532 -0.005425683
v 12.93384 0.25242314 0.04731229
v 12.923399 0.20351315 -0.002675661
v 13.541744 0.108925186 0.0492615
v 13.529134 0.060535707 -0.00073283375
v 13.916196 2.2145127E-07 0.05000097
v 13.899898 -0.047269635 1.8012288E-06
v -1.0002656 0.033583824 -0.049999245
v -0.98665315 -0.014528312 -1.0645909E-08
v 0.7056414 0.38427928 -0.00811474
v 0.6957303 0.43326968 -0.058131866
v 2.3914971 0.65633905 -0.013413583
v 2.3849704 0.705883 -0.06344153
v 4.0482945 0.81774956 -0.01629822
v 4.044774 0.8675921 -0.066331536
v 5.6533146 0.8846072 -0.01717031
v 5.652462 0.934565 -0.06720518
v 7.183835 0.8730268 -0.016431935
v 7.1853566 0.9229698 -0.06646575
v 8.617131 0.7991382 -0.014485519
v 8.620779 0.8489739 -0.06451654
v 9.930479 0.6790832 -0.011733735
v 9.936049 0.7287447 -0.061760787
v 11.101147 0.52901417 -0.008579445
v 11.108489 0.5784495 -0.058601793
v 12.106388 0.36509532 -0.005425683
v 12.1154175 0.4142558 -0.055442825
v 12.923399 0.20351315 -0.002675661
v 12.934149 0.25233203 -0.05268719
v 13.529134 0.060535707 -0.00073283375
v 13.541985 0.10885064 -0.050738182
v 13.899898 -0.047269635 1.8012288E-06
v 13.916196 -1.3431707E-06 -0.04999902
v -1.0133468 0.08184309 1.5431123E-08
v -1.0002656 0.033583824 -0.049999245
v 0.6957303 0.43326968 -0.058131866
v 0.6861938 0.48237 -0.008149742
v 2.3849704 0.705883 -0.06344153
v 2.3786764 0.7555138 -0.013469783
v 4.044774 0.8675921 -0.066331536
v 4.0413623 0.917509 -0.016364943
v 5.652462 0.934565 -0.06720518
v 5.6516113 0.9845927 -0.017240081
v 7.1853566 0.9229698 -0.06646575
v 7.1867886 0.9729832 -0.016499635
v 8.620779 0.8489739 -0.06451654
v 8.624259 0.8988838 -0.0145477
v 9.936049 0.7287447 -0.061760787
v 9.941389 0.7784862 -0.011788122
v 11.108489 0.5784495 -0.058601793
v 11.115553 0.627971 -0.008624558
v 12.1154175 0.4142558 -0.055442825
v 12.124138 0.46350735 -0.0054604933
v 12.934149 0.25233203 -0.05268719
v 12.94459 0.301242 -0.0026992299
v 13.541985 0.10885064 -0.050738182
v 13.554595 0.15724012 -0.0007438401
v 13.916196 -1.3431707E-06 -0.04999902
v 13.932494 0.047268502 1.5465048E-07
vt 0.29907227 0.0017900467
vt 0.28710938 0.0008773804
vt 0.2368164 0.113708496
vt 0.24890137 0.11437988
vt 0.20251465 0.22619629
vt 0.21459961 0.22668457
vt 0.18200684 0.33691406
vt 0.1940918 0.3371582
vt 0.17321777 0.44433594
vt 0.18530273 0.44458008
vt 0.1743164 0.546875
vt 0.18640137 0.546875
vt 0.18322754 0.6430664
vt 0.1953125 0.6430664
vt 0.1977539 0.7314453
vt 0.20983887 0.73095703
vt 0.21618652 0.8100586
vt 0.22827148 0.8095703
vt 0.23632812 0.8774414
vt 0.24841309 0.8769531
vt 0.25610352 0.9326172
vt 0.26831055 0.9321289
vt 0.27392578 0.9736328
vt 0.28564453 0.97265625
vt 0.28710938 0.99902344
vt 0.29907227 0.9980469
vt 0.68115234 0.0017538071
vt 0.6694336 0.0008773804
vt 0.62109375 0.11340332
vt 0.6333008 0.11401367
vt 0.5878906 0.22570801
vt 0.60009766 0.22607422
vt 0.5683594 0.33618164
vt 0.5805664 0.33642578
vt 0.5595703 0.44360352
vt 0.57177734 0.44360352
vt 0.5605469 0.54589844
vt 0.5727539 0.54589844
vt 0.56933594 0.64208984
vt 0.5810547 0.64160156
vt 0.5830078 0.72998047
vt 0.59521484 0.7294922
vt 0.60058594 0.80859375
vt 0.61279297 0.80810547
vt 0.6201172 0.87597656
vt 0.6323242 0.8754883
vt 0.63916016 0.93115234
vt 0.6513672 0.9301758
vt 0.65625 0.9716797
vt 0.66845703 0.9711914
vt 0.6694336 0.9970703
vt 0.68115234 0.99609375
vt 0.41723633 0.9970703
vt 0.42895508 0.99609375
vt 0.37890625 0.88378906
vt 0.36694336 0.8847656
vt 0.34472656 0.77197266
vt 0.33276367 0.77246094
vt 0.32421875 0.6616211
vt 0.31225586 0.6616211
vt 0.31567383 0.5541992
vt 0.3034668 0.5541992
vt 0.3166504 0.45214844
vt 0.3046875 0.4519043
vt 0.32543945 0.35620117
vt 0.31347656 0.35595703
vt 0.3400879 0.26831055
vt 0.328125 0.2680664
vt 0.35839844 0.1899414
vt 0.34643555 0.18945312
vt 0.3786621 0.12243652
vt 0.36645508 0.12188721
vt 0.3984375 0.06762695
vt 0.3864746 0.06689453
vt 0.41577148 0.026916504
vt 0.40405273 0.026062012
vt 0.42895508 0.001964569
vt 0.41723633 0.0008773804
vt 0.54345703 0.99902344
vt 0.5551758 0.9980469
vt 0.50683594 0.8857422
vt 0.4951172 0.88623047
vt 0.47387695 0.7734375
vt 0.46191406 0.7739258
vt 0.45410156 0.66259766
vt 0.44213867 0.66308594
vt 0.44555664 0.55566406
vt 0.43359375 0.55566406
vt 0.4465332 0.453125
vt 0.43432617 0.453125
vt 0.45483398 0.35717773
vt 0.4428711 0.3569336
vt 0.46899414 0.26904297
vt 0.4567871 0.26879883
vt 0.48657227 0.19055176
vt 0.47436523 0.19006348
vt 0.5058594 0.12298584
vt 0.49389648 0.12243652
vt 0.52490234 0.067993164
vt 0.5131836 0.06732178
vt 0.5419922 0.027160645
vt 0.53027344 0.026321411
vt 0.5551758 0.001964569
vt 0.54345703 0.0008773804
vn 0.0004916191 0.018249512 1
vn -0.22937012 0.97314453 -0.000582695
vn -0.19445801 0.98095703 -0.00068855286
vn 0.00061511993 0.01687622 1
vn -0.12817383 0.9916992 -0.00085639954
vn 0.0005097389 0.014907837 1
vn -0.06933594 0.9975586 -0.00092220306
vn 0.00022184849 0.013206482 1
vn -0.017028809 1 -0.00091695786
vn -0.00017142296 0.011772156 1
vn 0.029525757 0.9995117 -0.00086402893
vn -0.0006079674 0.0105896 1
vn 0.07128906 0.9975586 -0.0007786751
vn -0.0010375977 0.009643555 1
vn 0.10913086 0.9941406 -0.0006699562
vn -0.001414299 0.008934021 1
vn 0.14404297 0.9897461 -0.000541687
vn -0.0016822815 0.008468628 1
vn 0.17749023 0.9838867 -0.0003914833
vn -0.0017433167 0.008354187 1
vn 0.21191406 0.9770508 -0.0001937151
vn -0.0013418198 0.00894928 1
vn 0.25463867 0.9667969 0.00016283989
vn 0.00056886673 0.011894226 1
vn 0.27929688 0.95996094 0.00081062317
vn 0.0044136047 0.021759033 0.9995117
vn 0.22937012 -0.97314453 -0.00017476082
vn 0.0004916191 0.018249512 1
vn 0.00061511993 0.01687622 1
vn 0.19445801 -0.98095703 0
vn 0.0005097389 0.014907837 1
vn 0.12817383 -0.9916992 0.00025486946
vn 0.00022184849 0.013206482 1
vn 0.06933594 -0.9975586 0.0004029274
vn -0.00017142296 0.011772156 1
vn 0.017028809 -1 0.0004711151
vn -0.0006079674 0.0105896 1
vn -0.029525757 -0.9995117 0.00048398972
vn -0.0010375977 0.009643555 1
vn -0.07128906 -0.9975586 0.00046038628
vn -0.001414299 0.008934021 1
vn -0.10913086 -0.9941406 0.00041484833
vn -0.0016822815 0.008468628 1
vn -0.14404297 -0.9897461 0.00035834312
vn -0.0017433167 0.008354187 1
vn -0.17749023 -0.9838867 0.0003039837
vn -0.0013418198 0.00894928 1
vn -0.21191406 -0.9770508 0.00027918816
vn 0.00056886673 0.011894226 1
vn -0.25463867 -0.96728516 0.0003912449
vn 0.0044136047 0.021759033 0.9995117
vn -0.27929688 -0.9604492 0.0008940697
vn -0.008506775 0.015731812 -1
vn 0.22937012 -0.97314453 -0.00017476082
vn 0.19445801 -0.98095703 0
vn -0.00687027 0.014663696 -1
vn 0.12817383 -0.9916992 0.00025486946
vn -0.004142761 0.013160706 -1
vn 0.06933594 -0.9975586 0.0004029274
vn -0.0019569397 0.011711121 -1
vn 0.017028809 -1 0.0004711151
vn -0.00020813942 0.010368347 -1
vn -0.029525757 -0.9995117 0.00048398972
vn 0.0011901855 0.009178162 -1
vn -0.07128906 -0.9975586 0.00046038628
vn 0.0023078918 0.008155823 -1
vn -0.10913086 -0.9941406 0.00041484833
vn 0.0031986237 0.0073280334 -1
vn -0.14404297 -0.9897461 0.00035834312
vn 0.0038967133 0.00674057 -1
vn -0.17749023 -0.9838867 0.0003039837
vn 0.0044288635 0.0065345764 -1
vn -0.21191406 -0.9770508 0.00027918816
vn 0.004837036 0.007129669 -1
vn -0.25463867 -0.96728516 0.0003912449
vn 0.005367279 0.010406494 -1
vn -0.27929688 -0.9604492 0.0008940697
vn 0.008010864 0.020553589 -1
vn -0.22937012 0.97314453 -0.000582695
vn -0.008506775 0.015731812 -1
vn -0.00687027 0.014663696 -1
vn -0.19445801 0.98095703 -0.00068855286
vn -0.004142761 0.013160706 -1
vn -0.12817383 0.9916992 -0.00085639954
vn -0.0019569397 0.011711121 -1
vn -0.06933594 0.9975586 -0.00092220306
vn -0.00020813942 0.010368347 -1
vn -0.017028809 1 -0.00091695786
vn 0.0011901855 0.009178162 -1
vn 0.029525757 0.9995117 -0.00086402893
vn 0.0023078918 0.008155823 -1
vn 0.07128906 0.9975586 -0.0007786751
vn 0.0031986237 0.0073280334 -1
vn 0.10913086 0.9941406 -0.0006699562
vn 0.0038967133 0.00674057 -1
vn 0.14404297 0.9897461 -0.000541687
vn 0.0044288635 0.0065345764 -1
vn 0.17749023 0.9838867 -0.0003914833
vn 0.004837036 0.007129669 -1
vn 0.21191406 0.9770508 -0.0001937151
vn 0.005367279 0.010406494 -1
vn 0.25463867 0.9667969 0.00016283989
vn 0.008010864 0.020553589 -1
vn 0.27929688 0.95996094 0.00081062317
g BezierCurve_0
f 3/3/3 2/2/2 1/1/1
f 4/4/4 3/3/3 1/1/1
f 5/5/5 3/3/3 4/4/4
f 6/6/6 5/5/5 4/4/4
f 7/7/7 5/5/5 6/6/6
f 8/8/8 7/7/7 6/6/6
f 9/9/9 7/7/7 8/8/8
f 10/10/10 9/9/9 8/8/8
f 11/11/11 9/9/9 10/10/10
f 12/12/12 11/11/11 10/10/10
f 13/13/13 11/11/11 12/12/12
f 14/14/14 13/13/13 12/12/12
f 15/15/15 13/13/13 14/14/14
f 16/16/16 15/15/15 14/14/14
f 17/17/17 15/15/15 16/16/16
f 18/18/18 17/17/17 16/16/16
f 19/19/19 17/17/17 18/18/18
f 20/20/20 19/19/19 18/18/18
f 21/21/21 19/19/19 20/20/20
f 22/22/22 21/21/21 20/20/20
f 23/23/23 21/21/21 22/22/22
f 24/24/24 23/23/23 22/22/22
f 25/25/25 23/23/23 24/24/24
f 26/26/26 25/25/25 24/24/24
f 29/29/29 28/28/28 27/27/27
f 30/30/30 29/29/29 27/27/27
f 31/31/31 29/29/29 30/30/30
f 32/32/32 31/31/31 30/30/30
f 33/33/33 31/31/31 32/32/32
f 34/34/34 33/33/33 32/32/32
f 35/35/35 33/33/33 34/34/34
f 36/36/36 35/35/35 34/34/34
f 37/37/37 35/35/35 36/36/36
f 38/38/38 37/37/37 36/36/36
f 39/39/39 37/37/37 38/38/38
f 40/40/40 39/39/39 38/38/38
f 41/41/41 39/39/39 40/40/40
f 42/42/42 41/41/41 40/40/40
f 43/43/43 41/41/41 42/42/42
f 44/44/44 43/43/43 42/42/42
f 45/45/45 43/43/43 44/44/44
f 46/46/46 45/45/45 44/44/44
f 47/47/47 45/45/45 46/46/46
f 48/48/48 47/47/47 46/46/46
f 49/49/49 47/47/47 48/48/48
f 50/50/50 49/49/49 48/48/48
f 51/51/51 49/49/49 50/50/50
f 52/52/52 51/51/51 50/50/50
f 55/55/55 54/54/54 53/53/53
f 56/56/56 55/55/55 53/53/53
f 57/57/57 55/55/55 56/56/56
f 58/58/58 57/57/57 56/56/56
f 59/59/59 57/57/57 58/58/58
f 60/60/60 59/59/59 58/58/58
f 61/61/61 59/59/59 60/60/60
f 62/62/62 61/61/61 60/60/60
f 63/63/63 61/61/61 62/62/62
f 64/64/64 63/63/63 62/62/62
f 65/65/65 63/63/63 64/64/64
f 66/66/66 65/65/65 64/64/64
f 67/67/67 65/65/65 66/66/66
f 68/68/68 67/67/67 66/66/66
f 69/69/69 67/67/67 68/68/68
f 70/70/70 69/69/69 68/68/68
f 71/71/71 69/69/69 70/70/70
f 72/72/72 71/71/71 70/70/70
f 73/73/73 71/71/71 72/72/72
f 74/74/74 73/73/73 72/72/72
f 75/75/75 73/73/73 74/74/74
f 76/76/76 75/75/75 74/74/74
f 77/77/77 75/75/75 76/76/76
f 78/78/78 77/77/77 76/76/76
f 81/81/81 80/80/80 79/79/79
f 82/82/82 81/81/81 79/79/79
f 83/83/83 81/81/81 82/82/82
f 84/84/84 83/83/83 82/82/82
f 85/85/85 83/83/83 84/84/84
f 86/86/86 85/85/85 84/84/84
f 87/87/87 85/85/85 86/86/86
f 88/88/88 87/87/87 86/86/86
f 89/89/89 87/87/87 88/88/88
f 90/90/90 89/89/89 88/88/88
f 91/91/91 89/89/89 90/90/90
f 92/92/92 91/91/91 90/90/90
f 93/93/93 91/91/91 92/92/92
f 94/94/94 93/93/93 92/92/92
f 95/95/95 93/93/93 94/94/94
f 96/96/96 95/95/95 94/94/94
f 97/97/97 95/95/95 96/96/96
f 98/98/98 97/97/97 96/96/96
f 99/99/99 97/97/97 98/98/98
f 100/100/100 99/99/99 98/98/98
f 101/101/101 99/99/99 100/100/100
f 102/102/102 101/101/101 100/100/100
f 103/103/103 101/101/101 102/102/102
f 104/104/104 103/103/103 102/102/102
