g Book
v -1.062233 -1.0058541 0.42867368
v -1.062233 1.0082229 0.42867368
v -1.0291703 1.0004292 0.84880567
v -1.0291703 -0.9995708 0.84880567
v -1.0291703 -0.9995708 -0.83172226
v -1.0264405 1.0004294 -0.85080075
v -1.0291703 1.0004292 -0.83172226
v -1.0264405 -0.999571 -0.85080075
v -0.99589574 1.0004294 -1.129754
v -0.99589574 -0.999571 -1.129754
v 1.0480611 -0.9995708 0.84880567
v 1.136825 -0.9995709 0.9199511
v 1.136825 1.0004293 0.9199511
v 1.0480611 1.0004292 0.84880567
v 1.136825 -0.9995709 0.9199511
v 1.137333 -0.9995709 1.1266296
v 1.137333 1.0004293 1.1266296
v 1.136825 1.0004293 0.9199511
v -1.0291703 1.0004292 0.84880567
v -1.0342709 1.0004293 0.9199511
v -1.0342709 -0.9995709 0.9199511
v -1.0291703 -0.9995708 0.84880567
v -1.0291703 -0.9995708 0.84880567
v 1.136825 -0.9995709 0.9199511
v 1.0480611 -0.9995708 0.84880567
v -1.0342709 -0.9995709 0.9199511
v 1.137333 -0.9995709 1.1266296
v -1.0119487 -0.9995709 1.1266296
v 1.0480611 1.0004292 0.84880567
v -1.0342709 1.0004293 0.9199511
v -1.0291703 1.0004292 0.84880567
v 1.136825 1.0004293 0.9199511
v -1.0119487 1.0004293 1.1266296
v 1.137333 1.0004293 1.1266296
v 1.137333 1.0004293 1.1266296
v 1.137333 -0.9995709 1.1266296
v -1.0119487 -0.9995709 1.1266296
v -1.0119487 1.0004293 1.1266296
v -1.0342709 1.0004293 0.9199511
v -1.0119487 1.0004293 1.1266296
v -1.0119487 -0.9995709 1.1266296
v -1.0342709 -0.9995709 0.9199511
v -1.062233 -0.9995708 0.3357105
v -1.062233 1.0082229 0.42867368
v -1.062233 -1.0058541 0.42867368
v -1.062233 1.0004292 0.3357105
v -1.062233 -0.9995708 0.008541703
v -1.062233 1.0080755 0.008541703
v -1.062233 -0.9995708 -0.068091825
v -1.062233 1.0004292 -0.068091825
v -1.062233 -1.0089616 -0.41159028
v -1.062233 1.0004292 -0.41159028
v -1.055059 -0.9995708 -0.502751
v -1.055059 0.99170154 -0.502751
v -1.062233 1.0004292 -0.41159028
v -1.062233 -1.0089616 -0.41159028
v 1.1190822 -0.999571 -0.85080075
v 1.1190822 -0.999571 -1.129754
v -0.99589574 -0.999571 -1.129754
v -1.0264405 -0.999571 -0.85080075
v 1.0480611 -0.9995708 -0.83172226
v -1.0291703 -0.9995708 -0.83172226
v 1.0480611 1.0004292 -0.83172226
v 1.1190822 1.0004294 -0.85080075
v 1.1190822 -0.999571 -0.85080075
v 1.0480611 -0.9995708 -0.83172226
v -1.0291703 1.0004292 -0.83172226
v 1.1190822 1.0004294 -0.85080075
v 1.0480611 1.0004292 -0.83172226
v -1.0264405 1.0004294 -0.85080075
v 1.1190822 1.0004294 -1.129754
v -0.99589574 1.0004294 -1.129754
v -0.99589574 1.0004294 -1.129754
v -0.99589574 -0.999571 -1.129754
v 1.1190822 -0.999571 -1.129754
v 1.1190822 1.0004294 -1.129754
v 1.1190822 1.0004294 -0.85080075
v 1.1190822 1.0004294 -1.129754
v 1.1190822 -0.999571 -1.129754
v 1.1190822 -0.999571 -0.85080075
v -1.0291703 -0.9995708 -0.83172226
v -1.0291703 1.0004292 -0.83172226
v -1.055059 0.99170154 -0.502751
v -1.055059 -0.9995708 -0.502751
v -1.062233 1.0082229 0.42867368
v 1.010372 1.0082229 0.42867368
v 1.0480611 1.0004292 0.84880567
v -1.0291703 1.0004292 0.84880567
v 1.010372 1.0082229 0.42867368
v 1.010372 -1.0058541 0.42867368
v 1.0480611 -0.9995708 0.84880567
v 1.0480611 1.0004292 0.84880567
v 1.010372 -1.0058541 0.42867368
v -1.062233 -1.0058541 0.42867368
v -1.0291703 -0.9995708 0.84880567
v 1.0480611 -0.9995708 0.84880567
v 0.99915516 1.0004292 -0.06809181
v 0.99915516 -0.9995708 -0.06809181
v 0.9835444 -0.9995708 0.008541703
v 0.9835444 1.0080755 0.008541703
v -1.062233 1.0004292 -0.068091825
v 0.99915516 1.0004292 -0.06809181
v 0.9835444 1.0080755 0.008541703
v -1.062233 1.0080755 0.008541703
v 1.0210487 -0.9995708 0.3357105
v -1.062233 -0.9995708 0.3357105
v -1.062233 -1.0058541 0.42867368
v 1.010372 -1.0058541 0.42867368
v 1.0210487 1.0004292 0.3357105
v 1.0210487 -0.9995708 0.3357105
v 1.010372 -1.0058541 0.42867368
v 1.010372 1.0082229 0.42867368
v -1.062233 1.0004292 0.3357105
v 1.0210487 1.0004292 0.3357105
v 1.010372 1.0082229 0.42867368
v -1.062233 1.0082229 0.42867368
v -1.055059 0.99170154 -0.502751
v 1.027696 0.99170154 -0.502751
v 1.010372 1.0004292 -0.41159028
v -1.062233 1.0004292 -0.41159028
v 1.027696 0.99170154 -0.502751
v 1.027696 -0.9995708 -0.502751
v 1.010372 -1.0089616 -0.41159028
v 1.010372 1.0004292 -0.41159028
v 1.027696 -0.9995708 -0.502751
v -1.055059 -0.9995708 -0.502751
v -1.062233 -1.0089616 -0.41159028
v 1.010372 -1.0089616 -0.41159028
v -1.062233 1.0004292 -0.41159028
v 1.010372 1.0004292 -0.41159028
v 0.99915516 1.0004292 -0.06809181
v -1.062233 1.0004292 -0.068091825
v 1.010372 1.0004292 -0.41159028
v 1.010372 -1.0089616 -0.41159028
v 0.99915516 -0.9995708 -0.06809181
v 0.99915516 1.0004292 -0.06809181
v 1.010372 -1.0089616 -0.41159028
v -1.062233 -1.0089616 -0.41159028
v -1.062233 -0.9995708 -0.068091825
v 0.99915516 -0.9995708 -0.06809181
v 0.99915516 -0.9995708 -0.06809181
v -1.062233 -0.9995708 0.008541703
v 0.9835444 -0.9995708 0.008541703
v -1.062233 -0.9995708 0.3357105
v 1.0210487 -0.9995708 0.3357105
v 1.0480611 -0.9995708 -0.83172226
v -1.0291703 -0.9995708 -0.83172226
v -1.055059 -0.9995708 -0.502751
v 1.027696 -0.9995708 -0.502751
v 1.0480611 1.0004292 -0.83172226
v 1.0480611 -0.9995708 -0.83172226
v 1.027696 -0.9995708 -0.502751
v 1.027696 0.99170154 -0.502751
v -1.0291703 1.0004292 -0.83172226
v 1.0480611 1.0004292 -0.83172226
v 1.027696 0.99170154 -0.502751
v -1.055059 0.99170154 -0.502751
v -1.062233 1.0080755 0.008541703
v 0.9835444 1.0080755 0.008541703
v 1.0210487 1.0004292 0.3357105
v -1.062233 1.0004292 0.3357105
v 0.9835444 1.0080755 0.008541703
v 0.9835444 -0.9995708 0.008541703
v 1.0210487 -0.9995708 0.3357105
v 1.0210487 1.0004292 0.3357105
vt 0.5625 0
vt 0.5625 0.25
vt 0.625 0.25
vt 0.625 0
vt 0.375 0
vt 0.375 0.25
vt 0.375 0.25
vt 0.375 0
vt 0.375 0.25
vt 0.375 0
vt 0.625 0.75
vt 0.625 0.75
vt 0.625 0.5
vt 0.625 0.5
vt 0.625 0.75
vt 0.625 0.75
vt 0.625 0.5
vt 0.625 0.5
vt 0.625 0.25
vt 0.625 0.25
vt 0.625 0
vt 0.625 0
vt 0.625 1
vt 0.625 0.75
vt 0.625 0.75
vt 0.625 1
vt 0.625 0.75
vt 0.625 1
vt 0.625 0.5
vt 0.625 0.25
vt 0.625 0.25
vt 0.625 0.5
vt 0.625 0.25
vt 0.625 0.5
vt 0.625 0.5
vt 0.625 0.75
vt 0.875 0.75
vt 0.875 0.5
vt 0.625 0.25
vt 0.625 0.25
vt 0.625 0
vt 0.625 0
vt 0.5488281 0
vt 0.5625 0.25
vt 0.5625 0
vt 0.5488281 0.25
vt 0.5 0
vt 0.5 0.25
vt 0.4885254 0
vt 0.4885254 0.25
vt 0.4375 0
vt 0.4375 0.25
vt 0.42382812 0
vt 0.42382812 0.25
vt 0.4375 0.25
vt 0.4375 0
vt 0.375 0.75
vt 0.375 0.75
vt 0.375 1
vt 0.375 1
vt 0.375 0.75
vt 0.375 1
vt 0.375 0.5
vt 0.375 0.5
vt 0.375 0.75
vt 0.375 0.75
vt 0.375 0.25
vt 0.375 0.5
vt 0.375 0.5
vt 0.375 0.25
vt 0.375 0.5
vt 0.375 0.25
vt 0.125 0.5
vt 0.125 0.75
vt 0.375 0.75
vt 0.375 0.5
vt 0.375 0.5
vt 0.375 0.5
vt 0.375 0.75
vt 0.375 0.75
vt 0.375 0
vt 0.375 0.25
vt 0.42382812 0.25
vt 0.42382812 0
vt 0.5625 0.25
vt 0.5625 0.5
vt 0.625 0.5
vt 0.625 0.25
vt 0.5625 0.5
vt 0.5625 0.75
vt 0.625 0.75
vt 0.625 0.5
vt 0.5625 0.75
vt 0.5625 1
vt 0.625 1
vt 0.625 0.75
vt 0.4885254 0.5
vt 0.4885254 0.75
vt 0.5 0.75
vt 0.5 0.5
vt 0.4885254 0.25
vt 0.4885254 0.5
vt 0.5 0.5
vt 0.5 0.25
vt 0.5488281 0.75
vt 0.5488281 1
vt 0.5625 1
vt 0.5625 0.75
vt 0.5488281 0.5
vt 0.5488281 0.75
vt 0.5625 0.75
vt 0.5625 0.5
vt 0.5488281 0.25
vt 0.5488281 0.5
vt 0.5625 0.5
vt 0.5625 0.25
vt 0.42382812 0.25
vt 0.42382812 0.5
vt 0.4375 0.5
vt 0.4375 0.25
vt 0.42382812 0.5
vt 0.42382812 0.75
vt 0.4375 0.75
vt 0.4375 0.5
vt 0.42382812 0.75
vt 0.42382812 1
vt 0.4375 1
vt 0.4375 0.75
vt 0.4375 0.25
vt 0.4375 0.5
vt 0.4885254 0.5
vt 0.4885254 0.25
vt 0.4375 0.5
vt 0.4375 0.75
vt 0.4885254 0.75
vt 0.4885254 0.5
vt 0.4375 0.75
vt 0.4375 1
vt 0.4885254 1
vt 0.4885254 0.75
vt 0.4885254 0.75
vt 0.5 1
vt 0.5 0.75
vt 0.5488281 1
vt 0.5488281 0.75
vt 0.375 0.75
vt 0.375 1
vt 0.42382812 1
vt 0.42382812 0.75
vt 0.375 0.5
vt 0.375 0.75
vt 0.42382812 0.75
vt 0.42382812 0.5
vt 0.375 0.25
vt 0.375 0.5
vt 0.42382812 0.5
vt 0.42382812 0.25
vt 0.5 0.25
vt 0.5 0.5
vt 0.5488281 0.5
vt 0.5488281 0.25
vt 0.5 0.5
vt 0.5 0.75
vt 0.5488281 0.75
vt 0.5488281 0.5
vn -0.9970703 0 0.078430176
vn -0.9970703 0 0.078430176
vn -0.9970703 0 0.078430176
vn -0.9970703 0 0.078430176
vn -0.9897461 0 -0.14160156
vn -0.9897461 0 -0.14160156
vn -0.9897461 0 -0.14160156
vn -0.9897461 0 -0.14160156
vn -0.9941406 0 -0.10882568
vn -0.9941406 0 -0.10882568
vn 0.6254883 0 -0.78027344
vn 0.6254883 0 -0.78027344
vn 0.6254883 0 -0.78027344
vn 0.6254883 0 -0.78027344
vn 1 0 -0.0024585724
vn 1 0 -0.0024585724
vn 1 0 -0.0024585724
vn 1 0 -0.0024585724
vn -0.9975586 0 -0.0715332
vn -0.9975586 0 -0.0715332
vn -0.9975586 0 -0.0715332
vn -0.9975586 0 -0.0715332
vn -0 -1 0
vn -0 -1 0
vn -0 -1 0
vn -0 -1 0
vn -0 -1 0
vn -0 -1 0
vn -0 1 0
vn -0 1 0
vn -0 1 0
vn -0 1 0
vn -0 1 0
vn -0 1 0
vn -0 0 1
vn -0 0 1
vn -0 0 1
vn -0 0 1
vn -0.9941406 0 0.10736084
vn -0.9941406 0 0.10736084
vn -0.9941406 0 0.10736084
vn -0.9941406 0 0.10736084
vn -1 0 0
vn -1 0 0
vn -1 0 0
vn -1 0 0
vn -1 0 0
vn -1 0 0
vn -1 0 0
vn -1 0 0
vn -1 0 0
vn -1 0 0
vn -0.9970703 0 -0.078430176
vn -0.9970703 0 -0.078430176
vn -0.9970703 0 -0.078430176
vn -0.9970703 0 -0.078430176
vn -0 -1 0
vn -0 -1 0
vn -0 -1 0
vn -0 -1 0
vn -0 -1 1.7762184E-05
vn -0 -1 1.7762184E-05
vn 0.25952148 0 0.9658203
vn 0.25952148 0 0.9658203
vn 0.25952148 0 0.9658203
vn 0.25952148 0 0.9658203
vn -0 1 0
vn -0 1 0
vn -0 1 0
vn -0 1 0
vn -0 1 0
vn -0 1 0
vn -0 0 -1
vn -0 0 -1
vn -0 0 -1
vn -0 0 -1
vn 1 0 0
vn 1 0 0
vn 1 0 0
vn 1 0 0
vn -0.9970703 0 -0.078430176
vn -0.9970703 0 -0.078430176
vn -0.9970703 0 -0.078430176
vn -0.9970703 0 -0.078430176
vn -0 1 0.018554688
vn -0 1 0.018554688
vn -0 1 0.018554688
vn -0 1 0.018554688
vn 0.99609375 0 -0.08935547
vn 0.99609375 0 -0.08935547
vn 0.99609375 0 -0.08935547
vn 0.99609375 0 -0.08935547
vn -0 -1 0.014953613
vn -0 -1 0.014953613
vn -0 -1 0.014953613
vn -0 -1 0.014953613
vn 0.97998047 0 0.19958496
vn 0.97998047 0 0.19958496
vn 0.97998047 0 0.19958496
vn 0.97998047 0 0.19958496
vn -0 0.9951172 -0.0993042
vn -0 0.9951172 -0.0993042
vn -0 0.9951172 -0.0993042
vn -0 0.9951172 -0.0993042
vn -0 -0.9975586 -0.06744385
vn -0 -0.9975586 -0.06744385
vn -0 -0.9975586 -0.06744385
vn -0 -0.9975586 -0.06744385
vn 0.99365234 0 0.11407471
vn 0.99365234 0 0.11407471
vn 0.99365234 0 0.11407471
vn 0.99365234 0 0.11407471
vn -0 0.99658203 -0.08355713
vn -0 0.99658203 -0.08355713
vn -0 0.99658203 -0.08355713
vn -0 0.99658203 -0.08355713
vn -0 0.99560547 -0.09527588
vn -0 0.99560547 -0.09527588
vn -0 0.99560547 -0.09527588
vn -0 0.99560547 -0.09527588
vn 0.9824219 0 0.18664551
vn 0.9824219 0 0.18664551
vn 0.9824219 0 0.18664551
vn 0.9824219 0 0.18664551
vn -0 -0.9946289 -0.10247803
vn -0 -0.9946289 -0.10247803
vn -0 -0.9946289 -0.10247803
vn -0 -0.9946289 -0.10247803
vn -0 1 0
vn -0 1 0
vn -0 1 0
vn -0 1 0
vn 0.9995117 0 0.03262329
vn 0.9995117 0 0.03262329
vn 0.9995117 0 0.03262329
vn 0.9995117 0 0.03262329
vn -0 -0.9995117 0.027328491
vn -0 -0.9995117 0.027328491
vn -0 -1 0
vn -0 -0.9995117 0.027328491
vn -0 -1 0
vn -0 -1 0
vn -0 -1 0
vn -0 -1 0
vn -0 -1 0
vn -0 -1 0
vn -0 -1 0
vn -0 -1 0
vn -0 -1 0
vn 0.9980469 0 0.061798096
vn 0.9980469 0 0.061798096
vn 0.9980469 0 0.061798096
vn 0.9980469 0 0.061798096
vn -0 0.9995117 0.026519775
vn -0 0.9995117 0.026519775
vn -0 0.9995117 0.026519775
vn -0 0.9995117 0.026519775
vn -0 0.9995117 0.023361206
vn -0 0.9995117 0.023361206
vn -0 0.9995117 0.023361206
vn -0 0.9995117 0.023361206
vn 0.99365234 0 -0.1138916
vn 0.99365234 0 -0.1138916
vn 0.99365234 0 -0.1138916
vn 0.99365234 0 -0.1138916
g Book_0
f 3/3/3 2/2/2 1/1/1
f 4/4/4 3/3/3 1/1/1
f 7/7/7 6/6/6 5/5/5
f 6/6/6 8/8/8 5/5/5
f 6/6/6 9/9/9 8/8/8
f 9/9/9 10/10/10 8/8/8
f 13/13/13 12/12/12 11/11/11
f 14/14/14 13/13/13 11/11/11
f 17/17/17 16/16/16 15/15/15
f 18/18/18 17/17/17 15/15/15
f 21/21/21 20/20/20 19/19/19
f 22/22/22 21/21/21 19/19/19
f 25/25/25 24/24/24 23/23/23
f 24/24/24 26/26/26 23/23/23
f 24/24/24 27/27/27 26/26/26
f 27/27/27 28/28/28 26/26/26
f 31/31/31 30/30/30 29/29/29
f 30/30/30 32/32/32 29/29/29
f 30/30/30 33/33/33 32/32/32
f 33/33/33 34/34/34 32/32/32
f 37/37/37 36/36/36 35/35/35
f 38/38/38 37/37/37 35/35/35
f 41/41/41 40/40/40 39/39/39
f 42/42/42 41/41/41 39/39/39
f 45/45/45 44/44/44 43/43/43
f 44/44/44 46/46/46 43/43/43
f 43/43/43 46/46/46 47/47/47
f 46/46/46 48/48/48 47/47/47
f 47/47/47 48/48/48 49/49/49
f 48/48/48 50/50/50 49/49/49
f 49/49/49 50/50/50 51/51/51
f 50/50/50 52/52/52 51/51/51
f 55/55/55 54/54/54 53/53/53
f 56/56/56 55/55/55 53/53/53
f 59/59/59 58/58/58 57/57/57
f 60/60/60 59/59/59 57/57/57
f 60/60/60 57/57/57 61/61/61
f 62/62/62 60/60/60 61/61/61
f 65/65/65 64/64/64 63/63/63
f 66/66/66 65/65/65 63/63/63
f 69/69/69 68/68/68 67/67/67
f 68/68/68 70/70/70 67/67/67
f 68/68/68 71/71/71 70/70/70
f 71/71/71 72/72/72 70/70/70
f 75/75/75 74/74/74 73/73/73
f 76/76/76 75/75/75 73/73/73
f 79/79/79 78/78/78 77/77/77
f 80/80/80 79/79/79 77/77/77
f 83/83/83 82/82/82 81/81/81
f 84/84/84 83/83/83 81/81/81
g Book_1
f 87/87/87 86/86/86 85/85/85
f 88/88/88 87/87/87 85/85/85
f 91/91/91 90/90/90 89/89/89
f 92/92/92 91/91/91 89/89/89
f 95/95/95 94/94/94 93/93/93
f 96/96/96 95/95/95 93/93/93
f 99/99/99 98/98/98 97/97/97
f 100/100/100 99/99/99 97/97/97
f 103/103/103 102/102/102 101/101/101
f 104/104/104 103/103/103 101/101/101
f 107/107/107 106/106/106 105/105/105
f 108/108/108 107/107/107 105/105/105
f 111/111/111 110/110/110 109/109/109
f 112/112/112 111/111/111 109/109/109
f 115/115/115 114/114/114 113/113/113
f 116/116/116 115/115/115 113/113/113
f 119/119/119 118/118/118 117/117/117
f 120/120/120 119/119/119 117/117/117
f 123/123/123 122/122/122 121/121/121
f 124/124/124 123/123/123 121/121/121
f 127/127/127 126/126/126 125/125/125
f 128/128/128 127/127/127 125/125/125
f 131/131/131 130/130/130 129/129/129
f 132/132/132 131/131/131 129/129/129
f 135/135/135 134/134/134 133/133/133
f 136/136/136 135/135/135 133/133/133
f 139/139/139 138/138/138 137/137/137
f 140/140/140 139/139/139 137/137/137
f 142/142/142 139/139/139 141/141/141
f 143/143/143 142/142/142 141/141/141
f 144/144/144 142/142/142 143/143/143
f 145/145/145 144/144/144 143/143/143
f 148/148/148 147/147/147 146/146/146
f 149/149/149 148/148/148 146/146/146
f 152/152/152 151/151/151 150/150/150
f 153/153/153 152/152/152 150/150/150
f 156/156/156 155/155/155 154/154/154
f 157/157/157 156/156/156 154/154/154
f 160/160/160 159/159/159 158/158/158
f 161/161/161 160/160/160 158/158/158
f 164/164/164 163/163/163 162/162/162
f 165/165/165 164/164/164 162/162/162
