g BooksTex
v 1.5749245 16.708115 -0.34703523
v 1.5749245 20.40778 -0.34703523
v 21.941868 20.40778 -0.3470356
v 21.941868 16.708115 -0.3470356
v 1.5749245 4.829319 -0.34703523
v 1.5749245 12.044206 -0.34703523
v 21.941868 12.044206 -0.3470356
v 21.941868 4.829319 -0.3470356
v 1.5749245 12.044206 -0.34703523
v 1.5749245 16.708115 -0.34703523
v 21.941868 16.708115 -0.3470356
v 21.941868 12.044206 -0.3470356
v 1.5749245 0.056633975 -0.34703523
v 1.5749245 4.829319 -0.34703523
v 21.941868 4.829319 -0.3470356
v 21.941868 0.056633975 -0.3470356
vt 0 0.9343576
vt 0 1.1085296
vt 1 1.1085296
vt 1 0.9343576
vt 0 0.28239548
vt 0 0.6486159
vt 1 0.64861584
vt 1 0.28239545
vt 0 0.65229136
vt 0 0.8718576
vt 1 0.8718576
vt 1 0.6522913
vt 0 0.052280657
vt 0 0.27415985
vt 1 0.27415982
vt 1 0.052280657
vn -0 0 1
vn -0 0 1
vn -0 0 1
vn -0 0 1
vn -0 0 1
vn -0 0 1
vn -0 0 1
vn -0 0 1
vn -0 0 1
vn -0 0 1
vn -0 0 1
vn -0 0 1
vn -0 0 1
vn -0 0 1
vn -0 0 1
vn -0 0 1
g BooksTex_0
f 3/3/3 2/2/2 1/1/1
f 4/4/4 3/3/3 1/1/1
f 7/7/7 6/6/6 5/5/5
f 8/8/8 7/7/7 5/5/5
f 11/11/11 10/10/10 9/9/9
f 12/12/12 11/11/11 9/9/9
f 15/15/15 14/14/14 13/13/13
f 16/16/16 15/15/15 13/13/13
