g BooksTexCurved
v 16.684204 16.708115 1.6350315
v 16.684204 20.40778 1.6350315
v 19.115253 20.40778 5.1774516
v 19.115253 16.708115 5.1774516
v 16.684204 4.829319 1.6350315
v 16.684204 12.044206 1.6350315
v 19.115253 12.044206 5.1774516
v 19.115253 4.82932 5.1774516
v 16.684204 12.044206 1.6350315
v 16.684204 16.708115 1.6350315
v 19.115253 16.708115 5.1774516
v 19.115253 12.044206 5.1774516
v 16.684204 0.056634013 1.6350315
v 16.684204 4.829319 1.6350315
v 19.115253 4.82932 5.1774516
v 19.115253 0.056633994 5.1774516
v 1.6689168 0.056633987 -0.24145985
v 1.6689168 4.829319 -0.24145985
v 11.751953 4.829319 -0.24146008
v 11.751952 0.056633987 -0.24146008
v 1.6689168 12.044206 -0.24145985
v 1.6689168 16.708115 -0.24145985
v 11.751953 16.708115 -0.24146008
v 11.751953 12.044206 -0.24146008
v 1.6689168 4.829319 -0.24145985
v 1.6689168 12.044206 -0.24145985
v 11.751953 12.044206 -0.24146008
v 11.751953 4.829319 -0.24146008
v 1.6689168 16.708115 -0.24145985
v 1.6689168 20.40778 -0.24145985
v 11.751953 20.40778 -0.24146008
v 11.751953 16.708115 -0.24146008
v 11.751952 0.056633987 -0.24146008
v 11.751953 4.829319 -0.24146008
v 16.684204 4.829319 1.6350315
v 16.684204 0.056634013 1.6350315
v 11.751953 12.044206 -0.24146008
v 11.751953 16.708115 -0.24146008
v 16.684204 16.708115 1.6350315
v 16.684204 12.044206 1.6350315
v 11.751953 4.829319 -0.24146008
v 11.751953 12.044206 -0.24146008
v 16.684204 12.044206 1.6350315
v 16.684204 4.829319 1.6350315
v 11.751953 16.708115 -0.24146008
v 11.751953 20.40778 -0.24146008
v 16.684204 20.40778 1.6350315
v 16.684204 16.708115 1.6350315
v 19.115253 20.40778 5.1774516
v 19.148144 20.40778 12.667099
v 19.148144 16.708115 12.667099
v 19.115253 16.708115 5.1774516
v 19.115253 4.82932 5.1774516
v 19.148144 4.82932 12.667099
v 19.148144 0.056634456 12.667099
v 19.115253 0.056633994 5.1774516
v 19.115253 16.708115 5.1774516
v 19.148144 16.708115 12.667099
v 19.148144 12.044207 12.667099
v 19.115253 12.044206 5.1774516
v 19.115253 12.044206 5.1774516
v 19.148144 12.044207 12.667099
v 19.148144 4.82932 12.667099
v 19.115253 4.82932 5.1774516
vt 0.76953536 0.9343576
vt 0.7695353 1.1085296
vt 1 1.1085296
vt 1 0.9343576
vt 0.7695353 0.28239548
vt 0.7695353 0.64861584
vt 1 0.64861584
vt 1 0.28239545
vt 0.76953536 0.6522913
vt 0.7695353 0.8718576
vt 1 0.8718576
vt 1 0.6522913
vt 0.7695353 0.05228066
vt 0.7695353 0.27415985
vt 1 0.27415982
vt 1 0.052280657
vt 0 0.052280657
vt 0 0.27415985
vt 0.49506867 0.27415985
vt 0.49506867 0.052280657
vt 0 0.65229136
vt 0 0.8718576
vt 0.49506867 0.8718576
vt 0.49506867 0.6522913
vt 0 0.28239548
vt 0 0.6486159
vt 0.49506867 0.64861584
vt 0.49506867 0.28239548
vt 0 0.9343576
vt 0 1.1085296
vt 0.49506867 1.1085296
vt 0.49506867 0.9343576
vt 0.49506867 0.052280657
vt 0.49506867 0.27415985
vt 0.7695353 0.27415985
vt 0.7695353 0.05228066
vt 0.49506867 0.6522913
vt 0.49506867 0.8718576
vt 0.7695353 0.8718576
vt 0.76953536 0.6522913
vt 0.49506867 0.28239548
vt 0.49506867 0.64861584
vt 0.7695353 0.64861584
vt 0.7695353 0.28239548
vt 0.49506867 0.9343576
vt 0.49506867 1.1085296
vt 0.7695353 1.1085296
vt 0.76953536 0.9343576
vt 0 1.1113281
vt 0.3793335 1.1113281
vt 0.3793335 0.9295366
vt 0 0.9295366
vt 0 0.29115748
vt 0.3793335 0.29115748
vt 0.3793335 0.056640625
vt 0 0.056640625
vt 0 0.87528586
vt 0.3793335 0.87528586
vt 0.3793335 0.66086555
vt 0 0.66086555
vt 0 0.65159225
vt 0.3793335 0.65159225
vt 0.3793335 0.2852426
vt 0 0.2852426
vn -0.8245159 0 0.5658388
vn -0.8245159 0 0.5658388
vn -0.8245159 0 0.5658388
vn -0.8245159 0 0.5658388
vn -0.8245159 0 0.5658389
vn -0.8245159 0 0.5658389
vn -0.8245159 0 0.5658389
vn -0.8245159 0 0.5658389
vn -0.8245159 0 0.5658388
vn -0.8245159 0 0.5658388
vn -0.8245159 0 0.5658388
vn -0.8245159 0 0.5658388
vn -0.8245159 0 0.5658388
vn -0.8245159 0 0.5658388
vn -0.8245159 0 0.5658388
vn -0.8245159 0 0.5658388
vn -0 0 1
vn -0 0 1
vn -0 0 1
vn -0 0 1
vn -0 0 1
vn -0 0 1
vn -0 0 1
vn -0 0 1
vn -0 0 1
vn -0 0 1
vn -0 0 1
vn -0 0 1
vn -0 0 1
vn -0 0 1
vn -0 0 1
vn -0 0 1
vn -0.355588 0 0.9346428
vn -0.355588 0 0.9346428
vn -0.355588 0 0.9346428
vn -0.355588 0 0.9346428
vn -0.35558802 0 0.9346428
vn -0.35558802 0 0.9346428
vn -0.35558802 0 0.9346428
vn -0.35558802 0 0.9346428
vn -0.35558802 0 0.9346428
vn -0.35558802 0 0.9346428
vn -0.35558802 0 0.9346428
vn -0.35558802 0 0.9346428
vn -0.35558808 0 0.9346428
vn -0.35558808 0 0.9346428
vn -0.35558808 0 0.9346428
vn -0.35558808 0 0.9346428
vn -0.99999034 0 0.004391395
vn -0.99999034 0 0.004391395
vn -0.99999034 0 0.004391395
vn -0.99999034 0 0.004391395
vn -0.99999034 0 0.004391395
vn -0.99999034 0 0.004391395
vn -0.99999034 0 0.004391395
vn -0.99999034 0 0.004391395
vn -0.99999034 0 0.004391394
vn -0.99999034 0 0.004391394
vn -0.99999034 0 0.004391394
vn -0.99999034 0 0.004391394
vn -0.99999034 0 0.0043913955
vn -0.99999034 0 0.0043913955
vn -0.99999034 0 0.0043913955
vn -0.99999034 0 0.0043913955
g BooksTexCurved_0
f 3/3/3 2/2/2 1/1/1
f 4/4/4 3/3/3 1/1/1
f 7/7/7 6/6/6 5/5/5
f 8/8/8 7/7/7 5/5/5
f 11/11/11 10/10/10 9/9/9
f 12/12/12 11/11/11 9/9/9
f 15/15/15 14/14/14 13/13/13
f 16/16/16 15/15/15 13/13/13
f 19/19/19 18/18/18 17/17/17
f 20/20/20 19/19/19 17/17/17
f 23/23/23 22/22/22 21/21/21
f 24/24/24 23/23/23 21/21/21
f 27/27/27 26/26/26 25/25/25
f 28/28/28 27/27/27 25/25/25
f 31/31/31 30/30/30 29/29/29
f 32/32/32 31/31/31 29/29/29
f 35/35/35 34/34/34 33/33/33
f 36/36/36 35/35/35 33/33/33
f 39/39/39 38/38/38 37/37/37
f 40/40/40 39/39/39 37/37/37
f 43/43/43 42/42/42 41/41/41
f 44/44/44 43/43/43 41/41/41
f 47/47/47 46/46/46 45/45/45
f 48/48/48 47/47/47 45/45/45
f 51/51/51 50/50/50 49/49/49
f 52/52/52 51/51/51 49/49/49
f 55/55/55 54/54/54 53/53/53
f 56/56/56 55/55/55 53/53/53
f 59/59/59 58/58/58 57/57/57
f 60/60/60 59/59/59 57/57/57
f 63/63/63 62/62/62 61/61/61
f 64/64/64 63/63/63 61/61/61
