g BooksTexCurvedInverse
v 23.504326 16.708115 5.2678742
v 26.790092 16.708115 9.045984
v 26.790092 20.40778 9.045984
v 23.504326 20.40778 5.2678742
v 23.504326 4.829319 5.2678742
v 26.790092 4.82932 9.045984
v 26.790092 12.044206 9.045984
v 23.504326 12.044206 5.2678742
v 23.504326 12.044206 5.2678742
v 26.790092 12.044206 9.045984
v 26.790092 16.708115 9.045984
v 23.504326 16.708115 5.2678742
v 23.504326 0.05663388 5.2678742
v 26.790092 0.056633826 9.045984
v 26.790092 4.82932 9.045984
v 23.504326 4.829319 5.2678742
v 1.668917 0.056634046 1.100852
v 11.751952 0.056634046 1.1008518
v 11.751953 4.829319 1.1008518
v 1.668917 4.829319 1.100852
v 1.668917 12.044206 1.100852
v 11.751953 12.044206 1.1008518
v 11.751953 16.708115 1.1008518
v 1.668917 16.708115 1.100852
v 1.668917 4.829319 1.100852
v 11.751953 4.829319 1.1008518
v 11.751953 12.044206 1.1008518
v 1.668917 12.044206 1.100852
v 1.668917 16.708115 1.100852
v 11.751953 16.708115 1.1008518
v 11.751953 20.40778 1.1008518
v 1.668917 20.40778 1.100852
v 18.04466 0.0566339 2.2246695
v 23.504326 0.05663388 5.2678742
v 23.504326 4.829319 5.2678742
v 18.04466 4.829319 2.2246695
v 18.04466 12.044206 2.2246695
v 23.504326 12.044206 5.2678742
v 23.504326 16.708115 5.2678742
v 18.04466 16.708115 2.2246695
v 18.04466 4.829319 2.2246695
v 23.504326 4.829319 5.2678742
v 23.504326 12.044206 5.2678742
v 18.04466 12.044206 2.2246695
v 18.04466 16.708115 2.2246695
v 23.504326 16.708115 5.2678742
v 23.504326 20.40778 5.2678742
v 18.04466 20.40778 2.2246695
v 28.259962 20.40778 14.283517
v 28.259962 16.708115 14.283517
v 28.166689 16.708115 23.16205
v 28.166689 20.40778 23.16205
v 28.259962 4.82932 14.283517
v 28.259962 0.05663406 14.283517
v 28.166689 0.056634523 23.16205
v 28.166689 4.8293204 23.16205
v 28.259962 16.708115 14.283517
v 28.259962 12.044207 14.283517
v 28.166689 12.044207 23.16205
v 28.166689 16.708115 23.16205
v 28.259962 12.044207 14.283517
v 28.259962 4.82932 14.283517
v 28.166689 4.8293204 23.16205
v 28.166689 12.044207 23.16205
v 11.751953 16.708115 1.1008518
v 18.04466 16.708115 2.2246695
v 18.04466 20.40778 2.2246695
v 11.751953 20.40778 1.1008518
v 11.751953 4.829319 1.1008518
v 18.04466 4.829319 2.2246695
v 18.04466 12.044206 2.2246695
v 11.751953 12.044206 1.1008518
v 11.751953 12.044206 1.1008518
v 18.04466 12.044206 2.2246695
v 18.04466 16.708115 2.2246695
v 11.751953 16.708115 1.1008518
v 11.751952 0.056634046 1.1008518
v 18.04466 0.0566339 2.2246695
v 18.04466 4.829319 2.2246695
v 11.751953 4.829319 1.1008518
v 26.790092 12.044206 9.045984
v 26.790092 4.82932 9.045984
v 28.259962 4.82932 14.283517
v 28.259962 12.044207 14.283517
v 26.790092 16.708115 9.045984
v 26.790092 12.044206 9.045984
v 28.259962 12.044207 14.283517
v 28.259962 16.708115 14.283517
v 26.790092 4.82932 9.045984
v 26.790092 0.056633826 9.045984
v 28.259962 0.05663406 14.283517
v 28.259962 4.82932 14.283517
v 26.790092 20.40778 9.045984
v 26.790092 16.708115 9.045984
v 28.259962 16.708115 14.283517
v 28.259962 20.40778 14.283517
vt 0.76953536 0.9343576
vt 1 0.9343576
vt 1 1.1085296
vt 0.7695353 1.1085296
vt 0.7695353 0.28239548
vt 1 0.28239545
vt 1 0.64861584
vt 0.7695353 0.64861584
vt 0.76953536 0.6522913
vt 1 0.6522913
vt 1 0.8718576
vt 0.7695353 0.8718576
vt 0.7695353 0.05228066
vt 1 0.052280657
vt 1 0.27415982
vt 0.7695353 0.27415985
vt 0 0.052280657
vt 0.49506867 0.052280657
vt 0.49506867 0.27415985
vt 0 0.27415985
vt 0 0.65229136
vt 0.49506867 0.6522913
vt 0.49506867 0.8718576
vt 0 0.8718576
vt 0 0.28239548
vt 0.49506867 0.28239548
vt 0.49506867 0.64861584
vt 0 0.6486159
vt 0 0.9343576
vt 0.49506867 0.9343576
vt 0.49506867 1.1085296
vt 0 1.1085296
vt 0.6323019 0.052280653
vt 0.7695353 0.05228066
vt 0.7695353 0.27415985
vt 0.6323019 0.27415982
vt 0.632302 0.65229124
vt 0.76953536 0.6522913
vt 0.7695353 0.8718576
vt 0.6323019 0.8718575
vt 0.6323019 0.28239545
vt 0.7695353 0.28239548
vt 0.7695353 0.64861584
vt 0.6323019 0.6486158
vt 0.63230205 0.9343576
vt 0.76953536 0.9343576
vt 0.7695353 1.1085296
vt 0.632302 1.1085296
vt 0.18966675 1.1113281
vt 0.18966675 0.9295366
vt 0.3793335 0.9295366
vt 0.3793335 1.1113281
vt 0.18966675 0.29115748
vt 0.18966675 0.056640625
vt 0.3793335 0.056640625
vt 0.3793335 0.29115748
vt 0.18966675 0.87528586
vt 0.18966673 0.6608655
vt 0.3793335 0.66086555
vt 0.3793335 0.87528586
vt 0.18966675 0.65159225
vt 0.18966675 0.2852426
vt 0.3793335 0.2852426
vt 0.3793335 0.65159225
vt 0.49506867 0.9343576
vt 0.63230205 0.9343576
vt 0.632302 1.1085296
vt 0.49506867 1.1085296
vt 0.49506867 0.28239548
vt 0.6323019 0.28239545
vt 0.6323019 0.6486158
vt 0.49506867 0.64861584
vt 0.49506867 0.6522913
vt 0.632302 0.65229124
vt 0.6323019 0.8718575
vt 0.49506867 0.8718576
vt 0.49506867 0.052280657
vt 0.6323019 0.052280653
vt 0.6323019 0.27415982
vt 0.49506867 0.27415985
vt 0 0.65159225
vt 0 0.2852426
vt 0.18966675 0.2852426
vt 0.18966675 0.65159225
vt 0 0.87528586
vt 0 0.66086555
vt 0.18966673 0.6608655
vt 0.18966675 0.87528586
vt 0 0.29115748
vt 0 0.056640625
vt 0.18966675 0.056640625
vt 0.18966675 0.29115748
vt 0 1.1113281
vt 0 0.9295366
vt 0.18966675 0.9295366
vt 0.18966675 1.1113281
vn 0.75456077 0 -0.6562303
vn 0.75456077 0 -0.6562303
vn 0.75456077 0 -0.6562303
vn 0.75456077 0 -0.6562303
vn 0.7545606 0 -0.6562303
vn 0.7545606 0 -0.6562303
vn 0.7545606 0 -0.6562303
vn 0.7545606 0 -0.6562303
vn 0.75456065 0 -0.6562303
vn 0.75456065 0 -0.6562303
vn 0.75456065 0 -0.6562303
vn 0.75456065 0 -0.6562303
vn 0.7545606 0 -0.6562303
vn 0.7545606 0 -0.6562303
vn 0.7545606 0 -0.6562303
vn 0.7545606 0 -0.6562303
vn -0 0 -1
vn -0 0 -1
vn -0 0 -1
vn -0 0 -1
vn -0 0 -1
vn -0 0 -1
vn -0 0 -1
vn -0 0 -1
vn -0 0 -1
vn -0 0 -1
vn -0 0 -1
vn -0 0 -1
vn -0 0 -1
vn -0 0 -1
vn -0 0 -1
vn -0 0 -1
vn 0.48687202 0 -0.8734733
vn 0.48687202 0 -0.8734733
vn 0.48687202 0 -0.8734733
vn 0.48687202 0 -0.8734733
vn 0.48687202 0 -0.8734733
vn 0.48687202 0 -0.8734733
vn 0.48687202 0 -0.8734733
vn 0.48687202 0 -0.8734733
vn 0.48687193 0 -0.8734733
vn 0.48687193 0 -0.8734733
vn 0.48687193 0 -0.8734733
vn 0.48687193 0 -0.8734733
vn 0.48687193 0 -0.8734733
vn 0.48687193 0 -0.8734733
vn 0.48687193 0 -0.8734733
vn 0.48687193 0 -0.8734733
vn 0.9999448 0 0.010504889
vn 0.9999448 0 0.010504889
vn 0.9999448 0 0.010504889
vn 0.9999448 0 0.010504889
vn 0.9999448 0 0.010504887
vn 0.9999448 0 0.010504887
vn 0.9999448 0 0.010504887
vn 0.9999448 0 0.010504887
vn 0.9999448 0 0.01050489
vn 0.9999448 0 0.01050489
vn 0.9999448 0 0.01050489
vn 0.9999448 0 0.01050489
vn 0.9999448 0 0.01050489
vn 0.9999448 0 0.01050489
vn 0.9999448 0 0.01050489
vn 0.9999448 0 0.01050489
vn 0.17580882 0 -0.9844243
vn 0.17580882 0 -0.9844243
vn 0.17580882 0 -0.9844243
vn 0.17580882 0 -0.9844243
vn 0.1758088 0 -0.9844243
vn 0.1758088 0 -0.9844243
vn 0.1758088 0 -0.9844243
vn 0.1758088 0 -0.9844243
vn 0.17580885 0 -0.9844243
vn 0.17580885 0 -0.9844243
vn 0.17580885 0 -0.9844243
vn 0.17580885 0 -0.9844243
vn 0.17580876 0 -0.9844243
vn 0.17580876 0 -0.9844243
vn 0.17580876 0 -0.9844243
vn 0.17580876 0 -0.9844243
vn 0.9628034 0 -0.27020267
vn 0.9628034 0 -0.27020267
vn 0.9628034 0 -0.27020267
vn 0.9628034 0 -0.27020267
vn 0.9628034 0 -0.27020267
vn 0.9628034 0 -0.27020267
vn 0.9628034 0 -0.27020267
vn 0.9628034 0 -0.27020267
vn 0.9628034 0 -0.27020273
vn 0.9628034 0 -0.27020273
vn 0.9628034 0 -0.27020273
vn 0.9628034 0 -0.27020273
vn 0.9628034 0 -0.27020273
vn 0.9628034 0 -0.27020273
vn 0.9628034 0 -0.27020273
vn 0.9628034 0 -0.27020273
g BooksTexCurvedInverse_0
f 3/3/3 2/2/2 1/1/1
f 4/4/4 3/3/3 1/1/1
f 7/7/7 6/6/6 5/5/5
f 8/8/8 7/7/7 5/5/5
f 11/11/11 10/10/10 9/9/9
f 12/12/12 11/11/11 9/9/9
f 15/15/15 14/14/14 13/13/13
f 16/16/16 15/15/15 13/13/13
f 19/19/19 18/18/18 17/17/17
f 20/20/20 19/19/19 17/17/17
f 23/23/23 22/22/22 21/21/21
f 24/24/24 23/23/23 21/21/21
f 27/27/27 26/26/26 25/25/25
f 28/28/28 27/27/27 25/25/25
f 31/31/31 30/30/30 29/29/29
f 32/32/32 31/31/31 29/29/29
f 35/35/35 34/34/34 33/33/33
f 36/36/36 35/35/35 33/33/33
f 39/39/39 38/38/38 37/37/37
f 40/40/40 39/39/39 37/37/37
f 43/43/43 42/42/42 41/41/41
f 44/44/44 43/43/43 41/41/41
f 47/47/47 46/46/46 45/45/45
f 48/48/48 47/47/47 45/45/45
f 51/51/51 50/50/50 49/49/49
f 52/52/52 51/51/51 49/49/49
f 55/55/55 54/54/54 53/53/53
f 56/56/56 55/55/55 53/53/53
f 59/59/59 58/58/58 57/57/57
f 60/60/60 59/59/59 57/57/57
f 63/63/63 62/62/62 61/61/61
f 64/64/64 63/63/63 61/61/61
f 67/67/67 66/66/66 65/65/65
f 68/68/68 67/67/67 65/65/65
f 71/71/71 70/70/70 69/69/69
f 72/72/72 71/71/71 69/69/69
f 75/75/75 74/74/74 73/73/73
f 76/76/76 75/75/75 73/73/73
f 79/79/79 78/78/78 77/77/77
f 80/80/80 79/79/79 77/77/77
f 83/83/83 82/82/82 81/81/81
f 84/84/84 83/83/83 81/81/81
f 87/87/87 86/86/86 85/85/85
f 88/88/88 87/87/87 85/85/85
f 91/91/91 90/90/90 89/89/89
f 92/92/92 91/91/91 89/89/89
f 95/95/95 94/94/94 93/93/93
f 96/96/96 95/95/95 93/93/93
