g Building1InsideCatwalk
v 19.585627 2.4055066 28.27032
v 19.585627 37.450718 -0.08814049
v 19.082106 39.893986 -0.060598254
v 19.585627 2.4055066 30.27032
v 19.585627 37.450718 -0.08814049
v 29.666285 37.450718 -0.08814049
v 29.162764 39.893986 -0.060598254
v 19.082106 39.893986 -0.060598254
v 29.666285 37.450718 -0.08814049
v 29.666285 2.4055066 28.27032
v 29.666285 2.4055066 30.27032
v 29.162764 39.893986 -0.060598254
v 29.666285 2.4055066 30.27032
v 19.585627 -0.065107346 30.27032
v 19.585627 2.4055066 30.27032
v 29.666285 -0.065107346 30.27032
v 19.585627 -1.5169706 30.27032
v -3.4717484 -0.065107346 30.27032
v -3.4717484 -1.5169706 30.27032
v 29.666285 -1.5169706 30.27032
v 19.585627 -15.164486 30.27032
v -3.4717484 -15.164486 30.27032
v 29.666285 -15.164486 30.27032
v 85.25945 -15.164486 30.27032
v 85.25945 -1.5169706 30.27032
v 19.585627 37.450718 -0.08814049
v 19.585627 2.4055066 28.27032
v 29.666285 2.4055066 28.27032
v 29.666285 37.450718 -0.08814049
v 29.162764 39.893986 -0.060598254
v 29.666285 2.4055066 30.27032
v 19.585627 2.4055066 30.27032
v 19.082106 39.893986 -0.060598254
v 19.585627 -0.065107346 30.27032
v -3.4717484 -0.065107346 30.27032
v -3.4717484 -0.065107346 28.27032
v 19.585627 -0.065107346 28.27032
v 29.666285 2.4055066 28.27032
v 29.666285 -0.065107346 28.27032
v 29.666285 -0.065107346 30.27032
v 29.666285 2.4055066 30.27032
v 19.585627 2.4055066 30.27032
v 19.585627 -0.065107346 30.27032
v 19.585627 -0.065107346 28.27032
v 19.585627 2.4055066 28.27032
v 19.585627 2.4055066 28.27032
v 29.666285 -0.065107346 28.27032
v 29.666285 2.4055066 28.27032
v 19.585627 -0.065107346 28.27032
v 29.666285 -1.5169706 28.27032
v 85.25945 -0.065107346 28.27032
v 85.25945 -1.5169706 28.27032
v 29.666285 -15.164486 28.27032
v 85.25945 -15.164486 28.27032
v 19.585627 -1.5169706 28.27032
v 19.585627 -15.164486 28.27032
v -3.4717484 -15.164486 28.27032
v -3.4717484 -1.5169706 28.27032
v -3.4717484 -0.065107346 28.27032
v 29.666285 -15.164486 30.27032
v 85.25945 -15.164486 30.27032
v 85.25945 -15.164486 28.27032
v 29.666285 -15.164486 28.27032
v 19.585627 -15.164486 30.27032
v 19.585627 -15.164486 28.27032
v -3.4717484 -15.164486 30.27032
v -3.4717484 -15.164486 28.27032
v 85.25945 -1.5169706 28.27032
v 85.25945 -15.164486 28.27032
v 85.25945 -15.164486 30.27032
v 85.25945 -1.5169706 30.27032
v 85.25945 -0.065107346 28.27032
v 85.25945 -0.065107346 30.27032
v 85.25945 -0.065107346 36.476658
v 85.25945 -1.5169706 36.476658
v 29.666285 -0.065107346 28.27032
v 85.25945 -0.065107346 28.27032
v 85.25945 -0.065107346 30.27032
v 29.666285 -0.065107346 30.27032
v 29.666285 -0.065107346 36.476658
v 85.25945 -0.065107346 36.476658
v -3.4717484 -1.5169706 30.27032
v -3.4717484 -15.164486 30.27032
v -3.4717484 -15.164486 28.27032
v -3.4717484 -1.5169706 28.27032
v -3.4717484 -0.065107346 30.27032
v -3.4717484 -0.065107346 28.27032
v 29.666285 -0.065107346 30.27032
v 29.666285 -0.065107346 36.476658
v 29.666285 -1.5169706 36.476658
v 29.666285 -1.5169706 30.27032
v 29.666285 -0.065107346 36.476658
v 85.25945 -0.065107346 36.476658
v 85.25945 -1.5169706 36.476658
v 29.666285 -1.5169706 36.476658
v 29.666285 -1.5169706 30.27032
v 29.666285 -1.5169706 36.476658
v 85.25945 -1.5169706 36.476658
v 85.25945 -1.5169706 30.27032
vt 0.375 0
vt 0.375 0.25
vt 0.625 0.25
vt 0.625 0
vt 0.375 0.25
vt 0.375 0.5
vt 0.625 0.5
vt 0.625 0.25
vt 0.375 0.5
vt 0.375 0.75
vt 0.625 0.75
vt 0.625 0.5
vt 0.625 0.75
vt 0.875 0.75
vt 0.875 0.75
vt 0.625 0.75
vt 0.875 0.75
vt 0.875 0.75
vt 0.87499994 0.75
vt 0.625 0.75
vt 0.875 0.75
vt 0.875 0.75
vt 0.625 0.75
vt 0.625 0.75
vt 0.625 0.75
vt 0.125 0.5
vt 0.125 0.75
vt 0.375 0.75
vt 0.375 0.5
vt 0.625 0.5
vt 0.625 0.75
vt 0.875 0.75
vt 0.875 0.5
vt 0.625 0
vt 0.625 0
vt 0.375 0
vt 0.375 0
vt 0.375 0.75
vt 0.375 0.75
vt 0.625 0.75
vt 0.625 0.75
vt 0.625 0
vt 0.625 0
vt 0.375 0
vt 0.375 0
vt 0.125 0.75
vt 0.375 0.75
vt 0.375 0.75
vt 0.125 0.75
vt 0.375 0.75
vt 0.375 0.75
vt 0.375 0.75
vt 0.375 0.75
vt 0.375 0.75
vt 0.125 0.75
vt 0.125 0.75
vt 0.125 0.75
vt 0.125 0.75
vt 0.125 0.75
vt 0.625 0.75
vt 0.625 0.75
vt 0.375 0.75
vt 0.375 0.75
vt 0.625 1
vt 0.375 1
vt 0.625 1
vt 0.375 1
vt 0.375 0.75
vt 0.375 0.75
vt 0.625 0.75
vt 0.625 0.75
vt 0.375 0.75
vt 0.625 0.75
vt 0.625 0.75
vt 0.625 0.75
vt 0.375 0.75
vt 0.375 0.75
vt 0.625 0.75
vt 0.625 0.75
vt 0.625 0.75
vt 0.625 0.75
vt 0.625 0
vt 0.625 0
vt 0.375 0
vt 0.375 0
vt 0.625 0
vt 0.375 0
vt 0.625 0.75
vt 0.625 0.75
vt 0.625 0.75
vt 0.625 0.75
vt 0.625 0.75
vt 0.625 0.75
vt 0.625 0.75
vt 0.625 0.75
vt 0.625 0.75
vt 0.625 0.75
vt 0.625 0.75
vt 0.625 0.75
vn -0.98732424 -0.103920415 -0.11996402
vn -0.98732424 -0.103920415 -0.11996402
vn -0.98732424 -0.103920415 -0.11996402
vn -0.98732424 -0.103920415 -0.11996402
vn -0 0.011271985 -0.99993646
vn -0 0.011271985 -0.99993646
vn -0 0.011271985 -0.99993646
vn -0 0.011271985 -0.99993646
vn 0.98732424 0.10392063 0.11996402
vn 0.98732424 0.10392063 0.11996402
vn 0.98732424 0.10392063 0.11996402
vn 0.98732424 0.10392063 0.11996402
vn -0 0 1
vn -0 0 1
vn -0 0 1
vn -0 0 1
vn -0 0 1
vn -0 0 1
vn -0 0 1
vn -0 0 1
vn -0 0 1
vn -0 0 1
vn -0 0 1
vn -0 0 1
vn -0 0 1
vn -0 -0.6290445 -0.77736926
vn -0 -0.6290445 -0.77736926
vn -0 -0.6290445 -0.77736926
vn -0 -0.6290445 -0.77736926
vn -0 0.62898654 0.7774162
vn -0 0.62898654 0.7774162
vn -0 0.62898654 0.7774162
vn -0 0.62898654 0.7774162
vn -0 1 0
vn -0 1 0
vn -0 1 0
vn -0 1 0
vn 1 0 0
vn 1 0 0
vn 1 0 0
vn 1 0 0
vn -1 0 0
vn -1 0 0
vn -1 0 0
vn -1 0 0
vn -0 0 -1
vn -0 0 -1
vn -0 0 -1
vn -0 0 -1
vn -0 0 -1
vn -0 0 -1
vn -0 0 -1
vn -0 0 -1
vn -0 0 -1
vn -0 0 -1
vn -0 0 -1
vn -0 0 -1
vn -0 0 -1
vn -0 0 -1
vn -0 -1 0
vn -0 -1 0
vn -0 -1 0
vn -0 -1 0
vn -0 -1 0
vn -0 -1 0
vn -0 -1 0
vn -0 -1 0
vn 1 0 0
vn 1 0 0
vn 1 0 0
vn 1 0 0
vn 1 0 0
vn 1 0 0
vn 1 0 0
vn 1 0 0
vn -0 1 0
vn -0 1 0
vn -0 1 0
vn -0 1 0
vn -0 1 0
vn -0 1 0
vn -1 0 0
vn -1 0 0
vn -1 0 0
vn -1 0 0
vn -1 0 0
vn -1 0 0
vn -1 0 0
vn -1 0 0
vn -1 0 0
vn -1 0 0
vn -0 0 1
vn -0 0 1
vn -0 0 1
vn -0 0 1
vn -0 -1 0
vn -0 -1 0
vn -0 -1 0
vn -0 -1 0
g Building1InsideCatwalk_0
f 3/3/3 2/2/2 1/1/1
f 4/4/4 3/3/3 1/1/1
f 7/7/7 6/6/6 5/5/5
f 8/8/8 7/7/7 5/5/5
f 11/11/11 10/10/10 9/9/9
f 12/12/12 11/11/11 9/9/9
f 15/15/15 14/14/14 13/13/13
f 14/14/14 16/16/16 13/13/13
f 14/14/14 17/17/17 16/16/16
f 14/14/14 18/18/18 17/17/17
f 18/18/18 19/19/19 17/17/17
f 17/17/17 20/20/20 16/16/16
f 17/17/17 19/19/19 21/21/21
f 17/17/17 21/21/21 20/20/20
f 19/19/19 22/22/22 21/21/21
f 21/21/21 23/23/23 20/20/20
f 23/23/23 24/24/24 20/20/20
f 24/24/24 25/25/25 20/20/20
f 28/28/28 27/27/27 26/26/26
f 29/29/29 28/28/28 26/26/26
f 32/32/32 31/31/31 30/30/30
f 33/33/33 32/32/32 30/30/30
f 36/36/36 35/35/35 34/34/34
f 37/37/37 36/36/36 34/34/34
f 40/40/40 39/39/39 38/38/38
f 41/41/41 40/40/40 38/38/38
f 44/44/44 43/43/43 42/42/42
f 45/45/45 44/44/44 42/42/42
f 48/48/48 47/47/47 46/46/46
f 47/47/47 49/49/49 46/46/46
f 47/47/47 50/50/50 49/49/49
f 47/47/47 51/51/51 50/50/50
f 51/51/51 52/52/52 50/50/50
f 50/50/50 52/52/52 53/53/53
f 52/52/52 54/54/54 53/53/53
f 50/50/50 53/53/53 55/55/55
f 50/50/50 55/55/55 49/49/49
f 53/53/53 56/56/56 55/55/55
f 56/56/56 57/57/57 55/55/55
f 57/57/57 58/58/58 55/55/55
f 55/55/55 58/58/58 49/49/49
f 58/58/58 59/59/59 49/49/49
f 62/62/62 61/61/61 60/60/60
f 63/63/63 62/62/62 60/60/60
f 60/60/60 64/64/64 63/63/63
f 64/64/64 65/65/65 63/63/63
f 64/64/64 66/66/66 65/65/65
f 66/66/66 67/67/67 65/65/65
f 70/70/70 69/69/69 68/68/68
f 71/71/71 70/70/70 68/68/68
f 71/71/71 68/68/68 72/72/72
f 73/73/73 71/71/71 72/72/72
f 73/73/73 74/74/74 71/71/71
f 74/74/74 75/75/75 71/71/71
f 78/78/78 77/77/77 76/76/76
f 79/79/79 78/78/78 76/76/76
f 79/79/79 80/80/80 78/78/78
f 80/80/80 81/81/81 78/78/78
f 84/84/84 83/83/83 82/82/82
f 85/85/85 84/84/84 82/82/82
f 85/85/85 82/82/82 86/86/86
f 87/87/87 85/85/85 86/86/86
f 90/90/90 89/89/89 88/88/88
f 91/91/91 90/90/90 88/88/88
f 94/94/94 93/93/93 92/92/92
f 95/95/95 94/94/94 92/92/92
f 98/98/98 97/97/97 96/96/96
f 99/99/99 98/98/98 96/96/96
