g Building2InsideWall
v 15.1404705 -30.361856 26.85397
v 20.846115 -36.620655 28.795708
v 15.1404705 -30.361856 28.795708
v 20.846115 -36.620655 26.85397
v 15.1404705 -30.361856 15.918922
v 26.205067 -42.58508 28.795708
v 20.846115 -36.620655 15.918922
v 15.1404705 -30.361856 0.69917965
v 20.846115 -36.620655 0.69917965
v 26.205067 -42.58508 26.85397
v 50.51925 -69.499214 28.795708
v 50.51925 -69.499214 26.85397
v 25.966236 -42.317562 15.918922
v 50.51925 -69.499214 15.918922
v 50.51925 -69.499214 0.84269047
v 25.966236 -42.317562 0.84269047
v 14.3397665 -31.451134 26.85397
v -50.06568 -31.45792 28.795708
v 14.3397665 -31.451134 28.795708
v -50.06568 -31.45792 26.85397
v 14.3397665 -31.451134 15.918922
v -50.06568 -31.45792 15.918922
v 14.3397665 -31.451134 0.69917965
v -50.06568 -31.45792 0.69917965
v -50.06568 -31.45792 26.85397
v -50.06568 -30.361835 28.795708
v -50.06568 -31.45792 28.795708
v -50.06568 -30.361835 26.85397
v -50.06568 -31.45792 15.918922
v -50.06568 -30.361835 15.918922
v -50.06568 -31.45792 0.69917965
v -50.06568 -30.361835 0.69917965
v -50.06568 -30.361835 26.85397
v 15.1404705 -30.361856 28.795708
v -50.06568 -30.361835 28.795708
v 15.1404705 -30.361856 26.85397
v -50.06568 -30.361835 15.918922
v 15.1404705 -30.361856 15.918922
v -50.06568 -30.361835 0.69917965
v 15.1404705 -30.361856 0.69917965
v 14.3397665 -31.451134 0.69917965
v -50.06568 -30.361835 0.69917965
v -50.06568 -31.45792 0.69917965
v 15.1404705 -30.361856 0.69917965
v 20.846115 -36.620655 0.69917965
v 19.860289 -37.500767 0.69917965
v -50.06568 -31.45792 28.795708
v -50.06568 -30.361835 28.795708
v 15.1404705 -30.361856 28.795708
v 14.3397665 -31.451134 28.795708
v -50.053593 -33.02547 28.795708
v 19.860289 -37.500767 28.795708
v 20.846115 -36.620655 28.795708
v -50.021347 -41.043682 28.795708
v 25.219242 -43.46519 28.795708
v -50.066586 -70.35486 28.795708
v 26.205067 -42.58508 28.795708
v 49.533424 -70.379326 28.795708
v 50.51925 -69.499214 28.795708
v 19.860289 -37.500767 15.918922
v 24.980412 -43.197674 15.918922
v 25.966236 -42.317562 15.918922
v 20.846115 -36.620655 15.918922
v 14.3397665 -31.451134 15.918922
v 19.860289 -37.500767 0.69917965
v 14.3397665 -31.451134 0.69917965
v 19.860289 -37.500767 15.918922
v 14.3397665 -31.451134 26.85397
v 19.860289 -37.500767 26.85397
v 14.3397665 -31.451134 28.795708
v 19.860289 -37.500767 28.795708
v 24.980412 -43.197674 15.918922
v 25.219242 -43.46519 26.85397
v 25.219242 -43.46519 28.795708
v 49.533424 -70.379326 26.85397
v 49.533424 -70.379326 28.795708
v 49.533424 -70.379326 15.918922
v 24.980412 -43.197674 0.84269047
v 49.533424 -70.379326 0.84269047
v 20.846115 -36.620655 0.69917965
v 19.860289 -37.500767 0.69917965
v 19.860289 -37.500767 15.918922
v 20.846115 -36.620655 15.918922
v 50.51925 -69.499214 26.85397
v 49.533424 -70.379326 28.795708
v 50.51925 -69.499214 28.795708
v 49.533424 -70.379326 26.85397
v 50.51925 -69.499214 15.918922
v 49.533424 -70.379326 15.918922
v 49.533424 -70.379326 0.84269047
v 50.51925 -69.499214 0.84269047
v 24.980412 -43.197674 0.84269047
v 49.533424 -70.379326 0.84269047
v 50.51925 -69.499214 0.84269047
v 25.966236 -42.317562 0.84269047
v 24.980412 -43.197674 15.918922
v 24.980412 -43.197674 0.84269047
v 25.966236 -42.317562 0.84269047
v 25.966236 -42.317562 15.918922
v 25.219242 -43.46519 26.80059
v -50.066586 -70.35486 26.80059
v 49.533424 -70.379326 26.80059
v -50.021347 -41.043682 26.80059
v 19.860289 -37.500767 26.80059
v -50.053593 -33.02547 26.80059
v 14.3397665 -31.451134 26.80059
v -50.06568 -31.45792 26.80059
vt 0.5702019 0.3719864
vt 0.5565109 0.31227112
vt 0.5565109 0.3719864
vt 0.5702019 0.31227112
vt 0.6473026 0.3719864
vt 0.5565109 0.2557373
vt 0.6473026 0.31227112
vt 0.7546139 0.3719864
vt 0.7546139 0.31227112
vt 0.5702019 0.2557373
vt 0.5565109 0
vt 0.5702019 0
vt 0.6473026 0.2557373
vt 0.6473026 0
vt 0.753603 0
vt 0.753603 0.2557373
vt 0.93902624 0
vt 0.952717 0.33878517
vt 0.95271707 0
vt 0.9390262 0.33878517
vt 0.86192524 0
vt 0.86192524 0.33878517
vt 0.7546137 0
vt 0.7546137 0.33878517
vt 0.78097725 0.79767317
vt 0.7732487 0.811364
vt 0.78097725 0.811364
vt 0.7732487 0.79767317
vt 0.78097725 0.72057223
vt 0.7732487 0.72057223
vt 0.78097725 0.6132607
vt 0.7732487 0.6132607
vt 0.5702019 0.68053436
vt 0.5565109 0.3719864
vt 0.5565109 0.68053436
vt 0.5702019 0.3719864
vt 0.6473026 0.68053436
vt 0.6473026 0.3719864
vt 0.7546139 0.68053436
vt 0.7546139 0.3719864
vt 0.9608555 0.048843384
vt 0.99230003 0.5019283
vt 1 0.50126266
vt 0.9527168 0.043878555
vt 0.9932194 0
vt 1 0.0063915253
vt 0.00784111 0
vt 0.00011253357 0
vt 0 0.45975494
vt 0.007680893 0.454113
vt 0.018894196 9.1552734E-05
vt 0.0503273 0.4930458
vt 0.04411888 0.4999962
vt 0.07542801 0.00033187866
vt 0.09237099 0.5308418
vt 0.28209686 6.1035156E-05
vt 0.086164474 0.5377922
vt 0.28209686 0.7023239
vt 0.27588844 0.7092743
vt 0.5751457 0.7370949
vt 0.5751457 0.68056107
vt 0.5658283 0.68053055
vt 0.5658283 0.73706436
vt 0.8454056 0.33878517
vt 0.9527168 0.3814392
vt 0.9527168 0.33878517
vt 0.8454056 0.3814392
vt 0.7683048 0.33878517
vt 0.7683048 0.3814392
vt 0.7546139 0.33878517
vt 0.7546139 0.3814392
vt 0.8454056 0.42349434
vt 0.7683048 0.42349434
vt 0.7546139 0.42349434
vt 0.7683048 0.61326027
vt 0.7546139 0.61326027
vt 0.8454056 0.61326027
vt 0.95170593 0.42349434
vt 0.95170593 0.61326027
vt 0.5658283 0.68053174
vt 0.55651 0.68053174
vt 0.55651 0.7878433
vt 0.5658283 0.7878433
vt 0.7732496 0.79666126
vt 0.7639313 0.8103522
vt 0.7732496 0.8103522
vt 0.7639313 0.79666126
vt 0.7732496 0.7195604
vt 0.7639313 0.7195604
vt 0.7639313 0.6132607
vt 0.7732496 0.6132607
vt 0.7639313 0.8690491
vt 0.7639313 0.61331177
vt 0.7546139 0.61325836
vt 0.7546139 0.86899567
vt 0.8454056 0.42349434
vt 0.95170593 0.42349434
vt 0.95170593 0.41728783
vt 0.8454056 0.41728783
vt 0.36678696 0.17148209
vt 0.5565109 0.70225906
vt 0.5565109 0
vt 0.34984398 0.70199203
vt 0.32474136 0.2092781
vt 0.29330826 0.70223236
vt 0.28209686 0.2482109
vt 0.28225708 0.7023201
vn 0.73900896 0.6736957 0
vn 0.73900896 0.6736957 0
vn 0.73900896 0.6736957 0
vn 0.73900896 0.6736957 0
vn 0.73900914 0.67369545 0
vn 0.7438541 0.668342 0
vn 0.73900914 0.67369545 0
vn 0.73900914 0.67369545 0
vn 0.73900914 0.67369545 0
vn 0.7438541 0.668342 0
vn 0.7420389 0.6703568 0
vn 0.7420389 0.6703568 0
vn 0.74207765 0.670314 0
vn 0.74207765 0.670314 0
vn 0.74207765 0.670314 0
vn 0.74207765 0.670314 0
vn 0.00010536912 -1 0
vn 0.00010536912 -1 0
vn 0.00010536912 -1 0
vn 0.00010536912 -1 0
vn 0.000105369145 -1 0
vn 0.000105369145 -1 0
vn 0.000105369145 -1 0
vn 0.000105369145 -1 0
vn -1 0 0
vn -1 0 0
vn -1 0 0
vn -1 0 0
vn -1 0 0
vn -1 0 0
vn -1 0 0
vn -1 0 0
vn -0 1 0
vn -0 1 0
vn -0 1 0
vn -0 1 0
vn -0 1 0
vn -0 1 0
vn -0 1 0
vn -0 1 0
vn -0 0 -1
vn -0 0 -1
vn -0 0 -1
vn -0 0 -1
vn -0 0 -1
vn -0 0 -1
vn -0 0 1
vn -0 0 1
vn -0 0 1
vn -0 0 1
vn -0 0 1
vn -0 0 1
vn -0 0 1
vn -0 0 1
vn -0 0 1
vn -0 0 1
vn -0 0 1
vn -0 0 1
vn -0 0 1
vn -0 0 -1
vn -0 0 -1
vn -0 0 -1
vn -0 0 -1
vn -0.7386712 -0.6740658 0
vn -0.7386712 -0.6740658 0
vn -0.7386712 -0.6740658 0
vn -0.7386712 -0.6740658 0
vn -0.73867136 -0.67406577 0
vn -0.73867136 -0.67406577 0
vn -0.738671 -0.6740661 0
vn -0.743854 -0.6683421 0
vn -0.7420584 -0.67033523 -9.58602E-05
vn -0.7420584 -0.67033523 -9.58602E-05
vn -0.743854 -0.6683421 0
vn -0.7420584 -0.67033523 -9.58602E-05
vn -0.7420389 -0.67035675 0
vn -0.7420584 -0.67033523 -9.58602E-05
vn -0.74207765 -0.670314 0
vn -0.74207765 -0.670314 0
vn 0.6659776 -0.7459718 0
vn 0.6659776 -0.7459718 0
vn 0.6659776 -0.7459718 0
vn 0.6659776 -0.7459718 0
vn 0.66597795 -0.74597144 0
vn 0.66597795 -0.74597144 0
vn 0.66597795 -0.74597144 0
vn 0.66597795 -0.74597144 0
vn 0.66597915 -0.7459703 0
vn 0.66597915 -0.7459703 0
vn 0.66597915 -0.7459703 0
vn 0.66597915 -0.7459703 0
vn -0 0 -1
vn -0 0 -1
vn -0 0 -1
vn -0 0 -1
vn -0.66597843 0.7459711 0
vn -0.66597843 0.7459711 0
vn -0.66597843 0.7459711 0
vn -0.66597843 0.7459711 0
vn -0 0 -1
vn -0 0 -1
vn -0 0 -1
vn -0 0 -1
vn -0 0 -1
vn -0 0 -1
vn -0 0 -1
vn -0 0 -1
g Building2InsideWall_0
f 3/3/3 2/2/2 1/1/1
f 2/2/2 4/4/4 1/1/1
f 1/1/1 4/4/4 5/5/5
f 2/2/2 6/6/6 4/4/4
f 4/4/4 7/7/7 5/5/5
f 5/5/5 7/7/7 8/8/8
f 7/7/7 9/9/9 8/8/8
f 6/6/6 10/10/10 4/4/4
f 4/4/4 10/10/10 7/7/7
f 6/6/6 11/11/11 10/10/10
f 11/11/11 12/12/12 10/10/10
f 10/10/10 13/13/13 7/7/7
f 10/10/10 12/12/12 13/13/13
f 12/12/12 14/14/14 13/13/13
f 14/14/14 15/15/15 13/13/13
f 15/15/15 16/16/16 13/13/13
f 19/19/19 18/18/18 17/17/17
f 18/18/18 20/20/20 17/17/17
f 17/17/17 20/20/20 21/21/21
f 20/20/20 22/22/22 21/21/21
f 21/21/21 22/22/22 23/23/23
f 22/22/22 24/24/24 23/23/23
f 27/27/27 26/26/26 25/25/25
f 26/26/26 28/28/28 25/25/25
f 25/25/25 28/28/28 29/29/29
f 28/28/28 30/30/30 29/29/29
f 29/29/29 30/30/30 31/31/31
f 30/30/30 32/32/32 31/31/31
f 35/35/35 34/34/34 33/33/33
f 34/34/34 36/36/36 33/33/33
f 33/33/33 36/36/36 37/37/37
f 36/36/36 38/38/38 37/37/37
f 37/37/37 38/38/38 39/39/39
f 38/38/38 40/40/40 39/39/39
f 43/43/43 42/42/42 41/41/41
f 42/42/42 44/44/44 41/41/41
f 44/44/44 45/45/45 41/41/41
f 45/45/45 46/46/46 41/41/41
f 49/49/49 48/48/48 47/47/47
f 50/50/50 49/49/49 47/47/47
f 47/47/47 51/51/51 50/50/50
f 50/50/50 52/52/52 49/49/49
f 51/51/51 52/52/52 50/50/50
f 52/52/52 53/53/53 49/49/49
f 51/51/51 54/54/54 52/52/52
f 52/52/52 55/55/55 53/53/53
f 54/54/54 55/55/55 52/52/52
f 54/54/54 56/56/56 55/55/55
f 55/55/55 57/57/57 53/53/53
f 56/56/56 58/58/58 55/55/55
f 55/55/55 58/58/58 57/57/57
f 58/58/58 59/59/59 57/57/57
f 62/62/62 61/61/61 60/60/60
f 63/63/63 62/62/62 60/60/60
f 66/66/66 65/65/65 64/64/64
f 65/65/65 67/67/67 64/64/64
f 64/64/64 67/67/67 68/68/68
f 67/67/67 69/69/69 68/68/68
f 68/68/68 69/69/69 70/70/70
f 69/69/69 71/71/71 70/70/70
f 67/67/67 72/72/72 69/69/69
f 69/69/69 73/73/73 71/71/71
f 72/72/72 73/73/73 69/69/69
f 73/73/73 74/74/74 71/71/71
f 73/73/73 75/75/75 74/74/74
f 75/75/75 76/76/76 74/74/74
f 77/77/77 75/75/75 73/73/73
f 72/72/72 77/77/77 73/73/73
f 72/72/72 78/78/78 77/77/77
f 78/78/78 79/79/79 77/77/77
f 82/82/82 81/81/81 80/80/80
f 83/83/83 82/82/82 80/80/80
f 86/86/86 85/85/85 84/84/84
f 85/85/85 87/87/87 84/84/84
f 84/84/84 87/87/87 88/88/88
f 87/87/87 89/89/89 88/88/88
f 89/89/89 90/90/90 88/88/88
f 90/90/90 91/91/91 88/88/88
f 94/94/94 93/93/93 92/92/92
f 95/95/95 94/94/94 92/92/92
f 98/98/98 97/97/97 96/96/96
f 99/99/99 98/98/98 96/96/96
f 102/102/102 101/101/101 100/100/100
f 101/101/101 103/103/103 100/100/100
f 100/100/100 103/103/103 104/104/104
f 103/103/103 105/105/105 104/104/104
f 104/104/104 105/105/105 106/106/106
f 105/105/105 107/107/107 106/106/106
