g ButtonGlass
v 1.8663317 -0.81829816 -1.4206941
v 0.07915714 -0.82063586 0.5702951
v 0.28849065 -0.7515267 2.574059
v 1.900218 -0.7515267 0.6381916
v 0.1497848 0.87456846 0.5662242
v 0.2327106 0.79089475 1.2794785
v 1.7668235 0.79089475 -0.4262581
v 1.8240672 0.8650368 -1.4727396
v 1.8240454 -0.7722208 -1.472341
v 1.7668235 -0.70508444 -0.4262581
v 0.2327106 -0.70508444 1.2794785
v 0.11045803 -0.7722208 0.57235014
v 0.07915714 0.92204154 0.5702951
v 1.8663317 0.9197039 -1.4206941
v 1.900218 0.8206942 0.6381916
v 0.28849065 0.8206942 2.574059
v 1.900218 0.8206942 0.6381916
v 1.900218 -0.7515267 0.6381916
v 0.28849065 -0.7515267 2.574059
v 0.28849065 0.8206942 2.574059
v 0.2327106 0.79089475 1.2794785
v 0.2327106 -0.70508444 1.2794785
v 1.7668235 -0.70508444 -0.4262581
v 1.7668235 0.79089475 -0.4262581
v 1.8240672 0.8650368 -1.4727396
v 1.7668235 0.79089475 -0.4262581
v 1.7668235 -0.70508444 -0.4262581
v 1.8240454 -0.7722208 -1.472341
v 0.07915714 -0.82063586 0.5702951
v 0.07915714 0.92204154 0.5702951
v 0.28849065 0.8206942 2.574059
v 0.28849065 -0.7515267 2.574059
v 1.8663317 0.9197039 -1.4206941
v 1.8663317 -0.81829816 -1.4206941
v 1.900218 -0.7515267 0.6381916
v 1.900218 0.8206942 0.6381916
v 0.11045803 -0.7722208 0.57235014
v 0.2327106 -0.70508444 1.2794785
v 0.2327106 0.79089475 1.2794785
v 0.1497848 0.87456846 0.5662242
v 0.1497848 0.87456846 0.5662242
v 0.109488785 0.8861094 0.31237692
v 0.06947303 -0.7895306 0.31861025
v 0.11045803 -0.7722208 0.57235014
v 0.07915714 -0.82063586 0.5702951
v 0.037623763 -0.8387938 0.3165192
v 0.037623763 0.93441415 0.3165192
v 0.07915714 0.92204154 0.5702951
v 1.8240672 0.8650368 -1.4727396
v 1.8131036 0.8764107 -1.7623079
v 0.109488785 0.8861094 0.31237692
v 0.1497848 0.87456846 0.5662242
v 1.8663317 0.9197039 -1.4206941
v 1.8561084 0.93203557 -1.7093506
v 1.8561084 -0.8364152 -1.7093506
v 1.8663317 -0.81829816 -1.4206941
v 0.109488785 0.8861094 0.31237692
v 0.037623763 0.93441415 0.3165192
v 0.037623763 -0.8387938 0.3165192
v 0.06947303 -0.7895306 0.31861025
v 1.8131036 0.8764107 -1.7623079
v 1.8561084 0.93203557 -1.7093506
v 0.037623763 0.93441415 0.3165192
v 0.109488785 0.8861094 0.31237692
v 1.8130814 -0.7895306 -1.7619022
v 1.8561084 -0.8364152 -1.7093506
v 1.8561084 0.93203557 -1.7093506
v 1.8131036 0.8764107 -1.7623079
v 0.06947303 -0.7895306 0.31861025
v 0.037623763 -0.8387938 0.3165192
v 1.8561084 -0.8364152 -1.7093506
v 1.8130814 -0.7895306 -1.7619022
v 0.11045803 -0.7722208 0.57235014
v 0.06947303 -0.7895306 0.31861025
v 1.8130814 -0.7895306 -1.7619022
v 1.8240454 -0.7722208 -1.472341
v 1.8240454 -0.7722208 -1.472341
v 1.8130814 -0.7895306 -1.7619022
v 1.8131036 0.8764107 -1.7623079
v 1.8240672 0.8650368 -1.4727396
v 0.07915714 0.92204154 0.5702951
v 0.037623763 0.93441415 0.3165192
v 1.8561084 0.93203557 -1.7093506
v 1.8663317 0.9197039 -1.4206941
v 1.8663317 -0.81829816 -1.4206941
v 1.8561084 -0.8364152 -1.7093506
v 0.037623763 -0.8387938 0.3165192
v 0.07915714 -0.82063586 0.5702951
vt 0.4609375 0.75
vt 0.4560547 1
vt 0.625 1
vt 0.625 0.75
vt 0.375 0.2553711
vt 0.375 0.25
vt 0.375 0.5
vt 0.375 0.5004883
vt 0.375 0.7495117
vt 0.375 0.75
vt 0.375 1
vt 0.375 1
vt 0.4560547 0.25
vt 0.4609375 0.5
vt 0.625 0.5
vt 0.625 0.25
vt 0.625 0.5
vt 0.625 0.75
vt 0.875 0.75
vt 0.875 0.5
vt 0.125 0.5
vt 0.125 0.75
vt 0.375 0.75
vt 0.375 0.5
vt 0.375 0.50439453
vt 0.375 0.5
vt 0.375 0.75
vt 0.375 0.74609375
vt 0.4560547 0
vt 0.4560547 0.25
vt 0.625 0.25
vt 0.625 0
vt 0.4609375 0.5
vt 0.4609375 0.75
vt 0.625 0.75
vt 0.625 0.5
vt 0.375 0.0018568039
vt 0.375 0
vt 0.375 0.25
vt 0.375 0.24938965
vt 0.6118164 0.10601807
vt 0.61865234 0.10632324
vt 0.61865234 0.061553955
vt 0.6118164 0.06201172
vt 0.60498047 0.10839844
vt 0.6118164 0.10888672
vt 0.6118164 0.061553955
vt 0.60498047 0.06185913
vt 0.59716797 0.06732178
vt 0.59228516 0.061553955
vt 0.59228516 0.13330078
vt 0.59716797 0.13781738
vt 0.5761719 0.061920166
vt 0.56884766 0.061553955
vt 0.56884766 0.10876465
vt 0.5761719 0.1083374
vt 0.61865234 0.10760498
vt 0.62060547 0.10888672
vt 0.62060547 0.061553955
vt 0.6196289 0.06286621
vt 0.6220703 0.061553955
vt 0.62060547 0.06304932
vt 0.62060547 0.11206055
vt 0.6220703 0.11212158
vt 0.5673828 0.107543945
vt 0.56884766 0.10876465
vt 0.56884766 0.061553955
vt 0.5673828 0.06304932
vt 0.6230469 0.061553955
vt 0.6220703 0.061676025
vt 0.6220703 0.11065674
vt 0.6230469 0.11218262
vt 0.58691406 0.1385498
vt 0.59228516 0.1340332
vt 0.59228516 0.061553955
vt 0.58691406 0.06726074
vt 0.59716797 0.10559082
vt 0.60498047 0.10601807
vt 0.60498047 0.061553955
vt 0.59716797 0.06185913
vt 0.58691406 0.061553955
vt 0.58154297 0.06585693
vt 0.58154297 0.1385498
vt 0.58691406 0.13305664
vt 0.58154297 0.06707764
vt 0.5761719 0.061553955
vt 0.5761719 0.13427734
vt 0.58154297 0.1385498
vn 0.036743164 -0.99902344 0.031204224
vn 0.036743164 -0.99902344 0.031204224
vn 0.036743164 -0.99902344 0.031204224
vn 0.036743164 -0.99902344 0.031204224
vn -0.1048584 -0.99072266 -0.08734131
vn -0.1048584 -0.99072266 -0.08734131
vn -0.1048584 -0.99072266 -0.08734131
vn -0.1048584 -0.99072266 -0.08734131
vn -0.08428955 0.99365234 -0.07299805
vn -0.08428955 0.99365234 -0.07299805
vn -0.08428955 0.99365234 -0.07299805
vn -0.08428955 0.99365234 -0.07299805
vn 0.05380249 0.9975586 0.045959473
vn 0.05380249 0.9975586 0.045959473
vn 0.05380249 0.9975586 0.045959473
vn 0.05380249 0.9975586 0.045959473
vn 0.7685547 0 0.63964844
vn 0.7685547 0 0.63964844
vn 0.7685547 0 0.63964844
vn 0.7685547 0 0.63964844
vn -0.74365234 0 -0.6689453
vn -0.74365234 0 -0.6689453
vn -0.74365234 0 -0.6689453
vn -0.74365234 0 -0.6689453
vn -0.99853516 0 -0.054626465
vn -0.99853516 0 -0.054626465
vn -0.99853516 0 -0.054626465
vn -0.99853516 0 -0.054626465
vn -0.9946289 0 0.103881836
vn -0.9946289 0 0.103881836
vn -0.9946289 0 0.103881836
vn -0.9946289 0 0.103881836
vn 1 0 -0.016448975
vn 1 0 -0.016448975
vn 1 0 -0.016448975
vn 1 0 -0.016448975
vn 0.9897461 -0.012664795 -0.1430664
vn 0.9897461 -0.012664795 -0.1430664
vn 0.9897461 -0.012664795 -0.1430664
vn 0.9897461 -0.012664795 -0.1430664
vn 0.9873047 -0.024154663 -0.15783691
vn 0.9873047 -0.024154663 -0.15783691
vn 0.9873047 -0.024154663 -0.15783691
vn 0.9873047 -0.024154663 -0.15783691
vn -0.9868164 0 0.16149902
vn -0.9868164 0 0.16149902
vn -0.9868164 0 0.16149902
vn -0.9868164 0 0.16149902
vn -0.05105591 -0.9980469 -0.037261963
vn -0.05105591 -0.9980469 -0.037261963
vn -0.05105591 -0.9980469 -0.037261963
vn -0.05105591 -0.9980469 -0.037261963
vn 0.9995117 0 -0.03540039
vn 0.9995117 0 -0.03540039
vn 0.9995117 0 -0.03540039
vn 0.9995117 0 -0.03540039
vn -0.019760132 -0.0015773773 -1
vn -0.019760132 -0.0015773773 -1
vn -0.019760132 -0.0015773773 -1
vn -0.019760132 -0.0015773773 -1
vn -0.7504883 0.1459961 -0.64501953
vn -0.7504883 0.1459961 -0.64501953
vn -0.7504883 0.1459961 -0.64501953
vn -0.7504883 0.1459961 -0.64501953
vn 0.77490234 -7.9631805E-05 -0.63183594
vn 0.77490234 -7.9631805E-05 -0.63183594
vn 0.77490234 -7.9631805E-05 -0.63183594
vn 0.77490234 -7.9631805E-05 -0.63183594
vn -0.6933594 -0.39648438 -0.6015625
vn -0.6933594 -0.39648438 -0.6015625
vn -0.6933594 -0.39648438 -0.6015625
vn -0.6933594 -0.39648438 -0.6015625
vn -0.067993164 0.99609375 -0.05697632
vn -0.067993164 0.99609375 -0.05697632
vn -0.067993164 0.99609375 -0.05697632
vn -0.067993164 0.99609375 -0.05697632
vn -0.9995117 2.2530556E-05 0.037841797
vn -0.9995117 2.2530556E-05 0.037841797
vn -0.9995117 2.2530556E-05 0.037841797
vn -0.9995117 2.2530556E-05 0.037841797
vn 0.046966553 0.9980469 0.040985107
vn 0.046966553 0.9980469 0.040985107
vn 0.046966553 0.9980469 0.040985107
vn 0.046966553 0.9980469 0.040985107
vn 0.068237305 -0.99609375 0.06008911
vn 0.068237305 -0.99609375 0.06008911
vn 0.068237305 -0.99609375 0.06008911
vn 0.068237305 -0.99609375 0.06008911
g ButtonGlass_0
f 3/3/3 2/2/2 1/1/1
f 4/4/4 3/3/3 1/1/1
f 7/7/7 6/6/6 5/5/5
f 8/8/8 7/7/7 5/5/5
f 11/11/11 10/10/10 9/9/9
f 12/12/12 11/11/11 9/9/9
f 15/15/15 14/14/14 13/13/13
f 16/16/16 15/15/15 13/13/13
f 19/19/19 18/18/18 17/17/17
f 20/20/20 19/19/19 17/17/17
f 23/23/23 22/22/22 21/21/21
f 24/24/24 23/23/23 21/21/21
f 27/27/27 26/26/26 25/25/25
f 28/28/28 27/27/27 25/25/25
f 31/31/31 30/30/30 29/29/29
f 32/32/32 31/31/31 29/29/29
f 35/35/35 34/34/34 33/33/33
f 36/36/36 35/35/35 33/33/33
f 39/39/39 38/38/38 37/37/37
f 40/40/40 39/39/39 37/37/37
g ButtonGlass_1
f 43/43/43 42/42/42 41/41/41
f 44/44/44 43/43/43 41/41/41
f 47/47/47 46/46/46 45/45/45
f 48/48/48 47/47/47 45/45/45
f 51/51/51 50/50/50 49/49/49
f 52/52/52 51/51/51 49/49/49
f 55/55/55 54/54/54 53/53/53
f 56/56/56 55/55/55 53/53/53
f 59/59/59 58/58/58 57/57/57
f 60/60/60 59/59/59 57/57/57
f 63/63/63 62/62/62 61/61/61
f 64/64/64 63/63/63 61/61/61
f 67/67/67 66/66/66 65/65/65
f 68/68/68 67/67/67 65/65/65
f 71/71/71 70/70/70 69/69/69
f 72/72/72 71/71/71 69/69/69
f 75/75/75 74/74/74 73/73/73
f 76/76/76 75/75/75 73/73/73
f 79/79/79 78/78/78 77/77/77
f 80/80/80 79/79/79 77/77/77
f 83/83/83 82/82/82 81/81/81
f 84/84/84 83/83/83 81/81/81
f 87/87/87 86/86/86 85/85/85
f 88/88/88 87/87/87 85/85/85
