g CatwalkChunk.004
v -5.579911 38.818214 -0.1220114
v -5.4885225 225.091 -18.10633
v -5.592902 225.19624 -18.089487
v -4.6394415 226.41385 -18.060518
v -4.834923 226.47475 -18.05948
v -5.4885225 225.091 -18.10633
v -4.834923 226.47475 -18.05948
v -4.99067 226.32343 -18.062761
v -5.4885225 225.091 -18.10633
v -4.99067 226.32343 -18.062761
v -5.592902 225.19624 -18.089487
v -5.4885225 225.091 -18.10633
v -5.579911 38.818214 -0.1220114
v -4.194934 38.277565 -0.1464939
v -4.3608265 224.63086 -18.123747
v -4.1276493 224.6531 -18.123331
v -3.54214 39.376778 -0.100848295
v -3.5960712 225.55153 -18.086214
v -3.5822315 225.78995 -18.077177
v -4.6394415 226.41385 -18.060518
v -3.5822315 225.78995 -18.077177
v -6.006712 245.16698 -18.110739
v -6.165472 245.36705 -18.094444
v -6.1613655 245.31566 -18.091892
v -3.54214 39.376778 -0.100848295
v -4.6394415 226.41385 -18.060518
v -3.5822315 225.78995 -18.077177
v -4.84037 40.096504 -0.073503114
v -4.834923 226.47475 -18.05948
v -5.579911 38.818214 -0.1220114
v -4.194934 38.277565 -0.1464939
v -5.579911 38.818214 -0.1220114
v -5.592902 225.19624 -18.089487
v -4.99067 226.32343 -18.062761
v -4.84037 40.096504 -0.073503114
v -4.834923 226.47475 -18.05948
v -4.6394415 226.41385 -18.060518
v -4.3608265 224.63086 -18.123747
v -4.1276493 224.6531 -18.123331
v -5.4885225 225.091 -18.10633
v -6.146717 58.85426 -0.11161909
v -6.1666327 244.19438 -17.937159
v -6.165472 245.36705 -18.094444
v -6.006712 245.16698 -18.110739
v -6.1613655 245.31566 -18.091892
v -6.1666327 244.19438 -17.937159
v -6.146717 58.85426 -0.11161909
v -6.006712 245.16698 -18.110739
v -6.1666327 244.19438 -17.937159
v -3.9720917 58.070915 -0.14659606
v -4.2294674 244.44897 -18.12853
v -3.867403 244.5672 -18.140736
v -2.9471073 59.658016 -0.08074615
v -3.0311065 245.91148 -18.09372
v -3.009564 246.26048 -18.081905
v -4.672576 247.14615 -18.055353
v -3.009564 246.26048 -18.081905
v -2.9471073 59.658016 -0.08074615
v -4.672576 247.14615 -18.055353
v -3.009564 246.26048 -18.081905
v -4.985525 60.693764 -0.040869337
v -4.9770412 247.22871 -18.053175
v -6.146717 58.85426 -0.11161909
v -3.9720917 58.070915 -0.14659606
v -6.146717 58.85426 -0.11161909
v -6.165472 245.36705 -18.094444
v -6.1613655 245.31566 -18.091892
v -5.936055 245.77129 -18.086376
v -6.165472 245.36705 -18.094444
v -5.219698 247.02895 -18.0604
v -4.985525 60.693764 -0.040869337
v -4.9770412 247.22871 -18.053175
v -4.672576 247.14615 -18.055353
v -4.2294674 244.44897 -18.12853
v -3.867403 244.5672 -18.140736
v -6.006712 245.16698 -18.110739
v -4.9770412 247.22871 -18.053175
v -4.9770412 247.22871 -18.053175
v -5.219698 247.02895 -18.0604
v -5.936055 245.77129 -18.086376
vt 0.30631852 1
vt 0.3273145 0.9071131
vt 0.29177618 0.9073386
vt 0.9358008 0.9071644
vt 0.96049607 0.907143
vt 0.3273145 0.9071131
vt 0.96049607 0.907143
vt 0.095664665 0.90718114
vt 0.3273145 0.9071131
vt 0.095664665 0.90718114
vt 0.29177618 0.9073386
vt 0.3273145 0.9071131
vt 0.30631852 1
vt 0.55850697 1
vt 0.5326547 0.90711945
vt 0.57001096 0.90711576
vt 0.7882302 1
vt 0.7570898 0.90720785
vt 0.8011742 0.90722007
vt 0.9358008 0.9071644
vt 0.8011742 0.90722007
vt 0.32680404 0.9093714
vt 0.2919417 0.9098369
vt 0.2950893 0.92957693
vt 0.7882302 1
vt 0.9358008 0.9071644
vt 0.8011742 0.90722007
vt 0.9535428 1
vt 0.96049607 0.907143
vt 0.30631852 1
vt 0.55850697 1
vt 0.30631852 1
vt 0.29177618 0.9073386
vt 0.095664665 0.90718114
vt 0.065532826 1
vt 0.061611302 0.907143
vt 0.9358008 0.9071644
vt 0.5326547 0.90711945
vt 0.57001096 0.90711576
vt 0.3273145 0.9071131
vt 0.30631852 1
vt 0.29212007 0.9095297
vt 0.2919417 0.9098369
vt 0.32680404 0.9093714
vt 0.2950893 0.92957693
vt 0.29212007 0.9095297
vt 0.30631852 1
vt 0.32680404 0.9093714
vt 0.29212007 0.9095297
vt 0.55850697 1
vt 0.53296256 0.9082256
vt 0.5699067 0.90795773
vt 0.7882302 1
vt 0.7573399 0.90795326
vt 0.8010728 0.90794724
vt 0.93594366 0.9079115
vt 0.8010728 0.90794724
vt 0.7882302 1
vt 0.93594366 0.9079115
vt 0.8010728 0.90794724
vt 0.9535428 1
vt 0.9604397 0.90789604
vt 0.30631852 1
vt 0.55850697 1
vt 0.30631852 1
vt 0.2919417 0.9098369
vt 0.2950893 0.92957693
vt 0.24429056 0.90944594
vt 0.2919417 0.9098369
vt 0.09543219 0.90789723
vt 0.065532826 1
vt 0.0616431 0.90789604
vt 0.93594366 0.9079115
vt 0.53296256 0.9082256
vt 0.5699067 0.90795773
vt 0.32680404 0.9093714
vt 0.9604397 0.90789604
vt 0.9604397 0.90789604
vt 0.09543219 0.90789723
vt 0.24429056 0.90944594
vn -0.054859072 -0.095928326 -0.9938753
vn -0.10530979 -0.03688717 -0.9937551
vn -0.077247106 -0.0018580365 -0.99701023
vn -0.0020432202 0.03748922 -0.999295
vn -0.0020432202 0.03748922 -0.999295
vn -0.10530979 -0.03688717 -0.9937551
vn -0.0020432202 0.03748922 -0.999295
vn -0.0020432202 0.03748922 -0.999295
vn -0.10530979 -0.03688717 -0.9937551
vn -0.0020432202 0.03748922 -0.999295
vn -0.077247106 -0.0018580365 -0.99701023
vn -0.10530979 -0.03688717 -0.9937551
vn -0.054859072 -0.095928326 -0.9938753
vn 0.033663917 -0.09602422 -0.9948095
vn -0.015067056 -0.039554812 -0.9991037
vn 0.0959629 -0.048560213 -0.99419975
vn 0.22565424 -0.093613 -0.9696993
vn 0.5466184 -0.0125580225 -0.8372877
vn 0.061525237 0.03374727 -0.9975349
vn -0.0020432202 0.03748922 -0.999295
vn 0.061525237 0.03374727 -0.9975349
vn -0.112170264 -0.05515496 -0.9921571
vn -0.045826934 0.007790812 -0.998919
vn -0.19686292 -0.08087323 -0.97708976
vn 0.03037633 0.015690962 0.9994154
vn 0.04880025 0.09592396 0.9941917
vn 0.073166 0.09575151 0.9927127
vn -0.06866921 0.061088357 0.9957675
vn -0.022617113 0.096032076 0.9951212
vn -0.06120643 -0.0031563754 0.9981201
vn 0.0005590614 -0.039897855 0.9992036
vn -0.06120643 -0.0031563754 0.9981201
vn -0.22214219 0.093558274 0.97051513
vn -0.13298771 0.09518831 0.9865361
vn -0.06866921 0.061088357 0.9957675
vn -0.022617113 0.096032076 0.9951212
vn -0.0020432202 0.03748922 -0.999295
vn -0.015067056 -0.039554812 -0.9991037
vn 0.0959629 -0.048560213 -0.99419975
vn -0.10530979 -0.03688717 -0.9937551
vn -0.061650693 -6.481787E-05 0.99809784
vn 0.9933466 0.011152165 0.11462205
vn 0.9933466 0.011152165 0.11462205
vn -0.112170264 -0.05515496 -0.9921571
vn -0.19686292 -0.08087323 -0.97708976
vn -0.4357837 -0.08820549 -0.895719
vn -0.04993426 -0.09599266 -0.9941287
vn -0.112170264 -0.05515496 -0.9921571
vn -0.4357837 -0.08820549 -0.895719
vn 0.03361518 -0.096074216 -0.99480635
vn -0.01780404 -0.047295824 -0.99872226
vn 0.08359583 -0.04665011 -0.9954072
vn 0.20735921 -0.09407249 -0.9737312
vn 0.5306393 -0.01863057 -0.8473929
vn 0.05882724 0.02577072 -0.99793553
vn -0.0042177616 0.02957413 -0.9995536
vn 0.05882724 0.02577072 -0.99793553
vn 0.029341552 0.018308626 0.9994018
vn 0.04598863 0.0959886 0.99431944
vn 0.06756853 0.09583115 0.9931016
vn -0.06284312 0.059513416 0.9962475
vn -0.024058487 0.096088745 0.995082
vn -0.061650693 -6.481787E-05 0.99809784
vn 0.00043450217 -0.040109597 0.99919516
vn -0.061650693 -6.481787E-05 0.99809784
vn 0.9933466 0.011152165 0.11462205
vn 0.58423156 0.07796433 0.8078336
vn -0.20602517 0.09391401 0.9740296
vn -0.20602517 0.09391401 0.9740296
vn -0.1269039 0.095316 0.98732483
vn -0.06284312 0.059513416 0.9962475
vn -0.024058487 0.096088745 0.995082
vn -0.0042177616 0.02957413 -0.9995536
vn -0.01780404 -0.047295824 -0.99872226
vn 0.08359583 -0.04665011 -0.9954072
vn -0.112170264 -0.05515496 -0.9921571
vn -0.0042177616 0.02957413 -0.9995536
vn -0.0042177616 0.02957413 -0.9995536
vn -0.0042177616 0.02957413 -0.9995536
vn -0.0042177616 0.02957413 -0.9995536
g CatwalkChunk.004_0
f 3/3/3 2/2/2 1/1/1
f 6/6/6 5/5/5 4/4/4
f 9/9/9 8/8/8 7/7/7
f 12/12/12 11/11/11 10/10/10
f 14/14/14 13/13/13 12/12/12
f 15/15/15 14/14/14 12/12/12
f 16/16/16 14/14/14 15/15/15
f 14/14/14 16/16/16 17/17/17
f 16/16/16 18/18/18 17/17/17
f 19/19/19 17/17/17 18/18/18
f 18/18/18 16/16/16 20/20/20
f 20/20/20 21/21/21 18/18/18
f 24/24/24 23/23/23 22/22/22
f 27/27/27 26/26/26 25/25/25
f 26/26/26 28/28/28 25/25/25
f 29/29/29 28/28/28 26/26/26
f 25/25/25 28/28/28 30/30/30
f 31/31/31 25/25/25 30/30/30
f 34/34/34 33/33/33 32/32/32
f 35/35/35 34/34/34 32/32/32
f 34/34/34 35/35/35 36/36/36
f 39/39/39 38/38/38 37/37/37
f 38/38/38 40/40/40 37/37/37
g CatwalkChunk.004_1
f 43/43/43 42/42/42 41/41/41
f 46/46/46 45/45/45 44/44/44
f 49/49/49 48/48/48 47/47/47
f 50/50/50 47/47/47 48/48/48
f 51/51/51 50/50/50 48/48/48
f 52/52/52 50/50/50 51/51/51
f 50/50/50 52/52/52 53/53/53
f 52/52/52 54/54/54 53/53/53
f 55/55/55 53/53/53 54/54/54
f 54/54/54 52/52/52 56/56/56
f 56/56/56 57/57/57 54/54/54
f 60/60/60 59/59/59 58/58/58
f 59/59/59 61/61/61 58/58/58
f 62/62/62 61/61/61 59/59/59
f 58/58/58 61/61/61 63/63/63
f 64/64/64 58/58/58 63/63/63
f 67/67/67 66/66/66 65/65/65
f 68/68/68 67/67/67 65/65/65
f 68/68/68 69/69/69 67/67/67
f 70/70/70 68/68/68 65/65/65
f 65/65/65 71/71/71 70/70/70
f 70/70/70 71/71/71 72/72/72
f 75/75/75 74/74/74 73/73/73
f 74/74/74 76/76/76 73/73/73
f 76/76/76 77/77/77 73/73/73
f 22/22/22 79/79/79 78/78/78
f 22/22/22 80/80/80 79/79/79
f 22/22/22 23/23/23 80/80/80
