g CatwalkRailPost
v 1.3409257 0.29975116 1.5625651
v 0.96655643 -0.9295053 -2.2550848
v 0.4999557 -1.2028888 1.5623524
v 1.062587 0.7888907 -2.2552297
v -1.3745673 0.18309242 -2.2555947
v -0.29374656 1.1785067 -2.254369
v -0.3315359 1.2628393 1.5604992
v -1.2842593 -0.44721133 1.5642195
v -1.2842593 -0.44721133 1.5642195
v -0.3315359 1.2628393 1.5604992
v 1.3409257 0.29975116 1.5625651
v 0.4999557 -1.2028888 1.5623524
v -1.2842593 -0.44721133 1.5642195
v -0.65052074 -1.0731852 -2.2544062
v -1.3745673 0.18309242 -2.2555947
v 0.4999557 -1.2028888 1.5623524
v 0.96655643 -0.9295053 -2.2550848
v 1.062587 0.7888907 -2.2552297
v -0.3315359 1.2628393 1.5604992
v -0.29374656 1.1785067 -2.254369
v 1.3409257 0.29975116 1.5625651
v 0.96655643 -0.9295053 -2.2550848
v 1.062587 0.7888907 -2.2552297
v -0.29374656 1.1785067 -2.254369
v -0.65052074 -1.0731852 -2.2544062
v -1.3745673 0.18309242 -2.2555947
v -1.9879452 1.305433 -2.0477548
v -1.671275 2.2568443 -2.0477548
v -1.671275 2.2568443 -1.8131661
v -1.9879452 1.305433 -1.8131661
v -2.3046153 0.09139801 -2.0477548
v -2.3046153 0.09139801 -1.8131661
v -1.9879452 -1.1226372 -2.0477548
v -1.9879452 -1.1226372 -1.8131661
v -1.671275 -2.1392455 -2.0477548
v -1.671275 -2.1392455 -1.8131661
v -1.671275 2.2568443 -2.0477548
v 0.4153577 2.2568443 -1.8131661
v -1.671275 2.2568443 -1.8131661
v 0.4153577 2.2568443 -2.0477548
v 1.4714307 1.305433 -1.8131661
v 1.4714307 1.305433 -2.0477548
v 1.4257339 -1.1226372 -2.0477548
v 0.59624773 -2.1392455 -2.0477548
v 0.59624773 -2.1392455 -1.8131661
v -1.671275 -2.1392455 -1.8131661
v -1.671275 -2.1392455 -2.0477548
v 1.4257339 -1.1226372 -2.0477548
v 0.59624773 -2.1392455 -1.8131661
v 1.4257339 -1.1226372 -1.8131661
v 1.9234025 0.09139801 -2.0477548
v 1.9234025 0.09139801 -1.8131661
v 1.4714307 1.305433 -2.0477548
v 1.4714307 1.305433 -1.8131661
v -1.9879452 -1.1226372 -2.0477548
v -1.671275 -2.1392455 -2.0477548
v 0.59624773 -2.1392455 -2.0477548
v 1.4257339 -1.1226372 -2.0477548
v -2.3046153 0.09139801 -2.0477548
v 1.9234025 0.09139801 -2.0477548
v -1.9879452 1.305433 -2.0477548
v 1.4714307 1.305433 -2.0477548
v -1.671275 2.2568443 -2.0477548
v 0.4153577 2.2568443 -2.0477548
v 1.4257339 -1.1226372 -1.8131661
v 0.59624773 -2.1392455 -1.8131661
v -1.671275 -2.1392455 -1.8131661
v -1.9879452 -1.1226372 -1.8131661
v 1.9234025 0.09139801 -1.8131661
v -2.3046153 0.09139801 -1.8131661
v 1.4714307 1.305433 -1.8131661
v -1.9879452 1.305433 -1.8131661
v 0.4153577 2.2568443 -1.8131661
v -1.671275 2.2568443 -1.8131661
vt 0.7882302 1
vt 0.62043357 0.5
vt 0.55850697 1
vt 0.8579869 0.5
vt 0.22784814 0.5
vt 0.04441689 0.5
vt 0.065532826 1
vt 0.30631852 1
vt 0.044636212 0.17527002
vt 0.20251267 0.44651338
vt 0.46618885 0.30345035
vt 0.3294041 0.043567225
vt 0.30631852 1
vt 0.4193374 0.5
vt 0.22784814 0.5
vt 0.55850697 1
vt 0.62043357 0.5
vt 0.8579869 0.5
vt 0.9535428 1
vt 0.99098337 0.5
vt 0.7882302 1
vt 0.898635 0.093082175
vt 0.9231442 0.39027834
vt 0.6980541 0.47505802
vt 0.63833094 0.048221514
vt 0.5315887 0.2802903
vt 0.375 0.1875
vt 0.375 0.25
vt 0.625 0.25
vt 0.625 0.1875
vt 0.375 0.125
vt 0.625 0.125
vt 0.375 0.0625
vt 0.625 0.0625
vt 0.375 0
vt 0.625 0
vt 0.375 0.25
vt 0.625 0.5
vt 0.625 0.25
vt 0.375 0.5
vt 0.625 0.5625
vt 0.375 0.5625
vt 0.375 0.68750006
vt 0.375 0.75
vt 0.625 0.75
vt 0.625 1
vt 0.375 1
vt 0.375 0.68750006
vt 0.625 0.75
vt 0.625 0.68750006
vt 0.375 0.625
vt 0.625 0.625
vt 0.375 0.5625
vt 0.625 0.5625
vt 0.125 0.6875
vt 0.125 0.75
vt 0.375 0.75
vt 0.375 0.68750006
vt 0.125 0.625
vt 0.375 0.625
vt 0.125 0.5625
vt 0.375 0.5625
vt 0.125 0.5
vt 0.375 0.5
vt 0.625 0.68750006
vt 0.625 0.75
vt 0.875 0.75
vt 0.87499994 0.6875
vt 0.625 0.625
vt 0.875 0.625
vt 0.625 0.5625
vt 0.87499994 0.5625
vt 0.625 0.5
vt 0.875 0.5
vn 0.9624101 0.26254925 0.06953264
vn 0.7138615 -0.69742143 -0.06328553
vn 0.32625857 -0.94210017 0.07747574
vn 0.8023239 0.59552306 -0.04035679
vn -0.98596036 0.16490835 -0.026217353
vn -0.22877185 0.9731896 -0.023779802
vn -0.25807282 0.96241814 0.08455655
vn -0.93849385 -0.32851642 0.106330924
vn 0.0003798383 0.0008797006 0.9999995
vn 0.0003798383 0.0008797006 0.9999995
vn 0.0003798383 0.0008797006 0.9999995
vn 0.0003798383 0.0008797006 0.9999995
vn -0.93849385 -0.32851642 0.106330924
vn -0.4602206 -0.8867272 -0.04372413
vn -0.98596036 0.16490835 -0.026217353
vn 0.32625857 -0.94210017 0.07747574
vn 0.7138615 -0.69742143 -0.06328553
vn 0.8023239 0.59552306 -0.04035679
vn -0.25807282 0.96241814 0.08455655
vn -0.22877185 0.9731896 -0.023779802
vn 0.9624101 0.26254925 0.06953264
vn -4.2957396E-05 -2.5985228E-05 -1
vn -4.2957396E-05 -2.5985228E-05 -1
vn -4.2957396E-05 -2.5985228E-05 -1
vn -4.2957396E-05 -2.5985228E-05 -1
vn -4.2957396E-05 -2.5985228E-05 -1
vn -0.9587479 0.28425783 0
vn -0.9488229 0.31580865 0
vn -0.9488229 0.31580865 0
vn -0.9587479 0.28425783 0
vn -1 0 0
vn -1 0 0
vn -0.96145153 -0.27497438 0
vn -0.96145153 -0.27497438 0
vn -0.95475227 -0.2974021 0
vn -0.95475227 -0.2974021 0
vn -0 1 0
vn 0.35849464 0.93353176 0
vn -0 1 0
vn 0.35849464 0.93353176 0
vn 0.82706 0.5621136 0
vn 0.82706 0.5621136 0
vn 0.8593959 -0.51131076 0
vn 0.42883903 -0.9033809 0
vn 0.42883903 -0.9033809 0
vn -0 -1 0
vn -0 -1 0
vn 0.8593959 -0.51131076 0
vn 0.42883903 -0.9033809 0
vn 0.8593959 -0.51131076 0
vn 0.99986684 -0.016321788 0
vn 0.99986684 -0.016321788 0
vn 0.82706 0.5621136 0
vn 0.82706 0.5621136 0
vn -0 0 -1
vn -0 0 -1
vn -0 0 -1
vn -0 0 -1
vn -0 0 -1
vn -0 0 -1
vn -0 0 -1
vn -0 0 -1
vn -0 0 -1
vn -0 0 -1
vn -0 0 1
vn -0 0 1
vn -0 0 1
vn -0 0 1
vn -0 0 1
vn -0 0 1
vn -0 0 1
vn -0 0 1
vn -0 0 1
vn -0 0 1
g CatwalkRailPost_0
f 3/3/3 2/2/2 1/1/1
f 4/4/4 1/1/1 2/2/2
f 7/7/7 6/6/6 5/5/5
f 7/7/7 5/5/5 8/8/8
f 11/11/11 10/10/10 9/9/9
f 12/12/12 11/11/11 9/9/9
f 15/15/15 14/14/14 13/13/13
f 16/16/16 13/13/13 14/14/14
f 17/17/17 16/16/16 14/14/14
f 20/20/20 19/19/19 18/18/18
f 18/18/18 19/19/19 21/21/21
f 24/24/24 23/23/23 22/22/22
f 22/22/22 25/25/25 24/24/24
f 25/25/25 26/26/26 24/24/24
f 29/29/29 28/28/28 27/27/27
f 30/30/30 29/29/29 27/27/27
f 30/30/30 27/27/27 31/31/31
f 32/32/32 30/30/30 31/31/31
f 32/32/32 31/31/31 33/33/33
f 34/34/34 32/32/32 33/33/33
f 34/34/34 33/33/33 35/35/35
f 36/36/36 34/34/34 35/35/35
f 39/39/39 38/38/38 37/37/37
f 38/38/38 40/40/40 37/37/37
f 38/38/38 41/41/41 40/40/40
f 41/41/41 42/42/42 40/40/40
f 45/45/45 44/44/44 43/43/43
f 45/45/45 46/46/46 44/44/44
f 46/46/46 47/47/47 44/44/44
f 50/50/50 49/49/49 48/48/48
f 50/50/50 48/48/48 51/51/51
f 52/52/52 50/50/50 51/51/51
f 52/52/52 51/51/51 53/53/53
f 54/54/54 52/52/52 53/53/53
f 57/57/57 56/56/56 55/55/55
f 58/58/58 57/57/57 55/55/55
f 58/58/58 55/55/55 59/59/59
f 60/60/60 58/58/58 59/59/59
f 60/60/60 59/59/59 61/61/61
f 62/62/62 60/60/60 61/61/61
f 62/62/62 61/61/61 63/63/63
f 64/64/64 62/62/62 63/63/63
f 67/67/67 66/66/66 65/65/65
f 68/68/68 67/67/67 65/65/65
f 68/68/68 65/65/65 69/69/69
f 70/70/70 68/68/68 69/69/69
f 70/70/70 69/69/69 71/71/71
f 72/72/72 70/70/70 71/71/71
f 72/72/72 71/71/71 73/73/73
f 74/74/74 72/72/72 73/73/73
