g ChargeProng4
v -0.34279034 0.8783617 0.3623129
v -0.31203356 0.8783617 0.3623129
v -0.31203356 0.8783617 0.46052107
v -0.34279034 0.8783617 0.46052107
v -0.34279034 0.8783617 0.3623129
v -0.31203356 0.17498629 0.3623129
v -0.31203356 0.8783617 0.3623129
v -0.34279034 0.17498629 0.3623129
v -0.31203356 0.13945387 0.38505754
v -0.34279034 0.13945387 0.38505754
v -0.31203356 0.8783617 0.46052107
v -0.34279034 0.17498629 0.46052107
v -0.34279034 0.8783617 0.46052107
v -0.31203356 0.17498629 0.46052107
v -0.34279034 0.13945387 0.43777648
v -0.31203356 0.13945387 0.43777648
v -0.31203356 0.13945387 0.38505754
v -0.34279034 0.13945387 0.38505754
v -0.31203356 0.17498629 0.3623129
v -0.31203356 0.13945387 0.38505754
v -0.31203356 0.13945387 0.43777648
v -0.31203356 0.17498629 0.46052107
v -0.31203356 0.19707923 0.40986985
v -0.31203356 0.2126789 0.38896194
v -0.31203356 0.21267892 0.43077776
v -0.31203356 0.8783617 0.3623129
v -0.31203356 0.24387823 0.38896194
v -0.31203356 0.25947785 0.40986985
v -0.31203356 0.8783617 0.46052107
v -0.31203356 0.2438782 0.43077776
v -0.34279034 0.17498629 0.46052107
v -0.34279034 0.13945387 0.43777648
v -0.34279034 0.13945387 0.38505754
v -0.34279034 0.17498629 0.3623129
v -0.34279034 0.19707929 0.40986985
v -0.34279034 0.21267892 0.43077776
v -0.34279034 0.2126789 0.38896194
v -0.34279034 0.8783617 0.46052107
v -0.34279034 0.2438782 0.43077776
v -0.34279034 0.25947785 0.40986985
v -0.34279034 0.8783617 0.3623129
v -0.34279034 0.24387823 0.38896194
v -0.34279034 0.19707929 0.40986985
v -0.34279034 0.2126789 0.38896194
v -0.31203356 0.2126789 0.38896194
v -0.31203356 0.19707923 0.40986985
v -0.34279034 0.21267892 0.43077776
v -0.31203356 0.21267892 0.43077776
v -0.34279034 0.2126789 0.38896194
v -0.31203356 0.24387823 0.38896194
v -0.31203356 0.2126789 0.38896194
v -0.34279034 0.24387823 0.38896194
v -0.31203356 0.25947785 0.40986985
v -0.34279034 0.25947785 0.40986985
v -0.34279034 0.25947785 0.40986985
v -0.31203356 0.2438782 0.43077776
v -0.31203356 0.25947785 0.40986985
v -0.34279034 0.2438782 0.43077776
v -0.31203356 0.21267892 0.43077776
v -0.34279034 0.21267892 0.43077776
vt 0.029815674 1
vt 0.059631348 1
vt 0.059631348 0.8828125
vt 0.029815674 0.8828125
vt 0.8510742 0.8720703
vt 0.82128906 0.04675293
vt 0.82128906 0.8720703
vt 0.8510742 0.04675293
vt 0.82128906 0
vt 0.8510742 0
vt 0.91064453 5.9604645E-08
vt 0.9404297 0.6152344
vt 0.9404297 0
vt 0.91064453 0.6152344
vt 0.9404297 0.6645508
vt 0.91064453 0.6645508
vt 0.91064453 0.70751953
vt 0.9404297 0.70751953
vt 0.095214844 0.04244995
vt 0.07312012 0
vt 0.02204895 0
vt 0 0.04244995
vt 0.049102783 0.068847656
vt 0.06933594 0.08746338
vt 0.028823853 0.08746338
vt 0.095214844 0.8828125
vt 0.06933594 0.12475586
vt 0.049102783 0.14343262
vt 1.7881393E-07 0.8828125
vt 0.028823853 0.12475586
vt 0.6665039 0.84033203
vt 0.68847656 0.8828125
vt 0.7392578 0.8828125
vt 0.76171875 0.84033203
vt 0.71533203 0.81396484
vt 0.6953125 0.79541016
vt 0.73583984 0.79541016
vt 0.6665039 1.1920929E-07
vt 0.6953125 0.7578125
vt 0.71533203 0.7392578
vt 0.76171875 0
vt 0.73583984 0.7578125
vt 0.39916992 0.90771484
vt 0.39916992 0.9326172
vt 0.42895508 0.9326172
vt 0.42895508 0.90771484
vt 0.39916992 0.8828125
vt 0.42895508 0.8828125
vt 0.27978516 0.9404297
vt 0.25 0.9135742
vt 0.25 0.9404297
vt 0.27978516 0.9135742
vt 0.25 0.8828125
vt 0.27978516 0.8828125
vt 0.15478516 0.9423828
vt 0.125 0.9194336
vt 0.125 0.9423828
vt 0.15478516 0.9194336
vt 0.125 0.8828125
vt 0.15478516 0.8828125
vn -0 1 0
vn -0 1 0
vn -0 1 0
vn -0 1 0
vn -0 0 -1
vn -0 -0.28076172 -0.95996094
vn -0 0 -1
vn -0 -0.28076172 -0.95996094
vn -0 -0.8774414 -0.47998047
vn -0 -0.8774414 -0.47998047
vn -0 0 1
vn -0 -0.28076172 0.95996094
vn -0 0 1
vn -0 -0.28076172 0.95996094
vn -0 -0.8774414 0.47998047
vn -0 -0.8774414 0.47998047
vn -0 -0.8774414 -0.47998047
vn -0 -0.8774414 -0.47998047
vn 1 0 0
vn 1 0 0
vn 1 0 0
vn 1 0 0
vn 1 0 0
vn 1 0 0
vn 1 0 0
vn 1 0 0
vn 1 0 0
vn 1 0 0
vn 1 0 0
vn 1 0 0
vn -1 0 0
vn -1 0 0
vn -1 0 0
vn -1 0 0
vn -1 0 0
vn -1 0 0
vn -1 0 0
vn -1 0 0
vn -1 0 0
vn -1 0 0
vn -1 0 0
vn -1 0 0
vn -0 1 0
vn -0 0.4482422 0.89404297
vn -0 0.4482422 0.89404297
vn -0 1 0
vn -0 0.4482422 -0.89404297
vn -0 0.4482422 -0.89404297
vn -0 0.4482422 0.89404297
vn -0 -0.4482422 0.89404297
vn -0 0.4482422 0.89404297
vn -0 -0.4482422 0.89404297
vn -0 -1 0
vn -0 -1 0
vn -0 -1 0
vn -0 -0.4482422 -0.89404297
vn -0 -1 0
vn -0 -0.4482422 -0.89404297
vn -0 0.4482422 -0.89404297
vn -0 0.4482422 -0.89404297
g ChargeProng4_0
f 3/3/3 2/2/2 1/1/1
f 4/4/4 3/3/3 1/1/1
f 7/7/7 6/6/6 5/5/5
f 6/6/6 8/8/8 5/5/5
f 6/6/6 9/9/9 8/8/8
f 9/9/9 10/10/10 8/8/8
f 13/13/13 12/12/12 11/11/11
f 12/12/12 14/14/14 11/11/11
f 12/12/12 15/15/15 14/14/14
f 15/15/15 16/16/16 14/14/14
f 16/16/16 15/15/15 17/17/17
f 15/15/15 18/18/18 17/17/17
f 21/21/21 20/20/20 19/19/19
f 22/22/22 21/21/21 19/19/19
f 22/22/22 19/19/19 23/23/23
f 24/24/24 23/23/23 19/19/19
f 23/23/23 25/25/25 22/22/22
f 19/19/19 26/26/26 24/24/24
f 26/26/26 27/27/27 24/24/24
f 26/26/26 28/28/28 27/27/27
f 25/25/25 29/29/29 22/22/22
f 28/28/28 26/26/26 29/29/29
f 25/25/25 30/30/30 29/29/29
f 30/30/30 28/28/28 29/29/29
f 33/33/33 32/32/32 31/31/31
f 34/34/34 33/33/33 31/31/31
f 35/35/35 34/34/34 31/31/31
f 31/31/31 36/36/36 35/35/35
f 34/34/34 35/35/35 37/37/37
f 31/31/31 38/38/38 36/36/36
f 38/38/38 39/39/39 36/36/36
f 38/38/38 40/40/40 39/39/39
f 37/37/37 41/41/41 34/34/34
f 38/38/38 41/41/41 40/40/40
f 37/37/37 42/42/42 41/41/41
f 42/42/42 40/40/40 41/41/41
f 45/45/45 44/44/44 43/43/43
f 46/46/46 45/45/45 43/43/43
f 46/46/46 43/43/43 47/47/47
f 48/48/48 46/46/46 47/47/47
f 51/51/51 50/50/50 49/49/49
f 50/50/50 52/52/52 49/49/49
f 50/50/50 53/53/53 52/52/52
f 53/53/53 54/54/54 52/52/52
f 57/57/57 56/56/56 55/55/55
f 56/56/56 58/58/58 55/55/55
f 56/56/56 59/59/59 58/58/58
f 59/59/59 60/60/60 58/58/58
