g ComplexFactoryRoom.002
v 1.975007 -0.7749944 19.300005
v 1.975007 -0.7749943 17
v 2.500007 -0.7749943 17
v 2.500007 -0.7749944 19.300005
v 0.925008 0.6750028 19.300005
v 0.925008 0.6750029 17
v 1.450007 0.6750029 17
v 1.450008 0.6750028 19.300005
v 0.9250076 1.400009 19.300005
v 0.9250076 1.400009 17
v 0.925008 0.6750029 17
v 0.925008 0.6750028 19.300005
v 1.450008 0.6750028 19.300005
v 1.450007 0.6750029 17
v 1.450007 -0.04998791 17
v 1.450008 -0.049987882 19.300005
v 1.975007 -0.049988005 19.300005
v 1.975007 -0.04998803 17
v 1.975007 -0.7749943 17
v 1.975007 -0.7749944 19.300005
v -0.1249919 -5.125016 17
v 5.125006 -5.125016 17
v 5.125006 -4.40001 17
v 4.600006 -4.40001 17
v 4.600006 -3.675004 17
v 4.075006 -3.675004 17
v 4.075006 -2.950013 17
v 3.550007 -2.950013 17
v 3.550007 -2.225007 17
v 3.025007 -2.225007 17
v 3.025007 -1.500001 17
v 2.500007 -1.5 17
v 2.500007 -0.7749943 17
v 1.975007 -0.7749943 17
v 1.975007 -0.04998803 17
v 1.450007 -0.04998791 17
v 1.450007 0.6750029 17
v 0.925008 0.6750029 17
v 0.9250076 1.400009 17
v 0.4000074 1.400009 17
v -0.1249917 2.125015 17
v 0.4000075 2.125015 17
v 4.075006 -2.950013 19.300005
v 4.075006 -2.950013 17
v 4.075006 -3.675004 17
v 4.075006 -3.675004 19.300005
v -0.12499121 2.125015 19.3
v -0.1249917 2.125015 17
v 0.4000075 2.125015 17
v 0.400008 2.125015 19.300005
v 5.125006 -4.40001 19.300005
v 5.125006 -4.40001 17
v 5.125006 -5.125016 17
v 5.125006 -5.125016 19.300003
v 3.550006 -2.950013 19.300005
v 3.550007 -2.950013 17
v 4.075006 -2.950013 17
v 4.075006 -2.950013 19.300005
v 0.4000079 1.400009 19.300005
v 0.4000074 1.400009 17
v 0.9250076 1.400009 17
v 0.9250076 1.400009 19.300005
v 0.400008 2.125015 19.300005
v 0.4000075 2.125015 17
v 0.4000074 1.400009 17
v 0.4000079 1.400009 19.300005
v 3.550007 -2.225007 19.300005
v 3.550007 -2.225007 17
v 3.550007 -2.950013 17
v 3.550006 -2.950013 19.300005
v 3.025007 -2.225007 19.300005
v 3.025007 -2.225007 17
v 3.550007 -2.225007 17
v 3.550007 -2.225007 19.300005
v 4.075006 -3.675004 19.300005
v 4.075006 -3.675004 17
v 4.600006 -3.675004 17
v 4.600006 -3.675004 19.300005
v 3.025007 -1.500001 19.300005
v 3.025007 -1.500001 17
v 3.025007 -2.225007 17
v 3.025007 -2.225007 19.300005
v 2.500007 -1.5 19.300005
v 2.500007 -1.5 17
v 3.025007 -1.500001 17
v 3.025007 -1.500001 19.300005
v 2.500007 -0.7749944 19.300005
v 2.500007 -0.7749943 17
v 2.500007 -1.5 17
v 2.500007 -1.5 19.300005
v 1.450008 -0.049987882 19.300005
v 1.450007 -0.04998791 17
v 1.975007 -0.04998803 17
v 1.975007 -0.049988005 19.300005
v 4.600006 -3.675004 19.300005
v 4.600006 -3.675004 17
v 4.600006 -4.40001 17
v 4.600006 -4.40001 19.300005
v 4.600006 -4.40001 19.300005
v 4.600006 -4.40001 17
v 5.125006 -4.40001 17
v 5.125006 -4.40001 19.300005
v 4.075006 -3.675004 19.300005
v 4.600006 -3.675004 19.300005
v 4.600006 -4.40001 19.300005
v -0.12499101 -5.125016 19.300005
v 5.125006 -5.125016 19.300003
v 5.125006 -4.40001 19.300005
v 3.550006 -2.950013 19.300005
v 3.025007 -2.225007 19.300005
v 4.075006 -2.950013 19.300005
v 3.550007 -2.225007 19.300005
v 2.500007 -1.5 19.300005
v 3.025007 -1.500001 19.300005
v 1.975007 -0.7749944 19.300005
v 2.500007 -0.7749944 19.300005
v 1.450008 -0.049987882 19.300005
v 1.975007 -0.049988005 19.300005
v 0.925008 0.6750028 19.300005
v 1.450008 0.6750028 19.300005
v 0.9250076 1.400009 19.300005
v 0.4000079 1.400009 19.300005
v -0.12499121 2.125015 19.3
v 0.400008 2.125015 19.300005
v -0.1249919 -5.125016 17
v -0.12499101 -5.125016 19.300005
v 5.125006 -5.125016 19.300003
v 5.125006 -5.125016 17
vt 0.9463486 0.36799988
vt 0.9463486 0.55199987
vt 0.9914128 0.55199987
vt 0.9914128 0.36799988
vt 0.94634855 0.36799988
vt 0.94634855 0.18399994
vt 0.9012844 0.18399994
vt 0.9012843 0.36799988
vt 0.38412097 0.7640011
vt 0.384121 0.5800011
vt 0.3218889 0.5800011
vt 0.3218889 0.7640011
vt 0.81974304 0.7640011
vt 0.81974304 0.5800011
vt 0.7575123 0.5800011
vt 0.7575123 0.7640011
vt 0.63304937 0.7640009
vt 0.63304937 0.5800011
vt 0.5708173 0.5800011
vt 0.57081723 0.7640009
vt 0 0.5800011
vt 0.45064214 0.58000106
vt 0.45064214 0.52200073
vt 0.4055779 0.52200073
vt 0.4055779 0.4640004
vt 0.36051366 0.4640004
vt 0.36051366 0.40600127
vt 0.3154495 0.40600124
vt 0.3154495 0.34800088
vt 0.27038527 0.34800088
vt 0.27038532 0.29000056
vt 0.22532107 0.2900005
vt 0.22532105 0.23200017
vt 0.18025683 0.23200017
vt 0.18025681 0.17399982
vt 0.13519257 0.17399982
vt 0.1351926 0.11600069
vt 0.09012844 0.11600068
vt 0.09012841 0.058000326
vt 0.045064155 0.058000337
vt 1.2790655E-09 0
vt 0.045064162 0
vt 0.6952815 0.5800011
vt 0.69528157 0.7640011
vt 0.75751233 0.7640011
vt 0.75751233 0.5800011
vt 1 0.7640008
vt 1 0.5800011
vt 0.9549358 0.5800011
vt 0.9549358 0.7640011
vt 0.25965676 0.5800011
vt 0.2596568 0.7640011
vt 0.3218889 0.7640011
vt 0.32188883 0.58000124
vt 0.9463486 0
vt 0.9463487 0.18399979
vt 0.9914128 0.18399979
vt 0.9914128 0
vt 0.9098716 0.7640011
vt 0.9098716 0.5800011
vt 0.8648073 0.5800011
vt 0.86480737 0.7640011
vt 0.63304937 0.5800011
vt 0.63304937 0.7640009
vt 0.69528145 0.7640009
vt 0.69528145 0.5800011
vt 0.19742468 0.5800011
vt 0.1974247 0.7640012
vt 0.25965676 0.7640012
vt 0.25965673 0.58000124
vt 0.81974304 0.5800011
vt 0.81974304 0.7640011
vt 0.86480737 0.7640011
vt 0.8648073 0.5800011
vt 0.9012843 0.36799988
vt 0.90128434 0.5519997
vt 0.9463486 0.5519997
vt 0.94634855 0.36799988
vt 0.384121 0.5800011
vt 0.38412103 0.7640011
vt 0.4463531 0.7640011
vt 0.44635308 0.5800011
vt 0.9914128 0.36799988
vt 0.9914128 0.18399994
vt 0.9463486 0.1840001
vt 0.9463486 0.36799988
vt 0.50858516 0.5800011
vt 0.50858516 0.7640011
vt 0.57081723 0.7640011
vt 0.57081723 0.5800011
vt 0.9012844 0
vt 0.9012843 0.18399994
vt 0.94634855 0.18399994
vt 0.94634855 0
vt 0.50858516 0.7640011
vt 0.50858516 0.5800011
vt 0.44635308 0.5800011
vt 0.44635308 0.7640011
vt 0.9098716 0.5800011
vt 0.9098716 0.7640011
vt 0.95493585 0.7640011
vt 0.9549358 0.5800011
vt 0.81115574 0.1160007
vt 0.85622 0.1160007
vt 0.85622 0.05800035
vt 0.45064217 0
vt 0.9012842 0
vt 0.9012842 0.05800035
vt 0.7660915 0.17399983
vt 0.7210274 0.23200017
vt 0.81115574 0.17399983
vt 0.76609164 0.23200017
vt 0.67596316 0.2900006
vt 0.7210274 0.2900005
vt 0.63089895 0.34800088
vt 0.67596316 0.34800088
vt 0.5858348 0.40600127
vt 0.63089895 0.40600127
vt 0.54077053 0.4640004
vt 0.5858348 0.4640004
vt 0.54077053 0.52200073
vt 0.49570632 0.52200073
vt 0.45064214 0.58000106
vt 0.49570632 0.58000106
vt 0.19742468 0.5800011
vt 0 0.5800012
vt 0 1
vt 0.19742468 1
vn -0 1 0
vn -0 1 0
vn -0 1 0
vn -0 1 0
vn -0 1 0
vn -0 1 0
vn -0 1 0
vn -0 1 0
vn 1 0 0
vn 1 0 0
vn 1 0 0
vn 1 0 0
vn 1 0 0
vn 1 0 0
vn 1 0 0
vn 1 0 0
vn 1 0 0
vn 1 0 0
vn 1 0 0
vn 1 0 0
vn -0 0 -1
vn -0 0 -1
vn -0 0 -1
vn -0 0 -1
vn -0 0 -1
vn -0 0 -1
vn -0 0 -1
vn -0 0 -1
vn -0 0 -1
vn -0 0 -1
vn -0 0 -1
vn -0 0 -1
vn -0 0 -1
vn -0 0 -1
vn -0 0 -1
vn -0 0 -1
vn -0 0 -1
vn -0 0 -1
vn -0 0 -1
vn -0 0 -1
vn -0 0 -1
vn -0 0 -1
vn 1 0 0
vn 1 0 0
vn 1 0 0
vn 1 0 0
vn -0 1 0
vn -0 1 0
vn -0 1 0
vn -0 1 0
vn 1 0 0
vn 1 0 0
vn 1 0 0
vn 1 0 0
vn -0 1 0
vn -0 1 0
vn -0 1 0
vn -0 1 0
vn -0 1 0
vn -0 1 0
vn -0 1 0
vn -0 1 0
vn 1 0 0
vn 1 0 0
vn 1 0 0
vn 1 0 0
vn 1 0 0
vn 1 0 0
vn 1 0 0
vn 1 0 0
vn -0 1 0
vn -0 1 0
vn -0 1 0
vn -0 1 0
vn -0 1 0
vn -0 1 0
vn -0 1 0
vn -0 1 0
vn 1 0 0
vn 1 0 0
vn 1 0 0
vn 1 0 0
vn -0 1 0
vn -0 1 0
vn -0 1 0
vn -0 1 0
vn 1 0 0
vn 1 0 0
vn 1 0 0
vn 1 0 0
vn -0 1 0
vn -0 1 0
vn -0 1 0
vn -0 1 0
vn 1 0 0
vn 1 0 0
vn 1 0 0
vn 1 0 0
vn -0 1 0
vn -0 1 0
vn -0 1 0
vn -0 1 0
vn -0 0 1
vn -0 0 1
vn -0 0 1
vn -0 0 1
vn -0 0 1
vn -0 0 1
vn -0 0 1
vn -0 0 1
vn -0 0 1
vn -0 0 1
vn -0 0 1
vn -0 0 1
vn -0 0 1
vn -0 0 1
vn -0 0 1
vn -0 0 1
vn -0 0 1
vn -0 0 1
vn -0 0 1
vn -0 0 1
vn -0 0 1
vn -0 0 1
vn -0 -1 0
vn -0 -1 0
vn -0 -1 0
vn -0 -1 0
g ComplexFactoryRoom.002_0
f 3/3/3 2/2/2 1/1/1
f 4/4/4 3/3/3 1/1/1
f 7/7/7 6/6/6 5/5/5
f 8/8/8 7/7/7 5/5/5
f 11/11/11 10/10/10 9/9/9
f 12/12/12 11/11/11 9/9/9
f 15/15/15 14/14/14 13/13/13
f 16/16/16 15/15/15 13/13/13
f 19/19/19 18/18/18 17/17/17
f 20/20/20 19/19/19 17/17/17
f 23/23/23 22/22/22 21/21/21
f 21/21/21 24/24/24 23/23/23
f 21/21/21 25/25/25 24/24/24
f 21/21/21 26/26/26 25/25/25
f 21/21/21 27/27/27 26/26/26
f 21/21/21 28/28/28 27/27/27
f 21/21/21 29/29/29 28/28/28
f 21/21/21 30/30/30 29/29/29
f 21/21/21 31/31/31 30/30/30
f 21/21/21 32/32/32 31/31/31
f 21/21/21 33/33/33 32/32/32
f 21/21/21 34/34/34 33/33/33
f 21/21/21 35/35/35 34/34/34
f 21/21/21 36/36/36 35/35/35
f 21/21/21 37/37/37 36/36/36
f 21/21/21 38/38/38 37/37/37
f 21/21/21 39/39/39 38/38/38
f 21/21/21 40/40/40 39/39/39
f 21/21/21 41/41/41 40/40/40
f 42/42/42 40/40/40 41/41/41
f 45/45/45 44/44/44 43/43/43
f 46/46/46 45/45/45 43/43/43
f 49/49/49 48/48/48 47/47/47
f 50/50/50 49/49/49 47/47/47
f 53/53/53 52/52/52 51/51/51
f 54/54/54 53/53/53 51/51/51
f 57/57/57 56/56/56 55/55/55
f 58/58/58 57/57/57 55/55/55
f 61/61/61 60/60/60 59/59/59
f 62/62/62 61/61/61 59/59/59
f 65/65/65 64/64/64 63/63/63
f 66/66/66 65/65/65 63/63/63
f 69/69/69 68/68/68 67/67/67
f 70/70/70 69/69/69 67/67/67
f 73/73/73 72/72/72 71/71/71
f 74/74/74 73/73/73 71/71/71
f 77/77/77 76/76/76 75/75/75
f 78/78/78 77/77/77 75/75/75
f 81/81/81 80/80/80 79/79/79
f 82/82/82 81/81/81 79/79/79
f 85/85/85 84/84/84 83/83/83
f 86/86/86 85/85/85 83/83/83
f 89/89/89 88/88/88 87/87/87
f 90/90/90 89/89/89 87/87/87
f 93/93/93 92/92/92 91/91/91
f 94/94/94 93/93/93 91/91/91
f 97/97/97 96/96/96 95/95/95
f 98/98/98 97/97/97 95/95/95
f 101/101/101 100/100/100 99/99/99
f 102/102/102 101/101/101 99/99/99
f 105/105/105 104/104/104 103/103/103
f 105/105/105 103/103/103 106/106/106
f 105/105/105 106/106/106 107/107/107
f 107/107/107 108/108/108 105/105/105
f 103/103/103 109/109/109 106/106/106
f 109/109/109 110/110/110 106/106/106
f 103/103/103 111/111/111 109/109/109
f 109/109/109 112/112/112 110/110/110
f 110/110/110 113/113/113 106/106/106
f 110/110/110 114/114/114 113/113/113
f 113/113/113 115/115/115 106/106/106
f 113/113/113 116/116/116 115/115/115
f 115/115/115 117/117/117 106/106/106
f 115/115/115 118/118/118 117/117/117
f 117/117/117 119/119/119 106/106/106
f 117/117/117 120/120/120 119/119/119
f 119/119/119 121/121/121 106/106/106
f 121/121/121 122/122/122 106/106/106
f 123/123/123 106/106/106 122/122/122
f 122/122/122 124/124/124 123/123/123
f 127/127/127 126/126/126 125/125/125
f 128/128/128 127/127/127 125/125/125
