g Cords
v 0.64798635 5.2107987 -2.86322
v 0.6472304 5.1770377 -2.8889034
v 0.097210646 4.9858475 -2.6981506
v 0.09199706 5.0174885 -2.6703715
v -0.28401947 4.648502 -2.4556265
v -0.29366392 4.676321 -2.4250803
v -0.51676774 4.1942997 -2.1732144
v -0.5286101 4.2180805 -2.1401355
v -0.6191489 3.653253 -1.8686615
v -0.6316741 3.673792 -1.8336072
v -0.6091018 3.0568626 -1.596549
v -0.6216175 3.0750113 -1.5600374
v -0.5051976 2.4371197 -1.365735
v -0.5174255 2.4534752 -1.3275179
v -0.10327408 1.2690934 -0.9362011
v -0.091988966 1.2554523 -0.9752193
v 0.4564214 0.37476242 -0.5807452
v 0.46577248 0.36402205 -0.62071025
v 0.74754965 0.10778711 -0.49859127
v 0.74100816 0.1162395 -0.45753318
v 1 0.01760294 -0.4559963
v 1 0.024292732 -0.41410065
v 0.097210646 4.9858475 -2.6981506
v 0.6472304 5.1770377 -2.8889034
v 0.6349972 5.2018075 -2.9211028
v 0.072384685 5.0061455 -2.7259297
v -0.28401947 4.648502 -2.4556265
v -0.31824535 4.660692 -2.4775348
v -0.51676774 4.1942997 -2.1732144
v -0.55569875 4.1978455 -2.1897008
v -0.6191489 3.653253 -1.8686615
v -0.6595624 3.6497602 -1.8800348
v -0.6494941 3.0480623 -1.6035181
v -0.6091018 3.0568626 -1.596549
v -0.54492813 2.424196 -1.3702793
v -0.5051976 2.4371197 -1.365735
v -0.12934214 1.2357265 -0.9777959
v -0.091988966 1.2554523 -0.9752193
v 0.43419886 0.33568382 -0.6204822
v 0.46577248 0.36402205 -0.62071025
v 0.7252439 0.07190178 -0.49475756
v 0.74754965 0.10778711 -0.49859127
v 1 0.01760294 -0.4559963
v 1 -0.02429273 -0.44930652
v 0.6349972 5.2018075 -2.9211028
v 0.63575315 5.2355685 -2.8954194
v 0.0671711 5.0377865 -2.6981506
v 0.072384685 5.0061455 -2.7259297
v -0.3278898 4.6885114 -2.4469886
v -0.31824535 4.660692 -2.4775348
v -0.5675411 4.2216263 -2.156622
v -0.55569875 4.1978455 -2.1897008
v -0.6720876 3.670299 -1.8447056
v -0.6595624 3.6497602 -1.8800348
v -0.66200984 3.066211 -1.566313
v -0.6494941 3.0480623 -1.6035181
v -0.557156 2.4405515 -1.3320664
v -0.54492813 2.424196 -1.3702793
v -0.14062725 1.2493676 -0.93877476
v -0.12934214 1.2357265 -0.9777959
v 0.42484775 0.34642422 -0.5805172
v 0.43419886 0.33568382 -0.6204822
v 0.71870244 0.08035418 -0.45369947
v 0.7252439 0.07190178 -0.49475756
v 1 -0.017602937 -0.40741083
v 1 -0.02429273 -0.44930652
v 0.74100816 0.1162395 -0.45753318
v 1 0.024292732 -0.41410065
v 1 -0.017602937 -0.40741083
v 0.71870244 0.08035418 -0.45369947
v 0.4564214 0.37476242 -0.5807452
v 0.42484775 0.34642422 -0.5805172
v -0.10327408 1.2690934 -0.9362011
v -0.14062725 1.2493676 -0.93877476
v -0.5174255 2.4534752 -1.3275179
v -0.557156 2.4405515 -1.3320664
v -0.6216175 3.0750113 -1.5600374
v -0.66200984 3.066211 -1.566313
v -0.6316741 3.673792 -1.8336072
v -0.6720876 3.670299 -1.8447056
v -0.5675411 4.2216263 -2.156622
v -0.5286101 4.2180805 -2.1401355
v -0.3278898 4.6885114 -2.4469886
v -0.29366392 4.676321 -2.4250803
v 0.0671711 5.0377865 -2.6981506
v 0.09199706 5.0174885 -2.6703715
v 0.63575315 5.2355685 -2.8954194
v 0.64798635 5.2107987 -2.86322
v 0.65895593 4.711721 -2.8717313
v 0.65351236 4.671828 -2.885107
v 0.30753362 4.5165105 -2.4801068
v 0.30723384 4.5539074 -2.4600716
v 0.06050182 4.2565713 -2.0336306
v 0.064217135 4.2230806 -2.05941
v -0.09191032 3.8487542 -1.6084119
v -0.08663398 3.8192008 -1.6385412
v -0.15060356 2.7950842 -0.9101444
v -0.15640268 2.8181229 -0.8747035
v 0.02831603 1.6950537 -0.28222927
v 0.03315208 1.6778553 -0.32227507
v 0.37675974 0.71244025 0.015597295
v 0.37837845 0.7038005 -0.026601695
v 0.58267283 0.3457275 0.07467148
v 0.5858493 0.34638575 0.11818336
v 0.79023874 0.11321582 0.07319758
v 0.8043379 0.10256639 0.11412177
v 0.9919311 0.027912833 -0.048545603
v 1.0213774 0.010983243 -0.020956185
v 0.62947124 4.72496 -2.8992157
v 0.65895593 4.711721 -2.8717313
v 0.30723384 4.5539074 -2.4600716
v 0.27132457 4.5643535 -2.4801068
v 0.06050182 4.2565713 -2.0336306
v 0.02080275 4.262683 -2.0472918
v -0.09191032 3.8487542 -1.6084119
v -0.1333175 3.850558 -1.6172379
v -0.15640268 2.8181229 -0.8747035
v -0.19837025 2.8130429 -0.87803835
v -0.012721721 1.6842935 -0.28177217
v 0.02831603 1.6950537 -0.28222927
v 0.37675974 0.71244025 0.015597295
v 0.33852178 0.6942044 0.018315883
v 0.5858493 0.34638575 0.11818336
v 0.5515616 0.3215747 0.12229963
v 0.8043379 0.10256639 0.11412177
v 0.778836 0.06865989 0.117701516
v 1.0213774 0.010983243 -0.020956185
v 1.0080689 -0.027912833 -0.027282204
v 0.6240276 4.6850667 -2.9125915
v 0.62947124 4.72496 -2.8992157
v 0.27132457 4.5643535 -2.4801068
v 0.27162436 4.5269566 -2.500142
v 0.02080275 4.262683 -2.0472918
v 0.024518069 4.2291923 -2.0730712
v -0.1333175 3.850558 -1.6172379
v -0.12804116 3.8210046 -1.6473597
v -0.19837025 2.8130429 -0.87803835
v -0.19257113 2.7900043 -0.91346914
v -0.012721721 1.6842935 -0.28177217
v -0.00788567 1.6670951 -0.32180086
v 0.33852178 0.6942044 0.018315883
v 0.3401405 0.68556464 -0.023875995
v 0.5515616 0.3215747 0.12229963
v 0.54838514 0.32091644 0.078677475
v 0.778836 0.06865989 0.117701516
v 0.76473683 0.07930932 0.07514464
v 1.0080689 -0.027912833 -0.027282204
v 0.97862256 -0.010983239 -0.05720661
v 0.65351236 4.671828 -2.885107
v 0.6240276 4.6850667 -2.9125915
v 0.27162436 4.5269566 -2.500142
v 0.30753362 4.5165105 -2.4801068
v 0.064217135 4.2230806 -2.05941
v 0.024518069 4.2291923 -2.0730712
v -0.08663398 3.8192008 -1.6385412
v -0.12804116 3.8210046 -1.6473597
v -0.15060356 2.7950842 -0.9101444
v -0.19257113 2.7900043 -0.91346914
v -0.00788567 1.6670951 -0.32180086
v 0.03315208 1.6778553 -0.32227507
v 0.3401405 0.68556464 -0.023875995
v 0.37837845 0.7038005 -0.026601695
v 0.54838514 0.32091644 0.078677475
v 0.58267283 0.3457275 0.07467148
v 0.76473683 0.07930932 0.07514464
v 0.79023874 0.11321582 0.07319758
v 0.97862256 -0.010983239 -0.05720661
v 0.9919311 0.027912833 -0.048545603
v 0.90393764 0.10905613 0.0002561509
v 1.0167214 0.07870072 -0.0962235
v 1.0167615 0.12514031 0.0002092428
v 0.90390277 0.06867241 -0.08360148
v 1.0167115 -0.02564806 -0.120040424
v 0.9038941 -0.022068994 -0.1043126
v 1.0167392 -0.10932929 -0.053306878
v 0.90391827 -0.09483795 -0.046281304
v 1.0167837 -0.10932928 0.05372538
v 0.90395695 -0.09483794 0.046793625
v 1.0168115 -0.025648067 0.12045891
v 0.9039811 -0.022069002 0.1048249
v 1.0168016 0.07870071 0.096642
v 0.9039725 0.068672396 0.0841138
v 1.0167615 0.12514031 0.0002092428
v 0.90393764 0.10905613 0.0002561509
v 1.0167115 -0.02564806 -0.120040424
v 1.0167392 -0.10932929 -0.053306878
v 1.0167837 -0.10932928 0.05372538
v 1.0168115 -0.025648067 0.12045891
v 1.0168016 0.07870071 0.096642
v 1.0167214 0.07870072 -0.0962235
v 1.0167615 0.12514031 0.0002092428
v 0.90395695 -0.09483794 0.046793625
v 0.90391827 -0.09483795 -0.046281304
v 0.9038941 -0.022068994 -0.1043126
v 0.9039811 -0.022069002 0.1048249
v 0.9039725 0.068672396 0.0841138
v 0.90390277 0.06867241 -0.08360148
v 0.90393764 0.10905613 0.0002561509
v 0.90356463 0.10905613 -0.4483235
v 1.0163484 0.07870072 -0.54480314
v 1.0163885 0.12514031 -0.4483704
v 0.90352976 0.06867241 -0.53218114
v 1.0163385 -0.02564806 -0.56862
v 0.9035211 -0.022068994 -0.5528922
v 1.0163662 -0.10932929 -0.5018865
v 0.90354526 -0.09483795 -0.49486092
v 1.0164107 -0.10932928 -0.39485425
v 0.90358394 -0.09483794 -0.40178603
v 1.0164385 -0.025648067 -0.3281207
v 0.9036081 -0.022069002 -0.34375474
v 1.0164286 0.07870071 -0.35193762
v 0.9035995 0.068672396 -0.36446583
v 1.0163885 0.12514031 -0.4483704
v 0.90356463 0.10905613 -0.4483235
v 1.0163385 -0.02564806 -0.56862
v 1.0163662 -0.10932929 -0.5018865
v 1.0164107 -0.10932928 -0.39485425
v 1.0164385 -0.025648067 -0.3281207
v 1.0164286 0.07870071 -0.35193762
v 1.0163484 0.07870072 -0.54480314
v 1.0163885 0.12514031 -0.4483704
v 0.90358394 -0.09483794 -0.40178603
v 0.90354526 -0.09483795 -0.49486092
v 0.9035211 -0.022068994 -0.5528922
v 0.9036081 -0.022069002 -0.34375474
v 0.9035995 0.068672396 -0.36446583
v 0.90352976 0.06867241 -0.53218114
v 0.90356463 0.10905613 -0.4483235
vt 0 0
vt 0 0
vt 0 0
vt 0 0
vt 0 0
vt 0 0
vt 0 0
vt 0 0
vt 0 0
vt 0 0
vt 0 0
vt 0 0
vt 0 0
vt 0 0
vt 0 0
vt 0 0
vt 0 0
vt 0 0
vt 0 0
vt 0 0
vt 0 0
vt 0 0
vt 0 0
vt 0 0
vt 0 0
vt 0 0
vt 0 0
vt 0 0
vt 0 0
vt 0 0
vt 0 0
vt 0 0
vt 0 0
vt 0 0
vt 0 0
vt 0 0
vt 0 0
vt 0 0
vt 0 0
vt 0 0
vt 0 0
vt 0 0
vt 0 0
vt 0 0
vt 0 0
vt 0 0
vt 0 0
vt 0 0
vt 0 0
vt 0 0
vt 0 0
vt 0 0
vt 0 0
vt 0 0
vt 0 0
vt 0 0
vt 0 0
vt 0 0
vt 0 0
vt 0 0
vt 0 0
vt 0 0
vt 0 0
vt 0 0
vt 0 0
vt 0 0
vt 0 0
vt 0 0
vt 0 0
vt 0 0
vt 0 0
vt 0 0
vt 0 0
vt 0 0
vt 0 0
vt 0 0
vt 0 0
vt 0 0
vt 0 0
vt 0 0
vt 0 0
vt 0 0
vt 0 0
vt 0 0
vt 0 0
vt 0 0
vt 0 0
vt 0 0
vt 0 0
vt 0 0
vt 0 0
vt 0 0
vt 0 0
vt 0 0
vt 0 0
vt 0 0
vt 0 0
vt 0 0
vt 0 0
vt 0 0
vt 0 0
vt 0 0
vt 0 0
vt 0 0
vt 0 0
vt 0 0
vt 0 0
vt 0 0
vt 0 0
vt 0 0
vt 0 0
vt 0 0
vt 0 0
vt 0 0
vt 0 0
vt 0 0
vt 0 0
vt 0 0
vt 0 0
vt 0 0
vt 0 0
vt 0 0
vt 0 0
vt 0 0
vt 0 0
vt 0 0
vt 0 0
vt 0 0
vt 0 0
vt 0 0
vt 0 0
vt 0 0
vt 0 0
vt 0 0
vt 0 0
vt 0 0
vt 0 0
vt 0 0
vt 0 0
vt 0 0
vt 0 0
vt 0 0
vt 0 0
vt 0 0
vt 0 0
vt 0 0
vt 0 0
vt 0 0
vt 0 0
vt 0 0
vt 0 0
vt 0 0
vt 0 0
vt 0 0
vt 0 0
vt 0 0
vt 0 0
vt 0 0
vt 0 0
vt 0 0
vt 0 0
vt 0 0
vt 0 0
vt 0 0
vt 0 0
vt 0 0
vt 0 0
vt 0 0
vt 1 0.5
vt 0.8569336 1
vt 1 1
vt 0.8569336 0.5
vt 0.71435547 1
vt 0.71435547 0.5
vt 0.57128906 1
vt 0.57128906 0.5
vt 0.4284668 1
vt 0.4284668 0.5
vt 0.28564453 1
vt 0.28564453 0.5
vt 0.14282227 1
vt 0.14282227 0.5
vt 5.9604645E-08 1
vt 5.9604645E-08 0.5
vt 0.48388672 0.19665527
vt 0.35424805 0.03375244
vt 0.14587402 0.03375244
vt 0.016021729 0.19665527
vt 0.062347412 0.3996582
vt 0.43774414 0.3996582
vt 0.25 0.48999023
vt 0.6459961 0.03375244
vt 0.8540039 0.03375244
vt 0.9838867 0.19665527
vt 0.5161133 0.19665527
vt 0.5625 0.3996582
vt 0.9375 0.3996582
vt 0.75 0.48999023
vt 1 0.5
vt 0.8569336 1
vt 1 1
vt 0.8569336 0.5
vt 0.71435547 1
vt 0.71435547 0.5
vt 0.57128906 1
vt 0.57128906 0.5
vt 0.4284668 1
vt 0.4284668 0.5
vt 0.28564453 1
vt 0.28564453 0.5
vt 0.14282227 1
vt 0.14282227 0.5
vt 5.9604645E-08 1
vt 5.9604645E-08 0.5
vt 0.48388672 0.19665527
vt 0.35424805 0.03375244
vt 0.14587402 0.03375244
vt 0.016021729 0.19665527
vt 0.062347412 0.3996582
vt 0.43774414 0.3996582
vt 0.25 0.48999023
vt 0.6459961 0.03375244
vt 0.8540039 0.03375244
vt 0.9838867 0.19665527
vt 0.5161133 0.19665527
vt 0.5625 0.3996582
vt 0.9375 0.3996582
vt 0.75 0.48999023
vn 0.43798828 -0.55078125 0.7104492
vn 0.43798828 -0.55078125 0.7104492
vn 0.58496094 -0.47802734 0.65527344
vn 0.58496094 -0.47802734 0.65527344
vn 0.8066406 -0.28710938 0.51660156
vn 0.8066406 -0.28710938 0.51660156
vn 0.91748047 -0.08465576 0.38867188
vn 0.91748047 -0.08508301 0.38891602
vn 0.95214844 0.07342529 0.29663086
vn 0.95166016 0.07055664 0.2980957
vn 0.95410156 0.1887207 0.23217773
vn 0.95458984 0.1829834 0.23547363
vn 0.93652344 0.3076172 0.16931152
vn 0.93896484 0.296875 0.17480469
vn 0.88623047 0.45263672 0.09741211
vn 0.88134766 0.4638672 0.09197998
vn 0.76708984 0.64160156 0.006340027
vn 0.76464844 0.64404297 0.005088806
vn 0.52783203 0.8442383 -0.092041016
vn 0.52734375 0.84472656 -0.092041016
vn 0.35302734 0.9248047 -0.14099121
vn 0.35302734 0.9248047 -0.14099121
vn 0.11975098 -0.7470703 -0.6538086
vn 0.11975098 -0.7470703 -0.6538086
vn 0.11975098 -0.7470703 -0.6538086
vn 0.11975098 -0.7470703 -0.6538086
vn 0.19824219 -0.63378906 -0.7475586
vn 0.19824219 -0.63378906 -0.7475586
vn 0.27124023 -0.50341797 -0.8203125
vn 0.27124023 -0.50341797 -0.8203125
vn 0.27124023 -0.50341797 -0.8203125
vn 0.27124023 -0.50341797 -0.8203125
vn 0.23474121 -0.37695312 -0.8959961
vn 0.23693848 -0.38476562 -0.89208984
vn 0.19543457 -0.25048828 -0.9482422
vn 0.19543457 -0.25048828 -0.9482422
vn 0.19543457 -0.25048828 -0.9482422
vn 0.19543457 -0.25048828 -0.9482422
vn 0.19543457 -0.25048828 -0.9482422
vn 0.19543457 -0.25048828 -0.9482422
vn 0.19543457 -0.25048828 -0.9482422
vn 0.19543457 -0.25048828 -0.9482422
vn 0.19543457 -0.25048828 -0.9482422
vn 0.19543457 -0.25048828 -0.9482422
vn -0.43798828 0.55078125 -0.7104492
vn -0.43798828 0.55078125 -0.7104492
vn -0.58496094 0.47802734 -0.65527344
vn -0.58496094 0.47802734 -0.65527344
vn -0.8066406 0.28735352 -0.51660156
vn -0.8066406 0.28735352 -0.51660156
vn -0.91748047 0.08526611 -0.38842773
vn -0.91748047 0.08496094 -0.3881836
vn -0.95410156 -0.09588623 -0.28344727
vn -0.95458984 -0.099243164 -0.28149414
vn -0.9550781 -0.18603516 -0.23120117
vn -0.9550781 -0.18603516 -0.23120117
vn -0.94384766 -0.2705078 -0.18933105
vn -0.94091797 -0.28515625 -0.18164062
vn -0.88623047 -0.45288086 -0.097351074
vn -0.8808594 -0.4638672 -0.091918945
vn -0.76660156 -0.64208984 -0.0060768127
vn -0.76416016 -0.64501953 -0.004787445
vn -0.52441406 -0.8466797 0.0927124
vn -0.52441406 -0.8466797 0.09277344
vn -0.34716797 -0.9272461 0.1418457
vn -0.34716797 -0.9272461 0.1418457
vn -0.19396973 0.25073242 0.9482422
vn -0.19396973 0.25073242 0.9482422
vn -0.19396973 0.25073242 0.9482422
vn -0.19396973 0.25073242 0.9482422
vn -0.19396973 0.25073242 0.9482422
vn -0.19396973 0.25073242 0.9482422
vn -0.19396973 0.25073242 0.9482422
vn -0.19396973 0.25073242 0.9482422
vn -0.19396973 0.25073242 0.9482422
vn -0.19396973 0.25073242 0.9482422
vn -0.23413086 0.3857422 0.8925781
vn -0.23168945 0.37695312 0.89697266
vn -0.2668457 0.50439453 0.82128906
vn -0.2668457 0.50439453 0.82128906
vn -0.2668457 0.50439453 0.82128906
vn -0.2668457 0.50439453 0.82128906
vn -0.19604492 0.63427734 0.7480469
vn -0.19604492 0.63427734 0.7480469
vn -0.11975098 0.7470703 0.6538086
vn -0.11975098 0.7470703 0.6538086
vn -0.11975098 0.7470703 0.6538086
vn -0.11975098 0.7470703 0.6538086
vn 0.77978516 -0.2915039 0.5541992
vn 0.77978516 -0.2915039 0.5541992
vn 0.8691406 -0.22009277 0.4428711
vn 0.8691406 -0.22009277 0.4428711
vn 0.93652344 -0.1430664 0.32006836
vn 0.93652344 -0.1430664 0.32006836
vn 0.9707031 -0.05657959 0.23388672
vn 0.97216797 -0.05142212 0.2286377
vn 0.9868164 0.14611816 0.07293701
vn 0.9868164 0.14196777 0.07550049
vn 0.9682617 0.24951172 0.009132385
vn 0.9682617 0.24951172 0.009132385
vn 0.9277344 0.3725586 -0.031173706
vn 0.93115234 0.3635254 -0.028182983
vn 0.8198242 0.5683594 -0.07086182
vn 0.8076172 0.5854492 -0.0713501
vn 0.61328125 0.79003906 0.00042796135
vn 0.58496094 0.81103516 0.014984131
vn 0.43237305 0.89746094 0.08654785
vn 0.43237305 0.89746094 0.08654785
vn 0.047424316 0.91845703 0.39257812
vn 0.047424316 0.91845703 0.39257812
vn -0.020431519 0.8618164 0.50683594
vn -0.020431519 0.8618164 0.50683594
vn -0.08782959 0.7871094 0.61035156
vn -0.08782959 0.7871094 0.61035156
vn -0.11016846 0.6611328 0.7421875
vn -0.109680176 0.6640625 0.7397461
vn -0.12841797 0.515625 0.84716797
vn -0.12841797 0.515625 0.84716797
vn -0.09515381 0.39624023 0.91308594
vn -0.095336914 0.39697266 0.91308594
vn -0.056152344 0.25585938 0.96484375
vn -0.055999756 0.2553711 0.96533203
vn 0.012298584 0.14819336 0.98876953
vn 0.013168335 0.14697266 0.9892578
vn 0.26538086 -0.111328125 0.95751953
vn 0.25805664 -0.10479736 0.9604492
vn 0.43115234 -0.26245117 0.86328125
vn 0.43115234 -0.26245117 0.86328125
vn -0.7792969 0.2915039 -0.5541992
vn -0.7792969 0.2915039 -0.5541992
vn -0.8691406 0.22021484 -0.44311523
vn -0.8691406 0.22021484 -0.44311523
vn -0.93652344 0.14331055 -0.3203125
vn -0.93652344 0.14331055 -0.3203125
vn -0.9707031 0.056640625 -0.23400879
vn -0.97216797 0.051513672 -0.22875977
vn -0.9868164 -0.14196777 -0.07543945
vn -0.9863281 -0.14611816 -0.07293701
vn -0.9682617 -0.24975586 -0.00907135
vn -0.9682617 -0.24975586 -0.00907135
vn -0.9272461 -0.37280273 0.031158447
vn -0.93115234 -0.36376953 0.028213501
vn -0.8066406 -0.5864258 0.0703125
vn -0.81884766 -0.56933594 0.070007324
vn -0.5854492 -0.8105469 -0.012786865
vn -0.6098633 -0.79248047 -0.00073957443
vn -0.4309082 -0.8984375 -0.08300781
vn -0.4309082 -0.8984375 -0.08300781
vn -0.04736328 -0.91845703 -0.39257812
vn -0.04736328 -0.91845703 -0.39257812
vn 0.020492554 -0.8618164 -0.50683594
vn 0.020507812 -0.8618164 -0.50683594
vn 0.08795166 -0.7871094 -0.61035156
vn 0.08795166 -0.7871094 -0.61035156
vn 0.11004639 -0.66064453 -0.7426758
vn 0.10961914 -0.6635742 -0.7397461
vn 0.12805176 -0.5151367 -0.84765625
vn 0.12805176 -0.5151367 -0.84765625
vn 0.09490967 -0.3959961 -0.91308594
vn 0.09515381 -0.39697266 -0.91308594
vn 0.05697632 -0.25610352 -0.96484375
vn 0.05709839 -0.2565918 -0.96484375
vn -0.0026569366 -0.14221191 -0.9897461
vn -0.0018157959 -0.14367676 -0.9897461
vn -0.23632812 0.12841797 -0.9633789
vn -0.2409668 0.13293457 -0.9614258
vn -0.40429688 0.29541016 -0.86572266
vn -0.40429688 0.29541016 -0.86572266
vn -0.14111328 0.9902344 5.8829784E-05
vn -0.14147949 0.6171875 -0.7739258
vn -0.14111328 0.9902344 5.888939E-05
vn -0.14147949 0.6171875 -0.7739258
vn -0.14147949 -0.22033691 -0.96533203
vn -0.14147949 -0.22033691 -0.96533203
vn -0.14135742 -0.89208984 -0.42944336
vn -0.14135742 -0.89208984 -0.42944336
vn -0.14099121 -0.89208984 0.4296875
vn -0.14099121 -0.89208984 0.4296875
vn -0.14074707 -0.22033691 0.96533203
vn -0.14074707 -0.22033691 0.96533203
vn -0.14086914 0.6171875 0.7739258
vn -0.14086914 0.6171875 0.7739258
vn -0.14111328 0.9902344 5.888939E-05
vn -0.14111328 0.9902344 5.8829784E-05
vn 1 0 -0.000415802
vn 1 0 -0.000415802
vn 1 0 -0.000415802
vn 1 0 -0.000415802
vn 1 0 -0.000415802
vn 1 0 -0.000415802
vn 1 0 -0.000415802
vn -1 0 0.000415802
vn -1 0 0.000415802
vn -1 0 0.000415802
vn -1 0 0.000415802
vn -1 0 0.000415802
vn -1 0 0.000415802
vn -1 0 0.000415802
vn -0.14111328 0.9902344 5.865097E-05
vn -0.14147949 0.6171875 -0.7739258
vn -0.14111328 0.9902344 5.8710575E-05
vn -0.14147949 0.6171875 -0.7739258
vn -0.14147949 -0.22033691 -0.96533203
vn -0.14147949 -0.22033691 -0.96533203
vn -0.14135742 -0.89208984 -0.42944336
vn -0.14135742 -0.89208984 -0.42944336
vn -0.14099121 -0.89208984 0.4296875
vn -0.14099121 -0.89208984 0.4296875
vn -0.14074707 -0.22033691 0.96533203
vn -0.14074707 -0.22033691 0.96533203
vn -0.14086914 0.6171875 0.7739258
vn -0.14086914 0.6171875 0.7739258
vn -0.14111328 0.9902344 5.8710575E-05
vn -0.14111328 0.9902344 5.865097E-05
vn 1 0 -0.000415802
vn 1 0 -0.000415802
vn 1 0 -0.000415802
vn 1 0 -0.000415802
vn 1 0 -0.000415802
vn 1 0 -0.000415802
vn 1 0 -0.000415802
vn -1 0 0.000415802
vn -1 0 0.000415802
vn -1 0 0.000415802
vn -1 0 0.000415802
vn -1 0 0.000415802
vn -1 0 0.000415802
vn -1 0 0.000415802
g Cords_0
f 3/3/3 2/2/2 1/1/1
f 4/4/4 3/3/3 1/1/1
f 5/5/5 3/3/3 4/4/4
f 6/6/6 5/5/5 4/4/4
f 7/7/7 5/5/5 6/6/6
f 8/8/8 7/7/7 6/6/6
f 9/9/9 7/7/7 8/8/8
f 10/10/10 9/9/9 8/8/8
f 9/9/9 10/10/10 11/11/11
f 10/10/10 12/12/12 11/11/11
f 13/13/13 11/11/11 12/12/12
f 14/14/14 13/13/13 12/12/12
f 14/14/14 15/15/15 13/13/13
f 15/15/15 16/16/16 13/13/13
f 16/16/16 15/15/15 17/17/17
f 18/18/18 16/16/16 17/17/17
f 19/19/19 18/18/18 17/17/17
f 20/20/20 19/19/19 17/17/17
f 21/21/21 19/19/19 20/20/20
f 22/22/22 21/21/21 20/20/20
f 25/25/25 24/24/24 23/23/23
f 23/23/23 26/26/26 25/25/25
f 23/23/23 27/27/27 26/26/26
f 27/27/27 28/28/28 26/26/26
f 28/28/28 27/27/27 29/29/29
f 29/29/29 30/30/30 28/28/28
f 29/29/29 31/31/31 30/30/30
f 31/31/31 32/32/32 30/30/30
f 31/31/31 33/33/33 32/32/32
f 31/31/31 34/34/34 33/33/33
f 35/35/35 33/33/33 34/34/34
f 35/35/35 34/34/34 36/36/36
f 37/37/37 35/35/35 36/36/36
f 37/37/37 36/36/36 38/38/38
f 39/39/39 37/37/37 38/38/38
f 39/39/39 38/38/38 40/40/40
f 41/41/41 39/39/39 40/40/40
f 41/41/41 40/40/40 42/42/42
f 41/41/41 42/42/42 43/43/43
f 43/43/43 44/44/44 41/41/41
f 47/47/47 46/46/46 45/45/45
f 48/48/48 47/47/47 45/45/45
f 49/49/49 47/47/47 48/48/48
f 50/50/50 49/49/49 48/48/48
f 51/51/51 49/49/49 50/50/50
f 52/52/52 51/51/51 50/50/50
f 53/53/53 51/51/51 52/52/52
f 54/54/54 53/53/53 52/52/52
f 55/55/55 53/53/53 54/54/54
f 55/55/55 54/54/54 56/56/56
f 57/57/57 55/55/55 56/56/56
f 56/56/56 58/58/58 57/57/57
f 59/59/59 57/57/57 58/58/58
f 60/60/60 59/59/59 58/58/58
f 59/59/59 60/60/60 61/61/61
f 60/60/60 62/62/62 61/61/61
f 63/63/63 61/61/61 62/62/62
f 64/64/64 63/63/63 62/62/62
f 65/65/65 63/63/63 64/64/64
f 66/66/66 65/65/65 64/64/64
f 69/69/69 68/68/68 67/67/67
f 67/67/67 70/70/70 69/69/69
f 67/67/67 71/71/71 70/70/70
f 71/71/71 72/72/72 70/70/70
f 71/71/71 73/73/73 72/72/72
f 73/73/73 74/74/74 72/72/72
f 73/73/73 75/75/75 74/74/74
f 75/75/75 76/76/76 74/74/74
f 75/75/75 77/77/77 76/76/76
f 77/77/77 78/78/78 76/76/76
f 77/77/77 79/79/79 78/78/78
f 80/80/80 78/78/78 79/79/79
f 81/81/81 80/80/80 79/79/79
f 81/81/81 79/79/79 82/82/82
f 83/83/83 81/81/81 82/82/82
f 82/82/82 84/84/84 83/83/83
f 85/85/85 83/83/83 84/84/84
f 85/85/85 84/84/84 86/86/86
f 87/87/87 85/85/85 86/86/86
f 86/86/86 88/88/88 87/87/87
f 91/91/91 90/90/90 89/89/89
f 92/92/92 91/91/91 89/89/89
f 91/91/91 92/92/92 93/93/93
f 94/94/94 91/91/91 93/93/93
f 94/94/94 93/93/93 95/95/95
f 95/95/95 96/96/96 94/94/94
f 97/97/97 96/96/96 95/95/95
f 98/98/98 97/97/97 95/95/95
f 97/97/97 98/98/98 99/99/99
f 100/100/100 97/97/97 99/99/99
f 100/100/100 99/99/99 101/101/101
f 101/101/101 102/102/102 100/100/100
f 103/103/103 102/102/102 101/101/101
f 104/104/104 103/103/103 101/101/101
f 105/105/105 103/103/103 104/104/104
f 106/106/106 105/105/105 104/104/104
f 107/107/107 105/105/105 106/106/106
f 108/108/108 107/107/107 106/106/106
f 111/111/111 110/110/110 109/109/109
f 112/112/112 111/111/111 109/109/109
f 113/113/113 111/111/111 112/112/112
f 112/112/112 114/114/114 113/113/113
f 114/114/114 115/115/115 113/113/113
f 114/114/114 116/116/116 115/115/115
f 117/117/117 115/115/115 116/116/116
f 116/116/116 118/118/118 117/117/117
f 117/117/117 118/118/118 119/119/119
f 119/119/119 120/120/120 117/117/117
f 121/121/121 120/120/120 119/119/119
f 122/122/122 121/121/121 119/119/119
f 123/123/123 121/121/121 122/122/122
f 124/124/124 123/123/123 122/122/122
f 125/125/125 123/123/123 124/124/124
f 126/126/126 125/125/125 124/124/124
f 127/127/127 125/125/125 126/126/126
f 128/128/128 127/127/127 126/126/126
f 131/131/131 130/130/130 129/129/129
f 132/132/132 131/131/131 129/129/129
f 133/133/133 131/131/131 132/132/132
f 133/133/133 132/132/132 134/134/134
f 135/135/135 133/133/133 134/134/134
f 134/134/134 136/136/136 135/135/135
f 137/137/137 135/135/135 136/136/136
f 138/138/138 137/137/137 136/136/136
f 139/139/139 137/137/137 138/138/138
f 139/139/139 138/138/138 140/140/140
f 141/141/141 139/139/139 140/140/140
f 140/140/140 142/142/142 141/141/141
f 143/143/143 141/141/141 142/142/142
f 144/144/144 143/143/143 142/142/142
f 145/145/145 143/143/143 144/144/144
f 146/146/146 145/145/145 144/144/144
f 147/147/147 145/145/145 146/146/146
f 148/148/148 147/147/147 146/146/146
f 151/151/151 150/150/150 149/149/149
f 152/152/152 151/151/151 149/149/149
f 151/151/151 152/152/152 153/153/153
f 153/153/153 154/154/154 151/151/151
f 153/153/153 155/155/155 154/154/154
f 155/155/155 156/156/156 154/154/154
f 156/156/156 155/155/155 157/157/157
f 157/157/157 158/158/158 156/156/156
f 159/159/159 158/158/158 157/157/157
f 157/157/157 160/160/160 159/159/159
f 161/161/161 159/159/159 160/160/160
f 162/162/162 161/161/161 160/160/160
f 163/163/163 161/161/161 162/162/162
f 164/164/164 163/163/163 162/162/162
f 165/165/165 163/163/163 164/164/164
f 166/166/166 165/165/165 164/164/164
f 167/167/167 165/165/165 166/166/166
f 168/168/168 167/167/167 166/166/166
g Cords_1
f 171/171/171 170/170/170 169/169/169
f 170/170/170 172/172/172 169/169/169
f 170/170/170 173/173/173 172/172/172
f 173/173/173 174/174/174 172/172/172
f 173/173/173 175/175/175 174/174/174
f 175/175/175 176/176/176 174/174/174
f 175/175/175 177/177/177 176/176/176
f 177/177/177 178/178/178 176/176/176
f 177/177/177 179/179/179 178/178/178
f 179/179/179 180/180/180 178/178/178
f 179/179/179 181/181/181 180/180/180
f 181/181/181 182/182/182 180/180/180
f 181/181/181 183/183/183 182/182/182
f 183/183/183 184/184/184 182/182/182
f 187/187/187 186/186/186 185/185/185
f 185/185/185 188/188/188 187/187/187
f 185/185/185 189/189/189 188/188/188
f 185/185/185 190/190/190 189/189/189
f 190/190/190 191/191/191 189/189/189
f 194/194/194 193/193/193 192/192/192
f 192/192/192 195/195/195 194/194/194
f 195/195/195 196/196/196 194/194/194
f 196/196/196 197/197/197 194/194/194
f 196/196/196 198/198/198 197/197/197
f 201/201/201 200/200/200 199/199/199
f 200/200/200 202/202/202 199/199/199
f 200/200/200 203/203/203 202/202/202
f 203/203/203 204/204/204 202/202/202
f 203/203/203 205/205/205 204/204/204
f 205/205/205 206/206/206 204/204/204
f 205/205/205 207/207/207 206/206/206
f 207/207/207 208/208/208 206/206/206
f 207/207/207 209/209/209 208/208/208
f 209/209/209 210/210/210 208/208/208
f 209/209/209 211/211/211 210/210/210
f 211/211/211 212/212/212 210/210/210
f 211/211/211 213/213/213 212/212/212
f 213/213/213 214/214/214 212/212/212
f 217/217/217 216/216/216 215/215/215
f 215/215/215 218/218/218 217/217/217
f 215/215/215 219/219/219 218/218/218
f 215/215/215 220/220/220 219/219/219
f 220/220/220 221/221/221 219/219/219
f 224/224/224 223/223/223 222/222/222
f 222/222/222 225/225/225 224/224/224
f 225/225/225 226/226/226 224/224/224
f 226/226/226 227/227/227 224/224/224
f 226/226/226 228/228/228 227/227/227
