g Cube.002
v 1.7066298 -0.9660969 -2.282577
v -1.7005215 -0.9660969 -2.282577
v -1.7005215 -0.9660969 -1.2347159
v 1.7066298 -0.9660969 -1.2347159
v -1.7005215 -0.9660969 0.33486414
v 1.7066298 -0.9660969 0.33486414
v -1.7005215 -0.9660969 2.140057
v 1.7066298 -0.9660969 2.140057
v 1.5805988 -0.81565 2.290504
v -1.5500755 -0.81565 2.290504
v 0.45879745 0.8468156 2.290504
v 1.4991322 0.9972625 2.140057
v 1.4445171 0.8468156 2.290504
v 0.4459133 0.9972625 2.140057
v -0.5394001 0.8468156 2.290504
v -0.6206379 0.9972625 2.140057
v -1.5500755 0.8468156 2.290504
v -1.7005215 0.9972625 2.140057
v -1.7005215 0.9972625 0.33486414
v -0.60046387 0.9972625 0.33486414
v -1.7005215 0.9972625 -1.2347159
v 0.48601246 0.9972625 0.33486414
v -0.60026264 0.9972625 -1.2347159
v -1.7005215 0.9972625 -2.282577
v -0.60019684 0.9972625 -2.282577
v 0.486413 0.9972625 -1.2347159
v 0.4865446 0.9972625 -2.282577
v 1.5589075 0.9972625 0.33486414
v 1.7066298 0.8106096 2.140057
v 1.7066298 0.84953976 0.33486414
v 1.5595064 0.9972625 -1.2347159
v 1.559701 0.9972625 -2.282577
v 1.7066298 -0.055094242 -2.282577
v -1.7005215 -0.9660969 -2.282577
v 1.7066298 -0.9660969 -2.282577
v -1.7005215 -0.055094242 -2.282577
v 1.7066298 0.8503331 -2.282577
v 1.559701 0.9972625 -2.282577
v 0.4865446 0.9972625 -2.282577
v -0.60019684 0.9972625 -2.282577
v -1.7005215 0.9972625 -2.282577
v -1.7005215 -0.055094242 -2.282577
v -1.7005215 0.9972625 -2.282577
v -1.7005215 0.9972625 -1.2347159
v -1.7005215 -0.055094242 -1.2347159
v -1.7005215 -0.9660969 -2.282577
v -1.7005215 -0.9660969 -1.2347159
v -1.7005215 0.9972625 0.33486414
v -1.7005215 -0.9660969 0.33486414
v -1.7005215 -0.055094242 0.33486414
v -1.7005215 -0.9660969 2.140057
v -1.7005215 0.9972625 2.140057
v -1.7005215 -0.055094242 2.140057
v -1.5500755 -0.81565 2.290504
v -1.5500755 -0.055094242 2.290504
v -1.5500755 0.8468156 2.290504
v 1.5805988 -0.81565 2.290504
v -0.5394001 0.8468156 2.290504
v 1.6041708 -0.1307466 2.2499886
v 0.45879745 0.8468156 2.290504
v 1.5894384 0.69707155 2.290504
v 1.4445171 0.8468156 2.290504
v 1.7066298 0.84953976 0.33486414
v 1.5589075 0.9972625 0.33486414
v 1.5595064 0.9972625 -1.2347159
v 1.7066298 0.85013866 -1.2347159
v 1.559701 0.9972625 -2.282577
v 1.7066298 0.8503331 -2.282577
v 1.7066298 -0.055094242 -1.2347159
v 1.7066298 -0.055094242 -2.282577
v 1.7066298 -0.9660969 -2.282577
v 1.7066298 -0.9660969 -1.2347159
v 1.7066298 -0.055094242 0.33486414
v 1.7066298 -0.9660969 0.33486414
v 1.7066298 -0.9660969 2.140057
v 1.7078066 -0.055094242 2.0454679
v 1.7066298 0.8106096 2.140057
v 1.6041708 -0.1307466 2.2499886
v 1.5805988 -0.81565 2.290504
v 1.5894384 0.69707155 2.290504
v 1.4991322 0.9972625 2.140057
v 1.4445171 0.8468156 2.290504
v -0.60046387 0.9972625 0.33486414
v -0.57747364 0.70106447 0.3320861
v 0.4846859 0.70106447 0.3320861
v 0.48601246 0.9972625 0.33486414
v 0.4846859 0.70106447 0.3320861
v -0.57747364 0.70106447 0.3320861
v -0.5772724 0.70106447 -1.2347159
v 0.48508644 0.70106447 -1.2347159
v 0.48601246 0.9972625 0.33486414
v 0.4846859 0.70106447 0.3320861
v 0.48508644 0.70106447 -1.2347159
v 0.486413 0.9972625 -1.2347159
v 0.486413 0.9972625 -1.2347159
v 0.48508644 0.70106447 -1.2347159
v -0.5772724 0.70106447 -1.2347159
v -0.60026264 0.9972625 -1.2347159
v -0.60026264 0.9972625 -1.2347159
v -0.5772724 0.70106447 -1.2347159
v -0.57747364 0.70106447 0.3320861
v -0.60046387 0.9972625 0.33486414
vt -0.53194624 -0.03677982
vt -0.53194624 0.7172566
vt -0.30004394 0.7172566
vt -0.30004394 -0.03677982
vt 0.04731986 0.7172566
vt 0.0473198 -0.03677988
vt 0.4468271 0.7172566
vt 0.44682705 -0.03677988
vt 0.48012283 -0.008889079
vt 0.48012283 0.68396163
vt 0.4801229 1.1951358
vt 0.4468271 1.4253716
vt 0.4801229 1.4132844
vt 0.4468271 1.1922829
vt 0.4801229 0.9742235
vt 0.4468271 0.9562454
vt 0.48012283 0.75055134
vt 0.4468271 0.7172566
vt 0.04731986 0.7172566
vt 0.04731992 0.9607094
vt -0.30004394 0.7172566
vt 0.04731992 1.2011573
vt -0.30004394 0.9607539
vt -0.53194624 0.7172566
vt -0.53194624 0.9607693
vt -0.30004394 1.201246
vt -0.53194624 1.2012751
vt 0.04731992 1.4386001
vt 0.4468271 1.4712929
vt 0.04731992 1.4712929
vt -0.30004394 1.4387333
vt -0.53194624 1.4387759
vt 1.2341588 0.8347801
vt 0.48012242 1.0363933
vt 1.2341588 1.0363933
vt 0.48012236 0.8347802
vt 1.2341588 0.634401
vt 1.2016418 0.6018842
vt 0.96414304 0.6018842
vt 0.7236352 0.6018842
vt 0.48012236 0.6018842
vt 0.69854045 -0.23839551
vt 0.69854045 -0.47129261
vt 0.53456044 -0.47129261
vt 0.53456056 -0.23839551
vt 0.6985407 -0.03678149
vt 0.53456056 -0.03678149
vt 0.28893638 -0.47129261
vt 0.28893638 -0.03678149
vt 0.28893638 -0.23839551
vt 0.0064409375 -0.03678137
vt 0.0064409375 -0.47129261
vt 0.0064409375 -0.23839551
vt -0.0406456 -0.07007682
vt -0.0406456 -0.23839551
vt -0.0406456 -0.4379974
vt -0.53056306 -0.07007682
vt -0.19880587 -0.4379974
vt -0.527911 -0.22165293
vt -0.35501307 -0.4379974
vt -0.53194636 -0.40485734
vt -0.5092675 -0.43799728
vt 1.0551903 1.0694416
vt 1.059089 1.0364618
vt 0.7142267 1.0364211
vt 0.7103445 1.069267
vt 0.48400038 1.0363933
vt 0.4801229 1.069196
vt 0.71053284 1.2695961
vt 0.4803111 1.2695682
vt 0.4805013 1.4711745
vt 0.71072185 1.4712026
vt 1.0553792 1.2696385
vt 1.0555682 1.4712445
vt 1.4521799 1.4712929
vt 1.4311769 1.2696862
vt 1.4518104 1.078105
vt 1.4788837 1.2862314
vt 1.4885545 1.4377565
vt 1.4880054 1.1030065
vt 1.4572899 1.0363933
vt 1.4918289 1.069585
vt 0.48012236 0.17007458
vt 0.48520994 0.23562786
vt 0.720277 0.23562786
vt 0.72057027 0.17007458
vt 0.8268715 0.60183924
vt 0.8269025 0.36677232
vt 0.4801528 0.36677232
vt 0.48012283 0.6018837
vt 0.48012283 0.30122203
vt 0.4807651 0.36677358
vt 0.72589195 0.36677358
vt 0.7256844 0.30122203
vt 0.7256844 0.30122203
vt 0.72589195 0.36677358
vt 0.8921401 0.36677358
vt 0.8957376 0.30122203
vt 0.48066473 0.2356281
vt 0.48012236 0.30122203
vt 0.8243639 0.30122203
vt 0.8255162 0.2356281
vn -0 -1 0
vn -0 -1 0
vn -0 -1 0
vn -0 -1 0
vn -0 -1 0
vn -0 -1 0
vn -0 -0.957636 0.28798154
vn -0 -0.9529634 0.30308557
vn -0 -0.70710665 0.7071068
vn -0 -0.70710665 0.7071068
vn -0 0.7071067 0.7071068
vn 0.33630678 0.8625809 0.3779575
vn 0.16728087 0.39696008 0.90246314
vn -0 0.9238795 0.38268346
vn -0 0.70710665 0.7071069
vn -0 0.9238795 0.3826835
vn -0 0.7071066 0.7071069
vn -0 0.957636 0.2879815
vn -0 1 0
vn -0 1 0
vn -0 1 0
vn -0 1 0
vn -0 1 0
vn -0 1 0
vn -0 1 0
vn -0 1 0
vn -0 1 0
vn 0.3789394 0.9254061 0.005336769
vn 0.8596942 0.37762585 0.34398326
vn 0.91993415 0.39203772 0.005252448
vn 0.38270462 0.92387074 0.00010853294
vn 0.3827229 0.9238631 7.1044546E-05
vn -0 0 -1
vn -0 0 -1
vn -0 0 -1
vn -0 0 -1
vn -0 0 -1
vn -0 0 -1
vn -0 0 -1
vn -0 0 -1
vn -0 0 -1
vn -1 0 0
vn -1 0 0
vn -1 0 0
vn -1 0 0
vn -1 0 0
vn -1 0 0
vn -1 0 0
vn -1 0 0
vn -1 0 0
vn -0.95763665 0 0.28797933
vn -0.95763654 0 0.28797975
vn -0.9238801 0 0.38268194
vn -0.44193166 0.012618373 0.89695996
vn -0.37998694 0.0015070053 0.92499065
vn -0.44249985 -0.009758657 0.89671546
vn 0.0067797527 0.027907329 0.9995876
vn 0.005172694 -0.021590358 0.99975353
vn 0.0059861727 0.003409472 0.9999763
vn 0.005172694 -0.021590358 0.99975353
vn 0.4801122 0.12750386 0.86789113
vn 0.16728087 0.39696008 0.90246314
vn 0.91993415 0.39203772 0.005252448
vn 0.3789394 0.9254061 0.005336769
vn 0.38270462 0.92387074 0.00010853294
vn 0.9238714 0.382703 0.00010853729
vn 0.3827229 0.9238631 7.1044546E-05
vn 0.92386395 0.38272113 7.104576E-05
vn 1 0 0
vn 1 0 0
vn 1 0 0
vn 1 0 0
vn 1 0 -0.00016547521
vn 1 -0.00033162284 -0.0001673638
vn 0.973927 0.013277231 0.22647253
vn 0.96697 -0.003545189 0.2548655
vn 0.8596942 0.37762585 0.34398326
vn 0.8484384 0.00629446 0.52925664
vn 0.8422552 0.032492634 0.53809893
vn 0.4801122 0.12750386 0.86789113
vn 0.33630678 0.8625809 0.3779575
vn 0.16728087 0.39696008 0.90246314
vn -0 0.009378627 -0.999956
vn -0 0.009378627 -0.999956
vn -0 0.009378627 -0.999956
vn -0 0.009378627 -0.999956
vn -0 1 0
vn -0 1 0
vn -0 1 0
vn -0 1 0
vn -0.99999 0.0044797827 -0.00025541472
vn -0.99999 0.0044797827 -0.00025541472
vn -0.99999 0.0044797827 -0.00025541472
vn -0.99999 0.0044797827 -0.00025541472
vn -0 0 1
vn -0 0 1
vn -0 0 1
vn -0 0 1
vn 0.99700123 0.07738435 0.00012793097
vn 0.99700123 0.07738435 0.00012793097
vn 0.99700123 0.07738435 0.00012793097
vn 0.99700123 0.07738435 0.00012793097
g Cube.002_0
f 3/3/3 2/2/2 1/1/1
f 4/4/4 3/3/3 1/1/1
f 5/5/5 3/3/3 4/4/4
f 6/6/6 5/5/5 4/4/4
f 7/7/7 5/5/5 6/6/6
f 8/8/8 7/7/7 6/6/6
f 7/7/7 8/8/8 9/9/9
f 10/10/10 7/7/7 9/9/9
f 13/13/13 12/12/12 11/11/11
f 12/12/12 14/14/14 11/11/11
f 11/11/11 14/14/14 15/15/15
f 14/14/14 16/16/16 15/15/15
f 15/15/15 16/16/16 17/17/17
f 16/16/16 18/18/18 17/17/17
f 19/19/19 18/18/18 16/16/16
f 20/20/20 19/19/19 16/16/16
f 20/20/20 16/16/16 14/14/14
f 21/21/21 19/19/19 20/20/20
f 22/22/22 20/20/20 14/14/14
f 22/22/22 14/14/14 12/12/12
f 23/23/23 21/21/21 20/20/20
f 24/24/24 21/21/21 23/23/23
f 25/25/25 24/24/24 23/23/23
f 25/25/25 23/23/23 26/26/26
f 27/27/27 25/25/25 26/26/26
f 28/28/28 22/22/22 12/12/12
f 26/26/26 22/22/22 28/28/28
f 12/12/12 29/29/29 28/28/28
f 29/29/29 30/30/30 28/28/28
f 31/31/31 26/26/26 28/28/28
f 27/27/27 26/26/26 31/31/31
f 32/32/32 27/27/27 31/31/31
f 35/35/35 34/34/34 33/33/33
f 34/34/34 36/36/36 33/33/33
f 37/37/37 33/33/33 36/36/36
f 36/36/36 38/38/38 37/37/37
f 36/36/36 39/39/39 38/38/38
f 36/36/36 40/40/40 39/39/39
f 36/36/36 41/41/41 40/40/40
f 44/44/44 43/43/43 42/42/42
f 45/45/45 44/44/44 42/42/42
f 45/45/45 42/42/42 46/46/46
f 47/47/47 45/45/45 46/46/46
f 48/48/48 44/44/44 45/45/45
f 47/47/47 49/49/49 45/45/45
f 50/50/50 48/48/48 45/45/45
f 49/49/49 50/50/50 45/45/45
f 49/49/49 51/51/51 50/50/50
f 52/52/52 48/48/48 50/50/50
f 51/51/51 53/53/53 50/50/50
f 53/53/53 52/52/52 50/50/50
f 53/53/53 51/51/51 54/54/54
f 52/52/52 53/53/53 55/55/55
f 55/55/55 53/53/53 54/54/54
f 56/56/56 52/52/52 55/55/55
f 55/55/55 54/54/54 57/57/57
f 58/58/58 56/56/56 55/55/55
f 59/59/59 55/55/55 57/57/57
f 60/60/60 58/58/58 55/55/55
f 55/55/55 59/59/59 61/61/61
f 62/62/62 60/60/60 55/55/55
f 61/61/61 62/62/62 55/55/55
f 65/65/65 64/64/64 63/63/63
f 66/66/66 65/65/65 63/63/63
f 67/67/67 65/65/65 66/66/66
f 68/68/68 67/67/67 66/66/66
f 68/68/68 66/66/66 69/69/69
f 70/70/70 68/68/68 69/69/69
f 70/70/70 69/69/69 71/71/71
f 69/69/69 72/72/72 71/71/71
f 69/69/69 66/66/66 73/73/73
f 72/72/72 69/69/69 73/73/73
f 66/66/66 63/63/63 73/73/73
f 74/74/74 72/72/72 73/73/73
f 74/74/74 73/73/73 75/75/75
f 73/73/73 63/63/63 76/76/76
f 73/73/73 76/76/76 75/75/75
f 63/63/63 77/77/77 76/76/76
f 76/76/76 78/78/78 75/75/75
f 78/78/78 76/76/76 77/77/77
f 78/78/78 79/79/79 75/75/75
f 80/80/80 78/78/78 77/77/77
f 77/77/77 81/81/81 80/80/80
f 81/81/81 82/82/82 80/80/80
f 85/85/85 84/84/84 83/83/83
f 86/86/86 85/85/85 83/83/83
f 89/89/89 88/88/88 87/87/87
f 90/90/90 89/89/89 87/87/87
f 93/93/93 92/92/92 91/91/91
f 94/94/94 93/93/93 91/91/91
f 97/97/97 96/96/96 95/95/95
f 98/98/98 97/97/97 95/95/95
f 101/101/101 100/100/100 99/99/99
f 102/102/102 101/101/101 99/99/99
