g Cube.004
v -0.05275381 -0.026866168 -0.64878654
v -0.05275381 0.5777217 -0.64878654
v -0.052753817 5.559847 3.5611017
v -0.052753817 4.6875877 3.5611017
v -0.05275381 0.5777217 -0.64878654
v 0.036286708 0.5777217 -0.64878654
v 0.0362867 5.559847 3.5611017
v -0.052753817 5.559847 3.5611017
v 0.036286708 0.5777217 -0.64878654
v 0.036286708 -0.026866168 -0.64878654
v 0.0362867 4.6875877 3.5611017
v 0.0362867 5.559847 3.5611017
v 0.036286708 -0.026866168 -0.64878654
v -0.05275381 -0.026866168 -0.64878654
v -0.052753817 4.6875877 3.5611017
v 0.0362867 4.6875877 3.5611017
v -0.05275381 0.5777217 -0.64878654
v -0.05275381 -0.026866168 -0.64878654
v 0.036286708 -0.026866168 -0.64878654
v 0.036286708 0.5777217 -0.64878654
v -0.052753817 4.6875877 3.5611017
v -0.052753817 4.9552593 3.8249898
v 0.0362867 4.9552593 3.8249898
v 0.0362867 4.6875877 3.5611017
v 0.0362867 5.559847 3.8249898
v 0.0362867 4.9552593 3.8249898
v -0.052753817 4.9552593 3.8249898
v -0.052753817 5.559847 3.8249898
v 0.0362867 5.559847 3.5611017
v 0.0362867 5.559847 3.8249898
v -0.052753817 5.559847 3.8249898
v -0.052753817 5.559847 3.5611017
v 0.0362867 4.6875877 3.5611017
v 0.0362867 4.9552593 3.8249898
v 0.0362867 5.559847 3.8249898
v 0.0362867 5.559847 3.5611017
v -0.052753817 5.559847 3.5611017
v -0.052753817 5.559847 3.8249898
v -0.052753817 4.9552593 3.8249898
v -0.052753817 4.6875877 3.5611017
v -1.8334006 -0.026866168 -0.64878654
v -1.8334006 0.5777217 -0.64878654
v -1.8334006 5.559847 3.5611017
v -1.8334006 4.6875877 3.5611017
v -1.8334006 4.9552593 3.8249898
v -1.8334006 5.559847 3.8249898
v -1.8334006 0.5777217 -0.64878654
v -1.7443601 0.5777217 -0.64878654
v -1.7443601 5.559847 3.5611017
v -1.8334006 5.559847 3.5611017
v -1.7443601 0.5777217 -0.64878654
v -1.7443601 -0.026866168 -0.64878654
v -1.7443601 4.6875877 3.5611017
v -1.7443601 5.559847 3.5611017
v -1.7443601 5.559847 3.8249898
v -1.7443601 4.9552593 3.8249898
v -1.7443601 -0.026866168 -0.64878654
v -1.8334006 -0.026866168 -0.64878654
v -1.8334006 4.6875877 3.5611017
v -1.7443601 4.6875877 3.5611017
v -1.8334006 0.5777217 -0.64878654
v -1.8334006 -0.026866168 -0.64878654
v -1.7443601 -0.026866168 -0.64878654
v -1.7443601 0.5777217 -0.64878654
v -1.8334006 4.6875877 3.5611017
v -1.8334006 4.9552593 3.8249898
v -1.7443601 4.9552593 3.8249898
v -1.7443601 4.6875877 3.5611017
v -1.7443601 5.559847 3.8249898
v -1.7443601 4.9552593 3.8249898
v -1.8334006 4.9552593 3.8249898
v -1.8334006 5.559847 3.8249898
v -1.7443601 5.559847 3.5611017
v -1.7443601 5.559847 3.8249898
v -1.8334006 5.559847 3.8249898
v -1.8334006 5.559847 3.5611017
vt 0.375 0
vt 0.375 0.25
vt 0.625 0.25
vt 0.625 0
vt 0.375 0.25
vt 0.375 0.5
vt 0.625 0.5
vt 0.625 0.25
vt 0.375 0.5
vt 0.375 0.75
vt 0.625 0.75
vt 0.625 0.5
vt 0.375 0.75
vt 0.375 1
vt 0.625 1
vt 0.625 0.75
vt 0.125 0.5
vt 0.125 0.75
vt 0.375 0.75
vt 0.375 0.5
vt 0.625 1
vt 0.625 1
vt 0.625 0.75
vt 0.625 0.75
vt 0.625 0.5
vt 0.625 0.75
vt 0.875 0.75
vt 0.875 0.5
vt 0.625 0.5
vt 0.625 0.5
vt 0.625 0.25
vt 0.625 0.25
vt 0.625 0.75
vt 0.625 0.75
vt 0.625 0.5
vt 0.625 0.5
vt 0.625 0.25
vt 0.625 0.25
vt 0.625 0
vt 0.625 0
vt 0.375 0
vt 0.375 0.25
vt 0.625 0.25
vt 0.625 0
vt 0.625 0
vt 0.625 0.25
vt 0.375 0.25
vt 0.375 0.5
vt 0.625 0.5
vt 0.625 0.25
vt 0.375 0.5
vt 0.375 0.75
vt 0.625 0.75
vt 0.625 0.5
vt 0.625 0.5
vt 0.625 0.75
vt 0.375 0.75
vt 0.375 1
vt 0.625 1
vt 0.625 0.75
vt 0.125 0.5
vt 0.125 0.75
vt 0.375 0.75
vt 0.375 0.5
vt 0.625 1
vt 0.625 1
vt 0.625 0.75
vt 0.625 0.75
vt 0.625 0.5
vt 0.625 0.75
vt 0.875 0.75
vt 0.875 0.5
vt 0.625 0.5
vt 0.625 0.5
vt 0.625 0.25
vt 0.625 0.25
vn -1 0 0
vn -1 0 0
vn -1 0 0
vn -1 0 0
vn -0 0.6454278 -0.7638213
vn -0 0.6454278 -0.7638213
vn -0 0.6454278 -0.7638213
vn -0 0.6454278 -0.7638213
vn 1 0 0
vn 1 0 0
vn 1 0 0
vn 1 0 0
vn -0 -0.6660646 0.74589413
vn -0 -0.6660646 0.74589413
vn -0 -0.6660646 0.74589413
vn -0 -0.6660646 0.74589413
vn -0 0 -1
vn -0 0 -1
vn -0 0 -1
vn -0 0 -1
vn -0 -0.7020563 0.7121215
vn -0 -0.7020563 0.7121215
vn -0 -0.7020563 0.7121215
vn -0 -0.7020563 0.7121215
vn -0 0 1
vn -0 0 1
vn -0 0 1
vn -0 0 1
vn -0 1 0
vn -0 1 0
vn -0 1 0
vn -0 1 0
vn 1 0 0
vn 1 0 0
vn 1 0 0
vn 1 0 0
vn -1 0 0
vn -1 0 0
vn -1 0 0
vn -1 0 0
vn -1 0 0
vn -1 0 0
vn -1 0 0
vn -1 0 0
vn -1 0 0
vn -1 0 0
vn -0 0.64542794 -0.7638212
vn -0 0.64542794 -0.7638212
vn -0 0.64542794 -0.7638212
vn -0 0.64542794 -0.7638212
vn 1 0 0
vn 1 0 0
vn 1 0 0
vn 1 0 0
vn 1 0 0
vn 1 0 0
vn -0 -0.66606474 0.745894
vn -0 -0.66606474 0.745894
vn -0 -0.66606474 0.745894
vn -0 -0.66606474 0.745894
vn -0 0 -1
vn -0 0 -1
vn -0 0 -1
vn -0 0 -1
vn -0 -0.702056 0.7121217
vn -0 -0.702056 0.7121217
vn -0 -0.702056 0.7121217
vn -0 -0.702056 0.7121217
vn -0 0 1
vn -0 0 1
vn -0 0 1
vn -0 0 1
vn -0 1 0
vn -0 1 0
vn -0 1 0
vn -0 1 0
g Cube.004_0
f 3/3/3 2/2/2 1/1/1
f 4/4/4 3/3/3 1/1/1
f 7/7/7 6/6/6 5/5/5
f 8/8/8 7/7/7 5/5/5
f 11/11/11 10/10/10 9/9/9
f 12/12/12 11/11/11 9/9/9
f 15/15/15 14/14/14 13/13/13
f 16/16/16 15/15/15 13/13/13
f 19/19/19 18/18/18 17/17/17
f 20/20/20 19/19/19 17/17/17
f 23/23/23 22/22/22 21/21/21
f 24/24/24 23/23/23 21/21/21
f 27/27/27 26/26/26 25/25/25
f 28/28/28 27/27/27 25/25/25
f 31/31/31 30/30/30 29/29/29
f 32/32/32 31/31/31 29/29/29
f 35/35/35 34/34/34 33/33/33
f 36/36/36 35/35/35 33/33/33
f 39/39/39 38/38/38 37/37/37
f 40/40/40 39/39/39 37/37/37
f 43/43/43 42/42/42 41/41/41
f 44/44/44 43/43/43 41/41/41
f 44/44/44 45/45/45 43/43/43
f 45/45/45 46/46/46 43/43/43
f 49/49/49 48/48/48 47/47/47
f 50/50/50 49/49/49 47/47/47
f 53/53/53 52/52/52 51/51/51
f 54/54/54 53/53/53 51/51/51
f 54/54/54 55/55/55 53/53/53
f 55/55/55 56/56/56 53/53/53
f 59/59/59 58/58/58 57/57/57
f 60/60/60 59/59/59 57/57/57
f 63/63/63 62/62/62 61/61/61
f 64/64/64 63/63/63 61/61/61
f 67/67/67 66/66/66 65/65/65
f 68/68/68 67/67/67 65/65/65
f 71/71/71 70/70/70 69/69/69
f 72/72/72 71/71/71 69/69/69
f 75/75/75 74/74/74 73/73/73
f 76/76/76 75/75/75 73/73/73
