g Cube.005
v 0.09892013 -0.2887164 3.3450265
v -0.07559181 -0.33652365 3.0209894
v -0.07551748 -0.29192245 3.3753688
v 0.098845884 -0.33331773 2.9906461
v 0.09814967 -0.33356935 2.6809976
v -0.076288015 -0.33677527 2.71134
v 0.09757084 -0.33377844 2.423577
v -0.07686682 -0.3369844 2.45392
v 0.088600755 -0.33701953 -1.5658532
v -0.08583696 -0.3402255 -1.5355105
v 0.08522549 -0.3382392 -3.0670106
v -0.08921215 -0.3414451 -3.0366678
v -0.09074205 -0.29742342 -3.3957086
v 0.08369565 -0.2942174 -3.4260514
v 0.11119817 -0.29371208 -3.4308355
v 0.112728 -0.33773372 -3.0717947
v 0.11517516 -0.3353774 -1.7849541
v -0.099392235 0.22924697 -3.4234083
v -0.09074205 -0.29742342 -3.3957086
v 0.08369565 -0.2942174 -3.4260514
v 0.07504542 0.23245299 -3.453751
v 0.10254803 0.23295838 -3.4585352
v 0.11119817 -0.29371208 -3.4308355
v 0.09026995 0.23795396 3.3173268
v 0.09892013 -0.2887164 3.3450265
v -0.07551748 -0.29192245 3.3753688
v -0.08416772 0.23474795 3.3476694
v -0.08416772 0.23474795 3.3476694
v 0.08874013 0.281976 2.958285
v 0.09026995 0.23795396 3.3173268
v -0.085697584 0.27877003 2.9886281
v -0.08639323 0.27851868 2.6792338
v 0.088044465 0.28172457 2.6488917
v -0.08697155 0.2783097 2.4220247
v 0.08746616 0.28151563 2.3916814
v -0.09593624 0.27507052 -1.565
v 0.07850151 0.27827647 -1.5953431
v -0.09931795 0.27384856 -3.0690286
v 0.07511972 0.27705455 -3.0993714
v 0.10507585 0.2799186 -1.8144441
v 0.10262226 0.27756003 -3.1041553
v 0.07504542 0.23245299 -3.453751
v -0.099392235 0.22924697 -3.4234083
v 0.10254803 0.23295838 -3.4585352
v 0.088866524 0.23744684 2.6931558
v 0.07850151 0.27827647 -1.5953431
v 0.079232335 0.23396578 -1.5916444
v 0.08746616 0.28151563 2.3916814
v 0.09003145 0.20553863 2.978187
v 0.088044465 0.28172457 2.6488917
v 0.09026995 0.23795396 3.3173268
v 0.08874013 0.281976 2.958285
v 0.09892013 -0.2887164 3.3450265
v 0.09771477 -0.26226342 3.002791
v 0.098845884 -0.33331773 2.9906461
v 0.09814967 -0.33356935 2.6809976
v 0.09751674 -0.2892235 2.7208555
v 0.09757084 -0.33377844 2.423577
v 0.08788252 -0.2927046 -1.5639443
v 0.088600755 -0.33701953 -1.5658532
v -0.099392235 0.22924697 -3.4234083
v -0.09931795 0.27384856 -3.0690286
v -0.09593624 0.27507052 -1.565
v -0.09520534 0.23075974 -1.5613017
v -0.09074205 -0.29742342 -3.3957086
v -0.08697155 0.2783097 2.4220247
v -0.08655518 -0.29591057 -1.5336016
v -0.08921215 -0.3414451 -3.0366678
v -0.08583696 -0.3402255 -1.5355105
v -0.08557114 0.23424086 2.7234993
v -0.08639323 0.27851868 2.6792338
v -0.07692095 -0.2924295 2.7511988
v -0.07686682 -0.3369844 2.45392
v -0.084934056 0.23447102 3.0068402
v -0.085697584 0.27877003 2.9886281
v -0.08416772 0.23474795 3.3476694
v -0.07628389 -0.29219925 3.03454
v -0.076288015 -0.33677527 2.71134
v -0.07551748 -0.29192245 3.3753688
v -0.07559181 -0.33652365 3.0209894
v 0.08788252 -0.2927046 -1.5639443
v 0.11517516 -0.3353774 -1.7849541
v 0.088600755 -0.33701953 -1.5658532
v 0.114456914 -0.2910625 -1.7830453
v 0.079232335 0.23396578 -1.5916444
v 0.10580673 0.23560792 -1.810745
v 0.07850151 0.27827647 -1.5953431
v 0.10507585 0.2799186 -1.8144441
v 0.10580673 0.23560792 -1.810745
v 0.10507585 0.2799186 -1.8144441
v 0.10262226 0.27756003 -3.1041553
v 0.10254803 0.23295838 -3.4585352
v 0.114456914 -0.2910625 -1.7830453
v 0.11119817 -0.29371208 -3.4308355
v 0.11517516 -0.3353774 -1.7849541
v 0.112728 -0.33773372 -3.0717947
v 0.09751674 -0.2892235 2.7208555
v 0.07404928 -0.2846865 -1.5071094
v 0.08788252 -0.2927046 -1.5639443
v 0.083456695 -0.2812875 2.676816
v 0.09771477 -0.26226342 3.002791
v 0.083634816 -0.25433463 2.9498994
v 0.09003145 0.20553863 2.978187
v 0.083634816 -0.25433463 2.9498994
v 0.09771477 -0.26226342 3.002791
v 0.07622177 0.19701257 2.9261615
v 0.088866524 0.23744684 2.6931558
v 0.075076774 0.22892788 2.6499817
v 0.08788252 -0.2927046 -1.5639443
v 0.07404928 -0.2846865 -1.5071094
v 0.06566937 0.22552875 -1.5339434
v 0.079232335 0.23396578 -1.5916444
v 0.079232335 0.23396578 -1.5916444
v 0.06566937 0.22552875 -1.5339434
v 0.075076774 0.22892788 2.6499817
v 0.088866524 0.23744684 2.6931558
v 0.075076774 0.22892788 2.6499817
v 0.083634816 -0.25433463 2.9498994
v 0.07622177 0.19701257 2.9261615
v 0.083456695 -0.2812875 2.676816
v 0.06566937 0.22552875 -1.5339434
v 0.07404928 -0.2846865 -1.5071094
v 0.12662412 -0.27783394 -2.495863
v 0.10152365 -0.28090096 -2.588728
v 0.10152365 -0.28723454 -2.2454376
v 0.12662412 -0.27346587 -2.259098
v 0.12662412 -0.27783394 -2.495863
v 0.10152365 -0.28723454 -2.2454376
v 0.10152365 -0.25456953 -2.6881237
v 0.10152365 -0.28090096 -2.588728
v 0.12662412 -0.27783394 -2.495863
v 0.12662412 -0.25065494 -2.587265
v 0.10152365 -0.2141695 -2.4143353
v 0.10152365 -0.25456953 -2.6881237
v 0.12662412 -0.25065494 -2.587265
v 0.12662412 -0.22744131 -2.3793736
v 0.10152365 -0.24782729 -2.1129131
v 0.10152365 -0.2141695 -2.4143353
v 0.12662412 -0.22744131 -2.3793736
v 0.12662412 -0.25530505 -2.1905422
v 0.12662412 -0.25065494 -2.587265
v 0.12662412 -0.27783394 -2.495863
v 0.12662412 -0.27346587 -2.259098
v 0.12662412 -0.25530505 -2.1905422
v 0.12662412 -0.22744131 -2.3793736
v 0.10152365 -0.28723454 -2.2454376
v 0.10152365 -0.24782729 -2.1129131
v 0.12662412 -0.25530505 -2.1905422
v 0.12662412 -0.27346587 -2.259098
v 0.10152365 -0.24782729 -2.1129131
v 0.10152365 -0.28723454 -2.2454376
v 0.10152365 -0.28090096 -2.588728
v 0.10152365 -0.25456953 -2.6881237
v 0.10152365 -0.2141695 -2.4143353
vt 0.68066406 0.08703613
vt 0.7578125 0.12670898
vt 0.7583008 0.08331299
vt 0.6796875 0.1303711
vt 0.6796875 0.16821289
vt 0.7578125 0.16455078
vt 0.6796875 0.1998291
vt 0.7578125 0.19616699
vt 0.6796875 0.68847656
vt 0.7578125 0.6845703
vt 0.6796875 0.8720703
vt 0.7578125 0.86816406
vt 0.7583008 0.91259766
vt 0.68066406 0.9160156
vt 0.66845703 0.9165039
vt 0.66748047 0.8725586
vt 0.66796875 0.71533203
vt 0.8847656 0.0067596436
vt 0.8847656 0.0713501
vt 0.9638672 0.07110596
vt 0.9638672 0.0065231323
vt 0.9760742 0.0064849854
vt 0.9760742 0.07104492
vt 0.88378906 0.08428955
vt 0.88378906 0.14892578
vt 0.96240234 0.14916992
vt 0.96240234 0.08453369
vt 0.8666992 0.9165039
vt 0.7885742 0.8691406
vt 0.7890625 0.91308594
vt 0.86621094 0.8725586
vt 0.86621094 0.83496094
vt 0.7885742 0.8310547
vt 0.86621094 0.80322266
vt 0.7885742 0.7998047
vt 0.86621094 0.31518555
vt 0.7885742 0.31152344
vt 0.86621094 0.13098145
vt 0.7885742 0.12731934
vt 0.7763672 0.28466797
vt 0.7763672 0.12683105
vt 0.7890625 0.08392334
vt 0.8666992 0.08758545
vt 0.77685547 0.08331299
vt 0.047729492 0.16308594
vt 0.02809143 0.6879883
vt 0.047821045 0.6875
vt 0.027999878 0.19995117
vt 0.062042236 0.12817383
vt 0.027999878 0.16845703
vt 0.047729492 0.08666992
vt 0.027999878 0.13061523
vt 0.2824707 0.08331299
vt 0.2705078 0.12524414
vt 0.30200195 0.12670898
vt 0.30200195 0.16455078
vt 0.2824707 0.15966797
vt 0.30200195 0.19616699
vt 0.2824707 0.68408203
vt 0.3022461 0.6845703
vt 0.37670898 0.08325195
vt 0.35717773 0.12658691
vt 0.35717773 0.31079102
vt 0.37670898 0.3112793
vt 0.6113281 0.08660889
vt 0.35717773 0.7988281
vt 0.6113281 0.31469727
vt 0.63134766 0.13049316
vt 0.63134766 0.31445312
vt 0.37670898 0.8359375
vt 0.35717773 0.8305664
vt 0.6113281 0.83935547
vt 0.63134766 0.8027344
vt 0.37670898 0.87060547
vt 0.35717773 0.86816406
vt 0.37670898 0.91259766
vt 0.6113281 0.87402344
vt 0.63134766 0.83447266
vt 0.6113281 0.91552734
vt 0.63134766 0.8720703
vt 0.2824707 0.68408203
vt 0.30151367 0.7114258
vt 0.3022461 0.6845703
vt 0.28173828 0.7114258
vt 0.047821045 0.6875
vt 0.047210693 0.71435547
vt 0.02809143 0.6879883
vt 0.02746582 0.71484375
vt 0.047210693 0.71435547
vt 0.02746582 0.71484375
vt 0.02809143 0.8730469
vt 0.047821045 0.9165039
vt 0.28173828 0.7114258
vt 0.2824707 0.91308594
vt 0.30151367 0.7114258
vt 0.3022461 0.8691406
vt 0.9921875 0.0904541
vt 0.98583984 0.60839844
vt 0.9921875 0.6152344
vt 0.98583984 0.09588623
vt 0.9921875 0.055908203
vt 0.98583984 0.06237793
vt 0.062042236 0.12817383
vt 0.2668457 0.1315918
vt 0.2705078 0.12524414
vt 0.06573486 0.13452148
vt 0.047729492 0.16308594
vt 0.05142212 0.16833496
vt 0.2824707 0.68408203
vt 0.2788086 0.6772461
vt 0.051513672 0.68066406
vt 0.047821045 0.6875
vt 0.99316406 0.57714844
vt 0.9995117 0.5698242
vt 0.9995117 0.057739258
vt 0.99316406 0.052459717
vt 0.054748535 0.066101074
vt 0.8852539 0.00039577484
vt 0.10992432 0.0055274963
vt 0.9316406 0.060302734
vt 0.05505371 0.9838867
vt 0.9316406 0.97802734
vt 0.96533203 0.20837402
vt 0.95458984 0.21972656
vt 0.95410156 0.17773438
vt 0.96533203 0.17944336
vt 0.96533203 0.20837402
vt 0.95410156 0.17773438
vt 0.9243164 0.16174316
vt 0.9370117 0.17382812
vt 0.93652344 0.18518066
vt 0.92333984 0.17407227
vt 0.9399414 0.19616699
vt 0.9404297 0.16271973
vt 0.95166016 0.17504883
vt 0.95166016 0.20043945
vt 0.9404297 0.23303223
vt 0.9399414 0.19616699
vt 0.95166016 0.20043945
vt 0.95166016 0.22363281
vt 0.92333984 0.17407227
vt 0.93652344 0.18518066
vt 0.9370117 0.2142334
vt 0.9291992 0.22265625
vt 0.91503906 0.19958496
vt 0.95410156 0.17773438
vt 0.95410156 0.16149902
vt 0.96533203 0.17102051
vt 0.96533203 0.17944336
vt 0.8911133 0.16271973
vt 0.91015625 0.17883301
vt 0.91015625 0.2208252
vt 0.8989258 0.23303223
vt 0.87890625 0.19958496
vn 0.039916992 -0.99121094 0.12475586
vn 0.030426025 -0.9970703 0.06958008
vn 0.039916992 -0.99121094 0.12475586
vn 0.028121948 -0.9980469 0.05621338
vn 0.018508911 -1 0.00077056885
vn 0.018508911 -1 0.00077056885
vn 0.018508911 -1 0.00077056885
vn 0.018508911 -1 0.00077056885
vn 0.019500732 -1 0.0007863045
vn 0.018508911 -1 0.00077056885
vn 0.015052795 -0.9980469 -0.060455322
vn 0.008964539 -0.99853516 -0.053955078
vn -0.0029239655 -0.9926758 -0.1217041
vn -0.0029258728 -0.9926758 -0.1217041
vn -0.0029277802 -0.9926758 -0.1217041
vn 0.018310547 -0.9975586 -0.0670166
vn 0.04458618 -0.99902344 0.0011882782
vn -0.17016602 -0.054534912 -0.9838867
vn -0.17016602 -0.054534912 -0.9838867
vn -0.17016602 -0.054534912 -0.9838867
vn -0.17016602 -0.054534912 -0.9838867
vn -0.17016602 -0.054534912 -0.9838867
vn -0.17016602 -0.054534912 -0.9838867
vn 0.17016602 0.054534912 0.9838867
vn 0.17016602 0.054534912 0.9838867
vn 0.17016602 0.054534912 0.9838867
vn 0.17016602 0.054534912 0.9838867
vn 0.0029239655 0.9926758 0.1217041
vn -0.008964539 0.99853516 0.053955078
vn 0.0029239655 0.9926758 0.1217041
vn -0.0066490173 0.9975586 0.06719971
vn -0.018508911 1 -0.0007710457
vn -0.018508911 1 -0.0007710457
vn -0.018508911 1 -0.00077056885
vn -0.018508911 1 -0.00077056885
vn -0.018508911 1 -0.00077056885
vn -0.019500732 1 -0.0007863045
vn -0.028121948 0.9980469 -0.05621338
vn -0.036499023 0.9975586 -0.06298828
vn -0.04458618 0.99902344 -0.0011873245
vn -0.04208374 0.99658203 -0.06976318
vn -0.039916992 0.99121094 -0.12475586
vn -0.039916992 0.99121094 -0.12475586
vn -0.039916992 0.99121094 -0.12475586
vn 1 0.016296387 -0.0022621155
vn 1 0.016296387 -0.0022621155
vn 1 0.016296387 -0.0022621155
vn 1 0.016296387 -0.0022621155
vn 1 0.016296387 -0.0022621155
vn 1 0.016296387 -0.0022621155
vn 1 0.016296387 -0.0022621155
vn 1 0.016296387 -0.0022621155
vn 1 0.016296387 -0.0022621155
vn 1 0.016296387 -0.0022621155
vn 1 0.016296387 -0.0022621155
vn 1 0.016296387 -0.0022621155
vn 1 0.016296387 -0.0022621155
vn 1 0.016296387 -0.0022621155
vn 1 0.016296387 -0.0022621155
vn 1 0.016296387 -0.0022621155
vn -1 -0.016296387 0.0022621155
vn -1 -0.016296387 0.0022621155
vn -1 -0.016296387 0.0022621155
vn -1 -0.016296387 0.0022621155
vn -1 -0.016296387 0.0022621155
vn -1 -0.016296387 0.0022621155
vn -1 -0.016296387 0.0022621155
vn -1 -0.016296387 0.0022621155
vn -1 -0.016296387 0.0022621155
vn -1 -0.016296387 0.0022621155
vn -1 -0.016296387 0.0022621155
vn -1 -0.016296387 0.0022621155
vn -1 -0.016296387 0.0022621155
vn -1 -0.016296387 0.0022621155
vn -1 -0.016296387 0.0022621155
vn -1 -0.016296387 0.0022621155
vn -1 -0.016296387 0.0022621155
vn -1 -0.016296387 0.0022621155
vn -1 -0.016296387 0.0022621155
vn -1 -0.016296387 0.0022621155
vn 0.9926758 0.016723633 0.1204834
vn 0.9926758 0.010902405 0.1204834
vn 0.9926758 0.010902405 0.1204834
vn 0.9926758 0.016799927 0.1204834
vn 0.9921875 0.02444458 0.12054443
vn 0.9921875 0.024627686 0.12054443
vn 0.9921875 0.026428223 0.12054443
vn 0.9921875 0.026428223 0.12054443
vn 1 0.01576233 -0.0019874573
vn 1 0.015151978 -0.0019702911
vn 1 0.015151978 -0.0019702911
vn 1 0.016235352 -0.0020008087
vn 1 0.01689148 -0.0019893646
vn 1 0.016403198 -0.0020008087
vn 1 0.017471313 -0.0019741058
vn 1 0.017471313 -0.0019741058
vn 0.64941406 0.7573242 -0.064575195
vn 0.4958496 0.86816406 -0.0018205643
vn 0.4958496 0.86816406 -0.0018205643
vn 0.51904297 0.8544922 -0.010856628
vn 0.9589844 0.16247559 -0.23217773
vn 0.8544922 0.49536133 -0.15710449
vn 0.9614258 -0.1451416 -0.23291016
vn 0.8544922 0.49536133 -0.15710449
vn 0.9589844 0.16247559 -0.23217773
vn 0.8701172 -0.46606445 -0.15917969
vn 0.69384766 -0.7163086 -0.07287598
vn 0.55371094 -0.83251953 -0.011398315
vn 0.97216797 0.028198242 0.23266602
vn 0.97216797 0.028198242 0.23266602
vn 0.97216797 0.028198242 0.23266602
vn 0.97216797 0.028198242 0.23266602
vn 0.52685547 -0.85009766 -0.00049352646
vn 0.52685547 -0.85009766 -0.00049352646
vn 0.55371094 -0.83251953 -0.011398315
vn 0.69384766 -0.7163086 -0.07287598
vn 1 0.016296387 -0.0022621155
vn 1 0.016296387 -0.0022621155
vn 1 0.016296387 -0.0022621155
vn 1 0.016296387 -0.0022621155
vn 1 0.016296387 -0.0022621155
vn 1 0.016296387 -0.0022621155
vn 0.18701172 -0.9824219 -0.018127441
vn 0.18701172 -0.9824219 -0.018127441
vn 0.18701172 -0.9824219 -0.018127441
vn 0.48754883 -0.8730469 0.016098022
vn 0.48754883 -0.8730469 0.016098022
vn 0.48754883 -0.8730469 0.016098022
vn 0.76171875 -0.62353516 -0.17492676
vn 0.76171875 -0.62353516 -0.17492676
vn 0.76171875 -0.62353516 -0.17492676
vn 0.76171875 -0.62353516 -0.17492676
vn 0.47436523 0.8725586 -0.115234375
vn 0.47436523 0.8725586 -0.115234375
vn 0.47436523 0.8725586 -0.115234375
vn 0.47436523 0.8725586 -0.115234375
vn 0.4584961 0.88183594 0.11065674
vn 0.4584961 0.88183594 0.11065674
vn 0.4584961 0.88183594 0.11065674
vn 0.4584961 0.88183594 0.11065674
vn 1 0 0
vn 1 0 0
vn 1 0 0
vn 1 0 0
vn 1 0 0
vn 0.52734375 -0.81689453 0.23376465
vn 0.52734375 -0.81689453 0.23376465
vn 0.52734375 -0.81689453 0.23376465
vn 0.52734375 -0.81689453 0.23376465
vn -1 0 0
vn -1 0 0
vn -1 0 0
vn -1 0 0
vn -1 0 0
g Cube.005_0
f 3/3/3 2/2/2 1/1/1
f 2/2/2 4/4/4 1/1/1
f 4/4/4 2/2/2 5/5/5
f 2/2/2 6/6/6 5/5/5
f 5/5/5 6/6/6 7/7/7
f 6/6/6 8/8/8 7/7/7
f 7/7/7 8/8/8 9/9/9
f 8/8/8 10/10/10 9/9/9
f 9/9/9 10/10/10 11/11/11
f 10/10/10 12/12/12 11/11/11
f 11/11/11 12/12/12 13/13/13
f 14/14/14 11/11/11 13/13/13
f 14/14/14 15/15/15 11/11/11
f 15/15/15 16/16/16 11/11/11
f 11/11/11 16/16/16 9/9/9
f 16/16/16 17/17/17 9/9/9
f 20/20/20 19/19/19 18/18/18
f 21/21/21 20/20/20 18/18/18
f 21/21/21 22/22/22 20/20/20
f 22/22/22 23/23/23 20/20/20
f 26/26/26 25/25/25 24/24/24
f 27/27/27 26/26/26 24/24/24
f 30/30/30 29/29/29 28/28/28
f 29/29/29 31/31/31 28/28/28
f 31/31/31 29/29/29 32/32/32
f 29/29/29 33/33/33 32/32/32
f 32/32/32 33/33/33 34/34/34
f 33/33/33 35/35/35 34/34/34
f 34/34/34 35/35/35 36/36/36
f 35/35/35 37/37/37 36/36/36
f 36/36/36 37/37/37 38/38/38
f 37/37/37 39/39/39 38/38/38
f 37/37/37 40/40/40 39/39/39
f 40/40/40 41/41/41 39/39/39
f 38/38/38 39/39/39 42/42/42
f 39/39/39 41/41/41 42/42/42
f 43/43/43 38/38/38 42/42/42
f 41/41/41 44/44/44 42/42/42
f 47/47/47 46/46/46 45/45/45
f 46/46/46 48/48/48 45/45/45
f 45/45/45 48/48/48 49/49/49
f 48/48/48 50/50/50 49/49/49
f 49/49/49 50/50/50 51/51/51
f 50/50/50 52/52/52 51/51/51
f 51/51/51 53/53/53 49/49/49
f 53/53/53 54/54/54 49/49/49
f 53/53/53 55/55/55 54/54/54
f 55/55/55 56/56/56 54/54/54
f 54/54/54 56/56/56 57/57/57
f 56/56/56 58/58/58 57/57/57
f 57/57/57 58/58/58 59/59/59
f 58/58/58 60/60/60 59/59/59
f 63/63/63 62/62/62 61/61/61
f 64/64/64 63/63/63 61/61/61
f 64/64/64 61/61/61 65/65/65
f 66/66/66 63/63/63 64/64/64
f 67/67/67 64/64/64 65/65/65
f 65/65/65 68/68/68 67/67/67
f 68/68/68 69/69/69 67/67/67
f 70/70/70 66/66/66 64/64/64
f 70/70/70 64/64/64 67/67/67
f 71/71/71 66/66/66 70/70/70
f 67/67/67 69/69/69 72/72/72
f 72/72/72 70/70/70 67/67/67
f 69/69/69 73/73/73 72/72/72
f 74/74/74 71/71/71 70/70/70
f 74/74/74 70/70/70 72/72/72
f 75/75/75 71/71/71 74/74/74
f 76/76/76 75/75/75 74/74/74
f 72/72/72 73/73/73 77/77/77
f 77/77/77 74/74/74 72/72/72
f 76/76/76 74/74/74 77/77/77
f 73/73/73 78/78/78 77/77/77
f 79/79/79 76/76/76 77/77/77
f 77/77/77 78/78/78 79/79/79
f 78/78/78 80/80/80 79/79/79
f 83/83/83 82/82/82 81/81/81
f 82/82/82 84/84/84 81/81/81
f 81/81/81 84/84/84 85/85/85
f 84/84/84 86/86/86 85/85/85
f 85/85/85 86/86/86 87/87/87
f 86/86/86 88/88/88 87/87/87
f 91/91/91 90/90/90 89/89/89
f 92/92/92 91/91/91 89/89/89
f 89/89/89 93/93/93 92/92/92
f 93/93/93 94/94/94 92/92/92
f 93/93/93 95/95/95 94/94/94
f 95/95/95 96/96/96 94/94/94
f 99/99/99 98/98/98 97/97/97
f 98/98/98 100/100/100 97/97/97
f 97/97/97 100/100/100 101/101/101
f 100/100/100 102/102/102 101/101/101
f 105/105/105 104/104/104 103/103/103
f 104/104/104 106/106/106 103/103/103
f 103/103/103 106/106/106 107/107/107
f 106/106/106 108/108/108 107/107/107
f 111/111/111 110/110/110 109/109/109
f 112/112/112 111/111/111 109/109/109
f 115/115/115 114/114/114 113/113/113
f 116/116/116 115/115/115 113/113/113
g Cube.005_1
f 119/119/119 118/118/118 117/117/117
f 118/118/118 120/120/120 117/117/117
f 117/117/117 120/120/120 121/121/121
f 120/120/120 122/122/122 121/121/121
g Cube.005_2
f 125/125/125 124/124/124 123/123/123
f 128/128/128 127/127/127 126/126/126
f 131/131/131 130/130/130 129/129/129
f 132/132/132 131/131/131 129/129/129
f 135/135/135 134/134/134 133/133/133
f 136/136/136 135/135/135 133/133/133
f 139/139/139 138/138/138 137/137/137
f 140/140/140 139/139/139 137/137/137
f 143/143/143 142/142/142 141/141/141
f 141/141/141 144/144/144 143/143/143
f 141/141/141 145/145/145 144/144/144
f 148/148/148 147/147/147 146/146/146
f 149/149/149 148/148/148 146/146/146
f 152/152/152 151/151/151 150/150/150
f 150/150/150 153/153/153 152/152/152
f 150/150/150 154/154/154 153/153/153
