g Cube
v -1.3525629 -1.0185426 0.522174
v -1.3525629 1.2348679 0.522174
v -1.2049623 1.0724573 5.130425
v -1.2049623 -0.856132 5.130425
v -1.3525629 1.2348679 0.522174
v 1 1.2348679 0.522174
v 0.8523993 1.0724573 3.0799692
v -1.2049623 1.0724573 5.130425
v 1 1.2348679 0.522174
v 1 -1.0185426 0.522174
v 0.8523993 -0.856132 3.0799692
v 0.8523993 1.0724573 3.0799692
v 1 -1.0185426 0.522174
v -1.3525629 -1.0185426 0.522174
v -1.2049623 -0.856132 5.130425
v 0.8523993 -0.856132 3.0799692
v -1.3525629 1.2348679 0.522174
v -1.3525629 -1.0185426 0.522174
v 1 -1.0185426 0.522174
v 1 1.2348679 0.522174
v 0.8523993 1.0724573 3.0799692
v 0.8523993 -0.856132 3.0799692
v -1.2049623 -0.856132 5.130425
v -1.2049623 1.0724573 5.130425
vt 0.70996094 0.056518555
vt 0.70996094 0.064453125
vt 0.7182617 0.064453125
vt 0.7182617 0.056518555
vt 0.70996094 0.064453125
vt 0.70996094 0.07244873
vt 0.7182617 0.07244873
vt 0.7182617 0.064453125
vt 0.70996094 0.07244873
vt 0.70996094 0.0803833
vt 0.7182617 0.0803833
vt 0.7182617 0.07244873
vt 0.70996094 0.0803833
vt 0.70996094 0.088378906
vt 0.7182617 0.088378906
vt 0.7182617 0.0803833
vt 0.70214844 0.07244873
vt 0.70214844 0.0803833
vt 0.70996094 0.0803833
vt 0.70996094 0.07244873
vt 0.7182617 0.07244873
vt 0.7182617 0.0803833
vt 0.7260742 0.0803833
vt 0.7260742 0.07244873
vn -0.9995117 0 0.03201294
vn -0.9995117 0 0.03201294
vn -0.9995117 0 0.03201294
vn -0.9995117 0 0.03201294
vn 0.021057129 0.99853516 0.04525757
vn 0.021057129 0.99853516 0.04525757
vn 0.021057129 0.99853516 0.04525757
vn 0.021057129 0.99853516 0.04525757
vn 0.99853516 0 0.057617188
vn 0.99853516 0 0.057617188
vn 0.99853516 0 0.057617188
vn 0.99853516 0 0.057617188
vn 0.021057129 -0.99853516 0.04525757
vn 0.021057129 -0.99853516 0.04525757
vn 0.021057129 -0.99853516 0.04525757
vn 0.021057129 -0.99853516 0.04525757
vn -0 0 -1
vn -0 0 -1
vn -0 0 -1
vn -0 0 -1
vn 0.7060547 0 0.7084961
vn 0.7060547 0 0.7084961
vn 0.7060547 0 0.7084961
vn 0.7060547 0 0.7084961
g Cube_0
f 3/3/3 2/2/2 1/1/1
f 4/4/4 3/3/3 1/1/1
f 7/7/7 6/6/6 5/5/5
f 8/8/8 7/7/7 5/5/5
f 11/11/11 10/10/10 9/9/9
f 12/12/12 11/11/11 9/9/9
f 15/15/15 14/14/14 13/13/13
f 16/16/16 15/15/15 13/13/13
f 19/19/19 18/18/18 17/17/17
f 20/20/20 19/19/19 17/17/17
f 23/23/23 22/22/22 21/21/21
f 24/24/24 23/23/23 21/21/21
