g Cube.002
v 2.8510063 1.9697983 0.95875466
v 2.8510063 -1.9697983 0.95875466
v -2.5819209 -1.9697983 0.95875466
v -2.5819209 1.9697983 0.95875466
v -2.5819209 1.9697983 -1.4369731
v -2.5819209 -1.9697983 -1.4369731
v 2.8510063 -1.9697983 -1.4369731
v 2.8510063 1.9697983 -1.4369731
v 2.8510063 -1.9697983 -1.4369731
v -2.5819209 -1.9697983 -1.4369731
v -2.5819209 -1.9697983 0.95875466
v 2.8510063 -1.9697983 0.95875466
v 2.8510063 1.9697983 -1.4369731
v 2.8510063 -1.9697983 -1.4369731
v 2.8510063 -1.9697983 0.95875466
v 2.8510063 1.9697983 0.95875466
v -2.5819209 1.9697983 -1.4369731
v 2.8510063 1.9697983 -1.4369731
v 2.8510063 1.9697983 0.95875466
v -2.5819209 1.9697983 0.95875466
v -2.5819209 -1.9697983 -1.4369731
v -2.5819209 1.9697983 -1.4369731
v -2.5819209 1.9697983 0.95875466
v -2.5819209 -1.9697983 0.95875466
vt 0.35709423 0.49999985
vt 0.3570941 0
vt 0 1.2103703E-07
vt 9.4842086E-08 0.49999997
vt 0.35709423 1.2103703E-07
vt 0.35709432 0.49999997
vt 0.71418846 0.49999985
vt 0.71418834 0
vt 0.57162315 0.50000006
vt 0.5716232 0.9557219
vt 0.85743475 0.95572186
vt 0.8574347 0.49999997
vt 0.2858116 0.9999999
vt 0.2858115 0.49999997
vt 0 0.5000001
vt 1.0669735E-07 1
vt 1 0.4557219
vt 0.99999994 0
vt 0.71418846 6.0518516E-08
vt 0.71418846 0.45572197
vt 0.57162315 0.9999999
vt 0.5716231 0.49999997
vt 0.2858116 0.5
vt 0.28581163 0.9999999
vn -0 0 1
vn -0 0 1
vn -0 0 1
vn -0 0 1
vn -0 0 -1
vn -0 0 -1
vn -0 0 -1
vn -0 0 -1
vn -0 -1 0
vn -0 -1 0
vn -0 -1 0
vn -0 -1 0
vn 1 0 0
vn 1 0 0
vn 1 0 0
vn 1 0 0
vn -0 1 0
vn -0 1 0
vn -0 1 0
vn -0 1 0
vn -1 0 0
vn -1 0 0
vn -1 0 0
vn -1 0 0
g Cube.002_0
f 3/3/3 2/2/2 1/1/1
f 4/4/4 3/3/3 1/1/1
f 7/7/7 6/6/6 5/5/5
f 8/8/8 7/7/7 5/5/5
f 11/11/11 10/10/10 9/9/9
f 12/12/12 11/11/11 9/9/9
f 15/15/15 14/14/14 13/13/13
f 16/16/16 15/15/15 13/13/13
f 19/19/19 18/18/18 17/17/17
f 20/20/20 19/19/19 17/17/17
f 23/23/23 22/22/22 21/21/21
f 24/24/24 23/23/23 21/21/21
