g Cube.003
v 7.112583 -16.093979 -4.9779453
v 7.112583 -15.818339 7.7124405
v 7.112583 -16.093979 7.7124405
v 7.112583 -15.818339 -4.977945
v 7.112583 -15.576974 7.7124405
v 7.112583 -15.576974 -4.977945
v 8.518269 -15.860297 -4.977945
v 8.965366 -15.860297 -4.977945
v 8.965366 -15.860297 7.7124405
v 8.518269 -15.860297 7.7124405
v 8.965366 -15.860297 -4.977945
v 8.965366 -16.093979 -4.9779453
v 8.965366 -16.093979 7.7124405
v 8.965366 -15.860297 7.7124405
v 8.251731 -16.093979 -4.9779453
v 7.112583 -16.093979 -4.9779453
v 7.112583 -16.093979 7.7124405
v 8.251731 -16.093979 7.7124405
v 8.965366 -16.093979 -4.9779453
v 8.965366 -16.093979 7.7124405
v 8.518269 -15.860297 -4.977945
v 8.965366 -16.093979 -4.9779453
v 8.965366 -15.860297 -4.977945
v 8.251731 -16.093979 -4.9779453
v 7.112583 -15.818339 -4.977945
v 7.112583 -16.093979 -4.9779453
v 7.112583 -15.576974 -4.977945
v 8.518269 -15.576974 -4.977945
v 8.965366 -15.860297 7.7124405
v 8.965366 -16.093979 7.7124405
v 8.251731 -16.093979 7.7124405
v 8.518269 -15.860297 7.7124405
v 7.112583 -16.093979 7.7124405
v 7.112583 -15.818339 7.7124405
v 8.518269 -15.576974 7.7124405
v 7.112583 -15.576974 7.7124405
v 7.112583 -15.576974 -4.977945
v 8.518269 -15.576974 -4.977945
v 8.518269 -15.576974 7.7124405
v 7.112583 -15.576974 7.7124405
v 8.518269 -15.860297 7.7124405
v 8.518269 -15.576974 7.7124405
v 8.518269 -15.576974 -4.977945
v 8.518269 -15.860297 -4.977945
v 7.112583 7.0603657 -4.9779453
v 7.112583 7.0603657 7.7124405
v 7.112583 6.784727 7.7124405
v 7.112583 6.784727 -4.9779453
v 7.112583 6.5433617 7.7124405
v 7.112583 6.5433617 -4.9779453
v 8.518269 6.826685 -4.9779453
v 8.518269 6.826685 7.7124405
v 8.965366 6.826685 7.7124405
v 8.965366 6.826685 -4.9779453
v 8.965366 6.826685 -4.9779453
v 8.965366 6.826685 7.7124405
v 8.965366 7.0603657 7.7124405
v 8.965366 7.0603657 -4.9779453
v 8.251731 7.0603657 -4.9779453
v 7.112583 7.0603657 7.7124405
v 7.112583 7.0603657 -4.9779453
v 8.251731 7.0603657 7.7124405
v 8.965366 7.0603657 -4.9779453
v 8.965366 7.0603657 7.7124405
v 8.518269 6.826685 -4.9779453
v 8.965366 6.826685 -4.9779453
v 8.965366 7.0603657 -4.9779453
v 8.251731 7.0603657 -4.9779453
v 7.112583 6.784727 -4.9779453
v 7.112583 7.0603657 -4.9779453
v 7.112583 6.5433617 -4.9779453
v 8.518269 6.5433617 -4.9779453
v 8.965366 6.826685 7.7124405
v 8.251731 7.0603657 7.7124405
v 8.965366 7.0603657 7.7124405
v 8.518269 6.826685 7.7124405
v 7.112583 7.0603657 7.7124405
v 7.112583 6.784727 7.7124405
v 8.518269 6.5433617 7.7124405
v 7.112583 6.5433617 7.7124405
v 7.112583 6.5433617 -4.9779453
v 7.112583 6.5433617 7.7124405
v 8.518269 6.5433617 7.7124405
v 8.518269 6.5433617 -4.9779453
v 8.518269 6.826685 7.7124405
v 8.518269 6.826685 -4.9779453
v 8.518269 6.5433617 -4.9779453
v 8.518269 6.5433617 7.7124405
vt 0.46899414 1
vt 0.50634766 5.9604645E-08
vt 0.46899414 5.9604645E-08
vt 0.50634766 1
vt 0.54589844 0
vt 0.54589844 1
vt 0.6958008 1
vt 0.76904297 1
vt 0.76904297 0
vt 0.6958008 0
vt 0.8925781 1
vt 0.92285156 1
vt 0.92285156 0
vt 0.8925781 0
vt 0.116760254 1
vt 0.1538086 1
vt 0.1538086 0
vt 0.116760254 0
vt 2.9802322E-07 1
vt 0 0
vt 0.9692383 0.035217285
vt 1 0
vt 0.9692383 0
vt 1 0.056243896
vt 0.96240234 0.07409668
vt 1 0.07409668
vt 0.92285156 0.07409668
vt 0.92285156 0.035217285
vt 0.9692383 0.29638672
vt 1 0.29638672
vt 1 0.2401123
vt 0.9692383 0.26123047
vt 1 0.22229004
vt 0.96240234 0.22229004
vt 0.92285156 0.26123047
vt 0.92285156 0.22229004
vt 0.3076172 1
vt 0.3881836 1
vt 0.3881836 0
vt 0.3076172 0
vt 0.8618164 0
vt 0.8154297 5.9604645E-08
vt 0.8154297 1
vt 0.8618164 1
vt 0.6230469 0
vt 0.6230469 1
vt 0.5854492 1
vt 0.5854492 0
vt 0.54589844 1
vt 0.54589844 0
vt 0.6230469 1
vt 0.6230469 0
vt 0.6958008 0
vt 0.6958008 1
vt 0.8618164 1
vt 0.8618164 0
vt 0.8925781 0
vt 0.8925781 1
vt 0.2705078 1
vt 0.3076172 0
vt 0.3076172 1
vt 0.2705078 0
vt 0.1538086 1
vt 0.1538086 0
vt 0.9536133 0.112976074
vt 0.9536133 0.14819336
vt 0.92285156 0.14819336
vt 0.92285156 0.091918945
vt 0.9604492 0.07409668
vt 0.92285156 0.07409668
vt 1 0.07409668
vt 1 0.112976074
vt 0.9536133 0.14819336
vt 0.92285156 0.20446777
vt 0.92285156 0.14819336
vt 0.9536133 0.18334961
vt 0.92285156 0.22229004
vt 0.9604492 0.22229004
vt 1 0.18334961
vt 1 0.22229004
vt 0.3881836 1
vt 0.3881836 0
vt 0.46899414 0
vt 0.46899414 1
vt 0.8154297 0
vt 0.8154297 1
vt 0.76904297 1
vt 0.76904297 0
vn -1 0 0
vn -1 0 0
vn -1 0 0
vn -1 0 0
vn -1 0 0
vn -1 0 0
vn -0 1 0
vn -0 1 0
vn -0 1 0
vn -0 1 0
vn 1 0 0
vn 1 0 0
vn 1 0 0
vn 1 0 0
vn -0 -1 0
vn -0 -1 0
vn -0 -1 0
vn -0 -1 0
vn -0 -1 0
vn -0 -1 0
vn -0 0 -1
vn -0 0 -1
vn -0 0 -1
vn -0 0 -1
vn -0 0 -1
vn -0 0 -1
vn -0 0 -1
vn -0 0 -1
vn -0 0 1
vn -0 0 1
vn -0 0 1
vn -0 0 1
vn -0 0 1
vn -0 0 1
vn -0 0 1
vn -0 0 1
vn -0 1 0
vn -0 1 0
vn -0 1 0
vn -0 1 0
vn 1 0 0
vn 1 0 0
vn 1 0 0
vn 1 0 0
vn -1 0 0
vn -1 0 0
vn -1 0 0
vn -1 0 0
vn -1 0 0
vn -1 0 0
vn -0 -1 0
vn -0 -1 0
vn -0 -1 0
vn -0 -1 0
vn 1 0 0
vn 1 0 0
vn 1 0 0
vn 1 0 0
vn -0 1 0
vn -0 1 0
vn -0 1 0
vn -0 1 0
vn -0 1 0
vn -0 1 0
vn -0 0 -1
vn -0 0 -1
vn -0 0 -1
vn -0 0 -1
vn -0 0 -1
vn -0 0 -1
vn -0 0 -1
vn -0 0 -1
vn -0 0 1
vn -0 0 1
vn -0 0 1
vn -0 0 1
vn -0 0 1
vn -0 0 1
vn -0 0 1
vn -0 0 1
vn -0 -1 0
vn -0 -1 0
vn -0 -1 0
vn -0 -1 0
vn 1 0 0
vn 1 0 0
vn 1 0 0
vn 1 0 0
g Cube.003_0
f 3/3/3 2/2/2 1/1/1
f 2/2/2 4/4/4 1/1/1
f 2/2/2 5/5/5 4/4/4
f 5/5/5 6/6/6 4/4/4
f 9/9/9 8/8/8 7/7/7
f 10/10/10 9/9/9 7/7/7
f 13/13/13 12/12/12 11/11/11
f 14/14/14 13/13/13 11/11/11
f 17/17/17 16/16/16 15/15/15
f 18/18/18 17/17/17 15/15/15
f 18/18/18 15/15/15 19/19/19
f 20/20/20 18/18/18 19/19/19
f 23/23/23 22/22/22 21/21/21
f 22/22/22 24/24/24 21/21/21
f 21/21/21 24/24/24 25/25/25
f 24/24/24 26/26/26 25/25/25
f 25/25/25 27/27/27 21/21/21
f 27/27/27 28/28/28 21/21/21
f 31/31/31 30/30/30 29/29/29
f 32/32/32 31/31/31 29/29/29
f 33/33/33 31/31/31 32/32/32
f 34/34/34 33/33/33 32/32/32
f 32/32/32 35/35/35 34/34/34
f 35/35/35 36/36/36 34/34/34
f 39/39/39 38/38/38 37/37/37
f 40/40/40 39/39/39 37/37/37
f 43/43/43 42/42/42 41/41/41
f 44/44/44 43/43/43 41/41/41
f 47/47/47 46/46/46 45/45/45
f 48/48/48 47/47/47 45/45/45
f 49/49/49 47/47/47 48/48/48
f 50/50/50 49/49/49 48/48/48
f 53/53/53 52/52/52 51/51/51
f 54/54/54 53/53/53 51/51/51
f 57/57/57 56/56/56 55/55/55
f 58/58/58 57/57/57 55/55/55
f 61/61/61 60/60/60 59/59/59
f 60/60/60 62/62/62 59/59/59
f 59/59/59 62/62/62 63/63/63
f 62/62/62 64/64/64 63/63/63
f 67/67/67 66/66/66 65/65/65
f 68/68/68 67/67/67 65/65/65
f 68/68/68 65/65/65 69/69/69
f 70/70/70 68/68/68 69/69/69
f 71/71/71 69/69/69 65/65/65
f 72/72/72 71/71/71 65/65/65
f 75/75/75 74/74/74 73/73/73
f 74/74/74 76/76/76 73/73/73
f 74/74/74 77/77/77 76/76/76
f 77/77/77 78/78/78 76/76/76
f 79/79/79 76/76/76 78/78/78
f 80/80/80 79/79/79 78/78/78
f 83/83/83 82/82/82 81/81/81
f 84/84/84 83/83/83 81/81/81
f 87/87/87 86/86/86 85/85/85
f 88/88/88 87/87/87 85/85/85
