g Cube.002
v -0.90354216 -0.6241437 1.0060753
v -0.90354216 0.62414396 1.0060753
v -0.7434202 0.5135357 2.3139331
v -0.7434202 -0.5135357 2.3139331
v -0.90354216 0.62414396 1.0060753
v 0.90354216 0.62414396 1.0060753
v 0.7434202 0.5135357 2.3139331
v -0.7434202 0.5135357 2.3139331
v 0.90354216 0.62414396 1.0060753
v 0.90354216 -0.6241437 1.0060753
v 0.7434202 -0.5135357 2.3139331
v 0.7434202 0.5135357 2.3139331
v 0.90354216 -0.6241437 1.0060753
v -0.90354216 -0.6241437 1.0060753
v -0.7434202 -0.5135357 2.3139331
v 0.7434202 -0.5135357 2.3139331
v -0.90354216 0.62414396 1.0060753
v -0.90354216 -0.6241437 1.0060753
v 0.90354216 -0.6241437 1.0060753
v 0.90354216 0.62414396 1.0060753
v 0.40742418 -0.123096675 2.3139331
v 0.40742418 -0.123096675 3.2423825
v 0.40742418 0.12309554 3.2423825
v 0.40742418 0.12309554 2.3139331
v -1.5078404 -0.10486832 3.2423825
v -1.48224 -0.7562554 3.323986
v -0.2257828 -0.7539062 3.2800982
v -0.40742418 -0.123096675 3.2423825
v 0.22582236 -0.75380886 3.2782798
v -0.40742418 0.12309554 3.2423825
v 0.40742418 -0.123096675 3.2423825
v -1.5078404 0.10486698 3.2423825
v -1.2857878 1.3672043 3.9501963
v -0.19409212 1.3672044 3.9501963
v 1.48224 -0.7562554 3.323986
v 1.5078404 -0.10486832 3.2423825
v 0.40742418 0.12309554 3.2423825
v 1.5078404 0.10486698 3.2423825
v 0.19409212 1.3672044 3.9501963
v 1.2857877 1.3672043 3.9501963
v -0.40742418 0.12309554 2.3139331
v -0.40742418 0.12309554 3.2423825
v -0.40742418 -0.123096675 3.2423825
v -0.40742418 -0.123096675 2.3139331
v -0.40742418 -0.123096675 2.3139331
v -0.40742418 -0.123096675 3.2423825
v 0.40742418 -0.123096675 3.2423825
v 0.40742418 -0.123096675 2.3139331
v 0.40742418 0.12309554 2.3139331
v 0.40742418 0.12309554 3.2423825
v -0.40742418 0.12309554 3.2423825
v -0.40742418 0.12309554 2.3139331
v -1.5078404 0.10486698 12.855148
v -1.2857878 1.3672043 12.147335
v -0.19409212 1.3672044 12.147335
v -0.22761141 0.10486698 12.855148
v 0.19409212 1.3672044 12.147335
v -0.22761141 -0.10486837 12.855148
v -1.5078404 -0.10486832 12.855148
v -1.4823622 -0.75623393 12.773921
v -0.22632714 -0.7532781 12.82574
v 0.22761141 0.10486698 12.855148
v 1.2857877 1.3672043 12.147335
v 1.5078404 0.10486698 12.855148
v 1.5078404 -0.10486832 12.855148
v 0.22761141 -0.10486837 12.855148
v 0.22638488 -0.75314575 12.828059
v 1.4823939 -0.75622827 12.77402
v 1.3037074 -0.7555001 8.256302
v 1.2460171 -0.6703766 12.151684
v 1.3035058 -0.7555406 12.286932
v 1.246699 -0.67021894 8.299647
v 1.303909 -0.7554595 4.225672
v 1.2473809 -0.67006123 4.4476113
v 0.20037366 -0.758501 4.151948
v 1.2473809 -0.67006123 4.4476113
v 1.303909 -0.7554595 4.225672
v 0.19242328 -0.6894102 4.3587193
v -0.20040019 -0.7589471 4.150969
v -0.19216649 -0.6892172 4.3591065
v -1.3037853 -0.7554872 4.2260923
v -1.2472334 -0.67008275 4.448069
v 1.3035058 -0.7555406 12.286932
v 1.2460171 -0.6703766 12.151684
v 0.19167548 -0.6844951 12.218464
v 0.19979307 -0.7571761 12.348391
v -0.19147895 -0.68434924 12.2182865
v -0.19982885 -0.75752246 12.348934
v -1.2458894 -0.67039335 12.151277
v -1.3033923 -0.75556594 12.286535
v -1.3035889 -0.75552654 8.256313
v -1.2472334 -0.67008275 4.448069
v -1.3037853 -0.7554872 4.2260923
v -1.2465614 -0.670238 8.299673
v -1.3033923 -0.75556594 12.286535
v -1.2458894 -0.67039335 12.151277
v -1.5078404 -0.10486832 12.855148
v -1.4823622 -0.75623393 12.773921
v -1.482301 -0.75624466 8.048954
v -1.5078404 -0.10486832 8.048765
v -1.48224 -0.7562554 3.323986
v -1.5078404 -0.10486832 3.2423825
v -1.5078404 0.10486698 3.2423825
v -1.5078404 0.10486698 8.048765
v -1.5078404 0.10486698 12.855148
v -1.2857878 1.3672043 12.147335
v -1.2857878 1.3672043 8.048765
v -1.2857878 1.3672043 3.9501963
v 1.5078404 -0.10486832 3.2423825
v 1.48224 -0.7562554 3.323986
v 1.482317 -0.7562418 8.049004
v 1.5078404 -0.10486832 8.048765
v 1.4823939 -0.75622827 12.77402
v 1.5078404 -0.10486832 12.855148
v 1.5078404 0.10486698 12.855148
v 1.5078404 0.10486698 8.048765
v 1.5078404 0.10486698 3.2423825
v 1.2857877 1.3672043 3.9501963
v 1.2857877 1.3672043 8.048765
v 1.2857877 1.3672043 12.147335
v 0.19409212 1.3672044 3.9501963
v 1.2857877 1.3672043 3.9501963
v 1.2857877 1.3672043 8.048765
v 0.19409212 1.3672044 8.048765
v 1.2857877 1.3672043 12.147335
v 0.19409212 1.3672044 12.147335
v -0.19409212 1.3672044 12.147335
v -0.19409212 1.3672044 8.048765
v -0.19409212 1.3672044 3.9501963
v -1.2857878 1.3672043 3.9501963
v -1.2857878 1.3672043 8.048765
v -1.2857878 1.3672043 12.147335
v 1.482317 -0.7562418 8.049004
v 1.3037074 -0.7555001 8.256302
v 1.3035058 -0.7555406 12.286932
v 1.4823939 -0.75622827 12.77402
v 1.48224 -0.7562554 3.323986
v 0.19979307 -0.7571761 12.348391
v 1.303909 -0.7554595 4.225672
v 0.22638488 -0.75314575 12.828059
v 0.22582236 -0.75380886 3.2782798
v -0.19982885 -0.75752246 12.348934
v 0.20037366 -0.758501 4.151948
v -0.22632714 -0.7532781 12.82574
v -0.2257828 -0.7539062 3.2800982
v -1.3033923 -0.75556594 12.286535
v -0.20040019 -0.7589471 4.150969
v -1.4823622 -0.75623393 12.773921
v -1.48224 -0.7562554 3.323986
v -1.3035889 -0.75552654 8.256313
v -1.3037853 -0.7554872 4.2260923
v -1.482301 -0.75624466 8.048954
v -0.7434202 0.5135357 2.3139331
v -0.40742418 -0.123096675 2.3139331
v -0.7434202 -0.5135357 2.3139331
v -0.40742418 0.12309554 2.3139331
v 0.40742418 -0.123096675 2.3139331
v 0.7434202 0.5135357 2.3139331
v 0.7434202 -0.5135357 2.3139331
v 0.40742418 0.12309554 2.3139331
v -1.2465614 -0.670238 8.299673
v -0.9127652 -0.87313294 8.289624
v -0.9138005 -0.8738235 5.465322
v -1.2472334 -0.67008275 4.448069
v -1.2458894 -0.67039335 12.151277
v -0.14017917 -0.92298406 5.3692403
v -0.19216649 -0.6892172 4.3591065
v -0.9118906 -0.87112916 11.113926
v -0.19147895 -0.68434924 12.2182865
v 0.14349546 -0.923087 5.3688684
v 0.19242328 -0.6894102 4.3587193
v -0.13937585 -0.9170408 11.158201
v 0.19167548 -0.6844951 12.218464
v 0.91606814 -0.874186 5.4645905
v 1.2473809 -0.67006123 4.4476113
v 0.14240977 -0.91713923 11.158436
v 1.2460171 -0.6703766 12.151684
v 0.9151793 -0.873522 8.289458
v 1.246699 -0.67021894 8.299647
v 0.91412044 -0.8714673 11.114326
v 0.08730715 -1.045311 6.5163827
v 0.5479349 -1.0255475 6.5163827
v 0.5493558 -1.0370581 8.198957
v 0.5479326 -1.0253237 9.881533
v 0.08728796 -1.0434015 9.881533
v 0.09380786 -1.097565 8.198957
v -0.07709557 -1.0452778 6.5163827
v -0.077114694 -1.043375 9.881533
v -0.07059482 -1.0975353 8.198957
v -0.541172 -1.0253114 9.881533
v -0.53974956 -1.0370295 8.198957
v -0.54117 -1.0255121 6.5163827
vt 0 0.7998047
vt 0 0.9042969
vt 0.08190918 0.8955078
vt 0.08190918 0.8095703
vt 0.8178711 0.4038086
vt 0.8178711 0.5551758
vt 0.89941406 0.5419922
vt 0.89941406 0.41723633
vt 0.16369629 0.9038086
vt 0.16369629 0.7998047
vt 0.08190918 0.80810547
vt 0.08190918 0.8935547
vt 0.8178711 0.5551758
vt 0.8178711 0.70654297
vt 0.89941406 0.6933594
vt 0.89941406 0.56884766
vt 0.92089844 0.25268555
vt 0.8178711 0.25268555
vt 0.8178711 0.4038086
vt 0.92089844 0.4038086
vt 0.4321289 0.76416016
vt 0.4321289 0.8417969
vt 0.45263672 0.8417969
vt 0.45263672 0.76416016
vt 0.30151367 0.68652344
vt 0.24853516 0.68847656
vt 0.24829102 0.7939453
vt 0.30004883 0.7788086
vt 0.24816895 0.83154297
vt 0.32055664 0.7788086
vt 0.30004883 0.8466797
vt 0.3190918 0.68652344
vt 0.4321289 0.7050781
vt 0.4321289 0.7963867
vt 0.24853516 0.9370117
vt 0.30151367 0.93896484
vt 0.32055664 0.8466797
vt 0.3190918 0.93896484
vt 0.4321289 0.82910156
vt 0.4321289 0.92041016
vt 0.4321289 0.68652344
vt 0.4321289 0.76416016
vt 0.45263672 0.76416016
vt 0.45263672 0.68652344
vt 0.5317383 0.8828125
vt 0.5317383 0.8051758
vt 0.46362305 0.8051758
vt 0.46362305 0.8828125
vt 0.16369629 0.7998047
vt 0.16369629 0.8774414
vt 0.2319336 0.8774414
vt 0.2319336 0.7998047
vt 0.88916016 0.25268555
vt 1 0.23400879
vt 1 0.14257812
vt 0.88916016 0.14538574
vt 1 0.11004639
vt 0.87158203 0.14538574
vt 0.87158203 0.25268555
vt 0.8178711 0.25048828
vt 0.8178711 0.14526367
vt 0.88916016 0.10723877
vt 1 0.018600464
vt 0.88916016 0
vt 0.87158203 2.3841858E-07
vt 0.87158203 0.10723877
vt 0.8178711 0.107299805
vt 0.8178711 0.0021324158
vt 0.9355469 0.58984375
vt 0.92871094 0.9160156
vt 0.9355469 0.9277344
vt 0.92871094 0.59375
vt 0.9355469 0.25268555
vt 0.92871094 0.2709961
vt 0.14086914 0.07318115
vt 0.22839355 0.097839355
vt 0.23327637 0.0793457
vt 0.14013672 0.0904541
vt 0.10736084 0.07312012
vt 0.107910156 0.0904541
vt 0.014961243 0.07940674
vt 0.019515991 0.09790039
vt 0.23327637 0.75439453
vt 0.22827148 0.74316406
vt 0.14001465 0.74853516
vt 0.14086914 0.7597656
vt 0.107910156 0.74853516
vt 0.10736084 0.7597656
vt 0.019622803 0.74316406
vt 0.014984131 0.75439453
vt 0.92871094 0.58984375
vt 0.92089844 0.9091797
vt 0.92871094 0.9277344
vt 0.92089844 0.5864258
vt 0.92871094 0.25268555
vt 0.9213867 0.26391602
vt 0.58740234 0.8051758
vt 0.64208984 0.79833984
vt 0.64208984 0.4025879
vt 0.58740234 0.4025879
vt 0.64208984 0.0069274902
vt 0.58740234 1.21593475E-05
vt 0.5698242 0
vt 0.5698242 0.4025879
vt 0.5698242 0.8051758
vt 0.46362305 0.74609375
vt 0.46362305 0.40283203
vt 0.46362305 0.059570312
vt 0.7631836 0.8051758
vt 0.8178711 0.79833984
vt 0.8178711 0.4025879
vt 0.7631836 0.4025879
vt 0.8178711 0.006866455
vt 0.7631836 2.5749207E-05
vt 0.74560547 0
vt 0.74560547 0.4025879
vt 0.74560547 0.8051758
vt 0.64208984 0.7451172
vt 0.64208984 0.4020996
vt 0.64208984 0.058807373
vt 0.3395996 0
vt 0.24816895 0
vt 0.24816895 0.34326172
vt 0.3395996 0.34326172
vt 0.24816895 0.68652344
vt 0.3395996 0.68652344
vt 0.3720703 0.68652344
vt 0.3720703 0.34326172
vt 0.3720703 0
vt 0.46362305 0
vt 0.46362305 0.34326172
vt 0.46362305 0.68652344
vt 0.24816895 0.39941406
vt 0.23327637 0.4169922
vt 0.23327637 0.75439453
vt 0.24816895 0.79541016
vt 0.24816895 0.0038032532
vt 0.14086914 0.7597656
vt 0.23327637 0.0793457
vt 0.1430664 0.7998047
vt 0.1430664 0
vt 0.10736084 0.7597656
vt 0.14086914 0.07318115
vt 0.105163574 0.7998047
vt 0.10522461 0.00016212463
vt 0.014984131 0.75439453
vt 0.10736084 0.07312012
vt 0 0.79541016
vt 2.3007393E-05 0.0038661957
vt 0.014976501 0.4169922
vt 0.014961243 0.07940674
vt 1.1563301E-05 0.3996582
vt 0.8178711 0.70654297
vt 0.87060547 0.7348633
vt 0.9033203 0.70654297
vt 0.85009766 0.7348633
vt 0.87060547 0.8027344
vt 0.8178711 0.8310547
vt 0.9033203 0.8310547
vt 0.85009766 0.8027344
vt 0.019561768 0.42041016
vt 0.047943115 0.41992188
vt 0.047851562 0.18334961
vt 0.019515991 0.09790039
vt 0.019622803 0.74316406
vt 0.11273193 0.17529297
vt 0.107910156 0.0904541
vt 0.04800415 0.65625
vt 0.107910156 0.74853516
vt 0.13647461 0.17529297
vt 0.14013672 0.0904541
vt 0.11279297 0.66015625
vt 0.14001465 0.74853516
vt 0.2010498 0.18322754
vt 0.22839355 0.097839355
vt 0.13635254 0.66015625
vt 0.22827148 0.74316406
vt 0.2010498 0.41967773
vt 0.22827148 0.42041016
vt 0.20092773 0.65625
vt 0.13208008 0.27148438
vt 0.17053223 0.27148438
vt 0.1706543 0.41235352
vt 0.17053223 0.55322266
vt 0.13208008 0.55322266
vt 0.13269043 0.41235352
vt 0.11828613 0.27148438
vt 0.11828613 0.55322266
vt 0.11895752 0.41235352
vt 0.07940674 0.55322266
vt 0.07952881 0.41235352
vt 0.07940674 0.27148438
vn -0.9926758 0 0.121520996
vn -0.9926758 0 0.121520996
vn -0.9926758 0 0.121520996
vn -0.9926758 0 0.121520996
vn -0 0.99658203 0.08428955
vn -0 0.99658203 0.08428955
vn -0 0.99658203 0.08428955
vn -0 0.99658203 0.08428955
vn 0.9926758 0 0.121520996
vn 0.9926758 0 0.121520996
vn 0.9926758 0 0.121520996
vn 0.9926758 0 0.121520996
vn -0 -0.99658203 0.08428955
vn -0 -0.99658203 0.08428955
vn -0 -0.99658203 0.08428955
vn -0 -0.99658203 0.08428955
vn -0 0 -1
vn -0 0 -1
vn -0 0 -1
vn -0 0 -1
vn 1 0 0
vn 1 0 0
vn 1 0 0
vn 1 0 0
vn -0.009376526 -0.046813965 -0.99902344
vn -0.019180298 -0.095703125 -0.9951172
vn -0.008735657 -0.07366943 -0.9970703
vn -0.0079956055 -0.05392456 -0.99853516
vn 0.0073661804 -0.07318115 -0.9970703
vn -0.0015516281 0.34057617 -0.9404297
vn 0.0075149536 -0.05343628 -0.99853516
vn -0.0019874573 0.2388916 -0.9711914
vn -0.00409317 0.49243164 -0.87060547
vn -0.0018539429 0.4934082 -0.8696289
vn 0.019927979 -0.09442139 -0.9951172
vn 0.009750366 -0.046173096 -0.99902344
vn 0.0015516281 0.34057617 -0.9404297
vn 0.0019874573 0.2388916 -0.9711914
vn 0.0018539429 0.4934082 -0.8696289
vn 0.00409317 0.49243164 -0.87060547
vn -1 0 0
vn -1 0 0
vn -1 0 0
vn -1 0 0
vn -0 -1 0
vn -0 -1 0
vn -0 -1 0
vn -0 -1 0
vn -0 1 0
vn -0 1 0
vn -0 1 0
vn -0 1 0
vn -0 0.23986816 0.9707031
vn -0 0.48901367 0.8720703
vn -0 0.48901367 0.8720703
vn -0 0.25268555 0.96777344
vn -0 0.48901367 0.8720703
vn -0.005710602 -0.032226562 0.9995117
vn -0.010009766 -0.042114258 0.99902344
vn -0.020248413 -0.08520508 0.99609375
vn -0.011405945 -0.06439209 0.9980469
vn -0 0.25268555 0.96777344
vn -0 0.48901367 0.8720703
vn -0 0.23986816 0.9707031
vn 0.010444641 -0.04119873 0.99902344
vn 0.0046577454 -0.0317688 0.9995117
vn 0.009292603 -0.06347656 0.9980469
vn 0.021133423 -0.08337402 0.99609375
vn -0.83154297 -0.5551758 -0.00010716915
vn -0.8300781 -0.5576172 -0.00010704994
vn -0.8300781 -0.5576172 -0.00010704994
vn -0.8310547 -0.55615234 -0.00010710955
vn -0.83251953 -0.55371094 -0.00010728836
vn -0.83251953 -0.55371094 -0.00010728836
vn -0.007789612 -0.9448242 0.32714844
vn -0.015617371 -0.94140625 0.33691406
vn -0.015617371 -0.94140625 0.33691406
vn -0.0078048706 -0.9448242 0.32714844
vn 0.007949829 -0.9448242 0.32739258
vn 0.007949829 -0.9448242 0.32739258
vn 0.015777588 -0.94140625 0.3371582
vn 0.015777588 -0.94140625 0.3371582
vn -0.023834229 -0.8618164 -0.50683594
vn -0.023834229 -0.8618164 -0.50683594
vn -0.011741638 -0.8671875 -0.4975586
vn -0.012145996 -0.8671875 -0.49804688
vn 0.01184082 -0.8671875 -0.49780273
vn 0.012275696 -0.8671875 -0.49804688
vn 0.02406311 -0.8613281 -0.5073242
vn 0.02406311 -0.8613281 -0.5073242
vn 0.83154297 -0.5551758 -0.00010532141
vn 0.83251953 -0.55371094 -0.00010538101
vn 0.83251953 -0.55371094 -0.00010538101
vn 0.8310547 -0.55615234 -0.00010532141
vn 0.8300781 -0.5576172 -0.0001052618
vn 0.8300781 -0.5576172 -0.0001052618
vn -1 -0.01876831 0
vn -0.99902344 -0.039123535 0
vn -0.99902344 -0.03918457 0
vn -1 -0.019592285 0
vn -0.99902344 -0.039215088 0
vn -1 -0.018814087 0
vn -0.9975586 0.0703125 0
vn -0.99609375 0.0869751 0
vn -0.9975586 0.0703125 0
vn -0.9848633 0.17321777 0
vn -0.9848633 0.17321777 0
vn -0.9848633 0.17321777 0
vn 1 -0.018798828 0
vn 0.99902344 -0.039215088 0
vn 0.99902344 -0.039154053 0
vn 1 -0.019577026 0
vn 0.99902344 -0.039093018 0
vn 1 -0.018753052 0
vn 0.9975586 0.0703125 0
vn 0.99609375 0.0869751 0
vn 0.9975586 0.0703125 0
vn 0.9848633 0.17321777 0
vn 0.9848633 0.17321777 0
vn 0.9848633 0.17321777 0
vn -0 1 0
vn -0 1 0
vn -0 1 0
vn -0 1 0
vn -0 1 0
vn -0 1 0
vn -0 1 0
vn -0 1 0
vn -0 1 0
vn -0 1 0
vn -0 1 0
vn -0 1 0
vn -0.004245758 -1 0
vn -0.004070282 -1 0
vn -0.0025691986 -1 0.0014219284
vn -0.0012149811 -1 0.0027751923
vn -0.00020742416 -1 -0.0018920898
vn 6.0379505E-05 -1 0.0061454773
vn -0.0026054382 -1 -0.00078964233
vn 4.053116E-05 -1 0.0060424805
vn 0.0004954338 -1 -0.003850937
vn 0.0003950596 -1 0.006248474
vn 0.00049591064 -1 -0.0038604736
vn 0.00038933754 -1 0.0061531067
vn 1.7821789E-05 -1 -0.0039520264
vn 0.0024166107 -1 0.0015058517
vn 2.026558E-05 -1 -0.003955841
vn 0.001033783 -1 0.0029392242
vn -0 -1 -0.0020580292
vn 0.0039405823 -1 0
vn 0.0024318695 -1 -0.0008583069
vn 0.0041046143 -1 0
vn -0 0 1
vn -0 0 1
vn -0 0 1
vn -0 0 1
vn -0 0 1
vn -0 0 1
vn -0 0 1
vn -0 0 1
vn -0.5185547 -0.85498047 0.00028038025
vn -0.45483398 -0.890625 0.00049448013
vn -0.29248047 -0.9526367 -0.08325195
vn -0.16015625 -0.9741211 -0.16088867
vn -0.1484375 -0.9765625 0.15661621
vn -0.030410767 -0.9863281 -0.16271973
vn -0.028945923 -0.9765625 -0.21289062
vn -0.28295898 -0.9555664 0.0814209
vn -0.022491455 -0.9785156 0.2043457
vn 0.029830933 -0.9863281 -0.1628418
vn 0.02822876 -0.9765625 -0.2130127
vn -0.024963379 -0.98779297 0.15332031
vn 0.021942139 -0.9785156 0.20446777
vn 0.29418945 -0.95214844 -0.08343506
vn 0.16052246 -0.9736328 -0.16137695
vn 0.024505615 -0.98779297 0.15344238
vn 0.14868164 -0.9765625 0.15710449
vn 0.4584961 -0.8886719 0.000521183
vn 0.52197266 -0.85302734 0.00028467178
vn 0.28466797 -0.9550781 0.08154297
vn 0.037139893 -0.9970703 -0.066833496
vn 0.21850586 -0.97509766 -0.040252686
vn 0.24230957 -0.97021484 0.00016486645
vn 0.21875 -0.97509766 0.037078857
vn 0.034606934 -0.9975586 0.06304932
vn 0.043182373 -0.99902344 0.00044035912
vn -0.037078857 -0.9970703 -0.06665039
vn -0.03451538 -0.9975586 0.06286621
vn -0.042388916 -0.99902344 0.00044059753
vn -0.2163086 -0.97558594 0.036865234
vn -0.23925781 -0.9711914 0.00018203259
vn -0.21606445 -0.97558594 -0.040039062
g Cube.002_0
f 3/3/3 2/2/2 1/1/1
f 4/4/4 3/3/3 1/1/1
f 7/7/7 6/6/6 5/5/5
f 8/8/8 7/7/7 5/5/5
f 11/11/11 10/10/10 9/9/9
f 12/12/12 11/11/11 9/9/9
f 15/15/15 14/14/14 13/13/13
f 16/16/16 15/15/15 13/13/13
f 19/19/19 18/18/18 17/17/17
f 20/20/20 19/19/19 17/17/17
f 23/23/23 22/22/22 21/21/21
f 24/24/24 23/23/23 21/21/21
f 27/27/27 26/26/26 25/25/25
f 28/28/28 27/27/27 25/25/25
f 29/29/29 27/27/27 28/28/28
f 28/28/28 25/25/25 30/30/30
f 31/31/31 29/29/29 28/28/28
f 25/25/25 32/32/32 30/30/30
f 32/32/32 33/33/33 30/30/30
f 33/33/33 34/34/34 30/30/30
f 35/35/35 29/29/29 31/31/31
f 36/36/36 35/35/35 31/31/31
f 30/30/30 34/34/34 37/37/37
f 38/38/38 36/36/36 31/31/31
f 37/37/37 38/38/38 31/31/31
f 34/34/34 39/39/39 37/37/37
f 37/37/37 39/39/39 38/38/38
f 39/39/39 40/40/40 38/38/38
f 43/43/43 42/42/42 41/41/41
f 44/44/44 43/43/43 41/41/41
f 47/47/47 46/46/46 45/45/45
f 48/48/48 47/47/47 45/45/45
f 51/51/51 50/50/50 49/49/49
f 52/52/52 51/51/51 49/49/49
f 55/55/55 54/54/54 53/53/53
f 56/56/56 55/55/55 53/53/53
f 57/57/57 55/55/55 56/56/56
f 56/56/56 53/53/53 58/58/58
f 53/53/53 59/59/59 58/58/58
f 59/59/59 60/60/60 58/58/58
f 60/60/60 61/61/61 58/58/58
f 62/62/62 57/57/57 56/56/56
f 56/56/56 58/58/58 62/62/62
f 63/63/63 57/57/57 62/62/62
f 64/64/64 63/63/63 62/62/62
f 65/65/65 64/64/64 62/62/62
f 58/58/58 61/61/61 66/66/66
f 58/58/58 66/66/66 62/62/62
f 66/66/66 65/65/65 62/62/62
f 61/61/61 67/67/67 66/66/66
f 66/66/66 67/67/67 65/65/65
f 67/67/67 68/68/68 65/65/65
f 71/71/71 70/70/70 69/69/69
f 70/70/70 72/72/72 69/69/69
f 69/69/69 72/72/72 73/73/73
f 72/72/72 74/74/74 73/73/73
f 77/77/77 76/76/76 75/75/75
f 76/76/76 78/78/78 75/75/75
f 75/75/75 78/78/78 79/79/79
f 78/78/78 80/80/80 79/79/79
f 79/79/79 80/80/80 81/81/81
f 80/80/80 82/82/82 81/81/81
f 85/85/85 84/84/84 83/83/83
f 86/86/86 85/85/85 83/83/83
f 87/87/87 85/85/85 86/86/86
f 88/88/88 87/87/87 86/86/86
f 89/89/89 87/87/87 88/88/88
f 90/90/90 89/89/89 88/88/88
f 93/93/93 92/92/92 91/91/91
f 92/92/92 94/94/94 91/91/91
f 91/91/91 94/94/94 95/95/95
f 94/94/94 96/96/96 95/95/95
f 99/99/99 98/98/98 97/97/97
f 100/100/100 99/99/99 97/97/97
f 101/101/101 99/99/99 100/100/100
f 102/102/102 101/101/101 100/100/100
f 102/102/102 100/100/100 103/103/103
f 100/100/100 97/97/97 104/104/104
f 100/100/100 104/104/104 103/103/103
f 97/97/97 105/105/105 104/104/104
f 105/105/105 106/106/106 104/104/104
f 106/106/106 107/107/107 104/104/104
f 104/104/104 107/107/107 103/103/103
f 107/107/107 108/108/108 103/103/103
f 111/111/111 110/110/110 109/109/109
f 112/112/112 111/111/111 109/109/109
f 113/113/113 111/111/111 112/112/112
f 114/114/114 113/113/113 112/112/112
f 115/115/115 114/114/114 112/112/112
f 116/116/116 112/112/112 109/109/109
f 116/116/116 115/115/115 112/112/112
f 117/117/117 116/116/116 109/109/109
f 117/117/117 118/118/118 116/116/116
f 118/118/118 119/119/119 116/116/116
f 116/116/116 119/119/119 115/115/115
f 119/119/119 120/120/120 115/115/115
f 123/123/123 122/122/122 121/121/121
f 124/124/124 123/123/123 121/121/121
f 125/125/125 123/123/123 124/124/124
f 126/126/126 125/125/125 124/124/124
f 127/127/127 126/126/126 124/124/124
f 128/128/128 124/124/124 121/121/121
f 128/128/128 127/127/127 124/124/124
f 129/129/129 128/128/128 121/121/121
f 129/129/129 130/130/130 128/128/128
f 130/130/130 131/131/131 128/128/128
f 128/128/128 131/131/131 127/127/127
f 131/131/131 132/132/132 127/127/127
f 135/135/135 134/134/134 133/133/133
f 136/136/136 135/135/135 133/133/133
f 133/133/133 134/134/134 137/137/137
f 138/138/138 135/135/135 136/136/136
f 134/134/134 139/139/139 137/137/137
f 140/140/140 138/138/138 136/136/136
f 137/137/137 139/139/139 141/141/141
f 142/142/142 138/138/138 140/140/140
f 139/139/139 143/143/143 141/141/141
f 144/144/144 142/142/142 140/140/140
f 141/141/141 143/143/143 145/145/145
f 146/146/146 142/142/142 144/144/144
f 143/143/143 147/147/147 145/145/145
f 148/148/148 146/146/146 144/144/144
f 145/145/145 147/147/147 149/149/149
f 150/150/150 146/146/146 148/148/148
f 147/147/147 151/151/151 149/149/149
f 152/152/152 150/150/150 148/148/148
f 149/149/149 151/151/151 152/152/152
f 151/151/151 150/150/150 152/152/152
f 155/155/155 154/154/154 153/153/153
f 154/154/154 156/156/156 153/153/153
f 157/157/157 154/154/154 155/155/155
f 153/153/153 156/156/156 158/158/158
f 159/159/159 157/157/157 155/155/155
f 156/156/156 160/160/160 158/158/158
f 160/160/160 157/157/157 159/159/159
f 158/158/158 160/160/160 159/159/159
g Cube.002_1
f 163/163/163 162/162/162 161/161/161
f 164/164/164 163/163/163 161/161/161
f 161/161/161 162/162/162 165/165/165
f 166/166/166 163/163/163 164/164/164
f 167/167/167 166/166/166 164/164/164
f 162/162/162 168/168/168 165/165/165
f 165/165/165 168/168/168 169/169/169
f 170/170/170 166/166/166 167/167/167
f 171/171/171 170/170/170 167/167/167
f 168/168/168 172/172/172 169/169/169
f 169/169/169 172/172/172 173/173/173
f 174/174/174 170/170/170 171/171/171
f 175/175/175 174/174/174 171/171/171
f 172/172/172 176/176/176 173/173/173
f 173/173/173 176/176/176 177/177/177
f 178/178/178 174/174/174 175/175/175
f 179/179/179 178/178/178 175/175/175
f 177/177/177 180/180/180 179/179/179
f 176/176/176 180/180/180 177/177/177
f 180/180/180 178/178/178 179/179/179
f 170/170/170 181/181/181 166/166/166
f 174/174/174 182/182/182 170/170/170
f 182/182/182 181/181/181 170/170/170
f 178/178/178 183/183/183 174/174/174
f 183/183/183 182/182/182 174/174/174
f 180/180/180 184/184/184 178/178/178
f 184/184/184 183/183/183 178/178/178
f 185/185/185 184/184/184 180/180/180
f 176/176/176 185/185/185 180/180/180
f 183/183/183 184/184/184 185/185/185
f 182/182/182 183/183/183 186/186/186
f 181/181/181 182/182/182 186/186/186
f 186/186/186 183/183/183 185/185/185
f 181/181/181 187/187/187 166/166/166
f 181/181/181 186/186/186 187/187/187
f 166/166/166 187/187/187 163/163/163
f 188/188/188 185/185/185 176/176/176
f 172/172/172 188/188/188 176/176/176
f 186/186/186 185/185/185 189/189/189
f 185/185/185 188/188/188 189/189/189
f 186/186/186 189/189/189 187/187/187
f 190/190/190 188/188/188 172/172/172
f 188/188/188 190/190/190 189/189/189
f 168/168/168 190/190/190 172/172/172
f 190/190/190 191/191/191 189/189/189
f 191/191/191 190/190/190 168/168/168
f 189/189/189 191/191/191 187/187/187
f 162/162/162 191/191/191 168/168/168
f 187/187/187 192/192/192 163/163/163
f 191/191/191 192/192/192 187/187/187
f 192/192/192 191/191/191 162/162/162
f 163/163/163 192/192/192 162/162/162
