g Cube.007
v -57.628456 1.5029237 -5.0260644E-07
v 6.633138 0.999999 0.9999998
v -57.62846 0.99999946 0.99999946
v 6.6331363 1.5029233 -2.596355E-07
v -57.62846 0.99999946 -1.0000005
v 6.633138 0.999999 -1.0000002
v 10.179558 1.923609 3.0343153
v 10.595564 2.482916 2.1585023
v 11.257763 2.069743 1.3561856
v 6.6331363 -1.0545743E-06 -1.4319979
v -57.62846 0.99999946 -1.0000005
v -57.628456 -5.842237E-07 -1.4319983
v 6.633138 -1.000001 -1.0000002
v -57.62846 -1.0000005 -1.0000005
v 11.7354145 1.1344808 1.0667776
v 14.590769 4.2655506 6.0848784
v 13.962664 3.6023474 6.731853
v 15.590591 4.01776 5.646828
v 10.191425 0.9252172 3.4698567
v 13.980583 2.6069198 7.173923
v 15.964832 5.8379574 11.655938
v 16.667309 6.637569 11.309413
v 15.984875 4.8464212 12.106581
v 16.311773 3.2017899 5.620169
v 11.747284 0.1360901 1.5023197
v 17.785511 6.606914 11.349619
v 16.024387 13.479769 28.487556
v 16.726866 14.27938 28.141033
v 16.04443 12.488233 28.938198
v 17.845068 14.248725 28.181236
v 16.851006 11.828887 29.256512
v 18.592085 5.947566 11.667931
v 18.651642 13.589377 28.49955
v 16.791449 4.1870756 12.424894
v 17.969208 11.798228 29.296715
v 16.329695 2.2063637 6.06224
v 18.61213 4.956032 12.118575
v 18.671684 12.597844 28.950191
v 17.909653 4.1564174 12.465097
v 14.701767 1.790951 7.147265
v 15.70159 1.5431573 6.709212
v 11.331278 -0.42321956 2.378131
v 10.669079 -0.010043926 3.1804492
v 6.6331363 -1.5029271 -1.4042621E-07
v 6.6331363 -9.3536505E-07 1.4319991
v 6.633138 -1.000001 0.9999998
v -57.62846 -1.0000005 0.99999946
v -57.62846 -1.0000005 0.99999946
v -57.628456 -1.5029266 -3.8339715E-07
v -57.62846 -1.0000005 -1.0000005
v -57.628456 -4.650144E-07 1.4319987
v -57.62846 0.99999946 0.99999946
v -57.628456 -5.842237E-07 -1.4319983
v -57.62846 0.99999946 -1.0000005
v -57.628456 1.5029237 -5.0260644E-07
v -57.628456 -1.4782935E-06 3.8096996E-07
v -57.62846 -1.0000005 -1.0000005
v -57.62846 0.99999946 0.99999946
v -57.628456 -1.5029266 -3.8339715E-07
v -57.628456 -4.650144E-07 1.4319987
v -57.62846 -1.0000005 0.99999946
v 18.651642 13.589377 28.49955
v 18.671684 12.597844 28.950191
v 17.969208 11.798228 29.296715
v 17.348036 13.038804 28.718872
v 17.845068 14.248725 28.181236
v 16.851006 11.828887 29.256512
v 16.726866 14.27938 28.141033
v 16.04443 12.488233 28.938198
v 16.024387 13.479769 28.487556
vt 0.5 0.25
vt 0.625 0.5
vt 0.625 0.25
vt 0.5 0.5
vt 0.375 0.25
vt 0.375 0.5
vt 0.625 0.5
vt 0.5 0.5
vt 0.375 0.5
vt 0.375 0.625
vt 0.125 0.5
vt 0.125 0.625
vt 0.375 0.75
vt 0.125 0.75
vt 0.375 0.625
vt 0.5 0.5
vt 0.625 0.5
vt 0.375 0.5
vt 0.625 0.625
vt 0.625 0.625
vt 0.625 0.5
vt 0.5 0.5
vt 0.625 0.625
vt 0.375 0.625
vt 0.375 0.75
vt 0.375 0.5
vt 0.625 0.5
vt 0.5 0.5
vt 0.625 0.625
vt 0.375 0.5
vt 0.625 0.75
vt 0.375 0.625
vt 0.375 0.625
vt 0.625 0.75
vt 0.5 0.75
vt 0.375 0.75
vt 0.375 0.75
vt 0.375 0.75
vt 0.5 0.75
vt 0.625 0.75
vt 0.5 0.75
vt 0.5 0.75
vt 0.625 0.75
vt 0.5 0.75
vt 0.625 0.625
vt 0.625 0.75
vt 0.625 1
vt 0.875 0.75
vt 0.5 1
vt 0.375 1
vt 0.875 0.625
vt 0.875 0.5
vt 0.375 0.125
vt 0.375 0.25
vt 0.5 0.25
vt 0.5 0.125
vt 0.375 0
vt 0.625 0.25
vt 0.5 0
vt 0.625 0.125
vt 0.625 0
vt 0.375 0.625
vt 0.375 0.75
vt 0.5 0.75
vt 0.5 0.625
vt 0.375 0.5
vt 0.625 0.75
vt 0.5 0.5
vt 0.625 0.625
vt 0.625 0.5
vn -0 1 0
vn -0.27172852 0.68408203 0.6772461
vn -0 0.68603516 0.72753906
vn -0.08258057 0.99316406 -0.0826416
vn -0 0.68603516 -0.72753906
vn 0.11743164 0.65478516 -0.74658203
vn -0.60253906 0.5957031 0.53125
vn -0.24414062 0.9638672 -0.10772705
vn 0.25732422 0.6923828 -0.6743164
vn 0.21679688 -0.012145996 -0.9760742
vn -0 0.68603516 -0.72753906
vn -0 0 -1
vn 0.22387695 -0.6640625 -0.7133789
vn -0 -0.68603516 -0.72753906
vn 0.5654297 0.05496216 -0.8227539
vn -0.31396484 0.92529297 -0.21264648
vn -0.80126953 0.5097656 0.31298828
vn 0.35791016 0.73779297 -0.5727539
vn -0.5786133 -0.088134766 0.81103516
vn -0.7680664 -0.19506836 0.61035156
vn -0.92626953 0.37670898 0.019073486
vn -0.36669922 0.8701172 -0.3293457
vn -0.8876953 -0.32250977 0.32861328
vn 0.7919922 0.1640625 -0.5883789
vn 0.58447266 -0.58935547 -0.5576172
vn 0.40356445 0.7998047 -0.44482422
vn -0.9453125 0.29785156 -0.13183594
vn -0.40771484 0.83203125 -0.3762207
vn -0.90966797 -0.37719727 0.17456055
vn 0.38330078 0.84033203 -0.38305664
vn -0.37402344 -0.84375 0.38452148
vn 0.90527344 0.30126953 -0.29956055
vn 0.9116211 0.37304688 -0.17260742
vn -0.34204102 -0.8310547 0.43896484
vn 0.41918945 -0.82714844 0.37402344
vn 0.81884766 -0.48120117 -0.31298828
vn 0.9370117 -0.3486328 -0.010124207
vn 0.94677734 -0.29492188 0.13049316
vn 0.44506836 -0.8457031 0.2939453
vn -0.29418945 -0.78222656 0.5493164
vn 0.39526367 -0.90625 0.14916992
vn 0.28222656 -0.9584961 0.03994751
vn -0.22717285 -0.73291016 0.64160156
vn 0.1295166 -0.9902344 -0.04776001
vn -0.26000977 -0.045959473 0.96435547
vn -0.07922363 -0.72998047 0.6791992
vn -0 -0.68603516 0.72753906
vn -0 -0.68603516 0.72753906
vn -0 -1 0
vn -0 -0.68603516 -0.72753906
vn -0 0 1
vn -0 0.68603516 0.72753906
vn -1 0 0
vn -1 0 0
vn -1 0 0
vn -1 0 0
vn -1 0 0
vn -1 0 0
vn -1 0 0
vn -1 0 0
vn -1 0 0
vn -0.021392822 0.41333008 0.91015625
vn -0.021408081 0.41333008 0.91015625
vn -0.021392822 0.41333008 0.91015625
vn -0.021392822 0.41333008 0.91015625
vn -0.021392822 0.41333008 0.91015625
vn -0.021392822 0.41333008 0.91015625
vn -0.021392822 0.41333008 0.91015625
vn -0.021392822 0.41333008 0.91015625
vn -0.021392822 0.41333008 0.91015625
g Cube.007_0
f 3/3/3 2/2/2 1/1/1
f 2/2/2 4/4/4 1/1/1
f 1/1/1 4/4/4 5/5/5
f 4/4/4 6/6/6 5/5/5
f 2/2/2 7/7/7 4/4/4
f 4/4/4 8/8/8 6/6/6
f 7/7/7 8/8/8 4/4/4
f 8/8/8 9/9/9 6/6/6
f 6/6/6 9/9/9 10/10/10
f 6/6/6 10/10/10 11/11/11
f 10/10/10 12/12/12 11/11/11
f 10/10/10 13/13/13 12/12/12
f 13/13/13 14/14/14 12/12/12
f 9/9/9 15/15/15 10/10/10
f 10/10/10 15/15/15 13/13/13
f 8/8/8 16/16/16 9/9/9
f 7/7/7 17/17/17 8/8/8
f 17/17/17 16/16/16 8/8/8
f 9/9/9 18/18/18 15/15/15
f 16/16/16 18/18/18 9/9/9
f 19/19/19 7/7/7 2/2/2
f 20/20/20 17/17/17 7/7/7
f 19/19/19 20/20/20 7/7/7
f 17/17/17 21/21/21 16/16/16
f 16/16/16 22/22/22 18/18/18
f 21/21/21 22/22/22 16/16/16
f 20/20/20 23/23/23 17/17/17
f 23/23/23 21/21/21 17/17/17
f 18/18/18 24/24/24 15/15/15
f 15/15/15 25/25/25 13/13/13
f 15/15/15 24/24/24 25/25/25
f 22/22/22 26/26/26 18/18/18
f 18/18/18 26/26/26 24/24/24
f 21/21/21 27/27/27 22/22/22
f 27/27/27 28/28/28 22/22/22
f 22/22/22 28/28/28 26/26/26
f 29/29/29 27/27/27 21/21/21
f 23/23/23 29/29/29 21/21/21
f 28/28/28 30/30/30 26/26/26
f 31/31/31 29/29/29 23/23/23
f 26/26/26 30/30/30 32/32/32
f 26/26/26 32/32/32 24/24/24
f 30/30/30 33/33/33 32/32/32
f 34/34/34 31/31/31 23/23/23
f 34/34/34 23/23/23 20/20/20
f 35/35/35 31/31/31 34/34/34
f 24/24/24 32/32/32 36/36/36
f 24/24/24 36/36/36 25/25/25
f 32/32/32 33/33/33 37/37/37
f 32/32/32 37/37/37 36/36/36
f 33/33/33 38/38/38 37/37/37
f 38/38/38 35/35/35 39/39/39
f 39/39/39 35/35/35 34/34/34
f 37/37/37 38/38/38 39/39/39
f 40/40/40 34/34/34 20/20/20
f 39/39/39 34/34/34 40/40/40
f 40/40/40 20/20/20 19/19/19
f 37/37/37 39/39/39 41/41/41
f 36/36/36 37/37/37 41/41/41
f 41/41/41 39/39/39 40/40/40
f 25/25/25 36/36/36 42/42/42
f 36/36/36 41/41/41 42/42/42
f 41/41/41 40/40/40 43/43/43
f 43/43/43 40/40/40 19/19/19
f 42/42/42 41/41/41 43/43/43
f 25/25/25 42/42/42 44/44/44
f 13/13/13 25/25/25 44/44/44
f 43/43/43 19/19/19 45/45/45
f 45/45/45 19/19/19 2/2/2
f 42/42/42 43/43/43 46/46/46
f 44/44/44 42/42/42 46/46/46
f 46/46/46 43/43/43 45/45/45
f 46/46/46 47/47/47 44/44/44
f 48/48/48 46/46/46 45/45/45
f 47/47/47 49/49/49 44/44/44
f 44/44/44 49/49/49 13/13/13
f 49/49/49 50/50/50 13/13/13
f 51/51/51 48/48/48 45/45/45
f 51/51/51 45/45/45 2/2/2
f 52/52/52 51/51/51 2/2/2
f 55/55/55 54/54/54 53/53/53
f 56/56/56 55/55/55 53/53/53
f 56/56/56 53/53/53 57/57/57
f 58/58/58 55/55/55 56/56/56
f 59/59/59 56/56/56 57/57/57
f 60/60/60 58/58/58 56/56/56
f 60/60/60 56/56/56 59/59/59
f 61/61/61 60/60/60 59/59/59
f 64/64/64 63/63/63 62/62/62
f 65/65/65 64/64/64 62/62/62
f 65/65/65 62/62/62 66/66/66
f 67/67/67 64/64/64 65/65/65
f 68/68/68 65/65/65 66/66/66
f 69/69/69 67/67/67 65/65/65
f 69/69/69 65/65/65 68/68/68
f 70/70/70 69/69/69 68/68/68
