g Cube.012
v -1 -0.8031583 -4.070742
v -1 1.1968417 -4.070742
v -1 1 1
v -1 -1 1
v -1 1.1968417 -4.070742
v 1.1349963 1.1968417 -4.070742
v 1.1349963 1 1
v -1 1 1
v 1.1349963 1.1968417 -4.070742
v 1.1349963 -0.8031583 -4.070742
v 1.1349963 -1 1
v 1.1349963 1 1
v 1.1349963 -0.8031583 -4.070742
v -1 -0.8031583 -4.070742
v -1 -1 1
v 1.1349963 -1 1
v -1 1.1968417 -4.070742
v -1 -0.8031583 -4.070742
v 1.1349963 -0.8031583 -4.070742
v 1.1349963 1.1968417 -4.070742
v 1.1349963 1 1
v 1.1349963 -1 1
v -1 -1 1
v -1 1 1
v -1.3055093 -15.977226 -2.7609334
v -1.0000001 -13.972219 -2.8356278
v -1.0000001 -14.12056 0.93141556
v -1.0000001 -16.12056 0.93141556
v -1.0000001 -13.972219 -2.8356278
v 1.1349964 -13.972219 -2.8356278
v 1.1349964 -14.12056 0.93141556
v -1.0000001 -14.12056 0.93141556
v 1.1349964 -13.972219 -2.8356278
v 1.1349964 -16.12056 0.93141556
v 1.1349964 -14.12056 0.93141556
v 1.1349964 -15.977226 -2.7609334
v 1.1349964 -14.381567 -2.928384
v 1.1349964 -15.9707985 -2.9265208
v 1.1349964 -13.96437 -3.092108
v 1.1349964 -16.020363 -3.092362
v 1.1349964 -13.9237175 -4.1393266
v 1.1349964 -15.9237175 -4.1393266
v 1.1349964 -15.977226 -2.7609334
v -1.3055093 -15.977226 -2.7609334
v -1.0000001 -16.12056 0.93141556
v 1.1349964 -16.12056 0.93141556
v -1.0000001 -13.9237175 -4.1393266
v -1.0000001 -15.9237175 -4.1393266
v 1.1349964 -15.9237175 -4.1393266
v 1.1349964 -13.9237175 -4.1393266
v 1.1349964 -14.12056 0.93141556
v 1.1349964 -16.12056 0.93141556
v -1.0000001 -16.12056 0.93141556
v -1.0000001 -14.12056 0.93141556
v 1.1349964 -15.9237175 -4.1393266
v -1.0000001 -15.9237175 -4.1393266
v -1.0040874 -15.964887 -3.0921104
v 1.1349964 -16.020363 -3.092362
v -1.0000001 -13.9237175 -4.1393266
v 1.1349964 -13.9237175 -4.1393266
v 1.1349964 -13.96437 -3.092108
v -1.0000001 -13.96437 -3.092108
v -1.0000001 -15.9237175 -4.1393266
v -1.0000001 -13.9237175 -4.1393266
v -1.0000001 -13.96437 -3.092108
v -1.0040874 -15.964887 -3.0921104
v -1.0000001 -13.96437 -3.092108
v -1.0000001 -14.381567 -2.928384
v -1.0000001 -15.9707985 -2.9265208
v 1.1349964 -15.9707985 -2.9265208
v -1.0000001 -15.9707985 -2.9265208
v -1.3055093 -15.977226 -2.7609334
v 1.1349964 -15.977226 -2.7609334
v -1.0000001 -14.381567 -2.928384
v 1.1349964 -14.381567 -2.928384
v 1.1349964 -13.972219 -2.8356278
v -1.0000001 -13.972219 -2.8356278
v -1.0000001 -15.9707985 -2.9265208
v -1.0000001 -14.381567 -2.928384
v -1.0000001 -13.972219 -2.8356278
v -1.3055093 -15.977226 -2.7609334
v -1.0000001 -13.96437 -3.092108
v 1.1349964 -13.96437 -3.092108
v 1.1349964 -14.381567 -2.928384
v -1.0000001 -14.381567 -2.928384
v 1.1349964 -16.020363 -3.092362
v -1.0040874 -15.964887 -3.0921104
v -1.0000001 -15.9707985 -2.9265208
v 1.1349964 -15.9707985 -2.9265208
v 0.90725285 -14.248678 -3.271168
v -0.75707954 -14.273053 -3.2717226
v -0.87608856 -0.6459522 -2.9616945
v 0.78824383 -0.62157726 -2.96114
v -0.75707954 -14.273053 -3.2717226
v -0.75707954 -14.162992 -3.5991216
v -0.87608856 -0.5358908 -3.2890935
v -0.87608856 -0.6459522 -2.9616945
v -0.75707954 -14.162992 -3.5991216
v 0.90725285 -14.138617 -3.598567
v 0.78824383 -0.51151586 -3.288539
v -0.87608856 -0.5358908 -3.2890935
v 0.90725285 -14.138617 -3.598567
v 0.90725285 -14.248678 -3.271168
v 0.78824383 -0.62157726 -2.96114
v 0.78824383 -0.51151586 -3.288539
v -0.75707954 -14.273053 -3.2717226
v 0.90725285 -14.248678 -3.271168
v 0.90725285 -14.138617 -3.598567
v -0.75707954 -14.162992 -3.5991216
v -0.87608856 -0.5358908 -3.2890935
v 0.78824383 -0.51151586 -3.288539
v 0.78824383 -0.62157726 -2.96114
v -0.87608856 -0.6459522 -2.9616945
vt 0.375 0
vt 0.375 0.25
vt 0.625 0.25
vt 0.625 0
vt 0.375 0.25
vt 0.375 0.5
vt 0.625 0.5
vt 0.625 0.25
vt 0.375 0.5
vt 0.375 0.75
vt 0.625 0.75
vt 0.625 0.5
vt 0.375 0.75
vt 0.375 1
vt 0.625 1
vt 0.625 0.75
vt 0.125 0.5
vt 0.125 0.75
vt 0.375 0.75
vt 0.375 0.5
vt 0.625 0.5
vt 0.625 0.75
vt 0.875 0.75
vt 0.875 0.5
vt 0.44295818 0
vt 0.44295818 0.25
vt 0.625 0.25
vt 0.625 0
vt 0.44295818 0.25
vt 0.44295818 0.5
vt 0.625 0.5
vt 0.625 0.25
vt 0.44295818 0.5
vt 0.625 0.75
vt 0.625 0.5
vt 0.44295818 0.75
vt 0.43479437 0.50000006
vt 0.4347943 0.75000006
vt 0.42663044 0.5
vt 0.42663044 0.75
vt 0.375 0.5
vt 0.375 0.75
vt 0.44295818 0.75
vt 0.44295818 1
vt 0.625 1
vt 0.625 0.75
vt 0.125 0.5
vt 0.125 0.75
vt 0.375 0.75
vt 0.375 0.5
vt 0.625 0.5
vt 0.625 0.75
vt 0.875 0.75
vt 0.875 0.5
vt 0.375 0.75
vt 0.375 1
vt 0.42663044 1
vt 0.42663044 0.75
vt 0.375 0.25
vt 0.375 0.5
vt 0.42663044 0.5
vt 0.42663047 0.25
vt 0.375 0
vt 0.375 0.25
vt 0.42663047 0.25
vt 0.42663044 0
vt 0.42663047 0.25
vt 0.43479434 0.25
vt 0.4347943 0
vt 0.4347943 0.75000006
vt 0.4347943 1
vt 0.44295818 1
vt 0.44295818 0.75
vt 0.43479434 0.25
vt 0.43479437 0.50000006
vt 0.44295818 0.5
vt 0.44295818 0.25
vt 0.4347943 0
vt 0.43479434 0.25
vt 0.44295818 0.25
vt 0.44295818 0
vt 0.42663047 0.25
vt 0.42663044 0.5
vt 0.43479437 0.50000006
vt 0.43479434 0.25
vt 0.42663044 0.75
vt 0.42663044 1
vt 0.4347943 1
vt 0.4347943 0.75000006
vt 0.375 0
vt 0.375 0.25
vt 0.625 0.25
vt 0.625 0
vt 0.375 0.25
vt 0.375 0.5
vt 0.625 0.5
vt 0.625 0.25
vt 0.375 0.5
vt 0.375 0.75
vt 0.625 0.75
vt 0.625 0.5
vt 0.375 0.75
vt 0.375 1
vt 0.625 1
vt 0.625 0.75
vt 0.125 0.5
vt 0.125 0.75
vt 0.375 0.75
vt 0.375 0.5
vt 0.625 0.5
vt 0.625 0.75
vt 0.875 0.75
vt 0.875 0.5
vn -1 0 0
vn -1 0 0
vn -1 0 0
vn -1 0 0
vn -0 0.99924743 0.038789902
vn -0 0.99924743 0.038789902
vn -0 0.99924743 0.038789902
vn -0 0.99924743 0.038789902
vn 1 0 0
vn 1 0 0
vn 1 0 0
vn 1 0 0
vn -0 -0.99924743 -0.038789902
vn -0 -0.99924743 -0.038789902
vn -0 -0.99924743 -0.038789902
vn -0 -0.99924743 -0.038789902
vn -0 0 -1
vn -0 0 -1
vn -0 0 -1
vn -0 0 -1
vn -0 0 1
vn -0 0 1
vn -0 0 1
vn -0 0 1
vn -0.996084 0.076799996 0.043798923
vn -0.996084 0.076799996 0.043798923
vn -0.996084 0.076799996 0.043798923
vn -0.996084 0.076799996 0.043798923
vn -0 0.9992256 0.039347906
vn -0 0.9992256 0.039347906
vn -0 0.9992256 0.039347906
vn -0 0.9992256 0.039347906
vn 1 0 0
vn 1 0 0
vn 1 0 0
vn 1 0 0
vn 1 0 0
vn 1 0 0
vn 1 0 0
vn 1 0 0
vn 1 0 0
vn 1 0 0
vn -0 -0.99924743 -0.0387895
vn -0 -0.99924743 -0.0387895
vn -0 -0.99924743 -0.0387895
vn -0 -0.99924743 -0.0387895
vn -0 0 -1
vn -0 0 -1
vn -0 0 -1
vn -0 0 -1
vn -0 0 1
vn -0 0 1
vn -0 0 1
vn -0 0 1
vn -0.012954421 -0.9977562 -0.065687016
vn -0.012954421 -0.9977562 -0.065687016
vn -0.012954421 -0.9977562 -0.065687016
vn -0.012954421 -0.9977562 -0.065687016
vn -0 0.99924743 0.038789857
vn -0 0.99924743 0.038789857
vn -0 0.99924743 0.038789857
vn -0 0.99924743 0.038789857
vn -0.99999774 0.0010216426 -0.001911598
vn -0.99999774 0.0010216426 -0.001911598
vn -0.99999774 0.0010216426 -0.001911598
vn -0.99999774 0.0010216426 -0.001911598
vn -0.99990296 0.001145702 0.013882481
vn -0.99990296 0.001145702 0.013882481
vn -0.99990296 0.001145702 0.013882481
vn -0 -0.99924743 -0.038787622
vn -0 -0.99924743 -0.038787622
vn -0 -0.99924743 -0.038787622
vn -0 -0.99924743 -0.038787622
vn -0 0.22099312 -0.9752754
vn -0 0.22099312 -0.9752754
vn -0 0.22099312 -0.9752754
vn -0 0.22099312 -0.9752754
vn -0.61738926 0.035739377 -0.78584564
vn -0.61738926 0.035739377 -0.78584564
vn -0.61738926 0.035739377 -0.78584564
vn -0.61738926 0.035739377 -0.78584564
vn -0 0.3653142 0.9308843
vn -0 0.3653142 0.9308843
vn -0 0.3653142 0.9308843
vn -0 0.3653142 0.9308843
vn -0.012859521 -0.99133533 0.13072416
vn -0.012859521 -0.99133533 0.13072416
vn -0.012859521 -0.99133533 0.13072416
vn -0.012859521 -0.99133533 0.13072416
vn -0 -0.02274496 0.99974126
vn -0 -0.02274496 0.99974126
vn -0 -0.02274496 0.99974126
vn -0 -0.02274496 0.99974126
vn -0.9999583 -0.008666615 -0.002913447
vn -0.9999583 -0.008666615 -0.002913447
vn -0.9999583 -0.008666615 -0.002913447
vn -0.9999583 -0.008666615 -0.002913447
vn -0 0.022744961 -0.99974126
vn -0 0.022744961 -0.99974126
vn -0 0.022744961 -0.99974126
vn -0 0.022744961 -0.99974126
vn 0.9999583 0.008666615 0.002913447
vn 0.9999583 0.008666615 0.002913447
vn 0.9999583 0.008666615 0.002913447
vn 0.9999583 0.008666615 0.002913447
vn 0.013986886 -0.9477805 -0.31861633
vn 0.013986886 -0.9477805 -0.31861633
vn 0.013986886 -0.9477805 -0.31861633
vn 0.013986886 -0.9477805 -0.31861633
vn -0.013986895 0.94778115 0.3186146
vn -0.013986895 0.94778115 0.3186146
vn -0.013986895 0.94778115 0.3186146
vn -0.013986895 0.94778115 0.3186146
g Cube.012_0
f 3/3/3 2/2/2 1/1/1
f 4/4/4 3/3/3 1/1/1
f 7/7/7 6/6/6 5/5/5
f 8/8/8 7/7/7 5/5/5
f 11/11/11 10/10/10 9/9/9
f 12/12/12 11/11/11 9/9/9
f 15/15/15 14/14/14 13/13/13
f 16/16/16 15/15/15 13/13/13
f 19/19/19 18/18/18 17/17/17
f 20/20/20 19/19/19 17/17/17
f 23/23/23 22/22/22 21/21/21
f 24/24/24 23/23/23 21/21/21
f 27/27/27 26/26/26 25/25/25
f 28/28/28 27/27/27 25/25/25
f 31/31/31 30/30/30 29/29/29
f 32/32/32 31/31/31 29/29/29
f 35/35/35 34/34/34 33/33/33
f 34/34/34 36/36/36 33/33/33
f 33/33/33 36/36/36 37/37/37
f 36/36/36 38/38/38 37/37/37
f 37/37/37 38/38/38 39/39/39
f 38/38/38 40/40/40 39/39/39
f 39/39/39 40/40/40 41/41/41
f 40/40/40 42/42/42 41/41/41
f 45/45/45 44/44/44 43/43/43
f 46/46/46 45/45/45 43/43/43
f 49/49/49 48/48/48 47/47/47
f 50/50/50 49/49/49 47/47/47
f 53/53/53 52/52/52 51/51/51
f 54/54/54 53/53/53 51/51/51
f 57/57/57 56/56/56 55/55/55
f 58/58/58 57/57/57 55/55/55
f 61/61/61 60/60/60 59/59/59
f 62/62/62 61/61/61 59/59/59
f 65/65/65 64/64/64 63/63/63
f 66/66/66 65/65/65 63/63/63
f 68/68/68 67/67/67 66/66/66
f 69/69/69 68/68/68 66/66/66
f 72/72/72 71/71/71 70/70/70
f 73/73/73 72/72/72 70/70/70
f 76/76/76 75/75/75 74/74/74
f 77/77/77 76/76/76 74/74/74
f 80/80/80 79/79/79 78/78/78
f 81/81/81 80/80/80 78/78/78
f 84/84/84 83/83/83 82/82/82
f 85/85/85 84/84/84 82/82/82
f 88/88/88 87/87/87 86/86/86
f 89/89/89 88/88/88 86/86/86
f 92/92/92 91/91/91 90/90/90
f 93/93/93 92/92/92 90/90/90
f 96/96/96 95/95/95 94/94/94
f 97/97/97 96/96/96 94/94/94
f 100/100/100 99/99/99 98/98/98
f 101/101/101 100/100/100 98/98/98
f 104/104/104 103/103/103 102/102/102
f 105/105/105 104/104/104 102/102/102
f 108/108/108 107/107/107 106/106/106
f 109/109/109 108/108/108 106/106/106
f 112/112/112 111/111/111 110/110/110
f 113/113/113 112/112/112 110/110/110
