g Cube.006
v 14.493767 -1.5029268 3.9994893E-07
v -49.41295 -1.5029263 1.8137393E-07
v -49.412952 -1.0000002 1
v 14.493769 -1.0000007 1.0000004
v 19.191908 -0.42321932 2.3781314
v 14.493767 -6.900266E-07 1.4319997
v -49.41295 -2.0859977E-07 1.4319993
v 18.529709 -0.010043681 3.1804497
v 23.56222 1.5431576 6.7092123
v 18.052055 0.92521745 3.4698572
v 22.562397 1.7909513 7.1472654
v 25.770283 4.156418 12.465098
v 21.841213 2.60692 7.1739235
v 24.652079 4.187076 12.424895
v 25.829838 11.798228 29.296715
v 24.711636 11.828887 29.256512
v 23.845505 4.8464217 12.106582
v 21.823294 3.6023476 6.7318535
v 23.90506 12.488233 28.938198
v 23.825462 5.837958 11.655939
v 23.885017 13.479769 28.487556
v -49.412952 0.9999997 -0.9999999
v 14.493767 1.5029235 2.8073964E-07
v -49.41295 1.502924 6.2164645E-08
v 14.493769 0.9999992 -0.99999964
v 18.456194 2.4829164 2.1585028
v 14.493767 -8.0923587E-07 -1.4319973
v -49.41295 -3.2780906E-07 -1.4319977
v 19.118393 2.0697432 1.3561862
v 22.451399 4.265551 6.084879
v 19.596045 1.1344811 1.0667782
v 23.451221 4.0177603 5.6468287
v 24.527939 6.6375694 11.309414
v 24.172403 3.20179 5.6201696
v 25.646141 6.6069145 11.34962
v 24.587496 14.27938 28.141033
v 25.705698 14.248725 28.181236
v 26.452715 5.9475665 11.667932
v 24.190325 2.206364 6.0622406
v 26.512272 13.589377 28.49955
v 26.47276 4.9560323 12.118576
v 26.532314 12.597844 28.950191
v -49.41295 -3.2780906E-07 -1.4319977
v -49.412952 0.9999997 -0.9999999
v -49.41295 1.502924 6.2164645E-08
v -49.41295 -1.2218788E-06 9.457411E-07
v -49.412952 -1.0000002 -0.9999999
v -49.412952 0.9999997 1
v -49.41295 -1.5029263 1.8137393E-07
v -49.41295 -2.0859977E-07 1.4319993
v -49.412952 -1.0000002 1
v 25.770283 4.156418 12.465098
v 25.829838 11.798228 29.296715
v 26.532314 12.597844 28.950191
v 26.47276 4.9560323 12.118576
v 23.56222 1.5431576 6.7092123
v 24.190325 2.206364 6.0622406
v 19.191908 -0.42321932 2.3781314
v 19.607914 0.13609034 1.5023203
v 24.172403 3.20179 5.6201696
v 14.493767 -1.5029268 3.9994893E-07
v 19.596045 1.1344811 1.0667782
v 14.493769 -1.0000007 -0.99999964
v -49.41295 -1.5029263 1.8137393E-07
v 14.493767 -8.0923587E-07 -1.4319973
v -49.412952 -1.0000002 -0.9999999
v -49.41295 -3.2780906E-07 -1.4319977
v 26.512272 13.589377 28.49955
v 26.532314 12.597844 28.950191
v 25.829838 11.798228 29.296715
v 25.208666 13.038804 28.718872
v 25.705698 14.248725 28.181236
v 24.711636 11.828887 29.256512
v 24.587496 14.27938 28.141033
v 23.90506 12.488233 28.938198
v 23.885017 13.479769 28.487556
v 24.527939 6.6375694 11.309414
v 24.587496 14.27938 28.141033
v 23.885017 13.479769 28.487556
v 23.825462 5.837958 11.655939
v 22.451399 4.265551 6.084879
v 21.823294 3.6023476 6.7318535
v 18.456194 2.4829164 2.1585028
v 18.040188 1.9236093 3.0343158
v 21.841213 2.60692 7.1739235
v 14.493767 1.5029235 2.8073964E-07
v 18.052055 0.92521745 3.4698572
v 14.493769 0.9999992 1.0000004
v -49.41295 1.502924 6.2164645E-08
v 14.493767 -6.900266E-07 1.4319997
v -49.412952 0.9999997 1
v -49.41295 -2.0859977E-07 1.4319993
vt 0 0.31518555
vt 0.24804688 0.9604492
vt 0.25878906 0.953125
vt 0.010864258 0.3083496
vt 0.006378174 0.25146484
vt 0.023880005 0.30541992
vt 0.27197266 0.9501953
vt 0.01777649 0.25268555
vt 0.034240723 0.17773438
vt 0.031173706 0.2553711
vt 0.043182373 0.18481445
vt 0.08520508 0.11602783
vt 0.054779053 0.19177246
vt 0.089660645 0.12756348
vt 0.25927734 0
vt 0.26367188 0.011550903
vt 0.098083496 0.13769531
vt 0.06298828 0.19482422
vt 0.27197266 0.021743774
vt 0.10620117 0.14086914
vt 0.2800293 0.024841309
vt 0.5444336 0.0031490326
vt 0.30395508 0.6557617
vt 0.5551758 0.010025024
vt 0.2932129 0.6489258
vt 0.31079102 0.7104492
vt 0.2800293 0.6455078
vt 0.53125 0
vt 0.2993164 0.71191406
vt 0.33569336 0.77783203
vt 0.28588867 0.71435547
vt 0.32666016 0.78515625
vt 0.38134766 0.83496094
vt 0.3149414 0.7919922
vt 0.37695312 0.8461914
vt 0.5551758 0.9511719
vt 0.55078125 0.96240234
vt 0.3684082 0.8564453
vt 0.30688477 0.7949219
vt 0.54248047 0.97265625
vt 0.36035156 0.859375
vt 0.5341797 0.97558594
vt 0.25610352 0.96972656
vt 0.26904297 0.9667969
vt 0.2800293 0.95996094
vt 0.26391602 0.95996094
vt 0.24780273 0.9667969
vt 0.2800293 0.953125
vt 0.24804688 0.9604492
vt 0.27197266 0.9501953
vt 0.25878906 0.953125
vt 0.64404297 0.0770874
vt 0.7788086 0.0073776245
vt 0.7685547 0
vt 0.6333008 0.06970215
vt 0.60498047 0.12609863
vt 0.59228516 0.12084961
vt 0.5834961 0.19433594
vt 0.5698242 0.19238281
vt 0.58154297 0.12200928
vt 0.57910156 0.25830078
vt 0.55908203 0.19348145
vt 0.5654297 0.26171875
vt 0.7788086 0.99560547
vt 0.5551758 0.2626953
vt 0.765625 0.99902344
vt 0.7548828 1
vt 0.9760742 0.9941406
vt 0.9868164 0.9951172
vt 0.9970703 0.98779297
vt 0.98583984 0.9794922
vt 0.9711914 0.984375
vt 1 0.9746094
vt 0.9741211 0.9711914
vt 0.9951172 0.96484375
vt 0.984375 0.9638672
vt 0.8388672 0.8984375
vt 0.9741211 0.9711914
vt 0.984375 0.9638672
vt 0.8496094 0.8911133
vt 0.80322266 0.85253906
vt 0.81640625 0.84716797
vt 0.7841797 0.7895508
vt 0.79833984 0.78759766
vt 0.82666016 0.84814453
vt 0.7788086 0.7348633
vt 0.80859375 0.7885742
vt 0.79248047 0.73828125
vt 0.9760742 0
vt 0.80322266 0.73876953
vt 0.9892578 0.003353119
vt 1 0.004047394
vn 0.1295166 -0.9902344 -0.04776001
vn -0 -1 0
vn -0 -0.68603516 0.72753906
vn -0.07922363 -0.72998047 0.6791992
vn 0.28222656 -0.9584961 0.03994751
vn -0.26000977 -0.045959473 0.96435547
vn -0 0 1
vn -0.22717285 -0.73291016 0.64160156
vn 0.39526367 -0.90625 0.14916992
vn -0.5786133 -0.088134766 0.81103516
vn -0.29418945 -0.78222656 0.5493164
vn 0.44506836 -0.8457031 0.2939453
vn -0.7680664 -0.19506836 0.61035156
vn -0.34204102 -0.8310547 0.43896484
vn 0.41918945 -0.82714844 0.37402344
vn -0.37402344 -0.84375 0.38452148
vn -0.8876953 -0.32250977 0.32861328
vn -0.80126953 0.5097656 0.31298828
vn -0.90966797 -0.37719727 0.17456055
vn -0.92626953 0.37670898 0.019073486
vn -0.9453125 0.29785156 -0.13183594
vn -0 0.68603516 -0.72753906
vn -0.08258057 0.99316406 -0.0826416
vn -0 1 0
vn 0.11743164 0.65478516 -0.74658203
vn -0.24414062 0.9638672 -0.10772705
vn 0.21679688 -0.012145996 -0.9760742
vn -0 0 -1
vn 0.25732422 0.6923828 -0.6743164
vn -0.31396484 0.92529297 -0.21264648
vn 0.5654297 0.05496216 -0.8227539
vn 0.35791016 0.73779297 -0.5727539
vn -0.36669922 0.8701172 -0.3293457
vn 0.7919922 0.1640625 -0.5883789
vn 0.40356445 0.7998047 -0.44482422
vn -0.40771484 0.83203125 -0.3762207
vn 0.38330078 0.84033203 -0.38305664
vn 0.90527344 0.30126953 -0.29956055
vn 0.81884766 -0.48120117 -0.31298828
vn 0.9116211 0.37304688 -0.17260742
vn 0.9370117 -0.3486328 -0.010124207
vn 0.94677734 -0.29492188 0.13049316
vn -1 0 0
vn -1 0 0
vn -1 0 0
vn -1 0 0
vn -1 0 0
vn -1 0 0
vn -1 0 0
vn -1 0 0
vn -1 0 0
vn 0.44506836 -0.8457031 0.2939453
vn 0.41918945 -0.82714844 0.37402344
vn 0.94677734 -0.29492188 0.13049316
vn 0.9370117 -0.3486328 -0.010124207
vn 0.39526367 -0.90625 0.14916992
vn 0.81884766 -0.48120117 -0.31298828
vn 0.28222656 -0.9584961 0.03994751
vn 0.58447266 -0.58935547 -0.5576172
vn 0.7919922 0.1640625 -0.5883789
vn 0.1295166 -0.9902344 -0.04776001
vn 0.5654297 0.05496216 -0.8227539
vn 0.22387695 -0.6640625 -0.7133789
vn -0 -1 0
vn 0.21679688 -0.012145996 -0.9760742
vn -0 -0.68603516 -0.72753906
vn -0 0 -1
vn -0.021392822 0.41333008 0.91015625
vn -0.021408081 0.41333008 0.91015625
vn -0.021392822 0.41333008 0.91015625
vn -0.021392822 0.41333008 0.91015625
vn -0.021392822 0.41333008 0.91015625
vn -0.021392822 0.41333008 0.91015625
vn -0.021392822 0.41333008 0.91015625
vn -0.021392822 0.41333008 0.91015625
vn -0.021392822 0.41333008 0.91015625
vn -0.36669922 0.8701172 -0.3293457
vn -0.40771484 0.83203125 -0.3762207
vn -0.9453125 0.29785156 -0.13183594
vn -0.92626953 0.37670898 0.019073486
vn -0.31396484 0.92529297 -0.21264648
vn -0.80126953 0.5097656 0.31298828
vn -0.24414062 0.9638672 -0.10772705
vn -0.60253906 0.5957031 0.53125
vn -0.7680664 -0.19506836 0.61035156
vn -0.08258057 0.99316406 -0.0826416
vn -0.5786133 -0.088134766 0.81103516
vn -0.27172852 0.68408203 0.6772461
vn -0 1 0
vn -0.26000977 -0.045959473 0.96435547
vn -0 0.68603516 0.72753906
vn -0 0 1
g Cube.006_0
f 3/3/3 2/2/2 1/1/1
f 4/4/4 3/3/3 1/1/1
f 1/1/1 5/5/5 4/4/4
f 3/3/3 4/4/4 6/6/6
f 7/7/7 3/3/3 6/6/6
f 5/5/5 8/8/8 4/4/4
f 4/4/4 8/8/8 6/6/6
f 5/5/5 9/9/9 8/8/8
f 8/8/8 10/10/10 6/6/6
f 9/9/9 11/11/11 8/8/8
f 8/8/8 11/11/11 10/10/10
f 9/9/9 12/12/12 11/11/11
f 11/11/11 13/13/13 10/10/10
f 12/12/12 14/14/14 11/11/11
f 11/11/11 14/14/14 13/13/13
f 12/12/12 15/15/15 14/14/14
f 15/15/15 16/16/16 14/14/14
f 14/14/14 17/17/17 13/13/13
f 14/14/14 16/16/16 17/17/17
f 13/13/13 17/17/17 18/18/18
f 16/16/16 19/19/19 17/17/17
f 17/17/17 20/20/20 18/18/18
f 17/17/17 19/19/19 20/20/20
f 19/19/19 21/21/21 20/20/20
f 24/24/24 23/23/23 22/22/22
f 23/23/23 25/25/25 22/22/22
f 23/23/23 26/26/26 25/25/25
f 25/25/25 27/27/27 22/22/22
f 27/27/27 28/28/28 22/22/22
f 26/26/26 29/29/29 25/25/25
f 25/25/25 29/29/29 27/27/27
f 26/26/26 30/30/30 29/29/29
f 29/29/29 31/31/31 27/27/27
f 30/30/30 32/32/32 29/29/29
f 29/29/29 32/32/32 31/31/31
f 30/30/30 33/33/33 32/32/32
f 32/32/32 34/34/34 31/31/31
f 33/33/33 35/35/35 32/32/32
f 32/32/32 35/35/35 34/34/34
f 33/33/33 36/36/36 35/35/35
f 36/36/36 37/37/37 35/35/35
f 35/35/35 38/38/38 34/34/34
f 35/35/35 37/37/37 38/38/38
f 34/34/34 38/38/38 39/39/39
f 37/37/37 40/40/40 38/38/38
f 38/38/38 41/41/41 39/39/39
f 38/38/38 40/40/40 41/41/41
f 40/40/40 42/42/42 41/41/41
f 45/45/45 44/44/44 43/43/43
f 46/46/46 45/45/45 43/43/43
f 46/46/46 43/43/43 47/47/47
f 48/48/48 45/45/45 46/46/46
f 49/49/49 46/46/46 47/47/47
f 50/50/50 48/48/48 46/46/46
f 50/50/50 46/46/46 49/49/49
f 51/51/51 50/50/50 49/49/49
f 54/54/54 53/53/53 52/52/52
f 55/55/55 54/54/54 52/52/52
f 55/55/55 52/52/52 56/56/56
f 57/57/57 55/55/55 56/56/56
f 57/57/57 56/56/56 58/58/58
f 59/59/59 57/57/57 58/58/58
f 60/60/60 57/57/57 59/59/59
f 59/59/59 58/58/58 61/61/61
f 62/62/62 60/60/60 59/59/59
f 63/63/63 59/59/59 61/61/61
f 62/62/62 59/59/59 63/63/63
f 61/61/61 64/64/64 63/63/63
f 65/65/65 62/62/62 63/63/63
f 64/64/64 66/66/66 63/63/63
f 65/65/65 63/63/63 67/67/67
f 63/63/63 66/66/66 67/67/67
f 70/70/70 69/69/69 68/68/68
f 71/71/71 70/70/70 68/68/68
f 71/71/71 68/68/68 72/72/72
f 73/73/73 70/70/70 71/71/71
f 74/74/74 71/71/71 72/72/72
f 75/75/75 73/73/73 71/71/71
f 75/75/75 71/71/71 74/74/74
f 76/76/76 75/75/75 74/74/74
f 79/79/79 78/78/78 77/77/77
f 80/80/80 79/79/79 77/77/77
f 80/80/80 77/77/77 81/81/81
f 82/82/82 80/80/80 81/81/81
f 82/82/82 81/81/81 83/83/83
f 84/84/84 82/82/82 83/83/83
f 85/85/85 82/82/82 84/84/84
f 84/84/84 83/83/83 86/86/86
f 87/87/87 85/85/85 84/84/84
f 88/88/88 84/84/84 86/86/86
f 87/87/87 84/84/84 88/88/88
f 88/88/88 86/86/86 89/89/89
f 90/90/90 87/87/87 88/88/88
f 91/91/91 88/88/88 89/89/89
f 92/92/92 90/90/90 88/88/88
f 91/91/91 92/92/92 88/88/88
