g Cube.002
v -0.674171 0.38874447 -2.391521
v -0.674171 0.9227941 -2.391521
v -0.82611513 0.9227941 8.903343
v -0.82611513 0.38874444 8.903343
v -0.674171 0.9227941 -2.391521
v 3.073384 0.9227941 -2.391521
v 3.2253282 0.9227941 8.903343
v -0.82611513 0.9227941 8.903343
v 3.073384 0.9227941 -2.391521
v 3.073384 0.38874447 -2.391521
v 3.2253282 0.38874444 8.903343
v 3.2253282 0.9227941 8.903343
v 3.073384 0.38874447 -2.391521
v -0.674171 0.38874447 -2.391521
v -0.82611513 0.38874444 8.903343
v 3.2253282 0.38874444 8.903343
v -0.674171 0.9227941 -2.391521
v -0.674171 0.38874447 -2.391521
v 3.073384 0.38874447 -2.391521
v 3.073384 0.9227941 -2.391521
v 3.2253282 0.9227941 8.903343
v 3.2253282 0.38874444 8.903343
v -0.82611513 0.38874444 8.903343
v -0.82611513 0.9227941 8.903343
v 2.8663237 -4.9467087 -10.417081
v 2.8663237 17.827148 -2.1115427
v 2.8663237 -4.9467087 -2.1115427
v 2.8663237 17.827148 -10.417081
v 2.8663237 40.63715 -2.1115427
v 2.8663237 40.63715 -10.417081
v 2.8663237 17.827148 -10.417081
v 3.0043776 17.827148 -10.417081
v 3.0043776 17.827148 -2.1115427
v 2.8663237 17.827148 -2.1115427
v 3.0043776 17.827148 -10.417081
v 3.0043776 -4.9467087 -10.417081
v 3.0043776 -4.9467087 -2.1115427
v 3.0043776 17.827148 -2.1115427
v 3.0043776 40.63715 -10.417081
v 3.0043776 40.63715 -2.1115427
v 3.0043776 -4.9467087 -10.417081
v 2.8663237 -4.9467087 -10.417081
v 2.8663237 -4.9467087 -2.1115427
v 3.0043776 -4.9467087 -2.1115427
v 2.8663237 17.827148 -10.417081
v 2.8663237 -4.9467087 -10.417081
v 3.0043776 -4.9467087 -10.417081
v 3.0043776 17.827148 -10.417081
v 2.8663237 40.63715 -10.417081
v 3.0043776 40.63715 -10.417081
v 3.0043776 17.827148 -2.1115427
v 3.0043776 -4.9467087 -2.1115427
v 2.8663237 -4.9467087 -2.1115427
v 2.8663237 17.827148 -2.1115427
v 3.0043776 40.63715 -2.1115427
v 2.8663237 40.63715 -2.1115427
v -0.46628547 -4.9467087 -10.417081
v -0.46628547 17.827148 -2.1115427
v -0.46628547 -4.9467087 -2.1115427
v -0.46628547 17.827148 -10.417081
v -0.46628547 40.63715 -2.1115427
v -0.46628547 40.63715 -10.417081
v -0.46628547 17.827148 -10.417081
v -0.32823157 17.827148 -10.417081
v -0.32823157 17.827148 -2.1115427
v -0.46628547 17.827148 -2.1115427
v -0.32823157 17.827148 -10.417081
v -0.32823157 -4.9467087 -10.417081
v -0.32823157 -4.9467087 -2.1115427
v -0.32823157 17.827148 -2.1115427
v -0.32823157 40.63715 -10.417081
v -0.32823157 40.63715 -2.1115427
v -0.32823157 -4.9467087 -10.417081
v -0.46628547 -4.9467087 -10.417081
v -0.46628547 -4.9467087 -2.1115427
v -0.32823157 -4.9467087 -2.1115427
v -0.46628547 17.827148 -10.417081
v -0.46628547 -4.9467087 -10.417081
v -0.32823157 -4.9467087 -10.417081
v -0.32823157 17.827148 -10.417081
v -0.46628547 40.63715 -10.417081
v -0.32823157 40.63715 -10.417081
v -0.32823157 17.827148 -2.1115427
v -0.32823157 -4.9467087 -2.1115427
v -0.46628547 -4.9467087 -2.1115427
v -0.46628547 17.827148 -2.1115427
v -0.32823157 40.63715 -2.1115427
v -0.46628547 40.63715 -2.1115427
v -0.18927109 0.57647455 -3.6707034
v -0.3912125 0.57647455 -3.6707034
v -0.3912125 0.57647455 1.8144021
v -0.18927109 0.57647455 1.8144021
v -0.674171 23.198746 -2.391521
v -0.674171 23.732796 -2.391521
v -0.82611513 23.732796 8.903343
v -0.82611513 23.198746 8.903343
v -0.674171 23.732796 -2.391521
v 3.073384 23.732796 -2.391521
v 3.2253282 23.732796 8.903343
v -0.82611513 23.732796 8.903343
v 3.073384 23.732796 -2.391521
v 3.073384 23.198746 -2.391521
v 3.2253282 23.198746 8.903343
v 3.2253282 23.732796 8.903343
v 3.073384 23.198746 -2.391521
v -0.674171 23.198746 -2.391521
v -0.82611513 23.198746 8.903343
v 3.2253282 23.198746 8.903343
v -0.674171 23.732796 -2.391521
v -0.674171 23.198746 -2.391521
v 3.073384 23.198746 -2.391521
v 3.073384 23.732796 -2.391521
v 3.2253282 23.732796 8.903343
v 3.2253282 23.198746 8.903343
v -0.82611513 23.198746 8.903343
v -0.82611513 23.732796 8.903343
v -0.3912125 0.57647455 -3.6707034
v 2.7612958 10.098893 -3.6707034
v 2.7612958 10.098893 1.8144021
v -0.3912125 0.57647455 1.8144021
v 2.8860192 10.098893 -3.6707034
v -0.18927109 0.57647455 -3.6707034
v -0.18927109 0.57647455 1.8144021
v 2.8860192 10.098893 1.8144021
v 2.7612958 10.098893 -3.6707034
v -0.3912125 0.57647455 -3.6707034
v -0.18927109 0.57647455 -3.6707034
v 2.8860192 10.098893 -3.6707034
v 2.8860192 11.115762 -3.6707034
v 2.7612958 11.115762 -3.6707034
v -0.3457512 23.375212 -3.6707034
v -0.22102776 23.375212 -3.6707034
v 2.7612958 32.908894 -3.6707034
v 2.8860192 32.908894 -3.6707034
v 2.8860192 33.925762 -3.6707034
v 2.7612958 33.925762 -3.6707034
v -0.3457512 46.18521 -3.6707034
v -0.22102776 46.18521 -3.6707034
v 2.8860192 10.098893 1.8144021
v -0.18927109 0.57647455 1.8144021
v -0.3912125 0.57647455 1.8144021
v 2.7612958 10.098893 1.8144021
v 2.8860192 11.13507 1.8144021
v 2.7612958 11.13507 1.8144021
v -0.22102776 23.375212 1.8144021
v -0.3457512 23.375212 1.8144021
v 2.8860192 32.908894 1.8144021
v 2.7612958 32.908894 1.8144021
v 2.8860192 33.945072 1.8144021
v 2.7612958 33.945072 1.8144021
v -0.22102776 46.18521 1.8144021
v -0.3457512 46.18521 1.8144021
v 2.7612958 10.098893 -3.6707034
v 2.7612958 11.115762 -3.6707034
v 2.7612958 11.13507 1.8144021
v 2.7612958 10.098893 1.8144021
v 2.8860192 10.098893 1.8144021
v 2.8860192 11.13507 1.8144021
v 2.8860192 11.115762 -3.6707034
v 2.8860192 10.098893 -3.6707034
v -0.3457512 23.375212 -3.6707034
v -0.22102776 23.375212 -3.6707034
v -0.22102776 23.375212 1.8144021
v -0.3457512 23.375212 1.8144021
v 2.7612958 11.115762 -3.6707034
v -0.3457512 23.375212 -3.6707034
v -0.3457512 23.375212 1.8144021
v 2.7612958 11.13507 1.8144021
v 2.8860192 11.13507 1.8144021
v -0.22102776 23.375212 1.8144021
v -0.22102776 23.375212 -3.6707034
v 2.8860192 11.115762 -3.6707034
v -0.3457512 23.375212 -3.6707034
v 2.7612958 32.908894 -3.6707034
v 2.7612958 32.908894 1.8144021
v -0.3457512 23.375212 1.8144021
v 2.8860192 32.908894 -3.6707034
v -0.22102776 23.375212 -3.6707034
v -0.22102776 23.375212 1.8144021
v 2.8860192 32.908894 1.8144021
v 2.7612958 32.908894 -3.6707034
v 2.7612958 33.925762 -3.6707034
v 2.7612958 33.945072 1.8144021
v 2.7612958 32.908894 1.8144021
v 2.8860192 32.908894 1.8144021
v 2.8860192 33.945072 1.8144021
v 2.8860192 33.925762 -3.6707034
v 2.8860192 32.908894 -3.6707034
v 2.7612958 33.925762 -3.6707034
v -0.3457512 46.18521 -3.6707034
v -0.3457512 46.18521 1.8144021
v 2.7612958 33.945072 1.8144021
v 2.8860192 33.945072 1.8144021
v -0.22102776 46.18521 1.8144021
v -0.22102776 46.18521 -3.6707034
v 2.8860192 33.925762 -3.6707034
vt 0.43399382 0.3301468
vt 0.43789607 0.3301468
vt 0.43789607 0.24761009
vt 0.43399382 0.24760914
vt 0.3719914 0.4126768
vt 0.39937603 0.4126768
vt 0.40048635 0.33014107
vt 0.37088108 0.33014107
vt 0.43009162 0.41268444
vt 0.43399388 0.4126854
vt 0.43399388 0.3301468
vt 0.43009162 0.3301468
vt 0.3719914 0.08253574
vt 0.39937592 0.08253574
vt 0.40048623 0
vt 0.37088108 0
vt 0.4021008 0.44006157
vt 0.4060033 0.44006157
vt 0.4060033 0.4126768
vt 0.4021008 0.4126768
vt 0.3825885 0.4126768
vt 0.378686 0.4126768
vt 0.378686 0.44228196
vt 0.38258848 0.44228196
vt 0.19191673 0
vt 0.2526076 0.16640759
vt 0.2526076 1.4305115E-06
vt 0.19191673 0.16640615
vt 0.2526076 0.3330779
vt 0.19191673 0.33307648
vt 0.43049243 0.34714508
vt 0.42948368 0.34714508
vt 0.42948368 0.40783596
vt 0.43049243 0.40783596
vt -0.017225474 0.83335876
vt -0.017225474 0.99975586
vt 0.043465406 0.99975586
vt 0.043465406 0.83335876
vt -0.017225474 0.666687
vt 0.043465406 0.666687
vt 0.43150142 0.16507053
vt 0.43049267 0.16507053
vt 0.43049267 0.22576141
vt 0.43150142 0.22576141
vt 0.44448903 0.83340454
vt 0.44448903 0.9998169
vt 0.44549778 0.9998169
vt 0.44549778 0.83340454
vt 0.44448903 0.6667175
vt 0.44549778 0.6667175
vt 0.44549802 0.83340454
vt 0.44549802 0.9998169
vt 0.44650677 0.9998169
vt 0.44650677 0.83340454
vt 0.44549802 0.6667175
vt 0.44650677 0.6667175
vt 0.12138271 0
vt 0.1820736 0.16640759
vt 0.1820736 1.4305115E-06
vt 0.12138271 0.16640615
vt 0.1820736 0.3330779
vt 0.12138271 0.33307648
vt 0.44771808 0.28645325
vt 0.44670928 0.28645325
vt 0.44670928 0.34714413
vt 0.44771808 0.34714413
vt 0.06069088 0.83335876
vt 0.06069088 0.99975586
vt 0.12138176 0.99975586
vt 0.12138176 0.83335876
vt 0.06069088 0.666687
vt 0.12138176 0.666687
vt 0.44670928 0.16507053
vt 0.44570047 0.16507053
vt 0.44570047 0.22576141
vt 0.44670928 0.22576141
vt 0.4596968 0.83340454
vt 0.4596968 0.9998169
vt 0.4607056 0.9998169
vt 0.4607056 0.83340454
vt 0.45969683 0.6667175
vt 0.46070564 0.6667175
vt 0.46070573 0.83340454
vt 0.46070573 0.9998169
vt 0.46171454 0.9998169
vt 0.46171454 0.83340454
vt 0.46070576 0.6667175
vt 0.46171457 0.6667175
vt 0.44717613 0.40783596
vt 0.44570047 0.40783596
vt 0.44570047 0.44791746
vt 0.44717613 0.44791746
vt 0.4339943 0.41268444
vt 0.43789673 0.41268444
vt 0.43789673 0.33014774
vt 0.4339943 0.3301468
vt 0.43120193 0.16507149
vt 0.45858657 0.16507149
vt 0.4596969 0.08253574
vt 0.43009162 0.08253574
vt 0.43009186 0.24760818
vt 0.4339943 0.24760914
vt 0.4339943 0.16507053
vt 0.43009186 0.16507053
vt 0.3719914 0.24760628
vt 0.39937592 0.24760628
vt 0.40048623 0.16507053
vt 0.37088108 0.16507053
vt 0.39819908 0.41267687
vt 0.39429665 0.41267687
vt 0.39429665 0.4400615
vt 0.39819908 0.4400615
vt 0.37478256 0.4126768
vt 0.37088013 0.4126768
vt 0.37088013 0.44228196
vt 0.37478256 0.44228196
vt 0.28295016 0
vt 0.28289962 0.06983131
vt 0.32298112 0.069832206
vt 0.32303166 9.536743E-07
vt 0.24281812 0.93011475
vt 0.24276543 0.99993896
vt 0.28284693 0.99993896
vt 0.28289962 0.93011475
vt 0.34786773 0.069591165
vt 0.37088108 0
vt 0.36940527 4.7683716E-07
vt 0.34695625 0.06959146
vt 0.34695864 0.077022076
vt 0.3478701 0.07702178
vt 0.37060404 0.16659814
vt 0.3696928 0.16659844
vt 0.34792304 0.23627144
vt 0.34701157 0.2362718
vt 0.3470142 0.24370235
vt 0.34792542 0.24370205
vt 0.3706596 0.33327848
vt 0.36974812 0.33327872
vt 0.32303166 0.93040466
vt 0.34548068 1
vt 0.3469565 1
vt 0.32394314 0.93040466
vt 0.3230343 0.9228363
vt 0.32394552 0.9228363
vt 0.3457682 0.83340454
vt 0.34667945 0.83340454
vt 0.32308698 0.7637329
vt 0.32399845 0.7637329
vt 0.3230896 0.7561493
vt 0.32400107 0.7561493
vt 0.34582353 0.6667175
vt 0.346735 0.6667175
vt 0.28289962 0.06983131
vt 0.28289962 0.07726145
vt 0.32298112 0.077403486
vt 0.32298112 0.069832206
vt 0.28289962 0.93011475
vt 0.28289962 0.9225464
vt 0.24281812 0.9226837
vt 0.24281812 0.93011475
vt 0.4480875 0.40783596
vt 0.44717613 0.40783596
vt 0.44717613 0.44791746
vt 0.4480875 0.44791746
vt 0.28289962 0.07726145
vt 0.2829497 0.1665917
vt 0.32303095 0.16659266
vt 0.32298112 0.077403486
vt 0.28289962 0.9225464
vt 0.28284645 0.83335876
vt 0.24276495 0.83335876
vt 0.24281812 0.9226837
vt 0.2829497 0.1665917
vt 0.28289986 0.23650163
vt 0.32298112 0.23650259
vt 0.32303095 0.16659266
vt 0.24281812 0.763443
vt 0.24276495 0.83335876
vt 0.28284645 0.83335876
vt 0.28289962 0.763443
vt 0.28289986 0.23650163
vt 0.28289986 0.24393183
vt 0.32298112 0.24407381
vt 0.32298112 0.23650259
vt 0.28289962 0.763443
vt 0.28289962 0.75587463
vt 0.24281812 0.75601196
vt 0.24281812 0.763443
vt 0.28289986 0.24393183
vt 0.2829497 0.3332621
vt 0.3230312 0.33326298
vt 0.32298112 0.24407381
vt 0.28289962 0.75587463
vt 0.28284645 0.666687
vt 0.24276495 0.666687
vt 0.24281812 0.75601196
vn -0.9999095 0 -0.013451283
vn -0.9999095 0 -0.013451283
vn -0.9999095 0 -0.013451283
vn -0.9999095 0 -0.013451283
vn -0 1 0
vn -0 1 0
vn -0 1 0
vn -0 1 0
vn 0.9999095 0 -0.013451283
vn 0.9999095 0 -0.013451283
vn 0.9999095 0 -0.013451283
vn 0.9999095 0 -0.013451283
vn -0 -1 0
vn -0 -1 0
vn -0 -1 0
vn -0 -1 0
vn -0 0 -1
vn -0 0 -1
vn -0 0 -1
vn -0 0 -1
vn -0 0 1
vn -0 0 1
vn -0 0 1
vn -0 0 1
vn -1 0 0
vn -1 0 0
vn -1 0 0
vn -1 0 0
vn -1 0 0
vn -1 0 0
vn -0 1 0
vn -0 1 0
vn -0 1 0
vn -0 1 0
vn 1 0 0
vn 1 0 0
vn 1 0 0
vn 1 0 0
vn 1 0 0
vn 1 0 0
vn -0 -1 0
vn -0 -1 0
vn -0 -1 0
vn -0 -1 0
vn -0 0 -1
vn -0 0 -1
vn -0 0 -1
vn -0 0 -1
vn -0 0 -1
vn -0 0 -1
vn -0 0 1
vn -0 0 1
vn -0 0 1
vn -0 0 1
vn -0 0 1
vn -0 0 1
vn -1 0 0
vn -1 0 0
vn -1 0 0
vn -1 0 0
vn -1 0 0
vn -1 0 0
vn -0 1 0
vn -0 1 0
vn -0 1 0
vn -0 1 0
vn 1 0 0
vn 1 0 0
vn 1 0 0
vn 1 0 0
vn 1 0 0
vn 1 0 0
vn -0 -1 0
vn -0 -1 0
vn -0 -1 0
vn -0 -1 0
vn -0 0 -1
vn -0 0 -1
vn -0 0 -1
vn -0 0 -1
vn -0 0 -1
vn -0 0 -1
vn -0 0 1
vn -0 0 1
vn -0 0 1
vn -0 0 1
vn -0 0 1
vn -0 0 1
vn -0 -1 0
vn -0 -1 0
vn -0 -1 0
vn -0 -1 0
vn -0.9999095 0 -0.01345128
vn -0.9999095 0 -0.01345128
vn -0.9999095 0 -0.01345128
vn -0.9999095 0 -0.01345128
vn -0 1 0
vn -0 1 0
vn -0 1 0
vn -0 1 0
vn 0.9999095 0 -0.01345128
vn 0.9999095 0 -0.01345128
vn 0.9999095 0 -0.01345128
vn 0.9999095 0 -0.01345128
vn -0 -1 0
vn -0 -1 0
vn -0 -1 0
vn -0 -1 0
vn -0 0 -1
vn -0 0 -1
vn -0 0 -1
vn -0 0 -1
vn -0 0 1
vn -0 0 1
vn -0 0 1
vn -0 0 1
vn -0.94932824 0.31428623 0
vn -0.94932824 0.31428623 0
vn -0.94932824 0.31428623 0
vn -0.94932824 0.31428623 0
vn 0.9516052 -0.3073234 0
vn 0.9516052 -0.3073234 0
vn 0.9516052 -0.3073234 0
vn 0.9516052 -0.3073234 0
vn -0 0 -1
vn -0 0 -1
vn -0 0 -1
vn -0 0 -1
vn -0 0 -1
vn -0 0 -1
vn -0 0 -1
vn -0 0 -1
vn -0 0 -1
vn -0 0 -1
vn -0 0 -1
vn -0 0 -1
vn -0 0 -1
vn -0 0 -1
vn -0 0 1
vn -0 0 1
vn -0 0 1
vn -0 0 1
vn -0 0 1
vn -0 0 1
vn -0 0 1
vn -0 0 1
vn -0 0 1
vn -0 0 1
vn -0 0 1
vn -0 0 1
vn -0 0 1
vn -0 0 1
vn -1 0 0
vn -1 0 0
vn -1 0 0
vn -1 0 0
vn 1 0 0
vn 1 0 0
vn 1 0 0
vn 1 0 0
vn -0 1 0
vn -0 1 0
vn -0 1 0
vn -0 1 0
vn -0.96930635 -0.24585555 0.00043265361
vn -0.96930635 -0.24585555 0.00043265361
vn -0.96930635 -0.24585555 0.00043265361
vn -0.96930635 -0.24585555 0.00043265361
vn 0.96930635 0.24585555 -0.00043265361
vn 0.96930635 0.24585555 -0.00043265361
vn 0.96930635 0.24585555 -0.00043265361
vn 0.96930635 0.24585555 -0.00043265361
vn -0.9507817 0.30986175 0
vn -0.9507817 0.30986175 0
vn -0.9507817 0.30986175 0
vn -0.9507817 0.30986175 0
vn 0.9507817 -0.30986175 0
vn 0.9507817 -0.30986175 0
vn 0.9507817 -0.30986175 0
vn 0.9507817 -0.30986175 0
vn -1 0 0
vn -1 0 0
vn -1 0 0
vn -1 0 0
vn 1 0 0
vn 1 0 0
vn 1 0 0
vn 1 0 0
vn -0.96930635 -0.24585561 0.00043254363
vn -0.96930635 -0.24585561 0.00043254363
vn -0.96930635 -0.24585561 0.00043254363
vn -0.96930635 -0.24585561 0.00043254363
vn 0.96930635 0.24585561 -0.00043254363
vn 0.96930635 0.24585561 -0.00043254363
vn 0.96930635 0.24585561 -0.00043254363
vn 0.96930635 0.24585561 -0.00043254363
g Cube.002_0
f 3/3/3 2/2/2 1/1/1
f 4/4/4 3/3/3 1/1/1
f 7/7/7 6/6/6 5/5/5
f 8/8/8 7/7/7 5/5/5
f 11/11/11 10/10/10 9/9/9
f 12/12/12 11/11/11 9/9/9
f 15/15/15 14/14/14 13/13/13
f 16/16/16 15/15/15 13/13/13
f 19/19/19 18/18/18 17/17/17
f 20/20/20 19/19/19 17/17/17
f 23/23/23 22/22/22 21/21/21
f 24/24/24 23/23/23 21/21/21
f 27/27/27 26/26/26 25/25/25
f 26/26/26 28/28/28 25/25/25
f 26/26/26 29/29/29 28/28/28
f 29/29/29 30/30/30 28/28/28
f 33/33/33 32/32/32 31/31/31
f 34/34/34 33/33/33 31/31/31
f 37/37/37 36/36/36 35/35/35
f 38/38/38 37/37/37 35/35/35
f 38/38/38 35/35/35 39/39/39
f 40/40/40 38/38/38 39/39/39
f 43/43/43 42/42/42 41/41/41
f 44/44/44 43/43/43 41/41/41
f 47/47/47 46/46/46 45/45/45
f 48/48/48 47/47/47 45/45/45
f 48/48/48 45/45/45 49/49/49
f 50/50/50 48/48/48 49/49/49
f 53/53/53 52/52/52 51/51/51
f 54/54/54 53/53/53 51/51/51
f 54/54/54 51/51/51 55/55/55
f 56/56/56 54/54/54 55/55/55
f 59/59/59 58/58/58 57/57/57
f 58/58/58 60/60/60 57/57/57
f 58/58/58 61/61/61 60/60/60
f 61/61/61 62/62/62 60/60/60
f 65/65/65 64/64/64 63/63/63
f 66/66/66 65/65/65 63/63/63
f 69/69/69 68/68/68 67/67/67
f 70/70/70 69/69/69 67/67/67
f 70/70/70 67/67/67 71/71/71
f 72/72/72 70/70/70 71/71/71
f 75/75/75 74/74/74 73/73/73
f 76/76/76 75/75/75 73/73/73
f 79/79/79 78/78/78 77/77/77
f 80/80/80 79/79/79 77/77/77
f 80/80/80 77/77/77 81/81/81
f 82/82/82 80/80/80 81/81/81
f 85/85/85 84/84/84 83/83/83
f 86/86/86 85/85/85 83/83/83
f 86/86/86 83/83/83 87/87/87
f 88/88/88 86/86/86 87/87/87
f 91/91/91 90/90/90 89/89/89
f 92/92/92 91/91/91 89/89/89
f 95/95/95 94/94/94 93/93/93
f 96/96/96 95/95/95 93/93/93
f 99/99/99 98/98/98 97/97/97
f 100/100/100 99/99/99 97/97/97
f 103/103/103 102/102/102 101/101/101
f 104/104/104 103/103/103 101/101/101
f 107/107/107 106/106/106 105/105/105
f 108/108/108 107/107/107 105/105/105
f 111/111/111 110/110/110 109/109/109
f 112/112/112 111/111/111 109/109/109
f 115/115/115 114/114/114 113/113/113
f 116/116/116 115/115/115 113/113/113
g Cube.002_1
f 119/119/119 118/118/118 117/117/117
f 120/120/120 119/119/119 117/117/117
f 123/123/123 122/122/122 121/121/121
f 124/124/124 123/123/123 121/121/121
f 127/127/127 126/126/126 125/125/125
f 128/128/128 127/127/127 125/125/125
f 129/129/129 128/128/128 125/125/125
f 130/130/130 129/129/129 125/125/125
f 130/130/130 131/131/131 129/129/129
f 131/131/131 132/132/132 129/129/129
f 132/132/132 131/131/131 133/133/133
f 134/134/134 132/132/132 133/133/133
f 135/135/135 134/134/134 133/133/133
f 136/136/136 135/135/135 133/133/133
f 136/136/136 137/137/137 135/135/135
f 137/137/137 138/138/138 135/135/135
f 141/141/141 140/140/140 139/139/139
f 142/142/142 141/141/141 139/139/139
f 139/139/139 143/143/143 142/142/142
f 143/143/143 144/144/144 142/142/142
f 143/143/143 145/145/145 144/144/144
f 145/145/145 146/146/146 144/144/144
f 146/146/146 145/145/145 147/147/147
f 148/148/148 146/146/146 147/147/147
f 147/147/147 149/149/149 148/148/148
f 149/149/149 150/150/150 148/148/148
f 149/149/149 151/151/151 150/150/150
f 151/151/151 152/152/152 150/150/150
f 155/155/155 154/154/154 153/153/153
f 156/156/156 155/155/155 153/153/153
f 159/159/159 158/158/158 157/157/157
f 160/160/160 159/159/159 157/157/157
f 163/163/163 162/162/162 161/161/161
f 164/164/164 163/163/163 161/161/161
f 167/167/167 166/166/166 165/165/165
f 168/168/168 167/167/167 165/165/165
f 171/171/171 170/170/170 169/169/169
f 172/172/172 171/171/171 169/169/169
f 175/175/175 174/174/174 173/173/173
f 176/176/176 175/175/175 173/173/173
f 179/179/179 178/178/178 177/177/177
f 180/180/180 179/179/179 177/177/177
f 183/183/183 182/182/182 181/181/181
f 184/184/184 183/183/183 181/181/181
f 187/187/187 186/186/186 185/185/185
f 188/188/188 187/187/187 185/185/185
f 191/191/191 190/190/190 189/189/189
f 192/192/192 191/191/191 189/189/189
f 195/195/195 194/194/194 193/193/193
f 196/196/196 195/195/195 193/193/193
