g Cube
v 1 -0.3333333 -0.30128086
v 1 -1 -0.30128086
v 1 -1 1
v 1 -0.3333333 1
v 1 0.3333333 -0.30128086
v 1 0.3333333 1
v 1 -1 -0.30128086
v -1 -1 -0.30128086
v -1 -1 1
v 1 -1 1
v 1 -0.3333333 1
v 1 -1 1
v -1 -1 1
v -1 -0.3333333 1
v 1 0.3333333 1
v -1 0.3333333 1
v -1 -1 -0.30128086
v -1 -0.3333333 1
v -1 -1 1
v -1 -0.3333333 -0.30128086
v -1 0.3333333 1
v -1 0.3333333 -0.30128086
v -0.93797535 0.32875043 -0.52822304
v -0.93797535 0.9954172 -0.52822304
v -1.2386197 0.9954172 0.7378516
v -1.2386197 0.32875043 0.7378516
v -0.93797535 0.9954172 -0.52822304
v 1.0079145 0.9954172 -0.066148534
v 0.70727015 0.9954172 1.199926
v -1.2386197 0.9954172 0.7378516
v 0.70727015 0.9954172 1.199926
v 0.70727015 0.32875043 1.199926
v -1.2386197 0.32875043 0.7378516
v -1.2386197 0.9954172 0.7378516
v 1.0079145 0.9954172 -0.066148534
v 1.0079145 0.32875043 -0.066148534
v 0.70727015 0.32875043 1.199926
v 0.70727015 0.9954172 1.199926
v -0.966763 -0.26944622 -0.9977932
v -1.0093544 -0.934751 -0.9977932
v 0.98655975 -1.062525 -0.9977932
v 1.0291512 -0.3972204 -0.9977932
v -0.9241718 0.3958586 -0.9977932
v 1.0717427 0.26808423 -0.9977932
v -0.966763 -0.26944622 -0.9977932
v -0.9241718 0.3958586 -0.9977932
v -0.9241718 0.3958586 -0.299074
v -0.966763 -0.26944622 -0.299074
v -1.0093544 -0.934751 -0.9977932
v -1.0093544 -0.934751 -0.299074
v 1.0717427 0.26808423 -0.9977932
v 1.0291512 -0.3972204 -0.299074
v 1.0717427 0.26808423 -0.299074
v 1.0291512 -0.3972204 -0.9977932
v 0.98655975 -1.062525 -0.299074
v 0.98655975 -1.062525 -0.9977932
v 0.98655975 -1.062525 -0.9977932
v -1.0093544 -0.934751 -0.9977932
v -1.0093544 -0.934751 -0.299074
v 0.98655975 -1.062525 -0.299074
v -0.7659103 1.029479 -1.2022839
v -0.7936299 0.36339745 -1.1988683
v 1.15338 0.2846815 -0.7483596
v 1.1810995 0.950763 -0.7517753
v 1.1810995 0.950763 -0.7517753
v 1.15338 0.2846815 -0.7483596
v 0.9976533 0.2946224 -0.0736018
v 1.0239891 0.9607923 -0.071022525
v -0.7659103 1.029479 -1.2022839
v 1.1810995 0.950763 -0.7517753
v 1.0239891 0.9607923 -0.071022525
v -0.92302066 1.0395082 -0.5215309
v -0.7936299 0.36339745 -1.1988683
v -0.7659103 1.029479 -1.2022839
v -0.92302066 1.0395082 -0.5215309
v -0.95074 0.3734267 -0.5181153
v -0.7936299 0.36339745 -1.1988683
v -0.95074 0.3734267 -0.5181153
v 0.9976533 0.2946224 -0.0736018
v 1.15338 0.2846815 -0.7483596
v -0.92302066 1.0395082 -0.5215309
v 1.0239891 0.9607923 -0.071022525
v 0.9976533 0.2946224 -0.0736018
v -0.95074 0.3734267 -0.5181153
v -0.9241718 0.3958586 -0.299074
v 1.0717427 0.26808423 -0.299074
v 1.0291512 -0.3972204 -0.299074
v 0.98655975 -1.062525 -0.299074
v -0.966763 -0.26944622 -0.299074
v -1.0093544 -0.934751 -0.299074
v 1.0079145 0.9954172 -0.066148534
v -0.93797535 0.9954172 -0.52822304
v -0.93797535 0.32875043 -0.52822304
v 1.0079145 0.32875043 -0.066148534
v -1 -1 -0.30128086
v 1 -1 -0.30128086
v 1 -0.3333333 -0.30128086
v 1 0.3333333 -0.30128086
v -1 0.3333333 -0.30128086
v -1 -0.3333333 -0.30128086
v -1.2386197 0.32875043 0.7378516
v 0.70727015 0.32875043 1.199926
v 1.0079145 0.32875043 -0.066148534
v -0.93797535 0.32875043 -0.52822304
v 1 0.3333333 1
v -1 0.3333333 1
v -1 0.3333333 -0.30128086
v 1 0.3333333 -0.30128086
v 1.0717427 0.26808423 -0.9977932
v 1.0717427 0.26808423 -0.299074
v -0.9241718 0.3958586 -0.299074
v -0.9241718 0.3958586 -0.9977932
vt 0.17053223 0.55126953
vt 0.25317383 0.55126953
vt 0.25317383 0.33642578
vt 0.17053223 0.33642578
vt 0.088012695 0.55126953
vt 0.088012695 0.33642578
vt 0.25048828 0.54248047
vt 0.49829102 0.54248047
vt 0.49829102 0.32763672
vt 0.25048828 0.32763672
vt 0.5029297 0.5541992
vt 0.5029297 0.6645508
vt 0.75097656 0.6645508
vt 0.75097656 0.5541992
vt 0.5029297 0.44433594
vt 0.75097656 0.44433594
vt 0.49829102 0.11273193
vt 0.41552734 0.32763672
vt 0.49829102 0.32763672
vt 0.41552734 0.11273193
vt 0.3330078 0.32763672
vt 0.3330078 0.11273193
vt 0.3330078 0.11273193
vt 0.25048828 0.11273193
vt 0.25048828 0.32763672
vt 0.3330078 0.32763672
vt 0.5 0.7807617
vt 0.2524414 0.7807617
vt 0.2524414 0.99560547
vt 0.5 0.99560547
vt 0.5029297 0.33422852
vt 0.5029297 0.44433594
vt 0.75097656 0.44433594
vt 0.75097656 0.33422852
vt 0.005432129 0.55126953
vt 0.088012695 0.55126953
vt 0.088012695 0.33642578
vt 0.005432129 0.33642578
vt 0.99560547 0.4404297
vt 0.99560547 0.33032227
vt 0.7480469 0.33032227
vt 0.7480469 0.4404297
vt 0.99560547 0.55029297
vt 0.7480469 0.55029297
vt 0.41552734 -0.0026493073
vt 0.3330078 -0.0026493073
vt 0.3330078 0.11273193
vt 0.41552734 0.11273193
vt 0.49829102 -0.0026493073
vt 0.49829102 0.11273193
vt 0.088012695 0.6665039
vt 0.17053223 0.55126953
vt 0.088012695 0.55126953
vt 0.17053223 0.6665039
vt 0.25317383 0.55126953
vt 0.25317383 0.6665039
vt 0.25048828 0.65771484
vt 0.49829102 0.65771484
vt 0.49829102 0.54248047
vt 0.25048828 0.54248047
vt 0.99560547 0.66064453
vt 0.99560547 0.55029297
vt 0.7480469 0.55029297
vt 0.7480469 0.66064453
vt 0.005432129 0.6665039
vt 0.088012695 0.6665039
vt 0.088012695 0.55126953
vt 0.005432129 0.55126953
vt 0.5 0.66552734
vt 0.2524414 0.66552734
vt 0.2524414 0.7807617
vt 0.5 0.7807617
vt 0.3330078 -0.0026493073
vt 0.25048828 -0.0026493073
vt 0.25048828 0.11273193
vt 0.3330078 0.11273193
vt 0.99560547 0.55029297
vt 0.99560547 0.55029297
vt 0.7480469 0.55029297
vt 0.7480469 0.55029297
vt 0.25048828 0.11273193
vt 0.005432129 0.55126953
vt 0.7480469 0.55029297
vt 0.3330078 0.11273193
vt 0.3330078 0.11273193
vt 0.088012695 0.55126953
vt 0.17053223 0.55126953
vt 0.25048828 0.54248047
vt 0.41552734 0.11273193
vt 0.49829102 0.11273193
vt 0.2524414 0.7807617
vt 0.5 0.7807617
vt 0.3330078 0.11273193
vt 0.088012695 0.55126953
vt 0.49829102 0.11273193
vt 0.25048828 0.54248047
vt 0.17053223 0.55126953
vt 0.088012695 0.55126953
vt 0.3330078 0.11273193
vt 0.41552734 0.11273193
vt 0.3330078 0.32763672
vt 0.088012695 0.33642578
vt 0.088012695 0.55126953
vt 0.3330078 0.11273193
vt 0.088012695 0.33642578
vt 0.3330078 0.32763672
vt 0.3330078 0.11273193
vt 0.088012695 0.55126953
vt 0.088012695 0.6665039
vt 0.088012695 0.55126953
vt 0.3330078 0.11273193
vt 0.3330078 -0.0026493073
vn 1 0 0
vn 1 0 0
vn 1 0 0
vn 1 0 0
vn 1 0 0
vn 1 0 0
vn -0 -1 0
vn -0 -1 0
vn -0 -1 0
vn -0 -1 0
vn -0 0 1
vn -0 0 1
vn -0 0 1
vn -0 0 1
vn -0 0 1
vn -0 0 1
vn -1 0 0
vn -1 0 0
vn -1 0 0
vn -1 0 0
vn -1 0 0
vn -1 0 0
vn -0.97314453 0 -0.2310791
vn -0.97314453 0 -0.2310791
vn -0.97314453 0 -0.2310791
vn -0.97314453 0 -0.2310791
vn -0 1 0
vn -0 1 0
vn -0 1 0
vn -0 1 0
vn -0.2310791 0 0.97314453
vn -0.2310791 0 0.97314453
vn -0.2310791 0 0.97314453
vn -0.2310791 0 0.97314453
vn 0.97314453 0 0.2310791
vn 0.97314453 0 0.2310791
vn 0.97314453 0 0.2310791
vn 0.97314453 0 0.2310791
vn -0 0 -1
vn -0 0 -1
vn -0 0 -1
vn -0 0 -1
vn -0 0 -1
vn -0 0 -1
vn -0.9980469 0.06390381 0
vn -0.9980469 0.06390381 0
vn -0.9980469 0.06390381 0
vn -0.9980469 0.06390381 0
vn -0.9980469 0.06390381 0
vn -0.9980469 0.06390381 0
vn 0.9980469 -0.06390381 0
vn 0.9980469 -0.06390381 0
vn 0.9980469 -0.06390381 0
vn 0.9980469 -0.06390381 0
vn 0.9980469 -0.06390381 0
vn 0.9980469 -0.06390381 0
vn -0.06390381 -0.9980469 0
vn -0.06390381 -0.9980469 0
vn -0.06390381 -0.9980469 0
vn -0.06390381 -0.9980469 0
vn 0.22485352 -0.014350891 -0.9741211
vn 0.22485352 -0.014350891 -0.9741211
vn 0.22485352 -0.014350891 -0.9741211
vn 0.22485352 -0.014350891 -0.9741211
vn 0.9736328 -0.039367676 0.22521973
vn 0.9736328 -0.039367676 0.22521973
vn 0.9736328 -0.039367676 0.22521973
vn 0.9736328 -0.039367676 0.22521973
vn 0.04156494 0.99902344 -0.0051231384
vn 0.04156494 0.99902344 -0.0051231384
vn 0.04156494 0.99902344 -0.0051231384
vn 0.04156494 0.99902344 -0.0051231384
vn -0.9736328 0.039367676 -0.22521973
vn -0.9736328 0.039367676 -0.22521973
vn -0.9736328 0.039367676 -0.22521973
vn -0.9736328 0.039367676 -0.22521973
vn -0.04156494 -0.99902344 0.0051231384
vn -0.04156494 -0.99902344 0.0051231384
vn -0.04156494 -0.99902344 0.0051231384
vn -0.04156494 -0.99902344 0.0051231384
vn -0.22351074 0.009681702 0.9746094
vn -0.22351074 0.009681702 0.9746094
vn -0.22351074 0.009681702 0.9746094
vn -0.22351074 0.009681702 0.9746094
vn -0 0 1
vn -0 0 1
vn -0 0 1
vn -0 0 1
vn -0 0 1
vn -0 0 1
vn 0.2310791 0 -0.97314453
vn 0.2310791 0 -0.97314453
vn 0.2310791 0 -0.97314453
vn 0.2310791 0 -0.97314453
vn -0 0 -1
vn -0 0 -1
vn -0 0 -1
vn -0 0 -1
vn -0 0 -1
vn -0 0 -1
vn -0 -1 0
vn -0 -1 0
vn -0 -1 0
vn -0 -1 0
vn -0 1 0
vn -0 1 0
vn -0 1 0
vn -0 1 0
vn 0.06390381 0.9980469 0
vn 0.06390381 0.9980469 0
vn 0.06390381 0.9980469 0
vn 0.06390381 0.9980469 0
g Cube_0
f 3/3/3 2/2/2 1/1/1
f 4/4/4 3/3/3 1/1/1
f 4/4/4 1/1/1 5/5/5
f 6/6/6 4/4/4 5/5/5
f 9/9/9 8/8/8 7/7/7
f 10/10/10 9/9/9 7/7/7
f 13/13/13 12/12/12 11/11/11
f 14/14/14 13/13/13 11/11/11
f 14/14/14 11/11/11 15/15/15
f 16/16/16 14/14/14 15/15/15
f 19/19/19 18/18/18 17/17/17
f 18/18/18 20/20/20 17/17/17
f 18/18/18 21/21/21 20/20/20
f 21/21/21 22/22/22 20/20/20
f 25/25/25 24/24/24 23/23/23
f 26/26/26 25/25/25 23/23/23
f 29/29/29 28/28/28 27/27/27
f 30/30/30 29/29/29 27/27/27
f 33/33/33 32/32/32 31/31/31
f 34/34/34 33/33/33 31/31/31
f 37/37/37 36/36/36 35/35/35
f 38/38/38 37/37/37 35/35/35
f 41/41/41 40/40/40 39/39/39
f 42/42/42 41/41/41 39/39/39
f 42/42/42 39/39/39 43/43/43
f 44/44/44 42/42/42 43/43/43
f 47/47/47 46/46/46 45/45/45
f 48/48/48 47/47/47 45/45/45
f 48/48/48 45/45/45 49/49/49
f 50/50/50 48/48/48 49/49/49
f 53/53/53 52/52/52 51/51/51
f 52/52/52 54/54/54 51/51/51
f 52/52/52 55/55/55 54/54/54
f 55/55/55 56/56/56 54/54/54
f 59/59/59 58/58/58 57/57/57
f 60/60/60 59/59/59 57/57/57
f 63/63/63 62/62/62 61/61/61
f 64/64/64 63/63/63 61/61/61
f 67/67/67 66/66/66 65/65/65
f 68/68/68 67/67/67 65/65/65
f 71/71/71 70/70/70 69/69/69
f 72/72/72 71/71/71 69/69/69
f 75/75/75 74/74/74 73/73/73
f 76/76/76 75/75/75 73/73/73
f 79/79/79 78/78/78 77/77/77
f 80/80/80 79/79/79 77/77/77
f 83/83/83 82/82/82 81/81/81
f 84/84/84 83/83/83 81/81/81
f 87/87/87 86/86/86 85/85/85
f 85/85/85 88/88/88 87/87/87
f 85/85/85 89/89/89 88/88/88
f 89/89/89 90/90/90 88/88/88
f 93/93/93 92/92/92 91/91/91
f 94/94/94 93/93/93 91/91/91
f 97/97/97 96/96/96 95/95/95
f 95/95/95 98/98/98 97/97/97
f 95/95/95 99/99/99 98/98/98
f 95/95/95 100/100/100 99/99/99
f 103/103/103 102/102/102 101/101/101
f 104/104/104 103/103/103 101/101/101
f 107/107/107 106/106/106 105/105/105
f 108/108/108 107/107/107 105/105/105
f 111/111/111 110/110/110 109/109/109
f 112/112/112 111/111/111 109/109/109
