g Cube.003
v 2.8663237 86.25716 -10.417081
v 3.0043776 86.25716 -10.417081
v 3.0043776 86.25716 -2.1115427
v 2.8663237 86.25716 -2.1115427
v -0.46628547 86.25716 -10.417081
v -0.32823157 86.25716 -10.417081
v -0.32823157 86.25716 -2.1115427
v -0.46628547 86.25716 -2.1115427
v -0.674171 91.62875 -2.391521
v -0.674171 92.162796 -2.391521
v -0.82611513 92.162796 8.903343
v -0.82611513 91.62875 8.903343
v -0.674171 92.162796 -2.391521
v 3.073384 92.162796 -2.391521
v 3.2253282 92.162796 8.903343
v -0.82611513 92.162796 8.903343
v 3.073384 92.162796 -2.391521
v 3.073384 91.62875 -2.391521
v 3.2253282 91.62875 8.903343
v 3.2253282 92.162796 8.903343
v 3.073384 91.62875 -2.391521
v -0.674171 91.62875 -2.391521
v -0.82611513 91.62875 8.903343
v 3.2253282 91.62875 8.903343
v -0.674171 92.162796 -2.391521
v -0.674171 91.62875 -2.391521
v 3.073384 91.62875 -2.391521
v 3.073384 92.162796 -2.391521
v 3.2253282 92.162796 8.903343
v 3.2253282 91.62875 8.903343
v -0.82611513 91.62875 8.903343
v -0.82611513 92.162796 8.903343
v 2.8663237 86.25716 -10.417081
v 2.8663237 109.067154 -2.1115427
v 2.8663237 86.25716 -2.1115427
v 2.8663237 109.067154 -10.417081
v 2.8663237 131.87715 -2.1115427
v 2.8663237 131.87715 -10.417081
v 2.8663237 109.067154 -10.417081
v 3.0043776 109.067154 -10.417081
v 3.0043776 109.067154 -2.1115427
v 2.8663237 109.067154 -2.1115427
v 3.0043776 109.067154 -10.417081
v 3.0043776 86.25716 -10.417081
v 3.0043776 86.25716 -2.1115427
v 3.0043776 109.067154 -2.1115427
v 3.0043776 131.87715 -10.417081
v 3.0043776 131.87715 -2.1115427
v 2.8663237 109.067154 -10.417081
v 2.8663237 86.25716 -10.417081
v 3.0043776 86.25716 -10.417081
v 3.0043776 109.067154 -10.417081
v 2.8663237 131.87715 -10.417081
v 3.0043776 131.87715 -10.417081
v 3.0043776 109.067154 -2.1115427
v 3.0043776 86.25716 -2.1115427
v 2.8663237 86.25716 -2.1115427
v 2.8663237 109.067154 -2.1115427
v 3.0043776 131.87715 -2.1115427
v 2.8663237 131.87715 -2.1115427
v -0.46628547 86.25716 -10.417081
v -0.46628547 109.067154 -2.1115427
v -0.46628547 86.25716 -2.1115427
v -0.46628547 109.067154 -10.417081
v -0.46628547 131.87715 -2.1115427
v -0.46628547 131.87715 -10.417081
v -0.46628547 109.067154 -10.417081
v -0.32823157 109.067154 -10.417081
v -0.32823157 109.067154 -2.1115427
v -0.46628547 109.067154 -2.1115427
v -0.32823157 109.067154 -10.417081
v -0.32823157 86.25716 -10.417081
v -0.32823157 86.25716 -2.1115427
v -0.32823157 109.067154 -2.1115427
v -0.32823157 131.87715 -10.417081
v -0.32823157 131.87715 -2.1115427
v -0.46628547 109.067154 -10.417081
v -0.46628547 86.25716 -10.417081
v -0.32823157 86.25716 -10.417081
v -0.32823157 109.067154 -10.417081
v -0.46628547 131.87715 -10.417081
v -0.32823157 131.87715 -10.417081
v -0.32823157 109.067154 -2.1115427
v -0.32823157 86.25716 -2.1115427
v -0.46628547 86.25716 -2.1115427
v -0.46628547 109.067154 -2.1115427
v -0.32823157 131.87715 -2.1115427
v -0.46628547 131.87715 -2.1115427
v -0.674171 114.43875 -2.391521
v -0.674171 114.97279 -2.391521
v -0.82611513 114.97279 8.903343
v -0.82611513 114.43875 8.903343
v -0.674171 114.97279 -2.391521
v 3.073384 114.97279 -2.391521
v 3.2253282 114.97279 8.903343
v -0.82611513 114.97279 8.903343
v 3.073384 114.97279 -2.391521
v 3.073384 114.43875 -2.391521
v 3.2253282 114.43875 8.903343
v 3.2253282 114.97279 8.903343
v 3.073384 114.43875 -2.391521
v -0.674171 114.43875 -2.391521
v -0.82611513 114.43875 8.903343
v 3.2253282 114.43875 8.903343
v -0.674171 114.97279 -2.391521
v -0.674171 114.43875 -2.391521
v 3.073384 114.43875 -2.391521
v 3.073384 114.97279 -2.391521
v 3.2253282 114.97279 8.903343
v 3.2253282 114.43875 8.903343
v -0.82611513 114.43875 8.903343
v -0.82611513 114.97279 8.903343
v 2.8663237 131.87715 -10.417081
v 3.0043776 131.87715 -10.417081
v 3.0043776 131.87715 -2.1115427
v 2.8663237 131.87715 -2.1115427
v -0.46628547 131.87715 -10.417081
v -0.32823157 131.87715 -10.417081
v -0.32823157 131.87715 -2.1115427
v -0.46628547 131.87715 -2.1115427
v -0.3457512 91.80522 -3.6707034
v -0.22102776 91.80522 -3.6707034
v -0.22102776 91.80522 1.8144021
v -0.3457512 91.80522 1.8144021
v -0.3457512 91.80522 -3.6707034
v 2.7612958 101.3389 -3.6707034
v 2.7612958 101.3389 1.8144021
v -0.3457512 91.80522 1.8144021
v 2.8860192 101.3389 -3.6707034
v -0.22102776 91.80522 -3.6707034
v -0.22102776 91.80522 1.8144021
v 2.8860192 101.3389 1.8144021
v 2.7612958 101.3389 -3.6707034
v -0.3457512 91.80522 -3.6707034
v -0.22102776 91.80522 -3.6707034
v 2.8860192 101.3389 -3.6707034
v 2.8860192 102.35577 -3.6707034
v 2.7612958 102.35577 -3.6707034
v -0.3457512 114.61522 -3.6707034
v -0.22102776 114.61522 -3.6707034
v 2.7612958 124.148895 -3.6707034
v 2.8860192 124.148895 -3.6707034
v 2.8860192 125.165764 -3.6707034
v 2.7612958 125.165764 -3.6707034
v -0.3457512 137.42522 -3.6707034
v -0.22102776 137.42522 -3.6707034
v 2.8860192 101.3389 1.8144021
v -0.22102776 91.80522 1.8144021
v -0.3457512 91.80522 1.8144021
v 2.7612958 101.3389 1.8144021
v 2.8860192 102.37508 1.8144021
v 2.7612958 102.37508 1.8144021
v -0.22102776 114.61522 1.8144021
v -0.3457512 114.61522 1.8144021
v 2.8860192 124.148895 1.8144021
v 2.7612958 124.148895 1.8144021
v 2.8860192 125.185074 1.8144021
v 2.7612958 125.185074 1.8144021
v -0.22102776 137.42522 1.8144021
v -0.3457512 137.42522 1.8144021
v 2.7612958 101.3389 -3.6707034
v 2.7612958 102.35577 -3.6707034
v 2.7612958 102.37508 1.8144021
v 2.7612958 101.3389 1.8144021
v 2.8860192 101.3389 1.8144021
v 2.8860192 102.37508 1.8144021
v 2.8860192 102.35577 -3.6707034
v 2.8860192 101.3389 -3.6707034
v -0.3457512 114.61522 -3.6707034
v -0.22102776 114.61522 -3.6707034
v -0.22102776 114.61522 1.8144021
v -0.3457512 114.61522 1.8144021
v 2.7612958 102.35577 -3.6707034
v -0.3457512 114.61522 -3.6707034
v -0.3457512 114.61522 1.8144021
v 2.7612958 102.37508 1.8144021
v 2.8860192 102.37508 1.8144021
v -0.22102776 114.61522 1.8144021
v -0.22102776 114.61522 -3.6707034
v 2.8860192 102.35577 -3.6707034
v -0.3457512 114.61522 -3.6707034
v 2.7612958 124.148895 -3.6707034
v 2.7612958 124.148895 1.8144021
v -0.3457512 114.61522 1.8144021
v 2.8860192 124.148895 -3.6707034
v -0.22102776 114.61522 -3.6707034
v -0.22102776 114.61522 1.8144021
v 2.8860192 124.148895 1.8144021
v 2.7612958 124.148895 -3.6707034
v 2.7612958 125.165764 -3.6707034
v 2.7612958 125.185074 1.8144021
v 2.7612958 124.148895 1.8144021
v 2.8860192 124.148895 1.8144021
v 2.8860192 125.185074 1.8144021
v 2.8860192 125.165764 -3.6707034
v 2.8860192 124.148895 -3.6707034
v -0.3457512 137.42522 -3.6707034
v -0.22102776 137.42522 -3.6707034
v -0.22102776 137.42522 1.8144021
v -0.3457512 137.42522 1.8144021
v 2.7612958 125.165764 -3.6707034
v -0.3457512 137.42522 -3.6707034
v -0.3457512 137.42522 1.8144021
v 2.7612958 125.185074 1.8144021
v 2.8860192 125.185074 1.8144021
v -0.22102776 137.42522 1.8144021
v -0.22102776 137.42522 -3.6707034
v 2.8860192 125.165764 -3.6707034
vt 0.43251017 0.16507053
vt 0.43150142 0.16507053
vt 0.43150142 0.22576141
vt 0.43251017 0.22576141
vt 0.4467093 0.22576237
vt 0.4457005 0.22576237
vt 0.4457005 0.28645325
vt 0.4467093 0.28645325
vt 0.44179535 0.3301468
vt 0.44569397 0.3301468
vt 0.44569397 0.24761009
vt 0.44179535 0.24760914
vt 0.3719914 0.16507149
vt 0.39937603 0.16507149
vt 0.40048635 0.08253574
vt 0.37088108 0.08253574
vt 0.43789673 0.41268444
vt 0.44179535 0.4126854
vt 0.44179535 0.3301468
vt 0.43789673 0.3301468
vt 0.40159655 0.33014202
vt 0.42898107 0.33014202
vt 0.43009138 0.24760628
vt 0.40048623 0.24760628
vt 0.40990448 0.4126768
vt 0.40600586 0.4126768
vt 0.40600586 0.44006145
vt 0.40990448 0.44006145
vt 0.3903885 0.4126768
vt 0.38648987 0.4126768
vt 0.38648987 0.44228196
vt 0.3903885 0.44228196
vt 0.19191673 0.6664176
vt 0.2526076 0.83308935
vt 0.2526076 0.666419
vt 0.19191673 0.8330879
vt 0.2526076 0.99975944
vt 0.19191673 0.999758
vt 0.43150142 0.22576237
vt 0.43049267 0.22576237
vt 0.43049267 0.28645325
vt 0.43150142 0.28645325
vt -0.017225474 0.16667175
vt -0.017225474 0.3333435
vt 0.043465406 0.3333435
vt 0.043465406 0.16667175
vt -0.017225474 0
vt 0.043465406 0
vt 0.44448903 0.16668701
vt 0.44448903 0.33335876
vt 0.44549778 0.33335876
vt 0.44549802 0.16668701
vt 0.44448903 0
vt 0.44549802 0
vt 0.44549802 0.16668701
vt 0.44549802 0.33335876
vt 0.44650677 0.33335876
vt 0.446507 0.16668701
vt 0.44549802 0
vt 0.446507 0
vt 0.12138271 0.6664176
vt 0.1820736 0.83308935
vt 0.1820736 0.666419
vt 0.12138271 0.8330879
vt 0.1820736 0.9997597
vt 0.12138271 0.99975824
vt 0.4467093 0.28645325
vt 0.4457005 0.28645325
vt 0.4457005 0.34714413
vt 0.4467093 0.34714413
vt 0.06069088 0.16667175
vt 0.06069088 0.3333435
vt 0.12138176 0.3333435
vt 0.12138176 0.16667175
vt 0.06069088 0
vt 0.12138176 0
vt 0.45969686 0.16668701
vt 0.45969686 0.33335876
vt 0.46070567 0.33335876
vt 0.46070567 0.16668701
vt 0.4596969 0
vt 0.4607057 0
vt 0.4607058 0.16668701
vt 0.4607058 0.33335876
vt 0.4617146 0.33335876
vt 0.4617146 0.16668701
vt 0.46070582 0
vt 0.46171463 0
vt 0.44179535 0.24760818
vt 0.44569397 0.24760818
vt 0.44569397 0.16507149
vt 0.44179535 0.16507053
vt 0.43120193 0.08253574
vt 0.45858657 0.08253574
vt 0.4596969 0
vt 0.43009162 0
vt 0.43789673 0.24760818
vt 0.44179535 0.24760914
vt 0.44179535 0.16507053
vt 0.43789673 0.16507053
vt 0.3719914 0.33014202
vt 0.39937592 0.33014202
vt 0.40048623 0.24760628
vt 0.37088108 0.24760628
vt 0.4138031 0.41267687
vt 0.40990448 0.41267687
vt 0.40990448 0.4400615
vt 0.4138031 0.4400615
vt 0.39429474 0.4126768
vt 0.39039612 0.4126768
vt 0.39039612 0.44228196
vt 0.39429474 0.44228196
vt 0.43150142 0.34714508
vt 0.43049267 0.34714508
vt 0.43049267 0.40783596
vt 0.43150142 0.40783596
vt 0.44771808 0.22576237
vt 0.44670928 0.22576237
vt 0.44670928 0.28645325
vt 0.44771808 0.28645325
vt 0.4496383 0.326535
vt 0.4487269 0.326535
vt 0.4487269 0.3666165
vt 0.4496383 0.3666165
vt 0.28294992 0.6666029
vt 0.2829001 0.7365127
vt 0.3229816 0.7365137
vt 0.32303143 0.66660386
vt 0.24281812 0.263443
vt 0.24276495 0.3333435
vt 0.28284645 0.3333435
vt 0.28289962 0.263443
vt 0.34808922 0.73631245
vt 0.37077022 0.66663915
vt 0.36985874 0.6666394
vt 0.34717774 0.7363128
vt 0.34718013 0.74374336
vt 0.3480916 0.743743
vt 0.37082553 0.83331937
vt 0.3699143 0.8333197
vt 0.34814453 0.90299267
vt 0.34723306 0.90299314
vt 0.34723568 0.9104237
vt 0.34814692 0.91042334
vt 0.37088108 0.9999997
vt 0.3699696 0.99999994
vt 0.32325315 0.26368713
vt 0.3459344 0.33335876
vt 0.34684563 0.33335876
vt 0.32416463 0.26368713
vt 0.32325578 0.25611877
vt 0.324167 0.25611877
vt 0.3459897 0.16668701
vt 0.34690094 0.16668701
vt 0.32330847 0.09700012
vt 0.32421994 0.09700012
vt 0.3233111 0.08943176
vt 0.32422256 0.08943176
vt 0.34604502 0
vt 0.3469565 0
vt 0.2829001 0.7365127
vt 0.2829001 0.7439429
vt 0.3229816 0.744085
vt 0.3229816 0.7365137
vt 0.28289962 0.263443
vt 0.28289962 0.25585938
vt 0.24281812 0.25601196
vt 0.24281812 0.263443
vt 0.4496383 0.2864535
vt 0.4487269 0.2864535
vt 0.4487269 0.326535
vt 0.4496383 0.326535
vt 0.2829001 0.7439429
vt 0.28295016 0.83327323
vt 0.32303143 0.8332742
vt 0.3229816 0.744085
vt 0.28289962 0.25585938
vt 0.28284645 0.16667175
vt 0.24276495 0.16667175
vt 0.24281812 0.25601196
vt 0.28295016 0.83327323
vt 0.28290033 0.90318304
vt 0.3229816 0.903184
vt 0.32303143 0.8332742
vt 0.24281812 0.09677124
vt 0.24276495 0.16667175
vt 0.28284645 0.16667175
vt 0.28289962 0.09677124
vt 0.28290033 0.90318304
vt 0.28290033 0.91061336
vt 0.3229816 0.91075534
vt 0.3229816 0.903184
vt 0.28289962 0.09677124
vt 0.28289962 0.08918762
vt 0.24281812 0.08934021
vt 0.24281812 0.09677124
vt 0.4496383 0.36661673
vt 0.4487269 0.36661673
vt 0.4487269 0.40669823
vt 0.4496383 0.40669823
vt 0.28290033 0.91061336
vt 0.28295016 0.99994355
vt 0.32303166 0.9999445
vt 0.3229816 0.91075534
vt 0.28289962 0.08918762
vt 0.28284645 0
vt 0.24276495 0
vt 0.24281812 0.08934021
vn -0 1 0
vn -0 1 0
vn -0 1 0
vn -0 1 0
vn -0 1 0
vn -0 1 0
vn -0 1 0
vn -0 1 0
vn -0.9999095 0 -0.013451236
vn -0.9999095 0 -0.013451236
vn -0.9999095 0 -0.013451236
vn -0.9999095 0 -0.013451236
vn -0 1 0
vn -0 1 0
vn -0 1 0
vn -0 1 0
vn 0.9999095 0 -0.013451236
vn 0.9999095 0 -0.013451236
vn 0.9999095 0 -0.013451236
vn 0.9999095 0 -0.013451236
vn -0 -1 0
vn -0 -1 0
vn -0 -1 0
vn -0 -1 0
vn -0 0 -1
vn -0 0 -1
vn -0 0 -1
vn -0 0 -1
vn -0 0 1
vn -0 0 1
vn -0 0 1
vn -0 0 1
vn -1 0 0
vn -1 0 0
vn -1 0 0
vn -1 0 0
vn -1 0 0
vn -1 0 0
vn -0 1 0
vn -0 1 0
vn -0 1 0
vn -0 1 0
vn 1 0 0
vn 1 0 0
vn 1 0 0
vn 1 0 0
vn 1 0 0
vn 1 0 0
vn -0 0 -1
vn -0 0 -1
vn -0 0 -1
vn -0 0 -1
vn -0 0 -1
vn -0 0 -1
vn -0 0 1
vn -0 0 1
vn -0 0 1
vn -0 0 1
vn -0 0 1
vn -0 0 1
vn -1 0 0
vn -1 0 0
vn -1 0 0
vn -1 0 0
vn -1 0 0
vn -1 0 0
vn -0 1 0
vn -0 1 0
vn -0 1 0
vn -0 1 0
vn 1 0 0
vn 1 0 0
vn 1 0 0
vn 1 0 0
vn 1 0 0
vn 1 0 0
vn -0 0 -1
vn -0 0 -1
vn -0 0 -1
vn -0 0 -1
vn -0 0 -1
vn -0 0 -1
vn -0 0 1
vn -0 0 1
vn -0 0 1
vn -0 0 1
vn -0 0 1
vn -0 0 1
vn -0.9999095 0 -0.013451236
vn -0.9999095 0 -0.013451236
vn -0.9999095 0 -0.013451236
vn -0.9999095 0 -0.013451236
vn -0 1 0
vn -0 1 0
vn -0 1 0
vn -0 1 0
vn 0.9999095 0 -0.013451236
vn 0.9999095 0 -0.013451236
vn 0.9999095 0 -0.013451236
vn 0.9999095 0 -0.013451236
vn -0 -1 0
vn -0 -1 0
vn -0 -1 0
vn -0 -1 0
vn -0 0 -1
vn -0 0 -1
vn -0 0 -1
vn -0 0 -1
vn -0 0 1
vn -0 0 1
vn -0 0 1
vn -0 0 1
vn -0 1 0
vn -0 1 0
vn -0 1 0
vn -0 1 0
vn -0 1 0
vn -0 1 0
vn -0 1 0
vn -0 1 0
vn -0 1 0
vn -0 1 0
vn -0 1 0
vn -0 1 0
vn -0.9507816 0.3098619 0
vn -0.9507816 0.3098619 0
vn -0.9507816 0.3098619 0
vn -0.9507816 0.3098619 0
vn 0.9507816 -0.3098619 0
vn 0.9507816 -0.3098619 0
vn 0.9507816 -0.3098619 0
vn 0.9507816 -0.3098619 0
vn -0 0 -1
vn -0 0 -1
vn -0 0 -1
vn -0 0 -1
vn -0 0 -1
vn -0 0 -1
vn -0 0 -1
vn -0 0 -1
vn -0 0 -1
vn -0 0 -1
vn -0 0 -1
vn -0 0 -1
vn -0 0 -1
vn -0 0 -1
vn -0 0 1
vn -0 0 1
vn -0 0 1
vn -0 0 1
vn -0 0 1
vn -0 0 1
vn -0 0 1
vn -0 0 1
vn -0 0 1
vn -0 0 1
vn -0 0 1
vn -0 0 1
vn -0 0 1
vn -0 0 1
vn -1 0 0
vn -1 0 0
vn -1 0 0
vn -1 0 0
vn 1 0 0
vn 1 0 0
vn 1 0 0
vn 1 0 0
vn -0 1 0
vn -0 1 0
vn -0 1 0
vn -0 1 0
vn -0.96930635 -0.2458555 0.00043276357
vn -0.96930635 -0.2458555 0.00043276357
vn -0.96930635 -0.2458555 0.00043276357
vn -0.96930635 -0.2458555 0.00043276357
vn 0.96930635 0.2458555 -0.00043276357
vn 0.96930635 0.2458555 -0.00043276357
vn 0.96930635 0.2458555 -0.00043276357
vn 0.96930635 0.2458555 -0.00043276357
vn -0.9507816 0.3098619 0
vn -0.9507816 0.3098619 0
vn -0.9507816 0.3098619 0
vn -0.9507816 0.3098619 0
vn 0.9507816 -0.3098619 0
vn 0.9507816 -0.3098619 0
vn 0.9507816 -0.3098619 0
vn 0.9507816 -0.3098619 0
vn -1 0 0
vn -1 0 0
vn -1 0 0
vn -1 0 0
vn 1 0 0
vn 1 0 0
vn 1 0 0
vn 1 0 0
vn -0 1 0
vn -0 1 0
vn -0 1 0
vn -0 1 0
vn -0.96930635 -0.2458555 0.00043320382
vn -0.96930635 -0.2458555 0.00043320382
vn -0.96930635 -0.2458555 0.00043320382
vn -0.96930635 -0.2458555 0.00043320382
vn 0.96930635 0.2458555 -0.00043320382
vn 0.96930635 0.2458555 -0.00043320382
vn 0.96930635 0.2458555 -0.00043320382
vn 0.96930635 0.2458555 -0.00043320382
g Cube.003_0
f 3/3/3 2/2/2 1/1/1
f 4/4/4 3/3/3 1/1/1
f 7/7/7 6/6/6 5/5/5
f 8/8/8 7/7/7 5/5/5
f 11/11/11 10/10/10 9/9/9
f 12/12/12 11/11/11 9/9/9
f 15/15/15 14/14/14 13/13/13
f 16/16/16 15/15/15 13/13/13
f 19/19/19 18/18/18 17/17/17
f 20/20/20 19/19/19 17/17/17
f 23/23/23 22/22/22 21/21/21
f 24/24/24 23/23/23 21/21/21
f 27/27/27 26/26/26 25/25/25
f 28/28/28 27/27/27 25/25/25
f 31/31/31 30/30/30 29/29/29
f 32/32/32 31/31/31 29/29/29
f 35/35/35 34/34/34 33/33/33
f 34/34/34 36/36/36 33/33/33
f 34/34/34 37/37/37 36/36/36
f 37/37/37 38/38/38 36/36/36
f 41/41/41 40/40/40 39/39/39
f 42/42/42 41/41/41 39/39/39
f 45/45/45 44/44/44 43/43/43
f 46/46/46 45/45/45 43/43/43
f 46/46/46 43/43/43 47/47/47
f 48/48/48 46/46/46 47/47/47
f 51/51/51 50/50/50 49/49/49
f 52/52/52 51/51/51 49/49/49
f 52/52/52 49/49/49 53/53/53
f 54/54/54 52/52/52 53/53/53
f 57/57/57 56/56/56 55/55/55
f 58/58/58 57/57/57 55/55/55
f 58/58/58 55/55/55 59/59/59
f 60/60/60 58/58/58 59/59/59
f 63/63/63 62/62/62 61/61/61
f 62/62/62 64/64/64 61/61/61
f 62/62/62 65/65/65 64/64/64
f 65/65/65 66/66/66 64/64/64
f 69/69/69 68/68/68 67/67/67
f 70/70/70 69/69/69 67/67/67
f 73/73/73 72/72/72 71/71/71
f 74/74/74 73/73/73 71/71/71
f 74/74/74 71/71/71 75/75/75
f 76/76/76 74/74/74 75/75/75
f 79/79/79 78/78/78 77/77/77
f 80/80/80 79/79/79 77/77/77
f 80/80/80 77/77/77 81/81/81
f 82/82/82 80/80/80 81/81/81
f 85/85/85 84/84/84 83/83/83
f 86/86/86 85/85/85 83/83/83
f 86/86/86 83/83/83 87/87/87
f 88/88/88 86/86/86 87/87/87
f 91/91/91 90/90/90 89/89/89
f 92/92/92 91/91/91 89/89/89
f 95/95/95 94/94/94 93/93/93
f 96/96/96 95/95/95 93/93/93
f 99/99/99 98/98/98 97/97/97
f 100/100/100 99/99/99 97/97/97
f 103/103/103 102/102/102 101/101/101
f 104/104/104 103/103/103 101/101/101
f 107/107/107 106/106/106 105/105/105
f 108/108/108 107/107/107 105/105/105
f 111/111/111 110/110/110 109/109/109
f 112/112/112 111/111/111 109/109/109
f 115/115/115 114/114/114 113/113/113
f 116/116/116 115/115/115 113/113/113
f 119/119/119 118/118/118 117/117/117
f 120/120/120 119/119/119 117/117/117
g Cube.003_1
f 123/123/123 122/122/122 121/121/121
f 124/124/124 123/123/123 121/121/121
f 127/127/127 126/126/126 125/125/125
f 128/128/128 127/127/127 125/125/125
f 131/131/131 130/130/130 129/129/129
f 132/132/132 131/131/131 129/129/129
f 135/135/135 134/134/134 133/133/133
f 136/136/136 135/135/135 133/133/133
f 137/137/137 136/136/136 133/133/133
f 138/138/138 137/137/137 133/133/133
f 138/138/138 139/139/139 137/137/137
f 139/139/139 140/140/140 137/137/137
f 140/140/140 139/139/139 141/141/141
f 142/142/142 140/140/140 141/141/141
f 143/143/143 142/142/142 141/141/141
f 144/144/144 143/143/143 141/141/141
f 144/144/144 145/145/145 143/143/143
f 145/145/145 146/146/146 143/143/143
f 149/149/149 148/148/148 147/147/147
f 150/150/150 149/149/149 147/147/147
f 147/147/147 151/151/151 150/150/150
f 151/151/151 152/152/152 150/150/150
f 151/151/151 153/153/153 152/152/152
f 153/153/153 154/154/154 152/152/152
f 154/154/154 153/153/153 155/155/155
f 156/156/156 154/154/154 155/155/155
f 155/155/155 157/157/157 156/156/156
f 157/157/157 158/158/158 156/156/156
f 157/157/157 159/159/159 158/158/158
f 159/159/159 160/160/160 158/158/158
f 163/163/163 162/162/162 161/161/161
f 164/164/164 163/163/163 161/161/161
f 167/167/167 166/166/166 165/165/165
f 168/168/168 167/167/167 165/165/165
f 171/171/171 170/170/170 169/169/169
f 172/172/172 171/171/171 169/169/169
f 175/175/175 174/174/174 173/173/173
f 176/176/176 175/175/175 173/173/173
f 179/179/179 178/178/178 177/177/177
f 180/180/180 179/179/179 177/177/177
f 183/183/183 182/182/182 181/181/181
f 184/184/184 183/183/183 181/181/181
f 187/187/187 186/186/186 185/185/185
f 188/188/188 187/187/187 185/185/185
f 191/191/191 190/190/190 189/189/189
f 192/192/192 191/191/191 189/189/189
f 195/195/195 194/194/194 193/193/193
f 196/196/196 195/195/195 193/193/193
f 199/199/199 198/198/198 197/197/197
f 200/200/200 199/199/199 197/197/197
f 203/203/203 202/202/202 201/201/201
f 204/204/204 203/203/203 201/201/201
f 207/207/207 206/206/206 205/205/205
f 208/208/208 207/207/207 205/205/205
