g Cylinder
v -0.4999999 0.49999988 3.8146972E-08
v -0.49999994 0.49039248 -0.097545125
v 0.5 0.49039242 -0.09754516
v 0.50000006 0.4999998 0
v -0.49999994 0.49039248 -0.097545125
v -0.5 0.4619396 -0.19134168
v 0.5 0.46193954 -0.1913417
v 0.5 0.49039242 -0.09754516
v -0.5 0.4619396 -0.19134168
v -0.4999999 0.41573465 -0.27778506
v 0.5 0.4157346 -0.2777851
v 0.5 0.46193954 -0.1913417
v -0.4999999 0.41573465 -0.27778506
v -0.49999994 0.35355327 -0.35355327
v 0.5 0.3535532 -0.3535533
v 0.5 0.4157346 -0.2777851
v -0.49999994 0.35355327 -0.35355327
v -0.4999999 0.27778494 -0.4157347
v 0.5 0.2777849 -0.41573477
v 0.5 0.3535532 -0.3535533
v -0.4999999 0.27778494 -0.4157347
v -0.49999994 0.19134155 -0.46193966
v 0.5 0.1913415 -0.4619397
v 0.5 0.2777849 -0.41573477
v -0.49999994 0.19134155 -0.46193966
v -0.5 0.09754504 -0.49039254
v 0.5 0.097545005 -0.4903926
v 0.5 0.1913415 -0.4619397
v -0.5 0.09754504 -0.49039254
v -0.5 -9.0661786E-08 -0.49999985
v 0.5 -1.3437318E-07 -0.4999999
v 0.5 0.097545005 -0.4903926
v -0.5 -9.0661786E-08 -0.49999985
v -0.5 -0.09754522 -0.49039254
v 0.5 -0.09754526 -0.4903926
v 0.5 -1.3437318E-07 -0.4999999
v -0.5 -0.09754522 -0.49039254
v -0.49999994 -0.19134177 -0.46193966
v 0.5 -0.19134182 -0.4619397
v 0.5 -0.09754526 -0.4903926
v -0.49999994 -0.19134177 -0.46193966
v -0.5 -0.27778518 -0.4157347
v 0.5 -0.2777852 -0.41573477
v 0.5 -0.19134182 -0.4619397
v -0.5 -0.27778518 -0.4157347
v -0.49999994 -0.3535534 -0.35355327
v 0.5 -0.3535535 -0.3535533
v 0.5 -0.2777852 -0.41573477
v -0.49999994 -0.3535534 -0.35355327
v -0.49999994 -0.41573486 -0.277785
v 0.5 -0.41573492 -0.27778503
v 0.5 -0.3535535 -0.3535533
v -0.49999994 -0.41573486 -0.277785
v -0.5 -0.46193984 -0.19134156
v 0.5 -0.4619399 -0.19134162
v 0.5 -0.41573492 -0.27778503
v -0.5 -0.46193984 -0.19134156
v -0.5 -0.49039268 -0.097544976
v 0.5 -0.49039274 -0.09754501
v 0.5 -0.4619399 -0.19134162
v -0.5 -0.49039268 -0.097544976
v -0.5 -0.5000001 2.2888183E-07
v 0.5 -0.5000002 1.9073485E-07
v 0.5 -0.49039274 -0.09754501
v -0.5 -0.5000001 2.2888183E-07
v -0.49999994 -0.49039263 0.09754543
v 0.5 -0.4903927 0.09754539
v 0.5 -0.5000002 1.9073485E-07
v -0.49999994 -0.49039263 0.09754543
v -0.49999994 -0.4619397 0.19134201
v 0.50000006 -0.46193975 0.19134197
v 0.5 -0.4903927 0.09754539
v -0.49999994 -0.4619397 0.19134201
v -0.49999994 -0.4157347 0.27778548
v 0.5 -0.41573477 0.27778542
v 0.50000006 -0.46193975 0.19134197
v -0.49999994 -0.4157347 0.27778548
v -0.49999994 -0.35355324 0.35355377
v 0.5 -0.3535533 0.35355365
v 0.5 -0.41573477 0.27778542
v -0.49999994 -0.35355324 0.35355377
v -0.49999994 -0.27778488 0.41573516
v 0.5 -0.2777849 0.41573504
v 0.5 -0.3535533 0.35355365
v -0.49999994 -0.27778488 0.41573516
v -0.49999994 -0.19134143 0.46194
v 0.5 -0.19134147 0.46193996
v 0.5 -0.2777849 0.41573504
v -0.49999994 -0.19134143 0.46194
v -0.49999994 -0.09754481 0.49039283
v 0.5 -0.09754485 0.49039274
v 0.5 -0.19134147 0.46193996
v -0.49999994 -0.09754481 0.49039283
v -0.4999999 3.9810018E-07 0.50000006
v 0.50000006 3.543888E-07 0.5
v 0.5 -0.09754485 0.49039274
v -0.4999999 3.9810018E-07 0.50000006
v -0.4999999 0.09754557 0.4903926
v 0.5 0.097545534 0.49039257
v 0.50000006 3.543888E-07 0.5
v -0.4999999 0.09754557 0.4903926
v -0.4999999 0.19134209 0.4619397
v 0.5000001 0.19134204 0.46193957
v 0.5 0.097545534 0.49039257
v -0.4999999 0.19134209 0.4619397
v -0.4999999 0.2777855 0.41573456
v 0.50000006 0.27778548 0.41573447
v 0.5000001 0.19134204 0.46193957
v -0.4999999 0.2777855 0.41573456
v -0.4999999 0.35355368 0.353553
v 0.5 0.35355362 0.35355297
v 0.50000006 0.27778548 0.41573447
v -0.4999999 0.35355368 0.353553
v -0.4999999 0.41573504 0.27778456
v 0.50000006 0.41573498 0.27778456
v 0.5 0.35355362 0.35355297
v -0.4999999 0.41573504 0.27778456
v -0.4999999 0.4619399 0.19134109
v 0.5 0.46193984 0.19134103
v 0.50000006 0.41573498 0.27778456
v 0.5 -0.49039274 -0.09754501
v 0.5 -0.5000002 1.9073485E-07
v 0.5 -0.4903927 0.09754539
v 0.5 -0.4619399 -0.19134162
v 0.50000006 -0.46193975 0.19134197
v 0.5 -0.41573492 -0.27778503
v 0.5 -0.41573477 0.27778542
v 0.5 -0.3535535 -0.3535533
v 0.5 -0.3535533 0.35355365
v 0.5 -0.2777852 -0.41573477
v 0.5 -0.2777849 0.41573504
v 0.5 -0.19134182 -0.4619397
v 0.5 -0.19134147 0.46193996
v 0.5 -0.09754526 -0.4903926
v 0.5 -0.09754485 0.49039274
v 0.5 -1.3437318E-07 -0.4999999
v 0.50000006 3.543888E-07 0.5
v 0.5 0.097545005 -0.4903926
v 0.5 0.097545534 0.49039257
v 0.5 0.1913415 -0.4619397
v 0.5000001 0.19134204 0.46193957
v 0.5 0.2777849 -0.41573477
v 0.50000006 0.27778548 0.41573447
v 0.5 0.3535532 -0.3535533
v 0.5 0.35355362 0.35355297
v 0.5 0.4157346 -0.2777851
v 0.50000006 0.41573498 0.27778456
v 0.5 0.46193954 -0.1913417
v 0.5 0.46193984 0.19134103
v 0.5 0.49039242 -0.09754516
v 0.50000006 0.49039257 0.0975444
v 0.50000006 0.4999998 0
v -0.4999999 0.4619399 0.19134109
v -0.4999999 0.49039263 0.09754444
v 0.50000006 0.49039257 0.0975444
v 0.5 0.46193984 0.19134103
v -0.4999999 0.49039263 0.09754444
v -0.4999999 0.49999988 3.8146972E-08
v 0.50000006 0.4999998 0
v 0.50000006 0.49039257 0.0975444
v -0.49999994 -0.49039263 0.09754543
v -0.5 -0.5000001 2.2888183E-07
v -0.5 -0.49039268 -0.097544976
v -0.5 -0.46193984 -0.19134156
v -0.49999994 -0.4619397 0.19134201
v -0.49999994 -0.41573486 -0.277785
v -0.49999994 -0.4157347 0.27778548
v -0.49999994 -0.3535534 -0.35355327
v -0.49999994 -0.35355324 0.35355377
v -0.5 -0.27778518 -0.4157347
v -0.49999994 -0.27778488 0.41573516
v -0.49999994 -0.19134177 -0.46193966
v -0.49999994 -0.19134143 0.46194
v -0.5 -0.09754522 -0.49039254
v -0.49999994 -0.09754481 0.49039283
v -0.5 -9.0661786E-08 -0.49999985
v -0.4999999 3.9810018E-07 0.50000006
v -0.5 0.09754504 -0.49039254
v -0.4999999 0.09754557 0.4903926
v -0.49999994 0.19134155 -0.46193966
v -0.4999999 0.19134209 0.4619397
v -0.4999999 0.27778494 -0.4157347
v -0.4999999 0.2777855 0.41573456
v -0.49999994 0.35355327 -0.35355327
v -0.4999999 0.35355368 0.353553
v -0.4999999 0.41573465 -0.27778506
v -0.4999999 0.41573504 0.27778456
v -0.5 0.4619396 -0.19134168
v -0.4999999 0.4619399 0.19134109
v -0.49999994 0.49039248 -0.097545125
v -0.4999999 0.49039263 0.09754444
v -0.4999999 0.49999988 3.8146972E-08
vn -0 0.9951172 -0.09802246
vn -0 0.9951172 -0.09802246
vn -0 0.9951172 -0.09802246
vn -0 0.9951172 -0.09802246
vn -0 0.95703125 -0.2902832
vn -0 0.95703125 -0.2902832
vn -0 0.95703125 -0.2902832
vn -0 0.95703125 -0.2902832
vn -0 0.88183594 -0.47143555
vn -0 0.88183594 -0.47143555
vn -0 0.88183594 -0.47143555
vn -0 0.88183594 -0.47143555
vn -0 0.7729492 -0.63427734
vn -0 0.7729492 -0.63427734
vn -0 0.7729492 -0.63427734
vn -0 0.7729492 -0.63427734
vn -0 0.63427734 -0.7729492
vn -0 0.63427734 -0.7729492
vn -0 0.63427734 -0.7729492
vn -0 0.63427734 -0.7729492
vn -0 0.47143555 -0.88183594
vn -0 0.47143555 -0.88183594
vn -0 0.47143555 -0.88183594
vn -0 0.47143555 -0.88183594
vn -0 0.2902832 -0.95703125
vn -0 0.2902832 -0.95703125
vn -0 0.2902832 -0.95703125
vn -0 0.2902832 -0.95703125
vn -0 0.09802246 -0.9951172
vn -0 0.09802246 -0.9951172
vn -0 0.09802246 -0.9951172
vn -0 0.09802246 -0.9951172
vn -0 -0.09802246 -0.9951172
vn -0 -0.09802246 -0.9951172
vn -0 -0.09802246 -0.9951172
vn -0 -0.09802246 -0.9951172
vn -1.1920929E-07 -0.2902832 -0.95703125
vn -1.1920929E-07 -0.2902832 -0.95703125
vn -1.1920929E-07 -0.2902832 -0.95703125
vn -1.1920929E-07 -0.2902832 -0.95703125
vn -0 -0.47143555 -0.88183594
vn -0 -0.47143555 -0.88183594
vn -0 -0.47143555 -0.88183594
vn -0 -0.47143555 -0.88183594
vn -0 -0.63427734 -0.7729492
vn -0 -0.63427734 -0.7729492
vn -0 -0.63427734 -0.7729492
vn -0 -0.63427734 -0.7729492
vn -0 -0.7729492 -0.63427734
vn -0 -0.7729492 -0.63427734
vn -0 -0.7729492 -0.63427734
vn -0 -0.7729492 -0.63427734
vn -0 -0.88183594 -0.47143555
vn -0 -0.88183594 -0.47143555
vn -0 -0.88183594 -0.47143555
vn -0 -0.88183594 -0.47143555
vn -0 -0.95703125 -0.2902832
vn -0 -0.95703125 -0.2902832
vn -0 -0.95703125 -0.2902832
vn -0 -0.95703125 -0.2902832
vn -0 -0.9951172 -0.09802246
vn -0 -0.9951172 -0.09802246
vn -0 -0.9951172 -0.09802246
vn -0 -0.9951172 -0.09802246
vn -0 -0.9951172 0.09802246
vn -0 -0.9951172 0.09802246
vn -0 -0.9951172 0.09802246
vn -0 -0.9951172 0.09802246
vn -0 -0.95703125 0.2902832
vn -0 -0.95703125 0.2902832
vn -0 -0.95703125 0.2902832
vn -0 -0.95703125 0.2902832
vn -0 -0.88183594 0.47143555
vn -0 -0.88183594 0.47143555
vn -0 -0.88183594 0.47143555
vn -0 -0.88183594 0.47143555
vn -0 -0.7729492 0.63427734
vn -0 -0.7729492 0.63427734
vn -0 -0.7729492 0.63427734
vn -0 -0.7729492 0.63427734
vn -0 -0.63427734 0.7729492
vn -0 -0.63427734 0.7729492
vn -0 -0.63427734 0.7729492
vn -0 -0.63427734 0.7729492
vn -0 -0.47143555 0.88183594
vn -0 -0.47143555 0.88183594
vn -0 -0.47143555 0.88183594
vn -0 -0.47143555 0.88183594
vn -0 -0.2902832 0.95703125
vn -0 -0.2902832 0.95703125
vn -0 -0.2902832 0.95703125
vn -0 -0.2902832 0.95703125
vn -0 -0.09802246 0.9951172
vn -0 -0.09802246 0.9951172
vn -0 -0.09802246 0.9951172
vn -0 -0.09802246 0.9951172
vn -0 0.09802246 0.9951172
vn -0 0.09802246 0.9951172
vn -0 0.09802246 0.9951172
vn -0 0.09802246 0.9951172
vn -0 0.2902832 0.95703125
vn -0 0.2902832 0.95703125
vn -0 0.2902832 0.95703125
vn -0 0.2902832 0.95703125
vn -0 0.47143555 0.88183594
vn -0 0.47143555 0.88183594
vn -0 0.47143555 0.88183594
vn -0 0.47143555 0.88183594
vn -0 0.63427734 0.7729492
vn -0 0.63427734 0.7729492
vn -0 0.63427734 0.7729492
vn -0 0.63427734 0.7729492
vn -0 0.7729492 0.63427734
vn -0 0.7729492 0.63427734
vn -0 0.7729492 0.63427734
vn -0 0.7729492 0.63427734
vn -0 0.88183594 0.47143555
vn -0 0.88183594 0.47143555
vn -0 0.88183594 0.47143555
vn -0 0.88183594 0.47143555
vn 1 0 0
vn 1 0 0
vn 1 0 0
vn 1 0 0
vn 1 0 0
vn 1 0 0
vn 1 0 0
vn 1 0 0
vn 1 0 0
vn 1 0 0
vn 1 0 0
vn 1 0 0
vn 1 0 0
vn 1 0 0
vn 1 0 0
vn 1 0 0
vn 1 0 0
vn 1 0 0
vn 1 0 0
vn 1 0 0
vn 1 0 0
vn 1 0 0
vn 1 0 0
vn 1 0 0
vn 1 0 0
vn 1 0 0
vn 1 0 0
vn 1 0 0
vn 1 0 0
vn 1 0 0
vn 1 0 0
vn 1 0 0
vn -0 0.95703125 0.2902832
vn -0 0.95703125 0.2902832
vn -0 0.95703125 0.2902832
vn -0 0.95703125 0.2902832
vn -0 0.9951172 0.09802246
vn -0 0.9951172 0.09802246
vn -0 0.9951172 0.09802246
vn -0 0.9951172 0.09802246
vn -1 0 0
vn -1 0 0
vn -1 0 0
vn -1 0 0
vn -1 0 0
vn -1 0 0
vn -1 0 0
vn -1 0 0
vn -1 0 0
vn -1 0 0
vn -1 0 0
vn -1 0 0
vn -1 0 0
vn -1 0 0
vn -1 0 0
vn -1 0 0
vn -1 0 0
vn -1 0 0
vn -1 0 0
vn -1 0 0
vn -1 0 0
vn -1 0 0
vn -1 0 0
vn -1 0 0
vn -1 0 0
vn -1 0 0
vn -1 0 0
vn -1 0 0
vn -1 0 0
vn -1 0 0
vn -1 0 0
vn -1 0 0
g Cylinder_0
f 3/3/3 2/2/2 1/1/1
f 4/4/4 3/3/3 1/1/1
f 7/7/7 6/6/6 5/5/5
f 8/8/8 7/7/7 5/5/5
f 11/11/11 10/10/10 9/9/9
f 12/12/12 11/11/11 9/9/9
f 15/15/15 14/14/14 13/13/13
f 16/16/16 15/15/15 13/13/13
f 19/19/19 18/18/18 17/17/17
f 20/20/20 19/19/19 17/17/17
f 23/23/23 22/22/22 21/21/21
f 24/24/24 23/23/23 21/21/21
f 27/27/27 26/26/26 25/25/25
f 28/28/28 27/27/27 25/25/25
f 31/31/31 30/30/30 29/29/29
f 32/32/32 31/31/31 29/29/29
f 35/35/35 34/34/34 33/33/33
f 36/36/36 35/35/35 33/33/33
f 39/39/39 38/38/38 37/37/37
f 40/40/40 39/39/39 37/37/37
f 43/43/43 42/42/42 41/41/41
f 44/44/44 43/43/43 41/41/41
f 47/47/47 46/46/46 45/45/45
f 48/48/48 47/47/47 45/45/45
f 51/51/51 50/50/50 49/49/49
f 52/52/52 51/51/51 49/49/49
f 55/55/55 54/54/54 53/53/53
f 56/56/56 55/55/55 53/53/53
f 59/59/59 58/58/58 57/57/57
f 60/60/60 59/59/59 57/57/57
f 63/63/63 62/62/62 61/61/61
f 64/64/64 63/63/63 61/61/61
f 67/67/67 66/66/66 65/65/65
f 68/68/68 67/67/67 65/65/65
f 71/71/71 70/70/70 69/69/69
f 72/72/72 71/71/71 69/69/69
f 75/75/75 74/74/74 73/73/73
f 76/76/76 75/75/75 73/73/73
f 79/79/79 78/78/78 77/77/77
f 80/80/80 79/79/79 77/77/77
f 83/83/83 82/82/82 81/81/81
f 84/84/84 83/83/83 81/81/81
f 87/87/87 86/86/86 85/85/85
f 88/88/88 87/87/87 85/85/85
f 91/91/91 90/90/90 89/89/89
f 92/92/92 91/91/91 89/89/89
f 95/95/95 94/94/94 93/93/93
f 96/96/96 95/95/95 93/93/93
f 99/99/99 98/98/98 97/97/97
f 100/100/100 99/99/99 97/97/97
f 103/103/103 102/102/102 101/101/101
f 104/104/104 103/103/103 101/101/101
f 107/107/107 106/106/106 105/105/105
f 108/108/108 107/107/107 105/105/105
f 111/111/111 110/110/110 109/109/109
f 112/112/112 111/111/111 109/109/109
f 115/115/115 114/114/114 113/113/113
f 116/116/116 115/115/115 113/113/113
f 119/119/119 118/118/118 117/117/117
f 120/120/120 119/119/119 117/117/117
f 123/123/123 122/122/122 121/121/121
f 121/121/121 124/124/124 123/123/123
f 124/124/124 125/125/125 123/123/123
f 124/124/124 126/126/126 125/125/125
f 126/126/126 127/127/127 125/125/125
f 126/126/126 128/128/128 127/127/127
f 128/128/128 129/129/129 127/127/127
f 128/128/128 130/130/130 129/129/129
f 130/130/130 131/131/131 129/129/129
f 130/130/130 132/132/132 131/131/131
f 132/132/132 133/133/133 131/131/131
f 132/132/132 134/134/134 133/133/133
f 134/134/134 135/135/135 133/133/133
f 134/134/134 136/136/136 135/135/135
f 136/136/136 137/137/137 135/135/135
f 136/136/136 138/138/138 137/137/137
f 138/138/138 139/139/139 137/137/137
f 138/138/138 140/140/140 139/139/139
f 140/140/140 141/141/141 139/139/139
f 140/140/140 142/142/142 141/141/141
f 142/142/142 143/143/143 141/141/141
f 142/142/142 144/144/144 143/143/143
f 144/144/144 145/145/145 143/143/143
f 144/144/144 146/146/146 145/145/145
f 146/146/146 147/147/147 145/145/145
f 146/146/146 148/148/148 147/147/147
f 148/148/148 149/149/149 147/147/147
f 148/148/148 150/150/150 149/149/149
f 150/150/150 151/151/151 149/149/149
f 150/150/150 152/152/152 151/151/151
f 155/155/155 154/154/154 153/153/153
f 156/156/156 155/155/155 153/153/153
f 159/159/159 158/158/158 157/157/157
f 160/160/160 159/159/159 157/157/157
f 163/163/163 162/162/162 161/161/161
f 161/161/161 164/164/164 163/163/163
f 161/161/161 165/165/165 164/164/164
f 165/165/165 166/166/166 164/164/164
f 165/165/165 167/167/167 166/166/166
f 167/167/167 168/168/168 166/166/166
f 167/167/167 169/169/169 168/168/168
f 169/169/169 170/170/170 168/168/168
f 169/169/169 171/171/171 170/170/170
f 171/171/171 172/172/172 170/170/170
f 171/171/171 173/173/173 172/172/172
f 173/173/173 174/174/174 172/172/172
f 173/173/173 175/175/175 174/174/174
f 175/175/175 176/176/176 174/174/174
f 175/175/175 177/177/177 176/176/176
f 177/177/177 178/178/178 176/176/176
f 177/177/177 179/179/179 178/178/178
f 179/179/179 180/180/180 178/178/178
f 179/179/179 181/181/181 180/180/180
f 181/181/181 182/182/182 180/180/180
f 181/181/181 183/183/183 182/182/182
f 183/183/183 184/184/184 182/182/182
f 183/183/183 185/185/185 184/184/184
f 185/185/185 186/186/186 184/184/184
f 185/185/185 187/187/187 186/186/186
f 187/187/187 188/188/188 186/186/186
f 187/187/187 189/189/189 188/188/188
f 189/189/189 190/190/190 188/188/188
f 189/189/189 191/191/191 190/190/190
f 191/191/191 192/192/192 190/190/190
