g Cylinder.001
v 0.70710677 -0.70710677 1
v 1.8461251 -2.4767764 1
v 0.5555702 -0.83146966 1
v 2.2975218 -2.1063251 1
v 0.83146966 -0.5555702 1
v 2.6679728 -1.6549288 1
v 0.92387956 -0.38268328 1
v 2.9432435 -1.1399345 1
v 0.9807853 -0.1950902 1
v 3.1127532 -0.5811334 1
v 1 7.54979E-08 1
v 3.1699898 1.8967489E-07 1
v 0.98078525 0.19509035 1
v 3.1127532 0.5811339 1
v 0.9238795 0.38268343 1
v 2.943243 1.1399347 1
v 0.83146966 0.5555702 1
v 2.6679728 1.6549288 1
v 0.70710677 0.70710677 1
v 2.2975218 2.1063251 1
v 0.55557024 0.8314696 1
v 1.8461256 2.476776 1
vt 0.66552734 0.8232422
vt 0.04360962 1
vt 0.67871094 0.8720703
vt 0.004032135 0.8535156
vt 0.6640625 0.7729492
vt 0 0.70410156
vt 0.6748047 0.72314453
vt 0.031677246 0.5566406
vt 0.6972656 0.67626953
vt 0.097839355 0.41674805
vt 0.72998047 0.63378906
vt 0.19592285 0.2902832
vt 0.77246094 0.59765625
vt 0.32226562 0.1821289
vt 0.8227539 0.56884766
vt 0.47192383 0.09613037
vt 0.87890625 0.54833984
vt 0.63916016 0.0357666
vt 0.93847656 0.53759766
vt 0.8173828 0.0033073425
vt 1 0.5366211
vt 1 0
vn -0 0 1
vn -0 0 1
vn -0 0 1
vn -0 0 1
vn -0 0 1
vn -0 0 1
vn -0 0 1
vn -0 0 1
vn -0 0 1
vn -0 0 1
vn -0 0 1
vn -0 0 1
vn -0 0 1
vn -0 0 1
vn -0 0 1
vn -0 0 1
vn -0 0 1
vn -0 0 1
vn -0 0 1
vn -0 0 1
vn -0 0 1
vn -0 0 1
g Cylinder.001_0
f 3/3/3 2/2/2 1/1/1
f 2/2/2 4/4/4 1/1/1
f 1/1/1 4/4/4 5/5/5
f 4/4/4 6/6/6 5/5/5
f 5/5/5 6/6/6 7/7/7
f 6/6/6 8/8/8 7/7/7
f 7/7/7 8/8/8 9/9/9
f 8/8/8 10/10/10 9/9/9
f 9/9/9 10/10/10 11/11/11
f 10/10/10 12/12/12 11/11/11
f 11/11/11 12/12/12 13/13/13
f 12/12/12 14/14/14 13/13/13
f 13/13/13 14/14/14 15/15/15
f 14/14/14 16/16/16 15/15/15
f 15/15/15 16/16/16 17/17/17
f 16/16/16 18/18/18 17/17/17
f 17/17/17 18/18/18 19/19/19
f 18/18/18 20/20/20 19/19/19
f 19/19/19 20/20/20 21/21/21
f 20/20/20 22/22/22 21/21/21
