g Cylinder.002
v 3.183791 1.4118831 0.41688597
v 2.6601777 -0.18876857 0.4168861
v 2.4754505 -0.9182401 0.41688588
v -2.5203404 2.869373 0.41688642
v 0.38207263 2.2859132 0.41688618
v 1.1243072 2.1620562 0.41688618
v -0.7059014 -2.0103996 0.6142338
v -0.89114374 -1.8662198 0.61423373
v -1.2997279 -1.5482061 0.61423355
v 1.1243072 2.1620562 0.61423355
v 1.4077843 2.008646 0.61423355
v 1.7861092 1.8039069 0.6142335
v 3.1837912 2.3070273 0.41688597
v 3.1837912 2.8571947 0.41688597
v -1.6319892 2.8571947 0.41688633
v -2.5203404 2.869373 0.41688642
v 1.1243072 2.1620562 0.41688618
v 1.4077849 2.008646 0.4168861
v 3.1837912 2.008646 0.41688597
v 3.183791 1.4118831 0.41688597
v 1.7861092 1.8039068 0.41688597
v 2.1469924 1.4118831 0.41688603
v 2.295762 1.2502763 0.4168861
v 2.5980368 0.56115896 0.4168861
v 2.6601777 -0.18876857 0.4168861
v 3.183791 -1.8662198 0.41688597
v 2.4754505 -0.9182401 0.41688588
v 2.063873 -1.5482059 0.41688597
v 1.655289 -1.8662199 0.4168861
v 1.4700468 -2.0103996 0.4168861
v 0.7583216 -2.2547352 0.4168861
v 3.1837912 -2.4629824 0.41688597
v -2.8672795 -2.5406015 0.41688642
v 0.0058238357 -2.2547352 0.41688618
v 3.1837912 -3.059745 0.41688597
v -1.8251178 -3.1578338 0.41688633
v -0.7059014 -2.0103996 0.41688618
v -0.8911441 -1.8662198 0.41688627
v -3.0054202 -1.9233688 0.41688642
v -1.2997279 -1.5482061 0.41688618
v -1.7113054 -0.91823965 0.41688633
v -1.8960326 -0.18876763 0.41688627
v -3.0054202 1.4671779 0.41688642
v -1.8338914 0.5611604 0.41688627
v -1.5316159 1.250278 0.41688633
v -1.3828473 1.4118831 0.41688627
v -2.8672795 2.0844107 0.41688642
v -1.0219619 1.8039083 0.41688618
v -0.6436387 2.008646 0.41688624
v -2.5203404 2.869373 0.41688642
v -0.36015898 2.1620572 0.4168863
v 0.38207263 2.2859132 0.41688618
v 3.1837912 2.8571947 0.41688597
v 3.183791 2.8571947 0.61423343
v -1.6319892 2.8571947 0.6142338
v -1.6319892 2.8571947 0.41688633
v 3.1837907 -2.4629824 0.61423343
v 3.183791 -3.059745 0.61423343
v -1.8251178 -3.1578338 0.6142338
v -2.8672795 -2.5406015 0.61423385
v 0.7583216 -2.2547352 0.61423355
v 1.4700468 -2.0103996 0.61423355
v 1.6552892 -1.8662198 0.61423355
v 0.0058238427 -2.2547352 0.61423355
v -0.7059014 -2.0103996 0.6142338
v -0.89114374 -1.8662198 0.61423373
v 3.1837907 -1.8662198 0.61423343
v -3.0054202 -1.9233688 0.61423385
v 2.063873 -1.5482059 0.6142334
v -1.2997279 -1.5482061 0.61423355
v -1.7113054 -0.9182396 0.6142339
v -1.8960326 -0.18876763 0.61423373
v 2.4754505 -0.91823995 0.6142334
v 2.6601777 -0.18876857 0.61423355
v 2.5980368 0.56115896 0.61423355
v -3.0054202 1.4671779 0.61423385
v 3.1837907 1.4118831 0.61423343
v -1.8338914 0.5611604 0.61423373
v -1.5316159 1.250278 0.6142339
v -1.3828473 1.4118831 0.61423373
v 2.295762 1.2502763 0.6142335
v -2.8672795 2.0844107 0.61423385
v -1.0219619 1.8039083 0.61423355
v -0.6436389 2.008646 0.6142337
v 2.1469927 1.4118831 0.6142335
v 1.7861092 1.8039069 0.6142335
v 1.4077843 2.008646 0.61423355
v 3.1837907 2.008646 0.61423343
v 1.1243072 2.1620562 0.61423355
v -2.5203404 2.869373 0.6142338
v -0.36015898 2.1620572 0.6142338
v 0.38207263 2.2859132 0.61423355
v 3.1837907 2.3070273 0.61423343
v 3.1837907 2.008646 0.61423343
v 3.183791 2.8571947 0.61423343
v -1.6319892 2.8571947 0.6142338
v 3.183791 -3.059745 0.61423343
v 3.1837912 -3.059745 0.41688597
v -1.8251178 -3.1578338 0.41688633
v -1.8251178 -3.1578338 0.6142338
v 3.1837912 -2.4629824 0.41688597
v 3.1837912 -3.059745 0.41688597
v 3.183791 -3.059745 0.61423343
v 3.1837907 -2.4629824 0.61423343
v 3.183791 -1.8662198 0.41688597
v 3.1837907 -1.8662198 0.61423343
v 3.183791 1.4118831 0.41688597
v 3.1837907 1.4118831 0.61423343
v 3.1837912 2.008646 0.41688597
v 3.1837907 2.008646 0.61423343
v 3.1837912 2.3070273 0.41688597
v 3.1837907 2.3070273 0.61423343
v 3.1837912 2.8571947 0.41688597
v 3.183791 2.8571947 0.61423343
v -2.8672795 -2.5406015 0.61423385
v -1.8251178 -3.1578338 0.6142338
v -1.8251178 -3.1578338 0.41688633
v -2.8672795 -2.5406015 0.41688642
v -3.0054202 -1.9233688 0.61423385
v -3.0054202 -1.9233688 0.41688642
v -3.0054202 1.4671779 0.61423385
v -3.0054202 1.4671779 0.41688642
v -2.8672795 2.0844107 0.61423385
v -2.8672795 2.0844107 0.41688642
v -2.5203404 2.869373 0.6142338
v -2.5203404 2.869373 0.41688642
v 3.1837907 2.008646 0.61423343
v 1.1243072 2.1620562 0.61423355
v -2.5203404 2.869373 0.6142338
v 0.38207263 2.2859132 0.61423355
v -1.6319892 2.8571947 0.6142338
v -2.5203404 2.869373 0.6142338
v -2.5203404 2.869373 0.41688642
v -1.6319892 2.8571947 0.41688633
v 2.063873 -1.5482059 0.6142334
v 1.6552892 -1.8662198 0.61423355
v 1.4700468 -2.0103996 0.61423355
v 1.655289 -1.8662199 0.4168861
v 1.4700468 -2.0103996 0.4168861
v 2.063873 -1.5482059 0.41688597
v 0.7583216 -2.2547352 0.4168861
v 2.4754505 -0.91823995 0.6142334
v 0.7583216 -2.2547352 0.61423355
v 2.4754505 -0.9182401 0.41688588
v 0.0058238357 -2.2547352 0.41688618
v 2.6601777 -0.18876857 0.61423355
v 0.0058238427 -2.2547352 0.61423355
v 2.6601777 -0.18876857 0.4168861
v -0.7059014 -2.0103996 0.41688618
v 2.5980368 0.56115896 0.61423355
v -0.7059014 -2.0103996 0.6142338
v 2.5980368 0.56115896 0.4168861
v -0.8911441 -1.8662198 0.41688627
v 2.295762 1.2502763 0.6142335
v 2.295762 1.2502763 0.4168861
v 2.1469927 1.4118831 0.6142335
v 2.1469924 1.4118831 0.41688603
v -1.2997279 -1.5482061 0.61423355
v -1.2997279 -1.5482061 0.41688618
v -1.7113054 -0.91823965 0.41688633
v -1.7113054 -0.9182396 0.6142339
v -1.8960326 -0.18876763 0.41688627
v -1.8960326 -0.18876763 0.61423373
v -1.8338914 0.5611604 0.41688627
v -1.8338914 0.5611604 0.61423373
v -1.5316159 1.250278 0.41688633
v -1.5316159 1.250278 0.6142339
v -1.3828473 1.4118831 0.41688627
v -1.3828473 1.4118831 0.61423373
v -1.0219619 1.8039083 0.41688618
v -1.0219619 1.8039083 0.61423355
v -0.6436387 2.008646 0.41688624
v -0.36015898 2.1620572 0.4168863
v -0.6436389 2.008646 0.6142337
v -0.36015898 2.1620572 0.6142338
v 0.38207263 2.2859132 0.41688618
v 0.38207263 2.2859132 0.61423355
v 1.1243072 2.1620562 0.41688618
v 0.38207263 2.2859132 0.41688618
v 0.38207263 2.2859132 0.61423355
v 1.1243072 2.1620562 0.61423355
v 1.7861092 1.8039069 0.6142335
v 1.4077849 2.008646 0.4168861
v 1.7861092 1.8039068 0.41688597
vt 0.375 0.16662598
vt 0.38867188 0.12597656
vt 0.39648438 0.107421875
vt 0.625 0.22912598
vt 0.49121094 0.22290039
vt 0.45654297 0.21704102
vt 0.42114258 0.8178711
vt 0.40454102 0.8178711
vt 0.3684082 0.8178711
vt 0.9472656 0.8178711
vt 0.9248047 0.8178711
vt 0.89453125 0.8178711
vt 0.375 0.22912598
vt 0.375 0.25
vt 0.625 0.25
vt 0.625 0.22912598
vt 0.45654297 0.21704102
vt 0.4423828 0.20837402
vt 0.375 0.20837402
vt 0.375 0.16662598
vt 0.4260254 0.1940918
vt 0.41015625 0.16662598
vt 0.4038086 0.16259766
vt 0.39135742 0.14501953
vt 0.38867188 0.12597656
vt 0.375 0.08331299
vt 0.39648438 0.107421875
vt 0.41357422 0.091430664
vt 0.43066406 0.08331299
vt 0.4387207 0.07324219
vt 0.46948242 0.05621338
vt 0.375 0.041656494
vt 0.625 0.041656494
vt 0.50146484 0.05621338
vt 0.375 0
vt 0.625 0
vt 0.52978516 0.07324219
vt 0.5366211 0.08331299
vt 0.625 0.08331299
vt 0.55371094 0.091430664
vt 0.5708008 0.107421875
vt 0.5786133 0.12597656
vt 0.625 0.16662598
vt 0.5761719 0.14501953
vt 0.56347656 0.16259766
vt 0.5571289 0.16662598
vt 0.625 0.20837402
vt 0.5449219 0.1940918
vt 0.52978516 0.20837402
vt 0.625 0.22912598
vt 0.5209961 0.21582031
vt 0.49121094 0.22290039
vt 0.375 0.25
vt 0.375 0.5
vt 0.625 0.5
vt 0.625 0.25
vt 0.375 0.7084961
vt 0.375 0.75
vt 0.625 0.75
vt 0.625 0.7084961
vt 0.46948242 0.69384766
vt 0.4387207 0.6767578
vt 0.43066406 0.6665039
vt 0.50146484 0.69384766
vt 0.52978516 0.6767578
vt 0.5366211 0.6665039
vt 0.375 0.6665039
vt 0.625 0.6665039
vt 0.41357422 0.6586914
vt 0.55371094 0.6586914
vt 0.5708008 0.6425781
vt 0.5786133 0.62402344
vt 0.39648438 0.6425781
vt 0.38867188 0.62402344
vt 0.39135742 0.60498047
vt 0.625 0.5834961
vt 0.375 0.5834961
vt 0.5761719 0.60498047
vt 0.56347656 0.58740234
vt 0.5571289 0.5834961
vt 0.4038086 0.58740234
vt 0.625 0.5415039
vt 0.5449219 0.55615234
vt 0.52978516 0.5415039
vt 0.41015625 0.5834961
vt 0.4260254 0.55615234
vt 0.4423828 0.5415039
vt 0.375 0.5415039
vt 0.45654297 0.5332031
vt 0.625 0.5209961
vt 0.5209961 0.5341797
vt 0.49121094 0.52734375
vt 0.375 0.5209961
vt 0.375 0.5415039
vt 0.375 0.5
vt 0.625 0.5
vt 0.375 0.75
vt 0.375 1
vt 0.625 1
vt 0.625 0.75
vt 0.125 0.7084961
vt 0.125 0.75
vt 0.375 0.75
vt 0.375 0.7084961
vt 0.125 0.6665039
vt 0.375 0.6665039
vt 0.125 0.5834961
vt 0.375 0.5834961
vt 0.125 0.5415039
vt 0.375 0.5415039
vt 0.125 0.5209961
vt 0.375 0.5209961
vt 0.125 0.5
vt 0.375 0.5
vt 0.625 0.7084961
vt 0.625 0.75
vt 0.875 0.75
vt 0.875 0.7084961
vt 0.625 0.6665039
vt 0.875 0.6665039
vt 0.625 0.5834961
vt 0.875 0.5834961
vt 0.625 0.5415039
vt 0.875 0.5415039
vt 0.625 0.5209961
vt 0.875 0.5209961
vt 0.375 0.5415039
vt 0.45654297 0.5332031
vt 0.625 0.5209961
vt 0.49121094 0.52734375
vt 0.625 0.5
vt 0.625 0.5209961
vt 0.875 0.5209961
vt 0.875 0.5
vt 0.63134766 0.8178711
vt 0.59521484 0.8178711
vt 0.57910156 0.8178711
vt 0.59521484 0.7910156
vt 0.57910156 0.7910156
vt 0.63134766 0.7910156
vt 0.5263672 0.7910156
vt 0.68408203 0.8178711
vt 0.5263672 0.8178711
vt 0.68408203 0.7910156
vt 0.4736328 0.7910156
vt 0.7368164 0.8178711
vt 0.4736328 0.8178711
vt 0.7368164 0.7910156
vt 0.42114258 0.7910156
vt 0.7895508 0.8178711
vt 0.42114258 0.8178711
vt 0.7895508 0.7910156
vt 0.40454102 0.7910156
vt 0.84228516 0.8178711
vt 0.84228516 0.7910156
vt 0.8574219 0.8178711
vt 0.8574219 0.7910156
vt 0.3684082 0.8178711
vt 0.3684082 0.7910156
vt 0.31567383 0.7910156
vt 0.31567383 0.8178711
vt 0.2631836 0.7910156
vt 0.2631836 0.8178711
vt 0.21057129 0.7910156
vt 0.21057129 0.8178711
vt 0.15783691 0.7910156
vt 0.15783691 0.8178711
vt 0.14257812 0.7910156
vt 0.14257812 0.8178711
vt 0.105285645 0.7910156
vt 0.105285645 0.8178711
vt 0.07519531 0.7910156
vt 0.052642822 0.7910156
vt 0.07519531 0.8178711
vt 0.052642822 0.8178711
vt 1.1920929E-07 0.7910156
vt 1.1920929E-07 0.8178711
vt 0.9472656 0.7910156
vt 1 0.7910156
vt 1 0.8178711
vt 0.9472656 0.8178711
vt 0.89453125 0.8178711
vt 0.9248047 0.7910156
vt 0.89453125 0.7910156
vn -0 0 -1
vn -0 0 -1
vn -0 0 -1
vn -0 0 -1
vn -0 0 -1
vn -0 0 -1
vn 0.47583008 0.87939453 0
vn 0.6142578 0.7890625 0
vn 0.73583984 0.6772461 0
vn -0.32470703 -0.9458008 0
vn -0.47583008 -0.87939453 0
vn -0.6142578 -0.7890625 0
vn -0 0 -1
vn -0 0 -1
vn -0 0 -1
vn -0 0 -1
vn -0 0 -1
vn -0 0 -1
vn -0 0 -1
vn -0 0 -1
vn -0 0 -1
vn -0 0 -1
vn -0 0 -1
vn -0 0 -1
vn -0 0 -1
vn -0 0 -1
vn -0 0 -1
vn -0 0 -1
vn -0 0 -1
vn -0 0 -1
vn -0 0 -1
vn -0 0 -1
vn -0 0 -1
vn -0 0 -1
vn -0 0 -1
vn -0 0 -1
vn -0 0 -1
vn -0 0 -1
vn -0 0 -1
vn -0 0 -1
vn -0 0 -1
vn -0 0 -1
vn -0 0 -1
vn -0 0 -1
vn -0 0 -1
vn -0 0 -1
vn -0 0 -1
vn -0 0 -1
vn -0 0 -1
vn -0 0 -1
vn -0 0 -1
vn -0 0 -1
vn -0 1 0
vn -0 1 0
vn 0.006855011 1 0
vn 0.006855011 1 0
vn -0 0 1
vn -0 0 1
vn -0 0 1
vn -0 0 1
vn -0 0 1
vn -0 0 1
vn -0 0 1
vn -0 0 1
vn -0 0 1
vn -0 0 1
vn -0 0 1
vn -0 0 1
vn -0 0 1
vn -0 0 1
vn -0 0 1
vn -0 0 1
vn -0 0 1
vn -0 0 1
vn -0 0 1
vn -0 0 1
vn -0 0 1
vn -0 0 1
vn -0 0 1
vn -0 0 1
vn -0 0 1
vn -0 0 1
vn -0 0 1
vn -0 0 1
vn -0 0 1
vn -0 0 1
vn -0 0 1
vn -0 0 1
vn -0 0 1
vn -0 0 1
vn -0 0 1
vn -0 0 1
vn -0 0 1
vn -0 0 1
vn -0 0 1
vn -0 0 1
vn 0.019577026 -1 0
vn 0.019577026 -1 0
vn -0.25463867 -0.9667969 0
vn -0.25463867 -0.9667969 0
vn 1 0 0
vn 1 0 0
vn 1 0 0
vn 1 0 0
vn 1 0 0
vn 1 0 0
vn 1 0 0
vn 1 0 0
vn 1 0 0
vn 1 0 0
vn 1 0 0
vn 1 0 0
vn 1 0 0
vn 1 0 0
vn -0.80908203 -0.58740234 0
vn -0.25463867 -0.9667969 0
vn -0.25463867 -0.9667969 0
vn -0.80908203 -0.58740234 0
vn -0.9941406 -0.10986328 0
vn -0.9941406 -0.10986328 0
vn -0.9941406 0.10986328 0
vn -0.9941406 0.10986328 0
vn -0.94970703 0.31274414 0
vn -0.94970703 0.31274414 0
vn -0.9145508 0.40429688 0
vn -0.9145508 0.40429688 0
vn -0 0 1
vn -0 0 1
vn -0 0 1
vn -0 0 1
vn 0.006855011 1 0
vn 0.013710022 1 0
vn 0.013710022 1 0
vn 0.006855011 1 0
vn -0.73583984 0.6772461 0
vn -0.6142578 0.7890625 0
vn -0.47583008 0.87939453 0
vn -0.6142578 0.7890625 0
vn -0.47583008 0.87939453 0
vn -0.73583984 0.6772461 0
vn -0.16455078 0.9863281 0
vn -0.9160156 0.40161133 0
vn -0.16455078 0.9863281 0
vn -0.9160156 0.40161133 0
vn 0.16455078 0.9863281 0
vn -0.99658203 0.08258057 0
vn 0.16455078 0.9863281 0
vn -0.99658203 0.08258057 0
vn 0.47583008 0.87939453 0
vn -0.9692383 -0.2454834 0
vn 0.47583008 0.87939453 0
vn -0.9692383 -0.2454834 0
vn 0.6142578 0.7890625 0
vn -0.83740234 -0.546875 0
vn -0.83740234 -0.546875 0
vn -0.73583984 -0.6772461 0
vn -0.73583984 -0.6772461 0
vn 0.73583984 0.6772461 0
vn 0.73583984 0.6772461 0
vn 0.9160156 0.40161133 0
vn 0.9160156 0.40161133 0
vn 0.99658203 0.08258057 0
vn 0.99658203 0.08258057 0
vn 0.9692383 -0.2454834 0
vn 0.9692383 -0.2454834 0
vn 0.83740234 -0.546875 0
vn 0.83740234 -0.546875 0
vn 0.73583984 -0.6772461 0
vn 0.73583984 -0.6772461 0
vn 0.6142578 -0.7890625 0
vn 0.6142578 -0.7890625 0
vn 0.47583008 -0.87939453 0
vn 0.32470703 -0.9458008 0
vn 0.47583008 -0.87939453 0
vn 0.32470703 -0.9458008 0
vn -0 -1 0
vn -0 -1 0
vn -0.32470703 -0.9458008 0
vn -0 -1 0
vn -0 -1 0
vn -0.32470703 -0.9458008 0
vn -0.6142578 -0.7890625 0
vn -0.47583008 -0.87939453 0
vn -0.6142578 -0.7890625 0
g Cylinder.002_0
f 3/3/3 2/2/2 1/1/1
f 6/6/6 5/5/5 4/4/4
f 9/9/9 8/8/8 7/7/7
f 12/12/12 11/11/11 10/10/10
f 15/15/15 14/14/14 13/13/13
f 16/16/16 15/15/15 13/13/13
f 17/17/17 16/16/16 13/13/13
f 18/18/18 17/17/17 13/13/13
f 13/13/13 19/19/19 18/18/18
f 18/18/18 19/19/19 20/20/20
f 20/20/20 21/21/21 18/18/18
f 20/20/20 22/22/22 21/21/21
f 23/23/23 22/22/22 20/20/20
f 20/20/20 24/24/24 23/23/23
f 20/20/20 25/25/25 24/24/24
f 27/27/27 20/20/20 26/26/26
f 26/26/26 28/28/28 27/27/27
f 26/26/26 29/29/29 28/28/28
f 30/30/30 29/29/29 26/26/26
f 31/31/31 30/30/30 26/26/26
f 31/31/31 26/26/26 32/32/32
f 32/32/32 33/33/33 31/31/31
f 33/33/33 34/34/34 31/31/31
f 33/33/33 32/32/32 35/35/35
f 36/36/36 33/33/33 35/35/35
f 33/33/33 37/37/37 34/34/34
f 33/33/33 38/38/38 37/37/37
f 33/33/33 39/39/39 38/38/38
f 40/40/40 38/38/38 39/39/39
f 39/39/39 41/41/41 40/40/40
f 39/39/39 42/42/42 41/41/41
f 42/42/42 39/39/39 43/43/43
f 44/44/44 42/42/42 43/43/43
f 45/45/45 44/44/44 43/43/43
f 43/43/43 46/46/46 45/45/45
f 46/46/46 43/43/43 47/47/47
f 48/48/48 46/46/46 47/47/47
f 47/47/47 49/49/49 48/48/48
f 49/49/49 47/47/47 50/50/50
f 51/51/51 49/49/49 50/50/50
f 52/52/52 51/51/51 50/50/50
f 55/55/55 54/54/54 53/53/53
f 56/56/56 55/55/55 53/53/53
f 59/59/59 58/58/58 57/57/57
f 60/60/60 59/59/59 57/57/57
f 61/61/61 60/60/60 57/57/57
f 62/62/62 61/61/61 57/57/57
f 63/63/63 62/62/62 57/57/57
f 61/61/61 64/64/64 60/60/60
f 64/64/64 65/65/65 60/60/60
f 65/65/65 66/66/66 60/60/60
f 57/57/57 67/67/67 63/63/63
f 66/66/66 68/68/68 60/60/60
f 69/69/69 63/63/63 67/67/67
f 68/68/68 66/66/66 70/70/70
f 70/70/70 71/71/71 68/68/68
f 71/71/71 72/72/72 68/68/68
f 67/67/67 73/73/73 69/69/69
f 67/67/67 74/74/74 73/73/73
f 75/75/75 74/74/74 67/67/67
f 72/72/72 76/76/76 68/68/68
f 75/75/75 67/67/67 77/77/77
f 76/76/76 72/72/72 78/78/78
f 76/76/76 78/78/78 79/79/79
f 79/79/79 80/80/80 76/76/76
f 77/77/77 81/81/81 75/75/75
f 82/82/82 76/76/76 80/80/80
f 82/82/82 80/80/80 83/83/83
f 83/83/83 84/84/84 82/82/82
f 77/77/77 85/85/85 81/81/81
f 86/86/86 85/85/85 77/77/77
f 87/87/87 86/86/86 77/77/77
f 77/77/77 88/88/88 87/87/87
f 89/89/89 87/87/87 88/88/88
f 90/90/90 82/82/82 84/84/84
f 90/90/90 84/84/84 91/91/91
f 90/90/90 91/91/91 92/92/92
f 94/94/94 93/93/93 90/90/90
f 90/90/90 93/93/93 95/95/95
f 96/96/96 90/90/90 95/95/95
f 99/99/99 98/98/98 97/97/97
f 100/100/100 99/99/99 97/97/97
f 103/103/103 102/102/102 101/101/101
f 104/104/104 103/103/103 101/101/101
f 104/104/104 101/101/101 105/105/105
f 106/106/106 104/104/104 105/105/105
f 106/106/106 105/105/105 107/107/107
f 108/108/108 106/106/106 107/107/107
f 108/108/108 107/107/107 109/109/109
f 110/110/110 108/108/108 109/109/109
f 110/110/110 109/109/109 111/111/111
f 112/112/112 110/110/110 111/111/111
f 112/112/112 111/111/111 113/113/113
f 114/114/114 112/112/112 113/113/113
f 117/117/117 116/116/116 115/115/115
f 118/118/118 117/117/117 115/115/115
f 118/118/118 115/115/115 119/119/119
f 120/120/120 118/118/118 119/119/119
f 120/120/120 119/119/119 121/121/121
f 122/122/122 120/120/120 121/121/121
f 122/122/122 121/121/121 123/123/123
f 124/124/124 122/122/122 123/123/123
f 124/124/124 123/123/123 125/125/125
f 126/126/126 124/124/124 125/125/125
f 129/129/129 128/128/128 127/127/127
f 129/129/129 130/130/130 128/128/128
f 133/133/133 132/132/132 131/131/131
f 134/134/134 133/133/133 131/131/131
f 137/137/137 136/136/136 135/135/135
f 137/137/137 135/135/135 138/138/138
f 138/138/138 139/139/139 137/137/137
f 140/140/140 138/138/138 135/135/135
f 137/137/137 139/139/139 141/141/141
f 135/135/135 142/142/142 140/140/140
f 143/143/143 137/137/137 141/141/141
f 142/142/142 144/144/144 140/140/140
f 143/143/143 141/141/141 145/145/145
f 142/142/142 146/146/146 144/144/144
f 147/147/147 143/143/143 145/145/145
f 146/146/146 148/148/148 144/144/144
f 147/147/147 145/145/145 149/149/149
f 146/146/146 150/150/150 148/148/148
f 151/151/151 147/147/147 149/149/149
f 150/150/150 152/152/152 148/148/148
f 151/151/151 149/149/149 153/153/153
f 150/150/150 154/154/154 152/152/152
f 154/154/154 155/155/155 152/152/152
f 155/155/155 154/154/154 156/156/156
f 156/156/156 157/157/157 155/155/155
f 153/153/153 158/158/158 151/151/151
f 153/153/153 159/159/159 158/158/158
f 158/158/158 159/159/159 160/160/160
f 161/161/161 158/158/158 160/160/160
f 161/161/161 160/160/160 162/162/162
f 163/163/163 161/161/161 162/162/162
f 163/163/163 162/162/162 164/164/164
f 165/165/165 163/163/163 164/164/164
f 165/165/165 164/164/164 166/166/166
f 167/167/167 165/165/165 166/166/166
f 167/167/167 166/166/166 168/168/168
f 168/168/168 169/169/169 167/167/167
f 168/168/168 170/170/170 169/169/169
f 170/170/170 171/171/171 169/169/169
f 171/171/171 170/170/170 172/172/172
f 172/172/172 173/173/173 171/171/171
f 173/173/173 174/174/174 171/171/171
f 173/173/173 175/175/175 174/174/174
f 175/175/175 173/173/173 176/176/176
f 177/177/177 175/175/175 176/176/176
f 180/180/180 179/179/179 178/178/178
f 181/181/181 180/180/180 178/178/178
f 182/182/182 181/181/181 178/178/178
f 182/182/182 178/178/178 183/183/183
f 183/183/183 184/184/184 182/182/182
f 182/182/182 184/184/184 157/157/157
f 156/156/156 182/182/182 157/157/157
