g Cylinder
v -0 1 -1
v 0.78183144 0.62348986 1.7778324
v -0 1 1.7778324
v 0.78183144 0.62348986 -1
v 0.9749279 -0.22252095 1.7778324
v 0.9749279 -0.22252095 -1
v 0.9298657 -0.21223588 -1.1067245
v 0.7456944 0.5946715 -1.1067245
v 0.8086951 -0.18457907 -1.2042083
v 0.64852303 0.5171803 -1.2042083
v 0.9749279 -0.22252095 -1
v 0.43388376 -0.90096885 1.7778324
v 0.9749279 -0.22252095 1.7778324
v 0.43388376 -0.90096885 -1
v -0.43388376 -0.90096885 1.7778324
v -0.43388376 -0.90096885 -1
v -0.41382924 -0.85932523 -1.1067245
v 0.41382918 -0.85932523 -1.1067245
v -0.35990325 -0.74734634 -1.2042083
v 0.35990316 -0.74734634 -1.2042083
v -0.43388376 -0.90096885 -1
v -0.9749279 -0.22252095 1.7778324
v -0.43388376 -0.90096885 1.7778324
v -0.9749279 -0.22252095 -1
v -0.78183144 0.62348986 1.7778324
v -0.78183144 0.62348986 -1
v -0 1 1.7778324
v -0 1 -1
v -0.7456944 0.5946715 -1.1067245
v -0.9298657 -0.21223588 -1.1067245
v -0.64852315 0.5171803 -1.2042083
v -0.80869514 -0.18457907 -1.2042083
v -0.35255554 -0.7320892 1.9275599
v -0.35255554 -0.7320892 2.0662806
v 0.35255545 -0.7320892 2.0662806
v 0.35255545 -0.7320892 1.9275599
v 0.79218495 -0.18081127 2.0662806
v 0.79218495 -0.18081127 1.9275599
v 0.79218495 -0.18081127 1.9275599
v 0.79218495 -0.18081127 2.0662806
v 0.63528293 0.5066211 2.0662806
v 0.63528293 0.5066211 1.9275599
v -4.845637E-08 0.81255734 2.0662806
v -4.845637E-08 0.81255734 1.9275599
v -4.845637E-08 0.81255734 1.9275599
v -4.845637E-08 0.81255734 2.0662806
v -0.63528305 0.5066211 2.0662806
v -0.63528305 0.5066211 1.9275599
v -0.792185 -0.18081127 2.0662806
v -0.792185 -0.18081127 1.9275599
v -0.35255554 -0.7320892 2.0662806
v -0.35255554 -0.7320892 1.9275599
v 0.6392513 -0.14590475 2.0662806
v 0.45887905 0.36594433 1.9638342
v 0.51263964 0.40881678 2.0662806
v 0.57221293 -0.1306035 1.9638342
v 0.28449354 -0.5907569 2.0662806
v 0.25465864 -0.52880394 1.9638342
v 0.45887905 0.36594433 1.9638342
v 0.57221293 -0.1306035 1.9638342
v 0.25465864 -0.52880394 1.9638342
v -1.01204606E-07 0.58692896 1.9638342
v -0.25465885 -0.52880394 1.9638342
v -0.45887926 0.36594433 1.9638342
v -0.5722131 -0.1306035 1.9638342
v -8.512913E-08 0.65569115 2.0662806
v -0.45887926 0.36594433 1.9638342
v -0.5126398 0.40881678 2.0662806
v -1.01204606E-07 0.58692896 1.9638342
v 0.51263964 0.40881678 2.0662806
v 0.45887905 0.36594433 1.9638342
v -0.6392514 -0.14590475 2.0662806
v -0.25465885 -0.52880394 1.9638342
v -0.2844937 -0.5907569 2.0662806
v -0.5722131 -0.1306035 1.9638342
v -0.5126398 0.40881678 2.0662806
v -0.45887926 0.36594433 1.9638342
v -0.2844937 -0.5907569 2.0662806
v -0.25465885 -0.52880394 1.9638342
v 0.25465864 -0.52880394 1.9638342
v 0.28449354 -0.5907569 2.0662806
v 0.9749279 -0.22252095 -1
v 0.41382918 -0.85932523 -1.1067245
v 0.43388376 -0.90096885 -1
v 0.9298657 -0.21223588 -1.1067245
v 0.35990316 -0.74734634 -1.2042083
v 0.8086951 -0.18457907 -1.2042083
v 0.64852303 0.5171803 -1.2042083
v -3.6962575E-08 0.8294925 -1.2042083
v -0.35990325 -0.74734634 -1.2042083
v -9.0963965E-09 0.9537789 -1.1067245
v 0.7456944 0.5946715 -1.1067245
v -0 1 -1
v 0.78183144 0.62348986 -1
v -0.78183144 0.62348986 -1
v -0.7456944 0.5946715 -1.1067245
v -0.64852315 0.5171803 -1.2042083
v -0.80869514 -0.18457907 -1.2042083
v -0.41382924 -0.85932523 -1.1067245
v -0.9298657 -0.21223588 -1.1067245
v -0.43388376 -0.90096885 -1
v -0.9749279 -0.22252095 -1
v -0 1 1.7778324
v -0.73998135 0.5901155 1.8526962
v -0.78183144 0.62348986 1.7778324
v -1.4728954E-08 0.9464717 1.8526962
v 0.78183144 0.62348986 1.7778324
v -0.9227417 -0.21060985 1.8526962
v -0.9749279 -0.22252095 1.7778324
v 0.73998135 0.5901155 1.8526962
v 0.9749279 -0.22252095 1.7778324
v -0.41065872 -0.85274166 1.8526962
v -0.43388376 -0.90096885 1.7778324
v 0.92274165 -0.21060985 1.8526962
v 0.43388376 -0.90096885 1.7778324
v 0.4106587 -0.85274166 1.8526962
v -0.792185 -0.18081127 1.9275599
v -0.63528305 0.5066211 1.9275599
v -0.35255554 -0.7320892 1.9275599
v -4.845637E-08 0.81255734 1.9275599
v 0.35255545 -0.7320892 1.9275599
v 0.63528293 0.5066211 1.9275599
v 0.79218495 -0.18081127 1.9275599
v -0.63528305 0.5066211 2.0662806
v -0.5126398 0.40881678 2.0662806
v -0.6392514 -0.14590475 2.0662806
v -0.792185 -0.18081127 2.0662806
v -4.845637E-08 0.81255734 2.0662806
v -0.2844937 -0.5907569 2.0662806
v -8.512913E-08 0.65569115 2.0662806
v -0.35255554 -0.7320892 2.0662806
v 0.63528293 0.5066211 2.0662806
v 0.28449354 -0.5907569 2.0662806
v 0.51263964 0.40881678 2.0662806
v 0.35255545 -0.7320892 2.0662806
v 0.79218495 -0.18081127 2.0662806
v 0.6392513 -0.14590475 2.0662806
vt 0.62597656 0.04019165
vt 0.5263672 0.5517578
vt 0.62597656 0.5517578
vt 0.5263672 0.04019165
vt 0.36669922 0.5517578
vt 0.36669922 0.04019165
vt 0.37353516 0.021408081
vt 0.51953125 0.021408081
vt 0.3803711 0.0026073456
vt 0.5131836 0.0026073456
vt 0.890625 0.04019165
vt 0.7910156 0.5517578
vt 0.890625 0.5517578
vt 0.7910156 0.04019165
vt 0.63134766 0.5517578
vt 0.63134766 0.04019165
vt 0.6381836 0.021408081
vt 0.7841797 0.021408081
vt 0.64501953 0.0026073456
vt 0.77734375 0.0026073456
vt 0.36157227 0.04019165
vt 0.2619629 0.5517578
vt 0.36157227 0.5517578
vt 0.2619629 0.04019165
vt 0.10223389 0.5517578
vt 0.10223389 0.04019165
vt 0.0026073456 0.5517578
vt 0.0026073456 0.04019165
vt 0.10900879 0.021408081
vt 0.25512695 0.021408081
vt 0.11584473 0.0026073456
vt 0.24841309 0.0026073456
vt 0.9267578 0.2133789
vt 0.95214844 0.2133789
vt 0.95214844 0.08355713
vt 0.9267578 0.08355713
vt 0.95214844 0.0026073456
vt 0.9267578 0.0026073456
vt 0.9213867 0.29956055
vt 0.8959961 0.29956055
vt 0.8959961 0.42944336
vt 0.9213867 0.42944336
vt 0.8959961 0.5102539
vt 0.9213867 0.5102539
vt 0.9213867 0.0026073456
vt 0.8959961 0.0026073456
vt 0.8959961 0.08355713
vt 0.9213867 0.08355713
vt 0.8959961 0.2133789
vt 0.9213867 0.2133789
vt 0.8959961 0.29418945
vt 0.9213867 0.29418945
vt 0.95751953 0.09698486
vt 0.9765625 0.012504578
vt 0.95751953 0.0026073456
vt 0.9765625 0.09698486
vt 0.95751953 0.19140625
vt 0.9765625 0.18151855
vt 0.75439453 0.7026367
vt 0.79541016 0.7871094
vt 0.88671875 0.80810547
vt 0.79541016 0.61816406
vt 0.95996094 0.7495117
vt 0.88671875 0.59716797
vt 0.95996094 0.6557617
vt 0.9267578 0.31298828
vt 0.9458008 0.22851562
vt 0.9267578 0.21862793
vt 0.9458008 0.31298828
vt 0.9267578 0.40722656
vt 0.9458008 0.39746094
vt 0.9506836 0.31298828
vt 0.96972656 0.22851562
vt 0.9506836 0.21862793
vt 0.96972656 0.31298828
vt 0.9506836 0.40722656
vt 0.96972656 0.39746094
vt 0.9711914 0.7548828
vt 0.95996094 0.7495117
vt 0.88671875 0.80810547
vt 0.88964844 0.8203125
vt 0.0026073456 0.7363281
vt 0.081726074 0.6044922
vt 0.071899414 0.59228516
vt 0.018310547 0.7363281
vt 0.0914917 0.6166992
vt 0.033996582 0.7363281
vt 0.0914917 0.85595703
vt 0.22070312 0.8852539
vt 0.22070312 0.58740234
vt 0.22424316 0.9003906
vt 0.081726074 0.86816406
vt 0.22766113 0.9160156
vt 0.071899414 0.8803711
vt 0.35253906 0.81640625
vt 0.3383789 0.8095703
vt 0.32421875 0.8027344
vt 0.32421875 0.6699219
vt 0.22424316 0.5722656
vt 0.3383789 0.66308594
vt 0.22766113 0.5566406
vt 0.35253906 0.65625
vt 0.5830078 0.9160156
vt 0.43798828 0.8666992
vt 0.4272461 0.8803711
vt 0.57910156 0.8989258
vt 0.7080078 0.81640625
vt 0.375 0.7363281
vt 0.35791016 0.7363281
vt 0.6923828 0.80859375
vt 0.7080078 0.65625
vt 0.43798828 0.60595703
vt 0.4272461 0.59228516
vt 0.6923828 0.6640625
vt 0.5830078 0.5566406
vt 0.57910156 0.57373047
vt 0.39233398 0.7363281
vt 0.44873047 0.8535156
vt 0.44873047 0.6191406
vt 0.5751953 0.8823242
vt 0.5751953 0.59033203
vt 0.6767578 0.80126953
vt 0.6767578 0.6713867
vt 0.8959961 0.5566406
vt 0.88964844 0.58496094
vt 0.9711914 0.6503906
vt 0.9975586 0.6376953
vt 0.76953125 0.5859375
vt 0.9711914 0.7548828
vt 0.7871094 0.60839844
vt 0.9975586 0.7675781
vt 0.7128906 0.7026367
vt 0.88964844 0.8203125
vt 0.7416992 0.7026367
vt 0.8959961 0.8486328
vt 0.76953125 0.8198242
vt 0.7871094 0.796875
vn -0 0.9814453 -0.19262695
vn 0.75 0.59814453 0.28344727
vn -0 0.9589844 0.28344727
vn 0.76708984 0.6118164 -0.19262695
vn 0.9350586 -0.2133789 0.28344727
vn 0.95654297 -0.21838379 -0.19262695
vn 0.7944336 -0.18127441 -0.57958984
vn 0.63720703 0.5078125 -0.57958984
vn 0.39404297 -0.089904785 -0.9145508
vn 0.31591797 0.25195312 -0.9145508
vn 0.95654297 -0.21838379 -0.19262695
vn 0.41601562 -0.8642578 0.28344727
vn 0.9350586 -0.2133789 0.28344727
vn 0.42578125 -0.88427734 -0.19262695
vn -0.41601562 -0.8642578 0.28344727
vn -0.42578125 -0.88427734 -0.19262695
vn -0.35351562 -0.734375 -0.57958984
vn 0.35351562 -0.734375 -0.57958984
vn -0.17541504 -0.36401367 -0.9145508
vn 0.17541504 -0.36401367 -0.9145508
vn -0.42578125 -0.88427734 -0.19262695
vn -0.9350586 -0.2133789 0.28344727
vn -0.41601562 -0.8642578 0.28344727
vn -0.95654297 -0.21838379 -0.19262695
vn -0.75 0.59814453 0.28344727
vn -0.76708984 0.6118164 -0.19262695
vn -0 0.9589844 0.28344727
vn -0 0.9814453 -0.19262695
vn -0.63720703 0.5078125 -0.57958984
vn -0.7944336 -0.18127441 -0.57958984
vn -0.31591797 0.25195312 -0.9145508
vn -0.39404297 -0.089904785 -0.9145508
vn -0.35375977 -0.7348633 0.5786133
vn -0.4338379 -0.9008789 0
vn 0.4338379 -0.9008789 0
vn 0.35375977 -0.7348633 0.5786133
vn 0.97509766 -0.22253418 0
vn 0.7949219 -0.18151855 0.5786133
vn 0.7949219 -0.18151855 0.5786133
vn 0.97509766 -0.22253418 0
vn 0.7817383 0.62353516 0
vn 0.6376953 0.5083008 0.5786133
vn -0 1 0
vn -0 0.8154297 0.5786133
vn -0 0.8154297 0.5786133
vn -0 1 0
vn -0.7817383 0.62353516 0
vn -0.6376953 0.5083008 0.5786133
vn -0.97509766 -0.22253418 0
vn -0.7949219 -0.18151855 0.5786133
vn -0.4338379 -0.9008789 0
vn -0.35375977 -0.7348633 0.5786133
vn -0.8095703 0.18481445 0.5571289
vn -0.6489258 -0.5175781 0.5571289
vn -0.6489258 -0.5175781 0.5571289
vn -0.8095703 0.18481445 0.5571289
vn -0.36035156 0.7480469 0.5571289
vn -0.36035156 0.7480469 0.5571289
vn -0 0 1
vn -0 0 1
vn -0 0 1
vn -0 0 1
vn -0 0 1
vn -0 0 1
vn -0 0 1
vn -0 -0.8300781 0.5571289
vn 0.6489258 -0.5175781 0.5571289
vn 0.6489258 -0.5175781 0.5571289
vn -0 -0.8300781 0.5571289
vn -0.6489258 -0.5175781 0.5571289
vn -0.6489258 -0.5175781 0.5571289
vn 0.8095703 0.18481445 0.5571289
vn 0.36035156 0.7480469 0.5571289
vn 0.36035156 0.7480469 0.5571289
vn 0.8095703 0.18481445 0.5571289
vn 0.6489258 -0.5175781 0.5571289
vn 0.6489258 -0.5175781 0.5571289
vn 0.36035156 0.7480469 0.5571289
vn 0.36035156 0.7480469 0.5571289
vn -0.36035156 0.7480469 0.5571289
vn -0.36035156 0.7480469 0.5571289
vn 0.95654297 -0.21838379 -0.19262695
vn 0.35351562 -0.734375 -0.57958984
vn 0.42578125 -0.88427734 -0.19262695
vn 0.7944336 -0.18127441 -0.57958984
vn 0.17541504 -0.36401367 -0.9145508
vn 0.39404297 -0.089904785 -0.9145508
vn 0.31591797 0.25195312 -0.9145508
vn -0 0.40405273 -0.9145508
vn -0.17541504 -0.36401367 -0.9145508
vn -0 0.8149414 -0.57958984
vn 0.63720703 0.5078125 -0.57958984
vn -0 0.9814453 -0.19262695
vn 0.76708984 0.6118164 -0.19262695
vn -0.76708984 0.6118164 -0.19262695
vn -0.63720703 0.5078125 -0.57958984
vn -0.31591797 0.25195312 -0.9145508
vn -0.39404297 -0.089904785 -0.9145508
vn -0.35351562 -0.734375 -0.57958984
vn -0.7944336 -0.18127441 -0.57958984
vn -0.42578125 -0.88427734 -0.19262695
vn -0.95654297 -0.21838379 -0.19262695
vn -0 0.9589844 0.28344727
vn -0.54589844 0.43530273 0.7158203
vn -0.75 0.59814453 0.28344727
vn -0 0.6982422 0.7158203
vn 0.75 0.59814453 0.28344727
vn -0.68066406 -0.15539551 0.7158203
vn -0.9350586 -0.2133789 0.28344727
vn 0.54589844 0.43530273 0.7158203
vn 0.9350586 -0.2133789 0.28344727
vn -0.30297852 -0.62890625 0.7158203
vn -0.41601562 -0.8642578 0.28344727
vn 0.68066406 -0.15539551 0.7158203
vn 0.41601562 -0.8642578 0.28344727
vn 0.30297852 -0.62890625 0.7158203
vn -0.7949219 -0.18151855 0.5786133
vn -0.6376953 0.5083008 0.5786133
vn -0.35375977 -0.7348633 0.5786133
vn -0 0.8154297 0.5786133
vn 0.35375977 -0.7348633 0.5786133
vn 0.6376953 0.5083008 0.5786133
vn 0.7949219 -0.18151855 0.5786133
vn -0 0 1
vn -0 0 1
vn -0 0 1
vn -0 0 1
vn -0 0 1
vn -0 0 1
vn -0 0 1
vn -0 0 1
vn -0 0 1
vn -0 0 1
vn -0 0 1
vn -0 0 1
vn -0 0 1
vn -0 0 1
g Cylinder_0
f 3/3/3 2/2/2 1/1/1
f 2/2/2 4/4/4 1/1/1
f 2/2/2 5/5/5 4/4/4
f 5/5/5 6/6/6 4/4/4
f 6/6/6 7/7/7 4/4/4
f 7/7/7 8/8/8 4/4/4
f 7/7/7 9/9/9 8/8/8
f 9/9/9 10/10/10 8/8/8
f 13/13/13 12/12/12 11/11/11
f 12/12/12 14/14/14 11/11/11
f 12/12/12 15/15/15 14/14/14
f 15/15/15 16/16/16 14/14/14
f 16/16/16 17/17/17 14/14/14
f 17/17/17 18/18/18 14/14/14
f 17/17/17 19/19/19 18/18/18
f 19/19/19 20/20/20 18/18/18
f 23/23/23 22/22/22 21/21/21
f 22/22/22 24/24/24 21/21/21
f 22/22/22 25/25/25 24/24/24
f 25/25/25 26/26/26 24/24/24
f 25/25/25 27/27/27 26/26/26
f 27/27/27 28/28/28 26/26/26
f 26/26/26 29/29/29 24/24/24
f 29/29/29 30/30/30 24/24/24
f 29/29/29 31/31/31 30/30/30
f 31/31/31 32/32/32 30/30/30
f 35/35/35 34/34/34 33/33/33
f 36/36/36 35/35/35 33/33/33
f 37/37/37 35/35/35 36/36/36
f 38/38/38 37/37/37 36/36/36
f 41/41/41 40/40/40 39/39/39
f 42/42/42 41/41/41 39/39/39
f 43/43/43 41/41/41 42/42/42
f 44/44/44 43/43/43 42/42/42
f 47/47/47 46/46/46 45/45/45
f 48/48/48 47/47/47 45/45/45
f 49/49/49 47/47/47 48/48/48
f 50/50/50 49/49/49 48/48/48
f 51/51/51 49/49/49 50/50/50
f 52/52/52 51/51/51 50/50/50
f 55/55/55 54/54/54 53/53/53
f 54/54/54 56/56/56 53/53/53
f 53/53/53 56/56/56 57/57/57
f 56/56/56 58/58/58 57/57/57
f 61/61/61 60/60/60 59/59/59
f 59/59/59 62/62/62 61/61/61
f 62/62/62 63/63/63 61/61/61
f 62/62/62 64/64/64 63/63/63
f 64/64/64 65/65/65 63/63/63
f 68/68/68 67/67/67 66/66/66
f 67/67/67 69/69/69 66/66/66
f 66/66/66 69/69/69 70/70/70
f 69/69/69 71/71/71 70/70/70
f 74/74/74 73/73/73 72/72/72
f 73/73/73 75/75/75 72/72/72
f 72/72/72 75/75/75 76/76/76
f 75/75/75 77/77/77 76/76/76
f 80/80/80 79/79/79 78/78/78
f 81/81/81 80/80/80 78/78/78
f 84/84/84 83/83/83 82/82/82
f 83/83/83 85/85/85 82/82/82
f 83/83/83 86/86/86 85/85/85
f 86/86/86 87/87/87 85/85/85
f 88/88/88 87/87/87 86/86/86
f 86/86/86 89/89/89 88/88/88
f 86/86/86 90/90/90 89/89/89
f 88/88/88 89/89/89 91/91/91
f 92/92/92 88/88/88 91/91/91
f 92/92/92 91/91/91 93/93/93
f 94/94/94 92/92/92 93/93/93
f 93/93/93 91/91/91 95/95/95
f 91/91/91 96/96/96 95/95/95
f 91/91/91 89/89/89 96/96/96
f 89/89/89 97/97/97 96/96/96
f 90/90/90 97/97/97 89/89/89
f 90/90/90 98/98/98 97/97/97
f 98/98/98 90/90/90 99/99/99
f 100/100/100 98/98/98 99/99/99
f 100/100/100 99/99/99 101/101/101
f 102/102/102 100/100/100 101/101/101
f 105/105/105 104/104/104 103/103/103
f 104/104/104 106/106/106 103/103/103
f 103/103/103 106/106/106 107/107/107
f 108/108/108 104/104/104 105/105/105
f 109/109/109 108/108/108 105/105/105
f 106/106/106 110/110/110 107/107/107
f 107/107/107 110/110/110 111/111/111
f 112/112/112 108/108/108 109/109/109
f 113/113/113 112/112/112 109/109/109
f 110/110/110 114/114/114 111/111/111
f 111/111/111 114/114/114 115/115/115
f 115/115/115 116/116/116 113/113/113
f 116/116/116 112/112/112 113/113/113
f 114/114/114 116/116/116 115/115/115
f 108/108/108 117/117/117 104/104/104
f 117/117/117 118/118/118 104/104/104
f 104/104/104 118/118/118 106/106/106
f 119/119/119 117/117/117 108/108/108
f 112/112/112 119/119/119 108/108/108
f 118/118/118 120/120/120 106/106/106
f 106/106/106 120/120/120 110/110/110
f 121/121/121 119/119/119 112/112/112
f 116/116/116 121/121/121 112/112/112
f 120/120/120 122/122/122 110/110/110
f 110/110/110 122/122/122 114/114/114
f 123/123/123 121/121/121 116/116/116
f 122/122/122 123/123/123 114/114/114
f 114/114/114 123/123/123 116/116/116
f 126/126/126 125/125/125 124/124/124
f 127/127/127 126/126/126 124/124/124
f 124/124/124 125/125/125 128/128/128
f 129/129/129 126/126/126 127/127/127
f 125/125/125 130/130/130 128/128/128
f 131/131/131 129/129/129 127/127/127
f 128/128/128 130/130/130 132/132/132
f 133/133/133 129/129/129 131/131/131
f 130/130/130 134/134/134 132/132/132
f 135/135/135 133/133/133 131/131/131
f 132/132/132 134/134/134 136/136/136
f 137/137/137 133/133/133 135/135/135
f 136/136/136 137/137/137 135/135/135
f 134/134/134 137/137/137 136/136/136
