g Cylinder
v 1.9640474 1.0179057 0.13602015
v 2.2072222 0.110363886 0.13602015
v 1.6297768 0.29194084 0.17323329
v 1.5465531 0.6025357 0.17323329
v 1.1870482 0.68534267 0.17572409
v 1.3706852 2.2670257E-09 0.17572409
v 1.0604537 -5.2140665E-09 0.38576508
v 0.9203863 -0.5494052 0.3825573
v 1.1870482 -0.68534267 0.17572409
v 0.7953917 -0.90464836 0.18855071
v 0.4463268 -0.97074765 0.37938407
v 0.59335965 -1.2270714 0.1735651
v 0.26165 -1.3737303 0.1596471
v -0.116073504 -1.3496344 0.17587127
v 0.41519487 -0.43297854 0.50304306
v -0.1227952 -1.0316101 0.38575095
v -0.40287215 -1.1133146 0.17744283
v -0.17353046 -0.5680936 0.50341034
v -0.59012485 -0.86327285 0.39021984
v -0.7835788 -1.1091186 0.17826106
v -1.1101316 -0.8545536 0.17128049
v -1.0129817 -0.3440854 0.3923307
v -1.3075169 -0.4442487 0.18356377
v -1.3706856 2.2670257E-09 0.17572409
v -0.59946424 -0.1606543 0.5057508
v -1.0604535 -5.2140665E-09 0.38576508
v -1.1870486 0.68534267 0.17572409
v -0.9181004 0.54018384 0.38436407
v -0.87396693 0.87713933 0.17476283
v -0.37720194 0.47022703 0.50266594
v -0.53732365 0.9144868 0.3861147
v -0.5864091 1.2701356 0.154764
v -0.24819377 1.3867601 0.15076013
v 0.15553801 0.58047384 0.5032795
v 0.01451739 1.0624342 0.38462606
v 0.56347847 0.9174047 0.38083446
v -1.900014E-07 1.3706853 0.17572409
v 0.31878617 1.1875772 0.18160771
v 0.6853425 1.1870483 0.17572409
v 0.98727417 1.0165664 0.15781796
v 0.5804084 0.20864958 0.502345
v 0.9183797 0.53022677 0.38576508
v 1.6297768 0.29194084 0.17323329
v 1.1870482 0.68534267 0.17572409
v 1.3706852 2.2670257E-09 0.17572409
v 1.5465531 0.6025357 0.17323329
v 1.9640474 1.0179057 0.13602015
v 2.2072222 0.110363886 0.13602015
v 0.5254893 0.9101742 -0.041479222
v 0.6853425 1.1870483 0.17572409
v 0.31878617 1.1875772 0.18160771
v 0.98727417 1.0165664 0.15781796
v 0.71783173 0.71783173 -0.041479222
v 1.1870482 0.68534267 0.17572409
v 0.2627446 0.9805764 -0.041479222
v -0.0069411322 1.0605259 -0.03767074
v -1.900014E-07 1.3706853 0.17572409
v -0.24819377 1.3867601 0.15076013
v -0.5864091 1.2701356 0.154764
v 0.3287417 0.56939805 -0.17324013
v -3.8750767E-07 0.6574839 -0.17324024
v 0.29766196 -0.5781019 -0.17407057
v -0.55491257 0.8353223 -0.05600664
v -0.87396693 0.87713933 0.17476283
v 0.56914425 0.32869148 -0.17331633
v 0.91017413 0.52548933 -0.041479222
v -0.3288727 0.56970865 -0.17312667
v -0.91017425 0.52548933 -0.041479222
v -1.1870486 0.68534267 0.17572409
v -1.3706856 2.2670257E-09 0.17572409
v 1.0509787 2.532139E-10 -0.041479222
v 1.3706852 2.2670257E-09 0.17572409
v 0.65748346 1.6666791E-09 -0.17324024
v 0.91017413 -0.52548933 -0.041479222
v 1.1870482 -0.68534267 0.17572409
v 0.7953917 -0.90464836 0.18855071
v 0.5693973 -0.32874194 -0.17324024
v 0.664385 -0.7620961 -0.043576814
v 0.45657706 -0.9376147 -0.042994596
v 0.59335965 -1.2270714 0.1735651
v 0.26165 -1.3737303 0.1596471
v 0.17775306 -0.9828151 -0.042079866
v -0.057552952 -0.63832873 -0.17295529
v -0.089972414 -1.0309142 -0.041214764
v -0.116073504 -1.3496344 0.17587127
v -0.40287215 -1.1133146 0.17744283
v -0.34587866 -0.9387059 -0.040298566
v -0.37757444 -0.52335256 -0.1716859
v -0.60178494 -0.84649765 -0.039382383
v -0.7835788 -1.1091186 0.17826106
v -1.1101316 -0.8545536 0.17128049
v -0.8081165 -0.60227454 -0.036270842
v -0.56981915 0.32948673 -0.17296727
v -1.005018 -0.34359068 -0.034943834
v -1.3075169 -0.4442487 0.18356377
v -0.66314024 -0.15345463 -0.17036103
v -1.0509787 2.532139E-10 -0.041479222
vt 0.50341797 0.07556152
vt 0.34521484 0.0010671616
vt 0.35961914 0.11291504
vt 0.41381836 0.13842773
vt 0.4169922 0.20703125
vt 0.29736328 0.15075684
vt 0.28735352 0.20776367
vt 0.1821289 0.21533203
vt 0.16577148 0.16186523
vt 0.1126709 0.22644043
vt 0.0892334 0.28833008
vt 0.046905518 0.2529297
vt 0.0090789795 0.3088379
vt 0.0010662079 0.37890625
vt 0.18688965 0.31176758
vt 0.059326172 0.390625
vt 0.034942627 0.43920898
vt 0.1427002 0.4152832
vt 0.07476807 0.4819336
vt 0.023162842 0.50927734
vt 0.05908203 0.5776367
vt 0.15600586 0.57666016
vt 0.12780762 0.6269531
vt 0.20715332 0.6533203
vt 0.20336914 0.50683594
vt 0.2175293 0.5966797
vt 0.3388672 0.64208984
vt 0.32128906 0.5883789
vt 0.38427734 0.5913086
vt 0.32641602 0.4868164
vt 0.40234375 0.5307617
vt 0.4658203 0.55126953
vt 0.49829102 0.49316406
vt 0.36401367 0.39282227
vt 0.4477539 0.4345703
vt 0.43920898 0.32910156
vt 0.50341797 0.44726562
vt 0.48046875 0.3828125
vt 0.49243164 0.3154297
vt 0.4711914 0.25463867
vt 0.3100586 0.30273438
vt 0.3798828 0.2512207
vt 0.35961914 0.11291504
vt 0.4169922 0.20703125
vt 0.29736328 0.15075684
vt 0.41381836 0.13842773
vt 0.50341797 0.07556152
vt 0.34521484 0.0010671616
vt 0.7011719 0.43920898
vt 0.68603516 0.49609375
vt 0.7524414 0.47851562
vt 0.62353516 0.47998047
vt 0.65722656 0.4140625
vt 0.57177734 0.42993164
vt 0.7519531 0.43920898
vt 0.8041992 0.44067383
vt 0.8183594 0.49609375
vt 0.86376953 0.48706055
vt 0.9189453 0.44970703
vt 0.72021484 0.36889648
vt 0.7836914 0.36889648
vt 0.67041016 0.16113281
vt 0.89208984 0.3737793
vt 0.95166016 0.36523438
vt 0.66503906 0.3371582
vt 0.61376953 0.38867188
vt 0.8383789 0.33740234
vt 0.94091797 0.3010254
vt 0.99902344 0.3154297
vt 0.99902344 0.18347168
vt 0.5629883 0.30078125
vt 0.5058594 0.3154297
vt 0.6333008 0.2824707
vt 0.5629883 0.19958496
vt 0.5058594 0.18334961
vt 0.5654297 0.125
vt 0.6333008 0.21899414
vt 0.5957031 0.1451416
vt 0.6245117 0.10357666
vt 0.5864258 0.057281494
vt 0.63916016 0.014984131
vt 0.67285156 0.08203125
vt 0.7314453 0.13317871
vt 0.7182617 0.060455322
vt 0.7080078 0.0010662079
vt 0.7709961 0.029754639
vt 0.76904297 0.064697266
vt 0.7944336 0.13842773
vt 0.81933594 0.06896973
vt 0.83984375 0.012168884
vt 0.91064453 0.042266846
vt 0.86816406 0.10296631
vt 0.8701172 0.2824707
vt 0.9165039 0.14001465
vt 0.9663086 0.10650635
vt 0.86376953 0.19116211
vt 0.94091797 0.19958496
vn 0.07019043 0.018814087 0.9975586
vn 0.07019043 0.018814087 0.9975586
vn 0.03866577 0.010360718 0.99902344
vn 0.039031982 0.0104599 0.99902344
vn 0.84521484 0.41674805 0.3347168
vn 0.9501953 0.0008864403 0.3112793
vn 0.42749023 -0.0051078796 0.9038086
vn 0.37060547 -0.25341797 0.8935547
vn 0.8183594 -0.57421875 0.010757446
vn 0.6845703 -0.7285156 0.029891968
vn 0.21765137 -0.39770508 0.8911133
vn 0.5629883 -0.8261719 -0.021118164
vn 0.16845703 -0.9848633 -0.037475586
vn -0.25585938 -0.9663086 0.022094727
vn 0.10247803 -0.10675049 0.98876953
vn -0.086364746 -0.43847656 0.89453125
vn -0.33740234 -0.94140625 -0.011886597
vn -0.03466797 -0.14123535 0.9892578
vn -0.21643066 -0.40600586 0.8876953
vn -0.44384766 -0.8959961 -0.017242432
vn -0.7788086 -0.6269531 -0.015472412
vn -0.38354492 -0.14611816 0.9121094
vn -0.9423828 -0.33447266 0.017471313
vn -0.99853516 0.055786133 -0.0036525726
vn -0.13977051 -0.034820557 0.9897461
vn -0.42211914 0.041625977 0.9057617
vn -0.8256836 0.56396484 0.011291504
vn -0.3762207 0.24353027 0.89404297
vn -0.69189453 0.7216797 -0.010223389
vn -0.09387207 0.110961914 0.9892578
vn -0.26000977 0.38061523 0.88720703
vn -0.5234375 0.85009766 -0.058563232
vn -0.1784668 0.9824219 -0.058380127
vn 0.035858154 0.14147949 0.9892578
vn 0.03186035 0.43554688 0.89941406
vn 0.20446777 0.39916992 0.89404297
vn 0.20410156 0.97753906 0.05218506
vn 0.25927734 0.9658203 0.012901306
vn 0.35913086 0.93310547 -0.015640259
vn 0.7001953 0.71240234 -0.04660034
vn 0.14172363 0.045776367 0.98876953
vn 0.37060547 0.19799805 0.90722656
vn -0.03866577 -0.010360718 -0.99902344
vn -0.007385254 -0.0019779205 -1
vn -0.007385254 -0.0019779205 -1
vn -0.039031982 -0.0104599 -0.99902344
vn -0.07019043 -0.018814087 -0.9975586
vn -0.07019043 -0.018814087 -0.9975586
vn 0.1694336 0.43408203 -0.8847656
vn 0.35913086 0.93310547 -0.015640259
vn 0.25927734 0.9658203 0.012901306
vn 0.7001953 0.71240234 -0.04660034
vn 0.2927246 0.2927246 -0.91015625
vn 0.84521484 0.41674805 0.3347168
vn 0.1282959 0.48120117 -0.8671875
vn 0.05770874 0.45629883 -0.8876953
vn 0.20410156 0.97753906 0.05218506
vn -0.1784668 0.9824219 -0.058380127
vn -0.5234375 0.85009766 -0.058563232
vn 0.09246826 0.16186523 -0.9824219
vn -0.00063848495 0.18688965 -0.9824219
vn 0.08154297 -0.16796875 -0.9824219
vn -0.27294922 0.3581543 -0.8930664
vn -0.69189453 0.7216797 -0.010223389
vn 0.16101074 0.09320068 -0.9824219
vn 0.4013672 0.19396973 -0.89501953
vn -0.091918945 0.16442871 -0.9819336
vn -0.4020996 0.2619629 -0.8774414
vn -0.8256836 0.56396484 0.011291504
vn -0.99853516 0.055786133 -0.0036525726
vn 0.46166992 0 -0.88720703
vn 0.9501953 0.0008864403 0.3112793
vn 0.18615723 -0.00015830994 -0.9824219
vn 0.39916992 -0.28125 -0.8725586
vn 0.8183594 -0.57421875 0.010757446
vn 0.6845703 -0.7285156 0.029891968
vn 0.16064453 -0.09576416 -0.9824219
vn 0.35205078 -0.37695312 -0.8564453
vn 0.26464844 -0.39086914 -0.88134766
vn 0.5629883 -0.8261719 -0.021118164
vn 0.16845703 -0.9848633 -0.037475586
vn 0.066223145 -0.4099121 -0.90966797
vn -0.018722534 -0.18554688 -0.9824219
vn -0.119384766 -0.45898438 -0.8803711
vn -0.25585938 -0.9663086 0.022094727
vn -0.33740234 -0.94140625 -0.011886597
vn -0.17590332 -0.47998047 -0.859375
vn -0.11291504 -0.15185547 -0.9819336
vn -0.21520996 -0.42138672 -0.8808594
vn -0.44384766 -0.8959961 -0.017242432
vn -0.7788086 -0.6269531 -0.015472412
vn -0.33544922 -0.26000977 -0.90527344
vn -0.16259766 0.087524414 -0.98291016
vn -0.42236328 -0.15942383 -0.89208984
vn -0.9423828 -0.33447266 0.017471313
vn -0.18920898 -0.04876709 -0.98095703
vn -0.4580078 0.02571106 -0.8886719
g Cylinder_0
f 3/3/3 2/2/2 1/1/1
f 4/4/4 3/3/3 1/1/1
f 4/4/4 5/5/5 3/3/3
f 5/5/5 6/6/6 3/3/3
f 6/6/6 5/5/5 7/7/7
f 6/6/6 7/7/7 8/8/8
f 9/9/9 6/6/6 8/8/8
f 9/9/9 8/8/8 10/10/10
f 10/10/10 8/8/8 11/11/11
f 12/12/12 10/10/10 11/11/11
f 12/12/12 11/11/11 13/13/13
f 14/14/14 13/13/13 11/11/11
f 8/8/8 7/7/7 15/15/15
f 15/15/15 11/11/11 8/8/8
f 16/16/16 14/14/14 11/11/11
f 14/14/14 16/16/16 17/17/17
f 18/18/18 16/16/16 11/11/11
f 15/15/15 18/18/18 11/11/11
f 17/17/17 16/16/16 19/19/19
f 18/18/18 19/19/19 16/16/16
f 20/20/20 17/17/17 19/19/19
f 20/20/20 19/19/19 21/21/21
f 21/21/21 19/19/19 22/22/22
f 23/23/23 21/21/21 22/22/22
f 24/24/24 23/23/23 22/22/22
f 25/25/25 22/22/22 19/19/19
f 18/18/18 25/25/25 19/19/19
f 26/26/26 24/24/24 22/22/22
f 22/22/22 25/25/25 26/26/26
f 27/27/27 24/24/24 26/26/26
f 28/28/28 27/27/27 26/26/26
f 28/28/28 26/26/26 25/25/25
f 27/27/27 28/28/28 29/29/29
f 30/30/30 25/25/25 18/18/18
f 30/30/30 28/28/28 25/25/25
f 29/29/29 28/28/28 31/31/31
f 30/30/30 31/31/31 28/28/28
f 32/32/32 29/29/29 31/31/31
f 31/31/31 33/33/33 32/32/32
f 34/34/34 30/30/30 18/18/18
f 31/31/31 30/30/30 34/34/34
f 34/34/34 18/18/18 15/15/15
f 33/33/33 31/31/31 35/35/35
f 35/35/35 31/31/31 34/34/34
f 34/34/34 36/36/36 35/35/35
f 37/37/37 33/33/33 35/35/35
f 37/37/37 35/35/35 38/38/38
f 38/38/38 35/35/35 36/36/36
f 39/39/39 38/38/38 36/36/36
f 39/39/39 36/36/36 40/40/40
f 5/5/5 40/40/40 36/36/36
f 15/15/15 41/41/41 34/34/34
f 34/34/34 41/41/41 36/36/36
f 7/7/7 41/41/41 15/15/15
f 5/5/5 42/42/42 7/7/7
f 42/42/42 5/5/5 36/36/36
f 41/41/41 7/7/7 42/42/42
f 41/41/41 42/42/42 36/36/36
f 45/45/45 44/44/44 43/43/43
f 44/44/44 46/46/46 43/43/43
f 43/43/43 46/46/46 47/47/47
f 48/48/48 43/43/43 47/47/47
f 51/51/51 50/50/50 49/49/49
f 49/49/49 50/50/50 52/52/52
f 53/53/53 49/49/49 52/52/52
f 53/53/53 52/52/52 54/54/54
f 55/55/55 51/51/51 49/49/49
f 55/55/55 56/56/56 51/51/51
f 56/56/56 57/57/57 51/51/51
f 57/57/57 56/56/56 58/58/58
f 59/59/59 58/58/58 56/56/56
f 49/49/49 60/60/60 55/55/55
f 49/49/49 53/53/53 60/60/60
f 56/56/56 55/55/55 61/61/61
f 55/55/55 60/60/60 61/61/61
f 62/62/62 61/61/61 60/60/60
f 63/63/63 59/59/59 56/56/56
f 59/59/59 63/63/63 64/64/64
f 53/53/53 65/65/65 60/60/60
f 62/62/62 60/60/60 65/65/65
f 66/66/66 53/53/53 54/54/54
f 66/66/66 65/65/65 53/53/53
f 61/61/61 67/67/67 56/56/56
f 67/67/67 63/63/63 56/56/56
f 63/63/63 68/68/68 64/64/64
f 68/68/68 69/69/69 64/64/64
f 70/70/70 69/69/69 68/68/68
f 66/66/66 54/54/54 71/71/71
f 54/54/54 72/72/72 71/71/71
f 65/65/65 66/66/66 73/73/73
f 66/66/66 71/71/71 73/73/73
f 71/71/71 72/72/72 74/74/74
f 71/71/71 74/74/74 73/73/73
f 72/72/72 75/75/75 74/74/74
f 74/74/74 75/75/75 76/76/76
f 65/65/65 73/73/73 77/77/77
f 74/74/74 77/77/77 73/73/73
f 77/77/77 62/62/62 65/65/65
f 74/74/74 78/78/78 77/77/77
f 78/78/78 74/74/74 76/76/76
f 78/78/78 62/62/62 77/77/77
f 78/78/78 76/76/76 79/79/79
f 79/79/79 62/62/62 78/78/78
f 76/76/76 80/80/80 79/79/79
f 79/79/79 80/80/80 81/81/81
f 62/62/62 79/79/79 82/82/82
f 82/82/82 79/79/79 81/81/81
f 62/62/62 82/82/82 83/83/83
f 62/62/62 83/83/83 61/61/61
f 83/83/83 67/67/67 61/61/61
f 82/82/82 81/81/81 84/84/84
f 82/82/82 84/84/84 83/83/83
f 81/81/81 85/85/85 84/84/84
f 84/84/84 85/85/85 86/86/86
f 83/83/83 84/84/84 87/87/87
f 87/87/87 84/84/84 86/86/86
f 83/83/83 88/88/88 67/67/67
f 83/83/83 87/87/87 88/88/88
f 87/87/87 86/86/86 89/89/89
f 87/87/87 89/89/89 88/88/88
f 86/86/86 90/90/90 89/89/89
f 89/89/89 90/90/90 91/91/91
f 92/92/92 89/89/89 91/91/91
f 89/89/89 92/92/92 88/88/88
f 88/88/88 93/93/93 67/67/67
f 67/67/67 93/93/93 63/63/63
f 93/93/93 68/68/68 63/63/63
f 92/92/92 91/91/91 94/94/94
f 91/91/91 95/95/95 94/94/94
f 94/94/94 95/95/95 70/70/70
f 92/92/92 96/96/96 88/88/88
f 88/88/88 96/96/96 93/93/93
f 94/94/94 96/96/96 92/92/92
f 97/97/97 70/70/70 68/68/68
f 97/97/97 68/68/68 93/93/93
f 96/96/96 97/97/97 93/93/93
f 96/96/96 94/94/94 97/97/97
f 97/97/97 94/94/94 70/70/70
