g Cylinder.001
v 0.031512342 0.0378654 -1.0430813E-07
v -0.0002450738 0.04942414 0.12873076
v -0.0002450738 0.04942414 -1.0430813E-07
v 0.031512402 0.0378654 0.12873076
v 0.04841008 0.0085975975 -1.1920929E-07
v -0.0002450738 0.044885397 0.17241308
v 0.04841008 0.0085975975 0.12873076
v 0.042541556 -0.024684519 -1.1920929E-07
v 0.031512402 0.034094274 0.16827092
v -0.0002450738 0.013331704 0.22275671
v 0.042541586 -0.024684519 0.12873076
v 0.016652694 -0.04640789 -1.0430813E-07
v 0.04841014 0.006770253 0.15778267
v 0.031512402 0.006253317 0.21361884
v -0.0002450738 -0.043410305 0.25364953
v 0.016652694 -0.04640789 0.12873076
v -0.017142871 -0.04640789 -1.0430813E-07
v 0.042541586 -0.02430144 0.14585587
v 0.04841014 -0.01166977 0.1904808
v 0.031512402 -0.044258848 0.24212196
v -0.0002450738 -0.5242326 0.25364953
v 0.031512402 -0.5250813 0.24212196
v 0.04841014 -0.0464074 0.21293306
v 0.04841014 -0.5272298 0.21293306
v -0.017142871 -0.04640789 0.12873076
v -0.04303179 -0.024684519 -1.0430813E-07
v 0.016652694 -0.04458206 0.13807124
v 0.042541586 -0.032051153 0.16416928
v 0.042541586 -0.048850667 0.17974085
v 0.042541586 -0.52967304 0.17974085
v -0.04303173 -0.024684519 0.12873076
v -0.048900284 0.0085975975 -1.0430813E-07
v -0.017142871 -0.04458206 0.13807124
v 0.016652694 -0.045354165 0.1469956
v 0.016652694 -0.050445393 0.15807606
v 0.016652694 -0.53126764 0.15807606
v -0.048900224 0.0085975975 0.12873076
v -0.032002546 0.0378654 -1.0430813E-07
v -0.04303173 -0.02430144 0.14585587
v -0.017142871 -0.045354165 0.1469956
v -0.017142871 -0.050445393 0.15807606
v -0.017142871 -0.53126764 0.15807606
v -0.032002546 0.0378654 0.12873076
v -0.0002450738 0.04942414 -1.0430813E-07
v -0.0002450738 0.04942414 0.12873076
v -0.048900224 0.006770253 0.15778267
v -0.04303173 -0.03205115 0.16416928
v -0.04303173 -0.048850656 0.17974085
v -0.04303173 -0.52967304 0.17974085
v -0.032002546 0.034094274 0.16827092
v -0.0002450738 0.044885397 0.17241308
v -0.048900224 -0.01166977 0.1904808
v -0.048900224 -0.046407394 0.2129331
v -0.048900224 -0.5272298 0.2129331
v -0.032002546 0.006253317 0.21361884
v -0.0002450738 0.013331704 0.22275671
v -0.032002546 -0.04425884 0.24212196
v -0.032002546 -0.52508116 0.24212196
v -0.0002450738 -0.043410305 0.25364953
v -0.0002450738 -0.5242326 0.25364953
v 0.042541586 -0.52967304 0.17974085
v 0.016652694 -0.53126764 0.15807606
v -0.017142871 -0.53126764 0.15807606
v -0.04303173 -0.52967304 0.17974085
v 0.04841014 -0.5272298 0.21293306
v -0.048900224 -0.5272298 0.2129331
v 0.031512402 -0.5250813 0.24212196
v -0.032002546 -0.52508116 0.24212196
v -0.0002450738 -0.5242326 0.25364953
vt 0.8886719 1
vt 1 1
vt 1 1
vt 0.8886719 1
vt 0.77783203 1
vt 1 1
vt 0.77783203 1
vt 0.6665039 1
vt 0.8886719 1
vt 1 1
vt 0.6665039 1
vt 0.55566406 1
vt 0.77783203 1
vt 0.8886719 1
vt 1 1
vt 0.55566406 1
vt 0.44433594 1
vt 0.6665039 1
vt 0.77783203 1
vt 0.8886719 1
vt 1 1
vt 0.8886719 1
vt 0.77783203 1
vt 0.77783203 1
vt 0.44433594 1
vt 0.33325195 1
vt 0.55566406 1
vt 0.6665039 1
vt 0.6665039 1
vt 0.6665039 1
vt 0.33325195 1
vt 0.22216797 1
vt 0.44433594 1
vt 0.55566406 1
vt 0.55566406 1
vt 0.55566406 1
vt 0.22216797 1
vt 0.111083984 1
vt 0.33325195 1
vt 0.44433594 1
vt 0.44433594 1
vt 0.44433594 1
vt 0.111083984 1
vt 5.9604645E-08 1
vt 5.9604645E-08 1
vt 0.22216797 1
vt 0.33325195 1
vt 0.33325195 1
vt 0.33325195 1
vt 0.111083984 1
vt 5.9604645E-08 1
vt 0.22216797 1
vt 0.22216797 1
vt 0.22216797 1
vt 0.111083984 1
vt 5.9604645E-08 1
vt 0.111083984 1
vt 0.111083984 1
vt 5.9604645E-08 1
vt 5.9604645E-08 1
vt 0.45776367 0.13000488
vt 0.33203125 0.024475098
vt 0.16796875 0.024475098
vt 0.042144775 0.13000488
vt 0.48632812 0.29174805
vt 0.013648987 0.29174805
vt 0.40429688 0.4338379
vt 0.095703125 0.4338379
vt 0.25 0.48999023
vn 0.6425781 0.7661133 0
vn -0 0.99902344 0.049224854
vn -0 1 0
vn 0.6347656 0.7714844 0.036132812
vn 0.9848633 0.17370605 0
vn -0 0.94628906 0.32373047
vn 0.98339844 0.18115234 0.009979248
vn 0.86621094 -0.5 0
vn 0.6176758 0.74560547 0.24951172
vn -0 0.6850586 0.7285156
vn 0.8613281 -0.5078125 0.016067505
vn 0.34204102 -0.9394531 0
vn 0.97509766 0.20996094 0.0680542
vn 0.6123047 0.5488281 0.56933594
vn -0 0.24108887 0.9707031
vn 0.33032227 -0.94140625 0.06842041
vn -0.34204102 -0.9394531 0
vn 0.87939453 -0.47070312 -0.07116699
vn 0.9741211 0.16052246 0.15795898
vn 0.61865234 0.19958496 0.7597656
vn -0 0 1
vn 0.64990234 0 0.7602539
vn 0.97265625 0.07141113 0.2220459
vn 0.9873047 0 0.15844727
vn -0.33032227 -0.94140625 0.06842041
vn -0.86621094 -0.5 0
vn 0.33911133 -0.94091797 -0.006587982
vn 0.87109375 -0.4169922 -0.25878906
vn 0.9033203 -0.16271973 -0.39672852
vn 0.85839844 0 -0.5126953
vn -0.8613281 -0.5078125 0.016067505
vn -0.9848633 0.17370605 0
vn -0.33911133 -0.94091797 -0.006587982
vn 0.32763672 -0.8881836 -0.3215332
vn 0.39013672 -0.47924805 -0.7861328
vn 0.33618164 0 -0.94189453
vn -0.98339844 0.18115234 0.009979248
vn -0.6425781 0.7661133 0
vn -0.87939453 -0.47070312 -0.07116699
vn -0.32763672 -0.8881836 -0.3215332
vn -0.39013672 -0.47924805 -0.7861328
vn -0.33618164 0 -0.94189453
vn -0.6347656 0.7714844 0.036132812
vn -0 1 0
vn -0 0.99902344 0.049224854
vn -0.97509766 0.20996094 0.0680542
vn -0.87109375 -0.4169922 -0.25878906
vn -0.9033203 -0.16271973 -0.39672852
vn -0.85839844 0 -0.5126953
vn -0.6176758 0.74560547 0.24951172
vn -0 0.94628906 0.32373047
vn -0.9741211 0.16052246 0.15795898
vn -0.97265625 0.07141113 0.2220459
vn -0.9873047 0 0.15844727
vn -0.6123047 0.5488281 0.56933594
vn -0 0.6850586 0.7285156
vn -0.61865234 0.19958496 0.7597656
vn -0.64990234 0 0.7602539
vn -0 0.24108887 0.9707031
vn -0 0 1
vn -0 -0.9970703 0.07342529
vn -0 -0.9970703 0.07342529
vn -0 -0.9970703 0.07342529
vn -0 -0.9970703 0.07342529
vn -0 -0.9970703 0.07342529
vn -0 -0.9970703 0.07342529
vn -0 -0.9970703 0.07342529
vn -0 -0.9970703 0.07342529
vn -0 -0.9970703 0.07342529
g Cylinder.001_0
f 3/3/3 2/2/2 1/1/1
f 2/2/2 4/4/4 1/1/1
f 1/1/1 4/4/4 5/5/5
f 2/2/2 6/6/6 4/4/4
f 4/4/4 7/7/7 5/5/5
f 5/5/5 7/7/7 8/8/8
f 6/6/6 9/9/9 4/4/4
f 4/4/4 9/9/9 7/7/7
f 6/6/6 10/10/10 9/9/9
f 7/7/7 11/11/11 8/8/8
f 8/8/8 11/11/11 12/12/12
f 9/9/9 13/13/13 7/7/7
f 7/7/7 13/13/13 11/11/11
f 10/10/10 14/14/14 9/9/9
f 9/9/9 14/14/14 13/13/13
f 10/10/10 15/15/15 14/14/14
f 11/11/11 16/16/16 12/12/12
f 12/12/12 16/16/16 17/17/17
f 13/13/13 18/18/18 11/11/11
f 11/11/11 18/18/18 16/16/16
f 14/14/14 19/19/19 13/13/13
f 13/13/13 19/19/19 18/18/18
f 15/15/15 20/20/20 14/14/14
f 14/14/14 20/20/20 19/19/19
f 15/15/15 21/21/21 20/20/20
f 21/21/21 22/22/22 20/20/20
f 20/20/20 22/22/22 23/23/23
f 20/20/20 23/23/23 19/19/19
f 22/22/22 24/24/24 23/23/23
f 16/16/16 25/25/25 17/17/17
f 17/17/17 25/25/25 26/26/26
f 18/18/18 27/27/27 16/16/16
f 16/16/16 27/27/27 25/25/25
f 19/19/19 28/28/28 18/18/18
f 19/19/19 23/23/23 28/28/28
f 18/18/18 28/28/28 27/27/27
f 23/23/23 24/24/24 29/29/29
f 23/23/23 29/29/29 28/28/28
f 24/24/24 30/30/30 29/29/29
f 25/25/25 31/31/31 26/26/26
f 26/26/26 31/31/31 32/32/32
f 27/27/27 33/33/33 25/25/25
f 25/25/25 33/33/33 31/31/31
f 28/28/28 34/34/34 27/27/27
f 28/28/28 29/29/29 34/34/34
f 27/27/27 34/34/34 33/33/33
f 29/29/29 30/30/30 35/35/35
f 29/29/29 35/35/35 34/34/34
f 30/30/30 36/36/36 35/35/35
f 31/31/31 37/37/37 32/32/32
f 32/32/32 37/37/37 38/38/38
f 33/33/33 39/39/39 31/31/31
f 31/31/31 39/39/39 37/37/37
f 34/34/34 40/40/40 33/33/33
f 34/34/34 35/35/35 40/40/40
f 33/33/33 40/40/40 39/39/39
f 35/35/35 36/36/36 41/41/41
f 35/35/35 41/41/41 40/40/40
f 36/36/36 42/42/42 41/41/41
f 37/37/37 43/43/43 38/38/38
f 38/38/38 43/43/43 44/44/44
f 43/43/43 45/45/45 44/44/44
f 39/39/39 46/46/46 37/37/37
f 37/37/37 46/46/46 43/43/43
f 40/40/40 47/47/47 39/39/39
f 40/40/40 41/41/41 47/47/47
f 39/39/39 47/47/47 46/46/46
f 41/41/41 42/42/42 48/48/48
f 41/41/41 48/48/48 47/47/47
f 42/42/42 49/49/49 48/48/48
f 43/43/43 50/50/50 45/45/45
f 46/46/46 50/50/50 43/43/43
f 50/50/50 51/51/51 45/45/45
f 47/47/47 52/52/52 46/46/46
f 47/47/47 48/48/48 52/52/52
f 46/46/46 52/52/52 50/50/50
f 48/48/48 49/49/49 53/53/53
f 48/48/48 53/53/53 52/52/52
f 49/49/49 54/54/54 53/53/53
f 50/50/50 55/55/55 51/51/51
f 52/52/52 55/55/55 50/50/50
f 52/52/52 53/53/53 55/55/55
f 55/55/55 56/56/56 51/51/51
f 53/53/53 54/54/54 57/57/57
f 53/53/53 57/57/57 55/55/55
f 55/55/55 57/57/57 56/56/56
f 54/54/54 58/58/58 57/57/57
f 57/57/57 59/59/59 56/56/56
f 57/57/57 58/58/58 59/59/59
f 58/58/58 60/60/60 59/59/59
f 63/63/63 62/62/62 61/61/61
f 61/61/61 64/64/64 63/63/63
f 61/61/61 65/65/65 64/64/64
f 65/65/65 66/66/66 64/64/64
f 65/65/65 67/67/67 66/66/66
f 67/67/67 68/68/68 66/66/66
f 67/67/67 69/69/69 68/68/68
