g Cylinder
v -1.928747E-09 0.5073105 -11.746719
v 0.43934384 0.25365525 6.791787
v 9.75561E-09 0.5073105 6.791787
v 0.37178332 0.25365525 -11.746719
v 0.43934384 -0.25365525 6.791787
v 0.37178332 -0.25365525 -11.746719
v 9.75561E-09 -0.5073105 6.791787
v -1.928747E-09 -0.5073105 -11.746719
v -1.928747E-09 -0.5073105 -11.746719
v -0.43934396 -0.25365525 6.791787
v 9.75561E-09 -0.5073105 6.791787
v -0.37178344 -0.25365525 -11.746719
v -0.43934396 0.25365525 6.791787
v -0.37178344 0.25365525 -11.746719
v 9.75561E-09 0.5073105 6.791787
v -1.928747E-09 0.5073105 -11.746719
v 9.75561E-09 0.5073105 6.791787
v 0.43934384 0.25365525 6.791787
v 0.43934384 -0.25365525 6.791787
v 9.75561E-09 -0.5073105 6.791787
v -0.43934396 0.25365525 6.791787
v -0.43934396 -0.25365525 6.791787
v 3.2025895E-08 3.381697 -16.290846
v 4.1357606E-07 4.214814 -18.575026
v 0.6161555 3.2904897 -18.489645
v 0.4327209 2.85672 -16.290846
v -1.9228779E-08 2.5304632 -15.033492
v 0.6272693 2.4966888 -18.211575
v 0.3480028 1.9874535 -15.033492
v 0.4327209 2.203548 -16.290846
v 0.63838315 1.4876308 -18.541388
v 0.39036185 1.1940732 -15.6621685
v 0.4327209 0.40069294 -16.290846
v 0.64524186 0.37715697 -18.184784
v 0.6528348 -0.85218334 -18.541388
v 0.4327209 1.5503759 -16.290846
v 0.3480028 -1.9874535 -15.033492
v 0.28450984 0.25919864 -13.85627
v 0.28450984 -0.25919864 -13.85627
v 0.4327209 -2.4382389 -16.290846
v 0.6689082 -2.5208638 -18.214615
v 0.4327209 -2.85672 -16.290846
v 0.675347 -3.560504 -18.541388
v 4.2181378E-07 -4.214814 -18.575026
v 3.2025895E-08 -3.381697 -16.290846
v -1.9228779E-08 -2.5304632 -15.033492
v -0.3480031 1.9874535 -15.033492
v 3.2025895E-08 3.381697 -16.290846
v -1.9228779E-08 2.5304632 -15.033492
v -0.43272108 2.85672 -16.290846
v 4.1357606E-07 4.214814 -18.575026
v -0.6161549 3.2904897 -18.489645
v -0.6267984 2.5532777 -18.211575
v -0.43272108 2.3289802 -16.290846
v -0.6374418 1.6008086 -18.541388
v -0.39036208 1.1719981 -15.6621685
v -0.43272108 0.35654283 -16.290846
v -0.43272108 1.8012403 -16.290846
v -0.64475286 0.42064774 -18.184784
v -0.65206397 -0.75951314 -18.541388
v -0.3480031 -1.9874535 -15.033492
v -0.28451002 -0.25919864 -13.85627
v -0.28451002 0.25919864 -13.85627
v -0.43272108 -0.9454447 -16.290846
v -0.6683773 -2.457053 -18.214615
v -0.43272108 -2.85672 -16.290846
v -1.9228779E-08 -2.5304632 -15.033492
v -0.6753465 -3.560504 -18.541388
v 3.2025895E-08 -3.381697 -16.290846
v 4.2181378E-07 -4.214814 -18.575026
v -5.182769E-08 -0.5183973 -13.85627
v -0.3480031 -1.9874535 -15.033492
v -0.28451002 -0.25919864 -13.85627
v -1.9228779E-08 -2.5304632 -15.033492
v 0.28450984 -0.25919864 -13.85627
v 0.3480028 -1.9874535 -15.033492
v -0.28451002 0.25919864 -13.85627
v -0.3480031 1.9874535 -15.033492
v -1.9228779E-08 2.5304632 -15.033492
v -5.182769E-08 0.5183973 -13.85627
v 0.3480028 1.9874535 -15.033492
v 0.28450984 0.25919864 -13.85627
v 4.2181378E-07 -4.214814 -18.575026
v 0.675347 -3.560504 -18.541388
v 0.6689082 -2.5208638 -18.214615
v 4.2038545E-07 -2.48818 -18.248253
v -0.6683773 -2.457053 -18.214615
v -0.6753465 -3.560504 -18.541388
v 4.1849512E-07 -0.8188391 -18.575026
v -0.65206397 -0.75951314 -18.541388
v -0.64475286 0.42064774 -18.184784
v 0.6528348 -0.85218334 -18.541388
v 4.1766074E-07 0.33557785 -18.218422
v -0.6374418 1.6008086 -18.541388
v 0.31606075 0.356063 -18.202137
v 0.64524186 0.37715697 -18.184784
v 4.1682637E-07 1.4899948 -18.575026
v -0.6267984 2.5532777 -18.211575
v 0.63838315 1.4876308 -18.541388
v 4.1559503E-07 2.494883 -18.245213
v -0.6161549 3.2904897 -18.489645
v 0.6272693 2.4966888 -18.211575
v 4.1436368E-07 3.2845144 -18.523283
v 4.1357606E-07 4.214814 -18.575026
v 0.6161555 3.2904897 -18.489645
v -0.5379751 0.35159516 -11.781309
v -1.6392125E-08 0.7031903 -13.758387
v 1.6451466E-08 0.7031903 -11.781309
v -0.53797513 0.35159516 -13.758387
v -0.5379751 -0.35159516 -11.781309
v -0.53797513 -0.35159516 -13.758387
v 1.6451466E-08 -0.7031903 -11.781309
v -1.6392125E-08 -0.7031903 -13.758387
v 1.6451466E-08 0.7031903 -11.781309
v -1.6392125E-08 0.7031903 -13.758387
v 0.53797483 0.35159516 -13.758387
v 0.5379749 0.35159516 -11.781309
v 0.53797483 -0.35159516 -13.758387
v 0.5379749 -0.35159516 -11.781309
v -1.6392125E-08 -0.7031903 -13.758387
v 1.6451466E-08 -0.7031903 -11.781309
v -1.928747E-09 0.5073105 -11.746719
v 1.6451466E-08 0.7031903 -11.781309
v 0.5379749 0.35159516 -11.781309
v 0.37178332 0.25365525 -11.746719
v -0.37178344 0.25365525 -11.746719
v 0.5379749 -0.35159516 -11.781309
v -0.5379751 0.35159516 -11.781309
v 0.37178332 -0.25365525 -11.746719
v -0.37178344 -0.25365525 -11.746719
v 1.6451466E-08 -0.7031903 -11.781309
v -0.5379751 -0.35159516 -11.781309
v -1.928747E-09 -0.5073105 -11.746719
v -1.6392125E-08 0.7031903 -13.758387
v -5.182769E-08 0.5183973 -13.85627
v 0.28450984 0.25919864 -13.85627
v 0.53797483 0.35159516 -13.758387
v -0.53797513 0.35159516 -13.758387
v 0.28450984 -0.25919864 -13.85627
v -0.28451002 0.25919864 -13.85627
v 0.53797483 -0.35159516 -13.758387
v -0.53797513 -0.35159516 -13.758387
v -5.182769E-08 -0.5183973 -13.85627
v -0.28451002 -0.25919864 -13.85627
v -1.6392125E-08 -0.7031903 -13.758387
vt 0.66748047 0.9995117
vt 0.6928711 0.00077819824
vt 0.66748047 7.6293945E-06
vt 0.6928711 1
vt 0.7441406 0.00077438354
vt 0.7441406 1
vt 0.76953125 0
vt 0.76953125 0.9995117
vt 0.6303711 0.00065898895
vt 0.61035156 0.99902344
vt 0.6303711 1
vt 0.61035156 3.9339066E-06
vt 0.5698242 0.99902344
vt 0.5698242 0
vt 0.5493164 1
vt 0.5493164 0.00065135956
vt 0.34838867 0.49560547
vt 0.3720703 0.50927734
vt 0.39575195 0.49560547
vt 0.39575195 0.46826172
vt 0.34838867 0.46826172
vt 0.3720703 0.45458984
vt 0.07720947 0.7631836
vt 0.026779175 0.8979492
vt 0.06561279 0.89697266
vt 0.10839844 0.76416016
vt 0.12817383 0.68896484
vt 0.14477539 0.89746094
vt 0.16040039 0.6899414
vt 0.14709473 0.76416016
vt 0.22387695 0.8984375
vt 0.20715332 0.72753906
vt 0.2536621 0.7651367
vt 0.27270508 0.8989258
vt 0.3269043 0.89941406
vt 0.18566895 0.76464844
vt 0.39575195 0.69189453
vt 0.2631836 0.62109375
vt 0.2939453 0.62109375
vt 0.421875 0.76660156
vt 0.44140625 0.9003906
vt 0.4465332 0.76660156
vt 0.4873047 0.9008789
vt 0.5258789 0.90185547
vt 0.47753906 0.7661133
vt 0.42773438 0.69140625
vt 0.16149902 0.2854004
vt 0.08325195 0.21508789
vt 0.13085938 0.28588867
vt 0.112854004 0.21447754
vt 0.036743164 0.08666992
vt 0.0736084 0.08795166
vt 0.14562988 0.08807373
vt 0.14245605 0.21447754
vt 0.2175293 0.0881958
vt 0.20739746 0.25
vt 0.25341797 0.21484375
vt 0.17211914 0.21459961
vt 0.26708984 0.088256836
vt 0.31640625 0.08831787
vt 0.38500977 0.28588867
vt 0.28759766 0.35205078
vt 0.25854492 0.35180664
vt 0.32666016 0.21496582
vt 0.4267578 0.08850098
vt 0.43408203 0.21533203
vt 0.4152832 0.2866211
vt 0.47387695 0.08856201
vt 0.4633789 0.21618652
vt 0.5107422 0.088012695
vt 0.17053223 0.5629883
vt 0.1517334 0.48388672
vt 0.15515137 0.57714844
vt 0.17053223 0.45458984
vt 0.18579102 0.57714844
vt 0.18920898 0.48388672
vt 0.22338867 0.57714844
vt 0.22680664 0.48388672
vt 0.20800781 0.45458984
vt 0.20800781 0.5629883
vt 0.18920898 0.48388672
vt 0.19262695 0.57714844
vt 0.87890625 0
vt 0.7910156 0.036712646
vt 0.7993164 0.07836914
vt 0.88671875 0.07879639
vt 0.9741211 0.07910156
vt 0.9741211 0.033813477
vt 0.89697266 0.1829834
vt 0.9741211 0.1850586
vt 0.9741211 0.23254395
vt 0.8198242 0.18237305
vt 0.90185547 0.2290039
vt 0.9741211 0.2800293
vt 0.8642578 0.23022461
vt 0.82958984 0.23156738
vt 0.90625 0.27514648
vt 0.9741211 0.3491211
vt 0.8383789 0.2758789
vt 0.91308594 0.34301758
vt 0.9741211 0.4182129
vt 0.85253906 0.3479004
vt 0.9194336 0.41088867
vt 0.9238281 0.4543457
vt 0.8671875 0.41992188
vt 0.019088745 0.56103516
vt 0 0.4555664
vt 0 0.5620117
vt 0.019088745 0.45458984
vt 0.057006836 0.56103516
vt 0.057006836 0.45458984
vt 0.0758667 0.5620117
vt 0.0758667 0.4555664
vt 0.0758667 0.45458984
vt 0.0758667 0.56103516
vt 0.0949707 0.5620117
vt 0.0949707 0.4555664
vt 0.1328125 0.5620117
vt 0.1328125 0.4555664
vt 0.1517334 0.56103516
vt 0.1517334 0.45458984
vt 0.2355957 0.50439453
vt 0.22680664 0.5102539
vt 0.25854492 0.5239258
vt 0.25805664 0.5136719
vt 0.23608398 0.47998047
vt 0.2902832 0.50341797
vt 0.22680664 0.4753418
vt 0.28100586 0.49853516
vt 0.2590332 0.4650879
vt 0.2902832 0.46850586
vt 0.25854492 0.45458984
vt 0.28149414 0.47436523
vt 0.31933594 0.53027344
vt 0.31933594 0.5205078
vt 0.30395508 0.50634766
vt 0.2902832 0.51171875
vt 0.34838867 0.51171875
vt 0.30395508 0.47851562
vt 0.3347168 0.50634766
vt 0.2902832 0.4736328
vt 0.34838867 0.4736328
vt 0.31933594 0.4645996
vt 0.3347168 0.47851562
vt 0.31933594 0.45458984
vn -0 1 -0.0011396408
vn 0.875 0.48413086 -0.0026378632
vn -0 1 -0.0011396408
vn 0.8745117 0.48510742 -0.0026340485
vn 0.875 -0.48413086 -0.0026378632
vn 0.8745117 -0.48510742 -0.0026340485
vn -0 -1 -0.0011396408
vn -0 -1 -0.0011396408
vn -0 -1 -0.0011396408
vn -0.875 -0.48413086 -0.0026378632
vn -0 -1 -0.0011396408
vn -0.8745117 -0.48510742 -0.0026340485
vn -0.875 0.48413086 -0.0026378632
vn -0.8745117 0.48510742 -0.0026340485
vn -0 1 -0.0011396408
vn -0 1 -0.0011396408
vn -0 0 1
vn -0 0 1
vn -0 0 1
vn -0 0 1
vn -0 0 1
vn -0 0 1
vn 0.77490234 0.5698242 0.27368164
vn 0.7885742 0.58251953 0.19689941
vn 0.77441406 0.14245605 -0.61621094
vn 0.9140625 0.33813477 0.22363281
vn -0 0.73095703 0.6826172
vn 0.83691406 0.0017948151 -0.54785156
vn 0.8691406 0.28735352 0.40283203
vn 0.99658203 0.0025615692 0.08129883
vn 0.6948242 0.004611969 -0.7192383
vn 0.9975586 0 0.06719971
vn 0.99658203 0.0056991577 0.08520508
vn 0.8300781 -0.0052986145 -0.5576172
vn 0.9941406 0.0038871765 0.10644531
vn 0.99658203 0.0015220642 0.082336426
vn 0.8691406 -0.28735352 0.40283203
vn 0.9555664 0.13574219 0.26245117
vn 0.9555664 -0.13574219 0.26245117
vn 0.99609375 -0.004371643 0.089660645
vn 0.99365234 -0.009796143 0.11254883
vn 0.9033203 -0.35107422 0.24658203
vn 0.8569336 -0.46362305 0.22485352
vn -0 -0.9301758 0.36767578
vn -0 -0.89208984 0.4519043
vn -0 -0.73095703 0.6826172
vn -0.8691406 0.28735352 0.40283203
vn -0.77490234 0.5698242 0.27368164
vn -0 0.73095703 0.6826172
vn -0.9140625 0.3388672 0.22363281
vn -0.7885742 0.58251953 0.19689941
vn -0.7758789 0.1381836 -0.61572266
vn -0.8383789 -0.0101623535 -0.5449219
vn -0.99658203 0.0030555725 0.08135986
vn -0.69189453 0.038360596 -0.7207031
vn -0.9975586 0 0.06719971
vn -0.99658203 0.00096178055 0.084228516
vn -0.99658203 0.00013840199 0.082214355
vn -0.83203125 -0.0124053955 -0.5546875
vn -0.7055664 0.052734375 -0.70703125
vn -0.8691406 -0.28735352 0.40283203
vn -0.9555664 -0.13574219 0.26245117
vn -0.9555664 0.13574219 0.26245117
vn -0.99609375 0.0010051727 0.08703613
vn -0.80615234 0.0039749146 -0.5917969
vn -0.90625 -0.34423828 0.24536133
vn -0 -0.73095703 0.6826172
vn -0.85791016 -0.46313477 0.2232666
vn -0 -0.89208984 0.4519043
vn -0 -0.9301758 0.36767578
vn -0 -0.52441406 0.8515625
vn -0.8691406 -0.28735352 0.40283203
vn -0.9555664 -0.13574219 0.26245117
vn -0 -0.73095703 0.6826172
vn 0.9555664 -0.13574219 0.26245117
vn 0.8691406 -0.28735352 0.40283203
vn -0.9555664 0.13574219 0.26245117
vn -0.8691406 0.28735352 0.40283203
vn -0 0.73095703 0.6826172
vn -0 0.52441406 0.8515625
vn 0.8691406 0.28735352 0.40283203
vn 0.9555664 0.13574219 0.26245117
vn 0.0041618347 0.22729492 -0.9736328
vn -0.0574646 0.22937012 -0.9716797
vn -0.0104522705 0.026489258 -0.9995117
vn -0.00078344345 0.01776123 -1
vn -0.80615234 0.0039749146 -0.5917969
vn 0.0657959 0.22436523 -0.97216797
vn 0.002149582 0.04824829 -0.99902344
vn -0.7055664 0.052734375 -0.70703125
vn -0.83203125 -0.0124053955 -0.5546875
vn 0.046203613 0.040649414 -0.9980469
vn 0.0040245056 0.016998291 -1
vn -0.69189453 0.038360596 -0.7207031
vn 0.05508423 -0.0073280334 -0.99853516
vn 0.8300781 -0.0052986145 -0.5576172
vn -0.0006866455 -0.00617218 -1
vn -0.8383789 -0.0101623535 -0.5449219
vn 0.6948242 0.004611969 -0.7192383
vn 0.008171082 -0.0010442734 -1
vn -0.7758789 0.1381836 -0.61572266
vn 0.83691406 0.0017948151 -0.54785156
vn -0.0038814545 -0.19787598 -0.97998047
vn -0 -0.055541992 -0.99853516
vn 0.77441406 0.14245605 -0.61621094
vn -0.87939453 0.47583008 0
vn -0 1 0
vn -0 1 0
vn -0.87939453 0.47583008 0
vn -0.87939453 -0.47583008 0
vn -0.87939453 -0.47583008 0
vn -0 -1 0
vn -0 -1 0
vn -0 1 0
vn -0 1 0
vn 0.87939453 0.47583008 0
vn 0.87939453 0.47583008 0
vn 0.87939453 -0.47583008 0
vn 0.87939453 -0.47583008 0
vn -0 -1 0
vn -0 -1 0
vn -0 0.1685791 0.98583984
vn -0 0.1685791 0.98583984
vn 0.15686035 0.0869751 0.9838867
vn 0.15942383 0.08227539 0.9838867
vn -0.15942383 0.08227539 0.9838867
vn 0.15686035 -0.0869751 0.9838867
vn -0.15686035 0.0869751 0.9838867
vn 0.15942383 -0.08227539 0.9838867
vn -0.15942383 -0.08227539 0.9838867
vn -0 -0.1685791 0.98583984
vn -0.15686035 -0.0869751 0.9838867
vn -0 -0.1685791 0.98583984
vn -0 0.3876953 -0.921875
vn -0 0.3876953 -0.921875
vn 0.3232422 0.19580078 -0.92578125
vn 0.32958984 0.16662598 -0.9291992
vn -0.32958984 0.16662598 -0.9291992
vn 0.3232422 -0.19580078 -0.92578125
vn -0.3232422 0.19580078 -0.92578125
vn 0.32958984 -0.16662598 -0.9291992
vn -0.32958984 -0.16662598 -0.9291992
vn -0 -0.3876953 -0.921875
vn -0.3232422 -0.19580078 -0.92578125
vn -0 -0.3876953 -0.921875
g Cylinder_0
f 3/3/3 2/2/2 1/1/1
f 2/2/2 4/4/4 1/1/1
f 2/2/2 5/5/5 4/4/4
f 5/5/5 6/6/6 4/4/4
f 5/5/5 7/7/7 6/6/6
f 7/7/7 8/8/8 6/6/6
f 11/11/11 10/10/10 9/9/9
f 10/10/10 12/12/12 9/9/9
f 10/10/10 13/13/13 12/12/12
f 13/13/13 14/14/14 12/12/12
f 13/13/13 15/15/15 14/14/14
f 15/15/15 16/16/16 14/14/14
f 19/19/19 18/18/18 17/17/17
f 17/17/17 20/20/20 19/19/19
f 17/17/17 21/21/21 20/20/20
f 21/21/21 22/22/22 20/20/20
f 25/25/25 24/24/24 23/23/23
f 26/26/26 25/25/25 23/23/23
f 26/26/26 23/23/23 27/27/27
f 28/28/28 25/25/25 26/26/26
f 29/29/29 26/26/26 27/27/27
f 30/30/30 28/28/28 26/26/26
f 31/31/31 28/28/28 30/30/30
f 26/26/26 29/29/29 32/32/32
f 30/30/30 26/26/26 32/32/32
f 33/33/33 32/32/32 29/29/29
f 30/30/30 32/32/32 33/33/33
f 33/33/33 34/34/34 31/31/31
f 35/35/35 34/34/34 33/33/33
f 36/36/36 31/31/31 30/30/30
f 36/36/36 33/33/33 31/31/31
f 36/36/36 30/30/30 33/33/33
f 37/37/37 33/33/33 29/29/29
f 37/37/37 29/29/29 38/38/38
f 39/39/39 37/37/37 38/38/38
f 35/35/35 33/33/33 40/40/40
f 40/40/40 41/41/41 35/35/35
f 42/42/42 40/40/40 33/33/33
f 40/40/40 42/42/42 41/41/41
f 37/37/37 42/42/42 33/33/33
f 42/42/42 43/43/43 41/41/41
f 44/44/44 43/43/43 42/42/42
f 45/45/45 44/44/44 42/42/42
f 45/45/45 42/42/42 37/37/37
f 46/46/46 45/45/45 37/37/37
f 49/49/49 48/48/48 47/47/47
f 48/48/48 50/50/50 47/47/47
f 48/48/48 51/51/51 50/50/50
f 51/51/51 52/52/52 50/50/50
f 50/50/50 52/52/52 53/53/53
f 54/54/54 50/50/50 53/53/53
f 54/54/54 53/53/53 55/55/55
f 47/47/47 50/50/50 56/56/56
f 50/50/50 54/54/54 56/56/56
f 56/56/56 54/54/54 57/57/57
f 58/58/58 54/54/54 55/55/55
f 54/54/54 58/58/58 57/57/57
f 58/58/58 55/55/55 59/59/59
f 57/57/57 58/58/58 59/59/59
f 57/57/57 59/59/59 60/60/60
f 47/47/47 56/56/56 61/61/61
f 56/56/56 57/57/57 61/61/61
f 47/47/47 61/61/61 62/62/62
f 63/63/63 47/47/47 62/62/62
f 64/64/64 57/57/57 60/60/60
f 64/64/64 60/60/60 65/65/65
f 66/66/66 61/61/61 57/57/57
f 64/64/64 66/66/66 57/57/57
f 66/66/66 64/64/64 65/65/65
f 61/61/61 66/66/66 67/67/67
f 65/65/65 68/68/68 66/66/66
f 66/66/66 69/69/69 67/67/67
f 66/66/66 68/68/68 69/69/69
f 68/68/68 70/70/70 69/69/69
f 73/73/73 72/72/72 71/71/71
f 72/72/72 74/74/74 71/71/71
f 71/71/71 74/74/74 75/75/75
f 74/74/74 76/76/76 75/75/75
f 79/79/79 78/78/78 77/77/77
f 80/80/80 79/79/79 77/77/77
f 81/81/81 79/79/79 80/80/80
f 82/82/82 81/81/81 80/80/80
f 85/85/85 84/84/84 83/83/83
f 86/86/86 85/85/85 83/83/83
f 86/86/86 83/83/83 87/87/87
f 83/83/83 88/88/88 87/87/87
f 86/86/86 89/89/89 85/85/85
f 87/87/87 89/89/89 86/86/86
f 89/89/89 87/87/87 90/90/90
f 89/89/89 90/90/90 91/91/91
f 89/89/89 92/92/92 85/85/85
f 93/93/93 89/89/89 91/91/91
f 92/92/92 89/89/89 93/93/93
f 93/93/93 91/91/91 94/94/94
f 95/95/95 92/92/92 93/93/93
f 95/95/95 96/96/96 92/92/92
f 97/97/97 93/93/93 94/94/94
f 95/95/95 93/93/93 97/97/97
f 95/95/95 97/97/97 96/96/96
f 97/97/97 94/94/94 98/98/98
f 97/97/97 99/99/99 96/96/96
f 100/100/100 97/97/97 98/98/98
f 97/97/97 100/100/100 99/99/99
f 100/100/100 98/98/98 101/101/101
f 100/100/100 102/102/102 99/99/99
f 103/103/103 100/100/100 101/101/101
f 100/100/100 103/103/103 102/102/102
f 103/103/103 101/101/101 104/104/104
f 103/103/103 105/105/105 102/102/102
f 103/103/103 104/104/104 105/105/105
f 108/108/108 107/107/107 106/106/106
f 107/107/107 109/109/109 106/106/106
f 106/106/106 109/109/109 110/110/110
f 109/109/109 111/111/111 110/110/110
f 110/110/110 111/111/111 112/112/112
f 111/111/111 113/113/113 112/112/112
f 116/116/116 115/115/115 114/114/114
f 117/117/117 116/116/116 114/114/114
f 118/118/118 116/116/116 117/117/117
f 119/119/119 118/118/118 117/117/117
f 120/120/120 118/118/118 119/119/119
f 121/121/121 120/120/120 119/119/119
f 124/124/124 123/123/123 122/122/122
f 125/125/125 124/124/124 122/122/122
f 122/122/122 123/123/123 126/126/126
f 127/127/127 124/124/124 125/125/125
f 123/123/123 128/128/128 126/126/126
f 129/129/129 127/127/127 125/125/125
f 126/126/126 128/128/128 130/130/130
f 131/131/131 127/127/127 129/129/129
f 128/128/128 132/132/132 130/130/130
f 133/133/133 131/131/131 129/129/129
f 130/130/130 132/132/132 133/133/133
f 132/132/132 131/131/131 133/133/133
f 136/136/136 135/135/135 134/134/134
f 137/137/137 136/136/136 134/134/134
f 134/134/134 135/135/135 138/138/138
f 139/139/139 136/136/136 137/137/137
f 135/135/135 140/140/140 138/138/138
f 141/141/141 139/139/139 137/137/137
f 138/138/138 140/140/140 142/142/142
f 143/143/143 139/139/139 141/141/141
f 140/140/140 144/144/144 142/142/142
f 145/145/145 143/143/143 141/141/141
f 142/142/142 144/144/144 145/145/145
f 144/144/144 143/143/143 145/145/145
