g Cylinder.001
v -0.3037185 0.29629397 -1.993891
v -0.096060224 0.17640238 -1.993891
v 0.8660254 0.5 1
v -0 1 1
v 2.7539585E-07 0.39760292 2.0198393
v 0.34433445 0.19880143 2.0198393
v -0.096060224 0.17640238 -1.993891
v -0.096060224 -0.06338078 -1.993891
v 0.8660254 -0.5 1
v 0.8660254 0.5 1
v 0.34433445 0.19880143 2.0198393
v 0.34433445 -0.19880147 2.0198393
v -0.096060224 -0.06338078 -1.993891
v -0.3037185 -0.18327235 -1.993891
v -0 -1 1
v 0.8660254 -0.5 1
v 0.34433445 -0.19880147 2.0198393
v 2.7539585E-07 -0.39760292 2.0198393
v -0.3037185 -0.18327235 -1.993891
v -0.5113768 -0.06338078 -1.9938911
v -0.8660254 -0.5 1
v -0 -1 1
v 2.7539585E-07 -0.39760292 2.0198393
v -0.34433395 -0.19880147 2.0198393
v -0.5113768 -0.06338078 -1.9938911
v -0.5113768 0.17640238 -1.9938911
v -0.8660254 0.5 1
v -0.8660254 -0.5 1
v -0.34433395 -0.19880147 2.0198393
v -0.34433395 0.19880143 2.0198393
v 2.7539585E-07 -0.39760292 2.0198393
v 2.7539585E-07 0.39760292 2.0198393
v 0.34433445 -0.19880147 2.0198393
v 0.34433445 0.19880143 2.0198393
v -0.5113768 0.17640238 -1.9938911
v -0.3037185 0.29629397 -1.993891
v -0 1 1
v -0.8660254 0.5 1
v -0.34433395 0.19880143 2.0198393
v 2.7539585E-07 0.39760292 2.0198393
v -0.3037185 -0.18327235 -1.993891
v -0.096060224 -0.06338078 -1.993891
v -0.096060224 0.17640238 -1.993891
v -0.3037185 0.29629397 -1.993891
v -0.5113768 -0.06338078 -1.9938911
v -0.5113768 0.17640238 -1.9938911
vt 0.2692871 0.22485352
vt 0.26611328 0.22570801
vt 0.26513672 0.26049805
vt 0.27905273 0.25683594
vt 0.27905273 0.27392578
vt 0.2734375 0.27539062
vt 0.30615234 0.2241211
vt 0.3095703 0.22363281
vt 0.3095703 0.17797852
vt 0.29516602 0.17993164
vt 0.29785156 0.16772461
vt 0.30371094 0.16699219
vt 0.32543945 0.27392578
vt 0.32861328 0.2746582
vt 0.33911133 0.24353027
vt 0.3251953 0.23986816
vt 0.3334961 0.22509766
vt 0.33911133 0.2265625
vt 0.36889648 0.16772461
vt 0.36547852 0.16699219
vt 0.35473633 0.20947266
vt 0.36889648 0.21264648
vt 0.3618164 0.22436523
vt 0.35620117 0.22314453
vt 0.2854004 0.16699219
vt 0.28198242 0.16723633
vt 0.28027344 0.20349121
vt 0.2944336 0.20239258
vt 0.2915039 0.21923828
vt 0.28588867 0.21960449
vt 0.2944336 0.2211914
vt 0.28320312 0.2220459
vt 0.2919922 0.22363281
vt 0.2861328 0.2241211
vt 0.3359375 0.22436523
vt 0.33935547 0.22375488
vt 0.33935547 0.17919922
vt 0.3251953 0.1821289
vt 0.32666016 0.16809082
vt 0.3322754 0.16699219
vt 0.34570312 0.22680664
vt 0.34277344 0.22509766
vt 0.33984375 0.22680664
vt 0.33984375 0.23022461
vt 0.34570312 0.23022461
vt 0.34277344 0.2319336
vn -0.025238037 0.71972656 -0.69384766
vn 0.5864258 0.35742188 -0.7270508
vn 0.8666992 0.48950195 0.09399414
vn 0.015403748 0.99072266 0.13439941
vn -0 0.60009766 0.80029297
vn 0.51953125 0.30004883 0.80029297
vn 0.5864258 0.35742188 -0.7270508
vn 0.58447266 -0.34716797 -0.73339844
vn 0.8652344 -0.49389648 0.08666992
vn 0.8666992 0.48950195 0.09399414
vn 0.51953125 0.30004883 0.80029297
vn 0.51953125 -0.30004883 0.80029297
vn 0.58447266 -0.34716797 -0.73339844
vn -0.025039673 -0.70703125 -0.70654297
vn 0.014953613 -0.9926758 0.11816406
vn 0.8652344 -0.49389648 0.08666992
vn 0.51953125 -0.30004883 0.80029297
vn -0 -0.60009766 0.80029297
vn -0.025039673 -0.70703125 -0.70654297
vn -0.6479492 -0.35473633 -0.6738281
vn -0.8491211 -0.5024414 0.16149902
vn 0.014953613 -0.9926758 0.11816406
vn -0 -0.60009766 0.80029297
vn -0.51953125 -0.30004883 0.80029297
vn -0.6479492 -0.35473633 -0.6738281
vn -0.6489258 0.3647461 -0.66748047
vn -0.85058594 0.4975586 0.17053223
vn -0.8491211 -0.5024414 0.16149902
vn -0.51953125 -0.30004883 0.80029297
vn -0.51953125 0.30004883 0.80029297
vn -0 -0.60009766 0.80029297
vn -0 0.60009766 0.80029297
vn 0.51953125 -0.30004883 0.80029297
vn 0.51953125 0.30004883 0.80029297
vn -0.6489258 0.3647461 -0.66748047
vn -0.025238037 0.71972656 -0.69384766
vn 0.015403748 0.99072266 0.13439941
vn -0.85058594 0.4975586 0.17053223
vn -0.51953125 0.30004883 0.80029297
vn -0 0.60009766 0.80029297
vn -0.025039673 -0.70703125 -0.70654297
vn 0.58447266 -0.34716797 -0.73339844
vn 0.5864258 0.35742188 -0.7270508
vn -0.025238037 0.71972656 -0.69384766
vn -0.6479492 -0.35473633 -0.6738281
vn -0.6489258 0.3647461 -0.66748047
g Cylinder.001_0
f 3/3/3 2/2/2 1/1/1
f 4/4/4 3/3/3 1/1/1
f 4/4/4 5/5/5 3/3/3
f 5/5/5 6/6/6 3/3/3
f 9/9/9 8/8/8 7/7/7
f 10/10/10 9/9/9 7/7/7
f 10/10/10 11/11/11 9/9/9
f 11/11/11 12/12/12 9/9/9
f 15/15/15 14/14/14 13/13/13
f 16/16/16 15/15/15 13/13/13
f 16/16/16 17/17/17 15/15/15
f 17/17/17 18/18/18 15/15/15
f 21/21/21 20/20/20 19/19/19
f 22/22/22 21/21/21 19/19/19
f 22/22/22 23/23/23 21/21/21
f 23/23/23 24/24/24 21/21/21
f 27/27/27 26/26/26 25/25/25
f 28/28/28 27/27/27 25/25/25
f 28/28/28 29/29/29 27/27/27
f 29/29/29 30/30/30 27/27/27
f 30/30/30 29/29/29 31/31/31
f 32/32/32 30/30/30 31/31/31
f 32/32/32 31/31/31 33/33/33
f 33/33/33 34/34/34 32/32/32
f 37/37/37 36/36/36 35/35/35
f 38/38/38 37/37/37 35/35/35
f 38/38/38 39/39/39 37/37/37
f 39/39/39 40/40/40 37/37/37
f 43/43/43 42/42/42 41/41/41
f 41/41/41 44/44/44 43/43/43
f 41/41/41 45/45/45 44/44/44
f 45/45/45 46/46/46 44/44/44
