g DefaultLargeDoorwayTile
v -3.3999949 3.400002 -4
v -3.3999949 3.400002 -3.661511
v -3.3999958 4.0000005 -3.6615186
v -3.3999953 4.0000005 -4
v 3.999998 3.3999977 -4
v 3.400004 3.3999972 -4
v 3.400004 3.3999972 -3.6615005
v 3.999998 3.3999977 -3.6615102
v -3.3999949 3.400002 -4
v -3.9999976 3.4000015 -4
v -3.999998 3.4000015 -3.6614895
v -3.3999949 3.400002 -3.661511
v 3.3999982 -3.4000037 -4
v 3.999998 -3.4000034 -4
v 3.999998 -3.4000034 -3.661299
v 3.3999982 -3.4000037 -3.6613324
v -3.4000034 -3.3999956 -4
v -3.400003 -3.9999998 -4
v -3.4000034 -3.9999998 -3.6615665
v -3.4000034 -3.3999956 -3.6614318
v 3.400004 3.3999972 -4
v 3.400004 3.9999995 -4
v 3.400004 3.9999995 -3.6615157
v 3.400004 3.3999972 -3.6615005
v -3.4000034 -3.3999956 -4
v -3.4000034 -3.3999956 -3.6614318
v -3.999998 -3.3999958 -3.6614664
v -3.9999986 -3.3999958 -4
v 3.3999963 -4.0000005 -3.6615071
v 3.3999963 -4.0000005 -4
v 3.3999982 -3.4000037 -4
v 3.3999982 -3.4000037 -3.6613324
v 3.3999963 -3.4000037 3.4
v 3.3999963 -4.0000005 3.4
v 3.3999963 -4.0000005 -3.6615071
v -3.3999949 3.400002 3.4
v -3.9999976 3.4000015 3.4
v -3.9999986 -3.3999958 3.4
v -3.4000034 -3.3999956 3.4
v 3.400004 3.3999972 3.4
v -3.3999953 4.0000005 3.4
v 3.400004 3.9999995 3.4
v 3.3999963 -3.4000037 3.4
v 3.999998 3.3999977 3.4
v 3.999998 -3.4000034 3.4
v 3.3999963 -4.0000005 3.4
v -3.400003 -3.9999998 3.4
v -3.4000034 -3.3999956 3.4
v -3.9999986 -3.3999958 3.4
v 3.999998 -3.4000034 3.4
v 3.3999963 -3.4000037 3.4
v 3.400004 3.3999972 3.4
v 3.999998 3.3999977 3.4
v 3.400004 3.9999995 3.4
v 3.400004 3.3999972 3.4
v -3.9999976 3.4000015 3.4
v -3.3999949 3.400002 3.4
v -3.3999949 3.400002 3.4
v -3.3999953 4.0000005 3.4
v -3.4000034 -3.9999998 -3.6615665
v -3.400003 -3.9999998 3.4
v -3.4000034 -3.3999956 3.4
v -3.4000034 -3.3999956 -4
v -3.9999986 -3.3999958 -4
v -3.9999976 3.4000015 -4
v -3.3999949 3.400002 -4
v 3.3999982 -3.4000037 -4
v 3.3999963 -4.0000005 -4
v -3.400003 -3.9999998 -4
v 3.400004 3.3999972 -4
v -3.3999953 4.0000005 -4
v 3.400004 3.9999995 -4
v 3.999998 -3.4000034 -4
v 3.999998 3.3999977 -4
vt 0.20394544 0.48988563
vt 0.20394544 0.49853554
vt 0.22121602 0.49842492
vt 0.22121601 0.48988563
vt 0.27302754 0.48988563
vt 0.25575712 0.48988563
vt 0.25575712 0.4986805
vt 0.27302754 0.49854487
vt 0.1694041 0.48988575
vt 0.15213344 0.48988575
vt 0.15213344 0.49883768
vt 0.16940412 0.49853566
vt 0.20394556 0.48988575
vt 0.1866749 0.48988575
vt 0.1866749 0.5015206
vt 0.20394556 0.50104874
vt 0.15213344 0.48988575
vt 0.13486268 0.48988575
vt 0.13486268 0.49775195
vt 0.15213344 0.4996475
vt 0.18667477 0.48988575
vt 0.1694041 0.48988575
vt 0.16940412 0.49846727
vt 0.18667477 0.49868062
vt 0.23848654 0.48988563
vt 0.23848654 0.4996474
vt 0.255757 0.4991635
vt 0.255757 0.48988563
vt 0.23848665 0.49858722
vt 0.23848666 0.48988563
vt 0.22121611 0.48988563
vt 0.22121611 0.5010486
vt 0.22121611 0.7028898
vt 0.23848666 0.7028898
vt 0.23848665 0.49858722
vt 0.34786665 0.47261506
vt 0.36513734 0.47261506
vt 0.36513734 0.27688164
vt 0.3478669 0.27688164
vt 0.15213312 0.47261497
vt 0.34786665 0.48988563
vt 0.15213312 0.48988563
vt 0.15213335 0.27688146
vt 0.13486268 0.47261497
vt 0.13486268 0.27688146
vt 0.15213335 0.2596109
vt 0.3478669 0.2596109
vt 0.23848654 0.7028898
vt 0.255757 0.7028898
vt 0.1866749 0.7028899
vt 0.20394556 0.7028899
vt 0.25575712 0.7028898
vt 0.27302754 0.7028898
vt 0.1694041 0.7028899
vt 0.18667477 0.7028899
vt 0.15213344 0.7028899
vt 0.1694041 0.7028899
vt 0.20394544 0.7028898
vt 0.22121601 0.7028898
vt 0.13486268 0.49775195
vt 0.13486268 0.7028899
vt 0.15213344 0.7028899
vt 0.96250033 0.46249986
vt 1 0.4625001
vt 1 0.037499905
vt 0.96249986 0.037499905
vt 0.53750014 0.46250033
vt 0.53750014 0.50000024
vt 0.96250033 0.50000024
vt 0.53749967 0.037500143
vt 0.96249986 0
vt 0.53749967 0
vt 0.5 0.46250033
vt 0.5 0.037500143
vn 1 0 0
vn 1 0 0
vn 1 0 0
vn 1 0 0
vn -0 -1 0
vn -0 -1 0
vn -0 -1 0
vn -0 -1 0
vn -0 -1 0
vn -0 -1 0
vn -0 -1 0
vn -0 -1 0
vn -0 1 0
vn -0 1 0
vn -0 1 0
vn -0 1 0
vn 1 0 0
vn 1 0 0
vn 1 0 0
vn 1 0 0
vn -1 0 0
vn -1 0 0
vn -1 0 0
vn -1 0 0
vn -0 1 0
vn -0 1 0
vn -0 1 0
vn -0 1 0
vn -1 0 0
vn -1 0 0
vn -1 0 0
vn -1 0 0
vn -1 0 0
vn -1 0 0
vn -1 0 0
vn -0 0 -1
vn -0 0 -1
vn -0 0 -1
vn -0 0 -1
vn -0 0 -1
vn -0 0 -1
vn -0 0 -1
vn -0 0 -1
vn -0 0 -1
vn -0 0 -1
vn -0 0 -1
vn -0 0 -1
vn -0 1 0
vn -0 1 0
vn -0 1 0
vn -0 1 0
vn -0 -1 0
vn -0 -1 0
vn -1 0 0
vn -1 0 0
vn -0 -1 0
vn -0 -1 0
vn 1 0 0
vn 1 0 0
vn 1 0 0
vn 1 0 0
vn 1 0 0
vn -0 0 1
vn -0 0 1
vn -0 0 1
vn -0 0 1
vn -0 0 1
vn -0 0 1
vn -0 0 1
vn -0 0 1
vn -0 0 1
vn -0 0 1
vn -0 0 1
vn -0 0 1
g DefaultLargeDoorwayTile_0
f 3/3/3 2/2/2 1/1/1
f 4/4/4 3/3/3 1/1/1
f 7/7/7 6/6/6 5/5/5
f 8/8/8 7/7/7 5/5/5
f 11/11/11 10/10/10 9/9/9
f 12/12/12 11/11/11 9/9/9
f 15/15/15 14/14/14 13/13/13
f 16/16/16 15/15/15 13/13/13
f 19/19/19 18/18/18 17/17/17
f 20/20/20 19/19/19 17/17/17
f 23/23/23 22/22/22 21/21/21
f 24/24/24 23/23/23 21/21/21
f 27/27/27 26/26/26 25/25/25
f 28/28/28 27/27/27 25/25/25
f 31/31/31 30/30/30 29/29/29
f 32/32/32 31/31/31 29/29/29
g DefaultLargeDoorwayTile_1
f 35/35/35 34/34/34 33/33/33
f 32/32/32 35/35/35 33/33/33
f 38/38/38 37/37/37 36/36/36
f 39/39/39 38/38/38 36/36/36
f 36/36/36 40/40/40 39/39/39
f 36/36/36 41/41/41 40/40/40
f 41/41/41 42/42/42 40/40/40
f 40/40/40 43/43/43 39/39/39
f 40/40/40 44/44/44 43/43/43
f 44/44/44 45/45/45 43/43/43
f 43/43/43 46/46/46 39/39/39
f 46/46/46 47/47/47 39/39/39
f 49/49/49 48/48/48 26/26/26
f 27/27/27 49/49/49 26/26/26
f 51/51/51 50/50/50 15/15/15
f 16/16/16 51/51/51 15/15/15
f 53/53/53 52/52/52 7/7/7
f 8/8/8 53/53/53 7/7/7
f 55/55/55 54/54/54 23/23/23
f 24/24/24 55/55/55 23/23/23
f 57/57/57 56/56/56 11/11/11
f 12/12/12 57/57/57 11/11/11
f 59/59/59 58/58/58 2/2/2
f 3/3/3 59/59/59 2/2/2
f 62/62/62 61/61/61 60/60/60
f 20/20/20 62/62/62 60/60/60
g DefaultLargeDoorwayTile_2
f 65/65/65 64/64/64 63/63/63
f 66/66/66 65/65/65 63/63/63
f 63/63/63 67/67/67 66/66/66
f 67/67/67 63/63/63 68/68/68
f 63/63/63 69/69/69 68/68/68
f 67/67/67 70/70/70 66/66/66
f 71/71/71 66/66/66 70/70/70
f 72/72/72 71/71/71 70/70/70
f 67/67/67 73/73/73 70/70/70
f 73/73/73 74/74/74 70/70/70
