g DepositCounterDoor
v 36.650414 0.03065353 0.7226157
v 36.650414 0.043395706 0.8166765
v 36.650414 0.024071861 0.8166765
v 36.650414 0.043395706 0.7226157
v 36.650414 0.021272436 0.62855494
v 36.650414 0.043395706 0.62855494
v 36.650414 0.03065353 0.53449416
v 36.650414 0.043395706 0.53449416
v 36.650414 0.021272436 0.44043338
v 36.650414 0.043395706 0.44043338
v 36.650414 0.03065353 0.3463726
v 36.650414 0.043395706 0.3463726
v 36.650414 0.043395706 0.7226157
v 37.634068 0.043395706 0.8166765
v 36.650414 0.043395706 0.8166765
v 37.634068 0.043395706 0.7226157
v 36.650414 0.043395706 0.62855494
v 37.634068 0.043395706 0.62855494
v 36.650414 0.043395706 0.53449416
v 37.634068 0.043395706 0.53449416
v 36.650414 0.043395706 0.44043338
v 37.634068 0.043395706 0.44043338
v 36.650414 0.043395706 0.3463726
v 37.634068 0.043395706 0.3463726
v 37.634068 0.043395706 0.7226157
v 37.634068 0.024071861 0.8166765
v 37.634068 0.043395706 0.8166765
v 37.634068 0.03065353 0.7226157
v 37.634068 0.043395706 0.62855494
v 37.634068 0.021272436 0.62855494
v 37.634068 0.043395706 0.53449416
v 37.634068 0.03065353 0.53449416
v 37.634068 0.043395706 0.44043338
v 37.634068 0.021272436 0.44043338
v 37.634068 0.043395706 0.3463726
v 37.634068 0.03065353 0.3463726
v 37.634068 0.03065353 0.7226157
v 36.650414 0.03065353 0.7226157
v 36.650414 0.024071861 0.8166765
v 37.634068 0.024071861 0.8166765
v 36.650414 0.043395706 0.3463726
v 36.650414 0.03065353 0.3463726
v 37.634068 0.03065353 0.3463726
v 37.634068 0.043395706 0.3463726
v 37.634068 0.043395706 0.8166765
v 37.634068 0.024071861 0.8166765
v 36.650414 0.024071861 0.8166765
v 36.650414 0.043395706 0.8166765
v 37.634068 0.03065353 0.3463726
v 36.650414 0.03065353 0.3463726
v 36.650414 0.021272436 0.44043338
v 37.634068 0.021272436 0.44043338
v 37.634068 0.021272436 0.44043338
v 36.650414 0.021272436 0.44043338
v 36.650414 0.03065353 0.53449416
v 37.634068 0.03065353 0.53449416
v 37.634068 0.03065353 0.53449416
v 36.650414 0.03065353 0.53449416
v 36.650414 0.021272436 0.62855494
v 37.634068 0.021272436 0.62855494
v 37.634068 0.021272436 0.62855494
v 36.650414 0.021272436 0.62855494
v 36.650414 0.03065353 0.7226157
v 37.634068 0.03065353 0.7226157
vt 0.50146484 0.49414062
vt 0.50146484 0.49438477
vt 0.50146484 0.49438477
vt 0.50146484 0.49414062
vt 0.50146484 0.49389648
vt 0.50146484 0.49389648
vt 0.50146484 0.4934082
vt 0.50146484 0.4934082
vt 0.50146484 0.49316406
vt 0.50146484 0.49316406
vt 0.50146484 0.49291992
vt 0.50146484 0.49291992
vt 0.5 0.4958496
vt 0.5 0.49291992
vt 0.5 0.4958496
vt 0.5 0.49291992
vt 0.5004883 0.4958496
vt 0.5004883 0.49291992
vt 0.5004883 0.4958496
vt 0.5004883 0.49291992
vt 0.50097656 0.4958496
vt 0.50097656 0.49291992
vt 0.50146484 0.4958496
vt 0.50146484 0.49291992
vt 0.50146484 0.49536133
vt 0.50146484 0.49560547
vt 0.50146484 0.49560547
vt 0.50146484 0.49536133
vt 0.50146484 0.4951172
vt 0.50146484 0.4951172
vt 0.50146484 0.49487305
vt 0.50146484 0.49487305
vt 0.50146484 0.4946289
vt 0.50146484 0.4946289
vt 0.50146484 0.49438477
vt 0.50146484 0.49438477
vt 0.4987793 0.4958496
vt 0.4987793 0.49291992
vt 0.49853516 0.49291992
vt 0.49853516 0.4958496
vt 0.50146484 0.49291992
vt 0.50146484 0.49291992
vt 0.50146484 0.4958496
vt 0.50146484 0.4958496
vt 0.50146484 0.49291992
vt 0.50146484 0.49291992
vt 0.50146484 0.4958496
vt 0.50146484 0.4958496
vt 0.5 0.4958496
vt 0.5 0.49291992
vt 0.49975586 0.49291992
vt 0.49975586 0.4958496
vt 0.49975586 0.4958496
vt 0.49975586 0.49291992
vt 0.49951172 0.49291992
vt 0.49951172 0.4958496
vt 0.49951172 0.4958496
vt 0.49951172 0.49291992
vt 0.49902344 0.49291992
vt 0.49902344 0.4958496
vt 0.49902344 0.4958496
vt 0.49902344 0.49291992
vt 0.4987793 0.49291992
vt 0.4987793 0.4958496
vn -1 0 0
vn -1 0 0
vn -1 0 0
vn -1 0 0
vn -1 0 0
vn -1 0 0
vn -1 0 0
vn -1 0 0
vn -1 0 0
vn -1 0 0
vn -1 0 0
vn -1 0 0
vn -0 1 0
vn -0 1 0
vn -0 1 0
vn -0 1 0
vn -0 1 0
vn -0 1 0
vn -0 1 0
vn -0 1 0
vn -0 1 0
vn -0 1 0
vn -0 1 0
vn -0 1 0
vn 1 0 0
vn 1 0 0
vn 1 0 0
vn 1 0 0
vn 1 0 0
vn 1 0 0
vn 1 0 0
vn 1 0 0
vn 1 0 0
vn 1 0 0
vn 1 0 0
vn 1 0 0
vn -0 -0.9975586 -0.06982422
vn -0 -0.9975586 -0.06982422
vn -0 -0.9975586 -0.06982422
vn -0 -0.9975586 -0.06982422
vn -0 0 -1
vn -0 0 -1
vn -0 0 -1
vn -0 0 -1
vn -0 0 1
vn -0 0 1
vn -0 0 1
vn -0 0 1
vn -0 -0.9951172 -0.099243164
vn -0 -0.9951172 -0.099243164
vn -0 -0.9951172 -0.099243164
vn -0 -0.9951172 -0.099243164
vn -0 -0.9951172 0.099243164
vn -0 -0.9951172 0.099243164
vn -0 -0.9951172 0.099243164
vn -0 -0.9951172 0.099243164
vn -0 -0.9951172 -0.099243164
vn -0 -0.9951172 -0.099243164
vn -0 -0.9951172 -0.099243164
vn -0 -0.9951172 -0.099243164
vn -0 -0.9951172 0.099243164
vn -0 -0.9951172 0.099243164
vn -0 -0.9951172 0.099243164
vn -0 -0.9951172 0.099243164
g DepositCounterDoor_0
f 3/3/3 2/2/2 1/1/1
f 2/2/2 4/4/4 1/1/1
f 1/1/1 4/4/4 5/5/5
f 4/4/4 6/6/6 5/5/5
f 5/5/5 6/6/6 7/7/7
f 6/6/6 8/8/8 7/7/7
f 7/7/7 8/8/8 9/9/9
f 8/8/8 10/10/10 9/9/9
f 9/9/9 10/10/10 11/11/11
f 10/10/10 12/12/12 11/11/11
f 15/15/15 14/14/14 13/13/13
f 14/14/14 16/16/16 13/13/13
f 13/13/13 16/16/16 17/17/17
f 16/16/16 18/18/18 17/17/17
f 17/17/17 18/18/18 19/19/19
f 18/18/18 20/20/20 19/19/19
f 19/19/19 20/20/20 21/21/21
f 20/20/20 22/22/22 21/21/21
f 21/21/21 22/22/22 23/23/23
f 22/22/22 24/24/24 23/23/23
f 27/27/27 26/26/26 25/25/25
f 26/26/26 28/28/28 25/25/25
f 25/25/25 28/28/28 29/29/29
f 28/28/28 30/30/30 29/29/29
f 29/29/29 30/30/30 31/31/31
f 30/30/30 32/32/32 31/31/31
f 31/31/31 32/32/32 33/33/33
f 32/32/32 34/34/34 33/33/33
f 33/33/33 34/34/34 35/35/35
f 34/34/34 36/36/36 35/35/35
f 39/39/39 38/38/38 37/37/37
f 40/40/40 39/39/39 37/37/37
f 43/43/43 42/42/42 41/41/41
f 44/44/44 43/43/43 41/41/41
f 47/47/47 46/46/46 45/45/45
f 48/48/48 47/47/47 45/45/45
f 51/51/51 50/50/50 49/49/49
f 52/52/52 51/51/51 49/49/49
f 55/55/55 54/54/54 53/53/53
f 56/56/56 55/55/55 53/53/53
f 59/59/59 58/58/58 57/57/57
f 60/60/60 59/59/59 57/57/57
f 63/63/63 62/62/62 61/61/61
f 64/64/64 63/63/63 61/61/61
