g DoorBlockerOffset3.001
v -2.6999984 1.5999966 0
v 2.6000009 1.5999966 0
v 2.6000009 1.5999966 0.33854142
v -2.6999984 1.5999966 0.3385414
v 2.6000009 1.5999966 8
v -2.6999984 1.5999966 8
vt 0.36285573 0.30844006
vt 0.23714417 0.30844006
vt 0.23714419 0.32335246
vt 0.36285576 0.3222497
vt 0.23714417 0.6915599
vt 0.36285573 0.6915599
vn -0 1 0
vn -0 1 0
vn -0 1 0
vn -0 1 0
vn -0 1 0
vn -0 1 0
g DoorBlockerOffset3.001_0
f 3/3/3 2/2/2 1/1/1
f 4/4/4 3/3/3 1/1/1
g DoorBlockerOffset3.001_1
f 6/6/6 5/5/5 3/3/3
f 4/4/4 6/6/6 3/3/3
