g Door4
v 0.012543023 0.32968095 -1.2206473
v 0.0740445 0.31623903 -1.1923288
v 0.06310433 0.3999381 -0.009275556
v -0.00074611604 0.41675493 0.013252139
v -0.00074611604 -0.4507592 0.013252139
v 0.06310433 -0.43394238 -0.009275556
v 0.0740445 -0.3502923 -1.1923288
v 0.012543023 -0.36373416 -1.2206473
v 0.012543023 -0.36373416 -1.2206473
v 0.0740445 -0.3502923 -1.1923288
v 0.0740445 0.31623903 -1.1923288
v 0.012543023 0.32968095 -1.2206473
v -0.00074611604 0.41675493 0.013252139
v 0.06310433 0.3999381 -0.009275556
v 0.06310433 -0.43394238 -0.009275556
v -0.00074611604 -0.4507592 0.013252139
v 0.069621325 -0.29966763 -1.0905881
v 0.104568556 -0.27072355 -1.0357413
v 0.104568556 0.2366684 -1.0357413
v 0.069621325 0.26561442 -1.0905881
v 0.067527585 0.33978567 -0.10502386
v 0.091798894 0.3070801 -0.1576904
v 0.091798894 -0.33901826 -0.1576904
v 0.067527585 -0.3723929 -0.10502386
v 0.06310433 0.3999381 -0.009275556
v 0.06310433 -0.43394238 -0.009275556
v 0.0740445 0.31623903 -1.1923288
v 0.069621325 -0.29966763 -1.0905881
v 0.069621325 0.26561442 -1.0905881
v 0.0740445 -0.3502923 -1.1923288
v 0.069621325 0.26561442 -1.0905881
v 0.104568556 0.2366684 -1.0357413
v 0.091798894 0.3070801 -0.1576904
v 0.067527585 0.33978567 -0.10502386
v 0.067527585 -0.3723929 -0.10502386
v 0.091798894 -0.33901826 -0.1576904
v 0.104568556 -0.27072355 -1.0357413
v 0.069621325 -0.29966763 -1.0905881
v 0.018328637 0.22445612 -0.3455286
v 0.018328637 -0.26745847 -0.3455286
v 0.019868486 -0.242322 -0.5370493
v 0.019868486 0.22802114 -0.5370493
v 0.09802086 -0.25267905 -0.43925416
v 0.09802086 0.23852223 -0.43925416
v 0.019868478 0.23899844 -0.42053127
v 0.019868478 -0.2531552 -0.42053127
v 0.015338987 -0.24943843 -0.47360873
v 0.097989954 -0.24837732 -0.4995048
v 0.09802086 -0.25267905 -0.43925416
v 0.019868478 -0.2531552 -0.42053127
v 0.01321058 -0.2690415 -0.23423326
v 0.10117732 -0.22675312 -0.6774981
v 0.10117732 0.21144733 -0.6774981
v 0.023694336 0.2118182 -0.655301
v 0.023694336 -0.22705159 -0.655301
v 0.020950072 -0.23423955 -0.5956253
v 0.020950072 0.21955734 -0.5956253
v 0.09938255 0.21956362 -0.6177728
v 0.099382535 -0.23424524 -0.6177728
v 0.10077172 -0.22223386 -0.7453948
v 0.10117732 -0.22675312 -0.6774981
v 0.023694336 -0.22705159 -0.655301
v 0.026464105 -0.22270949 -0.71553123
v 0.1017676 -0.24198318 -0.5613735
v 0.101767614 0.22769023 -0.5613735
v 0.019868486 0.22802114 -0.5370493
v 0.019868486 -0.242322 -0.5370493
v 0.01321058 0.22622147 -0.23423326
v 0.019868478 -0.2531552 -0.42053127
v 0.019868478 0.23899844 -0.42053127
v 0.01321058 -0.2690415 -0.23423326
v -0.00074611604 0.41675493 0.013252139
v -0.00074611604 -0.4507592 0.013252139
v 0.015338987 0.2352817 -0.47360873
v -0.00074611604 0.41675493 0.013252139
v 0.018328637 0.22445612 -0.3455286
v 0.020950072 0.21955734 -0.5956253
v 0.023694336 0.2118182 -0.655301
v 0.026464105 0.20673671 -0.71553123
v 0.012543023 0.32968095 -1.2206473
v 0.026464105 -0.22270949 -0.71553123
v 0.012543023 -0.36373416 -1.2206473
v 0.023694336 -0.22705159 -0.655301
v 0.020950072 -0.23423955 -0.5956253
v -0.00074611604 -0.4507592 0.013252139
v 0.018328637 -0.26745847 -0.3455286
v 0.026464105 -0.22270949 -0.71553123
v 0.026464105 0.20673671 -0.71553123
v 0.10077172 0.20606905 -0.7453948
v 0.10077172 -0.22223386 -0.7453948
v 0.09802086 0.23852223 -0.43925416
v 0.09798993 0.23422064 -0.4995048
v 0.015338987 0.2352817 -0.47360873
v 0.019868478 0.23899844 -0.42053127
v 0.01321058 0.22622147 -0.23423326
v 0.026464105 0.20673671 -0.71553123
v 0.023694336 0.2118182 -0.655301
v 0.10117732 0.21144733 -0.6774981
v 0.10077172 0.20606905 -0.7453948
v 0.015338987 -0.24943843 -0.47360873
v 0.015338987 0.2352817 -0.47360873
v 0.09798993 0.23422064 -0.4995048
v 0.097989954 -0.24837732 -0.4995048
v 0.091798894 0.3070801 -0.1576904
v 0.09802086 0.23852223 -0.43925416
v 0.09802086 -0.25267905 -0.43925416
v 0.09798993 0.23422064 -0.4995048
v 0.091798894 -0.33901826 -0.1576904
v 0.097989954 -0.24837732 -0.4995048
v 0.1017676 -0.24198318 -0.5613735
v 0.101767614 0.22769023 -0.5613735
v 0.099382535 -0.23424524 -0.6177728
v 0.09938255 0.21956362 -0.6177728
v 0.104568556 -0.27072355 -1.0357413
v 0.10117732 0.21144733 -0.6774981
v 0.104568556 0.2366684 -1.0357413
v 0.10117732 -0.22675312 -0.6774981
v 0.10077172 0.20606905 -0.7453948
v 0.10077172 -0.22223386 -0.7453948
vt 1.6484375 0.86376953
vt 1.6220703 0.87597656
vt 1.6210938 1.3828125
vt 1.6484375 1.3925781
vt 1.5927734 0.86376953
vt 1.5654297 0.87402344
vt 1.5654297 1.3808594
vt 1.5927734 1.3925781
vt -0.5463867 1.671875
vt -0.5239258 1.6660156
vt -0.5239258 1.3789062
vt -0.5463867 1.3730469
vt 0.33740234 1.6113281
vt 0.36669922 1.6044922
vt 0.36669922 1.2451172
vt 0.33740234 1.2373047
vt -0.6508789 0.90771484
vt -0.6386719 0.93066406
vt -0.42016602 0.93066406
vt -0.40771484 0.90771484
vt -0.37573242 1.3320312
vt -0.38989258 1.3085938
vt -0.66796875 1.3085938
vt -0.6821289 1.3320312
vt -0.34985352 1.3730469
vt -0.7089844 1.3730469
vt -0.3857422 0.86376953
vt -0.6508789 0.90771484
vt -0.40771484 0.90771484
vt -0.67285156 0.86376953
vt 1.6923828 0.86376953
vt 1.6767578 0.8881836
vt 1.6816406 1.2646484
vt 1.6923828 1.2861328
vt 1.4306641 1.2373047
vt 1.4179688 1.2597656
vt 1.4130859 1.6367188
vt 1.4306641 1.6601562
vt 1.3085938 0.04046631
vt 1.3085938 0.2524414
vt 1.390625 0.24157715
vt 1.390625 0.038909912
vt 1.1767578 1.4492188
vt 1.1767578 1.2382812
vt 1.1425781 1.2373047
vt 1.1425781 1.4501953
vt 1.1083984 1.4609375
vt 1.0732422 1.4501953
vt 1.0732422 1.4755859
vt 1.1064453 1.484375
vt 1.1083984 1.5644531
vt 1.5 1.4335938
vt 1.5 1.6220703
vt 1.5341797 1.6220703
vt 1.5341797 1.4335938
vt -0.6035156 1.5683594
vt -0.6035156 1.3730469
vt -0.6386719 1.3730469
vt -0.6386719 1.5683594
vt 1.2285156 0.29492188
vt 1.2568359 0.28710938
vt 1.2568359 0.2524414
vt 1.2324219 0.2607422
vt 0.92578125 1.4404297
vt 0.92578125 1.2382812
vt 0.88916016 1.2373047
vt 0.88916016 1.4404297
vt 0.17248535 1.1552734
vt 0.092285156 0.94921875
vt 0.092285156 1.1611328
vt 0.17248535 0.9423828
vt 0.27905273 1.2373047
vt 0.27905273 0.86376953
vt 0.06951904 1.1591797
vt 0.41137695 -0.17700195
vt 0.49414062 -0.3317871
vt 0.4963379 -0.43945312
vt 0.49975586 -0.46533203
vt 0.5019531 -0.49121094
vt 0.4489746 -0.7089844
vt 0.68652344 -0.49121094
vt 0.7475586 -0.7089844
vt 0.68847656 -0.46533203
vt 0.69189453 -0.43945312
vt 0.78466797 -0.17700195
vt 0.7060547 -0.3317871
vt 0.9169922 1.4404297
vt 0.9169922 1.625
vt 0.9511719 1.625
vt 0.9511719 1.4404297
vt 1.1796875 1.5390625
vt 1.1806641 1.5644531
vt 1.2158203 1.5527344
vt 1.2128906 1.5292969
vt 1.2158203 1.4501953
vt 1.3447266 0.28637695
vt 1.3691406 0.29467773
vt 1.3691406 0.2602539
vt 1.3417969 0.2524414
vt 0.7416992 1.2373047
vt 0.7416992 1.4462891
vt 0.7788086 1.4462891
vt 0.7788086 1.2382812
vt -0.38989258 1.3085938
vt -0.41918945 1.1875
vt -0.6308594 1.1875
vt -0.42114258 1.1611328
vt -0.66796875 1.3085938
vt -0.62890625 1.1611328
vt -0.62597656 1.1347656
vt -0.42407227 1.1347656
vt -0.6225586 1.1103516
vt -0.42749023 1.1103516
vt -0.6386719 0.93066406
vt -0.4309082 1.0849609
vt -0.42016602 0.93066406
vt -0.6196289 1.0849609
vt -0.4333496 1.0556641
vt -0.6176758 1.0556641
vn 0.23706055 0.9692383 -0.066101074
vn 0.23706055 0.9692383 -0.066101074
vn 0.23706055 0.9692383 -0.066101074
vn 0.23706055 0.9692383 -0.066101074
vn 0.23706055 -0.9692383 -0.06604004
vn 0.23706055 -0.9692383 -0.06604004
vn 0.23706055 -0.9692383 -0.06604004
vn 0.23706055 -0.9692383 -0.06604004
vn 0.4182129 0 -0.9082031
vn 0.4182129 0 -0.9082031
vn 0.4182129 0 -0.9082031
vn 0.4182129 0 -0.9082031
vn 0.33276367 0 0.9428711
vn 0.33276367 0 0.9428711
vn 0.33276367 0 0.9428711
vn 0.33276367 0 0.9428711
vn 0.8432617 0 -0.53759766
vn 0.8432617 0 -0.53759766
vn 0.8432617 0 -0.53759766
vn 0.8432617 0 -0.53759766
vn 0.9951172 0.00014936924 0.09649658
vn 0.9082031 0 0.41845703
vn 0.9082031 0 0.41845703
vn 0.99560547 -0.00014710426 0.096069336
vn 0.9995117 0.00010621548 0.03302002
vn 0.9995117 -0.00010710955 0.03274536
vn 0.9995117 0.00010538101 0.031280518
vn 0.9995117 -0.00018024445 0.022399902
vn 0.9995117 0.00018239021 0.022399902
vn 0.9995117 -0.00010406971 0.031280518
vn 0.7211914 0.69091797 -0.047851562
vn 0.7211914 0.69091797 -0.047851562
vn 0.7211914 0.69091797 -0.047851562
vn 0.7211914 0.69091797 -0.047851562
vn 0.72509766 -0.6875 -0.04623413
vn 0.72509766 -0.6875 -0.04623413
vn 0.72509766 -0.6875 -0.04623413
vn 0.72509766 -0.6875 -0.04623413
vn -1 0 -0.008041382
vn -1 0 -0.008041382
vn -1 0 -0.008041382
vn -1 0 -0.008041382
vn -0.23303223 0 -0.97265625
vn -0.23303223 0 -0.97265625
vn -0.23303223 0 -0.97265625
vn -0.23303223 0 -0.97265625
vn -0.0056533813 0.9975586 0.0713501
vn -0.0056533813 0.9975586 0.0713501
vn -0.0056533813 0.9975586 0.0713501
vn -0.0056533813 0.9975586 0.0713501
vn -0.0056533813 0.9975586 0.0713501
vn -0.27539062 0 -0.9614258
vn -0.27539062 0 -0.9614258
vn -0.27539062 0 -0.9614258
vn -0.27539062 0 -0.9614258
vn 0.27172852 0 0.96240234
vn 0.27172852 0 0.96240234
vn 0.27172852 0 0.96240234
vn 0.27172852 0 0.96240234
vn 0.018692017 0.9975586 0.06933594
vn 0.018692017 0.9975586 0.06933594
vn 0.018692017 0.9975586 0.06933594
vn 0.018692017 0.9975586 0.06933594
vn -0.28466797 0 -0.9584961
vn -0.28466797 0 -0.9584961
vn -0.28466797 0 -0.9584961
vn -0.28466797 0 -0.9584961
vn -0.9995117 0 -0.035705566
vn -0.9995117 0 -0.035705566
vn -0.9995117 0 -0.035705566
vn -0.9995117 0 -0.035705566
vn -0.99853516 -0.007297516 -0.050689697
vn -0.99853516 -0.007297516 -0.050689697
vn -0.99853516 -0.007297516 -0.050689697
vn -1 0.0010089874 -0.0054512024
vn -0.9995117 0.002401352 -0.025054932
vn -0.9995117 0.002401352 -0.025054932
vn -0.9995117 0.002401352 -0.025054932
vn -1 -0.000115811825 0.010391235
vn -1 -0.00038290024 0.014152527
vn -1 -0.00038290024 0.014152527
vn -1 -0.00038290024 0.014152527
vn -1 0.00071907043 -0.0013656616
vn -0.9995117 0.002401352 -0.025054932
vn -1 0.00065135956 -0.0004105568
vn -0.9995117 0.002401352 -0.025054932
vn 0.37280273 0 0.9277344
vn 0.37280273 0 0.9277344
vn 0.37280273 0 0.9277344
vn 0.37280273 0 0.9277344
vn 0.13891602 -0.98876953 0.058410645
vn 0.13891602 -0.98876953 0.058410645
vn 0.13891602 -0.98876953 0.058410645
vn 0.13891602 -0.98876953 0.058410645
vn 0.13891602 -0.98876953 0.058410645
vn 0.021209717 -0.99658203 0.081726074
vn 0.021209717 -0.99658203 0.081726074
vn 0.021209717 -0.99658203 0.081726074
vn 0.021209717 -0.99658203 0.081726074
vn 0.29907227 0 0.95410156
vn 0.29907227 0 0.95410156
vn 0.29907227 0 0.95410156
vn 0.29907227 0 0.95410156
vn 0.9995117 -0.0012636185 0.022064209
vn 0.99902344 -0.0105896 0.04196167
vn 1 -0.0011825562 0.021728516
vn 0.99853516 -0.016311646 0.054260254
vn 0.9995117 -0.0011892319 0.02218628
vn 0.99853516 -0.014892578 0.051208496
vn 0.99853516 -0.016311646 0.054260254
vn 0.9995117 -0.004447937 0.03161621
vn 1 0.0013666153 0.02053833
vn 1 0.002401352 0.018569946
vn 1 0.0035800934 0.013626099
vn 1 0.0032787323 0.014892578
vn 1 0.0037841797 0.012771606
vn 1 0.002401352 0.018569946
vn 1 0.0037841797 0.012771606
vn 1 0.0029182434 0.016403198
g Door4_0
f 3/3/3 2/2/2 1/1/1
f 4/4/4 3/3/3 1/1/1
f 7/7/7 6/6/6 5/5/5
f 8/8/8 7/7/7 5/5/5
f 11/11/11 10/10/10 9/9/9
f 12/12/12 11/11/11 9/9/9
f 15/15/15 14/14/14 13/13/13
f 16/16/16 15/15/15 13/13/13
f 19/19/19 18/18/18 17/17/17
f 20/20/20 19/19/19 17/17/17
f 23/23/23 22/22/22 21/21/21
f 24/24/24 23/23/23 21/21/21
f 24/24/24 21/21/21 25/25/25
f 26/26/26 24/24/24 25/25/25
f 25/25/25 21/21/21 27/27/27
f 28/28/28 24/24/24 26/26/26
f 21/21/21 29/29/29 27/27/27
f 30/30/30 28/28/28 26/26/26
f 27/27/27 29/29/29 30/30/30
f 29/29/29 28/28/28 30/30/30
f 33/33/33 32/32/32 31/31/31
f 34/34/34 33/33/33 31/31/31
f 37/37/37 36/36/36 35/35/35
f 38/38/38 37/37/37 35/35/35
f 41/41/41 40/40/40 39/39/39
f 42/42/42 41/41/41 39/39/39
f 45/45/45 44/44/44 43/43/43
f 46/46/46 45/45/45 43/43/43
f 49/49/49 48/48/48 47/47/47
f 47/47/47 50/50/50 49/49/49
f 47/47/47 51/51/51 50/50/50
f 54/54/54 53/53/53 52/52/52
f 55/55/55 54/54/54 52/52/52
f 58/58/58 57/57/57 56/56/56
f 59/59/59 58/58/58 56/56/56
f 62/62/62 61/61/61 60/60/60
f 63/63/63 62/62/62 60/60/60
f 66/66/66 65/65/65 64/64/64
f 67/67/67 66/66/66 64/64/64
f 70/70/70 69/69/69 68/68/68
f 69/69/69 71/71/71 68/68/68
f 72/72/72 68/68/68 71/71/71
f 71/71/71 73/73/73 72/72/72
f 72/72/72 74/74/74 68/68/68
f 77/77/77 76/76/76 75/75/75
f 78/78/78 77/77/77 75/75/75
f 75/75/75 79/79/79 78/78/78
f 79/79/79 75/75/75 80/80/80
f 81/81/81 79/79/79 80/80/80
f 81/81/81 80/80/80 82/82/82
f 77/77/77 78/78/78 83/83/83
f 83/83/83 81/81/81 82/82/82
f 84/84/84 77/77/77 83/83/83
f 82/82/82 85/85/85 83/83/83
f 86/86/86 84/84/84 83/83/83
f 83/83/83 85/85/85 86/86/86
f 89/89/89 88/88/88 87/87/87
f 90/90/90 89/89/89 87/87/87
f 93/93/93 92/92/92 91/91/91
f 91/91/91 94/94/94 93/93/93
f 94/94/94 95/95/95 93/93/93
f 98/98/98 97/97/97 96/96/96
f 99/99/99 98/98/98 96/96/96
f 102/102/102 101/101/101 100/100/100
f 103/103/103 102/102/102 100/100/100
f 106/106/106 105/105/105 104/104/104
f 104/104/104 105/105/105 107/107/107
f 104/104/104 108/108/108 106/106/106
f 106/106/106 108/108/108 109/109/109
f 107/107/107 109/109/109 110/110/110
f 110/110/110 109/109/109 108/108/108
f 110/110/110 111/111/111 107/107/107
f 111/111/111 104/104/104 107/107/107
f 108/108/108 112/112/112 110/110/110
f 104/104/104 111/111/111 113/113/113
f 112/112/112 108/108/108 114/114/114
f 115/115/115 104/104/104 113/113/113
f 116/116/116 104/104/104 115/115/115
f 117/117/117 115/115/115 113/113/113
f 113/113/113 112/112/112 117/117/117
f 116/116/116 115/115/115 118/118/118
f 119/119/119 117/117/117 112/112/112
f 114/114/114 119/119/119 112/112/112
f 116/116/116 118/118/118 119/119/119
f 119/119/119 114/114/114 116/116/116
