g ErlenmeyerFlask
v 8.3846086E-10 0.83119553 -0.2503174
v 0.41559777 0.7198364 -0.2503174
v 0.4818892 0.8346566 -0.032132305
v 1.799143E-10 0.9637784 -0.032132305
v -0.41559777 0.7198364 -0.2503174
v -9.6946735E-09 0.25161207 1.8746805
v 0.12580603 0.21790242 1.8746805
v -0.4818892 0.8346566 -0.032132305
v -0.7198364 0.41559777 -0.2503174
v -0.8346566 0.4818892 -0.032132305
v -0.2179025 0.12580603 1.8746805
v -0.12580603 0.21790242 1.8746805
v -0.21790266 0.12580603 2.4702466
v -0.1258062 0.21790242 2.4702466
v -0.25258413 0.14582936 2.596683
v -0.14582956 0.25258386 2.596683
v -1.706115E-07 0.25161207 2.4702466
v 0.12580587 0.21790242 2.4702466
v -2.0432113E-07 0.29165873 2.596683
v 0.14582917 0.25258386 2.596683
v 0.83119553 -8.3846086E-10 -0.2503174
v 0.7198364 -0.41559777 -0.2503174
v 0.8346566 -0.4818892 -0.032132305
v 0.9637784 -1.3511507E-09 -0.032132305
v 0.7198364 0.41559777 -0.2503174
v 0.25161207 2.4852107E-09 1.8746805
v 0.2179024 -0.12580603 1.8746805
v 0.8346566 0.4818892 -0.032132305
v 0.41559777 0.7198364 -0.2503174
v 0.4818892 0.8346566 -0.032132305
v 0.12580603 0.21790242 1.8746805
v 0.2179024 0.12580603 1.8746805
v 0.12580587 0.21790242 2.4702466
v 0.21790224 0.12580603 2.4702466
v 0.14582917 0.25258386 2.596683
v 0.25258365 0.14582936 2.596683
v 0.25161192 2.4852107E-09 2.4702466
v 0.21790224 -0.12580603 2.4702466
v 0.29165855 2.8807579E-09 2.596683
v 0.25258365 -0.14582936 2.596683
v 8.3846086E-10 -0.83119553 -0.2503174
v -0.41559777 -0.7198364 -0.2503174
v -0.4818892 -0.8346566 -0.032132305
v 1.799143E-10 -0.9637784 -0.032132305
v 0.41559777 -0.7198364 -0.2503174
v -9.6946735E-09 -0.25161207 1.8746805
v -0.12580603 -0.21790242 1.8746805
v 0.4818892 -0.8346566 -0.032132305
v 0.7198364 -0.41559777 -0.2503174
v 0.8346566 -0.4818892 -0.032132305
v 0.2179024 -0.12580603 1.8746805
v 0.12580603 -0.21790242 1.8746805
v 0.21790224 -0.12580603 2.4702466
v 0.12580587 -0.21790242 2.4702466
v 0.25258365 -0.14582936 2.596683
v 0.14582917 -0.25258386 2.596683
v -1.706115E-07 -0.25161207 2.4702466
v -0.1258062 -0.21790242 2.4702466
v -2.0432113E-07 -0.29165873 2.596683
v -0.14582956 -0.25258386 2.596683
v -0.83119553 -8.3846086E-10 -0.2503174
v -0.7198364 0.41559777 -0.2503174
v -0.8346566 0.4818892 -0.032132305
v -0.9637784 -1.3511507E-09 -0.032132305
v -0.7198364 -0.41559777 -0.2503174
v -0.25161207 2.4852107E-09 1.8746805
v -0.2179025 0.12580603 1.8746805
v -0.8346566 -0.4818892 -0.032132305
v -0.41559777 -0.7198364 -0.2503174
v -0.4818892 -0.8346566 -0.032132305
v -0.12580603 -0.21790242 1.8746805
v -0.2179025 -0.12580603 1.8746805
v -0.1258062 -0.21790242 2.4702466
v -0.21790266 -0.12580603 2.4702466
v -0.14582956 -0.25258386 2.596683
v -0.25258413 -0.14582936 2.596683
v -0.25161222 2.4852107E-09 2.4702466
v -0.21790266 0.12580603 2.4702466
v -0.2916589 2.8807579E-09 2.596683
v -0.25258413 0.14582936 2.596683
v 0.7198364 -0.41559777 -0.2503174
v 0.83119553 -8.3846086E-10 -0.2503174
v 0.7198364 0.41559777 -0.2503174
v 0.41559777 -0.7198364 -0.2503174
v 0.41559777 0.7198364 -0.2503174
v 8.3846086E-10 -0.83119553 -0.2503174
v 8.3846086E-10 0.83119553 -0.2503174
v -0.41559777 -0.7198364 -0.2503174
v -0.41559777 0.7198364 -0.2503174
v -0.7198364 -0.41559777 -0.2503174
v -0.7198364 0.41559777 -0.2503174
v -0.83119553 -8.3846086E-10 -0.2503174
v 0.19553599 0.11289289 2.6346395
v 0.22578558 3.351961E-09 2.6346395
v 0.19553599 -0.11289287 2.6346395
v 0.112892695 0.1955362 2.6346395
v 0.112892695 -0.1955362 2.6346395
v -2.0292995E-07 0.22578576 2.6346395
v -2.0292995E-07 -0.22578576 2.6346395
v -0.11289307 0.1955362 2.6346395
v -0.11289307 -0.1955362 2.6346395
v -0.19553646 0.11289289 2.6346395
v -0.19553646 -0.11289287 2.6346395
v -0.22578596 3.351961E-09 2.6346395
v -0.25258413 0.14582936 2.596683
v -0.19553646 0.11289289 2.6346395
v -0.22578596 3.351961E-09 2.6346395
v -0.2916589 2.8807579E-09 2.596683
v -0.14582956 0.25258386 2.596683
v -0.19553646 -0.11289287 2.6346395
v -0.11289307 0.1955362 2.6346395
v -0.25258413 -0.14582936 2.596683
v -2.0432113E-07 0.29165873 2.596683
v -0.11289307 -0.1955362 2.6346395
v -2.0292995E-07 0.22578576 2.6346395
v -0.14582956 -0.25258386 2.596683
v 0.14582917 0.25258386 2.596683
v -2.0292995E-07 -0.22578576 2.6346395
v 0.112892695 0.1955362 2.6346395
v -2.0432113E-07 -0.29165873 2.596683
v 0.25258365 0.14582936 2.596683
v 0.112892695 -0.1955362 2.6346395
v 0.19553599 0.11289289 2.6346395
v 0.14582917 -0.25258386 2.596683
v 0.29165855 2.8807579E-09 2.596683
v 0.19553599 -0.11289287 2.6346395
v 0.22578558 3.351961E-09 2.6346395
v 0.25258365 -0.14582936 2.596683
vt 0.9135742 0.5180664
vt 0.98095703 0.51708984
vt 0.9980469 0.47802734
vt 0.9199219 0.4790039
vt 0.8364258 0.5180664
vt 0.88671875 0.13244629
vt 0.90722656 0.13220215
vt 0.8300781 0.4790039
vt 0.76904297 0.51708984
vt 0.7519531 0.47802734
vt 0.84277344 0.13220215
vt 0.86328125 0.13244629
vt 0.84277344 0.024749756
vt 0.86328125 0.025009155
vt 0.8378906 0.0020618439
vt 0.8613281 0.002368927
vt 0.88671875 0.025009155
vt 0.90722656 0.024749756
vt 0.8886719 0.002368927
vt 0.9121094 0.0020618439
vt 0.5864258 0.0020618439
vt 0.51904297 0.002937317
vt 0.5019531 0.041900635
vt 0.5800781 0.040893555
vt 0.6635742 0.0020618439
vt 0.61328125 0.3876953
vt 0.59277344 0.38793945
vt 0.6699219 0.040893555
vt 0.73095703 0.002937317
vt 0.7480469 0.041900635
vt 0.65722656 0.38793945
vt 0.63671875 0.3876953
vt 0.65722656 0.49536133
vt 0.63671875 0.49487305
vt 0.6621094 0.5180664
vt 0.6386719 0.5175781
vt 0.61328125 0.49487305
vt 0.59277344 0.49536133
vt 0.6113281 0.5175781
vt 0.5878906 0.5180664
vt 0.33618164 0.0020618439
vt 0.26904297 0.002937317
vt 0.25195312 0.041900635
vt 0.33007812 0.040893555
vt 0.41381836 0.0020618439
vt 0.36328125 0.3876953
vt 0.34301758 0.38793945
vt 0.41992188 0.040893555
vt 0.48095703 0.002937317
vt 0.49804688 0.041900635
vt 0.40698242 0.38793945
vt 0.38671875 0.3876953
vt 0.40698242 0.49536133
vt 0.38671875 0.49487305
vt 0.41210938 0.5180664
vt 0.38867188 0.5175781
vt 0.36328125 0.49487305
vt 0.34301758 0.49536133
vt 0.36132812 0.5175781
vt 0.33789062 0.5180664
vt 0.08618164 0.0020618439
vt 0.018966675 0.002937317
vt 0.0020618439 0.041900635
vt 0.08001709 0.040893555
vt 0.16381836 0.0020618439
vt 0.11328125 0.3876953
vt 0.09289551 0.38793945
vt 0.17004395 0.040893555
vt 0.2310791 0.002937317
vt 0.2479248 0.041900635
vt 0.15710449 0.38793945
vt 0.13671875 0.3876953
vt 0.15710449 0.49536133
vt 0.13671875 0.49487305
vt 0.16223145 0.5180664
vt 0.13867188 0.5175781
vt 0.11328125 0.49487305
vt 0.09289551 0.49536133
vt 0.11138916 0.5175781
vt 0.087768555 0.5180664
vt 0.2529297 0.56103516
vt 0.18566895 0.52197266
vt 0.10809326 0.52197266
vt 0.29174805 0.6279297
vt 0.040863037 0.56103516
vt 0.29174805 0.7055664
vt 0.0020618439 0.6279297
vt 0.2529297 0.7729492
vt 0.0020618439 0.7055664
vt 0.18566895 0.81152344
vt 0.040863037 0.7729492
vt 0.10809326 0.81152344
vt 0.18017578 0.79541016
vt 0.23815918 0.76220703
vt 0.27172852 0.70410156
vt 0.113220215 0.79541016
vt 0.27172852 0.63720703
vt 0.05517578 0.76220703
vt 0.23815918 0.57910156
vt 0.021697998 0.70410156
vt 0.18017578 0.54541016
vt 0.021697998 0.63720703
vt 0.113220215 0.54541016
vt 0.05517578 0.57910156
vt 0.29589844 0.55908203
vt 0.30737305 0.5625
vt 0.3178711 0.5439453
vt 0.3095703 0.53564453
vt 0.29589844 0.5864258
vt 0.33618164 0.5336914
vt 0.30737305 0.5834961
vt 0.3330078 0.52197266
vt 0.3095703 0.6098633
vt 0.35717773 0.5336914
vt 0.3178711 0.6015625
vt 0.36035156 0.52197266
vt 0.3330078 0.62353516
vt 0.37548828 0.5439453
vt 0.33618164 0.6123047
vt 0.38378906 0.53564453
vt 0.36035156 0.62353516
vt 0.38598633 0.5625
vt 0.35717773 0.6123047
vt 0.39746094 0.55908203
vt 0.38378906 0.6098633
vt 0.38598633 0.5834961
vt 0.37548828 0.6015625
vt 0.39746094 0.5864258
vn -0 0.5473633 -0.83691406
vn 0.27368164 0.4741211 -0.83691406
vn 0.49804688 0.86279297 -0.08807373
vn -0 0.99609375 -0.08807373
vn -0.27368164 0.4741211 -0.83691406
vn -0 0.98291016 0.18310547
vn 0.49145508 0.8515625 0.18310547
vn -0.49804688 0.86279297 -0.08807373
vn -0.4741211 0.27368164 -0.83691406
vn -0.86279297 0.49804688 -0.08807373
vn -0.8515625 0.49145508 0.18310547
vn -0.49145508 0.8515625 0.18310547
vn -0.85546875 0.49389648 -0.15673828
vn -0.49389648 0.85546875 -0.15673828
vn -0.81689453 0.4716797 0.33154297
vn -0.4716797 0.81689453 0.33154297
vn -0 0.98779297 -0.15673828
vn 0.49389648 0.85546875 -0.15673828
vn -0 0.9433594 0.33154297
vn 0.4716797 0.81689453 0.33154297
vn 0.5473633 0 -0.83691406
vn 0.4741211 -0.27368164 -0.83691406
vn 0.86279297 -0.49804688 -0.08807373
vn 0.99609375 0 -0.08807373
vn 0.4741211 0.27368164 -0.83691406
vn 0.98291016 0 0.18310547
vn 0.8515625 -0.49145508 0.18310547
vn 0.86279297 0.49804688 -0.08807373
vn 0.27368164 0.4741211 -0.83691406
vn 0.49804688 0.86279297 -0.08807373
vn 0.49145508 0.8515625 0.18310547
vn 0.8515625 0.49145508 0.18310547
vn 0.49389648 0.85546875 -0.15673828
vn 0.85546875 0.49389648 -0.15673828
vn 0.4716797 0.81689453 0.33154297
vn 0.81689453 0.4716797 0.33154297
vn 0.98779297 0 -0.15673828
vn 0.85546875 -0.49389648 -0.15673828
vn 0.9433594 0 0.33154297
vn 0.81689453 -0.4716797 0.33154297
vn -0 -0.5473633 -0.83691406
vn -0.27368164 -0.4741211 -0.83691406
vn -0.49804688 -0.86279297 -0.08807373
vn -0 -0.99609375 -0.08807373
vn 0.27368164 -0.4741211 -0.83691406
vn -0 -0.98291016 0.18310547
vn -0.49145508 -0.8515625 0.18310547
vn 0.49804688 -0.86279297 -0.08807373
vn 0.4741211 -0.27368164 -0.83691406
vn 0.86279297 -0.49804688 -0.08807373
vn 0.8515625 -0.49145508 0.18310547
vn 0.49145508 -0.8515625 0.18310547
vn 0.85546875 -0.49389648 -0.15673828
vn 0.49389648 -0.85546875 -0.15673828
vn 0.81689453 -0.4716797 0.33154297
vn 0.4716797 -0.81689453 0.33154297
vn -0 -0.98779297 -0.15673828
vn -0.49389648 -0.85546875 -0.15673828
vn -0 -0.9433594 0.33154297
vn -0.4716797 -0.81689453 0.33154297
vn -0.5473633 0 -0.83691406
vn -0.4741211 0.27368164 -0.83691406
vn -0.86279297 0.49804688 -0.08807373
vn -0.99609375 0 -0.08807373
vn -0.4741211 -0.27368164 -0.83691406
vn -0.98291016 0 0.18310547
vn -0.8515625 0.49145508 0.18310547
vn -0.86279297 -0.49804688 -0.08807373
vn -0.27368164 -0.4741211 -0.83691406
vn -0.49804688 -0.86279297 -0.08807373
vn -0.49145508 -0.8515625 0.18310547
vn -0.8515625 -0.49145508 0.18310547
vn -0.49389648 -0.85546875 -0.15673828
vn -0.85546875 -0.49389648 -0.15673828
vn -0.4716797 -0.81689453 0.33154297
vn -0.81689453 -0.4716797 0.33154297
vn -0.98779297 0 -0.15673828
vn -0.85546875 0.49389648 -0.15673828
vn -0.9433594 0 0.33154297
vn -0.81689453 0.4716797 0.33154297
vn 0.4741211 -0.27368164 -0.83691406
vn 0.5473633 0 -0.83691406
vn 0.4741211 0.27368164 -0.83691406
vn 0.27368164 -0.4741211 -0.83691406
vn 0.27368164 0.4741211 -0.83691406
vn -0 -0.5473633 -0.83691406
vn -0 0.5473633 -0.83691406
vn -0.27368164 -0.4741211 -0.83691406
vn -0.27368164 0.4741211 -0.83691406
vn -0.4741211 -0.27368164 -0.83691406
vn -0.4741211 0.27368164 -0.83691406
vn -0.5473633 0 -0.83691406
vn 0.2578125 0.14880371 0.95458984
vn 0.29760742 0 0.95458984
vn 0.2578125 -0.14880371 0.95458984
vn 0.14880371 0.2578125 0.95458984
vn 0.14880371 -0.2578125 0.95458984
vn -0 0.29760742 0.95458984
vn -0 -0.29760742 0.95458984
vn -0.14880371 0.2578125 0.95458984
vn -0.14880371 -0.2578125 0.95458984
vn -0.2578125 0.14880371 0.95458984
vn -0.2578125 -0.14880371 0.95458984
vn -0.29760742 0 0.95458984
vn -0.81689453 0.4716797 0.33154297
vn -0.2578125 0.14880371 0.95458984
vn -0.29760742 0 0.95458984
vn -0.9433594 0 0.33154297
vn -0.4716797 0.81689453 0.33154297
vn -0.2578125 -0.14880371 0.95458984
vn -0.14880371 0.2578125 0.95458984
vn -0.81689453 -0.4716797 0.33154297
vn -0 0.9433594 0.33154297
vn -0.14880371 -0.2578125 0.95458984
vn -0 0.29760742 0.95458984
vn -0.4716797 -0.81689453 0.33154297
vn 0.4716797 0.81689453 0.33154297
vn -0 -0.29760742 0.95458984
vn 0.14880371 0.2578125 0.95458984
vn -0 -0.9433594 0.33154297
vn 0.81689453 0.4716797 0.33154297
vn 0.14880371 -0.2578125 0.95458984
vn 0.2578125 0.14880371 0.95458984
vn 0.4716797 -0.81689453 0.33154297
vn 0.9433594 0 0.33154297
vn 0.2578125 -0.14880371 0.95458984
vn 0.29760742 0 0.95458984
vn 0.81689453 -0.4716797 0.33154297
g ErlenmeyerFlask_0
f 3/3/3 2/2/2 1/1/1
f 4/4/4 3/3/3 1/1/1
f 4/4/4 1/1/1 5/5/5
f 4/4/4 6/6/6 3/3/3
f 6/6/6 7/7/7 3/3/3
f 8/8/8 4/4/4 5/5/5
f 8/8/8 5/5/5 9/9/9
f 10/10/10 8/8/8 9/9/9
f 10/10/10 11/11/11 8/8/8
f 8/8/8 12/12/12 4/4/4
f 11/11/11 12/12/12 8/8/8
f 12/12/12 6/6/6 4/4/4
f 11/11/11 13/13/13 12/12/12
f 13/13/13 14/14/14 12/12/12
f 12/12/12 14/14/14 6/6/6
f 13/13/13 15/15/15 14/14/14
f 15/15/15 16/16/16 14/14/14
f 6/6/6 17/17/17 7/7/7
f 14/14/14 17/17/17 6/6/6
f 14/14/14 16/16/16 17/17/17
f 17/17/17 18/18/18 7/7/7
f 16/16/16 19/19/19 17/17/17
f 17/17/17 19/19/19 18/18/18
f 19/19/19 20/20/20 18/18/18
f 23/23/23 22/22/22 21/21/21
f 24/24/24 23/23/23 21/21/21
f 24/24/24 21/21/21 25/25/25
f 24/24/24 26/26/26 23/23/23
f 26/26/26 27/27/27 23/23/23
f 28/28/28 24/24/24 25/25/25
f 28/28/28 25/25/25 29/29/29
f 30/30/30 28/28/28 29/29/29
f 30/30/30 31/31/31 28/28/28
f 28/28/28 32/32/32 24/24/24
f 31/31/31 32/32/32 28/28/28
f 32/32/32 26/26/26 24/24/24
f 31/31/31 33/33/33 32/32/32
f 33/33/33 34/34/34 32/32/32
f 32/32/32 34/34/34 26/26/26
f 33/33/33 35/35/35 34/34/34
f 35/35/35 36/36/36 34/34/34
f 26/26/26 37/37/37 27/27/27
f 34/34/34 37/37/37 26/26/26
f 34/34/34 36/36/36 37/37/37
f 37/37/37 38/38/38 27/27/27
f 36/36/36 39/39/39 37/37/37
f 37/37/37 39/39/39 38/38/38
f 39/39/39 40/40/40 38/38/38
f 43/43/43 42/42/42 41/41/41
f 44/44/44 43/43/43 41/41/41
f 44/44/44 41/41/41 45/45/45
f 44/44/44 46/46/46 43/43/43
f 46/46/46 47/47/47 43/43/43
f 48/48/48 44/44/44 45/45/45
f 48/48/48 45/45/45 49/49/49
f 50/50/50 48/48/48 49/49/49
f 50/50/50 51/51/51 48/48/48
f 48/48/48 52/52/52 44/44/44
f 51/51/51 52/52/52 48/48/48
f 52/52/52 46/46/46 44/44/44
f 51/51/51 53/53/53 52/52/52
f 53/53/53 54/54/54 52/52/52
f 52/52/52 54/54/54 46/46/46
f 53/53/53 55/55/55 54/54/54
f 55/55/55 56/56/56 54/54/54
f 46/46/46 57/57/57 47/47/47
f 54/54/54 57/57/57 46/46/46
f 54/54/54 56/56/56 57/57/57
f 57/57/57 58/58/58 47/47/47
f 56/56/56 59/59/59 57/57/57
f 57/57/57 59/59/59 58/58/58
f 59/59/59 60/60/60 58/58/58
f 63/63/63 62/62/62 61/61/61
f 64/64/64 63/63/63 61/61/61
f 64/64/64 61/61/61 65/65/65
f 64/64/64 66/66/66 63/63/63
f 66/66/66 67/67/67 63/63/63
f 68/68/68 64/64/64 65/65/65
f 68/68/68 65/65/65 69/69/69
f 70/70/70 68/68/68 69/69/69
f 70/70/70 71/71/71 68/68/68
f 68/68/68 72/72/72 64/64/64
f 71/71/71 72/72/72 68/68/68
f 72/72/72 66/66/66 64/64/64
f 71/71/71 73/73/73 72/72/72
f 73/73/73 74/74/74 72/72/72
f 72/72/72 74/74/74 66/66/66
f 73/73/73 75/75/75 74/74/74
f 75/75/75 76/76/76 74/74/74
f 66/66/66 77/77/77 67/67/67
f 74/74/74 77/77/77 66/66/66
f 74/74/74 76/76/76 77/77/77
f 77/77/77 78/78/78 67/67/67
f 76/76/76 79/79/79 77/77/77
f 77/77/77 79/79/79 78/78/78
f 79/79/79 80/80/80 78/78/78
f 83/83/83 82/82/82 81/81/81
f 81/81/81 84/84/84 83/83/83
f 84/84/84 85/85/85 83/83/83
f 84/84/84 86/86/86 85/85/85
f 86/86/86 87/87/87 85/85/85
f 86/86/86 88/88/88 87/87/87
f 88/88/88 89/89/89 87/87/87
f 88/88/88 90/90/90 89/89/89
f 90/90/90 91/91/91 89/89/89
f 90/90/90 92/92/92 91/91/91
f 95/95/95 94/94/94 93/93/93
f 93/93/93 96/96/96 95/95/95
f 96/96/96 97/97/97 95/95/95
f 96/96/96 98/98/98 97/97/97
f 98/98/98 99/99/99 97/97/97
f 98/98/98 100/100/100 99/99/99
f 100/100/100 101/101/101 99/99/99
f 100/100/100 102/102/102 101/101/101
f 102/102/102 103/103/103 101/101/101
f 102/102/102 104/104/104 103/103/103
f 107/107/107 106/106/106 105/105/105
f 108/108/108 107/107/107 105/105/105
f 105/105/105 106/106/106 109/109/109
f 110/110/110 107/107/107 108/108/108
f 106/106/106 111/111/111 109/109/109
f 112/112/112 110/110/110 108/108/108
f 109/109/109 111/111/111 113/113/113
f 114/114/114 110/110/110 112/112/112
f 111/111/111 115/115/115 113/113/113
f 116/116/116 114/114/114 112/112/112
f 113/113/113 115/115/115 117/117/117
f 118/118/118 114/114/114 116/116/116
f 115/115/115 119/119/119 117/117/117
f 120/120/120 118/118/118 116/116/116
f 117/117/117 119/119/119 121/121/121
f 122/122/122 118/118/118 120/120/120
f 119/119/119 123/123/123 121/121/121
f 124/124/124 122/122/122 120/120/120
f 121/121/121 123/123/123 125/125/125
f 126/126/126 122/122/122 124/124/124
f 123/123/123 127/127/127 125/125/125
f 128/128/128 126/126/126 124/124/124
f 125/125/125 127/127/127 128/128/128
f 127/127/127 126/126/126 128/128/128
