g Fish
v 0.037104905 0 0.018039063
v 0.037104905 0.089420274 0.012076873
v 0.03710489 0.089420274 -0.012076862
v 0.03710489 0 -0.018039033
v 0.037104905 -0.089420274 0.012076873
v 0.03710489 -0.089420274 -0.012076862
v -0.0087410025 -0.14947003 -0.040255114
v -0.008740991 -0.14947003 0.040255126
v -0.054586895 -0.20951979 -0.04755028
v -0.054586887 -0.20951979 0.04755028
v -0.0087410025 0.14947003 -0.040255114
v -0.054586887 0.20951979 0.04755028
v -0.054586895 0.20951979 -0.04755028
v -0.008740991 0.14947003 0.04025513
v 0.03710489 0.089420274 -0.012076862
v 0.037104905 0.089420274 0.012076873
v -0.14778396 0 0.018477624
v -0.147784 0.09159421 -0.012370464
v -0.14778396 0.09159421 0.012370483
v -0.147784 0 -0.018477581
v -0.14778396 -0.09159421 0.012370483
v -0.147784 -0.09159421 -0.012370464
v -0.101185426 -0.150557 0.03876347
v -0.10118544 -0.150557 -0.038763452
v -0.054586887 -0.20951979 0.04755028
v -0.054586895 -0.20951979 -0.04755028
v -0.10118544 0.150557 -0.038763452
v -0.14778396 0.09159421 0.012370483
v -0.147784 0.09159421 -0.012370464
v -0.101185426 0.150557 0.038763475
v -0.054586895 0.20951979 -0.04755028
v -0.054586887 0.20951979 0.04755028
v 0.037104905 0 0.018039063
v 0.037104905 -0.089420274 0.012076873
v -0.008740991 -0.14947003 0.040255126
v -0.008740991 0 0.06012853
v 0.037104905 0.089420274 0.012076873
v -0.054586887 -0.20951979 0.04755028
v -0.008740991 0.14947003 0.04025513
v -0.054586887 0 0.07102519
v -0.101185426 -0.150557 0.03876347
v -0.054586887 0.20951979 0.04755028
v -0.101185426 0 0.05790046
v -0.14778396 -0.09159421 0.012370483
v -0.101185426 0.150557 0.038763475
v -0.14778396 0 0.018477624
v -0.14778396 0.09159421 0.012370483
v 0.03710489 0 -0.018039033
v 0.03710489 0.089420274 -0.012076862
v -0.0087410025 0.14947003 -0.040255114
v -0.0087410025 0 -0.06012849
v 0.03710489 -0.089420274 -0.012076862
v -0.054586895 0.20951979 -0.04755028
v -0.0087410025 -0.14947003 -0.040255114
v -0.054586895 0 -0.07102518
v -0.10118544 0.150557 -0.038763452
v -0.054586895 -0.20951979 -0.04755028
v -0.10118544 0 -0.057900418
v -0.147784 0.09159421 -0.012370464
v -0.10118544 -0.150557 -0.038763452
v -0.147784 0 -0.018477581
v -0.147784 -0.09159421 -0.012370464
v -0.054586895 -0.20951979 -0.04755028
v -0.054586887 -0.20951979 0.04755028
v -0.054586887 -0.20951979 0.0152182765
v -0.054586895 -0.20951979 -0.0152182765
v -0.054586895 -0.20951979 -0.0152182765
v -0.054586887 -0.20951979 0.0152182765
v -0.054586887 -0.30728117 0.084071815
v -0.054586895 -0.30728117 -0.084071815
v -0.054586895 -0.20951979 -0.0152182765
v -0.054586895 -0.30728117 -0.084071815
v -0.054586887 -0.30728117 0.084071815
v -0.054586887 -0.20951979 0.0152182765
vt 0.72314453 0.22680664
vt 0.72314453 0.21496582
vt 0.7270508 0.21496582
vt 0.7270508 0.22680664
vt 0.72314453 0.23852539
vt 0.7270508 0.23852539
vt 0.7319336 0.2512207
vt 0.71875 0.2512207
vt 0.73291016 0.26367188
vt 0.71728516 0.26367188
vt 0.6816406 0.5258789
vt 0.69628906 0.53808594
vt 0.6801758 0.53808594
vt 0.6948242 0.5258789
vt 0.68603516 0.5131836
vt 0.6904297 0.5131836
vt 0.7114258 0.22692871
vt 0.70751953 0.21496582
vt 0.7114258 0.21496582
vt 0.70751953 0.22692871
vt 0.7114258 0.2388916
vt 0.70751953 0.2388916
vt 0.7158203 0.2512207
vt 0.703125 0.2512207
vt 0.71728516 0.26367188
vt 0.70166016 0.26367188
vt 0.7104492 0.5253906
vt 0.70214844 0.5131836
vt 0.7060547 0.5131836
vt 0.6977539 0.5253906
vt 0.71191406 0.53808594
vt 0.69628906 0.53808594
vt 0.24975586 0.82177734
vt 0.24975586 0.8071289
vt 0.25805664 0.796875
vt 0.25805664 0.82177734
vt 0.24975586 0.8364258
vt 0.26586914 0.7871094
vt 0.25805664 0.8466797
vt 0.26586914 0.82177734
vt 0.27319336 0.796875
vt 0.26586914 0.8564453
vt 0.27319336 0.82177734
vt 0.2800293 0.8066406
vt 0.27319336 0.8466797
vt 0.2800293 0.82177734
vt 0.2800293 0.83691406
vt 0.2800293 0.82177734
vt 0.2800293 0.8071289
vt 0.2866211 0.796875
vt 0.2866211 0.82177734
vt 0.2800293 0.8364258
vt 0.2939453 0.7871094
vt 0.2866211 0.8466797
vt 0.2939453 0.82177734
vt 0.3017578 0.796875
vt 0.2939453 0.8564453
vt 0.3017578 0.82177734
vt 0.3100586 0.8066406
vt 0.3017578 0.8466797
vt 0.3100586 0.82177734
vt 0.3100586 0.83691406
vt 0.48095703 0.26635742
vt 0.48095703 0.26342773
vt 0.48095703 0.2644043
vt 0.48095703 0.26538086
vt 0.7246094 0.52978516
vt 0.7246094 0.52441406
vt 0.7373047 0.5131836
vt 0.7373047 0.5410156
vt 0.71191406 0.52441406
vt 0.7246094 0.5131836
vt 0.7246094 0.5410156
vt 0.71191406 0.52978516
vn 0.89941406 0 0.4375
vn 0.89990234 0.26220703 0.34814453
vn 0.89990234 0.26220703 -0.34814453
vn 0.89941406 0 -0.4375
vn 0.89990234 -0.26220703 0.34814453
vn 0.89990234 -0.26220703 -0.34814453
vn 0.6894531 -0.41845703 -0.5908203
vn 0.6894531 -0.41845703 0.5908203
vn 0.0020828247 -0.828125 -0.5605469
vn 0.0020828247 -0.828125 0.5605469
vn 0.6894531 0.41845703 -0.5908203
vn 0.0020828247 0.828125 0.5605469
vn 0.0020828247 0.828125 -0.5605469
vn 0.6894531 0.41845703 0.5908203
vn 0.89990234 0.26220703 -0.34814453
vn 0.89990234 0.26220703 0.34814453
vn -0.8901367 0 0.4555664
vn -0.89160156 0.2685547 -0.36401367
vn -0.89160156 0.2685547 0.36401367
vn -0.8901367 0 -0.4555664
vn -0.89160156 -0.2685547 0.36401367
vn -0.89160156 -0.2685547 -0.36401367
vn -0.6923828 -0.4255371 0.58251953
vn -0.6923828 -0.4255371 -0.58251953
vn 0.0020828247 -0.828125 0.5605469
vn 0.0020828247 -0.828125 -0.5605469
vn -0.6923828 0.4255371 -0.58251953
vn -0.89160156 0.2685547 0.36401367
vn -0.89160156 0.2685547 -0.36401367
vn -0.6923828 0.4255371 0.58251953
vn 0.0020828247 0.828125 -0.5605469
vn 0.0020828247 0.828125 0.5605469
vn 0.89941406 0 0.4375
vn 0.89990234 -0.26220703 0.34814453
vn 0.6894531 -0.41845703 0.5908203
vn 0.4580078 0 0.88916016
vn 0.89990234 0.26220703 0.34814453
vn 0.0020828247 -0.828125 0.5605469
vn 0.6894531 0.41845703 0.5908203
vn -0.014587402 0 1
vn -0.6923828 -0.4255371 0.58251953
vn 0.0020828247 0.828125 0.5605469
vn -0.45507812 0 0.890625
vn -0.89160156 -0.2685547 0.36401367
vn -0.6923828 0.4255371 0.58251953
vn -0.8901367 0 0.4555664
vn -0.89160156 0.2685547 0.36401367
vn 0.89941406 0 -0.4375
vn 0.89990234 0.26220703 -0.34814453
vn 0.6894531 0.41845703 -0.5908203
vn 0.4580078 0 -0.88916016
vn 0.89990234 -0.26220703 -0.34814453
vn 0.0020828247 0.828125 -0.5605469
vn 0.6894531 -0.41845703 -0.5908203
vn -0.014587402 0 -1
vn -0.6923828 0.4255371 -0.58251953
vn 0.0020828247 -0.828125 -0.5605469
vn -0.45507812 0 -0.890625
vn -0.89160156 0.2685547 -0.36401367
vn -0.6923828 -0.4255371 -0.58251953
vn -0.8901367 0 -0.4555664
vn -0.89160156 -0.2685547 -0.36401367
vn 0.0020828247 -0.828125 -0.5605469
vn 0.0020828247 -0.828125 0.5605469
vn -0.5708008 0.8208008 0
vn -0.5708008 0.8208008 0
vn -0.5708008 0.8208008 0
vn -0.5708008 0.8208008 0
vn -1 0 0
vn -1 0 0
vn 1 0 0
vn 1 0 0
vn 1 0 0
vn 1 0 0
g Fish_0
f 3/3/3 2/2/2 1/1/1
f 4/4/4 3/3/3 1/1/1
f 4/4/4 1/1/1 5/5/5
f 6/6/6 4/4/4 5/5/5
f 7/7/7 6/6/6 5/5/5
f 8/8/8 7/7/7 5/5/5
f 9/9/9 7/7/7 8/8/8
f 10/10/10 9/9/9 8/8/8
f 13/13/13 12/12/12 11/11/11
f 12/12/12 14/14/14 11/11/11
f 11/11/11 14/14/14 15/15/15
f 14/14/14 16/16/16 15/15/15
f 19/19/19 18/18/18 17/17/17
f 18/18/18 20/20/20 17/17/17
f 17/17/17 20/20/20 21/21/21
f 20/20/20 22/22/22 21/21/21
f 21/21/21 22/22/22 23/23/23
f 22/22/22 24/24/24 23/23/23
f 23/23/23 24/24/24 25/25/25
f 24/24/24 26/26/26 25/25/25
f 29/29/29 28/28/28 27/27/27
f 28/28/28 30/30/30 27/27/27
f 27/27/27 30/30/30 31/31/31
f 30/30/30 32/32/32 31/31/31
f 35/35/35 34/34/34 33/33/33
f 36/36/36 35/35/35 33/33/33
f 36/36/36 33/33/33 37/37/37
f 38/38/38 35/35/35 36/36/36
f 39/39/39 36/36/36 37/37/37
f 40/40/40 38/38/38 36/36/36
f 40/40/40 36/36/36 39/39/39
f 41/41/41 38/38/38 40/40/40
f 42/42/42 40/40/40 39/39/39
f 43/43/43 41/41/41 40/40/40
f 43/43/43 40/40/40 42/42/42
f 44/44/44 41/41/41 43/43/43
f 45/45/45 43/43/43 42/42/42
f 46/46/46 44/44/44 43/43/43
f 46/46/46 43/43/43 45/45/45
f 47/47/47 46/46/46 45/45/45
f 50/50/50 49/49/49 48/48/48
f 51/51/51 50/50/50 48/48/48
f 51/51/51 48/48/48 52/52/52
f 53/53/53 50/50/50 51/51/51
f 54/54/54 51/51/51 52/52/52
f 55/55/55 53/53/53 51/51/51
f 55/55/55 51/51/51 54/54/54
f 56/56/56 53/53/53 55/55/55
f 57/57/57 55/55/55 54/54/54
f 58/58/58 56/56/56 55/55/55
f 58/58/58 55/55/55 57/57/57
f 59/59/59 56/56/56 58/58/58
f 60/60/60 58/58/58 57/57/57
f 61/61/61 59/59/59 58/58/58
f 61/61/61 58/58/58 60/60/60
f 62/62/62 61/61/61 60/60/60
f 65/65/65 64/64/64 63/63/63
f 66/66/66 65/65/65 63/63/63
f 69/69/69 68/68/68 67/67/67
f 70/70/70 69/69/69 67/67/67
f 73/73/73 72/72/72 71/71/71
f 74/74/74 73/73/73 71/71/71
