g FlashPin
v -0.42176986 0.26683468 -2.7425985
v -0.20840752 0.010656297 0.12129402
v -0.09660888 -0.12357694 0.19129372
v -0.50386465 0.3654036 -2.54636
v -0.5238092 0.38935035 -2.9423275
v -0.4417144 0.29078168 -3.138566
v -0.4348724 0.2825665 -12.071927
v -0.36661953 0.20061725 -11.799671
v -0.39581138 0.2344014 -12.360108
v -0.3472891 0.17614216 -11.999453
v -0.31312454 0.14174455 -12.495429
v -0.30575502 0.13289613 -12.10621
v -0.18996513 -0.025432646 -12.690902
v -0.18709767 -0.02887541 -12.313433
v -0.50386465 0.3654036 -2.54636
v 0.049501777 0.22546047 0.12129402
v -0.20840752 0.010656297 0.12129402
v -0.24595547 0.5802075 -2.54636
v -0.26590002 0.6041545 -2.9423275
v -0.5238092 0.38935035 -2.9423275
v -0.17696321 0.49737066 -12.071927
v -0.4348724 0.2825665 -12.071927
v -0.13790214 0.44920534 -12.360108
v -0.39581138 0.2344014 -12.360108
v -0.05521536 0.3565485 -12.495429
v -0.31312454 0.14174455 -12.495429
v -0.24595547 0.5802075 -2.54636
v 0.1613003 0.091226995 0.19129372
v 0.049501777 0.22546047 0.12129402
v -0.16386068 0.4816386 -2.7425985
v -0.18380535 0.5055856 -3.138566
v -0.26590002 0.6041545 -2.9423275
v -0.10871041 0.4154212 -11.799671
v -0.17696321 0.49737066 -12.071927
v -0.08937991 0.39094633 -11.999453
v -0.13790214 0.44920534 -12.360108
v -0.04784584 0.34770006 -12.10621
v -0.05521536 0.3565485 -12.495429
v 0.07081151 0.18592852 -12.313433
v 0.06794405 0.18937153 -12.690902
v -0.16386068 0.4816386 -2.7425985
v -0.09660888 -0.12357694 0.19129372
v 0.1613003 0.091226995 0.19129372
v -0.42176986 0.26683468 -2.7425985
v -0.4417144 0.29078168 -3.138566
v -0.18380535 0.5055856 -3.138566
v -0.36661953 0.20061725 -11.799671
v -0.10871041 0.4154212 -11.799671
v -0.3472891 0.17614216 -11.999453
v -0.08937991 0.39094633 -11.999453
v -0.30575502 0.13289613 -12.10621
v -0.04784584 0.34770006 -12.10621
v -0.18709767 -0.02887541 -12.313433
v 0.07081151 0.18592852 -12.313433
v -0.18996513 -0.025432646 -12.690902
v 0.06794405 0.18937153 -12.690902
v 0.049501777 0.22546047 0.12129402
v 0.1613003 0.091226995 0.19129372
v -0.09660888 -0.12357694 0.19129372
v -0.20840752 0.010656297 0.12129402
v -0.31312454 0.14174455 -12.495429
v -0.18996513 -0.025432646 -12.690902
v 0.06794405 0.18937153 -12.690902
v -0.05521536 0.3565485 -12.495429
vt 0.4169922 0.6279297
vt 0.43603516 0.80810547
vt 0.44677734 0.8125
vt 0.4086914 0.6401367
vt 0.40698242 0.6152344
vt 0.4152832 0.60302734
vt 0.42163086 0.042144775
vt 0.42822266 0.059326172
vt 0.42578125 0.024093628
vt 0.43041992 0.046783447
vt 0.43359375 0.015686035
vt 0.43408203 0.040130615
vt 0.44677734 0.003545761
vt 0.44677734 0.027252197
vt 0.52978516 0.17126465
vt 0.55078125 0.0035514832
vt 0.52978516 0.003545761
vt 0.55126953 0.17126465
vt 0.55126953 0.19616699
vt 0.52978516 0.19616699
vt 0.55078125 0.76953125
vt 0.52978516 0.76904297
vt 0.55078125 0.7871094
vt 0.52978516 0.7871094
vt 0.55126953 0.79589844
vt 0.52978516 0.79589844
vt 0.4555664 0.17578125
vt 0.49365234 0.003545761
vt 0.48291016 0.008056641
vt 0.4638672 0.18811035
vt 0.4621582 0.2130127
vt 0.45385742 0.2006836
vt 0.47509766 0.75683594
vt 0.46875 0.7739258
vt 0.47729492 0.76904297
vt 0.47265625 0.7919922
vt 0.48120117 0.7758789
vt 0.4807129 0.80029297
vt 0.49365234 0.7885742
vt 0.49365234 0.8125
vt 0.50146484 0.18774414
vt 0.52246094 0.00356102
vt 0.50146484 0.003545761
vt 0.52246094 0.18786621
vt 0.52246094 0.21264648
vt 0.50146484 0.21264648
vt 0.52197266 0.75634766
vt 0.50097656 0.75634766
vt 0.52197266 0.76904297
vt 0.50097656 0.76904297
vt 0.52197266 0.7758789
vt 0.50097656 0.7758789
vt 0.52246094 0.7885742
vt 0.50146484 0.7885742
vt 0.52246094 0.8125
vt 0.50146484 0.8125
vt 0.7084961 0.31567383
vt 0.71972656 0.3154297
vt 0.71972656 0.2944336
vt 0.7084961 0.29467773
vt 0.6977539 0.5126953
vt 0.7114258 0.5131836
vt 0.7114258 0.4921875
vt 0.6977539 0.49145508
vn -0.7685547 -0.6401367 0
vn -0.7685547 -0.6401367 0
vn -0.7685547 -0.6401367 0
vn -0.7685547 -0.6401367 0
vn -0.7685547 -0.6401367 0
vn -0.7685547 -0.6401367 0
vn -0.77246094 -0.6352539 0.0017337799
vn -0.76904297 -0.63916016 0.00032138824
vn -0.7470703 -0.6645508 -0.003583908
vn -0.76660156 -0.64208984 0.0006313324
vn -0.79003906 -0.61328125 -0.00024437904
vn -0.7578125 -0.65283203 -0.0032691956
vn -0.8051758 -0.5932617 0.0012369156
vn -0.8051758 -0.5932617 0.0012369156
vn -0.6347656 0.76220703 0.12463379
vn -0.6303711 0.7573242 0.17053223
vn -0.6303711 0.7573242 0.17053223
vn -0.6347656 0.76220703 0.12463379
vn -0.63964844 0.7680664 0.03164673
vn -0.63964844 0.7680664 0.03164673
vn -0.6357422 0.7636719 -0.113220215
vn -0.6357422 0.7636719 -0.11340332
vn -0.5678711 0.6821289 -0.46069336
vn -0.56884766 0.68310547 -0.45751953
vn -0.45581055 0.5473633 -0.70214844
vn -0.4555664 0.546875 -0.70214844
vn 0.7685547 0.6401367 0
vn 0.7685547 0.6401367 0
vn 0.7685547 0.6401367 0
vn 0.7685547 0.6401367 0
vn 0.7685547 0.6401367 0
vn 0.7685547 0.6401367 0
vn 0.76904297 0.63916016 -0.00032114983
vn 0.77246094 0.6352539 -0.0017337799
vn 0.76660156 0.64208984 -0.0006313324
vn 0.7470703 0.6645508 0.003583908
vn 0.7578125 0.65283203 0.0032691956
vn 0.79003906 0.61328125 0.00024461746
vn 0.8051758 0.5932617 -0.0012369156
vn 0.8051758 0.5932617 -0.0012369156
vn 0.6347656 -0.76220703 -0.124694824
vn 0.6303711 -0.7573242 -0.1706543
vn 0.6303711 -0.7573242 -0.1706543
vn 0.6347656 -0.76220703 -0.124694824
vn 0.63964844 -0.7680664 -0.03250122
vn 0.63964844 -0.7680664 -0.03250122
vn 0.6376953 -0.765625 0.08416748
vn 0.6376953 -0.765625 0.083984375
vn 0.60546875 -0.7265625 0.32495117
vn 0.6044922 -0.72558594 0.32836914
vn 0.5131836 -0.61621094 0.59716797
vn 0.5136719 -0.6166992 0.5966797
vn 0.5961914 -0.7158203 0.36401367
vn 0.5932617 -0.71240234 0.37426758
vn 0.6401367 -0.7685547 -0.011871338
vn 0.6401367 -0.7685547 -0.011871338
vn -0.23803711 0.28588867 0.92822266
vn -0.23803711 0.28588867 0.92822266
vn -0.23803711 0.28588867 0.92822266
vn -0.23803711 0.28588867 0.92822266
vn -0.4555664 0.546875 -0.70214844
vn -0.43896484 0.52734375 -0.72753906
vn -0.43896484 0.52734375 -0.72753906
vn -0.45581055 0.5473633 -0.70214844
g FlashPin_0
f 3/3/3 2/2/2 1/1/1
f 2/2/2 4/4/4 1/1/1
f 4/4/4 5/5/5 1/1/1
f 5/5/5 6/6/6 1/1/1
f 5/5/5 7/7/7 6/6/6
f 7/7/7 8/8/8 6/6/6
f 7/7/7 9/9/9 8/8/8
f 9/9/9 10/10/10 8/8/8
f 9/9/9 11/11/11 10/10/10
f 11/11/11 12/12/12 10/10/10
f 11/11/11 13/13/13 12/12/12
f 13/13/13 14/14/14 12/12/12
f 17/17/17 16/16/16 15/15/15
f 16/16/16 18/18/18 15/15/15
f 18/18/18 19/19/19 15/15/15
f 19/19/19 20/20/20 15/15/15
f 19/19/19 21/21/21 20/20/20
f 21/21/21 22/22/22 20/20/20
f 21/21/21 23/23/23 22/22/22
f 23/23/23 24/24/24 22/22/22
f 23/23/23 25/25/25 24/24/24
f 25/25/25 26/26/26 24/24/24
f 29/29/29 28/28/28 27/27/27
f 28/28/28 30/30/30 27/27/27
f 30/30/30 31/31/31 27/27/27
f 31/31/31 32/32/32 27/27/27
f 31/31/31 33/33/33 32/32/32
f 33/33/33 34/34/34 32/32/32
f 33/33/33 35/35/35 34/34/34
f 35/35/35 36/36/36 34/34/34
f 35/35/35 37/37/37 36/36/36
f 37/37/37 38/38/38 36/36/36
f 37/37/37 39/39/39 38/38/38
f 39/39/39 40/40/40 38/38/38
f 43/43/43 42/42/42 41/41/41
f 42/42/42 44/44/44 41/41/41
f 44/44/44 45/45/45 41/41/41
f 45/45/45 46/46/46 41/41/41
f 45/45/45 47/47/47 46/46/46
f 47/47/47 48/48/48 46/46/46
f 47/47/47 49/49/49 48/48/48
f 49/49/49 50/50/50 48/48/48
f 49/49/49 51/51/51 50/50/50
f 51/51/51 52/52/52 50/50/50
f 51/51/51 53/53/53 52/52/52
f 53/53/53 54/54/54 52/52/52
f 54/54/54 53/53/53 55/55/55
f 56/56/56 54/54/54 55/55/55
f 59/59/59 58/58/58 57/57/57
f 60/60/60 59/59/59 57/57/57
f 63/63/63 62/62/62 61/61/61
f 64/64/64 63/63/63 61/61/61
