g GeneratorBox
v -0.9879328 -3.2493832 0.8263007
v -0.9879328 1.5828631 0.8263007
v -0.9879328 1.5828631 1
v -0.9879328 -3.2493832 1
v -0.9879328 1.5828631 0.8263007
v 1.7533147 1.5828631 0.8263007
v 1.7533147 1.5828631 1
v -0.9879328 1.5828631 1
v 1.7533147 1.5828631 0.8263007
v 1.7533147 -3.2493832 0.8263007
v 1.7533147 -3.2493832 1
v 1.7533147 1.5828631 1
v 1.7533147 -3.2493832 0.8263007
v -0.9879328 -3.2493832 0.8263007
v -0.9879328 -3.2493832 1
v 1.7533147 -3.2493832 1
v -0.9879328 1.5828631 0.8263007
v -1.0827981 1.7500908 0.83087456
v 1.84818 1.7500908 0.83087456
v 1.7533147 1.5828631 0.8263007
v 1.7533147 1.5828631 1
v 1.7533147 -3.2493832 1
v -0.9879328 -3.2493832 1
v -0.9879328 1.5828631 1
v -1.0263048 -3.3170252 -0.32084453
v -1.123826 -3.4889345 -0.32554644
v 1.889208 -3.4889345 -0.32554644
v 1.7916868 -3.3170252 -0.32084453
v -1.0263048 1.6505051 -0.32084453
v 1.7916868 1.6505051 -0.32084453
v -1.123826 1.8224144 -0.32554644
v 1.889208 1.8224144 -0.32554644
v 1.7533147 -3.2493832 0.8263007
v 1.84818 -3.416611 0.83087456
v -1.0827981 -3.416611 0.83087456
v -0.9879328 -3.2493832 0.8263007
v -1.0263048 1.6505051 -0.32084453
v -1.123826 1.8224144 -0.32554644
v -1.123826 -3.4889345 -0.32554644
v -1.0263048 -3.3170252 -0.32084453
v 1.84818 -3.416611 0.83087456
v 1.889208 -3.4889345 -0.32554644
v -1.123826 -3.4889345 -0.32554644
v -1.0827981 -3.416611 0.83087456
v -1.0827981 1.7500908 0.83087456
v -1.123826 1.8224144 -0.32554644
v 1.889208 1.8224144 -0.32554644
v 1.84818 1.7500908 0.83087456
v -1.0827981 -3.416611 0.83087456
v -1.123826 -3.4889345 -0.32554644
v -1.123826 1.8224144 -0.32554644
v -1.0827981 1.7500908 0.83087456
v 1.84818 1.7500908 0.83087456
v 1.889208 1.8224144 -0.32554644
v 1.889208 -3.4889345 -0.32554644
v 1.84818 -3.416611 0.83087456
v -0.9879328 -3.2493832 0.8263007
v -1.0827981 -3.416611 0.83087456
v -1.0827981 1.7500908 0.83087456
v -0.9879328 1.5828631 0.8263007
v 1.7533147 1.5828631 0.8263007
v 1.84818 1.7500908 0.83087456
v 1.84818 -3.416611 0.83087456
v 1.7533147 -3.2493832 0.8263007
v 1.7916868 -3.3170252 -0.32084453
v 1.889208 -3.4889345 -0.32554644
v 1.889208 1.8224144 -0.32554644
v 1.7916868 1.6505051 -0.32084453
vt 0.7342885 0.95276797
vt 0.7342885 0.47638392
vt 0.71716714 0.47638392
vt 0.71716714 0.95276797
vt 0.75140417 0.74662817
vt 0.75140417 0.47638392
vt 0.73428845 0.47638392
vt 0.73428845 0.74662817
vt 0.7171671 0.95276785
vt 0.7171671 0.47638392
vt 0.7000457 0.47638392
vt 0.7000457 0.95276785
vt 0.7685199 0.7466283
vt 0.7685199 0.47638404
vt 0.75140417 0.47638404
vt 0.75140417 0.7466283
vt 0.57663465 0.016486049
vt 0.585987 0
vt 0.2970382 0
vt 0.30639052 0.016486049
vt 0.58598685 0
vt 0.58598685 0.47638404
vt 0.856231 0.47638404
vt 0.8562311 0
vt 0.00961411 0.50666845
vt 0 0.5236161
vt 0.29703808 0.5236162
vt 0.2874241 0.50666845
vt 0.00961411 0.016947627
vt 0.2874241 0.016947627
vt 0 0
vt 0.29703814 0
vt 0.3063904 0.4928701
vt 0.2970382 0.50935614
vt 0.58598685 0.50935614
vt 0.57663465 0.4928701
vt 0.00961411 0.016947627
vt 0 0
vt 0 0.5236161
vt 0.00961411 0.50666845
vt 0.52538234 0.5134008
vt 0.41121024 0.50935614
vt 0.41121024 0.8063942
vt 0.52538234 0.80234957
vt 0.41121027 0.5134008
vt 0.29703817 0.50935614
vt 0.29703817 0.8063942
vt 0.41121027 0.80234957
vt 0.58598685 0.99287
vt 0.7000457 1
vt 0.7000457 0.47638392
vt 0.58598685 0.48351395
vt 0.85623115 0.51648617
vt 0.97029 0.5236161
vt 0.97029 0
vt 0.85623115 0.0071299076
vt 0.57663465 0.4928701
vt 0.58598685 0.50935614
vt 0.585987 0
vt 0.57663465 0.016486049
vt 0.30639052 0.016486049
vt 0.2970382 0
vt 0.2970382 0.50935614
vt 0.3063904 0.4928701
vt 0.2874241 0.50666845
vt 0.29703808 0.5236162
vt 0.29703814 0
vt 0.2874241 0.016947627
vn -1 0 0
vn -1 0 0
vn -1 0 0
vn -1 0 0
vn -0 1 0
vn -0 1 0
vn -0 1 0
vn -0 1 0
vn 1 0 0
vn 1 0 0
vn 1 0 0
vn 1 0 0
vn -0 -1 0
vn -0 -1 0
vn -0 -1 0
vn -0 -1 0
vn -0 -0.027340999 0.99962616
vn -0 -0.027340999 0.99962616
vn -0 -0.027340999 0.99962616
vn -0 -0.027340999 0.99962616
vn -0 0 1
vn -0 0 1
vn -0 0 1
vn -0 0 1
vn -0 0 -1
vn -0 0.02734091 -0.99962616
vn -0 0.02734091 -0.99962616
vn -0 0 -1
vn -0 0 -1
vn -0 0 -1
vn -0 -0.02734091 -0.99962616
vn -0 -0.02734091 -0.99962616
vn -0 0.027340999 0.99962616
vn -0 0.027340999 0.99962616
vn -0 0.027340999 0.99962616
vn -0 0.027340999 0.99962616
vn 0.048158005 0 -0.9988398
vn 0.048158005 0 -0.9988398
vn 0.048158005 0 -0.9988398
vn 0.048158005 0 -0.9988398
vn -0 -0.9980501 0.062418837
vn -0 -0.9980501 0.062418837
vn -0 -0.9980501 0.062418837
vn -0 -0.9980501 0.062418837
vn -0 0.9980501 0.062418837
vn -0 0.9980501 0.062418837
vn -0 0.9980501 0.062418837
vn -0 0.9980501 0.062418837
vn -0.99937123 0 0.03545604
vn -0.99937123 0 0.03545604
vn -0.99937123 0 0.03545604
vn -0.99937123 0 0.03545604
vn 0.99937123 0 0.03545604
vn 0.99937123 0 0.03545604
vn 0.99937123 0 0.03545604
vn 0.99937123 0 0.03545604
vn 0.04815895 0 0.9988397
vn 0.04815895 0 0.9988397
vn 0.04815895 0 0.9988397
vn 0.04815895 0 0.9988397
vn -0.04815895 0 0.9988397
vn -0.04815895 0 0.9988397
vn -0.04815895 0 0.9988397
vn -0.04815895 0 0.9988397
vn -0.048158005 0 -0.9988398
vn -0.048158005 0 -0.9988398
vn -0.048158005 0 -0.9988398
vn -0.048158005 0 -0.9988398
g GeneratorBox_0
f 3/3/3 2/2/2 1/1/1
f 4/4/4 3/3/3 1/1/1
f 7/7/7 6/6/6 5/5/5
f 8/8/8 7/7/7 5/5/5
f 11/11/11 10/10/10 9/9/9
f 12/12/12 11/11/11 9/9/9
f 15/15/15 14/14/14 13/13/13
f 16/16/16 15/15/15 13/13/13
f 19/19/19 18/18/18 17/17/17
f 20/20/20 19/19/19 17/17/17
f 23/23/23 22/22/22 21/21/21
f 24/24/24 23/23/23 21/21/21
f 27/27/27 26/26/26 25/25/25
f 28/28/28 27/27/27 25/25/25
f 28/28/28 25/25/25 29/29/29
f 30/30/30 28/28/28 29/29/29
f 29/29/29 31/31/31 30/30/30
f 31/31/31 32/32/32 30/30/30
f 35/35/35 34/34/34 33/33/33
f 36/36/36 35/35/35 33/33/33
f 39/39/39 38/38/38 37/37/37
f 40/40/40 39/39/39 37/37/37
f 43/43/43 42/42/42 41/41/41
f 44/44/44 43/43/43 41/41/41
f 47/47/47 46/46/46 45/45/45
f 48/48/48 47/47/47 45/45/45
f 51/51/51 50/50/50 49/49/49
f 52/52/52 51/51/51 49/49/49
f 55/55/55 54/54/54 53/53/53
f 56/56/56 55/55/55 53/53/53
f 59/59/59 58/58/58 57/57/57
f 60/60/60 59/59/59 57/57/57
f 63/63/63 62/62/62 61/61/61
f 64/64/64 63/63/63 61/61/61
f 67/67/67 66/66/66 65/65/65
f 68/68/68 67/67/67 65/65/65
