g Girder1.001
v -3.6441982 0.3828106 4.2339497
v 9.284349 0.3828106 4.2339497
v 9.284349 -0.64468 4.2339497
v 9.284349 -6.039885 4.2339497
v 9.284349 -10.538359 4.2339497
v -3.6441982 -10.538359 4.2339497
v 9.284349 0.3828106 -0.7379954
v 9.284349 -0.64468 -0.7379954
v -3.6441982 -0.64468 -0.7379954
v -3.6441982 0.3828106 -0.7379954
v 9.284349 0.3828106 -0.7379954
v 9.284349 0.33884025 -0.7754271
v 9.284349 -0.6007097 -0.7754271
v 9.284349 -0.64468 -0.7379954
v 9.284349 0.33884025 -0.7754271
v -1.9119785 0.33884025 -0.7754271
v -1.9119785 -0.6007097 -0.7754271
v 9.284349 -0.6007097 -0.7754271
v -3.6441982 0.3828106 -0.73799515
v -3.6441982 -0.64468 -0.73799515
v 9.284349 -0.64468 -0.73799515
v 9.284349 0.3828106 -0.73799515
v -3.6441982 0.3828106 4.2339497
v -3.6441982 0.3828106 -0.73799515
v 9.284349 0.3828106 -0.73799515
v 9.284349 0.3828106 3.0497594
v 9.284349 0.3828106 4.2339497
v 9.284349 -0.64468 3.032819
v 9.215385 -0.59150404 3.014014
v 9.215385 -0.59150404 -0.7146349
v 9.284349 -0.64468 -0.73799515
v 9.284349 -0.64468 -0.73799515
v -3.6441982 -0.64468 -0.73799515
v -3.6441982 -0.64468 3.032819
v 9.284349 -0.64468 3.032819
v 9.215385 -0.59150404 -0.7146349
v 7.3332787 -0.47419554 -0.69859314
v 7.3332787 0.21232617 -0.69859314
v 9.215385 0.3296346 -0.7146349
v 9.284349 -0.64468 -0.73799515
v 9.215385 -0.59150404 -0.7146349
v 9.215385 0.3296346 -0.7146349
v 9.284349 0.3828106 -0.73799515
v 9.284349 0.3828106 3.0497594
v 9.215385 0.3296346 3.014014
v 9.215385 -0.59150404 3.014014
v 9.284349 -0.64468 3.032819
v 9.284349 0.3828106 -0.73799515
v 9.215385 0.3296346 -0.7146349
v 9.215385 0.3296346 3.014014
v 9.284349 0.3828106 3.0497594
v -1.4301918 0.3296346 -0.7146349
v -1.4301918 -0.59150404 -0.7146349
v -1.4301918 -0.59150404 3.014014
v -1.4301918 0.3296346 3.014014
v 9.215385 0.3296346 3.014014
v -1.4301918 0.3296346 3.014014
v -1.4301918 -0.59150404 3.014014
v 9.215385 -0.59150404 3.014014
v 9.215385 0.3296346 -0.7146349
v -1.4301918 0.3296346 -0.7146349
v -1.4301918 0.3296346 3.014014
v 9.215385 0.3296346 3.014014
v 9.215385 -0.59150404 3.014014
v -1.4301918 -0.59150404 3.014014
v -1.4301918 -0.59150404 -0.7146349
v 9.215385 -0.59150404 -0.7146349
v 9.284349 0.33884025 3.0725
v -1.9119785 0.33884025 3.0725
v -1.9119785 0.33884025 4.177781
v 9.284349 0.33884025 4.177781
v -3.3709145 -0.6472008 1.571786
v 8.8779545 -0.6472008 1.571786
v 8.8779545 -0.60693884 1.6110412
v -2.3064847 -0.60693884 1.6110412
v -3.3236337 -0.60693884 1.6110412
v -1.9119785 -0.6007097 3.0725
v -1.9119785 -0.6007097 4.177781
v -1.9119785 0.33884025 4.177781
v -1.9119785 0.33884025 3.0725
v 9.284349 0.33884025 4.177781
v -1.9119785 0.33884025 4.177781
v -1.9119785 -0.6007097 4.177781
v 9.284349 -0.6007097 4.177781
v 9.284349 -0.6007097 4.177781
v -1.9119785 -0.6007097 4.177781
v -1.9119785 -0.6007097 3.0725
v 9.284349 -0.6007097 3.0725
v 9.284349 -0.6007097 3.0725
v -1.9119785 -0.6007097 3.0725
v -1.9119785 0.33884025 3.0725
v 9.284349 0.33884025 3.0725
v 7.3332787 0.21232617 -0.69859314
v 7.195592 0.19876933 -0.6589894
v 0.5896027 0.19876933 -0.6589894
v 0.4519155 0.21232617 -0.69859314
v 9.215385 0.3296346 -0.7146349
v 7.3332787 0.21232617 -0.69859314
v 0.4519155 0.21232617 -0.69859314
v -1.4301918 0.3296346 -0.7146349
v -1.4301918 -0.59150404 -0.7146349
v 0.4519155 -0.47419554 -0.69859314
v 7.3332787 -0.47419554 -0.69859314
v 9.215385 -0.59150404 -0.7146349
v -1.4301918 0.3296346 -0.7146349
v 0.4519155 0.21232617 -0.69859314
v 0.4519155 -0.47419554 -0.69859314
v -1.4301918 -0.59150404 -0.7146349
v 7.195592 -0.46063876 -0.6589894
v 0.5896027 -0.46063876 -0.6589894
v 0.5896027 0.19876933 -0.6589894
v 7.195592 0.19876933 -0.6589894
v 7.3332787 -0.47419554 -0.69859314
v 7.195592 -0.46063876 -0.6589894
v 7.195592 0.19876933 -0.6589894
v 7.3332787 0.21232617 -0.69859314
v 0.4519155 -0.47419554 -0.69859314
v 0.5896027 -0.46063876 -0.6589894
v 7.195592 -0.46063876 -0.6589894
v 7.3332787 -0.47419554 -0.69859314
v 0.4519155 0.21232617 -0.69859314
v 0.5896027 0.19876933 -0.6589894
v 0.5896027 -0.46063876 -0.6589894
v 0.4519155 -0.47419554 -0.69859314
v -3.6441982 0.3828106 4.2339497
v -3.6441982 -10.538359 4.2339497
v -3.6441982 -10.538359 3.032819
v -3.6441982 -0.64468 3.032819
v -3.6441982 -0.64468 -0.73799515
v -3.6441982 0.3828106 -0.73799515
v 9.284349 -5.9947186 3.09369
v -2.3347793 -5.9947186 3.09369
v -2.3347793 -0.68702674 3.09369
v 9.284349 -0.68702674 3.09369
v -3.6441982 -10.538359 3.032819
v 9.284349 -10.538359 3.032819
v 9.284349 -6.039885 3.032819
v 9.284349 -0.64468 3.032819
v -3.6441982 -0.64468 3.032819
v -2.3347793 -0.68702674 3.09369
v -2.3347793 -5.9947186 3.09369
v -2.3347793 -5.9947186 4.171282
v -2.3347793 -0.68702674 4.171282
v 9.284349 -5.9947186 4.171282
v -2.3347793 -5.9947186 4.171282
v -2.3347793 -5.9947186 3.09369
v 9.284349 -5.9947186 3.09369
v 9.284349 -0.68702674 4.171282
v -2.3347793 -0.68702674 4.171282
v -2.3347793 -5.9947186 4.171282
v 9.284349 -5.9947186 4.171282
v 9.284349 -0.68702674 3.09369
v -2.3347793 -0.68702674 3.09369
v -2.3347793 -0.68702674 4.171282
v 9.284349 -0.68702674 4.171282
v -3.9989216 -5.8998814 2.8330755
v -3.9989216 -5.8436675 2.8336365
v -3.9989216 -5.8779263 4.3241887
v -3.9989216 -5.93414 4.3236275
v -3.9989216 -5.8436675 2.8336365
v 10.455565 -5.8436675 2.8336365
v 10.455565 -5.8779263 4.3241887
v -3.9989216 -5.8779263 4.3241887
v 10.455565 -5.8436675 2.8336365
v 10.455565 -5.8998814 2.8330755
v 10.455565 -5.93414 4.3236275
v 10.455565 -5.8779263 4.3241887
v 10.455565 -5.8998814 2.8330755
v -3.9989216 -5.8998814 2.8330755
v -3.9989216 -5.93414 4.3236275
v 10.455565 -5.93414 4.3236275
v -3.9989216 -5.8436675 2.8336365
v -3.9989216 -5.8998814 2.8330755
v 10.455565 -5.8998814 2.8330755
v 10.455565 -5.8436675 2.8336365
v 10.455565 -5.8779263 4.3241887
v 10.455565 -5.93414 4.3236275
v -3.9989216 -5.93414 4.3236275
v -3.9989216 -5.8779263 4.3241887
v -3.6441982 -10.538359 3.032819
v -3.6441982 -10.538359 4.2339497
v 9.284349 -10.538359 4.2339497
v 9.284349 -10.538359 3.032819
v 9.284349 -10.4902 3.0758362
v -1.5450907 -10.4902 3.0758362
v -1.5450907 -6.0880437 3.0758362
v 9.284349 -6.0880437 3.0758362
v -1.5450907 -6.0880437 3.0758362
v -1.5450907 -10.4902 3.0758362
v -1.5450907 -10.4902 4.1909328
v -1.5450907 -6.0880437 4.1909328
v 9.284349 -6.0880437 3.0758362
v -1.5450907 -6.0880437 3.0758362
v -1.5450907 -6.0880437 4.1909328
v 9.284349 -6.0880437 4.1909328
v 9.284349 -6.0880437 4.1909328
v -1.5450907 -6.0880437 4.1909328
v -1.5450907 -10.4902 4.1909328
v 9.284349 -10.4902 4.1909328
v 9.284349 -10.4902 4.1909328
v -1.5450907 -10.4902 4.1909328
v -1.5450907 -10.4902 3.0758362
v 9.284349 -10.4902 3.0758362
v -3.3709145 -0.6472008 1.571786
v -3.3236337 -0.60693884 1.6110412
v -3.3236337 -1.938519 3.0795274
v -3.3709145 -1.985553 3.048709
v -2.3064847 -0.60693884 1.6110412
v 8.8779545 -0.60693884 1.6110412
v 8.8779545 -1.938519 3.0795274
v -2.3064847 -1.938519 3.0795274
v 8.8779545 -0.60693884 1.6110412
v 8.8779545 -0.6472008 1.571786
v 8.8779545 -1.985553 3.048709
v 8.8779545 -1.938519 3.0795274
v -2.3064847 -1.938519 3.0795274
v 8.8779545 -1.938519 3.0795274
v 8.8779545 -1.985553 3.048709
v -3.3709145 -1.985553 3.048709
v -3.3236337 -1.938519 3.0795274
v -2.3064847 -1.938519 3.0795274
v -2.3064847 -0.67711717 3.0640895
v -2.3064847 -0.6028113 3.045882
v -2.3064847 -0.60693884 1.6110412
v -3.3236337 -0.6028113 3.045882
v -2.3064847 -0.6028113 3.045882
v -2.3064847 -0.67711717 3.0640895
v -3.3236337 -0.67711717 3.0640895
v -2.3064847 -0.60693884 1.6110412
v -2.3064847 -0.6028113 3.045882
v -3.3236337 -0.6028113 3.045882
v -3.3236337 -0.60693884 1.6110412
v -3.3236337 -1.938519 3.0795274
v -3.3236337 -0.67711717 3.0640895
v -2.3064847 -0.67711717 3.0640895
v -2.3064847 -1.938519 3.0795274
v -3.3236337 -0.60693884 1.6110412
v -3.3236337 -0.6028113 3.045882
v -3.3236337 -0.67711717 3.0640895
v -3.3236337 -1.938519 3.0795274
v 8.8779545 -0.6472008 1.571786
v -3.3709145 -0.6472008 1.571786
v -3.3709145 -1.985553 3.048709
v 8.8779545 -1.985553 3.048709
v 9.284349 -0.6007097 3.0725
v 9.284349 0.33884025 3.0725
v 9.284349 0.3828106 3.0497594
v 9.284349 0.33884025 4.177781
v 9.284349 0.3828106 4.2339497
v 9.284349 -0.6007097 4.177781
v 9.284349 -0.64468 4.2339497
v 9.284349 -0.64468 3.032819
v 9.284349 -0.68702674 4.171282
v 9.284349 -5.9947186 4.171282
v 9.284349 -0.68702674 3.09369
v 9.284349 -6.039885 4.2339497
v 9.284349 -5.9947186 3.09369
v 9.284349 -6.039885 3.032819
v 9.284349 -6.0880437 4.1909328
v 9.284349 -10.4902 4.1909328
v 9.284349 -6.0880437 3.0758362
v 9.284349 -10.538359 4.2339497
v 9.284349 -10.538359 3.032819
v 9.284349 -10.4902 3.0758362
vt 0.24084473 0.30200195
vt 0.24084473 6.4611435E-05
vt 0.21813965 5.853176E-05
vt 0.09918213 2.6583672E-05
vt 0 0
vt 5.9604645E-08 0.30200195
vt 0.23718262 0.6040039
vt 0.21447754 0.6040039
vt 0.21447754 0.90625
vt 0.23718262 0.90625
vt 0.45898438 0.83496094
vt 0.45996094 0.8359375
vt 0.4807129 0.8359375
vt 0.48168945 0.83496094
vt 0.9794922 0.5883789
vt 0.9794922 0.8496094
vt 1 0.8496094
vt 1 0.5883789
vt 0.78027344 0.9057617
vt 0.8027344 0.9057617
vt 0.8027344 0.6040039
vt 0.78027344 0.6044922
vt 0.61328125 0.6040039
vt 0.72265625 0.6040039
vt 0.72265625 0.30200195
vt 0.63916016 0.30200195
vt 0.61328125 0.30200195
vt 0.8339844 0.25048828
vt 0.8334961 0.2487793
vt 0.75146484 0.2487793
vt 0.75097656 0.25048828
vt 0.72265625 0.30200195
vt 0.72265625 0.6040039
vt 0.80566406 0.6040039
vt 0.80566406 0.30200195
vt 0.93896484 0.55078125
vt 0.93652344 0.50683594
vt 0.9213867 0.50683594
vt 0.91845703 0.55078125
vt 0.9399414 0.5522461
vt 0.93896484 0.55078125
vt 0.91845703 0.55078125
vt 0.91748047 0.5522461
vt 0.95947266 0.25
vt 0.9580078 0.24841309
vt 0.9379883 0.24841309
vt 0.93652344 0.25
vt 0.69677734 0.8544922
vt 0.69628906 0.85302734
vt 0.6142578 0.85302734
vt 0.61328125 0.8544922
vt 0.09710693 0.94189453
vt 0.11743164 0.94189453
vt 0.11743164 0.8544922
vt 0.09710693 0.8544922
vt 0.9580078 0.24841309
vt 0.9580078 0
vt 0.9375 1.8775463E-05
vt 0.9379883 0.24841309
vt 0.69628906 0.85302734
vt 0.69628906 0.6040039
vt 0.6142578 0.6040039
vt 0.6142578 0.85302734
vt 0.8334961 0.2487793
vt 0.8334961 0
vt 0.75146484 0
vt 0.75146484 0.2487793
vt 0.8876953 0
vt 0.8876953 0.26171875
vt 0.9121094 0.26171875
vt 0.9121094 0
vt 0.61083984 0.8496094
vt 0.61083984 0.56396484
vt 0.61035156 0.56396484
vt 0.61035156 0.82470703
vt 0.61035156 0.8486328
vt 0.5024414 0.26171875
vt 0.5024414 0.28735352
vt 0.5229492 0.28735352
vt 0.5229492 0.26171875
vt 0.9628906 0.3022461
vt 0.9628906 0.56347656
vt 0.98339844 0.56347656
vt 0.98339844 0.30200195
vt 0.8886719 0.5883789
vt 0.8886719 0.85009766
vt 0.91308594 0.85009766
vt 0.91308594 0.5883789
vt 0.95947266 0
vt 0.95947266 0.2614746
vt 0.97998047 0.2614746
vt 0.97998047 5.6028366E-06
vt 0.61279297 0.56396484
vt 0.6118164 0.56689453
vt 0.6118164 0.7211914
vt 0.61279297 0.7246094
vt 0.91845703 0.55078125
vt 0.9213867 0.50683594
vt 0.9213867 0.3461914
vt 0.91845703 0.30200195
vt 0.93896484 0.30200195
vt 0.93652344 0.3461914
vt 0.93652344 0.50683594
vt 0.93896484 0.55078125
vt 0.91845703 0.30200195
vt 0.9213867 0.3461914
vt 0.93652344 0.3461914
vt 0.93896484 0.30200195
vt 0.93603516 0.50341797
vt 0.93603516 0.34936523
vt 0.9213867 0.34936523
vt 0.9213867 0.50341797
vt 0.93652344 0.50683594
vt 0.93603516 0.50341797
vt 0.9213867 0.50341797
vt 0.9213867 0.50683594
vt 0.4494629 0.6040039
vt 0.44848633 0.6069336
vt 0.44848633 0.76123047
vt 0.4494629 0.76464844
vt 0.9213867 0.3461914
vt 0.9213867 0.34936523
vt 0.93603516 0.34936523
vt 0.93652344 0.3461914
vt 0.24084473 0.6040039
vt 0.24084473 0.8588867
vt 0.26733398 0.8588867
vt 0.26733398 0.6279297
vt 0.35058594 0.6279297
vt 0.35058594 0.6040039
vt 0.63427734 0
vt 0.63427734 0.27148438
vt 0.75097656 0.27148438
vt 0.75097656 3.1352043E-05
vt 0.45898438 0.6040039
vt 0.45898438 0.30200195
vt 0.35986328 0.3022461
vt 0.24084473 0.3022461
vt 0.24084473 0.6040039
vt 0.5024414 0.83496094
vt 0.5024414 0.9589844
vt 0.5263672 0.9589844
vt 0.5263672 0.83496094
vt 0.8930664 0.57373047
vt 0.8930664 0.30200195
vt 0.8691406 0.30200195
vt 0.8691406 0.57373047
vt 0.45898438 0.56396484
vt 0.45898438 0.83496094
vt 0.5761719 0.83496094
vt 0.5761719 0.56396484
vt 0.8652344 0.5883789
vt 0.8652344 0.8598633
vt 0.8886719 0.8598633
vt 0.8886719 0.5883789
vt 0.52441406 0.26171875
vt 0.5229492 0.26171875
vt 0.5229492 0.29638672
vt 0.52441406 0.29638672
vt 0.8388672 0.6401367
vt 0.8388672 0.30200195
vt 0.80566406 0.30200195
vt 0.80566406 0.6401367
vt 0.5253906 0.26171875
vt 0.52441406 0.26171875
vt 0.52441406 0.29638672
vt 0.5253906 0.29638672
vt 0.5761719 0.56396484
vt 0.5761719 0.9013672
vt 0.6088867 0.9013672
vt 0.6088867 0.56396484
vt 0.6088867 0.9008789
vt 0.61035156 0.9008789
vt 0.61035156 0.56396484
vt 0.6088867 0.56396484
vt 0.24023438 0.30200195
vt 0.23901367 0.30200195
vt 0.23901367 0.63964844
vt 0.24023438 0.63964844
vt 0.8388672 0.890625
vt 0.8652344 0.890625
vt 0.8652344 0.5883789
vt 0.8388672 0.5883789
vt 0.44750977 0.8569336
vt 0.44750977 0.6040039
vt 0.35058594 0.6040039
vt 0.35058594 0.8569336
vt 0.55078125 0.9379883
vt 0.55078125 0.83496094
vt 0.5263672 0.83496094
vt 0.5263672 0.9379883
vt 0.8930664 0.30200195
vt 0.8930664 0.5551758
vt 0.91748047 0.5551758
vt 0.91748047 0.30200195
vt 0 0.6040039
vt 0 0.8569336
vt 0.09710693 0.8569336
vt 0.09710693 0.6040039
vt 0.9121094 0
vt 0.9121094 0.25317383
vt 0.93652344 0.25317383
vt 0.93652344 0
vt 0.7739258 0.25048828
vt 0.77246094 0.25048828
vt 0.77246094 0.296875
vt 0.7739258 0.296875
vt 0.21447754 0.86572266
vt 0.21447754 0.6040039
vt 0.18054199 0.6040039
vt 0.18054199 0.86572266
vt 0.4494629 0.6503906
vt 0.4506836 0.6503906
vt 0.4506836 0.6040039
vt 0.4494629 0.6040039
vt 0.86816406 0.3269043
vt 0.86816406 0.5883789
vt 0.8691406 0.5883789
vt 0.8691406 0.30200195
vt 0.86816406 0.30322266
vt 0.7949219 0.25048828
vt 0.77441406 0.2705078
vt 0.7739258 0.27197266
vt 0.7949219 0.29663086
vt 0.8388672 0.30322266
vt 0.8388672 0.3269043
vt 0.84033203 0.3269043
vt 0.84033203 0.30322266
vt 0.47998047 0.26171875
vt 0.47998047 0.29516602
vt 0.5024414 0.29516602
vt 0.5024414 0.26171875
vt 0.86816406 0.30322266
vt 0.84033203 0.30322266
vt 0.84033203 0.3269043
vt 0.86816406 0.3269043
vt 0.77246094 0.25048828
vt 0.75097656 0.27514648
vt 0.7519531 0.27661133
vt 0.77246094 0.296875
vt 0.8339844 0
vt 0.8339844 0.2861328
vt 0.8652344 0.2861328
vt 0.8652344 0
vt 0.83154297 0.8720703
vt 0.83154297 0.89404297
vt 0.83203125 0.89501953
vt 0.8071289 0.89404297
vt 0.80566406 0.89501953
vt 0.8071289 0.8720703
vt 0.80566406 0.87109375
vt 0.83251953 0.87109375
vt 0.8071289 0.8701172
vt 0.8071289 0.74609375
vt 0.8310547 0.8701172
vt 0.80566406 0.7451172
vt 0.8310547 0.74609375
vt 0.83251953 0.7451172
vt 0.8066406 0.7441406
vt 0.8066406 0.6411133
vt 0.83154297 0.7441406
vt 0.80566406 0.6401367
vt 0.83251953 0.6401367
vt 0.83154297 0.6411133
vn -0 0 1
vn -0 0 1
vn -0 0 1
vn -0 0 1
vn -0 0 1
vn -0 0 1
vn -0 0 1
vn -0 0 1
vn -0 0 1
vn -0 0 1
vn 1 0 0
vn 1 0 0
vn 1 0 0
vn 1 0 0
vn -0 0 -1
vn -0 0 -1
vn -0 0 -1
vn -0 0 -1
vn -0 0 -1
vn -0 0 -1
vn -0 0 -1
vn -0 0 -1
vn -0 1 0
vn -0 1 0
vn -0 1 0
vn -0 1 0
vn -0 1 0
vn 0.61083984 0.7919922 0
vn 0.61083984 0.7919922 0
vn 0.61083984 0.7919922 0
vn 0.61083984 0.7919922 0
vn -0 -1 0
vn -0 -1 0
vn -0 -1 0
vn -0 -1 0
vn 0.008522034 0 1
vn 0.008522034 0 1
vn 0.008522034 0 1
vn 0.008522034 0 1
vn 0.32080078 0 0.9472656
vn 0.32080078 0 0.9472656
vn 0.32080078 0 0.9472656
vn 0.32080078 0 0.9472656
vn 0.36767578 0.008087158 -0.9296875
vn 0.36767578 0.008087158 -0.9296875
vn 0.36767578 0.008087158 -0.9296875
vn 0.36767578 0.008087158 -0.9296875
vn 0.61083984 -0.7919922 0
vn 0.61083984 -0.7919922 0
vn 0.61083984 -0.7919922 0
vn 0.61083984 -0.7919922 0
vn 1 0 0
vn 1 0 0
vn 1 0 0
vn 1 0 0
vn -0 0 -1
vn -0 0 -1
vn -0 0 -1
vn -0 0 -1
vn -0 -1 0
vn -0 -1 0
vn -0 -1 0
vn -0 -1 0
vn -0 1 0
vn -0 1 0
vn -0 1 0
vn -0 1 0
vn -0 -1 0
vn -0 -1 0
vn -0 -1 0
vn -0 -1 0
vn -0 0.6982422 -0.7158203
vn -0 0.6982422 -0.7158203
vn -0 0.6982422 -0.7158203
vn -0 0.6982422 -0.7158203
vn -0 0.6982422 -0.7158203
vn 1 0 0
vn 1 0 0
vn 1 0 0
vn 1 0 0
vn -0 0 -1
vn -0 0 -1
vn -0 0 -1
vn -0 0 -1
vn -0 1 0
vn -0 1 0
vn -0 1 0
vn -0 1 0
vn -0 0 1
vn -0 0 1
vn -0 0 1
vn -0 0 1
vn -0 0.94628906 0.3239746
vn -0 0.94628906 0.3239746
vn -0 0.94628906 0.3239746
vn -0 0.94628906 0.3239746
vn -0 0.13549805 0.99072266
vn -0 0.13549805 0.99072266
vn -0 0.13549805 0.99072266
vn -0 0.13549805 0.99072266
vn -0 -0.13549805 0.99072266
vn -0 -0.13549805 0.99072266
vn -0 -0.13549805 0.99072266
vn -0 -0.13549805 0.99072266
vn -0.008522034 0 1
vn -0.008522034 0 1
vn -0.008522034 0 1
vn -0.008522034 0 1
vn -0 0 1
vn -0 0 1
vn -0 0 1
vn -0 0 1
vn 0.2763672 0 0.9609375
vn 0.2763672 0 0.9609375
vn 0.2763672 0 0.9609375
vn 0.2763672 0 0.9609375
vn -0 -0.94628906 0.3239746
vn -0 -0.94628906 0.3239746
vn -0 -0.94628906 0.3239746
vn -0 -0.94628906 0.3239746
vn -0.2763672 0 0.9609375
vn -0.2763672 0 0.9609375
vn -0.2763672 0 0.9609375
vn -0.2763672 0 0.9609375
vn -1 0 0
vn -1 0 0
vn -1 0 0
vn -1 0 0
vn -1 0 0
vn -1 0 0
vn -0 0 1
vn -0 0 1
vn -0 0 1
vn -0 0 1
vn -0 0 -1
vn -0 0 -1
vn -0 0 -1
vn -0 0 -1
vn -0 0 -1
vn 1 0 0
vn 1 0 0
vn 1 0 0
vn 1 0 0
vn -0 1 0
vn -0 1 0
vn -0 1 0
vn -0 1 0
vn -0 0 -1
vn -0 0 -1
vn -0 0 -1
vn -0 0 -1
vn -0 -1 0
vn -0 -1 0
vn -0 -1 0
vn -0 -1 0
vn -1 0 0
vn -1 0 0
vn -1 0 0
vn -1 0 0
vn -0 0.9995117 0.022979736
vn -0 0.9995117 0.022979736
vn -0 0.9995117 0.022979736
vn -0 0.9995117 0.022979736
vn 1 0 0
vn 1 0 0
vn 1 0 0
vn 1 0 0
vn -0 -0.9995117 -0.022979736
vn -0 -0.9995117 -0.022979736
vn -0 -0.9995117 -0.022979736
vn -0 -0.9995117 -0.022979736
vn -0 0.009979248 -1
vn -0 0.009979248 -1
vn -0 0.009979248 -1
vn -0 0.009979248 -1
vn -0 -0.009986877 1
vn -0 -0.009986877 1
vn -0 -0.009986877 1
vn -0 -0.009986877 1
vn -0 -1 0
vn -0 -1 0
vn -0 -1 0
vn -0 -1 0
vn -0 0 1
vn -0 0 1
vn -0 0 1
vn -0 0 1
vn 1 0 0
vn 1 0 0
vn 1 0 0
vn 1 0 0
vn -0 -1 0
vn -0 -1 0
vn -0 -1 0
vn -0 -1 0
vn -0 0 -1
vn -0 0 -1
vn -0 0 -1
vn -0 0 -1
vn -0 1 0
vn -0 1 0
vn -0 1 0
vn -0 1 0
vn -0.7631836 0.47851562 0.4338379
vn -0.7631836 0.47851562 0.4338379
vn -0.7631836 0.47851562 0.4338379
vn -0.7631836 0.47851562 0.4338379
vn -0 0.74072266 0.671875
vn -0 0.74072266 0.671875
vn -0 0.74072266 0.671875
vn -0 0.74072266 0.671875
vn 1 0 0
vn 1 0 0
vn 1 0 0
vn 1 0 0
vn -0 -0.54785156 0.8364258
vn -0 -0.54785156 0.8364258
vn -0 -0.54785156 0.8364258
vn -0 -0.54785156 0.8364258
vn -0 -0.54785156 0.8364258
vn 1 0 0
vn 1 0 0
vn 1 0 0
vn 1 0 0
vn -0 0.23803711 0.9711914
vn -0 0.23803711 0.9711914
vn -0 0.23803711 0.9711914
vn -0 0.23803711 0.9711914
vn -0 1 -0.0028762817
vn -0 1 -0.0028762817
vn -0 1 -0.0028762817
vn -0 1 -0.0028762817
vn -0 0.012237549 1
vn -0 0.012237549 1
vn -0 0.012237549 1
vn -0 0.012237549 1
vn -1 0 0
vn -1 0 0
vn -1 0 0
vn -1 0 0
vn -0 -0.74121094 -0.6713867
vn -0 -0.74121094 -0.6713867
vn -0 -0.74121094 -0.6713867
vn -0 -0.74121094 -0.6713867
vn 1 0 0
vn 1 0 0
vn 1 0 0
vn 1 0 0
vn 1 0 0
vn 1 0 0
vn 1 0 0
vn 1 0 0
vn 1 0 0
vn 1 0 0
vn 1 0 0
vn 1 0 0
vn 1 0 0
vn 1 0 0
vn 1 0 0
vn 1 0 0
vn 1 0 0
vn 1 0 0
vn 1 0 0
vn 1 0 0
g Girder1.001_0
f 3/3/3 2/2/2 1/1/1
f 1/1/1 4/4/4 3/3/3
f 1/1/1 5/5/5 4/4/4
f 1/1/1 6/6/6 5/5/5
f 9/9/9 8/8/8 7/7/7
f 10/10/10 9/9/9 7/7/7
f 13/13/13 12/12/12 11/11/11
f 14/14/14 13/13/13 11/11/11
f 17/17/17 16/16/16 15/15/15
f 18/18/18 17/17/17 15/15/15
f 21/21/21 20/20/20 19/19/19
f 22/22/22 21/21/21 19/19/19
f 25/25/25 24/24/24 23/23/23
f 23/23/23 26/26/26 25/25/25
f 23/23/23 27/27/27 26/26/26
f 30/30/30 29/29/29 28/28/28
f 31/31/31 30/30/30 28/28/28
f 34/34/34 33/33/33 32/32/32
f 35/35/35 34/34/34 32/32/32
f 38/38/38 37/37/37 36/36/36
f 39/39/39 38/38/38 36/36/36
f 42/42/42 41/41/41 40/40/40
f 43/43/43 42/42/42 40/40/40
f 46/46/46 45/45/45 44/44/44
f 47/47/47 46/46/46 44/44/44
f 50/50/50 49/49/49 48/48/48
f 51/51/51 50/50/50 48/48/48
f 54/54/54 53/53/53 52/52/52
f 55/55/55 54/54/54 52/52/52
f 58/58/58 57/57/57 56/56/56
f 59/59/59 58/58/58 56/56/56
f 62/62/62 61/61/61 60/60/60
f 63/63/63 62/62/62 60/60/60
f 66/66/66 65/65/65 64/64/64
f 67/67/67 66/66/66 64/64/64
f 70/70/70 69/69/69 68/68/68
f 71/71/71 70/70/70 68/68/68
f 74/74/74 73/73/73 72/72/72
f 72/72/72 75/75/75 74/74/74
f 72/72/72 76/76/76 75/75/75
f 79/79/79 78/78/78 77/77/77
f 80/80/80 79/79/79 77/77/77
f 83/83/83 82/82/82 81/81/81
f 84/84/84 83/83/83 81/81/81
f 87/87/87 86/86/86 85/85/85
f 88/88/88 87/87/87 85/85/85
f 91/91/91 90/90/90 89/89/89
f 92/92/92 91/91/91 89/89/89
f 95/95/95 94/94/94 93/93/93
f 96/96/96 95/95/95 93/93/93
f 99/99/99 98/98/98 97/97/97
f 100/100/100 99/99/99 97/97/97
f 103/103/103 102/102/102 101/101/101
f 104/104/104 103/103/103 101/101/101
f 107/107/107 106/106/106 105/105/105
f 108/108/108 107/107/107 105/105/105
f 111/111/111 110/110/110 109/109/109
f 112/112/112 111/111/111 109/109/109
f 115/115/115 114/114/114 113/113/113
f 116/116/116 115/115/115 113/113/113
f 119/119/119 118/118/118 117/117/117
f 120/120/120 119/119/119 117/117/117
f 123/123/123 122/122/122 121/121/121
f 124/124/124 123/123/123 121/121/121
f 127/127/127 126/126/126 125/125/125
f 125/125/125 128/128/128 127/127/127
f 125/125/125 129/129/129 128/128/128
f 125/125/125 130/130/130 129/129/129
f 133/133/133 132/132/132 131/131/131
f 134/134/134 133/133/133 131/131/131
f 137/137/137 136/136/136 135/135/135
f 135/135/135 138/138/138 137/137/137
f 135/135/135 139/139/139 138/138/138
f 142/142/142 141/141/141 140/140/140
f 143/143/143 142/142/142 140/140/140
f 146/146/146 145/145/145 144/144/144
f 147/147/147 146/146/146 144/144/144
f 150/150/150 149/149/149 148/148/148
f 151/151/151 150/150/150 148/148/148
f 154/154/154 153/153/153 152/152/152
f 155/155/155 154/154/154 152/152/152
f 158/158/158 157/157/157 156/156/156
f 159/159/159 158/158/158 156/156/156
f 162/162/162 161/161/161 160/160/160
f 163/163/163 162/162/162 160/160/160
f 166/166/166 165/165/165 164/164/164
f 167/167/167 166/166/166 164/164/164
f 170/170/170 169/169/169 168/168/168
f 171/171/171 170/170/170 168/168/168
f 174/174/174 173/173/173 172/172/172
f 175/175/175 174/174/174 172/172/172
f 178/178/178 177/177/177 176/176/176
f 179/179/179 178/178/178 176/176/176
f 182/182/182 181/181/181 180/180/180
f 183/183/183 182/182/182 180/180/180
f 186/186/186 185/185/185 184/184/184
f 187/187/187 186/186/186 184/184/184
f 190/190/190 189/189/189 188/188/188
f 191/191/191 190/190/190 188/188/188
f 194/194/194 193/193/193 192/192/192
f 195/195/195 194/194/194 192/192/192
f 198/198/198 197/197/197 196/196/196
f 199/199/199 198/198/198 196/196/196
f 202/202/202 201/201/201 200/200/200
f 203/203/203 202/202/202 200/200/200
f 206/206/206 205/205/205 204/204/204
f 207/207/207 206/206/206 204/204/204
f 210/210/210 209/209/209 208/208/208
f 211/211/211 210/210/210 208/208/208
f 214/214/214 213/213/213 212/212/212
f 215/215/215 214/214/214 212/212/212
f 218/218/218 217/217/217 216/216/216
f 216/216/216 219/219/219 218/218/218
f 216/216/216 220/220/220 219/219/219
f 223/223/223 222/222/222 221/221/221
f 224/224/224 223/223/223 221/221/221
f 227/227/227 226/226/226 225/225/225
f 228/228/228 227/227/227 225/225/225
f 231/231/231 230/230/230 229/229/229
f 232/232/232 231/231/231 229/229/229
f 235/235/235 234/234/234 233/233/233
f 236/236/236 235/235/235 233/233/233
f 239/239/239 238/238/238 237/237/237
f 240/240/240 239/239/239 237/237/237
f 243/243/243 242/242/242 241/241/241
f 244/244/244 243/243/243 241/241/241
f 247/247/247 246/246/246 245/245/245
f 247/247/247 248/248/248 246/246/246
f 248/248/248 247/247/247 249/249/249
f 250/250/250 248/248/248 249/249/249
f 249/249/249 251/251/251 250/250/250
f 245/245/245 250/250/250 251/251/251
f 245/245/245 252/252/252 247/247/247
f 252/252/252 245/245/245 251/251/251
f 253/253/253 252/252/252 251/251/251
f 254/254/254 253/253/253 251/251/251
f 252/252/252 253/253/253 255/255/255
f 251/251/251 256/256/256 254/254/254
f 252/252/252 255/255/255 257/257/257
f 257/257/257 254/254/254 256/256/256
f 257/257/257 258/258/258 252/252/252
f 258/258/258 257/257/257 256/256/256
f 259/259/259 258/258/258 256/256/256
f 260/260/260 259/259/259 256/256/256
f 259/259/259 261/261/261 258/258/258
f 260/260/260 256/256/256 262/262/262
f 258/258/258 261/261/261 263/263/263
f 264/264/264 260/260/260 262/262/262
f 262/262/262 263/263/263 264/264/264
f 261/261/261 264/264/264 263/263/263
