g GunBarrelLOD1
v -0.3608785 0.10628983 -0.3093359
v -0.3859297 0.13532247 2.2544715
v -0.35696003 0.10567921 2.3280723
v -0.3859297 0.13532247 2.2544715
v -0.409712 0.2163668 2.2752554
v -0.48570985 0.19540437 2.2750583
v -0.188249 -0.042780392 2.4254003
v -0.33495516 0.027831296 2.4253738
v -0.3025585 -0.0064519434 1.9713542
v -0.18827733 0.21719801 2.4254007
v -0.3075991 0.2508636 2.425564
v -0.254039 0.23515354 1.9713542
v -0.48570985 0.19540437 2.2750583
v -0.409712 0.2163668 2.2752554
v -0.35696003 0.10567921 2.3280723
v -0.13999002 -0.0105767995 -0.43379608
v -0.11129312 0.12003289 -0.44481686
v -0.120685376 0.031711545 0.13949122
v -0.3608785 0.10628983 -0.3093359
v -0.35493907 0.28895652 -0.30941692
v -0.4060127 0.20214365 -0.30797938
v -0.3859297 0.13532247 2.2544715
v -0.48570985 0.19540437 2.2750583
v -0.35696003 0.10567921 2.3280723
v -0.18827735 0.18933293 2.4254007
v -0.25403887 0.17137739 1.9713542
v -0.30759907 0.1556673 2.425564
v -0.11681526 0.07328589 1.9713544
v -0.3025585 -0.0064519434 1.9713542
v -0.25403887 0.17137739 1.9713542
v -0.254039 0.23515354 1.9713542
v -0.30255854 0.41298288 1.9713542
v -0.11681534 0.333245 1.9713544
v -0.18824692 0.4493127 2.4254003
v -0.30255854 0.41298288 1.9713542
v -0.33495516 0.37869963 2.4253738
v -0.14002287 0.41702786 -0.4330045
v -0.12068262 0.3746251 0.14030366
v -0.11130577 0.2864131 -0.44465375
v -0.3608785 0.10628983 -0.3093359
v -0.21542554 0.19851117 -0.30717757
v -0.35493907 0.28895652 -0.30941692
v -0.36004898 0.28895703 2.3283854
v -0.2477975 0.19548555 2.3251843
v -0.35696003 0.10567921 2.3280723
v -0.50892484 0.24047409 -0.17316501
v -0.47972262 0.19654796 -0.15460853
v -0.5234711 0.14345834 -0.17107895
v -0.26283884 0.19339833 -0.4263655
v -0.11129312 0.12003289 -0.44481686
v -0.18827735 0.18933293 2.4254007
v -0.10870663 0.0733747 2.4254777
v -0.188249 -0.042780392 2.4254003
v -0.13999002 -0.0105767995 -0.43379608
v -0.26278114 -0.046862897 -0.42695487
v -0.10870663 0.0733747 2.4254777
v -0.11129312 0.12003289 -0.44481686
v -0.33495516 0.027831296 2.4253738
v -0.26278114 -0.046862897 -0.42695487
v -0.34544405 0.073338374 -0.42746586
v -0.188249 -0.042780392 2.4254003
v -0.26277408 0.45339814 -0.42701787
v -0.14002287 0.41702786 -0.4330045
v -0.18824692 0.4493127 2.4254003
v -0.10870594 0.33312863 2.4254777
v -0.11130577 0.2864131 -0.44465375
v -0.18827733 0.21719801 2.4254007
v -0.11130577 0.2864131 -0.44465375
v -0.2628266 0.21312279 -0.4263371
v -0.10870594 0.33312863 2.4254777
v -0.345444 0.3331854 -0.42744917
v -0.26277408 0.45339814 -0.42701787
v -0.33495516 0.37869963 2.4253738
v -0.18824692 0.4493127 2.4254003
v -0.103999235 0.3888898 1.9682221
v -0.09825504 0.30874234 2.0284584
v -0.10414165 0.016351009 1.9851639
v -0.089251585 -0.043806404 0.071325324
v -0.07478351 0.42845783 0.08714658
v 0.14355801 0.30334824 0.07337096
v 0.12643068 0.07003722 0.09527476
v 0.13484213 0.15741377 1.9517627
v 0.09589157 0.29029882 2.0150316
v 0.089886285 0.10203139 2.0240705
v -0.18827735 0.18933293 2.4254007
v -0.11681526 0.07328589 1.9713544
v -0.25403887 0.17137739 1.9713542
v -0.10870663 0.0733747 2.4254777
v -0.18824692 0.4493127 2.4254003
v -0.11681534 0.333245 1.9713544
v -0.30255854 0.41298288 1.9713542
v -0.10870594 0.33312863 2.4254777
v -0.10870663 0.0733747 2.4254777
v -0.188249 -0.042780392 2.4254003
v -0.11681526 0.07328589 1.9713544
v -0.3025585 -0.0064519434 1.9713542
v -0.10870594 0.33312863 2.4254777
v -0.18827733 0.21719801 2.4254007
v -0.11681534 0.333245 1.9713544
v -0.254039 0.23515354 1.9713542
v -0.409712 0.2163668 2.2752554
v -0.36004898 0.28895703 2.3283854
v -0.35696003 0.10567921 2.3280723
v -0.4060127 0.20214365 -0.30797938
v -0.35493907 0.28895652 -0.30941692
v -0.3608785 0.10628983 -0.3093359
v -0.3859297 0.13532247 2.2544715
v 0.12643068 0.07003722 0.09527476
v 0.089886285 0.10203139 2.0240705
v 0.13484213 0.15741377 1.9517627
v -0.10414165 0.016351009 1.9851639
v -0.089251585 -0.043806404 0.071325324
v 0.14355801 0.30334824 0.07337096
v -0.07478351 0.42845783 0.08714658
v 0.12643068 0.07003722 0.09527476
v -0.089251585 -0.043806404 0.071325324
v -0.11129312 0.12003289 -0.44481686
v -0.1930876 0.17946863 0.14683676
v -0.120685376 0.031711545 0.13949122
v -0.26283884 0.19339833 -0.4263655
v -0.2628266 0.21312279 -0.4263371
v -0.11130577 0.2864131 -0.44465375
v -0.19318311 0.22703314 0.14677012
v -0.12068262 0.3746251 0.14030366
v -0.345444 0.3331854 -0.42744917
v -0.2628266 0.21312279 -0.4263371
v -0.32668963 0.29154873 0.15007326
v -0.19318311 0.22703314 0.14677012
v -0.26283884 0.19339833 -0.4263655
v -0.32667494 0.114977054 0.15024896
v -0.1930876 0.17946863 0.14683676
v -0.34544405 0.073338374 -0.42746586
v -0.30759907 0.1556673 2.425564
v -0.33495516 0.027831296 2.4253738
v -0.34544405 0.073338374 -0.42746586
v -0.26283884 0.19339833 -0.4263655
v -0.18827735 0.18933293 2.4254007
v -0.345444 0.3331854 -0.42744917
v -0.33495516 0.37869963 2.4253738
v -0.3075991 0.2508636 2.425564
v -0.2628266 0.21312279 -0.4263371
v -0.18827733 0.21719801 2.4254007
v -0.30255854 0.41298288 1.9713542
v -0.254039 0.23515354 1.9713542
v -0.3075991 0.2508636 2.425564
v -0.33495516 0.37869963 2.4253738
v -0.3025585 -0.0064519434 1.9713542
v -0.33495516 0.027831296 2.4253738
v -0.30759907 0.1556673 2.425564
v -0.25403887 0.17137739 1.9713542
v 0.09589157 0.29029882 2.0150316
v -0.103999235 0.3888898 1.9682221
v -0.07478351 0.42845783 0.08714658
v 0.14355801 0.30334824 0.07337096
v -0.12068262 0.3746251 0.14030366
v -0.14002287 0.41702786 -0.4330045
v -0.26277408 0.45339814 -0.42701787
v -0.2770273 0.43231034 0.15032426
v -0.09825504 0.30874234 2.0284584
v 0.089886285 0.10203139 2.0240705
v -0.10414165 0.016351009 1.9851639
v 0.09589157 0.29029882 2.0150316
v -0.103999235 0.3888898 1.9682221
v -0.120685376 0.031711545 0.13949122
v -0.277056 -0.025766296 0.15029381
v -0.26278114 -0.046862897 -0.42695487
v -0.13999002 -0.0105767995 -0.43379608
v -0.277056 -0.025766296 0.15029381
v -0.32667494 0.114977054 0.15024896
v -0.34544405 0.073338374 -0.42746586
v -0.26278114 -0.046862897 -0.42695487
v -0.2770273 0.43231034 0.15032426
v -0.26277408 0.45339814 -0.42701787
v -0.345444 0.3331854 -0.42744917
v -0.32668963 0.29154873 0.15007326
v -0.32667494 0.114977054 0.15024896
v -0.277056 -0.025766296 0.15029381
v -0.120685376 0.031711545 0.13949122
v -0.1930876 0.17946863 0.14683676
v -0.32668963 0.29154873 0.15007326
v -0.19318311 0.22703314 0.14677012
v -0.12068262 0.3746251 0.14030366
v -0.2770273 0.43231034 0.15032426
v -0.21542554 0.19851117 -0.30717757
v -0.2477975 0.19548555 2.3251843
v -0.36004898 0.28895703 2.3283854
v -0.35493907 0.28895652 -0.30941692
v -0.2477975 0.19548555 2.3251843
v -0.21542554 0.19851117 -0.30717757
v -0.3608785 0.10628983 -0.3093359
v -0.35696003 0.10567921 2.3280723
v -0.36693078 0.11983917 -0.1579018
v -0.36692777 0.2685588 -0.15824471
v -0.50892484 0.24047409 -0.17316501
v -0.5234711 0.14345834 -0.17107895
v -0.50892484 0.24047409 -0.17316501
v -0.36692777 0.2685588 -0.15824471
v -0.36693078 0.11983917 -0.1579018
v -0.47972262 0.19654796 -0.15460853
v -0.5234711 0.14345834 -0.17107895
vt 0.953125 0.7607422
vt 0.95410156 0.90234375
vt 0.9550781 0.9082031
vt 0.9736328 0.7871094
vt 0.9770508 0.7871094
vt 0.97558594 0.78222656
vt 0.9433594 0.10925293
vt 0.9433594 0.12670898
vt 0.95703125 0.12060547
vt 0.9433594 0.082092285
vt 0.9433594 0.09234619
vt 0.95703125 0.08605957
vt 0.97753906 0.7788086
vt 0.9736328 0.78222656
vt 0.9770508 0.78222656
vt 0.85009766 0.2602539
vt 0.8613281 0.26220703
vt 0.85595703 0.15039062
vt 0.43652344 0.9863281
vt 0.43798828 0.9394531
vt 0.42456055 0.96191406
vt 0.97802734 0.7915039
vt 0.9770508 0.7871094
vt 0.9760742 0.7915039
vt 0.9428711 0.40283203
vt 0.95654297 0.3972168
vt 0.9428711 0.3881836
vt 0.93310547 0.21704102
vt 0.953125 0.19787598
vt 0.92578125 0.19189453
vt 0.9506836 0.17932129
vt 0.94433594 0.15197754
vt 0.92529297 0.171875
vt 0.9428711 0.42993164
vt 0.95654297 0.41748047
vt 0.9428711 0.41015625
vt 0.85009766 0.14379883
vt 0.84228516 0.033935547
vt 0.83447266 0.14587402
vt 0.9824219 0.76416016
vt 0.9824219 0.75878906
vt 0.97753906 0.76123047
vt 0.9746094 0.77685547
vt 0.9819336 0.77685547
vt 0.98046875 0.76953125
vt 0.9042969 0.9238281
vt 0.9091797 0.9213867
vt 0.9042969 0.91552734
vt 0.6870117 0.0357666
vt 0.66308594 0.032592773
vt 0.6821289 0.5834961
vt 0.6533203 0.5834961
vt 0.5888672 0.5834961
vt 0.6010742 0.03439331
vt 0.5810547 0.0357666
vt 0.6147461 0.5834961
vt 0.6147461 0.031951904
vt 0.8222656 0.031951904
vt 0.80371094 0.57958984
vt 0.83203125 0.57958984
vt 0.79833984 0.031951904
vt 0.5444336 0.57958984
vt 0.55859375 0.5810547
vt 0.55029297 0.031951904
vt 0.5786133 0.031982422
vt 0.5786133 0.5834961
vt 0.625 0.5834961
vt 0.64453125 0.03253174
vt 0.6176758 0.03564453
vt 0.6508789 0.5834961
vt 0.7260742 0.57958984
vt 0.7524414 0.57958984
vt 0.73291016 0.031951904
vt 0.7597656 0.031951904
vt 0.095581055 0.016616821
vt 0.080078125 0.0040512085
vt 0.020828247 0.01398468
vt 0.0040512085 0.4260254
vt 0.10925293 0.4260254
vt 0.29663086 0.57470703
vt 0.26098633 0.57373047
vt 0.27026367 0.9790039
vt 0.29736328 0.9902344
vt 0.25878906 0.99316406
vt 0.95214844 0.24377441
vt 0.93847656 0.23022461
vt 0.93847656 0.24768066
vt 0.95214844 0.22302246
vt 0.95214844 0.36572266
vt 0.9379883 0.34960938
vt 0.9379883 0.36987305
vt 0.95214844 0.3449707
vt 0.9355469 0.36987305
vt 0.9355469 0.35058594
vt 0.921875 0.36645508
vt 0.921875 0.3449707
vt 0.93603516 0.24768066
vt 0.93603516 0.22851562
vt 0.921875 0.24255371
vt 0.921875 0.22302246
vt 0.94970703 0.76123047
vt 0.9526367 0.75878906
vt 0.9433594 0.7583008
vt 0.9482422 0.9057617
vt 0.9526367 0.9057617
vt 0.9428711 0.9057617
vt 0.9448242 0.7631836
vt 0.050567627 0.4416504
vt 0.051208496 0.84814453
vt 0.058898926 0.83984375
vt 0.00907135 0.84472656
vt 0.0065307617 0.43579102
vt 0.64697266 0.8461914
vt 0.6875 0.8701172
vt 0.6503906 0.79345703
vt 0.69140625 0.76953125
vt 0.8828125 0.26513672
vt 0.86816406 0.3779297
vt 0.8901367 0.37548828
vt 0.86376953 0.26757812
vt 0.8901367 0.15124512
vt 0.8691406 0.14868164
vt 0.88427734 0.2614746
vt 0.86376953 0.25927734
vt 0.8925781 0.25927734
vt 0.91503906 0.25927734
vt 0.9003906 0.14831543
vt 0.9194336 0.14831543
vt 0.8847656 0.031951904
vt 0.8696289 0.14294434
vt 0.890625 0.14282227
vt 0.86376953 0.03201294
vt 0.7036133 0.031951904
vt 0.6899414 0.031951904
vt 0.6899414 0.57958984
vt 0.7158203 0.57958984
vt 0.7236328 0.031951904
vt 0.79589844 0.57958984
vt 0.79589844 0.031951904
vt 0.7758789 0.031951904
vt 0.7675781 0.57958984
vt 0.76220703 0.031951904
vt 0.95703125 0.10681152
vt 0.95703125 0.08605957
vt 0.9433594 0.09234619
vt 0.9433594 0.10681152
vt 0.95654297 0.3779297
vt 0.9428711 0.3779297
vt 0.9428711 0.3881836
vt 0.95654297 0.3972168
vt 0.21252441 0.3479004
vt 0.16748047 0.35009766
vt 0.16894531 0.75683594
vt 0.21289062 0.75390625
vt 0.84228516 0.033935547
vt 0.85009766 0.14379883
vt 0.8613281 0.14282227
vt 0.8613281 0.031951904
vt 0.1048584 0.8510742
vt 0.07104492 0.8955078
vt 0.10614014 0.9067383
vt 0.07446289 0.8515625
vt 0.10681152 0.8388672
vt 0.85595703 0.15039062
vt 0.83447266 0.14831543
vt 0.83447266 0.25927734
vt 0.85009766 0.2602539
vt 0.89941406 0.37548828
vt 0.9194336 0.37548828
vt 0.9194336 0.26464844
vt 0.89697266 0.26464844
vt 0.8515625 0.37573242
vt 0.85546875 0.26464844
vt 0.83447266 0.26464844
vt 0.83447266 0.37573242
vt 0.921875 0.28344727
vt 0.93896484 0.30249023
vt 0.95947266 0.28320312
vt 0.93896484 0.26464844
vt 0.95947266 0.32373047
vt 0.9423828 0.30493164
vt 0.921875 0.3232422
vt 0.9423828 0.3425293
vt 0.9667969 0.9082031
vt 0.9667969 0.75878906
vt 0.9633789 0.7583008
vt 0.96191406 0.9082031
vt 0.96191406 0.9082031
vt 0.96191406 0.7583008
vt 0.953125 0.7607422
vt 0.9550781 0.9082031
vt 0.8496094 0.70751953
vt 0.8496094 0.7451172
vt 0.87646484 0.7363281
vt 0.87841797 0.71435547
vt 0.08013916 0.5722656
vt 0.072631836 0.7529297
vt 0.1418457 0.75341797
vt 0.105041504 0.5859375
vt 0.1295166 0.5727539
vn -0.9301758 -0.36645508 -0.0021266937
vn -0.74658203 -0.6640625 -0.039886475
vn -0.6118164 -0.78759766 -0.076416016
vn -0.06121826 0.2310791 -0.9711914
vn -0.06121826 0.2310791 -0.9711914
vn -0.06121826 0.2310791 -0.9711914
vn -0.27368164 0.9614258 0.018203735
vn 0.4333496 0.9003906 -0.037078857
vn -0.23535156 0.96240234 0.13623047
vn -0.34521484 0.93847656 0.023223877
vn 0.27148438 0.96240234 -0.0012683868
vn -0.46972656 0.8769531 0.10272217
vn -0.10870361 0.38549805 0.9165039
vn -0.82373047 0.23840332 0.51464844
vn -0.24707031 0.09887695 0.9638672
vn -0.9760742 0.21594238 0.016952515
vn -0.9042969 -0.4267578 0.017211914
vn -0.93115234 -0.35766602 -0.06903076
vn 0.00091457367 -0.00047326088 -1
vn 0.00091362 -0.00047326088 -1
vn -0.02897644 0.00049877167 -0.9995117
vn -0.74658203 -0.6640625 -0.039886475
vn -0.5307617 -0.8378906 -0.12841797
vn -0.6118164 -0.78759766 -0.076416016
vn -0.34521484 -0.9379883 0.023208618
vn -0.46972656 -0.8769531 0.10272217
vn 0.27148438 -0.96240234 -0.0012683868
vn -0 0 1
vn -0 0 1
vn -0 0 1
vn -0 0 1
vn -0 0 1
vn -0 0 1
vn -0.27368164 -0.9614258 0.018188477
vn -0.23535156 -0.96240234 0.13623047
vn 0.4333496 -0.9003906 -0.037078857
vn -0.9760742 -0.21618652 0.016952515
vn -0.93115234 0.35864258 -0.06903076
vn -0.9033203 0.42822266 0.017181396
vn 0.00091457367 -0.00047326088 -1
vn 0.015434265 -0.0009455681 -1
vn 0.00091362 -0.00047326088 -1
vn -0.6855469 0.26000977 0.6796875
vn 0.02746582 -0.001244545 0.9995117
vn -0.24707031 0.09887695 0.9638672
vn -0.21276855 0.03933716 0.9760742
vn -0.25170898 0.04714966 0.9667969
vn -0.19836426 0.03640747 0.9794922
vn -0.31420898 0.94921875 -0.00687027
vn 0.4494629 0.8930664 -0.009506226
vn 0.3400879 0.9404297 0.0099487305
vn 0.82470703 0.56591797 0.008453369
vn 0.34716797 -0.9375 0.010017395
vn 0.6796875 -0.73339844 -0.0021133423
vn -0.32348633 -0.94628906 -0.00699234
vn 0.9160156 -0.40161133 0.0017719269
vn 0.9160156 -0.40161133 0.0017719269
vn -0.44799805 -0.89404297 0.012069702
vn -0.32348633 -0.94628906 -0.00699234
vn -0.82373047 -0.56640625 -0.006008148
vn 0.34716797 -0.9375 0.010017395
vn -0.3244629 0.9458008 -0.007007599
vn 0.6796875 0.73339844 -0.0021362305
vn 0.3474121 0.9375 0.010002136
vn 0.9160156 0.40161133 0.0017547607
vn 0.9160156 0.40161133 0.0017547607
vn 0.3400879 -0.9404297 0.0099487305
vn 0.44921875 -0.8935547 -0.009498596
vn -0.31469727 -0.94921875 -0.006855011
vn 0.82421875 -0.56591797 0.008460999
vn -0.82373047 0.56640625 -0.006011963
vn -0.3244629 0.9458008 -0.007007599
vn -0.44799805 0.89404297 0.012069702
vn 0.3474121 0.9375 0.010002136
vn -0.9995117 0.01399231 0.018737793
vn -0.9946289 0.0049972534 0.101501465
vn -1 0.015930176 0.0008006096
vn -1 0.01727295 -0.011711121
vn -1 0.01727295 -0.011711121
vn 0.86865234 0.49560547 0.013092041
vn 0.8222656 -0.56933594 0.015556335
vn 0.96875 -0.16906738 0.18041992
vn 0.625 0.4880371 0.609375
vn 0.515625 -0.5083008 0.6894531
vn -0.34521484 -0.9379883 0.023208618
vn -0.6303711 -0.77001953 0.09765625
vn -0.46972656 -0.8769531 0.10272217
vn -0.82421875 -0.56591797 0.014831543
vn -0.27368164 -0.9614258 0.018188477
vn -0.48120117 -0.8642578 0.14526367
vn -0.23535156 -0.96240234 0.13623047
vn -0.8251953 -0.5649414 0.014587402
vn -0.8251953 0.5649414 0.01461792
vn -0.27368164 0.9614258 0.018203735
vn -0.48120117 0.8642578 0.14526367
vn -0.23535156 0.96240234 0.13623047
vn -0.82421875 0.56591797 0.01486969
vn -0.34521484 0.93847656 0.023223877
vn -0.6303711 0.77001953 0.09765625
vn -0.46972656 0.8769531 0.10272217
vn -0.82373047 0.23840332 0.51464844
vn -0.6855469 0.26000977 0.6796875
vn -0.24707031 0.09887695 0.9638672
vn -0.99560547 0.09515381 -0.0028209686
vn -0.84472656 0.53466797 -0.0028820038
vn -0.9301758 -0.36645508 -0.0021266937
vn -0.74658203 -0.6640625 -0.039886475
vn 0.8222656 -0.56933594 0.015556335
vn 0.515625 -0.5083008 0.6894531
vn 0.96875 -0.16906738 0.18041992
vn 0.43432617 -0.9003906 0.027404785
vn 0.43432617 -0.9003906 0.027404785
vn -0.111083984 -0.08477783 -0.9902344
vn -0.008300781 -0.027328491 -0.9995117
vn 0.037902832 -0.0013771057 -0.9995117
vn 0.09442139 0.030441284 -0.9951172
vn -0.9042969 -0.4267578 0.017211914
vn -0.30664062 -0.9472656 -0.091674805
vn -0.93115234 -0.35766602 -0.06903076
vn 0.2368164 -0.9711914 0.019470215
vn 0.23718262 0.9711914 0.019439697
vn -0.9033203 0.42822266 0.017181396
vn -0.3076172 0.9472656 -0.09161377
vn -0.93115234 0.35864258 -0.06903076
vn 0.82373047 0.56689453 0.014122009
vn 0.23718262 0.9711914 0.019439697
vn 0.50097656 0.86328125 -0.061950684
vn -0.3076172 0.9472656 -0.09161377
vn 0.2368164 -0.9711914 0.019470215
vn 0.5004883 -0.86328125 -0.0619812
vn -0.30664062 -0.9472656 -0.091674805
vn 0.82373047 -0.56689453 0.014099121
vn -0.6586914 0.7524414 0.004863739
vn -0.9140625 0.40551758 0.0004248619
vn -0.9140625 0.40551758 0.0004248619
vn -0.31420898 0.94921875 -0.00687027
vn 0.3400879 0.9404297 0.0099487305
vn -0.9140625 -0.40551758 0.0004246235
vn -0.9140625 -0.40551758 0.0004246235
vn -0.6586914 -0.7524414 0.0048675537
vn -0.31469727 -0.94921875 -0.006855011
vn 0.3400879 -0.9404297 0.0099487305
vn 0.9658203 0.23986816 0.09631348
vn 0.9658203 0.23986816 0.09631348
vn 0.9658203 0.23986816 0.09631348
vn 0.9658203 0.23986816 0.09631348
vn 0.9658203 -0.23986816 0.09631348
vn 0.9658203 -0.23986816 0.09631348
vn 0.9658203 -0.23986816 0.09631348
vn 0.9658203 -0.23986816 0.09631348
vn 0.625 0.4880371 0.609375
vn 0.37548828 0.86376953 0.3359375
vn 0.47021484 0.8823242 0.021606445
vn 0.86865234 0.49560547 0.013092041
vn -0.3215332 -0.9453125 -0.050750732
vn -0.3215332 -0.9453125 -0.050750732
vn -0.3215332 -0.9453125 -0.050750732
vn -0.3215332 -0.9453125 -0.050750732
vn 0.046539307 0.31323242 0.94873047
vn 0.515625 -0.5083008 0.6894531
vn -0.13366699 -0.14257812 0.98095703
vn 0.625 0.4880371 0.609375
vn 0.37548828 0.86376953 0.3359375
vn -0.32080078 0.9458008 -0.050689697
vn -0.32080078 0.9458008 -0.050689697
vn -0.32080078 0.9458008 -0.050689697
vn -0.32080078 0.9458008 -0.050689697
vn 0.89160156 0.4519043 -0.028015137
vn 0.89160156 0.4519043 -0.028015137
vn 0.89160156 0.4519043 -0.028015137
vn 0.89160156 0.4519043 -0.028015137
vn 0.89160156 -0.4519043 -0.028030396
vn 0.89160156 -0.4519043 -0.028030396
vn 0.89160156 -0.4519043 -0.028030396
vn 0.89160156 -0.4519043 -0.028030396
vn -0.050598145 0.0038757324 -0.99853516
vn -0.050598145 0.0038757324 -0.99853516
vn -0.050598145 0.0038757324 -0.99853516
vn -0.050598145 0.0038757324 -0.99853516
vn -0.046661377 -0.0017633438 -0.99902344
vn -0.046661377 -0.0017633438 -0.99902344
vn -0.046661377 -0.0017633438 -0.99902344
vn -0.046661377 -0.0017633438 -0.99902344
vn 0.58984375 0.8076172 0.0046577454
vn 0.58984375 0.8076172 0.0046577454
vn 0.58984375 0.8076172 0.0046577454
vn 0.58984375 0.8076172 0.0046577454
vn 0.58154297 -0.81347656 0.0025787354
vn 0.58154297 -0.81347656 0.0025787354
vn 0.58154297 -0.81347656 0.0025787354
vn 0.58154297 -0.81347656 0.0025787354
vn 0.093933105 -0.015403748 -0.99560547
vn 0.093933105 -0.015403748 -0.99560547
vn 0.093933105 -0.015403748 -0.99560547
vn 0.093933105 -0.015403748 -0.99560547
vn -0.21276855 0.03933716 0.9760742
vn -0.052642822 0.007106781 0.99853516
vn -0.052642822 0.007106781 0.99853516
vn -0.25170898 0.04714966 0.9667969
vn -0.19836426 0.03640747 0.9794922
g GunBarrelLOD1_0
f 3/3/3 2/2/2 1/1/1
f 6/6/6 5/5/5 4/4/4
f 9/9/9 8/8/8 7/7/7
f 12/12/12 11/11/11 10/10/10
f 15/15/15 14/14/14 13/13/13
f 18/18/18 17/17/17 16/16/16
f 21/21/21 20/20/20 19/19/19
f 24/24/24 23/23/23 22/22/22
f 27/27/27 26/26/26 25/25/25
f 30/30/30 29/29/29 28/28/28
f 33/33/33 32/32/32 31/31/31
f 36/36/36 35/35/35 34/34/34
f 39/39/39 38/38/38 37/37/37
f 42/42/42 41/41/41 40/40/40
f 45/45/45 44/44/44 43/43/43
f 48/48/48 47/47/47 46/46/46
f 51/51/51 50/50/50 49/49/49
f 51/51/51 52/52/52 50/50/50
f 55/55/55 54/54/54 53/53/53
f 56/56/56 53/53/53 54/54/54
f 57/57/57 56/56/56 54/54/54
f 60/60/60 59/59/59 58/58/58
f 58/58/58 59/59/59 61/61/61
f 64/64/64 63/63/63 62/62/62
f 63/63/63 64/64/64 65/65/65
f 66/66/66 63/63/63 65/65/65
f 69/69/69 68/68/68 67/67/67
f 67/67/67 68/68/68 70/70/70
f 73/73/73 72/72/72 71/71/71
f 73/73/73 74/74/74 72/72/72
f 77/77/77 76/76/76 75/75/75
f 77/77/77 75/75/75 78/78/78
f 75/75/75 79/79/79 78/78/78
f 82/82/82 81/81/81 80/80/80
f 83/83/83 82/82/82 80/80/80
f 84/84/84 82/82/82 83/83/83
f 87/87/87 86/86/86 85/85/85
f 85/85/85 86/86/86 88/88/88
f 91/91/91 90/90/90 89/89/89
f 89/89/89 90/90/90 92/92/92
f 95/95/95 94/94/94 93/93/93
f 95/95/95 96/96/96 94/94/94
f 99/99/99 98/98/98 97/97/97
f 99/99/99 100/100/100 98/98/98
f 103/103/103 102/102/102 101/101/101
f 101/101/101 102/102/102 104/104/104
f 102/102/102 105/105/105 104/104/104
f 104/104/104 106/106/106 101/101/101
f 106/106/106 107/107/107 101/101/101
f 110/110/110 109/109/109 108/108/108
f 108/108/108 109/109/109 111/111/111
f 112/112/112 108/108/108 111/111/111
f 115/115/115 114/114/114 113/113/113
f 115/115/115 116/116/116 114/114/114
f 119/119/119 118/118/118 117/117/117
f 117/117/117 118/118/118 120/120/120
f 123/123/123 122/122/122 121/121/121
f 123/123/123 124/124/124 122/122/122
f 127/127/127 126/126/126 125/125/125
f 127/127/127 128/128/128 126/126/126
f 131/131/131 130/130/130 129/129/129
f 129/129/129 130/130/130 132/132/132
f 135/135/135 134/134/134 133/133/133
f 136/136/136 135/135/135 133/133/133
f 133/133/133 137/137/137 136/136/136
f 140/140/140 139/139/139 138/138/138
f 141/141/141 140/140/140 138/138/138
f 140/140/140 141/141/141 142/142/142
f 145/145/145 144/144/144 143/143/143
f 146/146/146 145/145/145 143/143/143
f 149/149/149 148/148/148 147/147/147
f 150/150/150 149/149/149 147/147/147
f 153/153/153 152/152/152 151/151/151
f 154/154/154 153/153/153 151/151/151
f 157/157/157 156/156/156 155/155/155
f 158/158/158 157/157/157 155/155/155
f 161/161/161 160/160/160 159/159/159
f 162/162/162 159/159/159 160/160/160
f 163/163/163 159/159/159 162/162/162
f 166/166/166 165/165/165 164/164/164
f 167/167/167 166/166/166 164/164/164
f 170/170/170 169/169/169 168/168/168
f 171/171/171 170/170/170 168/168/168
f 174/174/174 173/173/173 172/172/172
f 175/175/175 174/174/174 172/172/172
f 178/178/178 177/177/177 176/176/176
f 179/179/179 178/178/178 176/176/176
f 182/182/182 181/181/181 180/180/180
f 183/183/183 182/182/182 180/180/180
f 186/186/186 185/185/185 184/184/184
f 187/187/187 186/186/186 184/184/184
f 190/190/190 189/189/189 188/188/188
f 191/191/191 190/190/190 188/188/188
f 194/194/194 193/193/193 192/192/192
f 195/195/195 194/194/194 192/192/192
f 198/198/198 197/197/197 196/196/196
f 196/196/196 199/199/199 198/198/198
f 198/198/198 199/199/199 200/200/200
