g Hair
v -0.5838294 -1.564506 2.0665233
v -1.5754237 -1.7831944 5.00007
v -2.469738 -1.6931926 3.8689466
v -1.4781427 -1.4745038 0.9354019
v 0.010064602 -0.64536744 0.8856738
v 0.3439691 -2.0806413 0.11229622
v -0.15727186 -2.5562835 2.670796
v -0.4911766 -1.1210098 3.444174
v -1.1693466 -0.046292335 0.601616
v -0.7504586 -0.70456386 -2.8102846
v -1.0020195 -1.5851376 -1.0797296
v -1.4209076 -0.9268661 2.3321717
v 0.35493016 0.039973915 1.2259233
v 0.14079285 -0.4996429 -0.135378
v -1.6839875 -0.27752283 -0.102926135
v -1.4698501 0.26209384 1.2583753
v -0.56860876 -0.39972818 -2.3418865
v -1.7367465 -0.28596216 -1.3151777
v -0.75453615 0.8037785 0.8048457
v 0.4136014 0.69001305 -0.22186267
v -0.7418865 -0.20687872 -0.9134977
v -0.6837578 0.34013373 0.43906534
v 0.854084 -0.16116022 1.9636395
v 0.79595566 -0.7081726 0.611076
v 0.616555 -1.4208152 2.5577052
v 0.6278806 -0.5068315 -0.6483581
v 0.94547844 -0.9913447 -1.72278
v 0.9341526 -1.9053286 1.4832833
v -0.18328917 -0.8297173 0.89324784
v 0.096180916 -2.0457115 0.3029092
v -0.32815433 -2.4353042 2.459763
v -0.6076244 -1.2193103 3.0501015
v -0.6717317 -1.0869687 3.131597
v -1.3529522 -1.1058252 1.7281786
v -0.97358036 -2.2398367 1.4350938
v -0.2923602 -2.2209811 2.838512
v -1.7408144 -1.5841217 -0.022100687
v -0.59793663 -1.5206478 0.8577644
v -1.3945396 -1.1101077 4.453128
v -2.5374174 -1.1735816 3.5732627
v 0.74489594 0.6002984 -1.7299294
v -0.26487267 -0.81762743 -0.2522112
v -0.7448962 -0.60029906 1.7299306
v 0.26487255 0.81762683 0.25221246
v -0.30824506 0.41249365 0.4411742
v 0.04477334 0.147892 -0.9436443
v -0.27706528 -0.9455734 1.1615324
v -0.63008356 -0.68097156 2.5463505
v -0.53205264 -2.2701173 0.09065187
v 0.82545996 -2.1695752 -0.028955221
v 0.7693815 -1.6515235 4.071851
v -0.5881313 -1.7520658 4.1914577
v -1.3223245 -1.6444931 1.6001892
v -1.5534313 -0.46621835 4.0974655
v -1.0064232 0.29535538 1.7609149
v -0.77531695 -0.8829182 -0.73636127
v -0.14268947 -1.9374391 1.2109873
v -0.6533803 -2.0509596 4.5137696
v -1.4394815 -1.7688409 3.9205577
v -0.9287909 -1.6553197 0.61777484
v -0.85092914 -0.09931898 -1.380122
v -0.7978941 0.4985785 0.096450806
v 0.87202215 -0.050659597 1.8106259
v 0.8189869 -0.6485569 0.33405298
v -0.053788185 0.017930627 -0.7708123
v -1.5255232 -1.244018 -1.5889823
v -2.0937376 -1.468816 1.0926598
v -0.6220026 -0.20686747 1.9108307
v -0.9616827 -2.035119 2.1854608
v -1.8329246 -1.6218587 4.6183147
v -1.8377128 -0.95948595 3.1531506
v -0.96647096 -1.3727458 0.7202977
v -0.9130213 -0.3127043 1.1699735
v -0.5569848 -0.8722067 -1.7299945
v -0.7708006 -1.6206565 -0.25909805
v -1.1268373 -1.0611541 2.6408699
v -0.76621294 0.5185625 0.9995557
v -1.2539898 -0.4780953 -1.5682366
v -1.636092 -1.196542 0.629688
v -1.148315 -0.1998841 3.1974797
v -0.02094698 0.047605902 -0.6997683
v -1.186141 -0.9514965 -1.3475254
v -1.6360044 -1.129472 0.7755692
v -0.4708103 -0.13036978 1.4233266
v 1.6584287 -0.36416098 0.7256105
v -0.29373336 -0.6175265 -1.9950521
v -0.99916196 0.007879555 -0.5816952
v 0.9529996 0.26124495 2.1389675
v -0.31664443 -0.8737843 -2.0202875
v -0.65855885 -0.47385073 0.29688102
v 1.5533519 0.52913946 -0.4358914
v 1.8952665 0.12920547 -2.7530608
v 0.0044682026 -2.1941767 3.8355374
v -1.3030226 -1.6106474 2.3963192
v -0.8712616 -1.5361316 0.388125
v 0.43622923 -2.11966 1.8273429
v -1.7972935 0.048463047 1.711995
v -0.75373924 -0.52243984 -0.5099405
v -1.0107062 -1.2634327 1.086106
v -2.05426 -0.6925296 3.3080416
v -0.40838087 0.5547041 0.2416833
v -0.023387909 0.25911987 -1.2636826
v -0.39229274 -0.93553513 1.0543125
v -0.77728534 -0.6399507 2.5596776
v -1.0697063 -1.4842311 0.28993773
v -2.1608994 -0.5704037 3.1165805
v -1.8565687 0.15933208 2.1506257
v -0.7653755 -0.75449514 -0.67601776
v -0.14115477 -0.8177433 0.9873612
v 0.13786173 -2.02601 0.38333338
v -0.28387725 -2.4167886 2.5294762
v -0.56289434 -1.2085226 3.1335046
v -0.42508352 -0.3433298 -0.4800341
v -1.88503 -1.5951695 -1.2916512
v -2.4486928 -1.8181674 1.3685102
v -0.9887463 -0.56632715 2.1801283
v -1.0197664 -0.4596085 -1.7610836
v 0.29279256 1.0857588 -0.39607143
v 1.5223131 0.5326988 0.044018507
v 0.20975375 -1.012668 -1.3209932
v -1.784037 -0.60960704 0.5293015
v -1.776802 0.19637167 2.269186
v -0.8960483 0.6775874 0.26468474
v -0.90328276 -0.1283914 -1.4751985
v -1.7424281 -1.1770029 0.75871336
v -2.104209 -1.552851 2.9033425
v -1.7945005 -0.8426985 3.4527805
v -1.4327197 -0.46685064 1.3081509
v -1.4880116 -0.1474068 -0.99659944
v -1.418529 0.40306276 0.36640477
v 0.036314487 -0.18610589 2.1099558
v -0.033168316 -0.7365752 0.7469515
v 2.0201464 -0.62466264 -0.26743376
v 1.4662628 -1.157569 -1.6708252
v -0.27396965 -0.5201817 -1.3432529
v 0.27991343 0.012725025 0.060138106
v -1.1103024 -1.2340868 0.6160153
v -1.4789939 0.080951095 3.2113729
v -0.88077736 0.9075452 0.6266696
v -0.5120853 -0.4074927 -1.9686878
v -1.2494664 -1.7615299 0.63726604
v -0.07004678 -2.3944044 2.0996587
v -0.53753734 -1.8758065 5.103441
v -1.7169569 -1.2429321 3.6410477
v -1.7086849 -1.2563813 -0.030791044
v -0.7615713 -1.2049463 0.7523713
v -1.4244307 -0.74039143 3.5394053
v -2.371544 -0.79182667 2.7562413
v -0.14898658 -0.38143495 -0.290249
v -1.5253601 -1.5616145 -1.0554066
v -2.0567572 -1.7718468 1.4524779
v -0.6803832 -0.59166694 2.217635
v -1.1786315 0.3793667 1.3644465
v -1.0760894 -0.30900854 -1.1604035
v -1.3304633 -0.9822796 0.43844402
v -1.4330053 -0.29390454 2.9632945
v -0.4522072 -1.8719155 1.4654019
v -1.7813332 -2.5026822 3.8536725
v -2.243607 -1.8907434 3.3286805
v -0.9144807 -1.2599764 0.94041073
v -1.0876071 -0.16470106 1.3704348
v -0.9527466 0.59346074 0.2436741
v 0.10156107 0.3470978 -2.3729513
v -0.033299685 -0.4110639 -1.2461905
v -0.5244689 -0.4030724 -0.35324013
v -1.6719656 -1.3870003 -0.9911599
v -2.1149967 -1.562273 1.0996884
v -0.96749973 -0.578345 1.7376084
v 0.46881104 0.08403593 -2.5375051
v -0.2881031 0.37545544 0.17659223
v 1.3264308 -0.72978365 3.8863835
v 2.083345 -1.0212036 1.1722859
v 0.08609724 -0.31339294 -0.13994038
v -0.7116468 -0.24862392 4.308116
v -0.9302845 -1.2825595 5.209236
v -0.13254035 -1.3473291 0.76118076
v -0.67894125 -1.3752873 1.9674239
v -0.7183459 -0.6121432 1.9566607
v -1.373426 -0.89123 3.9522626
v -1.3340209 -1.6543747 3.963025
v 0.9672284 0.04808569 -0.9564636
v -0.46418488 0.37480676 3.2483926
v -1.473747 -0.6214431 3.907342
v -0.042333126 -0.9481643 -0.29751587
v -0.041395187 -0.6857828 -0.5185349
v 0.39283562 -0.8214383 4.1220217
v 0.07693672 -1.8512131 4.7470064
v -0.35729373 -1.715559 0.10645151
v -0.6134727 -1.7962255 1.2351273
v -0.39199328 -1.0630095 1.5451108
v -0.5591655 -1.4113358 3.8437338
v -0.78064513 -2.1445522 3.5337505
v 0.058490515 -0.10422832 -1.7813177
v 0.6608081 -0.281435 3.2433813
v 0.31472015 -1.410173 3.8913703
v -0.28759813 -1.2329663 -1.1333284
vt 0 0
vt 0 1
vt 1 1
vt 1 0
vt 0 0
vt 0 1
vt 1 1
vt 1 0
vt 0 0
vt 0 1
vt 1 1
vt 1 0
vt 1 0
vt 0 0
vt 0 1
vt 1 1
vt 1 0
vt 0 0
vt 0 1
vt 1 1
vt 1 0
vt 0 0
vt 0 1
vt 1 1
vt 0 0
vt 0 1
vt 1 1
vt 1 0
vt 0 0
vt 0 1
vt 1 1
vt 1 0
vt 1 0
vt 0 0
vt 0 1
vt 1 1
vt 1 0
vt 0 0
vt 0 1
vt 1 1
vt 1 1
vt 1 0
vt 0 0
vt 0 1
vt 1 0
vt 0 0
vt 0 1
vt 1 1
vt 1 0
vt 0 0
vt 0 1
vt 1 1
vt 0 0
vt 0 1
vt 1 1
vt 1 0
vt 0 0
vt 0 1
vt 1 1
vt 1 0
vt 1 0
vt 0 0
vt 0 1
vt 1 1
vt 0 0
vt 0 1
vt 1 1
vt 1 0
vt 0 0
vt 0 1
vt 1 1
vt 1 0
vt 0 0
vt 0 1
vt 1 1
vt 1 0
vt 0 0
vt 0 1
vt 1 1
vt 1 0
vt 0 0
vt 0 1
vt 1 1
vt 1 0
vt 0 0
vt 0 1
vt 1 1
vt 1 0
vt 1 0
vt 0 0
vt 0 1
vt 1 1
vt 0 0
vt 0 1
vt 1 1
vt 1 0
vt 0 0
vt 0 1
vt 1 1
vt 1 0
vt 1 0
vt 0 0
vt 0 1
vt 1 1
vt 0 0
vt 0 1
vt 1 1
vt 1 0
vt 0 0
vt 0 1
vt 1 1
vt 1 0
vt 0 0
vt 0 1
vt 1 1
vt 1 0
vt 0 0
vt 0 1
vt 1 1
vt 1 0
vt 0 0
vt 0 1
vt 1 1
vt 1 0
vt 1 0
vt 0 0
vt 0 1
vt 1 1
vt 1 0
vt 0 0
vt 0 1
vt 1 1
vt 1 0
vt 0 0
vt 0 1
vt 1 1
vt 0 0
vt 0 1
vt 1 1
vt 1 0
vt 1 0
vt 0 0
vt 0 1
vt 1 1
vt 1 0
vt 0 0
vt 0 1
vt 1 1
vt 0 0
vt 0 1
vt 1 1
vt 1 0
vt 0 0
vt 0 1
vt 1 1
vt 1 0
vt 0 0
vt 0 1
vt 1 1
vt 1 0
vt 1 0
vt 0 0
vt 0 1
vt 1 1
vt 0 0
vt 0 1
vt 1 1
vt 1 0
vt 1 0
vt 0 0
vt 0 1
vt 1 1
vt 0 0
vt 0 1
vt 1 1
vt 1 0
vt 1 0
vt 0 0
vt 0 1
vt 1 1
vt 0 0
vt 0 1
vt 1 1
vt 1 0
vt 0 0
vt 0 1
vt 1 1
vt 1 0
vt 1 0
vt 0 0
vt 0 1
vt 1 1
vt 0 0
vt 0 1
vt 1 1
vt 1 0
vn 0.004436493 0.9970703 0.075805664
vn 0.004436493 0.9970703 0.075805664
vn 0.004436493 0.9970703 0.075805664
vn 0.004436493 0.9970703 0.075805664
vn 0.9711914 0.11218262 0.21105957
vn 0.9711914 0.11218262 0.21105957
vn 0.9711914 0.11218262 0.21105957
vn 0.9711914 0.11218262 0.21105957
vn 0.99121094 -0.031921387 0.12780762
vn 0.99121094 -0.031921387 0.12780762
vn 0.99121094 -0.031921387 0.12780762
vn 0.99121094 -0.031921387 0.12780762
vn -0.105041504 -0.9189453 0.38061523
vn -0.105041504 -0.9189453 0.38061523
vn -0.105041504 -0.9189453 0.38061523
vn -0.105041504 -0.9189453 0.38061523
vn 0.22790527 -0.90478516 0.35961914
vn 0.22790527 -0.90478516 0.35961914
vn 0.22790527 -0.90478516 0.35961914
vn 0.22790527 -0.90478516 0.35961914
vn -0.57128906 -0.7519531 0.32885742
vn -0.57128906 -0.7519531 0.32885742
vn -0.57128906 -0.7519531 0.32885742
vn -0.57128906 -0.7519531 0.32885742
vn 0.9243164 0.36669922 0.107788086
vn 0.9243164 0.36669922 0.107788086
vn 0.9243164 0.36669922 0.107788086
vn 0.9243164 0.36669922 0.107788086
vn 0.96972656 0.11975098 0.21240234
vn 0.96972656 0.11975098 0.21240234
vn 0.96972656 0.11975098 0.21240234
vn 0.96972656 0.11975098 0.21240234
vn 0.82910156 0.3828125 -0.4074707
vn 0.82910156 0.3828125 -0.4074707
vn 0.82910156 0.3828125 -0.4074707
vn 0.82910156 0.3828125 -0.4074707
vn 0.02748108 0.99365234 -0.107421875
vn 0.02748108 0.99365234 -0.107421875
vn 0.02748108 0.99365234 -0.107421875
vn 0.02748108 0.99365234 -0.107421875
vn 0.8935547 -0.36865234 0.25683594
vn 0.8935547 -0.36865234 0.25683594
vn 0.8935547 -0.36865234 0.25683594
vn 0.8935547 -0.36865234 0.25683594
vn 0.9658203 0.13867188 0.21972656
vn 0.9658203 0.13867188 0.21972656
vn 0.9658203 0.13867188 0.21972656
vn 0.9658203 0.13867188 0.21972656
vn -0.08428955 0.98828125 -0.12597656
vn -0.08428955 0.98828125 -0.12597656
vn -0.08428955 0.98828125 -0.12597656
vn -0.08428955 0.98828125 -0.12597656
vn 0.97021484 -0.17211914 0.17102051
vn 0.97021484 -0.17211914 0.17102051
vn 0.97021484 -0.17211914 0.17102051
vn 0.97021484 -0.17211914 0.17102051
vn 0.2849121 0.9555664 0.0769043
vn 0.2849121 0.9555664 0.0769043
vn 0.2849121 0.9555664 0.0769043
vn 0.2849121 0.9555664 0.0769043
vn -0.5786133 -0.74853516 0.3239746
vn -0.5786133 -0.74853516 0.3239746
vn -0.5786133 -0.74853516 0.3239746
vn -0.5786133 -0.74853516 0.3239746
vn 0.6274414 -0.7758789 0.06793213
vn 0.6274414 -0.7758789 0.06793213
vn 0.6274414 -0.7758789 0.06793213
vn 0.6274414 -0.7758789 0.06793213
vn 0.84375 0.49023438 0.21887207
vn 0.84375 0.49023438 0.21887207
vn 0.84375 0.49023438 0.21887207
vn 0.84375 0.49023438 0.21887207
vn 0.99121094 -0.031921387 0.12780762
vn 0.99121094 -0.031921387 0.12780762
vn 0.99121094 -0.031921387 0.12780762
vn 0.99121094 -0.031921387 0.12780762
vn 0.8911133 -0.45336914 0.0067100525
vn 0.8911133 -0.45336914 0.0067100525
vn 0.8911133 -0.45336914 0.0067100525
vn 0.8911133 -0.45336914 0.0067100525
vn 0.6274414 -0.7758789 0.06793213
vn 0.6274414 -0.7758789 0.06793213
vn 0.6274414 -0.7758789 0.06793213
vn 0.6274414 -0.7758789 0.06793213
vn -0.26513672 -0.9238281 0.2763672
vn -0.26513672 -0.9238281 0.2763672
vn -0.26513672 -0.9238281 0.2763672
vn -0.26513672 -0.9238281 0.2763672
vn 0.46166992 -0.86035156 0.21655273
vn 0.46166992 -0.86035156 0.21655273
vn 0.46166992 -0.86035156 0.21655273
vn 0.46166992 -0.86035156 0.21655273
vn 0.30981445 0.9453125 0.10168457
vn 0.30981445 0.9453125 0.10168457
vn 0.30981445 0.9453125 0.10168457
vn 0.30981445 0.9453125 0.10168457
vn 0.8730469 0.37353516 0.31396484
vn 0.8730469 0.37353516 0.31396484
vn 0.8730469 0.37353516 0.31396484
vn 0.8730469 0.37353516 0.31396484
vn 0.9663086 0.13110352 0.22143555
vn 0.9663086 0.13110352 0.22143555
vn 0.9663086 0.13110352 0.22143555
vn 0.9663086 0.13110352 0.22143555
vn 0.9375 0.061706543 0.34204102
vn 0.9375 0.061706543 0.34204102
vn 0.9375 0.061706543 0.34204102
vn 0.9375 0.061706543 0.34204102
vn 0.97021484 0.11798096 0.2121582
vn 0.97021484 0.11798096 0.2121582
vn 0.97021484 0.11798096 0.2121582
vn 0.97021484 0.11798096 0.2121582
vn 0.6274414 -0.7758789 0.06793213
vn 0.6274414 -0.7758789 0.06793213
vn 0.6274414 -0.7758789 0.06793213
vn 0.6274414 -0.7758789 0.06793213
vn -0.44995117 -0.34521484 0.82373047
vn -0.44995117 -0.34521484 0.82373047
vn -0.44995117 -0.34521484 0.82373047
vn -0.44995117 -0.34521484 0.82373047
vn 0.82177734 -0.5180664 0.23669434
vn 0.82177734 -0.5180664 0.23669434
vn 0.82177734 -0.5180664 0.23669434
vn 0.82177734 -0.5180664 0.23669434
vn 0.8925781 -0.4453125 0.072509766
vn 0.8925781 -0.4453125 0.072509766
vn 0.8925781 -0.4453125 0.072509766
vn 0.8925781 -0.4453125 0.072509766
vn -0.6533203 -0.6899414 0.31201172
vn -0.6533203 -0.6899414 0.31201172
vn -0.6533203 -0.6899414 0.31201172
vn -0.6533203 -0.6899414 0.31201172
vn -0.23937988 -0.8725586 0.42578125
vn -0.23937988 -0.8725586 0.42578125
vn -0.23937988 -0.8725586 0.42578125
vn -0.23937988 -0.8725586 0.42578125
vn 0.97558594 -0.105529785 0.1920166
vn 0.97558594 -0.105529785 0.1920166
vn 0.97558594 -0.105529785 0.1920166
vn 0.97558594 -0.105529785 0.1920166
vn 0.5317383 0.84472656 -0.06311035
vn 0.5317383 0.84472656 -0.06311035
vn 0.5317383 0.84472656 -0.06311035
vn 0.5317383 0.84472656 -0.06311035
vn 0.068847656 0.9868164 -0.14807129
vn 0.068847656 0.9868164 -0.14807129
vn 0.068847656 0.9868164 -0.14807129
vn 0.068847656 0.9868164 -0.14807129
vn 0.6274414 -0.7758789 0.06793213
vn 0.6274414 -0.7758789 0.06793213
vn 0.6274414 -0.7758789 0.06793213
vn 0.6274414 -0.7758789 0.06793213
vn 0.9819336 -0.16772461 0.085632324
vn 0.9819336 -0.16772461 0.085632324
vn 0.9819336 -0.16772461 0.085632324
vn 0.9819336 -0.16772461 0.085632324
vn 0.4716797 0.7519531 0.4609375
vn 0.4716797 0.7519531 0.4609375
vn 0.4716797 0.7519531 0.4609375
vn 0.4716797 0.7519531 0.4609375
vn 0.88671875 0.32739258 0.32641602
vn 0.88671875 0.32739258 0.32641602
vn 0.88671875 0.32739258 0.32641602
vn 0.88671875 0.32739258 0.32641602
vn 0.6274414 -0.7758789 0.06793213
vn 0.6274414 -0.7758789 0.06793213
vn 0.6274414 -0.7758789 0.06793213
vn 0.6274414 -0.7758789 0.06793213
vn -0.49316406 -0.86865234 -0.04421997
vn -0.49316406 -0.86865234 -0.04421997
vn -0.49316406 -0.86865234 -0.04421997
vn -0.49316406 -0.86865234 -0.04421997
vn -0.98291016 0.053527832 -0.17700195
vn -0.98291016 0.053527832 -0.17700195
vn -0.98291016 0.053527832 -0.17700195
vn -0.98291016 0.053527832 -0.17700195
vn -0.94628906 -0.053375244 -0.31811523
vn -0.94628906 -0.053375244 -0.31811523
vn -0.94628906 -0.053375244 -0.31811523
vn -0.94628906 -0.053375244 -0.31811523
vn -0.76220703 0.57128906 -0.30395508
vn -0.76220703 0.57128906 -0.30395508
vn -0.76220703 0.57128906 -0.30395508
vn -0.76220703 0.57128906 -0.30395508
vn -0.93359375 0.34545898 0.09741211
vn -0.93359375 0.34545898 0.09741211
vn -0.93359375 0.34545898 0.09741211
vn -0.93359375 0.34545898 0.09741211
vn -0.95410156 0.29833984 -0.024169922
vn -0.95410156 0.29833984 -0.024169922
vn -0.95410156 0.29833984 -0.024169922
vn -0.95410156 0.29833984 -0.024169922
vn -0.9267578 0.35498047 0.12359619
vn -0.9267578 0.35498047 0.12359619
vn -0.9267578 0.35498047 0.12359619
vn -0.9267578 0.35498047 0.12359619
g Hair_0
f 3/3/3 2/2/2 1/1/1
f 4/4/4 3/3/3 1/1/1
f 7/7/7 6/6/6 5/5/5
f 8/8/8 7/7/7 5/5/5
f 11/11/11 10/10/10 9/9/9
f 12/12/12 11/11/11 9/9/9
f 15/15/15 14/14/14 13/13/13
f 16/16/16 15/15/15 13/13/13
f 19/19/19 18/18/18 17/17/17
f 20/20/20 19/19/19 17/17/17
f 23/23/23 22/22/22 21/21/21
f 24/24/24 23/23/23 21/21/21
f 27/27/27 26/26/26 25/25/25
f 28/28/28 27/27/27 25/25/25
f 31/31/31 30/30/30 29/29/29
f 32/32/32 31/31/31 29/29/29
f 35/35/35 34/34/34 33/33/33
f 36/36/36 35/35/35 33/33/33
f 39/39/39 38/38/38 37/37/37
f 40/40/40 39/39/39 37/37/37
f 43/43/43 42/42/42 41/41/41
f 44/44/44 43/43/43 41/41/41
f 47/47/47 46/46/46 45/45/45
f 48/48/48 47/47/47 45/45/45
f 51/51/51 50/50/50 49/49/49
f 52/52/52 51/51/51 49/49/49
f 55/55/55 54/54/54 53/53/53
f 56/56/56 55/55/55 53/53/53
f 59/59/59 58/58/58 57/57/57
f 60/60/60 59/59/59 57/57/57
f 63/63/63 62/62/62 61/61/61
f 64/64/64 63/63/63 61/61/61
f 67/67/67 66/66/66 65/65/65
f 68/68/68 67/67/67 65/65/65
f 71/71/71 70/70/70 69/69/69
f 72/72/72 71/71/71 69/69/69
f 75/75/75 74/74/74 73/73/73
f 76/76/76 75/75/75 73/73/73
f 79/79/79 78/78/78 77/77/77
f 80/80/80 79/79/79 77/77/77
f 83/83/83 82/82/82 81/81/81
f 84/84/84 83/83/83 81/81/81
f 87/87/87 86/86/86 85/85/85
f 88/88/88 87/87/87 85/85/85
f 91/91/91 90/90/90 89/89/89
f 92/92/92 91/91/91 89/89/89
f 95/95/95 94/94/94 93/93/93
f 96/96/96 95/95/95 93/93/93
f 99/99/99 98/98/98 97/97/97
f 100/100/100 99/99/99 97/97/97
f 103/103/103 102/102/102 101/101/101
f 104/104/104 103/103/103 101/101/101
f 107/107/107 106/106/106 105/105/105
f 108/108/108 107/107/107 105/105/105
f 111/111/111 110/110/110 109/109/109
f 112/112/112 111/111/111 109/109/109
f 115/115/115 114/114/114 113/113/113
f 116/116/116 115/115/115 113/113/113
f 119/119/119 118/118/118 117/117/117
f 120/120/120 119/119/119 117/117/117
f 123/123/123 122/122/122 121/121/121
f 124/124/124 123/123/123 121/121/121
f 127/127/127 126/126/126 125/125/125
f 128/128/128 127/127/127 125/125/125
f 131/131/131 130/130/130 129/129/129
f 132/132/132 131/131/131 129/129/129
f 135/135/135 134/134/134 133/133/133
f 136/136/136 135/135/135 133/133/133
f 139/139/139 138/138/138 137/137/137
f 140/140/140 139/139/139 137/137/137
f 143/143/143 142/142/142 141/141/141
f 144/144/144 143/143/143 141/141/141
f 147/147/147 146/146/146 145/145/145
f 148/148/148 147/147/147 145/145/145
f 151/151/151 150/150/150 149/149/149
f 152/152/152 151/151/151 149/149/149
f 155/155/155 154/154/154 153/153/153
f 156/156/156 155/155/155 153/153/153
f 159/159/159 158/158/158 157/157/157
f 160/160/160 159/159/159 157/157/157
f 163/163/163 162/162/162 161/161/161
f 164/164/164 163/163/163 161/161/161
f 167/167/167 166/166/166 165/165/165
f 168/168/168 167/167/167 165/165/165
f 171/171/171 170/170/170 169/169/169
f 172/172/172 171/171/171 169/169/169
f 175/175/175 174/174/174 173/173/173
f 176/176/176 175/175/175 173/173/173
f 179/179/179 178/178/178 177/177/177
f 180/180/180 179/179/179 177/177/177
f 183/183/183 182/182/182 181/181/181
f 184/184/184 183/183/183 181/181/181
f 187/187/187 186/186/186 185/185/185
f 188/188/188 187/187/187 185/185/185
f 191/191/191 190/190/190 189/189/189
f 192/192/192 191/191/191 189/189/189
f 195/195/195 194/194/194 193/193/193
f 196/196/196 195/195/195 193/193/193
