g HangarDoorLever
v -0.17595379 0.10295571 8.956587
v -0.1258287 0.078668386 3.0530465
v -0.053744093 0.10295571 3.0970342
v -0.22949745 0.08016029 8.923913
v -0.25877124 0.043320466 8.906047
v -0.15674466 0.02246189 3.0341794
v -0.26674396 -0.006402175 8.90294
v -0.15232669 -0.03231131 3.036876
v -0.25471663 -0.044530116 8.910279
v -0.12382987 -0.07150914 3.054269
v -0.23009561 -0.073692225 8.925302
v -0.07321142 -0.09593911 3.0851567
v -0.1765498 -0.09649188 8.957979
v 0.00012098439 -0.07577851 3.1299055
v -0.10446392 -0.07220372 9.001967
v 0.032041863 -0.026886294 3.1493843
v -0.07354796 -0.015998904 9.020831
v 0.036450908 0.012866858 3.152074
v -0.07527938 0.030057248 9.018019
v 0.024426134 0.050989702 3.1447346
v -0.10386875 0.07866669 9.000575
v -0.00019702129 0.08015689 3.1297119
v -0.053744093 0.10295571 3.0970342
v -0.17595379 0.10295571 8.956587
v 0.032041863 -0.026886294 3.1493843
v 0.036450908 0.012866858 3.152074
v 0.024426134 0.050989702 3.1447346
v 0.00012098439 -0.07577851 3.1299055
v -0.00019702129 0.08015689 3.1297119
v -0.07321142 -0.09593911 3.0851567
v -0.053744093 0.10295571 3.0970342
v -0.1258287 0.078668386 3.0530465
v -0.12382987 -0.07150914 3.054269
v -0.15232669 -0.03231131 3.036876
v -0.15674466 0.02246189 3.0341794
v -0.10386875 0.07866669 9.000575
v -0.17977642 0.20420021 9.12006
v -0.17595379 0.10295571 8.956587
v -0.035149284 0.15546814 9.208312
v -0.07527938 0.030057248 9.018019
v 0.022210829 0.057940982 9.243312
v -0.07354796 -0.015998904 9.020831
v 0.026876144 -0.034463376 9.246161
v -0.10446392 -0.07220372 9.001967
v -0.03515183 -0.14722942 9.208312
v -0.1765498 -0.09649188 8.957979
v -0.1797807 -0.19595976 9.120061
v -0.23009561 -0.073692225 8.925302
v -0.28721184 -0.15021586 9.054498
v -0.25471663 -0.044530116 8.910279
v -0.33661002 -0.09170673 9.024358
v -0.26674396 -0.006402175 8.90294
v -0.36074108 -0.015209064 9.009631
v -0.25877124 0.043320466 8.906047
v -0.34593642 0.08455153 9.018658
v -0.22949745 0.08016029 8.923913
v -0.28720337 0.15846482 9.054505
v -0.17595379 0.10295571 8.956587
v -0.17977642 0.20420021 9.12006
v -0.17977642 0.20420021 9.12006
v -0.22253817 0.20420021 10.698789
v -0.32996505 0.15846482 10.633234
v -0.28720337 0.15846482 9.054505
v -0.38869828 0.08455153 10.597387
v -0.34593642 0.08455153 9.018658
v -0.40350276 -0.015209064 10.58836
v -0.36074108 -0.015209064 9.009631
v -0.37937182 -0.09170673 10.603086
v -0.33661002 -0.09170673 9.024358
v -0.32997358 -0.15021586 10.633226
v -0.28721184 -0.15021586 9.054498
v -0.22254243 -0.19595976 10.69879
v -0.1797807 -0.19595976 9.120061
v -0.07791355 -0.14722942 10.787043
v -0.03515183 -0.14722942 9.208312
v -0.01588562 -0.034463376 10.82489
v 0.026876144 -0.034463376 9.246161
v -0.020550935 0.057940982 10.822041
v 0.022210829 0.057940982 9.243312
v -0.077911004 0.15546814 10.787043
v -0.035149284 0.15546814 9.208312
v -0.22253817 0.20420021 10.698789
v -0.17977642 0.20420021 9.12006
v -0.077911004 0.15546814 10.787043
v -0.22173974 0.44664934 10.704052
v -0.22253817 0.20420021 10.698789
v 0.09660339 0.3393837 10.898309
v -0.020550935 0.057940982 10.822041
v 0.22286028 0.12471388 10.975344
v -0.01588562 -0.034463376 10.82489
v 0.23312932 -0.07868007 10.981616
v -0.07791355 -0.14722942 10.787043
v 0.09659779 -0.3268927 10.898309
v -0.22254243 -0.19595976 10.69879
v -0.2217491 -0.43415445 10.704054
v -0.32997358 -0.15021586 10.633226
v -0.45821893 -0.33346626 10.559739
v -0.37937182 -0.09170673 10.603086
v -0.5669508 -0.20468006 10.493398
v -0.40350276 -0.015209064 10.58836
v -0.62006605 -0.036298826 10.460983
v -0.38869828 0.08455153 10.597387
v -0.5874795 0.18328713 10.480855
v -0.32996505 0.15846482 10.633234
v -0.4582003 0.34597978 10.559758
v -0.22253817 0.20420021 10.698789
v -0.22173974 0.44664934 10.704052
v 0.09660339 0.3393837 10.898309
v -0.26320997 0.44664934 12.48549
v -0.22173974 0.44664934 10.704052
v 0.055133164 0.3393837 12.679746
v 0.22286028 0.12471388 10.975344
v -0.279151 0.35392728 13.132184
v -0.027243655 0.26904714 13.285899
v 0.18139008 0.12471388 12.756778
v 0.23312932 -0.07868007 10.981616
v 0.07266438 0.0991773 13.346858
v 0.1916591 -0.07868007 12.763055
v 0.09659779 -0.3268927 10.898309
v 0.08079031 -0.061769877 13.351823
v 0.05512753 -0.3268927 12.679746
v -0.2217491 -0.43415445 10.704054
v -0.027248096 -0.25818247 13.285899
v -0.26321933 -0.43415445 12.485491
v -0.45821893 -0.33346626 10.559739
v -0.2791584 -0.34305948 13.132184
v -0.49968916 -0.33346626 12.341178
v -0.5669508 -0.20468006 10.493398
v -0.6084211 -0.20468006 12.274836
v -0.62006605 -0.036298826 10.460983
v -0.4662787 -0.26338416 13.017987
v -0.66153634 -0.036298826 12.242419
v -0.5874795 0.18328713 10.480855
v -0.55231917 -0.16147465 12.965491
v -0.62894964 0.18328713 12.262291
v -0.4582003 0.34597978 10.559758
v -0.5943495 -0.028233277 12.939841
v -0.49967054 0.34597978 12.341195
v -0.22173974 0.44664934 10.704052
v -0.26320997 0.44664934 12.48549
v -0.5685636 0.14552678 12.955565
v -0.46626404 0.27426666 13.018001
v -0.279151 0.35392728 13.132184
v -0.36044204 0.029716183 13.257883
v -0.27379715 0.03773357 13.304172
v -0.40781263 0.016759234 13.23257
v -0.41975346 -0.00072873646 13.226194
v -0.40029085 -0.0141387265 13.236593
v -0.36044854 -0.024395335 13.257876
v -0.2738009 -0.032414213 13.3041725
v -0.1571507 -0.023871826 13.366488
v -0.027248096 -0.25818247 13.285899
v -0.10712201 -0.004104006 13.39321
v 0.08079031 -0.061769877 13.351823
v -0.11088471 0.012094421 13.391198
v 0.07266438 0.0991773 13.346858
v -0.15714853 0.029190864 13.3664875
v -0.027243655 0.26904714 13.285899
v -0.27379715 0.03773357 13.304172
v -0.07895707 0.012094421 12.331199
v -0.075194426 -0.004104006 12.333212
v -0.12522301 -0.023871826 12.306487
v -0.12522084 0.029190864 12.306486
v -0.24186951 0.03773357 12.244171
v -0.2418732 -0.032414213 12.244173
v -0.3285144 0.029716183 12.197884
v -0.32852092 -0.024395335 12.197875
v -0.3758849 0.016759234 12.172571
v -0.36836323 -0.0141387265 12.176595
v -0.3878259 -0.00072873646 12.166198
v -0.11088471 0.012094421 13.391198
v -0.07895707 0.012094421 12.331199
v -0.12522084 0.029190864 12.306486
v -0.15714853 0.029190864 13.3664875
v -0.24186951 0.03773357 12.244171
v -0.27379715 0.03773357 13.304172
v -0.27379715 0.03773357 13.304172
v -0.24186951 0.03773357 12.244171
v -0.3285144 0.029716183 12.197884
v -0.36044204 0.029716183 13.257883
v -0.3758849 0.016759234 12.172571
v -0.40781263 0.016759234 13.23257
v -0.3878259 -0.00072873646 12.166198
v -0.41975346 -0.00072873646 13.226194
v -0.1571507 -0.023871826 13.366488
v -0.075194426 -0.004104006 12.333212
v -0.10712201 -0.004104006 13.39321
v -0.12522301 -0.023871826 12.306487
v -0.2738009 -0.032414213 13.3041725
v -0.2418732 -0.032414213 12.244173
v -0.36044854 -0.024395335 13.257876
v -0.32852092 -0.024395335 12.197875
v -0.40029085 -0.0141387265 13.236593
v -0.36836323 -0.0141387265 12.176595
v -0.41975346 -0.00072873646 13.226194
v -0.3878259 -0.00072873646 12.166198
v -0.10712201 -0.004104006 13.39321
v -0.075194426 -0.004104006 12.333212
v -0.07895707 0.012094421 12.331199
v -0.11088471 0.012094421 13.391198
vt 0.020950317 1
vt 0.11505127 0.5
vt 0.018478394 0.5
vt 0.10681152 1
vt 0.18383789 1
vt 0.21911621 0.5
vt 0.265625 1
vt 0.30810547 0.5
vt 0.33081055 1
vt 0.3876953 0.5
vt 0.39331055 1
vt 0.4794922 0.5
vt 0.48876953 1
vt 0.60595703 0.5
vt 0.6152344 1
vt 0.7006836 0.5
vt 0.7192383 1
vt 0.765625 0.5
vt 0.7939453 1
vt 0.8305664 0.5
vt 0.8847656 1
vt 0.8930664 0.5
vt 0.9790039 0.5
vt 0.9814453 1
vt 0.97753906 0.17687988
vt 0.98779297 0.2734375
vt 0.9589844 0.3659668
vt 0.89453125 0.06573486
vt 0.8984375 0.43701172
vt 0.72021484 0.01763916
vt 0.76660156 0.48364258
vt 0.59472656 0.42578125
vt 0.59472656 0.06829834
vt 0.5283203 0.1652832
vt 0.5175781 0.2956543
vt 0.8847656 1
vt 0.9814453 1
vt 0.9814453 1
vt 0.8847656 1
vt 0.7939453 1
vt 0.7939453 1
vt 0.7192383 1
vt 0.7192383 1
vt 0.6152344 1
vt 0.6152344 1
vt 0.48876953 1
vt 0.48876953 1
vt 0.39331055 1
vt 0.39331055 1
vt 0.33081055 1
vt 0.33081055 1
vt 0.265625 1
vt 0.265625 1
vt 0.18383789 1
vt 0.18383789 1
vt 0.10681152 1
vt 0.10681152 1
vt 0.020950317 1
vt 0.020950317 1
vt 0.020950317 1
vt 0.020950317 1
vt 0.10681152 1
vt 0.10681152 1
vt 0.18383789 1
vt 0.18383789 1
vt 0.265625 1
vt 0.265625 1
vt 0.33081055 1
vt 0.33081055 1
vt 0.39331055 1
vt 0.39331055 1
vt 0.48876953 1
vt 0.48876953 1
vt 0.6152344 1
vt 0.6152344 1
vt 0.7192383 1
vt 0.7192383 1
vt 0.7939453 1
vt 0.7939453 1
vt 0.8847656 1
vt 0.8847656 1
vt 0.9814453 1
vt 0.9814453 1
vt 0.8847656 1
vt 0.9814453 1
vt 0.9814453 1
vt 0.8847656 1
vt 0.7939453 1
vt 0.7939453 1
vt 0.7192383 1
vt 0.7192383 1
vt 0.6152344 1
vt 0.6152344 1
vt 0.48876953 1
vt 0.48876953 1
vt 0.39331055 1
vt 0.39331055 1
vt 0.33081055 1
vt 0.33081055 1
vt 0.265625 1
vt 0.265625 1
vt 0.18383789 1
vt 0.18383789 1
vt 0.10681152 1
vt 0.10681152 1
vt 0.020950317 1
vt 0.020950317 1
vt 0.8847656 1
vt 0.9814453 1
vt 0.9814453 1
vt 0.8847656 1
vt 0.7939453 1
vt 0.9814453 1
vt 0.8847656 1
vt 0.7939453 1
vt 0.7192383 1
vt 0.7939453 1
vt 0.7192383 1
vt 0.6152344 1
vt 0.7192383 1
vt 0.6152344 1
vt 0.48876953 1
vt 0.6152344 1
vt 0.48876953 1
vt 0.39331055 1
vt 0.48876953 1
vt 0.39331055 1
vt 0.33081055 1
vt 0.33081055 1
vt 0.265625 1
vt 0.39331055 1
vt 0.265625 1
vt 0.18383789 1
vt 0.33081055 1
vt 0.18383789 1
vt 0.10681152 1
vt 0.265625 1
vt 0.10681152 1
vt 0.020950317 1
vt 0.020950317 1
vt 0.18383789 1
vt 0.10681152 1
vt 0.020950317 1
vt 0.10681152 1
vt 0.020950317 1
vt 0.18383789 1
vt 0.265625 1
vt 0.33081055 1
vt 0.39331055 1
vt 0.48876953 1
vt 0.6152344 1
vt 0.6152344 1
vt 0.7192383 1
vt 0.7192383 1
vt 0.7939453 1
vt 0.7939453 1
vt 0.8847656 1
vt 0.8847656 1
vt 0.9814453 1
vt 0.47973633 0.31518555
vt 0.48242188 0.2043457
vt 0.4050293 0.07434082
vt 0.4050293 0.42578125
vt 0.23352051 0.48364258
vt 0.23352051 0.016296387
vt 0.101501465 0.43701172
vt 0.101501465 0.062927246
vt 0.033355713 0.34570312
vt 0.04119873 0.13391113
vt 0.012298584 0.22668457
vt 0.7939453 1
vt 0.7939453 1
vt 0.8847656 1
vt 0.8847656 1
vt 0.9814453 1
vt 0.9814453 1
vt 0.020950317 1
vt 0.020950317 1
vt 0.10681152 1
vt 0.10681152 1
vt 0.18383789 1
vt 0.18383789 1
vt 0.265625 1
vt 0.265625 1
vt 0.6152344 1
vt 0.7192383 1
vt 0.7192383 1
vt 0.6152344 1
vt 0.48876953 1
vt 0.48876953 1
vt 0.39331055 1
vt 0.39331055 1
vt 0.33081055 1
vt 0.33081055 1
vt 0.265625 1
vt 0.265625 1
vt 0.7192383 1
vt 0.7192383 1
vt 0.7939453 1
vt 0.7939453 1
vn 0.079956055 0.99658203 0.0020275116
vn -0.71484375 0.69921875 -0.014007568
vn -0.07989502 0.99658203 -0.0020275116
vn -0.5488281 0.8359375 -0.009902954
vn -0.9003906 0.43481445 -0.01612854
vn -0.9819336 0.18725586 -0.01889038
vn -0.99658203 -0.08258057 -0.017959595
vn -0.9448242 -0.32739258 -0.017929077
vn -0.8691406 -0.49414062 -0.016021729
vn -0.66748047 -0.7446289 -0.0124435425
vn -0.56347656 -0.8261719 -0.0104599
vn -0.18261719 -0.98339844 -0.0033340454
vn 0.054229736 -0.99853516 0.001033783
vn 0.53564453 -0.8442383 0.009971619
vn 0.69140625 -0.72216797 0.012878418
vn 0.93847656 -0.34521484 0.017288208
vn 0.9736328 -0.22729492 0.018310547
vn 0.9941406 0.105285645 0.018051147
vn 0.9667969 0.2541504 0.018371582
vn 0.8574219 0.51416016 0.015426636
vn 0.70214844 0.71191406 0.013618469
vn 0.5390625 0.84228516 0.009735107
vn -0.07989502 0.99658203 -0.0020275116
vn 0.079956055 0.99658203 0.0020275116
vn 0.5209961 0 -0.8535156
vn 0.5209961 0 -0.8535156
vn 0.5209961 0 -0.8535156
vn 0.5209961 0 -0.8535156
vn 0.5209961 0 -0.8535156
vn 0.5209961 0 -0.8535156
vn 0.5209961 0 -0.8535156
vn 0.5209961 0 -0.8535156
vn 0.5209961 0 -0.8535156
vn 0.5209961 0 -0.8535156
vn 0.5209961 0 -0.8535156
vn 0.66552734 0.6010742 -0.4423828
vn 0.3395996 0.80322266 -0.48950195
vn 0.17468262 0.8388672 -0.515625
vn 0.7504883 0.49926758 -0.43286133
vn 0.8881836 0.20568848 -0.4111328
vn 0.8955078 0.17126465 -0.41064453
vn 0.8959961 -0.16772461 -0.41137695
vn 0.9013672 -0.13696289 -0.4111328
vn 0.6713867 -0.59521484 -0.44189453
vn 0.7573242 -0.48950195 -0.43237305
vn 0.171875 -0.8413086 -0.5126953
vn 0.3388672 -0.8046875 -0.48706055
vn -0.28955078 -0.76220703 -0.57910156
vn -0.19812012 -0.8022461 -0.5629883
vn -0.5957031 -0.49536133 -0.6323242
vn -0.5576172 -0.5449219 -0.62597656
vn -0.7451172 -0.08087158 -0.6616211
vn -0.74365234 -0.09790039 -0.6616211
vn -0.64697266 0.40014648 -0.6489258
vn -0.61083984 0.46166992 -0.6430664
vn -0.30444336 0.75146484 -0.58496094
vn -0.20483398 0.796875 -0.5683594
vn 0.17468262 0.8388672 -0.515625
vn 0.3395996 0.80322266 -0.48950195
vn -0.1550293 0.98779297 -0.0041999817
vn 0.078125 0.9970703 0.002117157
vn -0.54785156 0.8364258 -0.014839172
vn -0.65478516 0.7558594 -0.017730713
vn -0.9003906 0.4338379 -0.024398804
vn -0.93066406 0.36523438 -0.02520752
vn -0.99609375 -0.086242676 -0.026977539
vn -0.9970703 -0.07305908 -0.027008057
vn -0.8564453 -0.515625 -0.02319336
vn -0.88964844 -0.45581055 -0.024093628
vn -0.53808594 -0.84277344 -0.014572144
vn -0.640625 -0.7675781 -0.017349243
vn 0.078125 -0.9970703 0.0021152496
vn -0.1550293 -0.98779297 -0.0041999817
vn 0.71240234 -0.70166016 0.01928711
vn 0.56591797 -0.82421875 0.015327454
vn 0.9790039 -0.203125 0.026504517
vn 0.96875 -0.24694824 0.026229858
vn 0.9638672 0.26464844 0.026107788
vn 0.94970703 0.31274414 0.02571106
vn 0.69970703 0.71435547 0.018951416
vn 0.55566406 0.8310547 0.015052795
vn 0.078125 0.9970703 0.002117157
vn -0.1550293 0.98779297 -0.0041999817
vn 0.52783203 0.013069153 -0.8491211
vn 0.5205078 0.016815186 -0.8535156
vn 0.52001953 0.016830444 -0.8540039
vn 0.5288086 0.01184845 -0.8486328
vn 0.5317383 0.0048332214 -0.8466797
vn 0.53222656 0.0043182373 -0.8466797
vn 0.53222656 -0.003932953 -0.8466797
vn 0.53222656 -0.003293991 -0.8466797
vn 0.52783203 -0.0131073 -0.8491211
vn 0.5288086 -0.011810303 -0.8486328
vn 0.52001953 -0.01713562 -0.8540039
vn 0.5205078 -0.01713562 -0.8535156
vn 0.5131836 -0.01486969 -0.85839844
vn 0.5126953 -0.014511108 -0.85839844
vn 0.50878906 -0.009178162 -0.86083984
vn 0.50878906 -0.008811951 -0.86083984
vn 0.5073242 -0.0015268326 -0.8618164
vn 0.5073242 -0.0014858246 -0.8618164
vn 0.5083008 0.0074424744 -0.86083984
vn 0.5083008 0.0071105957 -0.8613281
vn 0.5131836 0.014472961 -0.85839844
vn 0.5126953 0.014198303 -0.85839844
vn 0.52001953 0.016830444 -0.8540039
vn 0.5205078 0.016815186 -0.8535156
vn 0.55566406 0.8310547 0.012939453
vn -0.072631836 0.9951172 0.0670166
vn -0.15612793 0.98779297 -0.0036354065
vn 0.59765625 0.7963867 0.095825195
vn 0.94970703 0.31225586 0.022109985
vn -0.25024414 0.83935547 0.48242188
vn 0.640625 0.7480469 0.17382812
vn 0.94677734 0.30249023 0.109558105
vn 0.96875 -0.2467041 0.02255249
vn 0.9404297 0.28466797 0.18566895
vn 0.96533203 -0.23583984 0.11126709
vn 0.56640625 -0.82421875 0.013183594
vn 0.95751953 -0.21948242 0.18664551
vn 0.6098633 -0.7866211 0.09552002
vn -0.15625 -0.98779297 -0.0036354065
vn 0.65527344 -0.73535156 0.17236328
vn -0.07208252 -0.9951172 0.06585693
vn -0.64160156 -0.76660156 -0.0149383545
vn -0.2487793 -0.8417969 0.4790039
vn -0.6088867 -0.7919922 0.04534912
vn -0.8901367 -0.45483398 -0.020721436
vn -0.8798828 -0.4741211 0.03604126
vn -0.9970703 -0.07287598 -0.023208618
vn -0.64746094 -0.65527344 0.3894043
vn -0.99658203 -0.07788086 0.031311035
vn -0.93115234 0.3642578 -0.02166748
vn -0.8515625 -0.40625 0.3317871
vn -0.9194336 0.3918457 0.0340271
vn -0.6557617 0.7548828 -0.015266418
vn -0.95166016 -0.06903076 0.29907227
vn -0.6201172 0.7832031 0.04550171
vn -0.15612793 0.98779297 -0.0036354065
vn -0.072631836 0.9951172 0.0670166
vn -0.8847656 0.33935547 0.31884766
vn -0.65478516 0.6484375 0.38793945
vn -0.25024414 0.83935547 0.48242188
vn -0.6088867 0.39770508 0.68603516
vn -0.4482422 0.43969727 0.7783203
vn -0.7626953 0.26611328 0.58935547
vn -0.84033203 -0.05609131 0.5395508
vn -0.73535156 -0.31445312 0.60009766
vn -0.6044922 -0.40454102 0.68603516
vn -0.44604492 -0.4465332 0.7753906
vn -0.19689941 -0.4345703 0.87890625
vn -0.22875977 -0.44018555 0.86816406
vn 0.10687256 -0.18249512 0.97753906
vn 0.10235596 -0.19128418 0.9760742
vn 0.081848145 0.24035645 0.96728516
vn 0.07421875 0.25024414 0.96533203
vn -0.21508789 0.42919922 0.8774414
vn -0.24255371 0.43408203 0.8676758
vn -0.4482422 0.43969727 0.7783203
vn -0.4711914 2.5987625E-05 0.88183594
vn -0.4711914 2.5987625E-05 0.88183594
vn -0.4711914 2.5987625E-05 0.88183594
vn -0.4711914 2.5987625E-05 0.88183594
vn -0.4711914 2.5987625E-05 0.88183594
vn -0.4711914 2.5987625E-05 0.88183594
vn -0.4711914 2.5987625E-05 0.88183594
vn -0.4711914 2.5987625E-05 0.88183594
vn -0.4711914 2.5987625E-05 0.88183594
vn -0.4711914 2.5987625E-05 0.88183594
vn -0.4711914 2.5987625E-05 0.88183594
vn -0.34179688 -0.9399414 -0.010292053
vn -0.34179688 -0.9399414 -0.010292053
vn -0.17016602 -0.98535156 -0.0051231384
vn -0.24780273 -0.96875 -0.007461548
vn 0.03326416 -0.9995117 0.0010023117
vn -0.014404297 -1 -0.0004336834
vn -0.014404297 -1 -0.0004336834
vn 0.03326416 -0.9995117 0.0010023117
vn 0.20043945 -0.9794922 0.006038666
vn 0.15148926 -0.98828125 0.004562378
vn 0.6459961 -0.7631836 0.019454956
vn 0.50878906 -0.86083984 0.015327454
vn 0.82128906 -0.5698242 0.024734497
vn 0.82128906 -0.5698242 0.024734497
vn -0.2614746 0.96533203 -0.007873535
vn -0.3623047 0.9321289 -0.010917664
vn -0.3623047 0.9321289 -0.010917664
vn -0.17810059 0.9838867 -0.0053634644
vn -0.0143966675 1 -0.0004336834
vn 0.033294678 0.9995117 0.0010023117
vn 0.14624023 0.9892578 0.0044059753
vn 0.19116211 0.9814453 0.005756378
vn 0.3671875 0.9301758 0.011062622
vn 0.45263672 0.89160156 0.013633728
vn 0.56103516 0.8276367 0.016906738
vn 0.56103516 0.8276367 0.016906738
vn -0.97265625 -0.22961426 -0.029296875
vn -0.97265625 -0.22961426 -0.029296875
vn -0.97265625 -0.22961426 -0.029296875
vn -0.97265625 -0.22961426 -0.029296875
g HangarDoorLever_0
f 3/3/3 2/2/2 1/1/1
f 1/1/1 2/2/2 4/4/4
f 4/4/4 2/2/2 5/5/5
f 2/2/2 6/6/6 5/5/5
f 5/5/5 6/6/6 7/7/7
f 7/7/7 6/6/6 8/8/8
f 9/9/9 7/7/7 8/8/8
f 8/8/8 10/10/10 9/9/9
f 10/10/10 11/11/11 9/9/9
f 10/10/10 12/12/12 11/11/11
f 12/12/12 13/13/13 11/11/11
f 12/12/12 14/14/14 13/13/13
f 14/14/14 15/15/15 13/13/13
f 14/14/14 16/16/16 15/15/15
f 16/16/16 17/17/17 15/15/15
f 17/17/17 16/16/16 18/18/18
f 17/17/17 18/18/18 19/19/19
f 18/18/18 20/20/20 19/19/19
f 19/19/19 20/20/20 21/21/21
f 20/20/20 22/22/22 21/21/21
f 22/22/22 23/23/23 21/21/21
f 21/21/21 23/23/23 24/24/24
f 27/27/27 26/26/26 25/25/25
f 25/25/25 28/28/28 27/27/27
f 28/28/28 29/29/29 27/27/27
f 28/28/28 30/30/30 29/29/29
f 30/30/30 31/31/31 29/29/29
f 30/30/30 32/32/32 31/31/31
f 30/30/30 33/33/33 32/32/32
f 33/33/33 34/34/34 32/32/32
f 34/34/34 35/35/35 32/32/32
g HangarDoorLever_1
f 38/38/38 37/37/37 36/36/36
f 37/37/37 39/39/39 36/36/36
f 36/36/36 39/39/39 40/40/40
f 39/39/39 41/41/41 40/40/40
f 40/40/40 41/41/41 42/42/42
f 41/41/41 43/43/43 42/42/42
f 42/42/42 43/43/43 44/44/44
f 43/43/43 45/45/45 44/44/44
f 44/44/44 45/45/45 46/46/46
f 45/45/45 47/47/47 46/46/46
f 46/46/46 47/47/47 48/48/48
f 47/47/47 49/49/49 48/48/48
f 48/48/48 49/49/49 50/50/50
f 49/49/49 51/51/51 50/50/50
f 50/50/50 51/51/51 52/52/52
f 51/51/51 53/53/53 52/52/52
f 52/52/52 53/53/53 54/54/54
f 53/53/53 55/55/55 54/54/54
f 54/54/54 55/55/55 56/56/56
f 55/55/55 57/57/57 56/56/56
f 56/56/56 57/57/57 58/58/58
f 57/57/57 59/59/59 58/58/58
f 62/62/62 61/61/61 60/60/60
f 63/63/63 62/62/62 60/60/60
f 64/64/64 62/62/62 63/63/63
f 65/65/65 64/64/64 63/63/63
f 66/66/66 64/64/64 65/65/65
f 67/67/67 66/66/66 65/65/65
f 68/68/68 66/66/66 67/67/67
f 69/69/69 68/68/68 67/67/67
f 70/70/70 68/68/68 69/69/69
f 71/71/71 70/70/70 69/69/69
f 72/72/72 70/70/70 71/71/71
f 73/73/73 72/72/72 71/71/71
f 74/74/74 72/72/72 73/73/73
f 75/75/75 74/74/74 73/73/73
f 76/76/76 74/74/74 75/75/75
f 77/77/77 76/76/76 75/75/75
f 78/78/78 76/76/76 77/77/77
f 79/79/79 78/78/78 77/77/77
f 80/80/80 78/78/78 79/79/79
f 81/81/81 80/80/80 79/79/79
f 82/82/82 80/80/80 81/81/81
f 83/83/83 82/82/82 81/81/81
f 86/86/86 85/85/85 84/84/84
f 85/85/85 87/87/87 84/84/84
f 84/84/84 87/87/87 88/88/88
f 87/87/87 89/89/89 88/88/88
f 88/88/88 89/89/89 90/90/90
f 89/89/89 91/91/91 90/90/90
f 90/90/90 91/91/91 92/92/92
f 91/91/91 93/93/93 92/92/92
f 92/92/92 93/93/93 94/94/94
f 93/93/93 95/95/95 94/94/94
f 94/94/94 95/95/95 96/96/96
f 95/95/95 97/97/97 96/96/96
f 96/96/96 97/97/97 98/98/98
f 97/97/97 99/99/99 98/98/98
f 98/98/98 99/99/99 100/100/100
f 99/99/99 101/101/101 100/100/100
f 100/100/100 101/101/101 102/102/102
f 101/101/101 103/103/103 102/102/102
f 102/102/102 103/103/103 104/104/104
f 103/103/103 105/105/105 104/104/104
f 104/104/104 105/105/105 106/106/106
f 105/105/105 107/107/107 106/106/106
f 110/110/110 109/109/109 108/108/108
f 109/109/109 111/111/111 108/108/108
f 108/108/108 111/111/111 112/112/112
f 109/109/109 113/113/113 111/111/111
f 113/113/113 114/114/114 111/111/111
f 111/111/111 115/115/115 112/112/112
f 111/111/111 114/114/114 115/115/115
f 112/112/112 115/115/115 116/116/116
f 114/114/114 117/117/117 115/115/115
f 115/115/115 118/118/118 116/116/116
f 115/115/115 117/117/117 118/118/118
f 116/116/116 118/118/118 119/119/119
f 117/117/117 120/120/120 118/118/118
f 118/118/118 121/121/121 119/119/119
f 118/118/118 120/120/120 121/121/121
f 119/119/119 121/121/121 122/122/122
f 120/120/120 123/123/123 121/121/121
f 121/121/121 124/124/124 122/122/122
f 121/121/121 123/123/123 124/124/124
f 122/122/122 124/124/124 125/125/125
f 123/123/123 126/126/126 124/124/124
f 124/124/124 127/127/127 125/125/125
f 124/124/124 126/126/126 127/127/127
f 125/125/125 127/127/127 128/128/128
f 127/127/127 129/129/129 128/128/128
f 128/128/128 129/129/129 130/130/130
f 126/126/126 131/131/131 127/127/127
f 127/127/127 131/131/131 129/129/129
f 129/129/129 132/132/132 130/130/130
f 130/130/130 132/132/132 133/133/133
f 131/131/131 134/134/134 129/129/129
f 129/129/129 134/134/134 132/132/132
f 132/132/132 135/135/135 133/133/133
f 133/133/133 135/135/135 136/136/136
f 134/134/134 137/137/137 132/132/132
f 132/132/132 137/137/137 135/135/135
f 135/135/135 138/138/138 136/136/136
f 136/136/136 138/138/138 139/139/139
f 138/138/138 140/140/140 139/139/139
f 135/135/135 141/141/141 138/138/138
f 137/137/137 141/141/141 135/135/135
f 138/138/138 142/142/142 140/140/140
f 141/141/141 142/142/142 138/138/138
f 142/142/142 143/143/143 140/140/140
f 142/142/142 144/144/144 143/143/143
f 144/144/144 145/145/145 143/143/143
f 146/146/146 144/144/144 142/142/142
f 141/141/141 146/146/146 142/142/142
f 147/147/147 146/146/146 141/141/141
f 137/137/137 147/147/147 141/141/141
f 148/148/148 147/147/147 137/137/137
f 134/134/134 148/148/148 137/137/137
f 149/149/149 148/148/148 134/134/134
f 131/131/131 149/149/149 134/134/134
f 150/150/150 149/149/149 131/131/131
f 126/126/126 150/150/150 131/131/131
f 151/151/151 150/150/150 126/126/126
f 152/152/152 151/151/151 126/126/126
f 153/153/153 151/151/151 152/152/152
f 154/154/154 153/153/153 152/152/152
f 155/155/155 153/153/153 154/154/154
f 156/156/156 155/155/155 154/154/154
f 157/157/157 155/155/155 156/156/156
f 158/158/158 157/157/157 156/156/156
f 159/159/159 157/157/157 158/158/158
f 113/113/113 159/159/159 158/158/158
f 162/162/162 161/161/161 160/160/160
f 160/160/160 163/163/163 162/162/162
f 163/163/163 164/164/164 162/162/162
f 164/164/164 165/165/165 162/162/162
f 164/164/164 166/166/166 165/165/165
f 166/166/166 167/167/167 165/165/165
f 166/166/166 168/168/168 167/167/167
f 168/168/168 169/169/169 167/167/167
f 168/168/168 170/170/170 169/169/169
f 173/173/173 172/172/172 171/171/171
f 174/174/174 173/173/173 171/171/171
f 175/175/175 173/173/173 174/174/174
f 176/176/176 175/175/175 174/174/174
f 179/179/179 178/178/178 177/177/177
f 180/180/180 179/179/179 177/177/177
f 181/181/181 179/179/179 180/180/180
f 182/182/182 181/181/181 180/180/180
f 183/183/183 181/181/181 182/182/182
f 184/184/184 183/183/183 182/182/182
f 187/187/187 186/186/186 185/185/185
f 186/186/186 188/188/188 185/185/185
f 185/185/185 188/188/188 189/189/189
f 188/188/188 190/190/190 189/189/189
f 189/189/189 190/190/190 191/191/191
f 190/190/190 192/192/192 191/191/191
f 191/191/191 192/192/192 193/193/193
f 192/192/192 194/194/194 193/193/193
f 193/193/193 194/194/194 195/195/195
f 194/194/194 196/196/196 195/195/195
f 199/199/199 198/198/198 197/197/197
f 200/200/200 199/199/199 197/197/197
