g HouseWindows
v 0.30613613 0 -0.2415468
v 0.30613613 0 0.24154681
v -0.30613625 2.3841858E-07 0.24154681
v -0.30613625 2.3841858E-07 -0.24154681
v 0.77345824 -2.7890587 -0.26235592
v 0.77345777 -3.2721524 -0.26235592
v 0.77345777 -3.2721524 0.28646445
v 0.77345824 -2.7890587 0.28646445
v 0.7734587 -2.156032 -0.26235592
v 0.77345824 -2.6391258 -0.26235592
v 0.77345824 -2.6391258 0.28646445
v 0.7734587 -2.156032 0.28646445
v 0.7734592 -0.88454974 -0.22949255
v 0.7734592 -0.88454974 0.2536011
v 0.7734597 -0.21363246 0.2536011
v 0.7734597 -0.21363246 -0.22949256
v -0.30613783 -3.4092016 -0.24154682
v -0.30613783 -3.4092016 0.24154684
v 0.3061346 -3.4092019 0.24154684
v 0.3061346 -3.4092019 -0.24154684
v -1.5093026 -3.8586693 -0.3257308
v -2.0118196 -3.858669 -0.3257308
v -2.0118196 -3.858669 0.4196583
v -1.5093026 -3.8586693 0.4196583
v -2.7746549 -2.68387 -0.2683
v -2.7746549 -2.68387 0.21479365
v -2.7746546 -3.3547873 0.21479365
v -2.7746546 -3.3547873 -0.26830003
v -2.7746544 -1.483994 -0.2683
v -2.7746544 -1.483994 0.21479365
v -2.7746542 -2.1549113 0.21479365
v -2.7746542 -2.1549113 -0.26830003
v -2.774654 -0.23055774 -0.2683
v -2.774654 -0.23055774 0.21479365
v -2.7746537 -0.9014751 0.21479365
v -2.7746537 -0.9014751 -0.26830003
vt 0 1.0008483
vt 1 1.0008488
vt 1 0.00024743166
vt 0 0.0002471797
vt 0 1.0008483
vt 1 1.0008488
vt 1 0.00024743166
vt 0 0.0002471797
vt 0 1.0008483
vt 1 1.0008488
vt 1 0.00024743166
vt 0 0.0002471797
vt 0 1.0008483
vt 1 1.0008488
vt 1 0.00024743166
vt 0 0.0002471797
vt 0 1.0008483
vt 1 1.0008488
vt 1 0.00024743166
vt 0 0.0002471797
vt 0 1.0008483
vt 1 1.0008488
vt 1 0.00024743166
vt 0 0.0002471797
vt 0 1.0008483
vt 1 1.0008488
vt 1 0.00024743166
vt 0 0.0002471797
vt 0 1.0008483
vt 1 1.0008488
vt 1 0.00024743166
vt 0 0.0002471797
vt 0 1.0008483
vt 1 1.0008488
vt 1 0.00024743166
vt 0 0.0002471797
vn -0 1 0
vn -0 1 0
vn -0 1 0
vn -0 1 0
vn 1 0 0
vn 1 0 0
vn 1 0 0
vn 1 0 0
vn 1 0 0
vn 1 0 0
vn 1 0 0
vn 1 0 0
vn 1 0 0
vn 1 0 0
vn 1 0 0
vn 1 0 0
vn -0 -1 0
vn -0 -1 0
vn -0 -1 0
vn -0 -1 0
vn -0 -1 0
vn -0 -1 0
vn -0 -1 0
vn -0 -1 0
vn -1 0 0
vn -1 0 0
vn -1 0 0
vn -1 0 0
vn -1 0 0
vn -1 0 0
vn -1 0 0
vn -1 0 0
vn -1 0 0
vn -1 0 0
vn -1 0 0
vn -1 0 0
g HouseWindows_0
f 3/3/3 2/2/2 1/1/1
f 4/4/4 3/3/3 1/1/1
f 7/7/7 6/6/6 5/5/5
f 8/8/8 7/7/7 5/5/5
f 11/11/11 10/10/10 9/9/9
f 12/12/12 11/11/11 9/9/9
f 15/15/15 14/14/14 13/13/13
f 16/16/16 15/15/15 13/13/13
f 19/19/19 18/18/18 17/17/17
f 20/20/20 19/19/19 17/17/17
f 23/23/23 22/22/22 21/21/21
f 24/24/24 23/23/23 21/21/21
f 27/27/27 26/26/26 25/25/25
f 28/28/28 27/27/27 25/25/25
f 31/31/31 30/30/30 29/29/29
f 32/32/32 31/31/31 29/29/29
f 35/35/35 34/34/34 33/33/33
f 36/36/36 35/35/35 33/33/33
