g LargerPillow
v 0.0033356426 1.2970926 2.2637815
v 0.6806367 1.6044424 1.2918614
v 0.74764305 1.3058324 1.6360575
v 0.014579946 1.5343093 1.9072261
v -0.734849 1.3550336 1.6176088
v -0.6745098 1.7943535 0.9679256
v -7.450581E-09 1.8242091 1.2464368
v 0.68084985 2.004158 0.5081073
v 0.032372653 2.1001327 0.5022648
v -0.63853115 2.0049653 0.54753715
v 0.5515955 2.160049 0.08870468
v 0.87865555 2.0072603 9.313226E-09
v 0.63336134 2.0686758 -0.39310315
v -0.5466286 2.163777 0.058801025
v -0.87865555 2.00726 1.8626451E-09
v -1.3038516E-08 2.194148 0
v -0.5000001 2.1220222 -0.28723085
v -0.6385311 2.0049653 -0.54753715
v -0.03777669 2.116064 -0.45957166
v 0.6794582 1.7877252 -0.98409766
v -0.6822657 1.7787644 -0.960449
v -0.012152603 1.5786515 -1.8171974
v 0.7498831 1.2858336 -1.6679578
v -0.74903417 1.2965966 -1.6604083
v -0.0033353704 1.2970928 -2.2637804
v -0.0033353704 1.2970928 -2.2637804
v -0.0017809507 0.815887 -2.3977258
v 0.7498831 1.2858336 -1.6679578
v 0.751731 0.069949806 -1.7387469
v 8.800998E-08 -0.0722763 -2.3343775
v 6.874325E-08 -0.4433778 -2.167398
v 0.71525764 -0.44337782 -1.5762893
v 1.0405421 0.04993936 0.0010409767
v 1.025038 1.3216628 0.01358794
v 0.6794582 1.7877252 -0.98409766
v 0.96127355 -0.5663187 0.0036709227
v 0.6664976 -0.807312 -1.2560095
v 0.9018555 1.8430064 -0.027512992
v 0.63336134 2.0686758 -0.39310315
v 0.87865555 2.0072603 9.313226E-09
v 0.68084985 2.004158 0.5081073
v 0.6806367 1.6044424 1.2918614
v 0.74764305 1.3058324 1.6360575
v 0.76142806 0.82615227 1.7556857
v 0.0033356426 1.2970926 2.2637815
v 0.0017812015 0.8158856 2.397727
v 6.845221E-08 -0.0722763 2.3343785
v 0.73148453 -0.35497823 1.62523
v 5.0466042E-08 -0.4433778 2.167399
v 0.01197954 -0.7012442 1.8816377
v 0.6741654 -0.816721 1.224019
v 0.886705 -1.0765173 -0.050329905
v 0.6796443 -1.1439277 0.60718334
v 0.6666667 -1.023112 -0.8897161
v 0.87808645 -1.1977413 -2.3283064E-09
v 0.6475195 -1.2343435 -0.44185048
v -0.0033353704 1.2970928 -2.2637804
v -0.74903417 1.2965966 -1.6604083
v -0.0017809507 0.815887 -2.3977258
v -0.7515208 0.06668824 -1.7392925
v 8.800998E-08 -0.0722763 -2.3343775
v 6.874325E-08 -0.4433778 -2.167398
v -0.7152576 -0.44337782 -1.5762893
v -1.0405424 0.049942497 0.0010410699
v -0.929283 -0.7502661 -0.0026446786
v -0.6721846 -0.82945085 -1.2046777
v -0.66666675 -1.023112 -0.88971597
v -1.0250379 1.3216627 0.013588064
v -0.6822657 1.7787644 -0.960449
v -0.91666675 -1.0231122 2.188608E-08
v -0.6363016 -1.2520791 -0.39011884
v -0.87808645 -1.1977412 -1.3969839E-09
v -0.6738477 -1.1825976 0.54922754
v -0.67198133 -0.79227996 1.2738514
v -0.73178333 -0.34153914 1.6335591
v 0.01197954 -0.7012442 1.8816377
v 5.0466042E-08 -0.4433778 2.167399
v 6.845221E-08 -0.0722763 2.3343785
v -0.7616137 0.8161488 1.7551486
v 0.0017812015 0.8158856 2.397727
v 0.0033356426 1.2970926 2.2637815
v -0.734849 1.3550336 1.6176088
v -0.6745098 1.7943535 0.9679256
v -0.8899523 1.8769763 -0.05069215
v -0.63853115 2.0049653 0.54753715
v -0.87865555 2.00726 1.8626451E-09
v -0.6385311 2.0049653 -0.54753715
v -0.011979519 -0.7012442 -1.8816373
v 6.874325E-08 -0.4433778 -2.167398
v -0.7152576 -0.44337782 -1.5762893
v 0.71525764 -0.44337782 -1.5762893
v -0.6721846 -0.82945085 -1.2046777
v -0.019371072 -1.043603 -1.1614496
v 0.6664976 -0.807312 -1.2560095
v -0.66666675 -1.023112 -0.88971597
v 0.6666667 -1.023112 -0.8897161
v -0.6363016 -1.2520791 -0.39011884
v 0.6475195 -1.2343435 -0.44185048
v 0.033312414 -1.3740041 -0.07523277
v -0.55149144 -1.3407966 0.08173289
v -0.87808645 -1.1977412 -1.3969839E-09
v -0.6738477 -1.1825976 0.54922754
v 0.5461391 -1.3444571 0.051234283
v 0.87808645 -1.1977413 -2.3283064E-09
v 0.6796443 -1.1439277 0.60718334
v -0.0298717 -1.2794428 0.50286764
v 8.8475645E-09 -1.023112 1.2233598
v -0.67198133 -0.79227996 1.2738514
v 0.6741654 -0.816721 1.224019
v 0.01197954 -0.7012442 1.8816377
vt 0.9169922 0.52685547
vt 0.8256836 0.41308594
vt 0.8227539 0.46020508
vt 0.9111328 0.48046875
vt 1 0.4440918
vt 0.984375 0.35961914
vt 0.90527344 0.3972168
vt 0.81689453 0.31323242
vt 0.8935547 0.30493164
vt 0.97558594 0.30639648
vt 0.8276367 0.26000977
vt 0.7890625 0.25585938
vt 0.8149414 0.20666504
vt 0.95947266 0.24682617
vt 1 0.24047852
vt 0.8930664 0.24414062
vt 0.95166016 0.20788574
vt 0.9667969 0.17895508
vt 0.89453125 0.1920166
vt 0.8071289 0.14428711
vt 0.9707031 0.13537598
vt 0.8852539 0.045837402
vt 0.7973633 0.076171875
vt 0.9770508 0.0637207
vt 0.8833008 0
vt 0.07562256 0.54589844
vt 0.13220215 0.56591797
vt 0.08319092 0.4831543
vt 0.2286377 0.50146484
vt 0.23950195 0.56591797
vt 0.28564453 0.5493164
vt 0.29174805 0.48632812
vt 0.24658203 0.29956055
vt 0.09387207 0.28710938
vt 0.028701782 0.39746094
vt 0.32055664 0.3034668
vt 0.33813477 0.45117188
vt 0.030670166 0.28637695
vt 0 0.32495117
vt 0.011138916 0.28149414
vt 0.015640259 0.21960449
vt 0.07043457 0.13061523
vt 0.109436035 0.09313965
vt 0.16809082 0.08319092
vt 0.114868164 0.011779785
vt 0.17382812 0
vt 0.2800293 0.014907837
vt 0.3088379 0.1081543
vt 0.3232422 0.037719727
vt 0.35180664 0.07373047
vt 0.36083984 0.15881348
vt 0.38134766 0.31347656
vt 0.3947754 0.234375
vt 0.3671875 0.4099121
vt 0.39624023 0.3083496
vt 0.39648438 0.35864258
vt 0.7163086 0.54785156
vt 0.7138672 0.4753418
vt 0.65966797 0.5678711
vt 0.56689453 0.4951172
vt 0.5522461 0.5678711
vt 0.50634766 0.55078125
vt 0.50439453 0.4802246
vt 0.55126953 0.2890625
vt 0.45458984 0.29638672
vt 0.4543457 0.43945312
vt 0.4284668 0.4038086
vt 0.7036133 0.27685547
vt 0.765625 0.38867188
vt 0.421875 0.29833984
vt 0.39648438 0.3466797
vt 0.40063477 0.2998047
vt 0.39697266 0.23486328
vt 0.4375 0.14587402
vt 0.48876953 0.099365234
vt 0.4404297 0.073913574
vt 0.46899414 0.037902832
vt 0.51220703 0.01499176
vt 0.6269531 0.07519531
vt 0.61816406 0
vt 0.6772461 0.011795044
vt 0.6928711 0.08691406
vt 0.75097656 0.16015625
vt 0.7705078 0.27978516
vt 0.77978516 0.20825195
vt 0.78564453 0.27270508
vt 0.7890625 0.33789062
vt 0.91796875 0.95996094
vt 0.92041016 1
vt 0.9995117 0.9238281
vt 0.828125 0.9399414
vt 0.9892578 0.87158203
vt 0.91015625 0.86816406
vt 0.82958984 0.8930664
vt 0.9848633 0.8300781
vt 0.82470703 0.84521484
vt 0.97509766 0.76708984
vt 0.82177734 0.78759766
vt 0.890625 0.7348633
vt 0.95947266 0.7109375
vt 0.9995117 0.7207031
vt 0.9692383 0.66015625
vt 0.828125 0.7270508
vt 0.7890625 0.7402344
vt 0.80615234 0.6694336
vt 0.89208984 0.6699219
vt 0.88134766 0.5942383
vt 0.96191406 0.58691406
vt 0.80078125 0.6069336
vt 0.8730469 0.52685547
vn 0.00010830164 0.5205078 0.8540039
vn 0.64404297 0.6777344 0.35546875
vn 0.7885742 0.39379883 0.4724121
vn 0.012008667 0.8540039 0.51953125
vn -0.7626953 0.43896484 0.47485352
vn -0.6323242 0.6933594 0.34570312
vn 0.018936157 0.91503906 0.40283203
vn 0.5498047 0.7734375 0.31469727
vn 0.0012073517 0.95458984 0.29785156
vn -0.50927734 0.79541016 0.32885742
vn 0.23754883 0.9692383 0.06518555
vn 0.79589844 0.6035156 0.047973633
vn 0.44750977 0.8496094 -0.27929688
vn -0.24914551 0.96728516 0.0491333
vn -0.72216797 0.69140625 0.027770996
vn 0.008979797 1 -0.002922058
vn -0.21643066 0.95166016 -0.2175293
vn -0.49047852 0.8051758 -0.33398438
vn -0.0041503906 0.95751953 -0.28857422
vn 0.61865234 0.7055664 -0.34545898
vn -0.6352539 0.69189453 -0.34326172
vn -0.008041382 0.86035156 -0.50927734
vn 0.78564453 0.37524414 -0.49194336
vn -0.78564453 0.38183594 -0.4868164
vn -0.0027561188 0.53271484 -0.8461914
vn -0.0027561188 0.53271484 -0.8461914
vn -0.0022563934 0.0927124 -0.99560547
vn 0.78564453 0.37524414 -0.49194336
vn 0.85302734 -0.105773926 -0.5107422
vn 0.00067424774 -0.22717285 -0.9736328
vn 0.0030994415 -0.52685547 -0.85009766
vn 0.7963867 -0.37597656 -0.47338867
vn 0.99853516 -0.057861328 -0.0028934479
vn 0.9902344 0.13977051 7.408857E-05
vn 0.61865234 0.7055664 -0.34545898
vn 0.98876953 -0.14904785 0.0027980804
vn 0.6743164 -0.6220703 -0.3972168
vn 0.9506836 0.3095703 -0.014335632
vn 0.44750977 0.8496094 -0.27929688
vn 0.79589844 0.6035156 0.047973633
vn 0.5498047 0.7734375 0.31469727
vn 0.64404297 0.6777344 0.35546875
vn 0.7885742 0.39379883 0.4724121
vn 0.85546875 0.045196533 0.515625
vn 0.00010830164 0.5205078 0.8540039
vn 0.0002641678 0.07922363 0.9970703
vn 0.0010824203 -0.22045898 0.97558594
vn 0.8125 -0.2993164 0.5
vn -0.0023117065 -0.54541016 0.8383789
vn 0.01322937 -0.7705078 0.6376953
vn 0.68359375 -0.61572266 0.3918457
vn 0.96484375 -0.25805664 -0.04547119
vn 0.5576172 -0.7651367 0.32250977
vn 0.5800781 -0.7236328 -0.37426758
vn 0.8129883 -0.57910156 0.060638428
vn 0.45117188 -0.84033203 -0.30078125
vn -0.0027561188 0.53271484 -0.8461914
vn -0.78564453 0.38183594 -0.4868164
vn -0.0022563934 0.0927124 -0.99560547
vn -0.85302734 -0.1071167 -0.5107422
vn 0.00067424774 -0.22717285 -0.9736328
vn 0.0030994415 -0.52685547 -0.85009766
vn -0.79589844 -0.37695312 -0.4741211
vn -0.9980469 -0.06149292 -0.0028476715
vn -0.98095703 -0.19445801 -0.0017271042
vn -0.6879883 -0.6088867 -0.3947754
vn -0.65771484 -0.65185547 -0.37768555
vn -0.98779297 0.1550293 -0.0012493134
vn -0.6352539 0.69189453 -0.34326172
vn -0.95214844 -0.30493164 0.009147644
vn -0.44189453 -0.85009766 -0.28588867
vn -0.76220703 -0.64697266 0.019058228
vn -0.5913086 -0.7363281 0.32885742
vn -0.6791992 -0.6118164 0.4050293
vn -0.8129883 -0.29418945 0.5029297
vn 0.01322937 -0.7705078 0.6376953
vn -0.0023117065 -0.54541016 0.8383789
vn 0.0010824203 -0.22045898 0.97558594
vn -0.85546875 0.052520752 0.515625
vn 0.0002641678 0.07922363 0.9970703
vn 0.00010830164 0.5205078 0.8540039
vn -0.7626953 0.43896484 0.47485352
vn -0.6323242 0.6933594 0.34570312
vn -0.92333984 0.38012695 -0.057495117
vn -0.50927734 0.79541016 0.32885742
vn -0.72216797 0.69140625 0.027770996
vn -0.49047852 0.8051758 -0.33398438
vn -0.013442993 -0.78027344 -0.6254883
vn 0.0030994415 -0.52685547 -0.85009766
vn -0.79589844 -0.37695312 -0.4741211
vn 0.7963867 -0.37597656 -0.47338867
vn -0.6879883 -0.6088867 -0.3947754
vn -0.008102417 -0.91064453 -0.41357422
vn 0.6743164 -0.6220703 -0.3972168
vn -0.65771484 -0.65185547 -0.37768555
vn 0.5800781 -0.7236328 -0.37426758
vn -0.44189453 -0.85009766 -0.28588867
vn 0.45117188 -0.84033203 -0.30078125
vn 0.0038757324 -0.9970703 -0.07562256
vn -0.22583008 -0.97216797 0.06427002
vn -0.76220703 -0.64697266 0.019058228
vn -0.5913086 -0.7363281 0.32885742
vn 0.2290039 -0.9716797 0.05847168
vn 0.8129883 -0.57910156 0.060638428
vn 0.5576172 -0.7651367 0.32250977
vn 0.003200531 -0.9609375 0.2770996
vn 0.0014419556 -0.90527344 0.42504883
vn -0.6791992 -0.6118164 0.4050293
vn 0.68359375 -0.61572266 0.3918457
vn 0.01322937 -0.7705078 0.6376953
g LargerPillow_0
f 3/3/3 2/2/2 1/1/1
f 1/1/1 2/2/2 4/4/4
f 5/5/5 1/1/1 4/4/4
f 6/6/6 5/5/5 4/4/4
f 7/7/7 4/4/4 2/2/2
f 6/6/6 4/4/4 7/7/7
f 8/8/8 7/7/7 2/2/2
f 6/6/6 7/7/7 9/9/9
f 9/9/9 7/7/7 8/8/8
f 10/10/10 6/6/6 9/9/9
f 8/8/8 11/11/11 9/9/9
f 11/11/11 8/8/8 12/12/12
f 13/13/13 11/11/11 12/12/12
f 14/14/14 10/10/10 9/9/9
f 10/10/10 14/14/14 15/15/15
f 9/9/9 11/11/11 16/16/16
f 16/16/16 11/11/11 13/13/13
f 9/9/9 16/16/16 14/14/14
f 15/15/15 14/14/14 17/17/17
f 17/17/17 14/14/14 16/16/16
f 18/18/18 15/15/15 17/17/17
f 19/19/19 16/16/16 13/13/13
f 19/19/19 17/17/17 16/16/16
f 18/18/18 17/17/17 19/19/19
f 13/13/13 20/20/20 19/19/19
f 21/21/21 18/18/18 19/19/19
f 20/20/20 22/22/22 19/19/19
f 22/22/22 21/21/21 19/19/19
f 22/22/22 20/20/20 23/23/23
f 21/21/21 22/22/22 24/24/24
f 25/25/25 22/22/22 23/23/23
f 22/22/22 25/25/25 24/24/24
f 28/28/28 27/27/27 26/26/26
f 28/28/28 29/29/29 27/27/27
f 30/30/30 27/27/27 29/29/29
f 30/30/30 29/29/29 31/31/31
f 29/29/29 32/32/32 31/31/31
f 29/29/29 28/28/28 33/33/33
f 29/29/29 33/33/33 32/32/32
f 28/28/28 34/34/34 33/33/33
f 34/34/34 28/28/28 35/35/35
f 33/33/33 36/36/36 32/32/32
f 37/37/37 32/32/32 36/36/36
f 38/38/38 34/34/34 35/35/35
f 38/38/38 35/35/35 39/39/39
f 40/40/40 38/38/38 39/39/39
f 40/40/40 41/41/41 38/38/38
f 42/42/42 38/38/38 41/41/41
f 34/34/34 38/38/38 42/42/42
f 43/43/43 34/34/34 42/42/42
f 44/44/44 34/34/34 43/43/43
f 33/33/33 34/34/34 44/44/44
f 43/43/43 45/45/45 44/44/44
f 45/45/45 46/46/46 44/44/44
f 44/44/44 46/46/46 47/47/47
f 44/44/44 48/48/48 33/33/33
f 48/48/48 44/44/44 47/47/47
f 47/47/47 49/49/49 48/48/48
f 48/48/48 49/49/49 50/50/50
f 48/48/48 36/36/36 33/33/33
f 51/51/51 48/48/48 50/50/50
f 48/48/48 51/51/51 36/36/36
f 51/51/51 52/52/52 36/36/36
f 52/52/52 37/37/37 36/36/36
f 51/51/51 53/53/53 52/52/52
f 54/54/54 37/37/37 52/52/52
f 53/53/53 55/55/55 52/52/52
f 54/54/54 52/52/52 56/56/56
f 52/52/52 55/55/55 56/56/56
f 59/59/59 58/58/58 57/57/57
f 60/60/60 58/58/58 59/59/59
f 59/59/59 61/61/61 60/60/60
f 60/60/60 61/61/61 62/62/62
f 63/63/63 60/60/60 62/62/62
f 60/60/60 64/64/64 58/58/58
f 60/60/60 63/63/63 64/64/64
f 63/63/63 65/65/65 64/64/64
f 65/65/65 63/63/63 66/66/66
f 66/66/66 67/67/67 65/65/65
f 64/64/64 68/68/68 58/58/58
f 69/69/69 58/58/58 68/68/68
f 67/67/67 70/70/70 65/65/65
f 70/70/70 67/67/67 71/71/71
f 72/72/72 70/70/70 71/71/71
f 72/72/72 73/73/73 70/70/70
f 70/70/70 73/73/73 65/65/65
f 73/73/73 74/74/74 65/65/65
f 75/75/75 65/65/65 74/74/74
f 64/64/64 65/65/65 75/75/75
f 75/75/75 74/74/74 76/76/76
f 77/77/77 75/75/75 76/76/76
f 77/77/77 78/78/78 75/75/75
f 79/79/79 64/64/64 75/75/75
f 79/79/79 75/75/75 78/78/78
f 79/79/79 68/68/68 64/64/64
f 80/80/80 79/79/79 78/78/78
f 80/80/80 81/81/81 79/79/79
f 81/81/81 82/82/82 79/79/79
f 79/79/79 82/82/82 68/68/68
f 68/68/68 82/82/82 83/83/83
f 84/84/84 68/68/68 83/83/83
f 84/84/84 83/83/83 85/85/85
f 84/84/84 69/69/69 68/68/68
f 86/86/86 84/84/84 85/85/85
f 69/69/69 84/84/84 87/87/87
f 84/84/84 86/86/86 87/87/87
f 90/90/90 89/89/89 88/88/88
f 89/89/89 91/91/91 88/88/88
f 92/92/92 90/90/90 88/88/88
f 92/92/92 88/88/88 93/93/93
f 91/91/91 94/94/94 88/88/88
f 88/88/88 94/94/94 93/93/93
f 95/95/95 92/92/92 93/93/93
f 94/94/94 96/96/96 93/93/93
f 93/93/93 97/97/97 95/95/95
f 98/98/98 93/93/93 96/96/96
f 99/99/99 97/97/97 93/93/93
f 98/98/98 99/99/99 93/93/93
f 100/100/100 97/97/97 99/99/99
f 97/97/97 100/100/100 101/101/101
f 100/100/100 102/102/102 101/101/101
f 103/103/103 99/99/99 98/98/98
f 103/103/103 98/98/98 104/104/104
f 105/105/105 103/103/103 104/104/104
f 106/106/106 100/100/100 99/99/99
f 106/106/106 99/99/99 103/103/103
f 102/102/102 100/100/100 106/106/106
f 103/103/103 105/105/105 106/106/106
f 106/106/106 107/107/107 102/102/102
f 107/107/107 106/106/106 105/105/105
f 108/108/108 102/102/102 107/107/107
f 105/105/105 109/109/109 107/107/107
f 110/110/110 108/108/108 107/107/107
f 109/109/109 110/110/110 107/107/107
