g LegA2
v -0.125744 0.15952143 1.109338
v 0.08881801 0.15952143 -2.4400322
v 0.088818 0.15952143 1.1050103
v -0.125744 0.15952143 -2.4400322
v 0.08881801 0.15952143 -5.924301
v -0.125744 0.15952143 -5.913225
v 0.09426408 0.17105073 -8.569683
v -0.13119006 0.17105073 -8.569683
v 0.08881801 0.15952143 -2.4400322
v 0.08881801 -0.29470766 -2.4400322
v -0.125744 -0.29470766 -2.4400322
v -0.125744 0.15952143 -2.4400322
v 0.088818 0.15952143 1.1050103
v 0.08881801 -0.29470766 -2.4400322
v 0.088818 -0.29470766 1.1050103
v 0.08881801 0.15952143 -2.4400322
v 0.08881801 -0.29470766 -5.913225
v 0.08881801 0.15952143 -5.924301
v 0.09426408 -0.30623707 -8.569683
v 0.09426408 0.17105073 -8.569683
v 0.088818 -0.29470766 1.1050103
v -0.125744 -0.29470766 -2.4400322
v -0.125744 -0.29470766 1.1050103
v 0.08881801 -0.29470766 -2.4400322
v -0.125744 -0.29470766 -5.913225
v 0.08881801 -0.29470766 -5.913225
v -0.13119006 -0.30623707 -8.569683
v 0.09426408 -0.30623707 -8.569683
v -0.125744 0.11110964 1.0552485
v -0.047963377 0.11110964 1.0552485
v -0.047963377 0.11110964 -2.3497965
v -0.125744 0.11110964 -2.3497965
v -0.125744 -0.29470766 -2.4400322
v -0.125744 -0.24629587 1.0552485
v -0.125744 -0.29470766 1.1050103
v -0.125744 -0.24629587 -2.3497965
v -0.125744 0.15952143 -2.4400322
v -0.125744 0.11110964 -2.3497965
v -0.125744 0.11110964 -2.4941216
v -0.125744 -0.24629587 -2.4941216
v -0.125744 0.15952143 1.109338
v -0.125744 0.11110964 1.0552485
v -0.047963377 -0.24629587 1.0552485
v -0.047963377 -0.24629587 -2.3497965
v -0.047963377 0.11110964 -2.3497965
v -0.047963377 0.11110964 1.0552485
v -0.125744 -0.24629587 -2.3497965
v -0.047963377 -0.24629587 -2.3497965
v -0.047963377 -0.24629587 1.0552485
v -0.125744 -0.24629587 1.0552485
v -0.125744 0.11110964 -2.3497965
v -0.047963377 0.11110964 -2.3497965
v -0.047963377 -0.24629587 -2.3497965
v -0.125744 -0.24629587 -2.3497965
v 0.08881801 0.15952143 -5.924301
v 0.08881801 -0.29470766 -5.913225
v -0.125744 -0.29470766 -5.913225
v -0.125744 0.15952143 -5.913225
v -0.125744 0.15952143 -5.913225
v -0.125744 0.11110964 -5.8347893
v -0.125744 -0.24629587 -5.8347893
v -0.125744 -0.29470766 -5.913225
v -0.125744 0.11110964 -5.9673147
v -0.125744 -0.24629587 -5.9673147
v -0.125744 0.11110964 -2.4941216
v -0.047963377 0.11110964 -2.4941216
v -0.047963377 0.11110964 -5.8347893
v -0.125744 0.11110964 -5.8347893
v -0.125744 -0.29470766 -5.913225
v -0.125744 -0.24629587 -5.8347893
v -0.125744 -0.24629587 -2.4941216
v -0.125744 -0.29470766 -2.4400322
v -0.125744 0.15952143 -2.4400322
v -0.125744 0.11110964 -2.4941216
v -0.125744 0.11110964 -5.8347893
v -0.125744 0.15952143 -5.913225
v -0.047963377 -0.24629587 -2.4941216
v -0.047963377 -0.24629587 -5.8347893
v -0.047963377 0.11110964 -5.8347893
v -0.047963377 0.11110964 -2.4941216
v -0.125744 -0.24629587 -2.4941216
v -0.047963377 -0.24629587 -2.4941216
v -0.047963377 0.11110964 -2.4941216
v -0.125744 0.11110964 -2.4941216
v -0.125744 -0.24629587 -5.8347893
v -0.047963377 -0.24629587 -5.8347893
v -0.047963377 -0.24629587 -2.4941216
v -0.125744 -0.24629587 -2.4941216
v -0.125744 0.11110964 -5.8347893
v -0.047963377 0.11110964 -5.8347893
v -0.047963377 -0.24629587 -5.8347893
v -0.125744 -0.24629587 -5.8347893
v -0.13119006 0.17105073 -8.569683
v -0.125744 0.11110964 -8.473873
v -0.125744 -0.24629587 -8.473873
v -0.13119006 -0.30623707 -8.569683
v -0.125744 0.11110964 -5.9673147
v -0.047963377 0.11110964 -5.9673147
v -0.047963377 0.11110964 -8.473873
v -0.125744 0.11110964 -8.473873
v -0.13119006 -0.30623707 -8.569683
v -0.125744 -0.24629587 -8.473873
v -0.125744 -0.24629587 -5.9673147
v -0.125744 -0.29470766 -5.913225
v -0.125744 0.15952143 -5.913225
v -0.125744 0.11110964 -5.9673147
v -0.125744 0.11110964 -8.473873
v -0.13119006 0.17105073 -8.569683
v -0.047963377 -0.24629587 -5.9673147
v -0.047963377 -0.24629587 -8.473873
v -0.047963377 0.11110964 -8.473873
v -0.047963377 0.11110964 -5.9673147
v -0.125744 -0.24629587 -5.9673147
v -0.047963377 -0.24629587 -5.9673147
v -0.047963377 0.11110964 -5.9673147
v -0.125744 0.11110964 -5.9673147
v -0.125744 -0.24629587 -8.473873
v -0.047963377 -0.24629587 -8.473873
v -0.047963377 -0.24629587 -5.9673147
v -0.125744 -0.24629587 -5.9673147
v -0.125744 0.11110964 -8.473873
v -0.047963377 0.11110964 -8.473873
v -0.047963377 -0.24629587 -8.473873
v -0.125744 -0.24629587 -8.473873
v 0.25275695 -1.156835 -9.26534
v 0.47513446 -1.156835 -9.26534
v 0.47513446 -0.60204667 -9.26534
v 0.13275424 -0.38772094 -9.26534
v 0.47513446 0.46686545 -9.26534
v -0.16968021 -0.38772094 -9.26534
v -0.2896829 -1.156835 -9.26534
v -0.51206046 -1.156835 -9.26534
v -0.51206046 -0.60204667 -9.26534
v 0.13275424 0.2525346 -9.26534
v 0.47513446 1.0216466 -9.26534
v 0.25275695 1.0216466 -9.26534
v -0.2896829 1.0216466 -9.26534
v -0.16968021 0.2525346 -9.26534
v -0.51206046 0.46686545 -9.26534
v -0.51206046 1.0216466 -9.26534
v -0.2896829 -1.156835 -9.26534
v -0.51206046 -1.156835 -9.26534
v -0.51206046 -1.156835 -8.569683
v -0.2896829 -1.156835 -8.569683
v 0.25275695 -1.156835 -8.569683
v 0.25275695 -1.156835 -9.26534
v 0.47513446 -1.156835 -9.26534
v 0.47513446 -1.156835 -8.569683
v -0.13119006 0.17105073 -8.569683
v -0.2896829 1.0216466 -8.569683
v 0.25275695 1.0216466 -8.569683
v 0.09426408 0.17105073 -8.569683
v 0.09426408 -0.30623707 -8.569683
v 0.47513446 -0.60204667 -8.569683
v 0.47513446 -1.156835 -8.569683
v 0.25275695 -1.156835 -8.569683
v 0.09426408 -0.30623707 -8.569683
v 0.25275695 -1.156835 -8.569683
v -0.2896829 -1.156835 -8.569683
v -0.13119006 -0.30623707 -8.569683
v -0.51206046 0.46686545 -9.26534
v -0.51206046 1.0216466 -9.26534
v -0.51206046 1.0216466 -8.569683
v -0.51206046 0.46686545 -8.569683
v -0.51206046 -0.60204667 -8.569683
v -0.51206046 -0.60204667 -9.26534
v -0.51206046 -1.156835 -9.26534
v -0.51206046 -1.156835 -8.569683
v 0.47513446 -0.60204667 -9.26534
v 0.47513446 -1.156835 -9.26534
v 0.47513446 -1.156835 -8.569683
v 0.47513446 -0.60204667 -8.569683
v 0.47513446 0.46686545 -8.569683
v 0.47513446 0.46686545 -9.26534
v 0.47513446 1.0216466 -9.26534
v 0.47513446 1.0216466 -8.569683
v -0.2896829 -1.156835 -8.569683
v -0.51206046 -1.156835 -8.569683
v -0.51206046 -0.60204667 -8.569683
v -0.13119006 -0.30623707 -8.569683
v -0.13119006 0.17105073 -8.569683
v -0.51206046 0.46686545 -8.569683
v -0.51206046 1.0216466 -8.569683
v -0.2896829 1.0216466 -8.569683
v 0.09426408 0.17105073 -8.569683
v 0.47513446 0.46686545 -8.569683
v 0.47513446 -0.60204667 -8.569683
v 0.09426408 -0.30623707 -8.569683
v -0.13119006 -0.30623707 -8.569683
v -0.51206046 -0.60204667 -8.569683
v -0.51206046 0.46686545 -8.569683
v -0.13119006 0.17105073 -8.569683
v 0.25275695 1.0216466 -9.26534
v 0.47513446 1.0216466 -9.26534
v 0.47513446 1.0216466 -8.569683
v 0.25275695 1.0216466 -8.569683
v -0.2896829 1.0216466 -8.569683
v -0.2896829 1.0216466 -9.26534
v -0.51206046 1.0216466 -9.26534
v -0.51206046 1.0216466 -8.569683
v 0.25275695 1.0216466 -8.569683
v 0.47513446 1.0216466 -8.569683
v 0.47513446 0.46686545 -8.569683
v 0.09426408 0.17105073 -8.569683
vt 0.97009677 0.5429888
vt 0.95978576 0.34379673
vt 0.95978576 0.5427799
vt 0.9700968 0.34379673
vt 0.9597858 0.1522255
vt 0.9700968 0.15275764
vt 0.9597858 0
vt 0.9700968 0
vt 0.04124663 0.87372744
vt 0.04124663 0.8518989
vt 0.030935623 0.85189897
vt 0.030935623 0.87372744
vt 0.8760836 0.5427799
vt 0.8542551 0.34379673
vt 0.8542551 0.5427799
vt 0.8760836 0.34379673
vt 0.8542551 0.15275764
vt 0.8760836 0.1522255
vt 0.85425514 0
vt 0.8760836 0
vt 0.98040795 0.5427799
vt 0.97009695 0.34379673
vt 0.97009695 0.5427799
vt 0.98040795 0.34379673
vt 0.97009695 0.15275764
vt 0.98040795 0.15275764
vt 0.97009695 0
vt 0.980408 0
vt 0.9813106 0.7352443
vt 0.9850484 0.7352443
vt 0.9850484 0.54298854
vt 0.9813106 0.54298854
vt 0.83242655 0.19919136
vt 0.83475304 0.0025993437
vt 0.83242655 0.0002079755
vt 0.83475304 0.19485497
vt 0.8542551 0.19919136
vt 0.8519286 0.19485497
vt 0.8519286 0.20179068
vt 0.83475304 0.20179068
vt 0.8542551 0
vt 0.8519286 0.0025993437
vt 0.05152665 0.85189915
vt 0.051526666 0.6596434
vt 0.034351125 0.6596434
vt 0.03435111 0.85189915
vt 0.98878634 0.73524404
vt 0.9850485 0.73524404
vt 0.9850485 0.9274998
vt 0.9887863 0.9274998
vt 0.52082443 0.85905063
vt 0.5170866 0.8590507
vt 0.5170866 0.8762262
vt 0.52082443 0.8762262
vt 0 0.8518989
vt 1.0579824E-06 0.8737279
vt 0.0103120655 0.8737279
vt 0.0103120655 0.8518994
vt 0.8542551 0.3902304
vt 0.8519286 0.38646108
vt 0.83475304 0.38646108
vt 0.83242655 0.3902304
vt 0.8519286 0.39282975
vt 0.83475304 0.39282975
vt 0.99252427 0.7276592
vt 0.9962621 0.7276592
vt 0.9962621 0.5429888
vt 0.99252427 0.5429888
vt 0.83242655 0.3902304
vt 0.83475304 0.38646108
vt 0.83475304 0.20179068
vt 0.83242655 0.19919136
vt 0.8542551 0.19919136
vt 0.8519286 0.20179068
vt 0.8519286 0.38646108
vt 0.8542551 0.3902304
vt 0.12022884 0.8443136
vt 0.12022886 0.6596432
vt 0.10305332 0.6596432
vt 0.1030533 0.8443136
vt 0.48589358 0.87622625
vt 0.4896314 0.87622625
vt 0.4896314 0.85905075
vt 0.48589358 0.85905075
vt 0.9925242 0.7352438
vt 0.98878634 0.7352438
vt 0.98878634 0.91991425
vt 0.99252415 0.91991425
vt 0.5133487 0.8590507
vt 0.5096109 0.8590507
vt 0.5096109 0.8762262
vt 0.5133487 0.8762262
vt 0.8542551 0.5429884
vt 0.8519286 0.5386868
vt 0.83475304 0.5386868
vt 0.83242655 0.5429884
vt 0.6928477 0.9862118
vt 0.69658554 0.9862118
vt 0.69658554 0.8403549
vt 0.6928477 0.8403549
vt 0.83242655 0.5429884
vt 0.83475304 0.5386868
vt 0.83475304 0.39282975
vt 0.83242655 0.3902304
vt 0.8542551 0.3902304
vt 0.8519286 0.39282975
vt 0.8519286 0.5386868
vt 0.8542551 0.5429884
vt 0.1717555 0.80550003
vt 0.17175552 0.6596432
vt 0.15457997 0.6596432
vt 0.15457997 0.80550003
vt 0.48963138 0.87622625
vt 0.49336922 0.87622625
vt 0.49336922 0.85905075
vt 0.48963138 0.85905075
vt 0.7077991 0.8403549
vt 0.70406127 0.8403549
vt 0.70406127 0.9862118
vt 0.7077991 0.9862118
vt 0.50458276 0.8590507
vt 0.50084496 0.8590507
vt 0.50084496 0.87622625
vt 0.50458276 0.87622625
vt 0.2994956 0.73391515
vt 0.30707723 0.73391515
vt 0.30707723 0.7150005
vt 0.29540431 0.7076934
vt 0.30707723 0.67855763
vt 0.28509328 0.7076934
vt 0.28100199 0.73391515
vt 0.27342036 0.73391515
vt 0.27342036 0.7150005
vt 0.29540431 0.6858649
vt 0.30707723 0.65964323
vt 0.2994956 0.65964323
vt 0.28100199 0.65964323
vt 0.28509328 0.6858649
vt 0.27342036 0.67855763
vt 0.27342036 0.65964323
vt 0.5096102 0.8329755
vt 0.5096102 0.8253939
vt 0.48589325 0.8253939
vt 0.48589325 0.8329755
vt 0.48589325 0.85146916
vt 0.5096102 0.85146916
vt 0.5096102 0.85905075
vt 0.48589325 0.85905075
vt 0.2954042 0.76013684
vt 0.29949552 0.73391515
vt 0.2810019 0.7339152
vt 0.2850932 0.76013684
vt 0.2850932 0.7819654
vt 0.2734203 0.7892725
vt 0.2734203 0.8081871
vt 0.2810019 0.80818707
vt 0.2850932 0.7819654
vt 0.2810019 0.80818707
vt 0.29949552 0.80818707
vt 0.2954042 0.7819653
vt 0.3009758 0.8271014
vt 0.3009758 0.808187
vt 0.27725887 0.808187
vt 0.27725887 0.8271014
vt 0.27725887 0.8635443
vt 0.3009758 0.8635443
vt 0.3009758 0.8824589
vt 0.27725887 0.8824589
vt 0.35722828 0.83165646
vt 0.35722828 0.8127418
vt 0.33351135 0.8127418
vt 0.33351135 0.83165646
vt 0.33351135 0.86809933
vt 0.35722828 0.86809933
vt 0.35722828 0.88701373
vt 0.33351135 0.88701373
vt 0.29949552 0.80818707
vt 0.3070771 0.808187
vt 0.3070771 0.7892724
vt 0.2954042 0.7819653
vt 0.2954042 0.76013684
vt 0.3070771 0.75282955
vt 0.3070771 0.73391515
vt 0.29949552 0.73391515
vt 0.2850932 0.76013684
vt 0.2734203 0.7528296
vt 0.2734203 0.7892725
vt 0.2850932 0.7819654
vt 0.2954042 0.7819653
vt 0.3070771 0.7892724
vt 0.3070771 0.75282955
vt 0.2954042 0.76013684
vt 0.53332806 0.8329755
vt 0.53332806 0.8253939
vt 0.5096111 0.8253939
vt 0.5096111 0.8329755
vt 0.5096111 0.85146916
vt 0.53332806 0.85146916
vt 0.53332806 0.85905075
vt 0.5096111 0.85905075
vt 0.2810019 0.7339152
vt 0.2734203 0.7339152
vt 0.2734203 0.7528296
vt 0.2850932 0.76013684
vn -0 1 0
vn -0 1 0
vn -0 1 0
vn -0 1 0
vn -0 1 0
vn -0 1 0
vn 0.00010946643 0.9999906 0.004349129
vn 0.00010946643 0.9999906 0.004349129
vn -0 0 1
vn -0 0 1
vn -0 0 1
vn -0 0 1
vn 1 0 0
vn 1 0 0
vn 1 0 0
vn 1 0 0
vn 1 0 0
vn 1 0 0
vn 0.999998 2.4427123E-05 0.0020544026
vn 0.999998 2.4427123E-05 0.0020544026
vn -0 -1 0
vn -0 -1 0
vn -0 -1 0
vn -0 -1 0
vn -0 -1 0
vn -0 -1 0
vn -0 -0.9999906 0.0043401057
vn -0 -0.9999906 0.0043401057
vn -0 -1 0
vn -0 -1 0
vn -0 -1 0
vn -0 -1 0
vn -1 0 0
vn -1 0 0
vn -1 0 0
vn -1 0 0
vn -1 0 0
vn -1 0 0
vn -1 0 0
vn -1 0 0
vn -1 0 0
vn -1 0 0
vn -1 0 0
vn -1 0 0
vn -1 0 0
vn -1 0 0
vn -0 1 0
vn -0 1 0
vn -0 1 0
vn -0 1 0
vn -0 0 1
vn -0 0 1
vn -0 0 1
vn -0 0 1
vn 0.025800554 0.012187092 0.99959284
vn 0.025800554 0.012187092 0.99959284
vn 0.025800554 0.012187092 0.99959284
vn 0.025800554 0.012187092 0.99959284
vn -1 0 0
vn -1 0 0
vn -1 0 0
vn -1 0 0
vn -1 0 0
vn -1 0 0
vn -0 -1 0
vn -0 -1 0
vn -0 -1 0
vn -0 -1 0
vn -1 0 0
vn -1 0 0
vn -1 0 0
vn -1 0 0
vn -1 0 0
vn -1 0 0
vn -1 0 0
vn -1 0 0
vn -1 0 0
vn -1 0 0
vn -1 0 0
vn -1 0 0
vn -0 0 -1
vn -0 0 -1
vn -0 0 -1
vn -0 0 -1
vn -0 1 0
vn -0 1 0
vn -0 1 0
vn -0 1 0
vn -0 0 1
vn -0 0 1
vn -0 0 1
vn -0 0 1
vn -0.9983884 0 0.056750827
vn -0.9983884 0 0.056750827
vn -0.9983884 0 0.056750827
vn -0.9983884 0 0.056750827
vn -0 -1 0
vn -0 -1 0
vn -0 -1 0
vn -0 -1 0
vn -0.9987569 0.049836796 0.00094222225
vn -0.9987569 0.049836796 0.00094222225
vn -0.9987569 0.049836796 0.00094222225
vn -0.9987569 0.049836796 0.00094222225
vn -0.9987569 -0.049836833 0.0009422217
vn -0.9987569 -0.049836833 0.0009422217
vn -0.9987569 -0.049836833 0.0009422217
vn -0.9987569 -0.049836833 0.0009422217
vn -1 0 0
vn -1 0 0
vn -1 0 0
vn -1 0 0
vn -0 0 -1
vn -0 0 -1
vn -0 0 -1
vn -0 0 -1
vn -0 1 0
vn -0 1 0
vn -0 1 0
vn -0 1 0
vn -0 0 1
vn -0 0 1
vn -0 0 1
vn -0 0 1
vn -0 0 -1
vn -0 0 -1
vn -0 0 -1
vn -0 0 -1
vn -0 0 -1
vn -0 0 -1
vn -0 0 -1
vn -0 0 -1
vn -0 0 -1
vn -0 0 -1
vn -0 0 -1
vn -0 0 -1
vn -0 0 -1
vn -0 0 -1
vn -0 0 -1
vn -0 0 -1
vn -0 -1 0
vn -0 -1 0
vn -0 -1 0
vn -0 -1 0
vn -0 -1 0
vn -0 -1 0
vn -0 -1 0
vn -0 -1 0
vn -0 0 1
vn -0 0 1
vn -0 0 1
vn -0 0 1
vn -0 0 1
vn -0 0 1
vn -0 0 1
vn -0 0 1
vn -0 0 1
vn -0 0 1
vn -0 0 1
vn -0 0 1
vn -1 0 0
vn -1 0 0
vn -1 0 0
vn -1 0 0
vn -1 0 0
vn -1 0 0
vn -1 0 0
vn -1 0 0
vn 1 0 0
vn 1 0 0
vn 1 0 0
vn 1 0 0
vn 1 0 0
vn 1 0 0
vn 1 0 0
vn 1 0 0
vn -0 0 1
vn -0 0 1
vn -0 0 1
vn -0 0 1
vn -0 0 1
vn -0 0 1
vn -0 0 1
vn -0 0 1
vn -0 0 1
vn -0 0 1
vn -0 0 1
vn -0 0 1
vn -0 0 1
vn -0 0 1
vn -0 0 1
vn -0 0 1
vn -0 1 0
vn -0 1 0
vn -0 1 0
vn -0 1 0
vn -0 1 0
vn -0 1 0
vn -0 1 0
vn -0 1 0
vn -0 0 1
vn -0 0 1
vn -0 0 1
vn -0 0 1
g LegA2_0
f 3/3/3 2/2/2 1/1/1
f 2/2/2 4/4/4 1/1/1
f 2/2/2 5/5/5 4/4/4
f 5/5/5 6/6/6 4/4/4
f 5/5/5 7/7/7 6/6/6
f 7/7/7 8/8/8 6/6/6
f 11/11/11 10/10/10 9/9/9
f 12/12/12 11/11/11 9/9/9
f 15/15/15 14/14/14 13/13/13
f 14/14/14 16/16/16 13/13/13
f 14/14/14 17/17/17 16/16/16
f 17/17/17 18/18/18 16/16/16
f 17/17/17 19/19/19 18/18/18
f 19/19/19 20/20/20 18/18/18
f 23/23/23 22/22/22 21/21/21
f 22/22/22 24/24/24 21/21/21
f 22/22/22 25/25/25 24/24/24
f 25/25/25 26/26/26 24/24/24
f 25/25/25 27/27/27 26/26/26
f 27/27/27 28/28/28 26/26/26
f 31/31/31 30/30/30 29/29/29
f 32/32/32 31/31/31 29/29/29
f 35/35/35 34/34/34 33/33/33
f 34/34/34 36/36/36 33/33/33
f 33/33/33 36/36/36 37/37/37
f 36/36/36 38/38/38 37/37/37
f 37/37/37 39/39/39 33/33/33
f 39/39/39 40/40/40 33/33/33
f 37/37/37 38/38/38 41/41/41
f 38/38/38 42/42/42 41/41/41
f 45/45/45 44/44/44 43/43/43
f 46/46/46 45/45/45 43/43/43
f 49/49/49 48/48/48 47/47/47
f 50/50/50 49/49/49 47/47/47
f 53/53/53 52/52/52 51/51/51
f 54/54/54 53/53/53 51/51/51
f 57/57/57 56/56/56 55/55/55
f 58/58/58 57/57/57 55/55/55
f 61/61/61 60/60/60 59/59/59
f 62/62/62 61/61/61 59/59/59
f 59/59/59 63/63/63 62/62/62
f 63/63/63 64/64/64 62/62/62
f 67/67/67 66/66/66 65/65/65
f 68/68/68 67/67/67 65/65/65
f 71/71/71 70/70/70 69/69/69
f 72/72/72 71/71/71 69/69/69
f 75/75/75 74/74/74 73/73/73
f 76/76/76 75/75/75 73/73/73
f 79/79/79 78/78/78 77/77/77
f 80/80/80 79/79/79 77/77/77
f 83/83/83 82/82/82 81/81/81
f 84/84/84 83/83/83 81/81/81
f 87/87/87 86/86/86 85/85/85
f 88/88/88 87/87/87 85/85/85
f 91/91/91 90/90/90 89/89/89
f 92/92/92 91/91/91 89/89/89
f 95/95/95 94/94/94 93/93/93
f 96/96/96 95/95/95 93/93/93
f 99/99/99 98/98/98 97/97/97
f 100/100/100 99/99/99 97/97/97
f 103/103/103 102/102/102 101/101/101
f 104/104/104 103/103/103 101/101/101
f 107/107/107 106/106/106 105/105/105
f 108/108/108 107/107/107 105/105/105
f 111/111/111 110/110/110 109/109/109
f 112/112/112 111/111/111 109/109/109
f 115/115/115 114/114/114 113/113/113
f 116/116/116 115/115/115 113/113/113
f 119/119/119 118/118/118 117/117/117
f 120/120/120 119/119/119 117/117/117
f 123/123/123 122/122/122 121/121/121
f 124/124/124 123/123/123 121/121/121
g LegA2_1
f 127/127/127 126/126/126 125/125/125
f 128/128/128 127/127/127 125/125/125
f 129/129/129 127/127/127 128/128/128
f 128/128/128 125/125/125 130/130/130
f 125/125/125 131/131/131 130/130/130
f 131/131/131 132/132/132 130/130/130
f 132/132/132 133/133/133 130/130/130
f 134/134/134 129/129/129 128/128/128
f 128/128/128 130/130/130 134/134/134
f 135/135/135 129/129/129 134/134/134
f 136/136/136 135/135/135 134/134/134
f 137/137/137 136/136/136 134/134/134
f 130/130/130 133/133/133 138/138/138
f 130/130/130 138/138/138 134/134/134
f 138/138/138 137/137/137 134/134/134
f 133/133/133 139/139/139 138/138/138
f 138/138/138 139/139/139 137/137/137
f 139/139/139 140/140/140 137/137/137
f 143/143/143 142/142/142 141/141/141
f 144/144/144 143/143/143 141/141/141
f 144/144/144 141/141/141 145/145/145
f 141/141/141 146/146/146 145/145/145
f 146/146/146 147/147/147 145/145/145
f 147/147/147 148/148/148 145/145/145
f 151/151/151 150/150/150 149/149/149
f 152/152/152 151/151/151 149/149/149
f 155/155/155 154/154/154 153/153/153
f 156/156/156 155/155/155 153/153/153
f 159/159/159 158/158/158 157/157/157
f 160/160/160 159/159/159 157/157/157
f 163/163/163 162/162/162 161/161/161
f 164/164/164 163/163/163 161/161/161
f 164/164/164 161/161/161 165/165/165
f 161/161/161 166/166/166 165/165/165
f 166/166/166 167/167/167 165/165/165
f 167/167/167 168/168/168 165/165/165
f 171/171/171 170/170/170 169/169/169
f 172/172/172 171/171/171 169/169/169
f 172/172/172 169/169/169 173/173/173
f 169/169/169 174/174/174 173/173/173
f 174/174/174 175/175/175 173/173/173
f 175/175/175 176/176/176 173/173/173
f 179/179/179 178/178/178 177/177/177
f 180/180/180 179/179/179 177/177/177
f 183/183/183 182/182/182 181/181/181
f 184/184/184 183/183/183 181/181/181
f 187/187/187 186/186/186 185/185/185
f 188/188/188 187/187/187 185/185/185
f 191/191/191 190/190/190 189/189/189
f 192/192/192 191/191/191 189/189/189
f 195/195/195 194/194/194 193/193/193
f 196/196/196 195/195/195 193/193/193
f 196/196/196 193/193/193 197/197/197
f 193/193/193 198/198/198 197/197/197
f 198/198/198 199/199/199 197/197/197
f 199/199/199 200/200/200 197/197/197
f 203/203/203 202/202/202 201/201/201
f 204/204/204 203/203/203 201/201/201
