g LegB1
v 0.088818 -0.33856338 7.4158506
v 0.088818 -0.29470766 4.66429
v -0.125744 -0.29470766 4.66429
v -0.125744 -0.33856338 7.4158506
v 0.088818 -0.35658836 8.7546215
v -0.125744 -0.35658836 8.7546215
v 0.088818 0.19674969 7.4158506
v 0.088818 0.15952143 4.66429
v 0.088818 -0.29470766 4.66429
v 0.088818 -0.33856338 7.4158506
v 0.088818 0.2120508 8.7546215
v 0.088818 -0.35658836 8.7546215
v 0.088818 0.48747635 7.865452
v 0.088818 0.50277746 8.746582
v 0.09421708 0.899175 8.121645
v 0.088818 1.2238163 8.021387
v 0.09421708 0.9676218 8.121645
v 0.09421708 0.9769632 8.138634
v 0.09421708 0.8649516 8.183886
v 0.09421708 1.0018451 8.183886
v 0.09421708 1.0018588 8.498266
v 0.088818 1.2288723 8.738543
v 0.09421708 0.96763545 8.436025
v 0.09421708 0.96763545 8.560508
v 0.09421708 0.9676218 8.246128
v 0.09421708 0.89918864 8.560508
v 0.09421708 0.89918864 8.436025
v 0.09421708 0.8898473 8.543519
v 0.09421708 0.899175 8.246128
v 0.09421708 0.8649652 8.498266
v -0.125744 0.19674969 7.4158506
v -0.125744 0.15952143 4.66429
v 0.088818 0.15952143 4.66429
v 0.088818 0.19674969 7.4158506
v -0.125744 0.14884044 7.494954
v -0.047395993 0.14884044 7.494954
v -0.047395993 0.12434784 4.727511
v -0.125744 0.12434784 4.727511
v -0.125744 0.19674969 7.4158506
v -0.125744 0.14884044 7.494954
v -0.125744 0.12434784 4.727511
v -0.125744 0.15952143 4.66429
v -0.125744 -0.23024476 4.727511
v -0.125744 -0.29470766 4.66429
v -0.125744 0.11110964 4.623441
v -0.125744 -0.24629587 4.623441
v -0.047395993 -0.25909758 7.439183
v -0.047395993 -0.23024476 4.727511
v -0.047395993 0.12434784 4.727511
v -0.047395993 0.14884044 7.494954
v -0.047395993 -0.27095625 8.6306
v -0.047395993 0.20018756 8.629276
v -0.047395993 0.4702739 8.629789
v -0.047395993 0.43956712 7.928487
v -0.052795067 0.899175 8.121645
v -0.047395993 1.1445469 8.078909
v -0.052795067 0.9676218 8.121645
v -0.052795067 0.98934597 8.161155
v -0.052795067 0.8649516 8.183886
v -0.052795067 1.0018451 8.183886
v -0.052795075 0.8649652 8.498266
v -0.052795067 0.899175 8.246128
v -0.052795075 0.89918864 8.560508
v -0.052795075 0.89918864 8.436025
v -0.052795067 0.9676218 8.246128
v -0.052795075 0.96763545 8.436025
v -0.047395993 1.1443683 8.630302
v -0.052795075 1.0018588 8.498266
v -0.052795075 0.96763545 8.560508
v -0.052795075 0.9801346 8.537777
v -0.125744 -0.27095625 8.6306
v -0.047395993 -0.27095625 8.6306
v -0.047395993 0.20018756 8.629276
v -0.125744 0.20018756 8.629276
v -0.125744 0.4702739 8.629789
v -0.047395993 0.4702739 8.629789
v -0.125744 1.1443683 8.630302
v -0.047395993 1.1443683 8.630302
v -0.125744 -0.25909758 7.439183
v -0.047395993 -0.27095625 8.6306
v -0.125744 -0.27095625 8.6306
v -0.047395993 -0.25909758 7.439183
v -0.125744 -0.23024476 4.727511
v -0.047395993 -0.23024476 4.727511
v -0.125744 0.12434784 4.727511
v -0.047395993 0.12434784 4.727511
v -0.047395993 -0.23024476 4.727511
v -0.125744 -0.23024476 4.727511
v -0.125744 -0.24629587 4.623441
v -0.047963377 -0.24629587 4.623441
v -0.047963377 0.11110964 4.623441
v -0.125744 0.11110964 4.623441
v 0.088818 -0.35658836 8.7546215
v -0.125744 -0.35658836 8.7546215
v -0.125744 0.2120508 8.7546215
v 0.088818 0.2120508 8.7546215
v 0.088818 0.50277746 8.746582
v -0.125744 0.50277746 8.746582
v 0.088818 1.2288723 8.738543
v -0.125744 1.2288723 8.738543
v -0.125744 0.43956712 7.928487
v -0.125744 1.1445469 8.078909
v -0.047395993 1.1445469 8.078909
v -0.047395993 0.43956712 7.928487
v -0.125744 -0.29470766 4.66429
v -0.125744 -0.23024476 4.727511
v -0.125744 -0.25909758 7.439183
v -0.125744 -0.33856338 7.4158506
v -0.125744 -0.27095625 8.6306
v -0.125744 -0.35658836 8.7546215
v -0.125744 0.20018756 8.629276
v -0.125744 0.2120508 8.7546215
v -0.125744 0.50277746 8.746582
v -0.125744 0.4702739 8.629789
v -0.125744 1.2288723 8.738543
v -0.125744 1.1443683 8.630302
v -0.125744 1.1445469 8.078909
v -0.125744 1.2238163 8.021387
v -0.125744 0.48747635 7.865452
v -0.125744 0.43956712 7.928487
v -0.125744 0.19674969 7.4158506
v -0.125744 0.14884044 7.494954
v -0.125744 1.1443683 8.630302
v -0.047395993 1.1443683 8.630302
v -0.047395993 1.1445469 8.078909
v -0.125744 1.1445469 8.078909
v -0.125744 1.2288723 8.738543
v -0.125744 1.2238163 8.021387
v 0.088818 1.2238163 8.021387
v 0.088818 1.2288723 8.738543
v 0.088818 0.48747635 7.865452
v 0.088818 1.2238163 8.021387
v -0.125744 1.2238163 8.021387
v -0.125744 0.48747635 7.865452
v 0.088818 0.19674969 7.4158506
v 0.088818 0.48747635 7.865452
v -0.125744 0.48747635 7.865452
v -0.125744 0.19674969 7.4158506
v -0.125744 0.14884044 7.494954
v -0.125744 0.43956712 7.928487
v -0.047395993 0.43956712 7.928487
v -0.047395993 0.14884044 7.494954
v 0.09421708 0.96763545 8.436025
v -0.052795075 0.96763545 8.436025
v -0.052795075 1.0018588 8.498266
v 0.09421708 1.0018588 8.498266
v 0.09421708 0.89918864 8.436025
v -0.052795075 0.89918864 8.436025
v -0.052795075 0.96763545 8.436025
v 0.09421708 0.96763545 8.436025
v -0.052795075 0.8649652 8.498266
v -0.052795075 0.89918864 8.436025
v 0.09421708 0.89918864 8.436025
v 0.09421708 0.8649652 8.498266
v -0.052795075 0.89918864 8.560508
v -0.052795075 0.8649652 8.498266
v 0.09421708 0.8649652 8.498266
v 0.09421708 0.8898473 8.543519
v 0.09421708 0.89918864 8.560508
v -0.052795075 0.96763545 8.560508
v -0.052795075 0.89918864 8.560508
v 0.09421708 0.89918864 8.560508
v 0.09421708 0.96763545 8.560508
v 0.09421708 0.96763545 8.560508
v 0.09421708 1.0018588 8.498266
v -0.052795075 1.0018588 8.498266
v -0.052795075 0.9801346 8.537777
v -0.052795075 0.96763545 8.560508
v 0.09421708 0.9769632 8.138634
v 0.09421708 0.9676218 8.121645
v -0.052795067 0.9676218 8.121645
v -0.052795067 0.98934597 8.161155
v 0.09421708 1.0018451 8.183886
v -0.052795067 1.0018451 8.183886
v 0.09421708 0.899175 8.121645
v -0.052795067 0.899175 8.121645
v -0.052795067 0.9676218 8.121645
v 0.09421708 0.9676218 8.121645
v -0.052795067 0.8649516 8.183886
v -0.052795067 0.899175 8.121645
v 0.09421708 0.899175 8.121645
v 0.09421708 0.8649516 8.183886
v -0.052795067 0.899175 8.246128
v -0.052795067 0.8649516 8.183886
v 0.09421708 0.8649516 8.183886
v 0.09421708 0.899175 8.246128
v -0.052795067 0.9676218 8.246128
v -0.052795067 0.899175 8.246128
v 0.09421708 0.899175 8.246128
v 0.09421708 0.9676218 8.246128
v 0.09421708 1.0018451 8.183886
v -0.052795067 1.0018451 8.183886
v -0.052795067 0.9676218 8.246128
v 0.09421708 0.9676218 8.246128
vt 0.9288453 0.7552502
vt 0.9288453 0.6314423
vt 0.9185343 0.6314423
vt 0.9185343 0.7552502
vt 0.9288453 0.8102536
vt 0.9185343 0.8102536
vt 0.5117761 0.48023415
vt 0.5135653 0.6251421
vt 0.53539383 0.6251421
vt 0.5375012 0.48023415
vt 0.5110407 0.41589832
vt 0.5383674 0.41589832
vt 0.49780488 0.45862865
vt 0.49706948 0.41628456
vt 0.47802043 0.44631672
vt 0.46241915 0.45113468
vt 0.4747312 0.44631672
vt 0.47428226 0.44550037
vt 0.47966504 0.443326
vt 0.47308648 0.443326
vt 0.47308588 0.4282179
vt 0.4621762 0.4166708
vt 0.4747305 0.4312086
vt 0.4747305 0.4252262
vt 0.4747312 0.44033432
vt 0.47801983 0.4252262
vt 0.47801983 0.4312086
vt 0.47846866 0.42604256
vt 0.47802043 0.44033432
vt 0.47966444 0.4282179
vt 0.9082231 0.8896625
vt 0.90822315 0.7470429
vt 0.8979121 0.7470429
vt 0.8979121 0.8896625
vt 0.5346022 0.7599182
vt 0.53836733 0.7599182
vt 0.53836733 0.63378644
vt 0.5346022 0.63378644
vt 0.58796704 0.5619819
vt 0.59026945 0.56578326
vt 0.5914464 0.4201119
vt 0.58975613 0.41707397
vt 0.6084868 0.4201119
vt 0.61158466 0.41707397
vt 0.5920826 0.41511083
vt 0.6092582 0.41511083
vt 0.46272752 0.6823969
vt 0.46406776 0.8253889
vt 0.4811081 0.8253937
vt 0.4823323 0.67972374
vt 0.46217617 0.6251421
vt 0.4848175 0.62521267
vt 0.4977968 0.62519264
vt 0.49631023 0.6588936
vt 0.51839983 0.6496191
vt 0.5301912 0.6516762
vt 0.52168906 0.64962006
vt 0.5227337 0.6477213
vt 0.5167561 0.6466274
vt 0.5233347 0.64662933
vt 0.51676166 0.6315193
vt 0.51840174 0.6436367
vt 0.5184073 0.6285286
vt 0.5184053 0.634511
vt 0.521691 0.64363766
vt 0.52169466 0.63451195
vt 0.5301912 0.62517834
vt 0.5233402 0.6315212
vt 0.52169657 0.62852955
vt 0.5222969 0.62962246
vt 0.41008276 0.8463987
vt 0.40631765 0.8463987
vt 0.40631765 0.8690282
vt 0.41008276 0.8690282
vt 0.41008273 0.88200253
vt 0.40631765 0.88200253
vt 0.41008273 0.9143834
vt 0.40631762 0.9143834
vt 0.8068329 0.88829684
vt 0.8030678 0.9448588
vt 0.8068329 0.9448588
vt 0.8030678 0.88829684
vt 0.8068329 0.7470429
vt 0.80306786 0.7470429
vt 0.5346022 0.63378644
vt 0.53836733 0.63378644
vt 0.53836733 0.62514186
vt 0.5346022 0.62514186
vt 0.6650927 0.86838615
vt 0.6613549 0.86838615
vt 0.6613549 0.88555413
vt 0.6650927 0.88555413
vt 0.9288453 0.8102536
vt 0.9185343 0.8102536
vt 0.9185343 0.82411647
vt 0.9288453 0.82411647
vt 0.9288453 0.8308711
vt 0.9185343 0.8308711
vt 0.9288453 0.84823966
vt 0.9185343 0.84823966
vt 0.5346022 0.78496003
vt 0.5346022 0.8083761
vt 0.53836733 0.8083761
vt 0.53836733 0.78496003
vt 0.61158466 0.41707397
vt 0.6084868 0.4201119
vt 0.6098733 0.56310296
vt 0.61369216 0.5619819
vt 0.61044323 0.62035775
vt 0.61455834 0.62631774
vt 0.5878018 0.62029433
vt 0.58723176 0.62631774
vt 0.57326055 0.6259315
vt 0.57482255 0.6203191
vt 0.5383673 0.62554526
vt 0.54242826 0.62034345
vt 0.5424197 0.5938456
vt 0.5386102 0.5910814
vt 0.5739958 0.5835879
vt 0.57629824 0.58661723
vt 0.58796704 0.5619819
vt 0.59026945 0.56578326
vt 0.5346022 0.8312068
vt 0.53836733 0.8312068
vt 0.53836733 0.8083761
vt 0.5346022 0.8083761
vt 0.12025733 0.8782635
vt 0.12025733 0.8443136
vt 0.1099463 0.8443136
vt 0.1099463 0.8782635
vt 0.7227505 0.8403551
vt 0.7227505 0.8759474
vt 0.73306155 0.8759474
vt 0.73306155 0.8403551
vt 0.8979121 0.8896625
vt 0.8979121 0.90866256
vt 0.9082231 0.90866256
vt 0.9082231 0.8896625
vt 0.5346022 0.7599182
vt 0.5346022 0.78496003
vt 0.53836733 0.78496003
vt 0.53836733 0.7599182
vt 0.6524606 0.8755159
vt 0.6524606 0.86845106
vt 0.6490488 0.86845106
vt 0.6490488 0.8755159
vt 0.6541295 0.8755159
vt 0.6541295 0.86845106
vt 0.6524606 0.86845106
vt 0.6524606 0.8755159
vt 0.48268032 0.883291
vt 0.4859028 0.883291
vt 0.4859028 0.8762262
vt 0.48268032 0.8762262
vt 0.4800024 0.883291
vt 0.48268032 0.883291
vt 0.48268032 0.8762262
vt 0.48073387 0.8762262
vt 0.4800024 0.8762262
vt 0.5170866 0.883291
vt 0.5203744 0.883291
vt 0.5203744 0.8762262
vt 0.5170866 0.8762262
vt 0.6473055 0.8755159
vt 0.6490488 0.8755159
vt 0.6490488 0.86845106
vt 0.64794207 0.86845106
vt 0.6473055 0.86845106
vt 0.0042238235 0.8807928
vt 0.0051550865 0.8807928
vt 0.0051550865 0.8737279
vt 0.0029892921 0.8737279
vt 0.0017433167 0.8807928
vt 0.0017433167 0.8737279
vt 0.0068240166 0.8807928
vt 0.0068240166 0.8737279
vt 0.0051550865 0.8737279
vt 0.0051550865 0.8807928
vt 0.49231005 0.883291
vt 0.49553156 0.883291
vt 0.49553156 0.8762262
vt 0.49231005 0.8762262
vt 0.48963165 0.883291
vt 0.49231005 0.883291
vt 0.49231005 0.8762262
vt 0.48963165 0.8762262
vt 0.5203744 0.883291
vt 0.5236622 0.883291
vt 0.5236622 0.8762262
vt 0.5203744 0.8762262
vt 0.0017433167 0.8807928
vt 0.0017433167 0.8737279
vt 0 0.8737279
vt 0 0.8807928
vn -0 -0.99987304 -0.015936464
vn -0 -0.99987304 -0.015936464
vn -0 -0.99987304 -0.015936464
vn -0 -0.99987304 -0.015936464
vn -0 -0.9999094 -0.013462612
vn -0 -0.9999094 -0.013462612
vn 1 0 0
vn 1 0 0
vn 1 0 0
vn 1 0 0
vn 1 0 0
vn 1 0 0
vn 0.9994593 0.0068311417 -0.032161135
vn 0.9995957 -0.00031654138 0.028434047
vn 0.9994593 0.0068311417 -0.032161135
vn 0.9994593 0.0068311417 -0.032161135
vn 0.9994593 0.0068311417 -0.032161135
vn 0.9994593 0.0068311417 -0.032161135
vn 0.9999994 -0.001070654 6.689468E-05
vn 0.9999994 -0.001070654 6.689468E-05
vn 0.9999994 -0.001070654 6.689468E-05
vn 0.9995957 -0.00031654138 0.028434047
vn 0.9999994 -0.001070654 6.689468E-05
vn 0.9995957 -0.00031654138 0.028434047
vn 0.9999994 -0.001070654 6.689468E-05
vn 0.9995957 -0.00031654138 0.028434047
vn 0.9999994 -0.001070654 6.689468E-05
vn 0.9995957 -0.00031654138 0.028434047
vn 0.9999994 -0.001070654 6.689468E-05
vn 0.9999994 -0.001070654 6.689468E-05
vn -0 0.99990845 -0.013528628
vn -0 0.99990845 -0.013528628
vn -0 0.99990845 -0.013528628
vn -0 0.99990845 -0.013528628
vn -0 -0.9999609 0.008849916
vn -0 -0.9999609 0.008849916
vn -0 -0.9999609 0.008849916
vn -0 -0.9999609 0.008849916
vn -1 0 0
vn -1 0 0
vn -1 0 0
vn -1 0 0
vn -1 0 0
vn -1 0 0
vn -1 0 0
vn -1 0 0
vn -1 0 0
vn -1 0 0
vn -1 0 0
vn -1 0 0
vn -1 0 0
vn -1 0 0
vn -0.9999709 -0.0076309694 -7.72095E-05
vn -0.9999709 -0.0076309694 -7.72095E-05
vn -0.9999709 -0.0076309694 -7.72095E-05
vn -0.9999709 -0.0076309694 -7.72095E-05
vn -0.9999709 -0.0076309694 -7.72095E-05
vn -0.9999709 -0.0076309694 -7.72095E-05
vn -0.9999709 -0.0076309694 -7.72095E-05
vn -0.9994696 0.032564625 0.00032948615
vn -0.9999709 -0.0076309694 -7.72095E-05
vn -0.9999709 -0.0076309694 -7.72095E-05
vn -0.9999709 -0.0076309694 -7.72095E-05
vn -0.9999709 -0.0076309694 -7.72095E-05
vn -0.9999709 -0.0076309694 -7.72095E-05
vn -0.9999709 -0.0076309694 -7.72095E-05
vn -0.9999709 -0.0076309694 -7.72095E-05
vn -0.9994696 0.032564625 0.00032948615
vn -0.9999709 -0.0076309694 -7.72095E-05
vn -0.9999709 -0.0076309694 -7.72095E-05
vn -0 -0.0028095343 -0.99999607
vn -0 -0.0028095343 -0.99999607
vn -0 -0.0028095343 -0.99999607
vn -0 -0.0028095343 -0.99999607
vn -0 0.00076113467 -0.99999976
vn -0 0.00076113467 -0.99999976
vn -0 0.00076113467 -0.99999976
vn -0 0.00076113467 -0.99999976
vn -0 0.9999505 0.009952937
vn -0 0.9999505 0.009952937
vn -0 0.9999505 0.009952937
vn -0 0.9999505 0.009952937
vn -0 0.9999434 0.010639624
vn -0 0.9999434 0.010639624
vn -0 0 1
vn -0 0 1
vn -0 0 1
vn -0 0 1
vn -0 0 -1
vn -0 0 -1
vn -0 0 -1
vn -0 0 -1
vn -0 0 1
vn -0 0 1
vn -0 0 1
vn -0 0 1
vn -0 0.011071533 0.9999387
vn -0 0.011071533 0.9999387
vn -0 0.011071533 0.9999387
vn -0 0.011071533 0.9999387
vn -0 -0.20867352 0.9779854
vn -0 -0.20867352 0.9779854
vn -0 -0.20867352 0.9779854
vn -0 -0.20867352 0.9779854
vn -1 0 0
vn -1 0 0
vn -1 0 0
vn -1 0 0
vn -1 0 0
vn -1 0 0
vn -1 0 0
vn -1 0 0
vn -1 0 0
vn -1 0 0
vn -1 0 0
vn -1 0 0
vn -1 0 0
vn -1 0 0
vn -1 0 0
vn -1 0 0
vn -1 0 0
vn -1 0 0
vn -0 -1 -0.00032388893
vn -0 -1 -0.00032388893
vn -0 -1 -0.00032388893
vn -0 -1 -0.00032388893
vn -0 0.9999752 -0.0070497645
vn -0 0.9999752 -0.0070497645
vn -0 0.9999752 -0.0070497645
vn -0 0.9999752 -0.0070497645
vn -0 0.2071761 -0.9783036
vn -0 0.2071761 -0.9783036
vn -0 0.2071761 -0.9783036
vn -0 0.2071761 -0.9783036
vn -0 0.8397334 -0.5429988
vn -0 0.8397334 -0.5429988
vn -0 0.8397334 -0.5429988
vn -0 0.8397334 -0.5429988
vn -0 -0.83053976 0.55695933
vn -0 -0.83053976 0.55695933
vn -0 -0.83053976 0.55695933
vn -0 -0.83053976 0.55695933
vn -0 -0.876272 0.4818167
vn -0 -0.876272 0.4818167
vn -0 -0.876272 0.4818167
vn -0 -0.876272 0.4818167
vn -0 0 1
vn -0 0 1
vn -0 0 1
vn -0 0 1
vn -0 0.876272 0.4818167
vn -0 0.876272 0.4818167
vn -0 0.876272 0.4818167
vn -0 0.876272 0.4818167
vn -0 0.876272 -0.4818167
vn -0 0.876272 -0.4818167
vn -0 0.876272 -0.4818167
vn -0 0.876272 -0.4818167
vn -0 0.876272 -0.4818167
vn -0 0 -1
vn -0 0 -1
vn -0 0 -1
vn -0 0 -1
vn -0 -0.876272 -0.4818167
vn -0 -0.876272 -0.4818167
vn -0 -0.876272 -0.4818167
vn -0 -0.876272 -0.4818167
vn -0 -0.876272 -0.4818167
vn -0 -0.8762695 0.48182127
vn -0 -0.8762695 0.48182127
vn -0 -0.8762695 0.48182127
vn -0 -0.8762695 0.48182127
vn -0 -0.8762695 0.48182127
vn -0 -0.8762695 0.48182127
vn -0 0 1
vn -0 0 1
vn -0 0 1
vn -0 0 1
vn -0 0.8762689 0.48182246
vn -0 0.8762689 0.48182246
vn -0 0.8762689 0.48182246
vn -0 0.8762689 0.48182246
vn -0 0.8762751 -0.48181108
vn -0 0.8762751 -0.48181108
vn -0 0.8762751 -0.48181108
vn -0 0.8762751 -0.48181108
vn -0 0 -1
vn -0 0 -1
vn -0 0 -1
vn -0 0 -1
vn -0 -0.8762758 -0.48180997
vn -0 -0.8762758 -0.48180997
vn -0 -0.8762758 -0.48180997
vn -0 -0.8762758 -0.48180997
g LegB1_0
f 3/3/3 2/2/2 1/1/1
f 4/4/4 3/3/3 1/1/1
f 4/4/4 1/1/1 5/5/5
f 6/6/6 4/4/4 5/5/5
f 9/9/9 8/8/8 7/7/7
f 10/10/10 9/9/9 7/7/7
f 10/10/10 7/7/7 11/11/11
f 12/12/12 10/10/10 11/11/11
f 7/7/7 13/13/13 11/11/11
f 13/13/13 14/14/14 11/11/11
f 14/14/14 13/13/13 15/15/15
f 15/15/15 13/13/13 16/16/16
f 16/16/16 17/17/17 15/15/15
f 16/16/16 18/18/18 17/17/17
f 15/15/15 19/19/19 14/14/14
f 20/20/20 18/18/18 16/16/16
f 16/16/16 21/21/21 20/20/20
f 21/21/21 16/16/16 22/22/22
f 20/20/20 21/21/21 23/23/23
f 22/22/22 24/24/24 21/21/21
f 25/25/25 20/20/20 23/23/23
f 26/26/26 24/24/24 22/22/22
f 26/26/26 22/22/22 14/14/14
f 25/25/25 23/23/23 27/27/27
f 14/14/14 28/28/28 26/26/26
f 29/29/29 25/25/25 27/27/27
f 30/30/30 28/28/28 14/14/14
f 14/14/14 19/19/19 30/30/30
f 29/29/29 27/27/27 30/30/30
f 30/30/30 19/19/19 29/29/29
f 33/33/33 32/32/32 31/31/31
f 34/34/34 33/33/33 31/31/31
f 37/37/37 36/36/36 35/35/35
f 38/38/38 37/37/37 35/35/35
f 41/41/41 40/40/40 39/39/39
f 42/42/42 41/41/41 39/39/39
f 43/43/43 41/41/41 42/42/42
f 44/44/44 43/43/43 42/42/42
f 42/42/42 45/45/45 44/44/44
f 45/45/45 46/46/46 44/44/44
f 49/49/49 48/48/48 47/47/47
f 50/50/50 49/49/49 47/47/47
f 50/50/50 47/47/47 51/51/51
f 52/52/52 50/50/50 51/51/51
f 52/52/52 53/53/53 50/50/50
f 53/53/53 54/54/54 50/50/50
f 54/54/54 53/53/53 55/55/55
f 55/55/55 56/56/56 54/54/54
f 55/55/55 57/57/57 56/56/56
f 57/57/57 58/58/58 56/56/56
f 53/53/53 59/59/59 55/55/55
f 56/56/56 58/58/58 60/60/60
f 61/61/61 59/59/59 53/53/53
f 62/62/62 59/59/59 61/61/61
f 53/53/53 63/63/63 61/61/61
f 61/61/61 64/64/64 62/62/62
f 64/64/64 65/65/65 62/62/62
f 64/64/64 66/66/66 65/65/65
f 60/60/60 65/65/65 66/66/66
f 53/53/53 67/67/67 63/63/63
f 66/66/66 68/68/68 60/60/60
f 60/60/60 68/68/68 56/56/56
f 68/68/68 67/67/67 56/56/56
f 67/67/67 69/69/69 63/63/63
f 68/68/68 70/70/70 67/67/67
f 67/67/67 70/70/70 69/69/69
f 73/73/73 72/72/72 71/71/71
f 74/74/74 73/73/73 71/71/71
f 74/74/74 75/75/75 73/73/73
f 75/75/75 76/76/76 73/73/73
f 75/75/75 77/77/77 76/76/76
f 77/77/77 78/78/78 76/76/76
f 81/81/81 80/80/80 79/79/79
f 80/80/80 82/82/82 79/79/79
f 79/79/79 82/82/82 83/83/83
f 82/82/82 84/84/84 83/83/83
f 87/87/87 86/86/86 85/85/85
f 88/88/88 87/87/87 85/85/85
f 91/91/91 90/90/90 89/89/89
f 92/92/92 91/91/91 89/89/89
f 95/95/95 94/94/94 93/93/93
f 96/96/96 95/95/95 93/93/93
f 96/96/96 97/97/97 95/95/95
f 97/97/97 98/98/98 95/95/95
f 97/97/97 99/99/99 98/98/98
f 99/99/99 100/100/100 98/98/98
f 103/103/103 102/102/102 101/101/101
f 104/104/104 103/103/103 101/101/101
f 107/107/107 106/106/106 105/105/105
f 108/108/108 107/107/107 105/105/105
f 109/109/109 107/107/107 108/108/108
f 110/110/110 109/109/109 108/108/108
f 111/111/111 109/109/109 110/110/110
f 112/112/112 111/111/111 110/110/110
f 112/112/112 113/113/113 111/111/111
f 113/113/113 114/114/114 111/111/111
f 113/113/113 115/115/115 114/114/114
f 115/115/115 116/116/116 114/114/114
f 117/117/117 116/116/116 115/115/115
f 118/118/118 117/117/117 115/115/115
f 117/117/117 118/118/118 119/119/119
f 120/120/120 117/117/117 119/119/119
f 120/120/120 119/119/119 121/121/121
f 122/122/122 120/120/120 121/121/121
f 125/125/125 124/124/124 123/123/123
f 126/126/126 125/125/125 123/123/123
f 129/129/129 128/128/128 127/127/127
f 130/130/130 129/129/129 127/127/127
f 133/133/133 132/132/132 131/131/131
f 134/134/134 133/133/133 131/131/131
f 137/137/137 136/136/136 135/135/135
f 138/138/138 137/137/137 135/135/135
f 141/141/141 140/140/140 139/139/139
f 142/142/142 141/141/141 139/139/139
f 145/145/145 144/144/144 143/143/143
f 146/146/146 145/145/145 143/143/143
f 149/149/149 148/148/148 147/147/147
f 150/150/150 149/149/149 147/147/147
f 153/153/153 152/152/152 151/151/151
f 154/154/154 153/153/153 151/151/151
f 157/157/157 156/156/156 155/155/155
f 155/155/155 158/158/158 157/157/157
f 155/155/155 159/159/159 158/158/158
f 162/162/162 161/161/161 160/160/160
f 163/163/163 162/162/162 160/160/160
f 166/166/166 165/165/165 164/164/164
f 164/164/164 167/167/167 166/166/166
f 164/164/164 168/168/168 167/167/167
f 171/171/171 170/170/170 169/169/169
f 169/169/169 172/172/172 171/171/171
f 169/169/169 173/173/173 172/172/172
f 173/173/173 174/174/174 172/172/172
f 177/177/177 176/176/176 175/175/175
f 178/178/178 177/177/177 175/175/175
f 181/181/181 180/180/180 179/179/179
f 182/182/182 181/181/181 179/179/179
f 185/185/185 184/184/184 183/183/183
f 186/186/186 185/185/185 183/183/183
f 189/189/189 188/188/188 187/187/187
f 190/190/190 189/189/189 187/187/187
f 193/193/193 192/192/192 191/191/191
f 194/194/194 193/193/193 191/191/191
