g LegC2
v 0.08881801 0.15952143 -2.4400322
v -0.125744 0.15952143 -2.4400322
v -0.125744 -0.29470766 -2.4400322
v 0.08881801 -0.29470766 -2.4400322
v -0.125744 0.15952143 -2.4400322
v 0.08881801 0.15952143 -5.924301
v 0.08881801 0.15952143 -2.4400322
v -0.125744 0.15952143 -5.913225
v 0.0834179 0.14808932 -8.534041
v -0.12034387 0.14808932 -8.534041
v 0.08881801 0.15952143 -5.924301
v -0.125744 0.15952143 -5.913225
v -0.125744 -0.29470766 -5.913225
v 0.08881801 -0.29470766 -5.913225
v 0.08881801 0.15952143 -2.4400322
v 0.08881801 -0.29470766 -5.913225
v 0.08881801 -0.29470766 -2.4400322
v 0.08881801 0.15952143 -5.924301
v 0.0834179 -0.2832756 -8.534041
v 0.0834179 0.14808932 -8.534041
v -0.125744 0.15952143 -5.913225
v -0.125744 0.11110964 -5.8347893
v -0.125744 -0.24629587 -5.8347893
v -0.125744 -0.29470766 -5.913225
v -0.125744 0.11110964 -5.9673147
v -0.125744 -0.24629587 -5.9673147
v 0.08881801 -0.29470766 -2.4400322
v -0.125744 -0.29470766 -5.913225
v -0.125744 -0.29470766 -2.4400322
v 0.08881801 -0.29470766 -5.913225
v -0.12034387 -0.2832756 -8.534041
v 0.0834179 -0.2832756 -8.534041
v -0.125744 0.11110964 -2.4941216
v -0.047963377 0.11110964 -2.4941216
v -0.047963377 0.11110964 -5.8347893
v -0.125744 0.11110964 -5.8347893
v -0.125744 -0.29470766 -2.4400322
v -0.125744 -0.24629587 -2.4941216
v -0.125744 0.11110964 -2.4941216
v -0.125744 0.15952143 -2.4400322
v -0.125744 -0.29470766 -5.913225
v -0.125744 -0.24629587 -5.8347893
v -0.125744 -0.24629587 -2.4941216
v -0.125744 -0.29470766 -2.4400322
v -0.125744 0.15952143 -2.4400322
v -0.125744 0.11110964 -2.4941216
v -0.125744 0.11110964 -5.8347893
v -0.125744 0.15952143 -5.913225
v -0.047963377 -0.24629587 -2.4941216
v -0.047963377 -0.24629587 -5.8347893
v -0.047963377 0.11110964 -5.8347893
v -0.047963377 0.11110964 -2.4941216
v -0.125744 -0.24629587 -2.4941216
v -0.047963377 -0.24629587 -2.4941216
v -0.047963377 0.11110964 -2.4941216
v -0.125744 0.11110964 -2.4941216
v -0.125744 -0.24629587 -5.8347893
v -0.047963377 -0.24629587 -5.8347893
v -0.047963377 -0.24629587 -2.4941216
v -0.125744 -0.24629587 -2.4941216
v -0.125744 0.11110964 -5.8347893
v -0.047963377 0.11110964 -5.8347893
v -0.047963377 -0.24629587 -5.8347893
v -0.125744 -0.24629587 -5.8347893
v -0.12034387 0.14808932 -8.534041
v -0.125744 0.11110964 -8.473873
v -0.125744 -0.24629587 -8.473873
v -0.12034387 -0.2832756 -8.534041
v -0.125744 0.11110964 -5.9673147
v -0.047963377 0.11110964 -5.9673147
v -0.047963377 0.11110964 -8.473873
v -0.125744 0.11110964 -8.473873
v -0.12034387 -0.2832756 -8.534041
v -0.125744 -0.24629587 -8.473873
v -0.125744 -0.24629587 -5.9673147
v -0.125744 -0.29470766 -5.913225
v -0.125744 0.15952143 -5.913225
v -0.125744 0.11110964 -5.9673147
v -0.125744 0.11110964 -8.473873
v -0.12034387 0.14808932 -8.534041
v -0.047963377 -0.24629587 -5.9673147
v -0.047963377 -0.24629587 -8.473873
v -0.047963377 0.11110964 -8.473873
v -0.047963377 0.11110964 -5.9673147
v -0.125744 -0.24629587 -5.9673147
v -0.047963377 -0.24629587 -5.9673147
v -0.047963377 0.11110964 -5.9673147
v -0.125744 0.11110964 -5.9673147
v -0.125744 -0.24629587 -8.473873
v -0.047963377 -0.24629587 -8.473873
v -0.047963377 -0.24629587 -5.9673147
v -0.125744 -0.24629587 -5.9673147
v -0.125744 0.11110964 -8.473873
v -0.047963377 0.11110964 -8.473873
v -0.047963377 -0.24629587 -8.473873
v -0.125744 -0.24629587 -8.473873
v 0.23551641 -1.0875956 -9.185478
v 0.44375816 -1.0875956 -9.185478
v 0.44375816 -0.5680733 -9.185478
v 0.12314188 -0.3673715 -9.185478
v 0.44375816 0.4328918 -9.185478
v -0.16006784 -0.3673715 -9.185478
v -0.2724424 -1.0875956 -9.185478
v -0.4806842 -1.0875956 -9.185478
v -0.4806842 -0.5680733 -9.185478
v 0.12314188 0.2321852 -9.185478
v 0.44375816 0.95240736 -9.185478
v 0.23551641 0.95240736 -9.185478
v -0.2724424 0.95240736 -9.185478
v -0.16006784 0.2321852 -9.185478
v -0.4806842 0.4328918 -9.185478
v -0.4806842 0.95240736 -9.185478
v -0.2724424 -1.0875956 -9.185478
v -0.4806842 -1.0875956 -9.185478
v -0.4806842 -1.0875956 -8.534041
v -0.2724424 -1.0875956 -8.534041
v 0.23551641 -1.0875956 -8.534041
v 0.23551641 -1.0875956 -9.185478
v 0.44375816 -1.0875956 -9.185478
v 0.44375816 -1.0875956 -8.534041
v -0.12034387 0.14808932 -8.534041
v -0.2724424 0.95240736 -8.534041
v 0.23551641 0.95240736 -8.534041
v 0.0834179 0.14808932 -8.534041
v 0.0834179 -0.2832756 -8.534041
v 0.44375816 -0.5680733 -8.534041
v 0.44375816 -1.0875956 -8.534041
v 0.23551641 -1.0875956 -8.534041
v 0.0834179 -0.2832756 -8.534041
v 0.23551641 -1.0875956 -8.534041
v -0.2724424 -1.0875956 -8.534041
v -0.12034387 -0.2832756 -8.534041
v -0.4806842 0.4328918 -9.185478
v -0.4806842 0.95240736 -9.185478
v -0.4806842 0.95240736 -8.534041
v -0.4806842 0.4328918 -8.534041
v -0.4806842 -0.5680733 -8.534041
v -0.4806842 -0.5680733 -9.185478
v -0.4806842 -1.0875956 -9.185478
v -0.4806842 -1.0875956 -8.534041
v 0.44375816 -0.5680733 -9.185478
v 0.44375816 -1.0875956 -9.185478
v 0.44375816 -1.0875956 -8.534041
v 0.44375816 -0.5680733 -8.534041
v 0.44375816 0.4328918 -8.534041
v 0.44375816 0.4328918 -9.185478
v 0.44375816 0.95240736 -9.185478
v 0.44375816 0.95240736 -8.534041
v -0.2724424 -1.0875956 -8.534041
v -0.4806842 -1.0875956 -8.534041
v -0.4806842 -0.5680733 -8.534041
v -0.12034387 -0.2832756 -8.534041
v -0.12034387 0.14808932 -8.534041
v -0.4806842 0.4328918 -8.534041
v -0.4806842 0.95240736 -8.534041
v -0.2724424 0.95240736 -8.534041
v 0.0834179 0.14808932 -8.534041
v 0.44375816 0.4328918 -8.534041
v 0.44375816 -0.5680733 -8.534041
v 0.0834179 -0.2832756 -8.534041
v -0.12034387 -0.2832756 -8.534041
v -0.4806842 -0.5680733 -8.534041
v -0.4806842 0.4328918 -8.534041
v -0.12034387 0.14808932 -8.534041
v 0.23551641 0.95240736 -9.185478
v 0.44375816 0.95240736 -9.185478
v 0.44375816 0.95240736 -8.534041
v 0.23551641 0.95240736 -8.534041
v -0.2724424 0.95240736 -8.534041
v -0.2724424 0.95240736 -9.185478
v -0.4806842 0.95240736 -9.185478
v -0.4806842 0.95240736 -8.534041
v 0.23551641 0.95240736 -8.534041
v 0.44375816 0.95240736 -8.534041
v 0.44375816 0.4328918 -8.534041
v 0.0834179 0.14808932 -8.534041
vt 0.7669408 0.8768003
vt 0.7772518 0.8768003
vt 0.7772518 0.85497177
vt 0.7669408 0.85497177
vt 0.9185343 0.34379673
vt 0.9082233 0.1522255
vt 0.9082232 0.34379673
vt 0.9185343 0.15275764
vt 0.9082233 0
vt 0.9185343 0
vt 0.6679293 0.8465574
vt 0.65761703 0.8465577
vt 0.65761703 0.86838615
vt 0.66792804 0.86838615
vt 0.8105979 0.34379673
vt 0.78876936 0.15275764
vt 0.78876936 0.34379673
vt 0.8105979 0.1522255
vt 0.78876936 0
vt 0.8105979 0
vt 0.76694083 0.15275764
vt 0.7692673 0.15652752
vt 0.7864429 0.15652752
vt 0.78876936 0.15275764
vt 0.7692673 0.15015888
vt 0.7864429 0.15015888
vt 0.90822315 0.34379673
vt 0.89791214 0.15275764
vt 0.89791214 0.34379673
vt 0.90822315 0.15275764
vt 0.89791214 0
vt 0.9082232 0
vt 0.3047139 0.99285793
vt 0.3084517 0.99285793
vt 0.30845174 0.8081875
vt 0.3047139 0.8081875
vt 0.7887693 0.34379673
vt 0.7864428 0.34119797
vt 0.7692673 0.34119797
vt 0.76694083 0.34379673
vt 0.78876936 0.15275764
vt 0.7864429 0.15652752
vt 0.7864428 0.34119797
vt 0.7887693 0.34379673
vt 0.76694083 0.34379673
vt 0.7692673 0.34119797
vt 0.7692673 0.15652752
vt 0.76694083 0.15275764
vt 0.10305329 0.8443136
vt 0.1030533 0.6596432
vt 0.08587776 0.6596432
vt 0.08587775 0.8443136
vt 0.5320379 0.85905075
vt 0.5283001 0.85905075
vt 0.5283001 0.87622625
vt 0.5320379 0.87622625
vt 0.30471388 0.8081875
vt 0.30097604 0.8081875
vt 0.30097604 0.99285793
vt 0.30471388 0.99285793
vt 0.46965188 0.8590507
vt 0.46591404 0.8590507
vt 0.46591404 0.8762262
vt 0.46965188 0.8762262
vt 0.76694083 0
vt 0.7692673 0.004302025
vt 0.7864429 0.004302025
vt 0.78876936 0
vt 0.69658566 0.9862118
vt 0.70032346 0.9862118
vt 0.70032346 0.8403549
vt 0.69658566 0.8403549
vt 0.78876936 0
vt 0.7864429 0.004302025
vt 0.7864429 0.15015888
vt 0.78876936 0.15275764
vt 0.76694083 0.15275764
vt 0.7692673 0.15015888
vt 0.7692673 0.004302025
vt 0.76694083 0
vt 0.18893105 0.80550003
vt 0.18893108 0.6596432
vt 0.17175552 0.6596432
vt 0.17175552 0.80550003
vt 0.54210514 0.85943985
vt 0.53836733 0.85943985
vt 0.53836733 0.8766154
vt 0.54210514 0.8766154
vt 0.71527475 0.8403549
vt 0.71153694 0.8403549
vt 0.71153694 0.9862118
vt 0.71527475 0.9862118
vt 0.46591404 0.8590507
vt 0.4621762 0.8590507
vt 0.4621762 0.8762262
vt 0.46591404 0.8762262
vt 0.144986 0.80550027
vt 0.13740441 0.80550027
vt 0.13740441 0.8244149
vt 0.1490773 0.831722
vt 0.13740441 0.8608578
vt 0.1593883 0.831722
vt 0.1634796 0.8055003
vt 0.17106119 0.8055003
vt 0.17106119 0.82441497
vt 0.1490773 0.85355055
vt 0.13740441 0.8797722
vt 0.144986 0.8797722
vt 0.1634796 0.8797722
vt 0.1593883 0.85355055
vt 0.17106119 0.86085784
vt 0.17106119 0.8797722
vt 0.790658 0.82889664
vt 0.790658 0.82131505
vt 0.7669411 0.82131505
vt 0.7669411 0.82889664
vt 0.7669411 0.8473903
vt 0.790658 0.8473903
vt 0.790658 0.8549719
vt 0.7669411 0.8549719
vt 0.22809058 0.7601369
vt 0.23218188 0.7339152
vt 0.21368825 0.7339152
vt 0.21777955 0.7601369
vt 0.21777955 0.7819654
vt 0.20610663 0.7892725
vt 0.20610663 0.8081871
vt 0.21368825 0.8081871
vt 0.21777955 0.7819654
vt 0.21368825 0.8081871
vt 0.23218188 0.8081871
vt 0.22809058 0.7819654
vt 0.27725792 0.8271014
vt 0.27725792 0.808187
vt 0.253541 0.808187
vt 0.253541 0.8271014
vt 0.253541 0.8635443
vt 0.27725792 0.8635443
vt 0.27725792 0.8824589
vt 0.253541 0.8824589
vt 0.3809452 0.83165646
vt 0.3809452 0.8127418
vt 0.35722828 0.8127418
vt 0.35722828 0.83165646
vt 0.35722828 0.86809933
vt 0.3809452 0.86809933
vt 0.3809452 0.88701373
vt 0.35722828 0.88701373
vt 0.23218188 0.8081871
vt 0.2397635 0.8081871
vt 0.2397635 0.7892725
vt 0.22809058 0.7819654
vt 0.22809058 0.7601369
vt 0.2397635 0.7528296
vt 0.2397635 0.7339152
vt 0.23218188 0.7339152
vt 0.21777955 0.7601369
vt 0.20610663 0.7528296
vt 0.20610663 0.7892725
vt 0.21777955 0.7819654
vt 0.22809058 0.7819654
vt 0.2397635 0.7892725
vt 0.2397635 0.7528296
vt 0.22809058 0.7601369
vt 0.4046631 0.82032347
vt 0.4046631 0.8127419
vt 0.38094616 0.8127419
vt 0.38094616 0.82032347
vt 0.38094616 0.8388171
vt 0.4046631 0.8388171
vt 0.4046631 0.8463987
vt 0.38094616 0.8463987
vt 0.21368825 0.7339152
vt 0.20610663 0.7339152
vt 0.20610663 0.7528296
vt 0.21777955 0.7601369
vn -0 0 -1
vn -0 0 -1
vn -0 0 -1
vn -0 0 -1
vn -0 1 0
vn -0 1 0
vn -0 1 0
vn -0 1 0
vn -0.00011574501 0.99999046 -0.004371243
vn -0.00011574501 0.99999046 -0.004371243
vn -0.025800554 -0.012187092 -0.99959284
vn -0.025800554 -0.012187092 -0.99959284
vn -0.025800554 -0.012187092 -0.99959284
vn -0.025800554 -0.012187092 -0.99959284
vn 1 0 0
vn 1 0 0
vn 1 0 0
vn 1 0 0
vn 0.99999785 -2.5812347E-05 -0.0020648288
vn 0.99999785 -2.5812347E-05 -0.0020648288
vn -1 0 0
vn -1 0 0
vn -1 0 0
vn -1 0 0
vn -1 0 0
vn -1 0 0
vn -0 -1 0
vn -0 -1 0
vn -0 -1 0
vn -0 -1 0
vn -0 -0.99999046 -0.004361983
vn -0 -0.99999046 -0.004361983
vn -0 -1 0
vn -0 -1 0
vn -0 -1 0
vn -0 -1 0
vn -1 0 0
vn -1 0 0
vn -1 0 0
vn -1 0 0
vn -1 0 0
vn -1 0 0
vn -1 0 0
vn -1 0 0
vn -1 0 0
vn -1 0 0
vn -1 0 0
vn -1 0 0
vn -1 0 0
vn -1 0 0
vn -1 0 0
vn -1 0 0
vn -0 0 -1
vn -0 0 -1
vn -0 0 -1
vn -0 0 -1
vn -0 1 0
vn -0 1 0
vn -0 1 0
vn -0 1 0
vn -0 0 1
vn -0 0 1
vn -0 0 1
vn -0 0 1
vn -0.9959966 0 -0.08939169
vn -0.9959966 0 -0.08939169
vn -0.9959966 0 -0.08939169
vn -0.9959966 0 -0.08939169
vn -0 -1 0
vn -0 -1 0
vn -0 -1 0
vn -0 -1 0
vn -0.99801105 -0.063028894 -0.0011916312
vn -0.99801105 -0.063028894 -0.0011916312
vn -0.99801105 -0.063028894 -0.0011916312
vn -0.99801105 -0.063028894 -0.0011916312
vn -0.99801105 0.063028924 -0.0011916318
vn -0.99801105 0.063028924 -0.0011916318
vn -0.99801105 0.063028924 -0.0011916318
vn -0.99801105 0.063028924 -0.0011916318
vn -1 0 0
vn -1 0 0
vn -1 0 0
vn -1 0 0
vn -0 0 -1
vn -0 0 -1
vn -0 0 -1
vn -0 0 -1
vn -0 1 0
vn -0 1 0
vn -0 1 0
vn -0 1 0
vn -0 0 1
vn -0 0 1
vn -0 0 1
vn -0 0 1
vn -0 0 -1
vn -0 0 -1
vn -0 0 -1
vn -0 0 -1
vn -0 0 -1
vn -0 0 -1
vn -0 0 -1
vn -0 0 -1
vn -0 0 -1
vn -0 0 -1
vn -0 0 -1
vn -0 0 -1
vn -0 0 -1
vn -0 0 -1
vn -0 0 -1
vn -0 0 -1
vn -0 -1 0
vn -0 -1 0
vn -0 -1 0
vn -0 -1 0
vn -0 -1 0
vn -0 -1 0
vn -0 -1 0
vn -0 -1 0
vn -0 0 1
vn -0 0 1
vn -0 0 1
vn -0 0 1
vn -0 0 1
vn -0 0 1
vn -0 0 1
vn -0 0 1
vn -0 0 1
vn -0 0 1
vn -0 0 1
vn -0 0 1
vn -1 0 0
vn -1 0 0
vn -1 0 0
vn -1 0 0
vn -1 0 0
vn -1 0 0
vn -1 0 0
vn -1 0 0
vn 1 0 0
vn 1 0 0
vn 1 0 0
vn 1 0 0
vn 1 0 0
vn 1 0 0
vn 1 0 0
vn 1 0 0
vn -0 0 1
vn -0 0 1
vn -0 0 1
vn -0 0 1
vn -0 0 1
vn -0 0 1
vn -0 0 1
vn -0 0 1
vn -0 0 1
vn -0 0 1
vn -0 0 1
vn -0 0 1
vn -0 0 1
vn -0 0 1
vn -0 0 1
vn -0 0 1
vn -0 1 0
vn -0 1 0
vn -0 1 0
vn -0 1 0
vn -0 1 0
vn -0 1 0
vn -0 1 0
vn -0 1 0
vn -0 0 1
vn -0 0 1
vn -0 0 1
vn -0 0 1
g LegC2_0
f 3/3/3 2/2/2 1/1/1
f 4/4/4 3/3/3 1/1/1
f 7/7/7 6/6/6 5/5/5
f 6/6/6 8/8/8 5/5/5
f 6/6/6 9/9/9 8/8/8
f 9/9/9 10/10/10 8/8/8
f 13/13/13 12/12/12 11/11/11
f 14/14/14 13/13/13 11/11/11
f 17/17/17 16/16/16 15/15/15
f 16/16/16 18/18/18 15/15/15
f 16/16/16 19/19/19 18/18/18
f 19/19/19 20/20/20 18/18/18
f 23/23/23 22/22/22 21/21/21
f 24/24/24 23/23/23 21/21/21
f 21/21/21 25/25/25 24/24/24
f 25/25/25 26/26/26 24/24/24
f 29/29/29 28/28/28 27/27/27
f 28/28/28 30/30/30 27/27/27
f 28/28/28 31/31/31 30/30/30
f 31/31/31 32/32/32 30/30/30
f 35/35/35 34/34/34 33/33/33
f 36/36/36 35/35/35 33/33/33
f 39/39/39 38/38/38 37/37/37
f 40/40/40 39/39/39 37/37/37
f 43/43/43 42/42/42 41/41/41
f 44/44/44 43/43/43 41/41/41
f 47/47/47 46/46/46 45/45/45
f 48/48/48 47/47/47 45/45/45
f 51/51/51 50/50/50 49/49/49
f 52/52/52 51/51/51 49/49/49
f 55/55/55 54/54/54 53/53/53
f 56/56/56 55/55/55 53/53/53
f 59/59/59 58/58/58 57/57/57
f 60/60/60 59/59/59 57/57/57
f 63/63/63 62/62/62 61/61/61
f 64/64/64 63/63/63 61/61/61
f 67/67/67 66/66/66 65/65/65
f 68/68/68 67/67/67 65/65/65
f 71/71/71 70/70/70 69/69/69
f 72/72/72 71/71/71 69/69/69
f 75/75/75 74/74/74 73/73/73
f 76/76/76 75/75/75 73/73/73
f 79/79/79 78/78/78 77/77/77
f 80/80/80 79/79/79 77/77/77
f 83/83/83 82/82/82 81/81/81
f 84/84/84 83/83/83 81/81/81
f 87/87/87 86/86/86 85/85/85
f 88/88/88 87/87/87 85/85/85
f 91/91/91 90/90/90 89/89/89
f 92/92/92 91/91/91 89/89/89
f 95/95/95 94/94/94 93/93/93
f 96/96/96 95/95/95 93/93/93
g LegC2_1
f 99/99/99 98/98/98 97/97/97
f 100/100/100 99/99/99 97/97/97
f 101/101/101 99/99/99 100/100/100
f 100/100/100 97/97/97 102/102/102
f 97/97/97 103/103/103 102/102/102
f 103/103/103 104/104/104 102/102/102
f 104/104/104 105/105/105 102/102/102
f 106/106/106 101/101/101 100/100/100
f 100/100/100 102/102/102 106/106/106
f 107/107/107 101/101/101 106/106/106
f 108/108/108 107/107/107 106/106/106
f 109/109/109 108/108/108 106/106/106
f 102/102/102 105/105/105 110/110/110
f 102/102/102 110/110/110 106/106/106
f 110/110/110 109/109/109 106/106/106
f 105/105/105 111/111/111 110/110/110
f 110/110/110 111/111/111 109/109/109
f 111/111/111 112/112/112 109/109/109
f 115/115/115 114/114/114 113/113/113
f 116/116/116 115/115/115 113/113/113
f 116/116/116 113/113/113 117/117/117
f 113/113/113 118/118/118 117/117/117
f 118/118/118 119/119/119 117/117/117
f 119/119/119 120/120/120 117/117/117
f 123/123/123 122/122/122 121/121/121
f 124/124/124 123/123/123 121/121/121
f 127/127/127 126/126/126 125/125/125
f 128/128/128 127/127/127 125/125/125
f 131/131/131 130/130/130 129/129/129
f 132/132/132 131/131/131 129/129/129
f 135/135/135 134/134/134 133/133/133
f 136/136/136 135/135/135 133/133/133
f 136/136/136 133/133/133 137/137/137
f 133/133/133 138/138/138 137/137/137
f 138/138/138 139/139/139 137/137/137
f 139/139/139 140/140/140 137/137/137
f 143/143/143 142/142/142 141/141/141
f 144/144/144 143/143/143 141/141/141
f 144/144/144 141/141/141 145/145/145
f 141/141/141 146/146/146 145/145/145
f 146/146/146 147/147/147 145/145/145
f 147/147/147 148/148/148 145/145/145
f 151/151/151 150/150/150 149/149/149
f 152/152/152 151/151/151 149/149/149
f 155/155/155 154/154/154 153/153/153
f 156/156/156 155/155/155 153/153/153
f 159/159/159 158/158/158 157/157/157
f 160/160/160 159/159/159 157/157/157
f 163/163/163 162/162/162 161/161/161
f 164/164/164 163/163/163 161/161/161
f 167/167/167 166/166/166 165/165/165
f 168/168/168 167/167/167 165/165/165
f 168/168/168 165/165/165 169/169/169
f 165/165/165 170/170/170 169/169/169
f 170/170/170 171/171/171 169/169/169
f 171/171/171 172/172/172 169/169/169
f 175/175/175 174/174/174 173/173/173
f 176/176/176 175/175/175 173/173/173
