g LeverSwitchCordAnimated2
v 0.114944935 -0.061896086 0.23314273
v 0.10307026 -0.039390326 0.23383379
v 0.15143895 -0.023032904 -0.36629826
v 0.163275 -0.045567513 -0.36598533
v 0.092428684 -0.07376313 0.2327106
v 0.21176004 -0.0136060715 -0.871273
v 0.14081836 -0.057389975 -0.3679642
v 0.08055401 -0.051257372 0.23340166
v 0.22330451 -0.03616047 -0.8688178
v 0.2911718 -0.02324462 -1.2640775
v 0.3011887 -0.04554677 -1.256987
v 0.2011652 -0.047961712 -0.873129
v 0.2804377 -0.05757737 -1.2655116
v 0.1289823 -0.034855366 -0.36827713
v 0.10307026 -0.039390326 0.23383379
v 0.15143895 -0.023032904 -0.36629826
v 0.18962073 -0.025407314 -0.8755842
v 0.2704208 -0.03527522 -1.2726022
v 0.21176004 -0.0136060715 -0.871273
v 0.2911718 -0.02324462 -1.2640775
vt 0.8886719 0.25
vt 0.8886719 0
vt 0.9165039 0
vt 0.9165039 0.25
vt 0.8886719 0.5
vt 0.94433594 0
vt 0.9165039 0.5
vt 0.8886719 0.75
vt 0.94433594 0.25
vt 0.97216797 0
vt 0.97216797 0.25
vt 0.94433594 0.5
vt 0.97216797 0.5
vt 0.9165039 0.75
vt 0.8886719 1
vt 0.9165039 1
vt 0.94433594 0.75
vt 0.97216797 0.75
vt 0.94433594 1
vt 0.97216797 1
vn 0.949761 -0.3054442 0.06824943
vn 0.2623301 0.9638107 0.047453497
vn 0.28610924 0.9568722 0.050368465
vn 0.95021605 -0.29880077 0.088360295
vn -0.3274369 -0.9434382 -0.052053403
vn 0.27695417 0.95995444 0.042235203
vn -0.30290756 -0.9515809 -0.05235259
vn -0.9547001 0.28946114 -0.06899218
vn 0.9432194 -0.29574576 0.15123364
vn 0.19042934 0.98160535 0.013692116
vn 0.9335195 -0.30065706 0.19531207
vn -0.31515667 -0.94784445 -0.04761405
vn -0.40238675 -0.9135246 -0.05964677
vn -0.95068663 0.29740563 -0.08800406
vn 0.2623301 0.9638107 0.047453497
vn 0.28610924 0.9568722 0.050368465
vn -0.9406685 0.30280548 -0.15313935
vn -0.93402475 0.2981142 -0.19678849
vn 0.27695417 0.95995444 0.042235203
vn 0.19042934 0.98160535 0.013692116
g LeverSwitchCordAnimated2_0
f 3/3/3 2/2/2 1/1/1
f 4/4/4 3/3/3 1/1/1
f 4/4/4 1/1/1 5/5/5
f 6/6/6 3/3/3 4/4/4
f 7/7/7 4/4/4 5/5/5
f 7/7/7 5/5/5 8/8/8
f 9/9/9 6/6/6 4/4/4
f 9/9/9 4/4/4 7/7/7
f 10/10/10 6/6/6 9/9/9
f 11/11/11 10/10/10 9/9/9
f 11/11/11 9/9/9 12/12/12
f 12/12/12 9/9/9 7/7/7
f 13/13/13 11/11/11 12/12/12
f 14/14/14 7/7/7 8/8/8
f 12/12/12 7/7/7 14/14/14
f 14/14/14 8/8/8 15/15/15
f 16/16/16 14/14/14 15/15/15
f 13/13/13 12/12/12 17/17/17
f 17/17/17 12/12/12 14/14/14
f 17/17/17 14/14/14 16/16/16
f 18/18/18 13/13/13 17/17/17
f 19/19/19 17/17/17 16/16/16
f 18/18/18 17/17/17 19/19/19
f 20/20/20 18/18/18 19/19/19
