g LeverSwitchCordAnimated1
v 0.009040117 -0.013487577 0.004150152
v -0.0013344288 0.0016286373 0.0055168867
v -0.010527372 0.04970312 -0.62166625
v -0.00014042854 0.034540653 -0.6221251
v -0.00610137 -0.023909807 0.0044828653
v 0.07907963 0.07231283 -1.0451187
v -0.0153000355 0.02418518 -0.6231038
v -0.016475916 -0.008793592 0.0058496
v 0.08922696 0.057070494 -1.0434767
v 0.23408532 0.035158396 -1.3008187
v 0.24224854 0.020020247 -1.2943227
v 0.07432461 0.04680109 -1.0467104
v 0.22919297 0.009653807 -1.3020744
v -0.02568698 0.03934765 -0.62264496
v -0.0013344288 0.0016286373 0.0055168867
v -0.010527372 0.04970312 -0.62166625
v 0.064177275 0.06204343 -1.0483522
v 0.22102976 0.024791956 -1.3085704
v 0.07907963 0.07231283 -1.0451187
v 0.23408532 0.035158396 -1.3008187
vt 0.8886719 0.25
vt 0.8886719 0
vt 0.9165039 0
vt 0.9165039 0.25
vt 0.8886719 0.5
vt 0.94433594 0
vt 0.9165039 0.5
vt 0.8886719 0.75
vt 0.94433594 0.25
vt 0.97216797 0
vt 0.97216797 0.25
vt 0.94433594 0.5
vt 0.97216797 0.5
vt 0.9165039 0.75
vt 0.8886719 1
vt 0.9165039 1
vt 0.94433594 0.75
vt 0.97216797 0.75
vt 0.94433594 1
vt 0.97216797 1
vn 0.98005086 -0.19655555 -0.029430777
vn 0.16778857 0.98312473 0.07288921
vn 0.13234396 0.98843414 0.07404708
vn 0.9774968 -0.1926853 0.085862264
vn -0.2005877 -0.97703063 -0.071943134
vn 0.12667204 0.99193794 -0.0036528658
vn -0.22976476 -0.9692385 -0.088231266
vn -0.98546475 0.16767295 0.027294723
vn 0.90897596 -0.16575903 0.38247442
vn 0.20838416 0.9779463 -0.0140417
vn 0.8220704 -0.20721543 0.53034145
vn -0.26453567 -0.9608813 -0.08202469
vn -0.22711857 -0.9738507 0.0056613088
vn -0.9795832 0.1843617 -0.080171674
vn 0.16778857 0.98312473 0.07288921
vn 0.13234396 0.98843414 0.07404708
vn -0.9109524 0.2157934 -0.35156643
vn -0.8359815 0.15200119 -0.52728593
vn 0.12667204 0.99193794 -0.0036528658
vn 0.20838416 0.9779463 -0.0140417
g LeverSwitchCordAnimated1_0
f 3/3/3 2/2/2 1/1/1
f 4/4/4 3/3/3 1/1/1
f 4/4/4 1/1/1 5/5/5
f 6/6/6 3/3/3 4/4/4
f 7/7/7 4/4/4 5/5/5
f 7/7/7 5/5/5 8/8/8
f 9/9/9 6/6/6 4/4/4
f 9/9/9 4/4/4 7/7/7
f 10/10/10 6/6/6 9/9/9
f 11/11/11 10/10/10 9/9/9
f 11/11/11 9/9/9 12/12/12
f 12/12/12 9/9/9 7/7/7
f 13/13/13 11/11/11 12/12/12
f 14/14/14 7/7/7 8/8/8
f 12/12/12 7/7/7 14/14/14
f 14/14/14 8/8/8 15/15/15
f 16/16/16 14/14/14 15/15/15
f 13/13/13 12/12/12 17/17/17
f 17/17/17 12/12/12 14/14/14
f 17/17/17 14/14/14 16/16/16
f 18/18/18 13/13/13 17/17/17
f 19/19/19 17/17/17 16/16/16
f 18/18/18 17/17/17 19/19/19
f 20/20/20 18/18/18 19/19/19
