g LongCord3
v -2.3593748 0.13615495 -0.020230498
v -2.3691757 0.1155942 -0.00010887858
v -1.7891196 -0.1302603 -0.019069312
v -0.4440654 -0.44826922 0.0025544285
v 0.8802776 -0.48766756 0.052469496
v 0.25740406 -0.47678772 0.010614883
v 11.512602 0.122320436 -0.0685078
v 11.281275 0.10929408 -0.028516026
v 12.565923 0.123335496 0.014284873
v -0.4440654 -0.44826922 0.0025544285
v 0.5318072 -0.47960383 0.06344228
v 0.8802776 -0.48766756 0.052469496
v 11.281275 0.10929408 -0.028516026
v 10.922699 0.13968715 0.020387108
v 11.522249 0.14522643 -0.037774798
v -0.12277334 -0.44417724 0.035883877
v 0.25740406 -0.47678772 0.010614883
v 0.89210296 -0.44854978 0.050032783
v -1.7597522 -0.12948659 0.011363673
v -2.3691757 0.1155942 -0.00010887858
v -2.355396 0.14235578 0.018657567
v -1.7891196 -0.1302603 -0.019069312
v -1.2226216 -0.30335456 -0.0060450644
v -1.227893 -0.27183247 0.013196327
v -0.6408442 -0.4032655 0.023443608
v -0.4440654 -0.44826922 0.0025544285
v -0.12277334 -0.44417724 0.035883877
v 0.5318072 -0.47960383 0.06344228
v -2.355396 0.14235578 0.018657567
v -2.3593748 0.13615495 -0.020230498
v -1.7868075 -0.09376931 -0.018538319
v -1.7891196 -0.1302603 -0.019069312
v -1.1906197 -0.2837911 -0.025563879
v -1.227893 -0.27183247 0.013196327
v -0.6748509 -0.37355453 -0.0077641197
v -1.7868075 -0.09376931 -0.018538319
v -1.227893 -0.27183247 0.013196327
v -1.7597522 -0.12948659 0.011363673
v -2.355396 0.14235578 0.018657567
v 0.8802776 -0.48766756 0.052469496
v 0.5318072 -0.47960383 0.06344228
v 2.9799042 -0.30892727 0.13897662
v 2.952495 -0.31504998 0.10976565
v 3.4959505 -0.32922414 0.11299909
v 3.7723157 -0.3106275 0.108620584
v 3.6335912 -0.2986535 0.11826074
v 6.4035273 0.14806157 0.09903801
v 6.532577 0.13843352 0.082055084
v 7.072004 0.18522663 0.05594796
v 7.031093 0.15834303 0.040259242
v 7.755505 0.10469997 -0.0108651845
v 3.7887025 -0.2708037 0.09430837
v 3.6335912 -0.2986535 0.11826074
v 3.4043176 -0.29486266 0.096795775
v 6.4035273 0.14806157 0.09903801
v 6.5381722 0.17660503 0.070562884
v 7.072004 0.18522663 0.05594796
v 9.894437 0.33999464 0.09120713
v 10.016181 0.30576575 0.112100646
v 10.364625 0.27978376 0.07297316
v 9.855995 0.3087992 0.08846591
v 7.755505 0.10469997 -0.0108651845
v 7.7016616 0.10761957 -0.04543075
v 7.031093 0.15834303 0.040259242
v 7.052619 0.18289156 0.02087117
v 6.3766623 0.13624659 0.06091933
v 6.532577 0.13843352 0.082055084
v 3.6554492 -0.3098235 0.08143534
v 3.7723157 -0.3106275 0.108620584
v 3.4959505 -0.32922414 0.11299909
v 2.952495 -0.31504998 0.10976565
v 10.922699 0.13968715 0.020387108
v 11.001453 0.14215761 -0.021119665
v 10.364625 0.27978376 0.07297316
v 11.281275 0.10929408 -0.028516026
v 11.512602 0.122320436 -0.0685078
v -0.12277334 -0.44417724 0.035883877
v 0.89210296 -0.44854978 0.050032783
v 0.5318072 -0.47960383 0.06344228
v 2.9545968 -0.27920228 0.12583071
v 2.9799042 -0.30892727 0.13897662
v 3.6335912 -0.2986535 0.11826074
v 10.364625 0.27978376 0.07297316
v 10.364345 0.2895577 0.1107599
v 10.922699 0.13968715 0.020387108
v 10.016181 0.30576575 0.112100646
v 9.992552 0.3406947 0.120504096
v 7.755505 0.10469997 -0.0108651845
v 12.493697 0.15061817 0.0097429445
v 11.522249 0.14522643 -0.037774798
v 11.353334 0.14493884 -0.052311737
v 12.565923 0.123335496 0.014284873
v 11.281275 0.10929408 -0.028516026
v 13.100141 0.06973468 0.029730396
v 12.81492 0.1397146 -0.006056275
v 13.105441 0.09305498 -0.003168192
v -0.6748509 -0.37355453 -0.0077641197
v 0.25740406 -0.47678772 0.010614883
v -0.12277334 -0.44417724 0.035883877
v -0.6408442 -0.4032655 0.023443608
v -1.227893 -0.27183247 0.013196327
v 7.7016616 0.10761957 -0.04543075
v 9.855995 0.3087992 0.08846591
v 9.894437 0.33999464 0.09120713
v 7.8653946 0.13869306 -0.019698832
v 7.561336 0.14465037 -0.017023789
v 7.052619 0.18289156 0.02087117
v 7.072004 0.18522663 0.05594796
v 6.5381722 0.17660503 0.070562884
v 6.3766623 0.13624659 0.06091933
v 3.7887025 -0.2708037 0.09430837
v 3.6554492 -0.3098235 0.08143534
v 3.4043176 -0.29486266 0.096795775
v 3.6335912 -0.2986535 0.11826074
v 2.9545968 -0.27920228 0.12583071
v 3.4043176 -0.29486266 0.096795775
v 0.89210296 -0.44854978 0.050032783
v -1.2226216 -0.30335456 -0.0060450644
v -1.1906197 -0.2837911 -0.025563879
v -1.7891196 -0.1302603 -0.019069312
v -0.4440654 -0.44826922 0.0025544285
v -0.6748509 -0.37355453 -0.0077641197
v 0.25740406 -0.47678772 0.010614883
v 13.099952 0.06883158 0.0020802503
v 13.105441 0.09305498 -0.003168192
v 12.81492 0.1397146 -0.006056275
v 12.47129 0.1324979 -0.024229016
v 12.493697 0.15061817 0.0097429445
v 11.353334 0.14493884 -0.052311737
v 11.512602 0.122320436 -0.0685078
v 11.001453 0.14215761 -0.021119665
v 10.97204 0.16716763 0.010479741
v 11.522249 0.14522643 -0.037774798
v 10.364625 0.27978376 0.07297316
v 10.412454 0.29956526 0.0958982
v 9.894437 0.33999464 0.09120713
v 9.992552 0.3406947 0.120504096
v 7.072004 0.18522663 0.05594796
v 7.561336 0.14465037 -0.017023789
v 7.755505 0.10469997 -0.0108651845
v 7.8653946 0.13869306 -0.019698832
v 9.992552 0.3406947 0.120504096
v 9.894437 0.33999464 0.09120713
v 10.364345 0.2895577 0.1107599
v 9.992552 0.3406947 0.120504096
v 10.412454 0.29956526 0.0958982
v 10.97204 0.16716763 0.010479741
v 10.922699 0.13968715 0.020387108
v 11.522249 0.14522643 -0.037774798
v 11.512602 0.122320436 -0.0685078
v 12.565923 0.123335496 0.014284873
v 12.47129 0.1324979 -0.024229016
v 13.099952 0.06883158 0.0020802503
v 13.100141 0.06973468 0.029730396
vt 0.8250979 0.5017352
vt 0.8285704 0.50191045
vt 0.8285704 0.46294373
vt 0.9732024 0.3158507
vt 0.9732024 0.2305834
vt 0.97119516 0.27072367
vt 0.92509985 0.51914024
vt 0.92808664 0.5337819
vt 0.92808664 0.45076364
vt 0.97119516 0.2305834
vt 0.9688676 0.29336017
vt 0.97119516 0.3157501
vt 0.8210232 0.4782064
vt 0.8250979 0.50130445
vt 0.82509786 0.46294373
vt 0.9249268 0.45076364
vt 0.9199008 0.47517192
vt 0.9249268 0.51598287
vt 0.9351057 0.4821167
vt 0.9451027 0.5232325
vt 0.9490755 0.5226946
vt 0.9323344 0.48387107
vt 0.9280866 0.44621968
vt 0.93217295 0.44694
vt 0.93181133 0.40840325
vt 0.9298705 0.3953962
vt 0.938425 0.3751749
vt 0.9490755 0.3333965
vt 0.9907071 0
vt 0.9869515 0.00024846828
vt 0.9836055 0.038049884
vt 0.9806613 0.038212314
vt 0.98325187 0.07710382
vt 0.9864061 0.07422119
vt 0.9907071 0.10999907
vt 0.9199007 0.48824742
vt 0.9199008 0.45076364
vt 0.91551703 0.48579255
vt 0.9186613 0.5265028
vt 0.8340221 0.022259424
vt 0.8299458 0
vt 0.82708067 0.15742159
vt 0.8295069 0.15549898
vt 0.83456707 0.19032432
vt 0.83521956 0.20802386
vt 0.8324257 0.19919933
vt 0.81353253 0.37696448
vt 0.8165623 0.38513082
vt 0.818126 0.41959044
vt 0.821383 0.41685885
vt 0.8352196 0.4629437
vt 0.86517173 0.3249371
vt 0.86736494 0.3147814
vt 0.8623482 0.30032027
vt 0.8651869 0.49294958
vt 0.8623072 0.50183487
vt 0.86736494 0.5360365
vt 0.7989471 0.6175337
vt 0.79372907 0.6252348
vt 0.79288465 0.64777213
vt 0.7971753 0.61508197
vt 0.8057343 0.48089287
vt 0.809405 0.4776133
vt 0.8101567 0.4341889
vt 0.81353253 0.4356666
vt 0.81126094 0.3921233
vt 0.80844957 0.4020148
vt 0.7957468 0.21752998
vt 0.79244936 0.22488742
vt 0.7926247 0.20714474
vt 0.79774094 0.17231502
vt 0.90930325 0.48702595
vt 0.9131031 0.49218404
vt 0.91551703 0.45076364
vt 0.91102374 0.51024294
vt 0.91551703 0.5251909
vt 0.9831325 0.4713196
vt 0.9795661 0.406185
vt 0.97665584 0.4293165
vt 0.98313236 0.2742409
vt 0.9795711 0.27261117
vt 0.9807739 0.2305834
vt 0.84478366 0.467834
vt 0.84120035 0.46793538
vt 0.86222786 0.50369537
vt 0.83903587 0.4455639
vt 0.8352196 0.44402134
vt 0.8622279 0.30032027
vt 0.97059786 0.078555286
vt 0.9776542 0.01546741
vt 0.9760232 0.004671768
vt 0.9733485 0.083212025
vt 0.9806613 0
vt 0.9806613 0.11751611
vt 0.9711217 0.09925316
vt 0.9760894 0.11794833
vt 0.9684305 0.29091424
vt 0.9688676 0.2305834
vt 0.96525073 0.25505787
vt 0.96385145 0.2884785
vt 0.9688676 0.32691368
vt 0.9093031 0.14174296
vt 0.8940217 0.00258012
vt 0.89153713 0
vt 0.9055853 0.13109678
vt 0.9032116 0.15059784
vt 0.8941935 0.18309501
vt 0.8911648 0.18180974
vt 0.88767123 0.21610504
vt 0.89078176 0.22662614
vt 0.90587085 0.3941992
vt 0.9093032 0.40290412
vt 0.9054426 0.41896343
vt 0.97320193 0.3333965
vt 0.9666838 0.37689498
vt 0.973241 0.34812593
vt 0.9732409 0.5100273
vt 0.99067175 0.39568573
vt 0.99425757 0.39751175
vt 0.9966635 0.35825157
vt 0.9899692 0.4464289
vt 0.99316055 0.43112916
vt 0.9966636 0.49141583
vt 0.9454129 0.3330661
vt 0.9469406 0.3333965
vt 0.94786096 0.3146968
vt 0.94283175 0.2927676
vt 0.9472618 0.2940026
vt 0.9297595 0.22030929
vt 0.9280866 0.23065822
vt 0.92908007 0.19760722
vt 0.9334496 0.19552012
vt 0.9324861 0.23106948
vt 0.94230306 0.15606211
vt 0.9462062 0.15897866
vt 0.9444975 0.12571672
vt 0.94786096 0.13186286
vt 0.9952374 0.31282023
vt 0.9963099 0.281095
vt 0.9919237 0.26860583
vt 0.9950921 0.26155698
vt 0.9936823 0.12571672
vt 0.9963099 0.1319099
vt 0.9612025 0.30563393
vt 0.96385145 0.32968622
vt 0.9633303 0.30255252
vt 0.9605611 0.26606405
vt 0.9574019 0.26916173
vt 0.96385145 0.2305834
vt 0.9574018 0.3331936
vt 0.95194113 0.26504123
vt 0.9478609 0.27106133
vt 0.95499265 0.2305834
vt 0.9574019 0.23063228
vn 0.07770749 0.2855523 -0.9552076
vn -0.40956673 -0.90919197 0.07499935
vn -0.29872063 -0.76916426 -0.5649356
vn -0.08195453 -0.9513726 -0.29694065
vn 0.065080695 -0.9975057 -0.027328838
vn -0.062142037 -0.5744059 -0.8162084
vn 0.034975104 -0.28809983 -0.9569614
vn -0.007906706 -0.98841023 0.15160051
vn -0.0807297 -0.65338486 0.7527091
vn -0.08195453 -0.9513726 -0.29694065
vn -0.039811473 -0.54388195 0.8382169
vn 0.065080695 -0.9975057 -0.027328838
vn -0.007906706 -0.98841023 0.15160051
vn -0.09542041 -0.8562663 0.50764453
vn -0.020668278 0.8267398 0.56220466
vn 0.027298061 0.26672122 0.9633871
vn -0.062142037 -0.5744059 -0.8162084
vn -0.025140386 0.5407998 -0.8407755
vn -0.087682396 -0.21193194 0.973343
vn -0.40956673 -0.90919197 0.07499935
vn 0.18724783 0.50837195 0.8405333
vn -0.29872063 -0.76916426 -0.5649356
vn -0.23002248 -0.9727806 0.028062528
vn 0.1364386 0.44812322 0.8834988
vn -0.09891062 -0.18304564 0.97811604
vn -0.08195453 -0.9513726 -0.29694065
vn 0.027298061 0.26672122 0.9633871
vn -0.039811473 -0.54388195 0.8382169
vn 0.18724783 0.50837195 0.8405333
vn 0.07770749 0.2855523 -0.9552076
vn 0.33643064 0.8229277 -0.4578258
vn -0.29872063 -0.76916426 -0.5649356
vn 0.07978156 0.3774481 -0.9225876
vn 0.1364386 0.44812322 0.8834988
vn 0.18769252 0.850745 -0.49092194
vn 0.33643064 0.8229277 -0.4578258
vn 0.1364386 0.44812322 0.8834988
vn -0.087682396 -0.21193194 0.973343
vn 0.18724783 0.50837195 0.8405333
vn 0.065080695 -0.9975057 -0.027328838
vn -0.039811473 -0.54388195 0.8382169
vn -0.000114971255 -0.43077075 0.9024614
vn 0.06606707 -0.9100881 -0.40911472
vn 0.030352375 -0.93947166 0.34127954
vn 0.14354752 -0.9443284 0.29603705
vn -0.0052344645 0.2817095 0.9594855
vn -0.052309796 0.41121042 0.91003823
vn 0.076162785 -0.9540227 0.28989658
vn 0.082006514 0.53453505 0.8411583
vn 0.028053438 -0.9889165 0.14579774
vn 0.07906332 -0.7178558 0.69168776
vn -0.14715421 0.9164665 -0.37206852
vn -0.0052344645 0.2817095 0.9594855
vn 0.07065178 0.47781304 -0.87561584
vn -0.052309796 0.41121042 0.91003823
vn -0.06870639 0.99415475 -0.08328145
vn 0.082006514 0.53453505 0.8411583
vn 0.0065081376 0.79701185 -0.60392857
vn -0.10110565 -0.9317374 0.3487735
vn -0.19751103 -0.55905306 -0.80526346
vn 0.094234675 -0.3388878 -0.9360956
vn 0.07906332 -0.7178558 0.69168776
vn -0.08401182 -0.4115645 -0.9075003
vn 0.028053438 -0.9889165 0.14579774
vn -0.093072884 0.450423 -0.8879507
vn 0.0014643713 -0.09056539 -0.9958895
vn 0.076162785 -0.9540227 0.28989658
vn -0.011832854 -0.32557002 -0.9454439
vn 0.14354752 -0.9443284 0.29603705
vn 0.030352375 -0.93947166 0.34127954
vn 0.06606707 -0.9100881 -0.40911472
vn -0.09542041 -0.8562663 0.50764453
vn -0.09552651 -0.241568 -0.9656705
vn -0.19751103 -0.55905306 -0.80526346
vn -0.007906706 -0.98841023 0.15160051
vn 0.034975104 -0.28809983 -0.9569614
vn 0.027298061 0.26672122 0.9633871
vn -0.025140386 0.5407998 -0.8407755
vn -0.039811473 -0.54388195 0.8382169
vn -0.053970493 0.9836404 0.17186856
vn -0.000114971255 -0.43077075 0.9024614
vn -0.0052344645 0.2817095 0.9594855
vn -0.19751103 -0.55905306 -0.80526346
vn 0.008651909 -0.28479964 0.95854795
vn -0.09542041 -0.8562663 0.50764453
vn -0.10110565 -0.9317374 0.3487735
vn 0.04034215 0.7153912 0.6975585
vn 0.07906332 -0.7178558 0.69168776
vn -0.029245947 0.8670817 0.49730664
vn -0.020668278 0.8267398 0.56220466
vn -0.03980647 0.6530675 -0.75625277
vn -0.0807297 -0.65338486 0.7527091
vn -0.007906706 -0.98841023 0.15160051
vn 0.029753946 -0.24615033 0.96877486
vn 0.12939462 0.9391813 -0.3181125
vn 0.16914196 0.8899988 -0.4234302
vn 0.18769252 0.850745 -0.49092194
vn -0.062142037 -0.5744059 -0.8162084
vn 0.027298061 0.26672122 0.9633871
vn -0.09891062 -0.18304564 0.97811604
vn 0.1364386 0.44812322 0.8834988
vn -0.08401182 -0.4115645 -0.9075003
vn 0.094234675 -0.3388878 -0.9360956
vn 0.0065081376 0.79701185 -0.60392857
vn -0.10114094 0.985507 0.13618521
vn 0.078996316 0.9929575 -0.088289805
vn -0.093072884 0.450423 -0.8879507
vn 0.082006514 0.53453505 0.8411583
vn -0.06870639 0.99415475 -0.08328145
vn 0.0014643713 -0.09056539 -0.9958895
vn -0.14715421 0.9164665 -0.37206852
vn -0.011832854 -0.32557002 -0.9454439
vn 0.07065178 0.47781304 -0.87561584
vn -0.0052344645 0.2817095 0.9594855
vn -0.053970493 0.9836404 0.17186856
vn 0.07065178 0.47781304 -0.87561584
vn -0.025140386 0.5407998 -0.8407755
vn -0.23002248 -0.9727806 0.028062528
vn 0.07978156 0.3774481 -0.9225876
vn -0.29872063 -0.76916426 -0.5649356
vn -0.08195453 -0.9513726 -0.29694065
vn 0.18769252 0.850745 -0.49092194
vn -0.062142037 -0.5744059 -0.8162084
vn -0.046191376 -0.69233686 -0.72009444
vn 0.16914196 0.8899988 -0.4234302
vn 0.12939462 0.9391813 -0.3181125
vn 0.036116865 -0.1091756 -0.9933662
vn -0.029245947 0.8670817 0.49730664
vn -0.03980647 0.6530675 -0.75625277
vn 0.034975104 -0.28809983 -0.9569614
vn -0.09552651 -0.241568 -0.9656705
vn 0.16288777 0.9007024 0.40274408
vn -0.020668278 0.8267398 0.56220466
vn -0.19751103 -0.55905306 -0.80526346
vn 0.21696435 0.9494025 0.22707132
vn 0.0065081376 0.79701185 -0.60392857
vn 0.04034215 0.7153912 0.6975585
vn 0.082006514 0.53453505 0.8411583
vn 0.078996316 0.9929575 -0.088289805
vn 0.07906332 -0.7178558 0.69168776
vn -0.10114094 0.985507 0.13618521
vn 0.04034215 0.7153912 0.6975585
vn 0.0065081376 0.79701185 -0.60392857
vn 0.008651909 -0.28479964 0.95854795
vn 0.04034215 0.7153912 0.6975585
vn 0.21696435 0.9494025 0.22707132
vn 0.16288777 0.9007024 0.40274408
vn -0.09542041 -0.8562663 0.50764453
vn -0.020668278 0.8267398 0.56220466
vn 0.034975104 -0.28809983 -0.9569614
vn -0.0807297 -0.65338486 0.7527091
vn 0.036116865 -0.1091756 -0.9933662
vn -0.046191376 -0.69233686 -0.72009444
vn 0.029753946 -0.24615033 0.96877486
g LongCord3_0
f 3/3/3 2/2/2 1/1/1
f 6/6/6 5/5/5 4/4/4
f 9/9/9 8/8/8 7/7/7
f 12/12/12 11/11/11 10/10/10
f 15/15/15 14/14/14 13/13/13
f 18/18/18 17/17/17 16/16/16
f 21/21/21 20/20/20 19/19/19
f 19/19/19 20/20/20 22/22/22
f 19/19/19 22/22/22 23/23/23
f 19/19/19 23/23/23 24/24/24
f 25/25/25 24/24/24 23/23/23
f 26/26/26 25/25/25 23/23/23
f 25/25/25 26/26/26 27/27/27
f 28/28/28 27/27/27 26/26/26
f 31/31/31 30/30/30 29/29/29
f 30/30/30 31/31/31 32/32/32
f 31/31/31 33/33/33 32/32/32
f 34/34/34 33/33/33 31/31/31
f 34/34/34 35/35/35 33/33/33
f 38/38/38 37/37/37 36/36/36
f 36/36/36 39/39/39 38/38/38
f 42/42/42 41/41/41 40/40/40
f 42/42/42 40/40/40 43/43/43
f 44/44/44 42/42/42 43/43/43
f 42/42/42 44/44/44 45/45/45
f 46/46/46 42/42/42 45/45/45
f 47/47/47 46/46/46 45/45/45
f 48/48/48 47/47/47 45/45/45
f 49/49/49 47/47/47 48/48/48
f 50/50/50 49/49/49 48/48/48
f 50/50/50 51/51/51 49/49/49
f 54/54/54 53/53/53 52/52/52
f 52/52/52 53/53/53 55/55/55
f 55/55/55 56/56/56 52/52/52
f 57/57/57 56/56/56 55/55/55
f 60/60/60 59/59/59 58/58/58
f 58/58/58 59/59/59 61/61/61
f 59/59/59 62/62/62 61/61/61
f 62/62/62 63/63/63 61/61/61
f 63/63/63 62/62/62 64/64/64
f 64/64/64 65/65/65 63/63/63
f 66/66/66 65/65/65 64/64/64
f 67/67/67 66/66/66 64/64/64
f 68/68/68 66/66/66 67/67/67
f 69/69/69 68/68/68 67/67/67
f 69/69/69 70/70/70 68/68/68
f 70/70/70 71/71/71 68/68/68
f 74/74/74 73/73/73 72/72/72
f 75/75/75 72/72/72 73/73/73
f 76/76/76 75/75/75 73/73/73
f 79/79/79 78/78/78 77/77/77
f 80/80/80 78/78/78 79/79/79
f 79/79/79 81/81/81 80/80/80
f 82/82/82 80/80/80 81/81/81
f 85/85/85 84/84/84 83/83/83
f 84/84/84 86/86/86 83/83/83
f 84/84/84 87/87/87 86/86/86
f 87/87/87 88/88/88 86/86/86
f 91/91/91 90/90/90 89/89/89
f 92/92/92 89/89/89 90/90/90
f 92/92/92 90/90/90 93/93/93
f 94/94/94 89/89/89 92/92/92
f 94/94/94 95/95/95 89/89/89
f 94/94/94 96/96/96 95/95/95
f 99/99/99 98/98/98 97/97/97
f 100/100/100 99/99/99 97/97/97
f 97/97/97 101/101/101 100/100/100
f 104/104/104 103/103/103 102/102/102
f 105/105/105 104/104/104 102/102/102
f 102/102/102 106/106/106 105/105/105
f 102/102/102 107/107/107 106/106/106
f 108/108/108 106/106/106 107/107/107
f 108/108/108 107/107/107 109/109/109
f 110/110/110 109/109/109 107/107/107
f 109/109/109 110/110/110 111/111/111
f 111/111/111 110/110/110 112/112/112
f 111/111/111 112/112/112 113/113/113
f 116/116/116 115/115/115 114/114/114
f 117/117/117 115/115/115 116/116/116
f 120/120/120 119/119/119 118/118/118
f 119/119/119 121/121/121 118/118/118
f 122/122/122 121/121/121 119/119/119
f 121/121/121 122/122/122 123/123/123
f 126/126/126 125/125/125 124/124/124
f 127/127/127 126/126/126 124/124/124
f 128/128/128 126/126/126 127/127/127
f 128/128/128 127/127/127 129/129/129
f 127/127/127 130/130/130 129/129/129
f 130/130/130 131/131/131 129/129/129
f 132/132/132 129/129/129 131/131/131
f 133/133/133 129/129/129 132/132/132
f 131/131/131 134/134/134 132/132/132
f 134/134/134 135/135/135 132/132/132
f 134/134/134 136/136/136 135/135/135
f 135/135/135 136/136/136 137/137/137
f 140/140/140 139/139/139 138/138/138
f 139/139/139 140/140/140 141/141/141
f 141/141/141 140/140/140 142/142/142
f 142/142/142 143/143/143 141/141/141
f 146/146/146 145/145/145 144/144/144
f 144/144/144 147/147/147 146/146/146
f 148/148/148 147/147/147 144/144/144
f 147/147/147 148/148/148 149/149/149
f 152/152/152 151/151/151 150/150/150
f 152/152/152 153/153/153 151/151/151
f 151/151/151 153/153/153 154/154/154
