g 
v -0.29500294 0.3110447 0.27494088
v -0.09496367 0.33490664 0.36733764
v -0.23754047 0.21756965 0.3873141
v -0.33816394 0.08954314 0.36470145
v -0.13651748 0.08741029 0.4830178
v -0.03279758 0.47694728 0.17453508
v 0.01030014 0.21946907 0.4599922
v 0.12816136 0.41903517 0.26500055
v -0.45276403 0.18395104 0.1376525
v -0.28950924 -0.12915681 0.39296374
v -0.435399 -0.041737307 0.26628473
v -0.22745082 0.44460043 0.08982945
v -0.36348194 0.3529366 0.055473007
v -0.061921358 0.4939287 -0.093829855
v -0.22630893 0.41781712 -0.19540212
v -0.4431304 0.22196321 -0.15057322
v 0.105352886 0.4990533 -0.0512291
v -0.02689165 0.38726723 -0.33378014
v -0.5079953 0.03238218 0.020434579
v -0.26223773 0.2547886 -0.3482662
v -0.42516634 0.100448385 -0.26505327
v -0.47910285 -0.13121712 0.10841554
v -0.47344676 -0.10077453 -0.16179249
v -0.3031065 -0.27006754 0.3057038
v -0.069177315 0.226272 -0.44951984
v -0.21813066 0.11421442 -0.4395555
v 0.20563152 0.37914002 -0.26821736
v 0.09615946 0.28530285 -0.4067593
v 0.1822961 0.1350386 -0.45467064
v -0.03816671 0.058592048 -0.4997077
v 0.3040307 0.22833999 -0.32900932
v -0.328002 -0.04674064 -0.38284934
v -0.1981689 -0.068890266 -0.46035483
v -0.41367167 -0.12812424 -0.26109645
v -0.27584222 -0.22647302 -0.35425502
v 0.31962508 0.38844815 -0.077137075
v 0.39967537 0.25278065 -0.1822793
v 0.38480744 0.05899711 -0.32470778
v 0.2019255 -0.03282849 -0.4676229
v 0.0032395897 -0.12915722 -0.48808348
v -0.13412161 -0.2313338 -0.42665142
v 0.28728873 0.40657133 0.098460205
v 0.10819249 -0.20207031 -0.45319074
v 0.46654642 0.19469346 -0.01861286
v 0.46160415 0.06581077 -0.19360505
v 0.41222462 0.26646388 0.12767078
v 0.3238961 0.30293208 0.23532428
v 0.40460035 -0.114916585 -0.28380594
v 0.2654018 -0.24805215 -0.35284084
v 0.02673162 -0.32622382 -0.39353603
v 0.49904922 0.064699106 0.03765145
v 0.21906969 0.26372194 0.375254
v 0.4871652 -0.119689226 -0.09505747
v 0.40371835 -0.25734538 -0.16355455
v 0.35388297 0.1284315 0.3408871
v 0.16810974 0.11259559 0.4614427
v 0.4629844 0.040982716 0.20253333
v 0.48878106 -0.07659151 0.09472978
v 0.44222748 -0.2240543 0.13512728
v 0.2036039 -0.37015292 -0.28513473
v 0.04278579 -0.049661558 0.5033761
v 0.3816083 -0.06469883 0.32379463
v 0.22655413 0.00239813 0.45097223
v 0.31857026 -0.39887413 -0.047424886
v -0.13326494 -0.08876395 0.47874507
v 0.3739998 -0.2557177 0.22992595
v 0.25916606 -0.21854483 0.38074124
v 0.07822902 -0.2064878 0.45884418
v -0.1422729 -0.23133394 0.42400283
v -0.0901425 -0.4284579 0.26320997
v 0.039503627 -0.32804936 0.38322997
v 0.21409324 -0.41409972 0.21442467
v 0.13487144 -0.4858853 -0.06937124
v 0.04248391 -0.49585783 0.09289517
v 0.01803488 -0.47673896 -0.17813389
v -0.14663345 -0.48693672 -0.048311558
v -0.17338958 -0.38688403 -0.280029
v -0.3028695 -0.35386652 -0.1946427
v -0.3127491 -0.39974448 0.044213437
v -0.4099089 -0.27295622 -0.11088543
v -0.44533193 -0.23186773 0.0234448
v -0.33437365 -0.34302378 0.1771681
vn -0.5649414 0.6381836 0.5229492
vn -0.20361328 0.65185547 0.73046875
vn -0.45385742 0.4272461 0.7817383
vn -0.671875 0.20080566 0.7128906
vn -0.3125 0.18237305 0.9321289
vn -0.12719727 0.93359375 0.33447266
vn 0.06530762 0.43164062 0.89990234
vn 0.25830078 0.81152344 0.5239258
vn -0.8828125 0.35913086 0.3022461
vn -0.55371094 -0.19482422 0.8095703
vn -0.859375 -0.07745361 0.5048828
vn -0.42358398 0.89404297 0.14660645
vn -0.71484375 0.6933594 0.089782715
vn -0.14550781 0.9770508 -0.15625
vn -0.47827148 0.8120117 -0.33398438
vn -0.8461914 0.46728516 -0.25585938
vn 0.23413086 0.96777344 -0.09136963
vn -0.05355835 0.79052734 -0.61035156
vn -0.9970703 0.07281494 0.008163452
vn -0.51220703 0.5175781 -0.6855469
vn -0.82666016 0.14526367 -0.54345703
vn -0.9238281 -0.30859375 0.22558594
vn -0.94921875 -0.21032715 -0.23486328
vn -0.6201172 -0.5058594 0.5996094
vn -0.12164307 0.43164062 -0.8935547
vn -0.45898438 0.20922852 -0.86328125
vn 0.4194336 0.7470703 -0.515625
vn 0.2388916 0.5571289 -0.79541016
vn 0.33642578 0.28173828 -0.8984375
vn -0.055511475 0.09887695 -0.99365234
vn 0.57421875 0.46289062 -0.67529297
vn -0.64746094 -0.08569336 -0.7573242
vn -0.36645508 -0.1508789 -0.91796875
vn -0.78564453 -0.3100586 -0.53564453
vn -0.55566406 -0.4453125 -0.70214844
vn 0.6611328 0.73876953 -0.13061523
vn 0.77734375 0.484375 -0.40112305
vn 0.72802734 0.15686035 -0.6669922
vn 0.40649414 -0.09674072 -0.9086914
vn -0.02168274 -0.22033691 -0.97509766
vn -0.23022461 -0.46411133 -0.85546875
vn 0.5517578 0.8066406 0.21228027
vn 0.1772461 -0.40356445 -0.89746094
vn 0.90966797 0.40893555 -0.072509766
vn 0.93310547 0.12585449 -0.33740234
vn 0.8339844 0.4873047 0.25854492
vn 0.62402344 0.609375 0.48901367
vn 0.7890625 -0.2121582 -0.57666016
vn 0.5185547 -0.47265625 -0.71240234
vn 0.07342529 -0.66308594 -0.7451172
vn 0.9892578 0.13293457 0.05847168
vn 0.42578125 0.51464844 0.7441406
vn 0.9638672 -0.21069336 -0.1619873
vn 0.7788086 -0.53515625 -0.32739258
vn 0.6928711 0.26757812 0.6694336
vn 0.3395996 0.2286377 0.9121094
vn 0.9140625 0.060180664 0.40161133
vn 0.9760742 -0.1307373 0.1743164
vn 0.88720703 -0.40014648 0.22875977
vn 0.42041016 -0.7583008 -0.49780273
vn 0.08496094 -0.021759033 0.99609375
vn 0.7583008 -0.14904785 0.6347656
vn 0.46069336 -0.05480957 0.8857422
vn 0.6381836 -0.76953125 -0.029022217
vn -0.24230957 -0.20544434 0.9482422
vn 0.7080078 -0.5473633 0.44677734
vn 0.4909668 -0.4440918 0.7495117
vn 0.12573242 -0.36889648 0.92089844
vn -0.2680664 -0.49438477 0.82714844
vn -0.22094727 -0.84716797 0.48291016
vn 0.10241699 -0.66259766 0.7421875
vn 0.38378906 -0.828125 0.40844727
vn 0.30493164 -0.94628906 -0.10632324
vn 0.050231934 -0.9892578 0.13598633
vn 0.019470215 -0.93652344 -0.34985352
vn -0.3034668 -0.94921875 -0.084106445
vn -0.3244629 -0.7573242 -0.56640625
vn -0.6196289 -0.68652344 -0.38085938
vn -0.61328125 -0.78808594 0.05230713
vn -0.8076172 -0.54003906 -0.2364502
vn -0.8745117 -0.48388672 0.037475586
vn -0.68310547 -0.6464844 0.34033203
g _0
f 3/3/3 2/2/2 1/1/1
f 1/1/1 4/4/4 3/3/3
f 2/2/2 3/3/3 5/5/5
f 3/3/3 4/4/4 5/5/5
f 1/1/1 2/2/2 6/6/6
f 7/7/7 2/2/2 5/5/5
f 2/2/2 8/8/8 6/6/6
f 7/7/7 8/8/8 2/2/2
f 9/9/9 4/4/4 1/1/1
f 5/5/5 4/4/4 10/10/10
f 11/11/11 4/4/4 9/9/9
f 10/10/10 4/4/4 11/11/11
f 1/1/1 6/6/6 12/12/12
f 9/9/9 1/1/1 13/13/13
f 13/13/13 1/1/1 12/12/12
f 12/12/12 6/6/6 14/14/14
f 15/15/15 13/13/13 12/12/12
f 15/15/15 12/12/12 14/14/14
f 13/13/13 16/16/16 9/9/9
f 16/16/16 13/13/13 15/15/15
f 6/6/6 17/17/17 14/14/14
f 8/8/8 17/17/17 6/6/6
f 18/18/18 15/15/15 14/14/14
f 18/18/18 14/14/14 17/17/17
f 9/9/9 19/19/19 11/11/11
f 9/9/9 16/16/16 19/19/19
f 20/20/20 16/16/16 15/15/15
f 18/18/18 20/20/20 15/15/15
f 16/16/16 21/21/21 19/19/19
f 16/16/16 20/20/20 21/21/21
f 11/11/11 19/19/19 22/22/22
f 21/21/21 23/23/23 19/19/19
f 19/19/19 23/23/23 22/22/22
f 22/22/22 24/24/24 11/11/11
f 24/24/24 10/10/10 11/11/11
f 25/25/25 20/20/20 18/18/18
f 20/20/20 26/26/26 21/21/21
f 20/20/20 25/25/25 26/26/26
f 27/27/27 18/18/18 17/17/17
f 25/25/25 18/18/18 28/28/28
f 27/27/27 28/28/28 18/18/18
f 28/28/28 29/29/29 25/25/25
f 26/26/26 25/25/25 30/30/30
f 25/25/25 29/29/29 30/30/30
f 31/31/31 28/28/28 27/27/27
f 28/28/28 31/31/31 29/29/29
f 21/21/21 26/26/26 32/32/32
f 26/26/26 30/30/30 33/33/33
f 26/26/26 33/33/33 32/32/32
f 34/34/34 21/21/21 32/32/32
f 34/34/34 23/23/23 21/21/21
f 35/35/35 32/32/32 33/33/33
f 35/35/35 34/34/34 32/32/32
f 36/36/36 27/27/27 17/17/17
f 31/31/31 27/27/27 37/37/37
f 37/37/37 27/27/27 36/36/36
f 31/31/31 38/38/38 29/29/29
f 31/31/31 37/37/37 38/38/38
f 39/39/39 30/30/30 29/29/29
f 29/29/29 38/38/38 39/39/39
f 30/30/30 40/40/40 33/33/33
f 40/40/40 30/30/30 39/39/39
f 33/33/33 40/40/40 41/41/41
f 41/41/41 35/35/35 33/33/33
f 42/42/42 36/36/36 17/17/17
f 8/8/8 42/42/42 17/17/17
f 43/43/43 40/40/40 39/39/39
f 43/43/43 41/41/41 40/40/40
f 44/44/44 37/37/37 36/36/36
f 37/37/37 45/45/45 38/38/38
f 37/37/37 44/44/44 45/45/45
f 46/46/46 36/36/36 42/42/42
f 46/46/46 44/44/44 36/36/36
f 47/47/47 42/42/42 8/8/8
f 47/47/47 46/46/46 42/42/42
f 39/39/39 38/38/38 48/48/48
f 38/38/38 45/45/45 48/48/48
f 49/49/49 43/43/43 39/39/39
f 49/49/49 39/39/39 48/48/48
f 41/41/41 43/43/43 50/50/50
f 49/49/49 50/50/50 43/43/43
f 51/51/51 45/45/45 44/44/44
f 44/44/44 46/46/46 51/51/51
f 52/52/52 47/47/47 8/8/8
f 7/7/7 52/52/52 8/8/8
f 53/53/53 48/48/48 45/45/45
f 53/53/53 45/45/45 51/51/51
f 54/54/54 49/49/49 48/48/48
f 53/53/53 54/54/54 48/48/48
f 46/46/46 47/47/47 55/55/55
f 47/47/47 52/52/52 55/55/55
f 7/7/7 56/56/56 52/52/52
f 52/52/52 56/56/56 55/55/55
f 46/46/46 57/57/57 51/51/51
f 46/46/46 55/55/55 57/57/57
f 58/58/58 53/53/53 51/51/51
f 57/57/57 58/58/58 51/51/51
f 59/59/59 53/53/53 58/58/58
f 59/59/59 58/58/58 57/57/57
f 59/59/59 54/54/54 53/53/53
f 49/49/49 54/54/54 60/60/60
f 50/50/50 49/49/49 60/60/60
f 61/61/61 56/56/56 7/7/7
f 7/7/7 5/5/5 61/61/61
f 57/57/57 55/55/55 62/62/62
f 57/57/57 62/62/62 59/59/59
f 55/55/55 56/56/56 63/63/63
f 61/61/61 63/63/63 56/56/56
f 55/55/55 63/63/63 62/62/62
f 54/54/54 59/59/59 64/64/64
f 54/54/54 64/64/64 60/60/60
f 5/5/5 65/65/65 61/61/61
f 5/5/5 10/10/10 65/65/65
f 62/62/62 66/66/66 59/59/59
f 59/59/59 66/66/66 64/64/64
f 67/67/67 62/62/62 63/63/63
f 67/67/67 66/66/66 62/62/62
f 68/68/68 63/63/63 61/61/61
f 68/68/68 61/61/61 65/65/65
f 68/68/68 67/67/67 63/63/63
f 65/65/65 10/10/10 69/69/69
f 69/69/69 68/68/68 65/65/65
f 24/24/24 69/69/69 10/10/10
f 69/69/69 24/24/24 70/70/70
f 68/68/68 69/69/69 71/71/71
f 67/67/67 68/68/68 71/71/71
f 71/71/71 69/69/69 70/70/70
f 66/66/66 67/67/67 72/72/72
f 67/67/67 71/71/71 72/72/72
f 66/66/66 72/72/72 64/64/64
f 72/72/72 71/71/71 70/70/70
f 64/64/64 72/72/72 73/73/73
f 60/60/60 64/64/64 73/73/73
f 73/73/73 72/72/72 74/74/74
f 72/72/72 70/70/70 74/74/74
f 60/60/60 73/73/73 75/75/75
f 75/75/75 73/73/73 74/74/74
f 50/50/50 60/60/60 75/75/75
f 76/76/76 75/75/75 74/74/74
f 70/70/70 76/76/76 74/74/74
f 50/50/50 75/75/75 77/77/77
f 77/77/77 75/75/75 76/76/76
f 77/77/77 41/41/41 50/50/50
f 35/35/35 41/41/41 77/77/77
f 35/35/35 77/77/77 78/78/78
f 78/78/78 77/77/77 76/76/76
f 34/34/34 35/35/35 78/78/78
f 70/70/70 79/79/79 76/76/76
f 78/78/78 76/76/76 79/79/79
f 80/80/80 34/34/34 78/78/78
f 80/80/80 78/78/78 79/79/79
f 34/34/34 80/80/80 23/23/23
f 80/80/80 81/81/81 23/23/23
f 81/81/81 80/80/80 79/79/79
f 22/22/22 23/23/23 81/81/81
f 82/82/82 79/79/79 70/70/70
f 82/82/82 81/81/81 79/79/79
f 81/81/81 82/82/82 22/22/22
f 24/24/24 82/82/82 70/70/70
f 82/82/82 24/24/24 22/22/22
