g Mug
v 0.075574316 1.0750395 0.2670301
v -0.0028296842 0.6744734 0.2975162
v 0.059183374 0.67281806 0.41607833
v -0.02393565 1.0466424 0.18815483
v -0.0028296842 0.6744734 0.2975162
v 0.075574316 1.0750395 0.2670301
v -0.0033101444 1.0354675 -0.34100446
v -0.06835523 1.126899 -0.253987
v -0.053011008 0.67347383 -0.39207742
v 0.018650513 0.7495664 0.74080247
v 0.12732808 0.75776404 -0.74080247
v 0.36217552 0.64990425 0.74080247
v 0.016812809 1.2443926 -0.106191725
v 0.074143425 1.0804527 -0.25131205
v 0.054995753 1.2307391 0.10114375
v 0.6128802 0.4319438 -0.74080247
v 0.36217552 0.64990425 0.74080247
v 0.12732808 0.75776404 -0.74080247
v 0.63360304 0.40092978 0.74080247
v 0.75609535 -0.05301195 -0.74080247
v 0.75190943 -0.09551329 0.74080247
v 0.54321116 -0.51683575 -0.74080247
v 0.46414194 -0.5992185 0.74080247
v 0.46414194 -0.5992185 0.74080247
v 0.54321116 -0.51683575 -0.74080247
v 0.0955133 -0.75190943 -0.74080247
v -0.018650409 -0.7495664 0.74080247
v -0.46414244 -0.59921813 -0.74080247
v -0.49715537 -0.572125 0.74080247
v -0.6131832 0.4317594 0.74080247
v -0.73880196 0.12794209 -0.74080247
v -0.49715424 0.57212603 -0.74080247
v -0.7574483 -0.0514573 0.74080247
v -0.7080737 -0.22842596 -0.74080247
v -0.49715537 -0.572125 0.74080247
v -0.46414244 -0.59921813 -0.74080247
v -0.47111326 -0.40937886 -0.58038837
v -0.105352804 -0.6083621 -0.58037794
v -0.019832388 -0.66366214 0.7407783
v -0.41649923 -0.48973355 0.74080116
v -0.6243708 -0.18940023 0.7407933
v -0.6241629 0.04703863 -0.5803872
v -0.6162564 0.18725754 0.7408009
v 0.08253307 0.64972025 0.7407897
v 0.46938565 0.4465948 0.74079794
v 0.27858898 0.55850434 -0.5803853
v 0.5919142 0.19793014 -0.5803872
v 0.66078454 -1.4024923E-08 0.7407822
v 0.55850416 -0.27858895 -0.5803872
v 0.013369257 0.98823977 0.39700964
v 0.059183374 0.67281806 0.41607833
v -0.096575834 0.67286587 0.38246173
v -0.070434645 1.084339 0.3306376
v -0.015051931 1.2127515 0.2315739
v -0.096575834 0.67286587 0.38246173
v -0.0028296842 0.6744734 0.2975162
v -0.02393565 1.0466424 0.18815483
v -0.070434645 1.084339 0.3306376
v -0.08478703 1.1858077 0.0112181865
v 0.022009151 1.1043205 0.020552984
v -0.017724436 1.0477874 -0.1401825
v -0.06835523 1.126899 -0.253987
v -0.015239021 0.67426574 -0.25783968
v -0.053011008 0.67347383 -0.39207742
v 0.075574316 1.0750395 0.2670301
v 0.059183374 0.67281806 0.41607833
v 0.013369257 0.98823977 0.39700964
v -0.015051931 1.2127515 0.2315739
v 0.054995753 1.2307391 0.10114375
v 0.054995753 1.2307391 0.10114375
v -0.015051931 1.2127515 0.2315739
v 0.016812809 1.2443926 -0.106191725
v -0.08478703 1.1858077 0.0112181865
v -0.06835523 1.126899 -0.253987
v -0.070434645 1.084339 0.3306376
v -0.017724436 1.0477874 -0.1401825
v 0.022009151 1.1043205 0.020552984
v 0.074143425 1.0804527 -0.25131205
v 0.054995753 1.2307391 0.10114375
v 0.075574316 1.0750395 0.2670301
v -0.02393565 1.0466424 0.18815483
v 0.074143425 1.0804527 -0.25131205
v 0.016812809 1.2443926 -0.106191725
v -0.06835523 1.126899 -0.253987
v -0.0033101444 1.0354675 -0.34100446
v 0.08156081 0.6726444 -0.33686987
v -0.053011008 0.67347383 -0.39207742
v 0.12732808 0.75776404 -0.74080247
v 0.018650513 0.7495664 0.74080247
v -0.33916083 0.6622059 0.74080247
v -0.49715424 0.57212603 -0.74080247
v -0.6131832 0.4317594 0.74080247
v 0.54321116 -0.51683575 -0.74080247
v 0.75609535 -0.05301195 -0.74080247
v 0.6128802 0.4319438 -0.74080247
v 0.12732808 0.75776404 -0.74080247
v 0.0955133 -0.75190943 -0.74080247
v -0.49715424 0.57212603 -0.74080247
v -0.46414244 -0.59921813 -0.74080247
v -0.7080737 -0.22842596 -0.74080247
v -0.73880196 0.12794209 -0.74080247
v 0.27858898 0.55850434 -0.5803853
v 0.5919142 0.19793014 -0.5803872
v 0.55850416 -0.27858895 -0.5803872
v 0.25039047 -0.56436527 -0.58038044
v -0.1804902 0.59499794 -0.58038664
v -0.105352804 -0.6083621 -0.58037794
v -0.47111326 -0.40937886 -0.58038837
v -0.4744383 0.38936266 -0.5803767
v -0.6241629 0.04703863 -0.5803872
v -0.4744383 0.38936266 -0.5803767
v -0.6241629 0.04703863 -0.5803872
v -0.6162564 0.18725754 0.7408009
v -0.40106168 0.5177816 0.7407908
v -0.1804902 0.59499794 -0.58038664
v 0.08253307 0.64972025 0.7407897
v 0.27858898 0.55850434 -0.5803853
v 0.4595338 -0.45953387 0.74079657
v 0.55850416 -0.27858895 -0.5803872
v 0.66078454 -1.4024923E-08 0.7407822
v 0.25039047 -0.56436527 -0.58038044
v -0.019832388 -0.66366214 0.7407783
v -0.105352804 -0.6083621 -0.58037794
v -0.017724436 1.0477874 -0.1401825
v 0.074143425 1.0804527 -0.25131205
v 0.08156081 0.6726444 -0.33686987
v -0.015239021 0.67426574 -0.25783968
v -0.40106168 0.5177816 0.7407908
v -0.33916083 0.6622059 0.74080247
v 0.018650513 0.7495664 0.74080247
v -0.6131832 0.4317594 0.74080247
v 0.08253307 0.64972025 0.7407897
v -0.6162564 0.18725754 0.7408009
v 0.36217552 0.64990425 0.74080247
v -0.7574483 -0.0514573 0.74080247
v 0.46938565 0.4465948 0.74079794
v -0.6243708 -0.18940023 0.7407933
v 0.63360304 0.40092978 0.74080247
v 0.66078454 -1.4024923E-08 0.7407822
v 0.75190943 -0.09551329 0.74080247
v 0.4595338 -0.45953387 0.74079657
v 0.46414194 -0.5992185 0.74080247
v -0.49715537 -0.572125 0.74080247
v -0.41649923 -0.48973355 0.74080116
v -0.019832388 -0.66366214 0.7407783
v -0.018650409 -0.7495664 0.74080247
vt 0.41577148 0.7597656
vt 0.40795898 0.78759766
vt 0.41870117 0.78759766
vt 0.66552734 0.58935547
vt 0.6743164 0.6196289
vt 0.6743164 0.5854492
vt 0.6699219 0.55126953
vt 0.66552734 0.54345703
vt 0.66552734 0.58251953
vt 0.5527344 0.6591797
vt 0.55810547 0.78515625
vt 0.5776367 0.6582031
vt 0.42138672 0.7753906
vt 0.43041992 0.7919922
vt 0.43041992 0.7597656
vt 0.25195312 0.022155762
vt 0.3010254 0.35961914
vt 0.31201172 0.05319214
vt 0.2487793 0.36816406
vt 0.13769531 0.014144897
vt 0.12695312 0.37109375
vt 0.041748047 0.03378296
vt 0.02432251 0.359375
vt 0.51171875 0.78515625
vt 0.51904297 0.6586914
vt 0.47631836 0.6591797
vt 0.46875 0.78564453
vt 0.4362793 0.65966797
vt 0.43603516 0.7861328
vt 0.44702148 0.46704102
vt 0.54345703 0.09106445
vt 0.40356445 0.10498047
vt 0.60839844 0.47583008
vt 0.67041016 0.09313965
vt 0.7783203 0.4597168
vt 0.7885742 0.107177734
vt 0.5932617 0.78808594
vt 0.56103516 0.7890625
vt 0.5527344 0.90185547
vt 0.5854492 0.9003906
vt 0.61621094 0.9003906
vt 0.6323242 0.7885742
vt 0.64160156 0.90185547
vt 0.64453125 0.9121094
vt 0.67626953 0.9086914
vt 0.64453125 0.7988281
vt 0.6845703 0.7939453
vt 0.7167969 0.90283203
vt 0.7167969 0.78808594
vt 0.53027344 0.80810547
vt 0.5263672 0.83496094
vt 0.5395508 0.83496094
vt 0.53759766 0.7998047
vt 0.5332031 0.7890625
vt 0.42773438 0.86083984
vt 0.4326172 0.8535156
vt 0.40649414 0.84277344
vt 0.4013672 0.85498047
vt 0.39404297 0.8276367
vt 0.4050293 0.828125
vt 0.40698242 0.8149414
vt 0.39916992 0.8051758
vt 0.4326172 0.80615234
vt 0.4309082 0.7949219
vt 0.5336914 0.8691406
vt 0.5385742 0.8378906
vt 0.5263672 0.859375
vt 0.5283203 0.8823242
vt 0.5385742 0.88720703
vt 0.40795898 0.6899414
vt 0.41381836 0.7011719
vt 0.4111328 0.6723633
vt 0.4206543 0.6826172
vt 0.421875 0.66015625
vt 0.421875 0.70996094
vt 0.42358398 0.7475586
vt 0.41748047 0.7338867
vt 0.41625977 0.7573242
vt 0.40795898 0.7270508
vt 0.41577148 0.7128906
vt 0.42358398 0.7192383
vt 0.6777344 0.546875
vt 0.6748047 0.53271484
vt 0.66552734 0.54345703
vt 0.6699219 0.55126953
vt 0.6777344 0.58203125
vt 0.66552734 0.58251953
vt 0.4050293 0.7919922
vt 0.4050293 0.66552734
vt 0.37817383 0.6645508
vt 0.35595703 0.79003906
vt 0.34765625 0.66259766
vt 0.4645996 0.5410156
vt 0.4362793 0.57373047
vt 0.43603516 0.6166992
vt 0.46704102 0.65527344
vt 0.5058594 0.53271484
vt 0.5214844 0.65527344
vt 0.5473633 0.55859375
vt 0.5576172 0.59472656
vt 0.5517578 0.625
vt 0.5917969 0.6352539
vt 0.6328125 0.6352539
vt 0.6616211 0.6064453
vt 0.66259766 0.5703125
vt 0.56396484 0.6074219
vt 0.6455078 0.5449219
vt 0.6123047 0.53271484
vt 0.5605469 0.57714844
vt 0.57421875 0.54833984
vt 0.50146484 0.9013672
vt 0.5234375 0.90185547
vt 0.5185547 0.7890625
vt 0.49145508 0.7890625
vt 0.4716797 0.9013672
vt 0.4489746 0.7890625
vt 0.43603516 0.90185547
vt 0.34985352 0.9086914
vt 0.3310547 0.7963867
vt 0.3100586 0.9091797
vt 0.36694336 0.79589844
vt 0.39111328 0.90771484
vt 0.39111328 0.7949219
vt 0.42504883 0.6923828
vt 0.4326172 0.6948242
vt 0.4326172 0.66015625
vt 0.42456055 0.66015625
vt 0.3203125 0.5761719
vt 0.3100586 0.58496094
vt 0.31201172 0.61621094
vt 0.32202148 0.5566406
vt 0.32177734 0.61865234
vt 0.34179688 0.55029297
vt 0.32885742 0.64160156
vt 0.35766602 0.53271484
vt 0.34814453 0.64501953
vt 0.37231445 0.54003906
vt 0.35595703 0.65722656
vt 0.3894043 0.64941406
vt 0.39941406 0.6542969
vt 0.42163086 0.62109375
vt 0.43310547 0.61816406
vt 0.40649414 0.54052734
vt 0.40185547 0.5493164
vt 0.42626953 0.57714844
vt 0.43310547 0.5751953
vn 0.984375 0.12207031 0.12683105
vn 0.8359375 -0.20239258 -0.5102539
vn 0.86621094 -0.20422363 -0.4560547
vn -0.36035156 -0.74560547 -0.56103516
vn 0.8359375 -0.20239258 -0.5102539
vn 0.984375 0.12207031 0.12683105
vn -0.6777344 0.19311523 -0.70947266
vn -0.6777344 0.19311523 -0.70947266
vn -0.6777344 0.19311523 -0.70947266
vn -0.007118225 1 0.00074338913
vn 0.18054199 0.98339844 -0.016860962
vn 0.46679688 0.88427734 0.0033435822
vn 0.7910156 0.5366211 -0.2939453
vn 0.9199219 0.28686523 -0.26708984
vn 0.70458984 0.70458984 0.083862305
vn 0.8276367 0.56152344 -0.0074386597
vn 0.46679688 0.88427734 0.0033435822
vn 0.18054199 0.98339844 -0.016860962
vn 0.8334961 0.5527344 -0.0071868896
vn 0.9946289 -0.101745605 0.003484726
vn 0.99316406 -0.114868164 0.0035686493
vn 0.7192383 -0.69433594 -0.009140015
vn 0.6425781 -0.7661133 0.011024475
vn 0.6425781 -0.7661133 0.011024475
vn 0.7192383 -0.69433594 -0.009140015
vn 0.08728027 -0.99609375 -0.011024475
vn -0.017623901 -1 0.009140015
vn -0.625 -0.7807617 0.0020713806
vn -0.6352539 -0.77197266 0.0023517609
vn -0.8359375 0.5488281 0.018096924
vn -0.9785156 0.20458984 -0.019042969
vn -0.62402344 0.78125 -0.020935059
vn -0.99365234 -0.109680176 0.014205933
vn -0.9501953 -0.31176758 -0.0055007935
vn -0.6352539 -0.77197266 0.0023517609
vn -0.625 -0.7807617 0.0020713806
vn 0.7470703 0.6635742 0.0385437
vn 0.17773438 0.98339844 0.037078857
vn 0.032318115 0.9995117 0.011352539
vn 0.6430664 0.765625 0.01260376
vn 0.95703125 0.2890625 0.00541687
vn 0.9951172 -0.08984375 0.037841797
vn 0.96240234 -0.2709961 0.009933472
vn -0.109680176 -0.9941406 -0.0029010773
vn -0.7338867 -0.6796875 -0.0024032593
vn -0.45092773 -0.8911133 0.052124023
vn -0.94628906 -0.31958008 0.053649902
vn -1 0.0033168793 -0.0041236877
vn -0.8989258 0.43481445 0.050628662
vn 0.23254395 0.2861328 0.9296875
vn -0.21081543 0.028442383 0.9770508
vn -0.27539062 0.051757812 0.95996094
vn -0.109069824 0.4987793 0.8598633
vn -0.10858154 0.86279297 0.49365234
vn -0.74609375 -0.18737793 -0.63916016
vn -0.6479492 -0.24829102 -0.71972656
vn -0.36035156 -0.74560547 -0.56103516
vn -0.9501953 -0.15722656 -0.2685547
vn -0.7128906 -0.7011719 -0.005554199
vn 0.38720703 -0.9213867 0.028930664
vn -0.89941406 -0.37329102 0.22814941
vn -0.9399414 -0.2746582 0.20288086
vn -0.94677734 -0.11364746 0.30151367
vn -0.94677734 -0.11364746 0.30151367
vn 0.984375 0.12207031 0.12683105
vn 0.84716797 0.1538086 0.5083008
vn 0.23254395 0.2861328 0.9296875
vn -0.10858154 0.86279297 0.49365234
vn 0.70458984 0.70458984 0.083862305
vn 0.70458984 0.70458984 0.083862305
vn -0.10858154 0.86279297 0.49365234
vn -0.56103516 0.8203125 -0.11254883
vn -0.58251953 0.8125 0.0012617111
vn -0.6542969 0.7290039 -0.20239258
vn -0.8334961 0.51464844 0.20092773
vn 0.66015625 -0.6142578 0.43164062
vn 0.38720703 -0.9213867 0.028930664
vn 0.9199219 0.28686523 -0.26708984
vn 0.70458984 0.70458984 0.083862305
vn 0.984375 0.12207031 0.12683105
vn -0.36035156 -0.74560547 -0.56103516
vn 0.9199219 0.28686523 -0.26708984
vn 0.7910156 0.5366211 -0.2939453
vn 0.24597168 0.7167969 -0.65234375
vn 0.5498047 0.38720703 -0.7397461
vn 0.44458008 0.09387207 -0.890625
vn 0.37890625 0.078125 -0.9223633
vn 0.18054199 0.98339844 -0.016860962
vn -0.007118225 1 0.00074338913
vn -0.45166016 0.89208984 -0.0017471313
vn -0.62402344 0.78125 -0.020935059
vn -0.8359375 0.5488281 0.018096924
vn -0 0 -1
vn -0 0 -1
vn -0 0 -1
vn -0 0 -1
vn -0 0 -1
vn -0 0 -1
vn -0 0 -1
vn -0 0 -1
vn -0 0 -1
vn -0 0 1
vn -0 0 1
vn -0 0 1
vn -0 0 1
vn -0 0 1
vn -0 0 1
vn -0 0 1
vn -0 0 1
vn -0 0 1
vn 0.75634766 -0.6533203 0.03463745
vn 0.9951172 -0.08984375 0.037841797
vn 0.96240234 -0.2709961 0.009933472
vn 0.62353516 -0.7817383 0.009246826
vn 0.26489258 -0.9628906 0.047088623
vn -0.109680176 -0.9941406 -0.0029010773
vn -0.45092773 -0.8911133 0.052124023
vn -0.7026367 0.7114258 -0.0065345764
vn -0.8989258 0.43481445 0.050628662
vn -1 0.0033168793 -0.0041236877
vn -0.42138672 0.9057617 0.043823242
vn 0.032318115 0.9995117 0.011352539
vn 0.17773438 0.98339844 0.037078857
vn 0.66015625 -0.6142578 0.43164062
vn 0.9199219 0.28686523 -0.26708984
vn 0.7133789 -0.16796875 0.6801758
vn 0.7133789 -0.16796875 0.6801758
vn 8.046627E-05 -0.00010150671 1
vn 4.1127205E-05 -0.00010448694 1
vn -0 -0.0001155138 1
vn 5.9843063E-05 -2.1636486E-05 1
vn -2.193451E-05 -0.00012457371 1
vn 3.0875206E-05 0 1
vn -4.5120716E-05 -5.7578087E-05 1
vn 5.6266785E-05 0 1
vn -4.094839E-05 -4.607439E-05 1
vn 0.00011140108 4.839897E-05 1
vn -5.8948994E-05 -5.26309E-05 1
vn -0.00021755695 -2.7954578E-05 1
vn -0.00014722347 3.7670135E-05 1
vn -8.9764595E-05 5.978346E-05 1
vn -6.908178E-05 6.3836575E-05 1
vn 3.1530857E-05 2.2232533E-05 1
vn 2.0623207E-05 0 1
vn -0 0.00024724007 1
vn -0 0.0002810955 1
g Mug_0
f 3/3/3 2/2/2 1/1/1
f 6/6/6 5/5/5 4/4/4
f 9/9/9 8/8/8 7/7/7
f 12/12/12 11/11/11 10/10/10
f 15/15/15 14/14/14 13/13/13
f 18/18/18 17/17/17 16/16/16
f 17/17/17 19/19/19 16/16/16
f 16/16/16 19/19/19 20/20/20
f 19/19/19 21/21/21 20/20/20
f 20/20/20 21/21/21 22/22/22
f 21/21/21 23/23/23 22/22/22
f 26/26/26 25/25/25 24/24/24
f 27/27/27 26/26/26 24/24/24
f 26/26/26 27/27/27 28/28/28
f 27/27/27 29/29/29 28/28/28
f 32/32/32 31/31/31 30/30/30
f 30/30/30 31/31/31 33/33/33
f 31/31/31 34/34/34 33/33/33
f 35/35/35 33/33/33 34/34/34
f 36/36/36 35/35/35 34/34/34
f 39/39/39 38/38/38 37/37/37
f 40/40/40 39/39/39 37/37/37
f 37/37/37 41/41/41 40/40/40
f 37/37/37 42/42/42 41/41/41
f 41/41/41 42/42/42 43/43/43
f 46/46/46 45/45/45 44/44/44
f 46/46/46 47/47/47 45/45/45
f 47/47/47 48/48/48 45/45/45
f 47/47/47 49/49/49 48/48/48
f 52/52/52 51/51/51 50/50/50
f 53/53/53 52/52/52 50/50/50
f 53/53/53 50/50/50 54/54/54
f 57/57/57 56/56/56 55/55/55
f 58/58/58 57/57/57 55/55/55
f 57/57/57 58/58/58 59/59/59
f 60/60/60 57/57/57 59/59/59
f 61/61/61 60/60/60 59/59/59
f 61/61/61 59/59/59 62/62/62
f 61/61/61 62/62/62 63/63/63
f 62/62/62 64/64/64 63/63/63
f 67/67/67 66/66/66 65/65/65
f 68/68/68 67/67/67 65/65/65
f 69/69/69 68/68/68 65/65/65
f 72/72/72 71/71/71 70/70/70
f 73/73/73 71/71/71 72/72/72
f 72/72/72 74/74/74 73/73/73
f 71/71/71 73/73/73 75/75/75
f 78/78/78 77/77/77 76/76/76
f 79/79/79 77/77/77 78/78/78
f 79/79/79 80/80/80 77/77/77
f 77/77/77 80/80/80 81/81/81
f 84/84/84 83/83/83 82/82/82
f 85/85/85 84/84/84 82/82/82
f 86/86/86 85/85/85 82/82/82
f 86/86/86 87/87/87 85/85/85
f 90/90/90 89/89/89 88/88/88
f 91/91/91 90/90/90 88/88/88
f 90/90/90 91/91/91 92/92/92
f 95/95/95 94/94/94 93/93/93
f 93/93/93 96/96/96 95/95/95
f 93/93/93 97/97/97 96/96/96
f 97/97/97 98/98/98 96/96/96
f 97/97/97 99/99/99 98/98/98
f 99/99/99 100/100/100 98/98/98
f 100/100/100 101/101/101 98/98/98
f 104/104/104 103/103/103 102/102/102
f 102/102/102 105/105/105 104/104/104
f 102/102/102 106/106/106 105/105/105
f 106/106/106 107/107/107 105/105/105
f 106/106/106 108/108/108 107/107/107
f 106/106/106 109/109/109 108/108/108
f 109/109/109 110/110/110 108/108/108
f 113/113/113 112/112/112 111/111/111
f 114/114/114 113/113/113 111/111/111
f 111/111/111 115/115/115 114/114/114
f 115/115/115 116/116/116 114/114/114
f 115/115/115 117/117/117 116/116/116
f 120/120/120 119/119/119 118/118/118
f 119/119/119 121/121/121 118/118/118
f 121/121/121 122/122/122 118/118/118
f 121/121/121 123/123/123 122/122/122
f 126/126/126 125/125/125 124/124/124
f 127/127/127 126/126/126 124/124/124
f 130/130/130 129/129/129 128/128/128
f 131/131/131 128/128/128 129/129/129
f 132/132/132 130/130/130 128/128/128
f 133/133/133 128/128/128 131/131/131
f 132/132/132 134/134/134 130/130/130
f 135/135/135 133/133/133 131/131/131
f 132/132/132 136/136/136 134/134/134
f 137/137/137 133/133/133 135/135/135
f 136/136/136 138/138/138 134/134/134
f 136/136/136 139/139/139 138/138/138
f 139/139/139 140/140/140 138/138/138
f 140/140/140 139/139/139 141/141/141
f 142/142/142 140/140/140 141/141/141
f 143/143/143 137/137/137 135/135/135
f 144/144/144 137/137/137 143/143/143
f 141/141/141 145/145/145 142/142/142
f 145/145/145 144/144/144 143/143/143
f 145/145/145 146/146/146 142/142/142
f 146/146/146 145/145/145 143/143/143
