g NurbsPath.002
v 1.2354435 -3.8230792E-07 0.006454589
v 1.2355347 0.016999513 0.023454458
v -0.6197576 0.019448658 0.030961424
v 1.235581 -5.676411E-07 0.04045432
v -0.6198488 0.0024487656 0.013961557
v -0.6197112 0.0024485802 0.047961283
v -0.6198024 -0.014551317 0.030961417
v 1.2354898 -0.017000467 0.02345445
v -0.6455758 0.24194518 -0.0006589261
v -0.6455758 -0.0047534523 0.024351092
v -0.6285758 -0.0064681084 0.007437788
v -0.6286118 0.23681349 -0.01692099
v -0.6115758 -0.0047534513 0.024351101
v -0.6285758 -0.0030387952 0.041264407
v -0.6115758 0.24194518 -0.0006589174
v -0.6285758 0.24904004 0.014789797
v -0.6454677 0.25321028 -0.011236291
v -0.6116582 0.25320974 -0.01124748
v -0.6284949 0.2695068 -0.005302669
v -0.6455758 0.25315872 -0.22078553
v -0.6285758 0.23615871 -0.22078553
v -0.6285758 0.2701587 -0.22078553
v -0.6115758 0.25315872 -0.22078553
v 1.2377305 -0.016986344 1.6892505
v 1.2244095 0.0006813181 1.6798482
v 1.1969615 0.00073936005 1.7192665
v 1.2388437 0.016986344 1.6900363
v 1.2069987 -0.017060377 1.7333509
v 1.2521647 -0.00068131916 1.6994386
v 1.2158175 -0.00065566954 1.7495785
v -0.6288746 -0.00074043573 1.752541
v 1.206842 0.016985789 1.7352625
v -0.6016649 -0.016986344 1.7360988
v -0.6071284 0.0006772815 1.7222992
v -0.6016649 0.016986344 1.7374613
v -0.61834925 -0.01698634 1.7362607
v -0.6192314 0.01698634 1.7372994
v -0.6455885 -0.00068211823 1.6781614
v -0.62798035 -0.016986974 1.676711
v -0.64626855 -0.0012083283 0.025282186
v -0.62933874 0.016985707 1.6768225
v -0.6117306 0.0006808487 1.6753721
v -0.6119243 0.0003277679 0.025489667
v -0.6287486 -0.01694435 0.031606637
v -0.629468 0.015961204 0.016568433
v -0.6288329 -0.009883502 0.038085423
v -0.6285764 -0.013259497 0.0059428494
v -0.6285758 -0.24295662 -0.01545718
v -0.6125207 -0.25521672 -0.000346018
v -0.6448955 -0.25660828 -0.0006421746
v -0.62857586 -0.26630205 0.013305335
v -0.6285758 -0.27573913 -0.016007408
v -0.6115758 -0.2588164 -0.017626327
v -0.6285758 -0.27581638 -0.22078554
v -0.6455758 -0.2588164 -0.22078554
v -0.6115758 -0.2588164 -0.22078554
v -0.6285758 -0.24181639 -0.22078554
v 1.2355123 -0.0030387952 0.041264407
v 1.2185123 -0.0047534523 0.024351092
v 1.2185123 0.24194518 -0.0006589261
v 1.2355123 -0.0064681084 0.007437788
v 1.2354764 0.23681346 -0.01692102
v 1.2525122 -0.0047534513 0.024351101
v 1.2525122 0.24194518 -0.0006589174
v 1.2355123 0.24904004 0.014789797
v 1.2186204 0.2532103 -0.011236282
v 1.2524298 0.25320974 -0.011247452
v 1.2355932 0.26950684 -0.005302632
v 1.2185123 0.25315872 -0.22078553
v 1.2355123 0.23615871 -0.22078553
v 1.2355123 0.2701587 -0.22078553
v 1.2525122 0.25315872 -0.22078553
v 1.2525122 -0.25876942 -0.22078554
v 1.2355124 -0.24239625 -0.015744183
v 1.2355123 -0.24176942 -0.22078554
v 1.2185123 -0.25876942 -0.22078554
v 1.2525122 -0.25876942 -0.015773822
v 1.2355123 -0.2757694 -0.22078554
v 1.2185123 -0.25876942 -0.01577382
v 1.2355123 -0.27549157 -0.012712719
v 1.2518545 -0.25284448 -0.00043720062
v 1.2525564 -0.00018983801 0.026174178
v 1.2191701 -0.25284448 -0.00043719227
v 1.2355124 -0.26268777 0.013978045
v 1.2355123 -0.014490534 0.039878674
v 1.2185123 -0.011011495 0.023238478
v 1.2355123 -0.007532455 0.0065982696
v 1.218096 -0.0002028061 0.02843381
v 1.2364991 -0.015902359 0.03462385
v 1.2354096 0.015921954 0.018333906
v 1.2525122 4.053116E-09 1.69879
v 1.2355123 -0.017 1.69879
v 1.2355123 0.017 1.69879
v 1.2185123 -5.5393032E-09 1.69879
vn -0.004047394 0 -1
vn 0.0013198853 1 0
vn 0.0013198853 1 0
vn 0.004047394 0 1
vn -0.004047394 0 -1
vn 0.004047394 0 1
vn -0.0013198853 -1 0
vn -0.0013198853 -1 0
vn -0.9897461 0.072265625 0.122680664
vn -1 0.0016803741 0.0046043396
vn -0.00046730042 -0.10021973 -0.9951172
vn -0.0014238358 -0.74365234 -0.66845703
vn 1 0.0017004013 0.0040664673
vn -0 0.10266113 0.9946289
vn 0.9897461 0.070373535 0.122680664
vn -0.0002297163 0.42456055 0.90527344
vn -0.984375 0.15856934 0.07513428
vn 0.9848633 0.15576172 0.07531738
vn 0.0015439987 0.92285156 0.38476562
vn -1 0.0013380051 0.0018959045
vn -0.00065231323 -1 0.0019350052
vn 0.0008187294 1 0.0016336441
vn 1 -0.00037670135 0.0017318726
vn -0.031799316 -0.9995117 -0.016418457
vn -0.81884766 0.038208008 -0.5727539
vn -0.43017578 0.058563232 -0.9008789
vn 0.03277588 0.99902344 0.028701782
vn 0.06121826 -0.9868164 0.15002441
vn 0.81347656 -0.03656006 0.5805664
vn 0.4650879 -0.034210205 0.8847656
vn -0.60009766 -0.03338623 0.7993164
vn 0.0927124 0.9711914 0.2199707
vn -0.0012044907 -0.9980469 -0.061309814
vn 0.6621094 0.06774902 -0.74658203
vn 0.0011253357 0.9995117 0.03213501
vn -0.16345215 -0.9716797 0.1697998
vn -0.20898438 0.95410156 0.21350098
vn -0.9941406 -0.036346436 0.099609375
vn 0.0008354187 -1 0.016723633
vn -0.96191406 0.18518066 -0.20178223
vn -0.07672119 0.99658203 0.022994995
vn 0.9970703 0.0395813 -0.068359375
vn 0.95166016 0.2322998 -0.20129395
vn 0.035583496 -0.7114258 -0.70214844
vn -0.027389526 0.82910156 -0.55859375
vn -0.012886047 0.6801758 0.73291016
vn 0.012931824 0.1739502 -0.9848633
vn 0.010047913 0.76708984 -0.64160156
vn 0.95947266 -0.16247559 0.23120117
vn -0.9501953 -0.21459961 0.2253418
vn 0.01701355 -0.61816406 0.7861328
vn -0.0075912476 -0.9926758 0.120666504
vn 0.99853516 -0.030685425 0.043945312
vn -0.02003479 -1 0.0035762787
vn -0.9995117 0.03564453 0.0028953552
vn 1 0.007911682 0.0015277863
vn 0.012237549 1 0.0008544922
vn -0 0.10266113 0.9946289
vn -1 0.0016803741 0.0046043396
vn -0.9897461 0.072265625 0.122680664
vn -0.00046563148 -0.10021973 -0.9951172
vn -0.0014181137 -0.74365234 -0.66845703
vn 1 0.0017004013 0.0040664673
vn 0.9897461 0.070373535 0.122680664
vn -0.00022912025 0.42456055 0.90527344
vn -0.984375 0.15856934 0.07513428
vn 0.9848633 0.15576172 0.07531738
vn 0.0015487671 0.92285156 0.38476562
vn -1 0.0013370514 0.0018968582
vn -0.0006456375 -1 0.0019350052
vn 0.00082445145 1 0.0016326904
vn 1 -0.00037574768 0.0017309189
vn 1 0.002614975 0.0011167526
vn 0.0079956055 0.7529297 -0.65771484
vn -0 1 0.0015287399
vn -1 0.002614975 0.0011167526
vn 0.99658203 -0.0670166 0.046875
vn -0 -1 0.00067281723
vn -0.99658203 -0.06695557 0.046875
vn -0 -0.9770508 0.2130127
vn 0.96972656 -0.1328125 0.20568848
vn 0.95703125 0.22021484 -0.18908691
vn -0.97216797 -0.13110352 0.19372559
vn -0.008224487 -0.5776367 0.81640625
vn 0.019256592 0.43432617 0.9003906
vn -0.9970703 0.017684937 -0.07702637
vn 0.0002784729 0.24584961 -0.9692383
vn -0.9760742 0.18444824 -0.115478516
vn -0.30029297 -0.5439453 -0.7836914
vn -0.014129639 0.8510742 -0.52441406
vn 1 0.005104065 -0.00018548965
vn 0.016983032 -1 -0.0002001524
vn 0.0011491776 1 -0.00031375885
vn -1 -0.011001587 -0.00034999847
g NurbsPath.002_0
f 3/3/3 2/2/2 1/1/1
f 4/4/4 2/2/2 3/3/3
f 5/5/5 3/3/3 1/1/1
f 6/6/6 4/4/4 3/3/3
f 5/5/5 1/1/1 7/7/7
f 8/8/8 4/4/4 6/6/6
f 1/1/1 8/8/8 7/7/7
f 7/7/7 8/8/8 6/6/6
f 11/11/11 10/10/10 9/9/9
f 12/12/12 11/11/11 9/9/9
f 11/11/11 12/12/12 13/13/13
f 9/9/9 10/10/10 14/14/14
f 14/14/14 13/13/13 15/15/15
f 12/12/12 15/15/15 13/13/13
f 16/16/16 9/9/9 14/14/14
f 16/16/16 14/14/14 15/15/15
f 9/9/9 17/17/17 12/12/12
f 17/17/17 9/9/9 16/16/16
f 16/16/16 15/15/15 18/18/18
f 12/12/12 18/18/18 15/15/15
f 19/19/19 17/17/17 16/16/16
f 19/19/19 16/16/16 18/18/18
f 12/12/12 17/17/17 20/20/20
f 20/20/20 17/17/17 19/19/19
f 21/21/21 12/12/12 20/20/20
f 18/18/18 12/12/12 21/21/21
f 22/22/22 20/20/20 19/19/19
f 22/22/22 19/19/19 18/18/18
f 23/23/23 18/18/18 21/21/21
f 23/23/23 22/22/22 18/18/18
f 26/26/26 25/25/25 24/24/24
f 27/27/27 25/25/25 26/26/26
f 28/28/28 26/26/26 24/24/24
f 28/28/28 24/24/24 29/29/29
f 30/30/30 29/29/29 27/27/27
f 30/30/30 28/28/28 29/29/29
f 28/28/28 30/30/30 31/31/31
f 32/32/32 30/30/30 27/27/27
f 32/32/32 27/27/27 26/26/26
f 31/31/31 30/30/30 32/32/32
f 33/33/33 28/28/28 31/31/31
f 26/26/26 28/28/28 33/33/33
f 34/34/34 26/26/26 33/33/33
f 35/35/35 32/32/32 26/26/26
f 35/35/35 31/31/31 32/32/32
f 34/34/34 35/35/35 26/26/26
f 33/33/33 36/36/36 34/34/34
f 33/33/33 31/31/31 36/36/36
f 35/35/35 37/37/37 31/31/31
f 34/34/34 37/37/37 35/35/35
f 36/36/36 31/31/31 38/38/38
f 38/38/38 31/31/31 37/37/37
f 34/34/34 36/36/36 39/39/39
f 39/39/39 36/36/36 38/38/38
f 38/38/38 40/40/40 39/39/39
f 40/40/40 38/38/38 41/41/41
f 41/41/41 38/38/38 37/37/37
f 41/41/41 37/37/37 34/34/34
f 42/42/42 34/34/34 39/39/39
f 42/42/42 41/41/41 34/34/34
f 41/41/41 42/42/42 43/43/43
f 42/42/42 39/39/39 44/44/44
f 40/40/40 44/44/44 39/39/39
f 43/43/43 42/42/42 44/44/44
f 45/45/45 40/40/40 41/41/41
f 45/45/45 41/41/41 43/43/43
f 44/44/44 46/46/46 43/43/43
f 44/44/44 40/40/40 46/46/46
f 45/45/45 43/43/43 47/47/47
f 45/45/45 47/47/47 40/40/40
f 48/48/48 47/47/47 43/43/43
f 40/40/40 47/47/47 48/48/48
f 49/49/49 43/43/43 46/46/46
f 49/49/49 48/48/48 43/43/43
f 46/46/46 40/40/40 50/50/50
f 50/50/50 40/40/40 48/48/48
f 51/51/51 49/49/49 46/46/46
f 51/51/51 46/46/46 50/50/50
f 49/49/49 51/51/51 52/52/52
f 51/51/51 50/50/50 52/52/52
f 53/53/53 49/49/49 52/52/52
f 49/49/49 53/53/53 48/48/48
f 54/54/54 52/52/52 50/50/50
f 53/53/53 52/52/52 54/54/54
f 55/55/55 54/54/54 50/50/50
f 55/55/55 50/50/50 48/48/48
f 56/56/56 53/53/53 54/54/54
f 48/48/48 53/53/53 56/56/56
f 57/57/57 55/55/55 48/48/48
f 57/57/57 48/48/48 56/56/56
f 60/60/60 59/59/59 58/58/58
f 61/61/61 59/59/59 60/60/60
f 62/62/62 61/61/61 60/60/60
f 61/61/61 62/62/62 63/63/63
f 58/58/58 63/63/63 64/64/64
f 62/62/62 64/64/64 63/63/63
f 65/65/65 60/60/60 58/58/58
f 65/65/65 58/58/58 64/64/64
f 60/60/60 66/66/66 62/62/62
f 66/66/66 60/60/60 65/65/65
f 65/65/65 64/64/64 67/67/67
f 62/62/62 67/67/67 64/64/64
f 68/68/68 66/66/66 65/65/65
f 68/68/68 65/65/65 67/67/67
f 62/62/62 66/66/66 69/69/69
f 69/69/69 66/66/66 68/68/68
f 70/70/70 62/62/62 69/69/69
f 67/67/67 62/62/62 70/70/70
f 71/71/71 69/69/69 68/68/68
f 71/71/71 68/68/68 67/67/67
f 72/72/72 67/67/67 70/70/70
f 72/72/72 71/71/71 67/67/67
f 75/75/75 74/74/74 73/73/73
f 75/75/75 76/76/76 74/74/74
f 74/74/74 77/77/77 73/73/73
f 73/73/73 77/77/77 78/78/78
f 76/76/76 78/78/78 79/79/79
f 76/76/76 79/79/79 74/74/74
f 77/77/77 80/80/80 78/78/78
f 78/78/78 80/80/80 79/79/79
f 81/81/81 77/77/77 74/74/74
f 77/77/77 81/81/81 80/80/80
f 81/81/81 74/74/74 82/82/82
f 79/79/79 80/80/80 83/83/83
f 83/83/83 74/74/74 79/79/79
f 81/81/81 84/84/84 80/80/80
f 80/80/80 84/84/84 83/83/83
f 84/84/84 81/81/81 85/85/85
f 84/84/84 85/85/85 83/83/83
f 81/81/81 82/82/82 85/85/85
f 83/83/83 86/86/86 74/74/74
f 85/85/85 86/86/86 83/83/83
f 86/86/86 87/87/87 74/74/74
f 74/74/74 87/87/87 82/82/82
f 88/88/88 86/86/86 85/85/85
f 86/86/86 88/88/88 87/87/87
f 89/89/89 85/85/85 82/82/82
f 89/89/89 88/88/88 85/85/85
f 88/88/88 90/90/90 87/87/87
f 90/90/90 82/82/82 87/87/87
f 82/82/82 91/91/91 89/89/89
f 91/91/91 92/92/92 89/89/89
f 89/89/89 92/92/92 88/88/88
f 93/93/93 91/91/91 82/82/82
f 90/90/90 93/93/93 82/82/82
f 92/92/92 94/94/94 88/88/88
f 94/94/94 93/93/93 90/90/90
f 88/88/88 94/94/94 90/90/90
