g NurbsPath.004
v -0.0009845495 0.00990243 -0.14239015
v -0.0009725094 0.009045257 -0.06104489
v -0.00081574917 0.010391327 -0.0622671
v 0.022614837 0.027222235 -0.14218605
v -0.01830554 0.03350025 -0.14211208
v 0.022615552 0.026243865 -0.05886114
v 0.005293846 0.050820053 -0.14190798
v 0.0052820444 0.049711727 -0.056459937
v 0.022454858 0.024800196 -0.05188362
v -0.018305898 0.032513116 -0.058643688
v 0.004781127 0.045276295 -0.040688936
v -0.01848936 0.030867431 -0.0510724
v 0.0033928156 0.033359475 -0.029398184
v -0.019367456 0.02334096 -0.04484326
v -0.001146555 0.007573669 -0.061466713
v 0.021613717 0.017592184 -0.046021637
v -0.0049232244 -0.037784204 0.028593242
v -0.027966857 -0.05036174 0.01564186
v -0.010022879 -0.06862754 0.0014531193
v 0.013020992 -0.05604999 0.014404503
v -0.028271794 -0.053975184 0.021667834
v -0.0049346685 -0.036330067 0.022657577
v -0.010613918 -0.07718827 0.019156814
v -0.027728796 -0.05179156 0.027421586
v 0.012723088 -0.05954315 0.02014656
v -0.0049465895 -0.03546172 0.01897984
v -0.009528995 -0.073720634 0.034117892
v 0.013253093 -0.05739079 0.025676142
v 0.01542151 -0.03593191 0.07860846
v -0.0034028292 -0.059245463 0.085432254
v 0.0015314817 -0.016560446 0.07387778
v 0.015578985 -0.032222547 0.08322266
v -0.0016902685 -0.047414467 0.093804985
v -0.016126513 -0.030879255 0.079999566
v 0.0015399456 -0.016866896 0.07436218
v -0.015191317 -0.027857155 0.08406912
v 4.529953E-06 -0.03319757 0.09992009
v 0.01579976 -0.027341489 0.08580231
v -0.014452934 -0.024042647 0.08608558
v -0.008955359 0.023574403 0.0952563
v 0.0012899637 -0.01846787 0.07237026
v 0.004498124 0.020216832 0.108430766
v 0.018465757 0.021117987 0.09509797
v 0.0014350414 -0.01678829 0.072522074
v 0.005012393 0.024329972 0.081930704
v 0.005541563 0.038544238 0.10902965
v -0.008587837 0.028793208 0.09616461
v 0.0046827793 0.022007493 0.082862064
v 0.01881218 0.026075026 0.09600869
v -0.0069442987 0.04060369 0.08895325
v 0.0066224337 0.051230177 0.10135822
v 0.0049194098 0.025135227 0.07928028
v 0.01849544 0.03794858 0.08885875
v 0.0021291971 0.07954055 0.042838093
v 0.010335326 0.084684074 0.04746158
v 0.009007573 0.07272257 0.03821457
v 0.017213702 0.07786611 0.042838056
vn -0.15161133 -0.98828125 -0.011779785
vn -0.1517334 -0.98828125 -0.011779785
vn -0.14782715 -0.8432617 -0.51660156
vn 0.98828125 -0.15222168 -0.001282692
vn -0.98828125 0.15112305 0.0017442703
vn 0.9926758 -0.10345459 0.06112671
vn 0.15161133 0.98828125 0.012252808
vn 0.14892578 0.97998047 0.13220215
vn 0.99560547 -0.0104904175 0.09503174
vn -0.97753906 0.19934082 0.0692749
vn 0.1307373 0.8330078 0.53759766
vn -0.95410156 0.27026367 0.13085938
vn 0.10998535 0.62597656 0.77197266
vn -0.98779297 0.15515137 0.010154724
vn -0.10266113 -0.58984375 -0.80078125
vn 0.9916992 -0.11999512 -0.050048828
vn 0.04559326 0.32641602 0.94433594
vn -0.97265625 -0.14294434 0.1842041
vn -0.12634277 -0.7661133 -0.6303711
vn 0.8798828 -0.453125 0.14343262
vn -0.94628906 -0.32128906 0.04083252
vn -0.0041275024 0.96728516 0.2536621
vn -0.13891602 -0.98535156 -0.09692383
vn -0.9902344 0.090148926 -0.10803223
vn 0.78759766 -0.61572266 -0.025726318
vn 0.07165527 0.7949219 -0.60253906
vn -0.12042236 -0.92578125 0.3581543
vn 0.95458984 -0.19189453 -0.22875977
vn 0.9951172 -0.08062744 -0.059814453
vn -0.09991455 -0.88916016 0.4465332
vn 0.10058594 0.92089844 -0.37719727
vn 0.98876953 -0.14916992 0.02267456
vn -0.07397461 -0.7392578 0.6694336
vn -0.9746094 0.21386719 0.062927246
vn 0.09564209 0.64404297 -0.75878906
vn -0.9941406 0.067993164 0.08227539
vn -0.016494751 -0.28930664 0.95703125
vn 0.9921875 -0.12005615 0.034729004
vn -0.9995117 0.028549194 0.024902344
vn -0.97509766 0.22045898 0.021820068
vn 0.025268555 0.20300293 -0.9790039
vn -0.004711151 -0.11187744 0.99365234
vn 0.99365234 0.10571289 0.034454346
vn 0.017669678 0.21594238 -0.9760742
vn 0.029022217 0.37817383 -0.92529297
vn 0.015335083 0.3125 0.94970703
vn -0.9760742 0.140625 0.16601562
vn -0.018844604 0.013473511 -0.9995117
vn 0.98339844 0.039367676 0.17590332
vn -0.98876953 0.14782715 -0.0007123947
vn 0.05783081 0.7084961 0.7036133
vn -0.05307007 -0.59375 -0.8027344
vn 1 -0.017471313 -0.003030777
vn -0.9819336 0.17468262 -0.07269287
vn 0.07946777 0.83154297 0.5498047
vn -0.06756592 -0.6665039 -0.7421875
vn 0.9975586 -0.012336731 -0.06652832
g NurbsPath.004_0
f 3/3/3 2/2/2 1/1/1
f 1/1/1 2/2/2 3/3/3
f 1/1/1 4/4/4 3/3/3
f 3/3/3 5/5/5 1/1/1
f 3/3/3 4/4/4 6/6/6
f 4/4/4 7/7/7 6/6/6
f 7/7/7 8/8/8 6/6/6
f 7/7/7 5/5/5 8/8/8
f 6/6/6 9/9/9 3/3/3
f 6/6/6 8/8/8 9/9/9
f 5/5/5 10/10/10 8/8/8
f 8/8/8 10/10/10 11/11/11
f 8/8/8 11/11/11 9/9/9
f 12/12/12 10/10/10 5/5/5
f 10/10/10 12/12/12 11/11/11
f 3/3/3 12/12/12 5/5/5
f 13/13/13 11/11/11 12/12/12
f 9/9/9 11/11/11 13/13/13
f 12/12/12 3/3/3 14/14/14
f 13/13/13 12/12/12 14/14/14
f 3/3/3 9/9/9 15/15/15
f 3/3/3 15/15/15 14/14/14
f 16/16/16 9/9/9 13/13/13
f 9/9/9 16/16/16 15/15/15
f 17/17/17 13/13/13 14/14/14
f 16/16/16 13/13/13 17/17/17
f 14/14/14 15/15/15 18/18/18
f 14/14/14 18/18/18 17/17/17
f 15/15/15 16/16/16 19/19/19
f 15/15/15 19/19/19 18/18/18
f 17/17/17 20/20/20 16/16/16
f 16/16/16 20/20/20 19/19/19
f 18/18/18 19/19/19 21/21/21
f 17/17/17 18/18/18 22/22/22
f 18/18/18 21/21/21 22/22/22
f 19/19/19 20/20/20 23/23/23
f 19/19/19 23/23/23 21/21/21
f 21/21/21 23/23/23 24/24/24
f 20/20/20 17/17/17 25/25/25
f 20/20/20 25/25/25 23/23/23
f 17/17/17 22/22/22 25/25/25
f 22/22/22 21/21/21 26/26/26
f 21/21/21 24/24/24 26/26/26
f 23/23/23 25/25/25 27/27/27
f 23/23/23 27/27/27 24/24/24
f 25/25/25 22/22/22 28/28/28
f 22/22/22 26/26/26 28/28/28
f 25/25/25 28/28/28 27/27/27
f 28/28/28 26/26/26 29/29/29
f 27/27/27 28/28/28 29/29/29
f 24/24/24 27/27/27 30/30/30
f 29/29/29 30/30/30 27/27/27
f 26/26/26 31/31/31 29/29/29
f 26/26/26 24/24/24 31/31/31
f 29/29/29 32/32/32 30/30/30
f 29/29/29 31/31/31 32/32/32
f 30/30/30 33/33/33 24/24/24
f 32/32/32 33/33/33 30/30/30
f 24/24/24 34/34/34 31/31/31
f 33/33/33 34/34/34 24/24/24
f 31/31/31 34/34/34 35/35/35
f 31/31/31 35/35/35 32/32/32
f 33/33/33 36/36/36 34/34/34
f 34/34/34 36/36/36 35/35/35
f 33/33/33 32/32/32 37/37/37
f 32/32/32 35/35/35 38/38/38
f 32/32/32 38/38/38 37/37/37
f 36/36/36 33/33/33 39/39/39
f 33/33/33 37/37/37 39/39/39
f 39/39/39 37/37/37 40/40/40
f 35/35/35 36/36/36 41/41/41
f 36/36/36 39/39/39 41/41/41
f 35/35/35 41/41/41 38/38/38
f 41/41/41 39/39/39 40/40/40
f 37/37/37 38/38/38 42/42/42
f 37/37/37 42/42/42 40/40/40
f 43/43/43 38/38/38 41/41/41
f 38/38/38 43/43/43 42/42/42
f 44/44/44 41/41/41 40/40/40
f 41/41/41 44/44/44 43/43/43
f 40/40/40 45/45/45 44/44/44
f 44/44/44 45/45/45 43/43/43
f 42/42/42 43/43/43 46/46/46
f 40/40/40 42/42/42 47/47/47
f 42/42/42 46/46/46 47/47/47
f 45/45/45 40/40/40 48/48/48
f 40/40/40 47/47/47 48/48/48
f 43/43/43 45/45/45 49/49/49
f 43/43/43 49/49/49 46/46/46
f 45/45/45 48/48/48 49/49/49
f 47/47/47 46/46/46 50/50/50
f 46/46/46 49/49/49 51/51/51
f 46/46/46 51/51/51 50/50/50
f 48/48/48 47/47/47 52/52/52
f 47/47/47 50/50/50 52/52/52
f 49/49/49 48/48/48 53/53/53
f 49/49/49 53/53/53 51/51/51
f 48/48/48 52/52/52 53/53/53
f 50/50/50 51/51/51 54/54/54
f 51/51/51 55/55/55 54/54/54
f 51/51/51 53/53/53 55/55/55
f 50/50/50 54/54/54 56/56/56
f 52/52/52 50/50/50 56/56/56
f 53/53/53 57/57/57 55/55/55
f 52/52/52 56/56/56 57/57/57
f 53/53/53 52/52/52 57/57/57
