g NurbsPath.004
v 3.4566162 -4.075969 0.057716694
v 3.396617 -4.0756474 0.057716697
v 3.4006045 -3.620214 0.05632672
v 3.4576826 -3.601718 0.056310914
v 3.486615 -4.076286 0.0057553984
v -0.82095844 2.1441157 0.09636435
v 3.4861865 -3.5924065 0.0043415385
v 3.4566145 -4.0762815 -0.046205893
v -0.76393026 2.1627648 0.0963489
v -0.82246685 2.611868 0.096378654
v -0.7624669 2.611868 0.09633501
v -0.7354765 2.1722307 0.044379864
v -0.73250467 2.611868 0.04435168
v 3.4576128 -3.601591 -0.047612045
v 3.3966153 -4.0759597 -0.046205897
v -0.7640509 2.1630476 -0.0075737126
v -0.7625425 2.611868 -0.0075880177
v 3.4005346 -3.6200871 -0.047596242
v 3.3666165 -4.075643 0.005755401
v -0.8210791 2.1443985 -0.00755826
v -0.8225424 2.611868 -0.007544376
v 3.3720307 -3.6293986 0.004373143
v 3.396617 -4.0756474 0.057716697
v 3.4006045 -3.620214 0.05632672
v -0.84953284 2.1349325 0.044410776
v -0.8525047 2.611868 0.04443896
v -0.82095844 2.1441157 0.09636435
v -0.82246685 2.611868 0.096378654
v 1.187465 -0.63427204 0.07062904
v -0.639288 -0.66427207 0.01006692
v -0.6395326 -0.63427204 0.06202788
v 1.1877096 -0.66427207 0.018668082
v -0.6390434 -0.6342721 -0.04189404
v 1.1879542 -0.6342721 -0.033292882
v -0.6390434 -0.57427204 -0.041894037
v 1.1879542 -0.57427204 -0.033292875
v -0.639288 -0.54427207 0.01006692
v 1.1877096 -0.54427207 0.018668082
v -0.6395326 -0.5742721 0.062027875
v 1.187465 -0.5742721 0.07062904
v -0.6395326 -0.63427204 0.06202788
v 1.187465 -0.63427204 0.07062904
v -0.79250467 2.2472694 0.09635684
v -2.5650537 2.2172694 0.044395316
v -2.5650537 2.2472694 0.09635684
v -0.79250467 2.2172694 0.044395316
v -2.5650537 2.2472694 -0.00756621
v -0.79250467 2.2472694 -0.00756621
v -2.5650537 2.3072693 -0.007566206
v -0.79250467 2.3072693 -0.007566206
v -2.5650537 2.3372693 0.04439532
v -0.79250467 2.3372693 0.04439532
v -2.5650537 2.3072693 0.09635684
v -0.79250467 2.3072693 0.09635684
v -2.5650537 2.2472694 0.09635684
v -0.79250467 2.2472694 0.09635684
v 1.6061234 -3.7352505 0.05646763
v 3.4265506 -3.7032757 0.005755421
v 3.4265475 -3.7332757 0.057716943
v 1.6061265 -3.7052505 0.0045061074
v 3.4266188 -3.7332757 -0.046206098
v 1.6061947 -3.7352505 -0.04745541
v 3.426684 -3.7932756 -0.046206087
v 1.6062598 -3.7952504 -0.0474554
v 3.4266808 -3.8232756 0.005755432
v 1.6062567 -3.8252504 0.0045061186
v 3.4266126 -3.7932756 0.057716947
v 1.6061885 -3.7952504 0.056467634
v 3.4265475 -3.7332757 0.057716943
v 1.6061234 -3.7352505 0.05646763
vt 0 0.16666667
vt 0 0
vt 0.33333334 0
vt 0.33333334 0.16666667
vt 0 0.33333334
vt 0.6666667 0
vt 0.33333334 0.33333334
vt 0 0.5
vt 0.6666667 0.16666667
vt 1 0
vt 1 0.16666667
vt 0.6666667 0.33333334
vt 1 0.33333334
vt 0.33333334 0.5
vt 0 0.6666667
vt 0.6666667 0.5
vt 1 0.5
vt 0.33333334 0.6666667
vt 0 0.8333333
vt 0.6666667 0.6666667
vt 1 0.6666667
vt 0.33333334 0.8333333
vt 0 1
vt 0.33333334 1
vt 0.6666667 0.8333333
vt 1 0.8333333
vt 0.6666667 1
vt 1 1
vt 0 1
vt 1 0.8333333
vt 1 1
vt 0 0.8333333
vt 1 0.6666667
vt 0 0.6666667
vt 1 0.5
vt 0 0.5
vt 1 0.33333334
vt 0 0.33333334
vt 1 0.16666667
vt 0 0.16666667
vt 1 0
vt 0 0
vt 0 1
vt 1 0.8333333
vt 1 1
vt 0 0.8333333
vt 1 0.6666667
vt 0 0.6666667
vt 1 0.5
vt 0 0.5
vt 1 0.33333334
vt 0 0.33333334
vt 1 0.16666667
vt 0 0.16666667
vt 1 0
vt 0 0
vt 0 1
vt 1 0.8333333
vt 1 1
vt 0 0.8333333
vt 1 0.6666667
vt 0 0.6666667
vt 1 0.5
vt 0 0.5
vt 1 0.33333334
vt 0 0.33333334
vt 1 0.16666667
vt 0 0.16666667
vt 1 0
vt 0 0
vn 0.50529855 0.0022410632 0.8629417
vn -0.50573933 0.007886063 0.8626503
vn -0.39375845 -0.12832959 0.910212
vn 0.5384447 0.17536432 0.82421154
vn 0.99999976 -0.00063028093 -0.00021111537
vn -0.53507334 -0.17964469 0.8254842
vn 0.9503571 0.31115884 -0.0012494724
vn 0.50544614 -0.0028760273 -0.8628534
vn 0.3952184 0.12584089 0.9099266
vn -0.50471586 -0.0024082481 0.8632821
vn 0.5061781 -0.0025114105 0.8624254
vn 0.9510393 0.3090692 0.0007381538
vn 0.9999871 -0.005016739 -0.00085833546
vn 0.53616357 0.1770614 -0.82533497
vn -0.50559574 0.0026196283 -0.8627666
vn 0.39358535 0.13093911 -0.9099151
vn 0.50503343 -0.0025621322 -0.863096
vn -0.39409834 -0.12580271 -0.9104176
vn -0.9999461 0.010387136 0.0001902621
vn -0.53787524 -0.17543237 -0.8245688
vn -0.5058594 -0.0023619006 -0.8626128
vn -0.95186627 -0.30650958 -0.001545253
vn -0.50573933 0.007886063 0.8626503
vn -0.39375845 -0.12832959 0.910212
vn -0.9495163 -0.31371593 0.0010506023
vn -0.99998856 -0.004719687 0.00085355825
vn -0.53507334 -0.17964469 0.8254842
vn -0.50471586 -0.0024082481 0.8632821
vn -0.004077042 -0.5 0.8660158
vn -0 -1 0
vn -0.004077042 -0.5 0.8660158
vn -0 -1 0
vn 0.0040770406 -0.5000004 -0.8660156
vn 0.00407704 -0.5000005 -0.8660155
vn 0.0040770387 0.50000006 -0.8660158
vn 0.0040770387 0.5000001 -0.8660158
vn -0 1 0
vn -0 1 0
vn -0.00407704 0.49999958 0.86601603
vn -0.00407704 0.49999952 0.86601603
vn -0.004077042 -0.5 0.8660158
vn -0.004077042 -0.5 0.8660158
vn -0 -0.5000003 0.86602527
vn -0 -1 0
vn -0 -0.5000003 0.86602527
vn -0 -1 0
vn -0 -0.50000024 -0.86602527
vn -0 -0.50000024 -0.86602527
vn -0 0.5000003 -0.86602527
vn -0 0.5000003 -0.86602527
vn -0 1 0
vn -0 1 0
vn -0 0.5000003 0.86602527
vn -0 0.5000003 0.86602527
vn -0 -0.5000003 0.86602527
vn -0 -0.5000003 0.86602527
vn -0.0011367418 0.50000113 0.866024
vn -0.0010848125 0.9999994 0
vn -0.001136742 0.5000011 0.8660241
vn -0.0010848122 0.9999994 0
vn 5.1926596E-05 0.5000023 -0.8660241
vn 5.1926734E-05 0.5000022 -0.8660241
vn 0.0011367378 -0.49999794 -0.8660258
vn 0.0011367378 -0.49999782 -0.86602587
vn 0.0010848128 -0.9999994 0
vn 0.0010848129 -0.9999994 0
vn -5.192621E-05 -0.499999 0.866026
vn -5.1926072E-05 -0.49999908 0.866026
vn -0.001136742 0.5000011 0.8660241
vn -0.0011367418 0.50000113 0.866024
g NurbsPath.004_0
f 3/3/3 2/2/2 1/1/1
f 4/4/4 3/3/3 1/1/1
f 4/4/4 1/1/1 5/5/5
f 6/6/6 3/3/3 4/4/4
f 7/7/7 4/4/4 5/5/5
f 7/7/7 5/5/5 8/8/8
f 9/9/9 6/6/6 4/4/4
f 9/9/9 4/4/4 7/7/7
f 10/10/10 6/6/6 9/9/9
f 11/11/11 10/10/10 9/9/9
f 11/11/11 9/9/9 12/12/12
f 12/12/12 9/9/9 7/7/7
f 13/13/13 11/11/11 12/12/12
f 14/14/14 7/7/7 8/8/8
f 12/12/12 7/7/7 14/14/14
f 14/14/14 8/8/8 15/15/15
f 13/13/13 12/12/12 16/16/16
f 16/16/16 12/12/12 14/14/14
f 17/17/17 13/13/13 16/16/16
f 18/18/18 14/14/14 15/15/15
f 16/16/16 14/14/14 18/18/18
f 18/18/18 15/15/15 19/19/19
f 17/17/17 16/16/16 20/20/20
f 20/20/20 16/16/16 18/18/18
f 21/21/21 17/17/17 20/20/20
f 22/22/22 18/18/18 19/19/19
f 20/20/20 18/18/18 22/22/22
f 22/22/22 19/19/19 23/23/23
f 24/24/24 22/22/22 23/23/23
f 21/21/21 20/20/20 25/25/25
f 25/25/25 20/20/20 22/22/22
f 25/25/25 22/22/22 24/24/24
f 26/26/26 21/21/21 25/25/25
f 27/27/27 25/25/25 24/24/24
f 26/26/26 25/25/25 27/27/27
f 28/28/28 26/26/26 27/27/27
f 31/31/31 30/30/30 29/29/29
f 30/30/30 32/32/32 29/29/29
f 30/30/30 33/33/33 32/32/32
f 33/33/33 34/34/34 32/32/32
f 33/33/33 35/35/35 34/34/34
f 35/35/35 36/36/36 34/34/34
f 35/35/35 37/37/37 36/36/36
f 37/37/37 38/38/38 36/36/36
f 37/37/37 39/39/39 38/38/38
f 39/39/39 40/40/40 38/38/38
f 39/39/39 41/41/41 40/40/40
f 41/41/41 42/42/42 40/40/40
f 45/45/45 44/44/44 43/43/43
f 44/44/44 46/46/46 43/43/43
f 44/44/44 47/47/47 46/46/46
f 47/47/47 48/48/48 46/46/46
f 47/47/47 49/49/49 48/48/48
f 49/49/49 50/50/50 48/48/48
f 49/49/49 51/51/51 50/50/50
f 51/51/51 52/52/52 50/50/50
f 51/51/51 53/53/53 52/52/52
f 53/53/53 54/54/54 52/52/52
f 53/53/53 55/55/55 54/54/54
f 55/55/55 56/56/56 54/54/54
f 59/59/59 58/58/58 57/57/57
f 58/58/58 60/60/60 57/57/57
f 58/58/58 61/61/61 60/60/60
f 61/61/61 62/62/62 60/60/60
f 61/61/61 63/63/63 62/62/62
f 63/63/63 64/64/64 62/62/62
f 63/63/63 65/65/65 64/64/64
f 65/65/65 66/66/66 64/64/64
f 65/65/65 67/67/67 66/66/66
f 67/67/67 68/68/68 66/66/66
f 67/67/67 69/69/69 68/68/68
f 69/69/69 70/70/70 68/68/68
