g NurbsPath.000
v 3.1820478 -2.520166 6.4370966
v 3.1620474 -2.5548065 -0.80569077
v 3.1820474 -2.5201654 -0.80569077
v 3.1620479 -2.554807 6.4370966
v 3.1820474 -2.5894475 -0.80569077
v 3.1820478 -2.589448 6.4370966
v 3.2220473 -2.5894475 -0.80569077
v 3.2220478 -2.589448 6.4370966
v 3.2420473 -2.5548065 -0.80569077
v 3.2420478 -2.554807 6.4370966
v 3.2220473 -2.5201654 -0.80569077
v 3.2220478 -2.520166 6.4370966
v 3.1820474 -2.5201654 -0.80569077
v 3.1820478 -2.520166 6.4370966
vt 0 1
vt 1 0.8333333
vt 1 1
vt 0 0.8333333
vt 1 0.6666667
vt 0 0.6666667
vt 1 0.5
vt 0 0.5
vt 1 0.33333334
vt 0 0.33333334
vt 1 0.16666667
vt 0 0.16666667
vt 1 0
vt 0 0
vn -0.50000036 0.86602527 0
vn -1 0 0
vn -0.50000036 0.86602527 0
vn -1 0 0
vn -0.5000004 -0.86602527 0
vn -0.50000036 -0.86602527 0
vn 0.50000036 -0.86602527 0
vn 0.50000036 -0.86602527 0
vn 1 0 0
vn 1 0 0
vn 0.50000036 0.86602527 0
vn 0.5000004 0.86602527 0
vn -0.50000036 0.86602527 0
vn -0.50000036 0.86602527 0
g NurbsPath.000_0
f 3/3/3 2/2/2 1/1/1
f 2/2/2 4/4/4 1/1/1
f 2/2/2 5/5/5 4/4/4
f 5/5/5 6/6/6 4/4/4
f 5/5/5 7/7/7 6/6/6
f 7/7/7 8/8/8 6/6/6
f 7/7/7 9/9/9 8/8/8
f 9/9/9 10/10/10 8/8/8
f 9/9/9 11/11/11 10/10/10
f 11/11/11 12/12/12 10/10/10
f 11/11/11 13/13/13 12/12/12
f 13/13/13 14/14/14 12/12/12
