g PickleJar
v 1.0273156 1.1351347 0.6395816
v 1.4405904 0.24799593 1.1513393
v 0.94029194 1.1145383 1.1513393
v 1.4769412 0.25440556 0.22985238
v 1.2668384 -0.7373999 1.1513392
v 1.0273157 1.1351347 -0.46158266
v 1.2988048 -0.7558557 0.22985238
v 1.4769412 0.25440553 -0.7962889
v 1.2988048 -0.75585556 -0.79628885
v 0.96401817 1.1428143 -1.8224303
v 1.4769411 0.2544055 -1.8224303
v 1.2988048 -0.75585556 -1.8224303
v 1.1327132 -0.6599628 -2.0798614
v 1.2880688 0.22110203 -2.0798612
v 0.84074044 0.99589777 -2.0798612
v 1.2988048 -0.7558557 0.22985238
v 0.5003364 -1.3805712 1.1513393
v 1.2668384 -0.7373999 1.1513392
v 0.5129609 -1.4152566 0.2298523
v 1.2988048 -0.75585556 -0.79628885
v -0.50026065 -1.3805711 1.1513393
v 0.5129608 -1.4152565 -0.79628897
v 1.2988048 -0.75585556 -1.8224303
v -0.51288533 -1.4152569 0.22985241
v -1.2667626 -0.73739994 1.1513393
v -1.2987291 -0.7558557 0.22985238
v -0.51288533 -1.4152566 -0.7962889
v -1.298729 -0.7558556 -0.79628885
v 0.512961 -1.4152566 -1.8224304
v -0.5128851 -1.4152567 -1.8224301
v -1.2987288 -0.75585574 -1.8224303
v -1.1326371 -0.65996253 -2.0798614
v -0.44729033 -1.2350368 -2.0798614
v 0.44736624 -1.2350368 -2.0798616
v 1.1327132 -0.6599628 -2.0798614
v -1.2987291 -0.7558557 0.22985238
v -1.4405144 0.24799567 1.1513394
v -1.2667626 -0.73739994 1.1513393
v -1.4768654 0.2544053 0.22985233
v -0.9402159 1.1145381 1.1513393
v -1.298729 -0.7558556 -0.79628885
v -1.0272397 1.1351348 0.6395817
v -1.4768653 0.25440532 -0.796289
v -1.0272396 1.1351348 -0.45393872
v -1.2987288 -0.75585574 -1.8224303
v -1.4768653 0.25440538 -1.8224304
v -0.96394205 1.1428142 -1.8224301
v -0.8406645 0.9958979 -2.0798614
v -1.2879931 0.22110221 -2.0798612
v -1.1326371 -0.65996253 -2.0798614
v -1.0272397 1.1351348 0.6395817
v 3.8169324E-05 1.4567627 1.1513392
v -0.9402159 1.1145381 1.1513393
v 3.796257E-05 1.5090332 0.6395818
v 0.94029194 1.1145383 1.1513393
v -1.0272396 1.1351348 -0.45393872
v 1.0273156 1.1351347 0.6395816
v 3.804639E-05 1.5090332 -0.47739062
v 1.0273157 1.1351347 -0.46158266
v -0.96394205 1.1428142 -1.8224301
v 3.8035214E-05 1.4936742 -1.8224303
v 0.96401817 1.1428143 -1.8224303
v 0.84074044 0.99589777 -2.0798612
v 3.8027763E-05 1.3018885 -2.0798619
v -0.8406645 0.9958979 -2.0798614
v 1.1327132 -0.6599628 -2.0798614
v 1.2880688 0.22110203 -2.0798612
v 0.84074044 0.99589777 -2.0798612
v 0.44736624 -1.2350368 -2.0798616
v 3.8027763E-05 1.3018885 -2.0798619
v -0.44729033 -1.2350368 -2.0798614
v -0.8406645 0.9958979 -2.0798614
v -1.1326371 -0.65996253 -2.0798614
v -1.2879931 0.22110221 -2.0798612
v 0.5003364 -1.3805712 1.1513393
v 1.1453606 -0.6672647 1.3317637
v 1.2668384 -0.7373999 1.1513392
v 0.45236123 -1.2487602 1.3317637
v 1.302451 0.22363818 1.331764
v -0.50026065 -1.3805711 1.1513393
v 1.4405904 0.24799593 1.1513393
v -0.4522854 -1.2487602 1.3317639
v 0.8501278 1.007085 1.3317639
v -1.2667626 -0.73739994 1.1513393
v 0.94029194 1.1145383 1.1513393
v -1.1452849 -0.66726464 1.3317637
v 3.8009137E-05 1.3164923 1.3317639
v -1.4405144 0.24799567 1.1513394
v 3.8169324E-05 1.4567627 1.1513392
v -1.3023752 0.22363815 1.3317639
v -0.8500519 1.0070848 1.3317637
v -0.9402159 1.1145381 1.1513393
v 1.4505635 0.2497545 1.4375966
v 0.9468014 1.1222957 1.8897192
v 0.9468014 1.1222957 1.4375968
v 1.4505635 0.24975443 1.8897194
v 1.2756085 -0.74246323 1.4375967
v 1.2756087 -0.74246335 1.8897192
v -1.2755326 -0.74246347 1.4375967
v -1.2755326 -0.74246347 1.889719
v -0.5037243 -1.3900874 1.8897192
v -0.5037244 -1.3900874 1.4375966
v 0.50380015 -1.3900874 1.8897192
v 0.50380015 -1.3900874 1.4375967
v 1.2756087 -0.74246335 1.8897192
v 1.2756085 -0.74246323 1.4375967
v -1.4504875 0.24975434 1.4375967
v -1.4504875 0.24975425 1.8897194
v -1.2755326 -0.74246347 1.889719
v -1.2755326 -0.74246347 1.4375967
v 0.9468014 1.1222957 1.4375968
v 0.9468014 1.1222957 1.8897192
v 3.8072467E-05 1.4668897 1.8897192
v 3.799796E-05 1.4668896 1.4375966
v -0.9467252 1.1222959 1.8897192
v -0.9467252 1.1222957 1.4375967
v -1.4504875 0.24975425 1.8897194
v -1.4504875 0.24975434 1.4375967
v -1.2755326 -0.74246347 1.889719
v -1.1587769 -0.6750545 1.9795737
v -0.45761377 -1.2633998 1.9795736
v -0.5037243 -1.3900874 1.8897192
v -1.4504875 0.24975425 1.8897194
v -1.3177177 0.22634348 1.9795738
v -0.9467252 1.1222959 1.8897192
v -0.8600659 1.0190191 1.9795736
v 3.8072467E-05 1.4668897 1.8897192
v 3.8184226E-05 1.3320715 1.9795736
v 0.9468014 1.1222957 1.8897192
v 0.45768964 -1.2633998 1.9795735
v 0.50380015 -1.3900874 1.8897192
v 0.8601422 1.0190192 1.9795737
v 1.4505635 0.24975443 1.8897194
v 1.1588529 -0.6750543 1.9795737
v 1.2756087 -0.74246335 1.8897192
v 1.3177937 0.22634351 1.9795736
v -0.8500519 1.0070848 1.3317637
v -0.9467252 1.1222957 1.4375967
v -1.4504875 0.24975434 1.4375967
v -1.3023752 0.22363815 1.3317639
v 3.8009137E-05 1.3164923 1.3317639
v -1.2755326 -0.74246347 1.4375967
v 3.799796E-05 1.4668896 1.4375966
v -1.1452849 -0.66726464 1.3317637
v 0.8501278 1.007085 1.3317639
v -0.5037244 -1.3900874 1.4375966
v 0.9468014 1.1222957 1.4375968
v -0.4522854 -1.2487602 1.3317639
v 1.302451 0.22363818 1.331764
v 0.50380015 -1.3900874 1.4375967
v 1.4505635 0.2497545 1.4375966
v 0.45236123 -1.2487602 1.3317637
v 1.1453606 -0.6672647 1.3317637
v 1.2756085 -0.74246323 1.4375967
vt 0.90283203 0.90722656
vt 0.79052734 0.94921875
vt 0.90722656 0.95996094
vt 0.79052734 0.8613281
vt 0.7001953 0.93896484
vt 0.90283203 0.8129883
vt 0.7001953 0.8510742
vt 0.79052734 0.7734375
vt 0.7001953 0.7631836
vt 0.90722656 0.69677734
vt 0.79052734 0.6855469
vt 0.7001953 0.67529297
vt 0.7001953 0.67529297
vt 0.79052734 0.6855469
vt 0.90722656 0.69677734
vt 0.8808594 0.36157227
vt 0.9638672 0.4519043
vt 0.96875 0.36157227
vt 0.87597656 0.4519043
vt 0.79296875 0.36157227
vt 0.9663086 0.56933594
vt 0.78808594 0.4519043
vt 0.7050781 0.36157227
vt 0.87841797 0.56933594
vt 0.97558594 0.6586914
vt 0.8881836 0.6586914
vt 0.79052734 0.56933594
vt 0.80029297 0.6586914
vt 0.7001953 0.4519043
vt 0.703125 0.56933594
vt 0.71240234 0.6586914
vt 0.71240234 0.6586914
vt 0.703125 0.56933594
vt 0.7001953 0.4519043
vt 0.7050781 0.36157227
vt 0.5625 0.88427734
vt 0.44628906 0.98339844
vt 0.5625 0.97216797
vt 0.44628906 0.8955078
vt 0.35717773 0.9916992
vt 0.5625 0.7963867
vt 0.35668945 0.93896484
vt 0.44628906 0.80810547
vt 0.35668945 0.8457031
vt 0.5625 0.7084961
vt 0.44628906 0.72021484
vt 0.35717773 0.72802734
vt 0.35717773 0.72802734
vt 0.44628906 0.72021484
vt 0.5625 0.7084961
vt 0.7055664 0.062042236
vt 0.8300781 0.00819397
vt 0.7128906 0.009346008
vt 0.8310547 0.060821533
vt 0.92041016 0.014350891
vt 0.7055664 0.15563965
vt 0.9267578 0.06738281
vt 0.8310547 0.15649414
vt 0.9267578 0.1616211
vt 0.7128906 0.27294922
vt 0.8300781 0.27172852
vt 0.92041016 0.27783203
vt 0.92041016 0.27783203
vt 0.8300781 0.27172852
vt 0.7128906 0.27294922
vt 0.49853516 0.00819397
vt 0.39697266 0.066101074
vt 0.35668945 0.17590332
vt 0.61376953 0.029190063
vt 0.39697266 0.2861328
vt 0.6894531 0.119262695
vt 0.49853516 0.34521484
vt 0.6894531 0.23632812
vt 0.61376953 0.32543945
vt 0.04824829 0.28637695
vt 0.028839111 0.17565918
vt 0.00819397 0.17602539
vt 0.06414795 0.27294922
vt 0.06414795 0.07879639
vt 0.1496582 0.34545898
vt 0.04824829 0.06616211
vt 0.15368652 0.3251953
vt 0.15368652 0.027709961
vt 0.26513672 0.32592773
vt 0.1496582 0.00819397
vt 0.2553711 0.30786133
vt 0.2553711 0.04626465
vt 0.34033203 0.23657227
vt 0.26513672 0.02923584
vt 0.32177734 0.22912598
vt 0.32177734 0.12585449
vt 0.34033203 0.1194458
vt 0.6176758 0.79833984
vt 0.57958984 0.9169922
vt 0.61816406 0.91308594
vt 0.57910156 0.8022461
vt 0.61816406 0.7084961
vt 0.57958984 0.71240234
vt 0.96191406 0.67626953
vt 0.92333984 0.67529297
vt 0.93066406 0.7631836
vt 0.9692383 0.76416016
vt 0.93066406 0.87890625
vt 0.9692383 0.8798828
vt 0.92333984 0.96728516
vt 0.96191406 0.9682617
vt 0.6347656 0.8232422
vt 0.67333984 0.82714844
vt 0.67333984 0.71240234
vt 0.6347656 0.7084961
vt 0.98876953 0.008575439
vt 0.9501953 0.00819397
vt 0.9433594 0.09667969
vt 0.9819336 0.0970459
vt 0.9433594 0.21203613
vt 0.9819336 0.21240234
vt 0.9501953 0.30029297
vt 0.98876953 0.30078125
vt 0.39624023 0.41845703
vt 0.40771484 0.42895508
vt 0.49853516 0.3774414
vt 0.49609375 0.36157227
vt 0.35668945 0.5263672
vt 0.37182617 0.52685547
vt 0.39624023 0.63427734
vt 0.40771484 0.625
vt 0.49609375 0.6923828
vt 0.49853516 0.6777344
vt 0.609375 0.67285156
vt 0.6015625 0.3959961
vt 0.609375 0.38208008
vt 0.6015625 0.66015625
vt 0.68359375 0.58496094
vt 0.6689453 0.47607422
vt 0.68359375 0.47021484
vt 0.6689453 0.5805664
vt 0.3178711 0.5776367
vt 0.33447266 0.5839844
vt 0.33447266 0.46875
vt 0.3178711 0.4741211
vt 0.25146484 0.65722656
vt 0.26049805 0.38110352
vt 0.26049805 0.6723633
vt 0.25146484 0.3955078
vt 0.1496582 0.67578125
vt 0.1472168 0.3618164
vt 0.1472168 0.6928711
vt 0.1496582 0.37817383
vt 0.060150146 0.6245117
vt 0.047546387 0.41992188
vt 0.047546387 0.63623047
vt 0.060150146 0.43041992
vt 0.024810791 0.52783203
vt 0.00819397 0.5283203
vn 0.66796875 0.7421875 0.05319214
vn 0.9301758 0.15148926 0.33496094
vn 0.6015625 0.71777344 0.35058594
vn 0.98828125 0.1496582 0.026550293
vn 0.81933594 -0.47314453 0.32348633
vn 0.6611328 0.75 -0.0074768066
vn 0.86572266 -0.5 0.019927979
vn 0.98779297 0.15710449 -0.006931305
vn 0.86621094 -0.5 0
vn 0.61328125 0.7290039 -0.30444336
vn 0.9399414 0.1595459 -0.30126953
vn 0.82714844 -0.47753906 -0.29589844
vn 0.69433594 -0.4008789 -0.59765625
vn 0.7895508 0.13928223 -0.59765625
vn 0.515625 0.6142578 -0.59765625
vn 0.86572266 -0.5 0.019927979
vn 0.32373047 -0.88916016 0.32348633
vn 0.81933594 -0.47314453 0.32348633
vn 0.34204102 -0.9394531 0.019927979
vn 0.86621094 -0.5 0
vn -0.32373047 -0.88916016 0.32348633
vn 0.34204102 -0.9394531 0
vn 0.82714844 -0.47753906 -0.29589844
vn -0.34204102 -0.9394531 0.019927979
vn -0.81933594 -0.47314453 0.32348633
vn -0.86572266 -0.5 0.019927979
vn -0.34204102 -0.9394531 0
vn -0.86621094 -0.5 0
vn 0.32666016 -0.89746094 -0.29589844
vn -0.32666016 -0.89746094 -0.29589844
vn -0.82714844 -0.47753906 -0.29589844
vn -0.69433594 -0.4008789 -0.59765625
vn -0.27416992 -0.75341797 -0.59765625
vn 0.27416992 -0.75341797 -0.59765625
vn 0.69433594 -0.4008789 -0.59765625
vn -0.86572266 -0.5 0.019927979
vn -0.9301758 0.15148926 0.33496094
vn -0.81933594 -0.47314453 0.32348633
vn -0.98828125 0.1496582 0.026550293
vn -0.6015625 0.71777344 0.35058594
vn -0.86621094 -0.5 0
vn -0.66796875 0.7421875 0.05319214
vn -0.98779297 0.15710449 -0.0069351196
vn -0.6611328 0.75 -0.0074157715
vn -0.82714844 -0.47753906 -0.29589844
vn -0.9399414 0.15966797 -0.30126953
vn -0.61328125 0.7290039 -0.30444336
vn -0.515625 0.6142578 -0.59765625
vn -0.7895508 0.13928223 -0.59765625
vn -0.69433594 -0.4008789 -0.59765625
vn -0.66796875 0.7421875 0.05319214
vn -0 0.9355469 0.3527832
vn -0.6015625 0.71777344 0.35058594
vn -0 0.99853516 0.050323486
vn 0.6015625 0.71777344 0.35058594
vn -0.6611328 0.75 -0.0074157715
vn 0.66796875 0.7421875 0.05319214
vn -0 1 -0.0057258606
vn 0.6611328 0.75 -0.0074768066
vn -0.61328125 0.7290039 -0.30444336
vn -1.0669231E-05 0.9536133 -0.30126953
vn 0.61328125 0.7290039 -0.30444336
vn 0.515625 0.6142578 -0.59765625
vn -0 0.8017578 -0.59765625
vn -0.515625 0.6142578 -0.59765625
vn -0 0 -1
vn -0 0 -1
vn -0 0 -1
vn -0 0 -1
vn -0 0 -1
vn -0 0 -1
vn -0 0 -1
vn -0 0 -1
vn -0 0 -1
vn 0.32373047 -0.88916016 0.32348633
vn 0.68359375 -0.3947754 0.61376953
vn 0.81933594 -0.47314453 0.32348633
vn 0.27001953 -0.7416992 0.61376953
vn 0.77734375 0.13708496 0.61376953
vn -0.32373047 -0.88916016 0.32348633
vn 0.9301758 0.15148926 0.33496094
vn -0.27001953 -0.7416992 0.61376953
vn 0.5073242 0.60498047 0.61376953
vn -0.81933594 -0.47314453 0.32348633
vn 0.6015625 0.71777344 0.35058594
vn -0.68359375 -0.3947754 0.61376953
vn -0 0.7895508 0.61376953
vn -0.9301758 0.15148926 0.33496094
vn -0 0.9355469 0.3527832
vn -0.77734375 0.13708496 0.61376953
vn -0.5073242 0.60498047 0.61376953
vn -0.6015625 0.71777344 0.35058594
vn 0.9848633 0.17370605 0
vn 0.6425781 0.7661133 0
vn 0.6425781 0.7661133 0
vn 0.9848633 0.17370605 0
vn 0.86621094 -0.5 0
vn 0.86621094 -0.5 0
vn -0.86621094 -0.5 0
vn -0.86621094 -0.5 0
vn -0.34204102 -0.9394531 0
vn -0.34204102 -0.9394531 0
vn 0.34204102 -0.9394531 0
vn 0.34204102 -0.9394531 0
vn 0.86621094 -0.5 0
vn 0.86621094 -0.5 0
vn -0.9848633 0.17370605 0
vn -0.9848633 0.17370605 0
vn -0.86621094 -0.5 0
vn -0.86621094 -0.5 0
vn 0.6425781 0.7661133 0
vn 0.6425781 0.7661133 0
vn -0 1 0
vn -0 1 0
vn -0.6425781 0.7661133 0
vn -0.6425781 0.7661133 0
vn -0.9848633 0.17370605 0
vn -0.9848633 0.17370605 0
vn -0.4802246 -0.27734375 0.83203125
vn -0.2998047 -0.1730957 0.9379883
vn -0.11846924 -0.32543945 0.9379883
vn -0.18969727 -0.5209961 0.83203125
vn -0.5463867 0.09631348 0.83203125
vn -0.34106445 0.06011963 0.9379883
vn -0.3564453 0.4248047 0.83203125
vn -0.22253418 0.26538086 0.9379883
vn -0 0.5546875 0.83203125
vn -0 0.3461914 0.9379883
vn 0.3564453 0.4248047 0.83203125
vn 0.11846924 -0.32543945 0.9379883
vn 0.18969727 -0.5209961 0.83203125
vn 0.22253418 0.26538086 0.9379883
vn 0.5463867 0.09631348 0.83203125
vn 0.2998047 -0.1730957 0.9379883
vn 0.4802246 -0.27734375 0.83203125
vn 0.34106445 0.06011963 0.9379883
vn -0.36987305 0.44091797 -0.8178711
vn -0.36987305 0.44091797 -0.8178711
vn -0.56689453 0.09991455 -0.8178711
vn -0.56689453 0.09991455 -0.8178711
vn -0 0.5756836 -0.8178711
vn -0.49829102 -0.2878418 -0.8178711
vn -0 0.5756836 -0.8178711
vn -0.49829102 -0.2878418 -0.8178711
vn 0.36987305 0.44091797 -0.8178711
vn -0.19677734 -0.5410156 -0.8178711
vn 0.36987305 0.44091797 -0.8178711
vn -0.19677734 -0.5410156 -0.8178711
vn 0.56689453 0.09991455 -0.8178711
vn 0.19677734 -0.5410156 -0.8178711
vn 0.56689453 0.09991455 -0.8178711
vn 0.19677734 -0.5410156 -0.8178711
vn 0.49829102 -0.2878418 -0.8178711
vn 0.49829102 -0.2878418 -0.8178711
g PickleJar_0
f 3/3/3 2/2/2 1/1/1
f 2/2/2 4/4/4 1/1/1
f 2/2/2 5/5/5 4/4/4
f 1/1/1 4/4/4 6/6/6
f 5/5/5 7/7/7 4/4/4
f 4/4/4 8/8/8 6/6/6
f 4/4/4 7/7/7 8/8/8
f 7/7/7 9/9/9 8/8/8
f 6/6/6 8/8/8 10/10/10
f 8/8/8 9/9/9 11/11/11
f 8/8/8 11/11/11 10/10/10
f 9/9/9 12/12/12 11/11/11
f 12/12/12 13/13/13 11/11/11
f 13/13/13 14/14/14 11/11/11
f 11/11/11 14/14/14 10/10/10
f 14/14/14 15/15/15 10/10/10
f 18/18/18 17/17/17 16/16/16
f 17/17/17 19/19/19 16/16/16
f 16/16/16 19/19/19 20/20/20
f 17/17/17 21/21/21 19/19/19
f 19/19/19 22/22/22 20/20/20
f 20/20/20 22/22/22 23/23/23
f 21/21/21 24/24/24 19/19/19
f 19/19/19 24/24/24 22/22/22
f 21/21/21 25/25/25 24/24/24
f 25/25/25 26/26/26 24/24/24
f 24/24/24 26/26/26 27/27/27
f 24/24/24 27/27/27 22/22/22
f 26/26/26 28/28/28 27/27/27
f 22/22/22 29/29/29 23/23/23
f 22/22/22 27/27/27 29/29/29
f 27/27/27 28/28/28 30/30/30
f 27/27/27 30/30/30 29/29/29
f 28/28/28 31/31/31 30/30/30
f 31/31/31 32/32/32 30/30/30
f 32/32/32 33/33/33 30/30/30
f 30/30/30 33/33/33 29/29/29
f 33/33/33 34/34/34 29/29/29
f 29/29/29 34/34/34 23/23/23
f 34/34/34 35/35/35 23/23/23
f 38/38/38 37/37/37 36/36/36
f 37/37/37 39/39/39 36/36/36
f 37/37/37 40/40/40 39/39/39
f 36/36/36 39/39/39 41/41/41
f 40/40/40 42/42/42 39/39/39
f 39/39/39 43/43/43 41/41/41
f 39/39/39 42/42/42 43/43/43
f 42/42/42 44/44/44 43/43/43
f 41/41/41 43/43/43 45/45/45
f 43/43/43 44/44/44 46/46/46
f 43/43/43 46/46/46 45/45/45
f 44/44/44 47/47/47 46/46/46
f 47/47/47 48/48/48 46/46/46
f 48/48/48 49/49/49 46/46/46
f 46/46/46 49/49/49 45/45/45
f 49/49/49 50/50/50 45/45/45
f 53/53/53 52/52/52 51/51/51
f 52/52/52 54/54/54 51/51/51
f 52/52/52 55/55/55 54/54/54
f 51/51/51 54/54/54 56/56/56
f 55/55/55 57/57/57 54/54/54
f 54/54/54 58/58/58 56/56/56
f 54/54/54 57/57/57 58/58/58
f 57/57/57 59/59/59 58/58/58
f 56/56/56 58/58/58 60/60/60
f 58/58/58 59/59/59 61/61/61
f 58/58/58 61/61/61 60/60/60
f 59/59/59 62/62/62 61/61/61
f 62/62/62 63/63/63 61/61/61
f 63/63/63 64/64/64 61/61/61
f 61/61/61 64/64/64 60/60/60
f 64/64/64 65/65/65 60/60/60
f 68/68/68 67/67/67 66/66/66
f 66/66/66 69/69/69 68/68/68
f 69/69/69 70/70/70 68/68/68
f 69/69/69 71/71/71 70/70/70
f 71/71/71 72/72/72 70/70/70
f 71/71/71 73/73/73 72/72/72
f 73/73/73 74/74/74 72/72/72
f 77/77/77 76/76/76 75/75/75
f 76/76/76 78/78/78 75/75/75
f 79/79/79 76/76/76 77/77/77
f 75/75/75 78/78/78 80/80/80
f 81/81/81 79/79/79 77/77/77
f 78/78/78 82/82/82 80/80/80
f 83/83/83 79/79/79 81/81/81
f 80/80/80 82/82/82 84/84/84
f 85/85/85 83/83/83 81/81/81
f 82/82/82 86/86/86 84/84/84
f 87/87/87 83/83/83 85/85/85
f 84/84/84 86/86/86 88/88/88
f 89/89/89 87/87/87 85/85/85
f 86/86/86 90/90/90 88/88/88
f 91/91/91 87/87/87 89/89/89
f 88/88/88 90/90/90 92/92/92
f 92/92/92 91/91/91 89/89/89
f 90/90/90 91/91/91 92/92/92
g PickleJar_1
f 95/95/95 94/94/94 93/93/93
f 94/94/94 96/96/96 93/93/93
f 93/93/93 96/96/96 97/97/97
f 96/96/96 98/98/98 97/97/97
f 101/101/101 100/100/100 99/99/99
f 102/102/102 101/101/101 99/99/99
f 103/103/103 101/101/101 102/102/102
f 104/104/104 103/103/103 102/102/102
f 105/105/105 103/103/103 104/104/104
f 106/106/106 105/105/105 104/104/104
f 109/109/109 108/108/108 107/107/107
f 110/110/110 109/109/109 107/107/107
f 113/113/113 112/112/112 111/111/111
f 114/114/114 113/113/113 111/111/111
f 115/115/115 113/113/113 114/114/114
f 116/116/116 115/115/115 114/114/114
f 117/117/117 115/115/115 116/116/116
f 118/118/118 117/117/117 116/116/116
f 121/121/121 120/120/120 119/119/119
f 122/122/122 121/121/121 119/119/119
f 119/119/119 120/120/120 123/123/123
f 120/120/120 124/124/124 123/123/123
f 123/123/123 124/124/124 125/125/125
f 126/126/126 124/124/124 120/120/120
f 124/124/124 126/126/126 125/125/125
f 126/126/126 120/120/120 121/121/121
f 125/125/125 126/126/126 127/127/127
f 126/126/126 128/128/128 127/127/127
f 128/128/128 126/126/126 121/121/121
f 127/127/127 128/128/128 129/129/129
f 130/130/130 121/121/121 122/122/122
f 128/128/128 121/121/121 130/130/130
f 131/131/131 130/130/130 122/122/122
f 128/128/128 132/132/132 129/129/129
f 132/132/132 128/128/128 130/130/130
f 129/129/129 132/132/132 133/133/133
f 134/134/134 130/130/130 131/131/131
f 132/132/132 130/130/130 134/134/134
f 135/135/135 134/134/134 131/131/131
f 132/132/132 136/136/136 133/133/133
f 134/134/134 136/136/136 132/132/132
f 136/136/136 134/134/134 135/135/135
f 133/133/133 136/136/136 135/135/135
f 139/139/139 138/138/138 137/137/137
f 140/140/140 139/139/139 137/137/137
f 137/137/137 138/138/138 141/141/141
f 142/142/142 139/139/139 140/140/140
f 138/138/138 143/143/143 141/141/141
f 144/144/144 142/142/142 140/140/140
f 141/141/141 143/143/143 145/145/145
f 146/146/146 142/142/142 144/144/144
f 143/143/143 147/147/147 145/145/145
f 148/148/148 146/146/146 144/144/144
f 145/145/145 147/147/147 149/149/149
f 150/150/150 146/146/146 148/148/148
f 147/147/147 151/151/151 149/149/149
f 152/152/152 150/150/150 148/148/148
f 149/149/149 151/151/151 153/153/153
f 154/154/154 150/150/150 152/152/152
f 151/151/151 154/154/154 153/153/153
f 153/153/153 154/154/154 152/152/152
