g Pipe.004
v -0.7468126 -0.22675514 0.1399999
v -0.7468126 -0.0867548 -5.9604645E-08
v -0.033296883 -0.096590996 -5.2154064E-08
v 0.018252581 -0.22675514 0.1399999
v 0.21198843 0.13153648 -5.9604645E-08
v 0.34047922 0.07594776 0.1399999
v 0.20047921 0.6552601 -5.9604645E-08
v 0.34047922 0.6552601 0.13999993
v -0.7468126 -0.36675453 -1.1920929E-07
v -0.7468126 -0.22675514 0.1399999
v 0.018252581 -0.22675514 0.1399999
v 0.069802046 -0.3569193 -1.2665987E-07
v -0.7468126 -0.22675514 -0.14000008
v -0.7468126 -0.36675453 -1.1920929E-07
v 0.069802046 -0.3569193 -1.2665987E-07
v 0.018252552 -0.22675514 -0.1400001
v 0.46897003 0.02035904 -1.2665987E-07
v 0.3404792 0.07594776 -0.1400001
v 0.48047924 0.6552601 -1.2665987E-07
v 0.3404792 0.6552601 -0.1400001
v -0.7468126 -0.0867548 -5.9604645E-08
v -0.7468126 -0.22675514 -0.14000008
v 0.018252552 -0.22675514 -0.1400001
v -0.033296883 -0.096590996 -5.2154064E-08
v 0.069802046 -0.3569193 -1.2665987E-07
v 0.018252581 -0.22675514 0.1399999
v 0.34047922 0.07594776 0.1399999
v 0.46897003 0.02035904 -1.2665987E-07
v 0.34047922 0.6552601 0.13999993
v 0.48047924 0.6552601 -1.2665987E-07
v -0.033296883 -0.096590996 -5.2154064E-08
v 0.018252552 -0.22675514 -0.1400001
v 0.3404792 0.07594776 -0.1400001
v 0.21198843 0.13153648 -5.9604645E-08
v 0.3404792 0.6552601 -0.1400001
v 0.20047921 0.6552601 -5.9604645E-08
vt 0.67216164 0.7036916
vt 0.6908617 0.6958228
vt 0.65312344 0.64503247
vt 0.63239664 0.6487098
vt 0.6555119 0.6161153
vt 0.6357345 0.61057264
vt 0.69086176 0.59102434
vt 0.6741748 0.5819036
vt 0.88180923 0.75469124
vt 0.90107566 0.75975114
vt 0.9010756 0.71056163
vt 0.88216317 0.70273787
vt 0.844796 0.46018815
vt 0.8262261 0.45212612
vt 0.78347284 0.5107715
vt 0.8041379 0.5146675
vt 0.7869756 0.5581946
vt 0.80684435 0.55285627
vt 0.8279575 0.59098625
vt 0.844796 0.58202904
vt 0.9203021 0.70273787
vt 0.90107566 0.7078965
vt 0.9014507 0.7570767
vt 0.92030203 0.7491568
vt 0.55112886 0.7315003
vt 0.56904376 0.7227145
vt 0.55460626 0.69010913
vt 0.53330123 0.69091576
vt 0.56904376 0.64122605
vt 0.54833895 0.6370896
vt 0.52431434 0.64685297
vt 0.50676686 0.6375957
vt 0.4910098 0.6697782
vt 0.51227045 0.67115575
vt 0.5034526 0.7190284
vt 0.52431434 0.71545
vn 0.006669894 0.00061174313 0.9999776
vn 0.006652296 0.99997795 0
vn -0.36651745 0.9304111 0
vn 0.06462615 -0.15022597 0.9865372
vn -0.91852915 0.3953532 0
vn 0.15955976 -0.074090384 0.984404
vn -0.99994564 -0.010433621 0
vn -0.0010271217 -0.01038427 0.9999455
vn 0.006218095 -0.9999807 0
vn 0.006669894 0.00061174313 0.9999776
vn 0.06462615 -0.15022597 0.9865372
vn 0.37429523 -0.9273095 0
vn 0.00666988 0.0006121257 -0.9999776
vn 0.006218095 -0.9999807 0
vn 0.37429523 -0.9273095 0
vn 0.06462602 -0.15022564 -0.9865372
vn 0.9153363 -0.40269023 0
vn 0.15955944 -0.07409021 -0.984404
vn 0.99995506 -0.009478359 0
vn -0.0010273957 -0.01038424 -0.9999455
vn 0.006652296 0.99997795 0
vn 0.00666988 0.0006121257 -0.9999776
vn 0.06462602 -0.15022564 -0.9865372
vn -0.36651745 0.9304111 0
vn 0.37429523 -0.9273095 0
vn 0.06462615 -0.15022597 0.9865372
vn 0.15955976 -0.074090384 0.984404
vn 0.9153363 -0.40269023 0
vn -0.0010271217 -0.01038427 0.9999455
vn 0.99995506 -0.009478359 0
vn -0.36651745 0.9304111 0
vn 0.06462602 -0.15022564 -0.9865372
vn 0.15955944 -0.07409021 -0.984404
vn -0.91852915 0.3953532 0
vn -0.0010273957 -0.01038424 -0.9999455
vn -0.99994564 -0.010433621 0
g Pipe.004_0
f 3/3/3 2/2/2 1/1/1
f 4/4/4 3/3/3 1/1/1
f 5/5/5 3/3/3 4/4/4
f 6/6/6 5/5/5 4/4/4
f 7/7/7 5/5/5 6/6/6
f 8/8/8 7/7/7 6/6/6
f 11/11/11 10/10/10 9/9/9
f 12/12/12 11/11/11 9/9/9
f 15/15/15 14/14/14 13/13/13
f 16/16/16 15/15/15 13/13/13
f 17/17/17 15/15/15 16/16/16
f 18/18/18 17/17/17 16/16/16
f 19/19/19 17/17/17 18/18/18
f 20/20/20 19/19/19 18/18/18
f 23/23/23 22/22/22 21/21/21
f 24/24/24 23/23/23 21/21/21
f 27/27/27 26/26/26 25/25/25
f 28/28/28 27/27/27 25/25/25
f 29/29/29 27/27/27 28/28/28
f 30/30/30 29/29/29 28/28/28
f 33/33/33 32/32/32 31/31/31
f 34/34/34 33/33/33 31/31/31
f 35/35/35 33/33/33 34/34/34
f 36/36/36 35/35/35 34/34/34
