g Pipe.003
v -7.1341674E-08 -2.1424608 -0.43472102
v -0.14000009 -2.1424608 -0.574721
v -0.14000006 0.607152 -0.574721
v -7.1341674E-08 0.5548525 -0.44485667
v 0.13999994 -2.1424608 -0.5747211
v -7.1341674E-08 -2.1424608 -0.43472102
v -7.1341674E-08 0.5548525 -0.44485667
v 0.13999991 0.607152 -0.5747211
v -7.515865E-08 0.7194376 -0.2880926
v 0.13999993 0.8482466 -0.34293923
v -1.2140956E-07 -2.1424608 -0.714721
v 0.13999994 -2.1424608 -0.5747211
v 0.13999991 0.607152 -0.5747211
v -1.2140956E-07 0.6594515 -0.7045854
v -0.14000009 -2.1424608 -0.574721
v -1.2140956E-07 -2.1424608 -0.714721
v -1.2140956E-07 0.6594515 -0.7045854
v -0.14000006 0.607152 -0.574721
v -1.1759258E-07 0.97705555 -0.39778578
v -0.14000008 0.8482466 -0.34293917
v -7.1341674E-08 0.5548525 -0.44485667
v -0.14000006 0.607152 -0.574721
v -0.14000008 0.8482466 -0.34293917
v -7.515865E-08 0.7194376 -0.2880926
v -0.1399998 0.8482466 1.8879948
v 1.8971429E-07 0.70824623 1.8879948
v -1.2140956E-07 0.6594515 -0.7045854
v 0.13999991 0.607152 -0.5747211
v 0.13999993 0.8482466 -0.34293923
v -1.1759258E-07 0.97705555 -0.39778578
v 0.1400002 0.8482466 1.8879948
v 1.579604E-07 0.9882469 1.8879948
v 0.13999993 0.8482466 -0.34293923
v -7.515865E-08 0.7194376 -0.2880926
v 1.8971429E-07 0.70824623 1.8879948
v 0.1400002 0.8482466 1.8879948
v -0.14000008 0.8482466 -0.34293917
v -1.1759258E-07 0.97705555 -0.39778578
v 1.579604E-07 0.9882469 1.8879948
v -0.1399998 0.8482466 1.8879948
vt 0.8226187 0.59098625
vt 0.80306274 0.5948167
vt 0.8034687 0.7959418
vt 0.8226187 0.7887398
vt 0.8385251 0.26166838
vt 0.85983676 0.2611147
vt 0.84808105 0.027333165
vt 0.8273603 0.023249356
vt 0.85983676 0.011476577
vt 0.84475064 0
vt 0.78347284 0.79574466
vt 0.8030627 0.79951096
vt 0.80306274 0.59813154
vt 0.7838752 0.59098625
vt 0.611219 0.26801363
vt 0.58992463 0.26712552
vt 0.5735681 0.5100034
vt 0.59438187 0.5062458
vt 0.59586394 0.5409856
vt 0.611219 0.52975184
vt 0.43303207 0.56761897
vt 0.41760987 0.55587363
vt 0.40078902 0.5799015
vt 0.421542 0.58389777
vt 0.41171408 0.76896834
vt 0.433032 0.7681129
vt 0.866067 0.6779832
vt 0.8818092 0.66652185
vt 0.8656543 0.64219487
vt 0.844796 0.6458124
vt 0.8818092 0.45336938
vt 0.86052024 0.45212612
vt 0.7562495 0.7508274
vt 0.7761842 0.7447805
vt 0.7761842 0.62449074
vt 0.7556461 0.6281888
vt 0.9028772 0.31494212
vt 0.88293725 0.3088951
vt 0.8823508 0.4338927
vt 0.9028772 0.43759042
vn -0 0.0018608033 0.99999833
vn -0.9999982 0.001912513 0.00017874928
vn -0.98629737 0.063803025 -0.15214024
vn -0 -0.37494886 0.92704546
vn 0.9999982 0.001912513 0.00017814785
vn -0 0.0018608033 0.99999833
vn -0 -0.37494886 0.92704546
vn 0.98629737 0.063803256 -0.15214074
vn -0 -0.91871065 0.39493123
vn 0.9849807 0.15841313 -0.06869002
vn -0 0.0018257428 -0.99999833
vn 0.9999982 0.001912513 0.00017814785
vn 0.98629737 0.063803256 -0.15214074
vn -0 0.37821057 -0.92571956
vn -0.9999982 0.001912513 0.00017874928
vn -0 0.0018257428 -0.99999833
vn -0 0.37821057 -0.92571956
vn -0.98629737 0.063803025 -0.15214024
vn -0 0.9184307 -0.39558187
vn -0.9849807 0.15841289 -0.06868974
vn -0 -0.37494886 0.92704546
vn -0.98629737 0.063803025 -0.15214024
vn -0.9849807 0.15841289 -0.06868974
vn -0 -0.91871065 0.39493123
vn -0.99999654 -0.0002557668 -0.0026129407
vn -0 -0.9999968 -0.0025394429
vn -0 0.37821057 -0.92571956
vn 0.98629737 0.063803256 -0.15214074
vn 0.9849807 0.15841313 -0.06869002
vn -0 0.9184307 -0.39558187
vn 0.99999654 -0.00025565724 -0.002613177
vn -0 0.9999969 -0.0024777588
vn 0.9849807 0.15841313 -0.06869002
vn -0 -0.91871065 0.39493123
vn -0 -0.9999968 -0.0025394429
vn 0.99999654 -0.00025565724 -0.002613177
vn -0.9849807 0.15841289 -0.06868974
vn -0 0.9184307 -0.39558187
vn -0 0.9999969 -0.0024777588
vn -0.99999654 -0.0002557668 -0.0026129407
g Pipe.003_0
f 3/3/3 2/2/2 1/1/1
f 4/4/4 3/3/3 1/1/1
f 7/7/7 6/6/6 5/5/5
f 8/8/8 7/7/7 5/5/5
f 9/9/9 7/7/7 8/8/8
f 10/10/10 9/9/9 8/8/8
f 13/13/13 12/12/12 11/11/11
f 14/14/14 13/13/13 11/11/11
f 17/17/17 16/16/16 15/15/15
f 18/18/18 17/17/17 15/15/15
f 19/19/19 17/17/17 18/18/18
f 20/20/20 19/19/19 18/18/18
f 23/23/23 22/22/22 21/21/21
f 24/24/24 23/23/23 21/21/21
f 25/25/25 23/23/23 24/24/24
f 26/26/26 25/25/25 24/24/24
f 29/29/29 28/28/28 27/27/27
f 30/30/30 29/29/29 27/27/27
f 31/31/31 29/29/29 30/30/30
f 32/32/32 31/31/31 30/30/30
f 35/35/35 34/34/34 33/33/33
f 36/36/36 35/35/35 33/33/33
f 39/39/39 38/38/38 37/37/37
f 40/40/40 39/39/39 37/37/37
