g Pipe
v 0.4570107 -1.0889769 -4.70695
v 0.29701072 -1.2489767 -4.70695
v 0.29701072 -1.2489767 -1.9369081
v 0.45146435 -1.0889769 -1.8951459
v -0.113638856 -1.2489767 -1.2330518
v 0.04081475 -1.0889769 -1.1912895
v 0.2970107 -0.928977 -4.70695
v 0.4570107 -1.0889769 -4.70695
v 0.45146435 -1.0889769 -1.8951459
v 0.2970107 -0.928977 -1.9369081
v 0.04081475 -1.0889769 -1.1912895
v -0.11363888 -0.928977 -1.2330518
v 0.04615914 -1.0964622 1.61281
v -0.10559627 -0.9402418 1.551447
v 0.046159156 -0.7549348 1.980307
v -0.10559626 -0.68786 1.8264524
v 0.1370107 -1.0889769 -4.70695
v 0.2970107 -0.928977 -4.70695
v 0.2970107 -0.928977 -1.9369081
v 0.14255705 -1.0889769 -1.9786704
v -0.11363888 -0.928977 -1.2330518
v -0.26809248 -1.0889769 -1.2748141
v 0.29701072 -1.2489767 -4.70695
v 0.1370107 -1.0889769 -4.70695
v 0.14255705 -1.0889769 -1.9786704
v 0.29701072 -1.2489767 -1.9369081
v -0.26809248 -1.0889769 -1.2748141
v -0.113638856 -1.2489767 -1.2330518
v -0.27343634 -1.0814915 1.6069294
v -0.12168093 -1.2377119 1.6682922
v -0.27343637 -0.74850655 1.9655627
v -0.12168094 -0.8155813 2.1194172
v 0.04081475 -1.0889769 -1.1912895
v -0.113638856 -1.2489767 -1.2330518
v -0.12168093 -1.2377119 1.6682922
v 0.04615914 -1.0964622 1.61281
v -0.26809248 -1.0889769 -1.2748141
v -0.11363888 -0.928977 -1.2330518
v -0.10559627 -0.9402418 1.551447
v -0.27343634 -1.0814915 1.6069294
v 0.04615914 -1.0964622 1.61281
v -0.12168093 -1.2377119 1.6682922
v -0.12168094 -0.8155813 2.1194172
v 0.046159156 -0.7549348 1.980307
v -0.12168093 3.9206233 2.1327324
v 0.046159156 3.9206233 1.9809772
v -0.27343634 -1.0814915 1.6069294
v -0.10559627 -0.9402418 1.551447
v -0.10559626 -0.68786 1.8264524
v -0.27343637 -0.74850655 1.9655627
v -0.10559628 3.9206233 1.8131372
v -0.27343637 3.9206233 1.9648925
v -0.10559626 -0.68786 1.8264524
v 0.046159156 -0.7549348 1.980307
v 0.046159156 3.9206233 1.9809772
v -0.10559628 3.9206233 1.8131372
v -0.12168094 -0.8155813 2.1194172
v -0.27343637 -0.74850655 1.9655627
v -0.27343637 3.9206233 1.9648925
v -0.12168093 3.9206233 2.1327324
vt 0.95647323 0.6086215
vt 0.97622913 0.6006398
vt 0.97064936 0.42029884
vt 0.95090395 0.42524034
vt 0.97622913 0.35068697
vt 0.9564837 0.3556285
vt 0.6835763 0.5664588
vt 0.7078758 0.56819177
vt 0.73243535 0.33054623
vt 0.70819896 0.33229017
vt 0.70654076 0.2750069
vt 0.6823043 0.27675086
vt 0.73243535 0.038060904
vt 0.70851403 0.041513197
vt 0.7105729 0
vt 0.69238865 0.013096797
vt 0.9776452 0.0079928925
vt 0.95790744 0
vt 0.9523802 0.18034318
vt 0.9721075 0.18529578
vt 0.9579179 0.24995875
vt 0.9776453 0.25491136
vt 0.65801257 0.5819036
vt 0.6823043 0.58010185
vt 0.6566402 0.3494873
vt 0.63239664 0.34781212
vt 0.6823043 0.29387906
vt 0.6580608 0.29220387
vt 0.65662426 0.05024344
vt 0.6326885 0.046859063
vt 0.6777747 0.013045406
vt 0.6595339 0
vt 0.43864048 0.77870315
vt 0.46161005 0.7766482
vt 0.46161005 0.6180917
vt 0.43837824 0.6239326
vt 0.7556461 0.6266149
vt 0.73271143 0.62449074
vt 0.73243535 0.77850837
vt 0.7556461 0.78441995
vt 0.7831151 0.012490915
vt 0.7656436 0
vt 0.73243535 0.041609928
vt 0.7560492 0.04618373
vt 0.7588534 0.4521261
vt 0.78311497 0.45130405
vt 0.8101132 0.43740243
vt 0.8273602 0.42471495
vt 0.80664504 0.40003154
vt 0.7831151 0.40487862
vt 0.8273603 0.00054052187
vt 0.80308694 0
vt 0.9523801 0.009110512
vt 0.9310762 0
vt 0.9305143 0.34240404
vt 0.95238 0.34722555
vt 0.90922594 0.35068697
vt 0.9305143 0.34156194
vt 0.9305143 0
vt 0.90867484 0.0048442176
vn 0.9999995 0 0.0009936318
vn -6.642776E-05 -0.9999995 0.001018839
vn 0.11222977 -0.99319845 0.03100342
vn 0.9649316 0 0.26250148
vn -0.122326836 -0.99204284 -0.02978432
vn 0.9642148 -0.012123091 0.26484478
vn -6.648189E-05 0.9999995 0.0010188551
vn 0.9999995 0 0.0009936318
vn 0.9649316 0 0.26250148
vn 0.11222977 0.99319845 0.0310034
vn 0.9642148 -0.012123091 0.26484478
vn -0.09846923 0.99469537 -0.029748272
vn 0.98050517 -0.18035597 0.07798308
vn 0.04851143 0.9285866 -0.36793154
vn 0.97497493 -0.08890079 0.20376593
vn 0.06301272 0.40302232 -0.9130182
vn -0.9999995 0 0.0010087433
vn -6.648189E-05 0.9999995 0.0010188551
vn 0.11222977 0.99319845 0.0310034
vn -0.9651909 0 -0.26154652
vn -0.09846923 0.99469537 -0.029748272
vn -0.96448874 0.01208094 -0.26384768
vn -6.642776E-05 -0.9999995 0.001018839
vn -0.9999995 0 0.0010087433
vn -0.9651909 0 -0.26154652
vn 0.11222977 -0.99319845 0.03100342
vn -0.96448874 0.01208094 -0.26384768
vn -0.122326836 -0.99204284 -0.02978432
vn -0.9923185 -0.11575372 0.04364801
vn -0.030805368 -0.92798394 0.37134483
vn -0.99174905 -0.05165863 0.117325485
vn -0.042971767 -0.40250805 0.9144073
vn 0.9642148 -0.012123091 0.26484478
vn -0.122326836 -0.99204284 -0.02978432
vn -0.030805368 -0.92798394 0.37134483
vn 0.98050517 -0.18035597 0.07798308
vn -0.96448874 0.01208094 -0.26384768
vn -0.09846923 0.99469537 -0.029748272
vn 0.04851143 0.9285866 -0.36793154
vn -0.9923185 -0.11575372 0.04364801
vn 0.98050517 -0.18035597 0.07798308
vn -0.030805368 -0.92798394 0.37134483
vn -0.042971767 -0.40250805 0.9144073
vn 0.97497493 -0.08890079 0.20376593
vn -0.05015169 -0.0014168278 0.9987406
vn 0.9987412 -0.0014867977 0.05013904
vn -0.9923185 -0.11575372 0.04364801
vn 0.04851143 0.9285866 -0.36793154
vn 0.06301272 0.40302232 -0.9130182
vn -0.99174905 -0.05165863 0.117325485
vn 0.05016364 -0.001436423 -0.99874
vn -0.9987263 -0.0014898651 -0.050433673
vn 0.06301272 0.40302232 -0.9130182
vn 0.97497493 -0.08890079 0.20376593
vn 0.9987412 -0.0014867977 0.05013904
vn 0.05016364 -0.001436423 -0.99874
vn -0.042971767 -0.40250805 0.9144073
vn -0.99174905 -0.05165863 0.117325485
vn -0.9987263 -0.0014898651 -0.050433673
vn -0.05015169 -0.0014168278 0.9987406
g Pipe_0
f 3/3/3 2/2/2 1/1/1
f 4/4/4 3/3/3 1/1/1
f 5/5/5 3/3/3 4/4/4
f 6/6/6 5/5/5 4/4/4
f 9/9/9 8/8/8 7/7/7
f 10/10/10 9/9/9 7/7/7
f 11/11/11 9/9/9 10/10/10
f 12/12/12 11/11/11 10/10/10
f 13/13/13 11/11/11 12/12/12
f 14/14/14 13/13/13 12/12/12
f 15/15/15 13/13/13 14/14/14
f 16/16/16 15/15/15 14/14/14
f 19/19/19 18/18/18 17/17/17
f 20/20/20 19/19/19 17/17/17
f 21/21/21 19/19/19 20/20/20
f 22/22/22 21/21/21 20/20/20
f 25/25/25 24/24/24 23/23/23
f 26/26/26 25/25/25 23/23/23
f 27/27/27 25/25/25 26/26/26
f 28/28/28 27/27/27 26/26/26
f 29/29/29 27/27/27 28/28/28
f 30/30/30 29/29/29 28/28/28
f 31/31/31 29/29/29 30/30/30
f 32/32/32 31/31/31 30/30/30
f 35/35/35 34/34/34 33/33/33
f 36/36/36 35/35/35 33/33/33
f 39/39/39 38/38/38 37/37/37
f 40/40/40 39/39/39 37/37/37
f 43/43/43 42/42/42 41/41/41
f 44/44/44 43/43/43 41/41/41
f 45/45/45 43/43/43 44/44/44
f 46/46/46 45/45/45 44/44/44
f 49/49/49 48/48/48 47/47/47
f 50/50/50 49/49/49 47/47/47
f 51/51/51 49/49/49 50/50/50
f 52/52/52 51/51/51 50/50/50
f 55/55/55 54/54/54 53/53/53
f 56/56/56 55/55/55 53/53/53
f 59/59/59 58/58/58 57/57/57
f 60/60/60 59/59/59 57/57/57
