g Pipe.005
v 3.2608728 -0.6929722 -2.164589
v 3.12148 -0.83354664 -2.1616654
v 3.1579528 -0.83742714 -0.6055418
v 3.2868605 -0.6969662 -0.5521234
v 3.120345 -0.55354977 -2.1609406
v 3.2608728 -0.6929722 -2.164589
v 3.2868605 -0.6969662 -0.5521234
v 3.1569533 -0.5574293 -0.6055418
v 2.6543055 -0.6970463 0.056818485
v 2.6019516 -0.55742836 -0.07343495
v 2.9809523 -0.69412327 -2.1580172
v 3.120345 -0.55354977 -2.1609406
v 3.1569533 -0.5574293 -0.6055418
v 3.0280457 -0.6978903 -0.6589602
v 3.12148 -0.83354664 -2.1616654
v 2.9809523 -0.69412327 -2.1580172
v 3.0280457 -0.6978903 -0.6589602
v 3.1579528 -0.83742714 -0.6055418
v 2.549883 -0.6978102 -0.20298004
v 2.6022367 -0.83742714 -0.07272661
v 3.2868605 -0.6969662 -0.5521234
v 3.1579528 -0.83742714 -0.6055418
v 2.6022367 -0.83742714 -0.07272661
v 2.6543055 -0.6970463 0.056818485
v 3.0280457 -0.6978903 -0.6589602
v 3.1569533 -0.5574293 -0.6055418
v 2.6019516 -0.55742836 -0.07343495
v 2.549883 -0.6978102 -0.20298004
v 2.6543055 -0.6970463 0.056818485
v 2.6022367 -0.83742714 -0.07272661
v -1.7232976 -0.8242445 -0.06091416
v -1.6601874 -0.6863651 0.06638956
v -2.0833921 -0.4132042 -0.06091416
v -1.9412706 -0.36033344 0.06638956
v 2.6019516 -0.55742836 -0.07343495
v 2.6543055 -0.6970463 0.056818485
v -1.6601874 -0.6863651 0.06638956
v -1.6072044 -0.570611 -0.0852474
v 2.549883 -0.6978102 -0.20298004
v 2.6019516 -0.55742836 -0.07343495
v -1.6072044 -0.570611 -0.0852474
v -1.6703147 -0.7084913 -0.21255112
v -1.8219554 -0.31594753 -0.0852474
v -1.9640769 -0.36881828 -0.21255112
v 2.6022367 -0.83742714 -0.07272661
v 2.549883 -0.6978102 -0.20298004
v -1.6703147 -0.7084913 -0.21255112
v -1.7232976 -0.8242445 -0.06091416
v -1.6072044 -0.570611 -0.0852474
v -1.6601874 -0.6863651 0.06638956
v -1.9412706 -0.36033344 0.06638956
v -1.8219554 -0.31594753 -0.0852474
v -1.9308192 1.269084 0.055191517
v -1.8143901 1.328907 -0.09335315
v -1.9308192 1.4346066 0.21287525
v -1.8143901 1.5819445 0.15013927
v -1.9308189 1.4235535 2.389635
v -1.8143897 1.5836916 2.389635
v -1.7232976 -0.8242445 -0.06091416
v -1.6703147 -0.7084913 -0.21255112
v -1.9640769 -0.36881828 -0.21255112
v -2.0833921 -0.4132042 -0.06091416
v -1.9745283 1.3724012 -0.20135307
v -2.0909574 1.3125782 -0.052808404
v -1.9745283 1.6890678 0.10452688
v -2.0909574 1.5417299 0.16726285
v -1.9745281 1.7001209 2.389635
v -2.0909572 1.5399828 2.389635
v -1.9412706 -0.36033344 0.06638956
v -2.0833921 -0.4132042 -0.06091416
v -2.0909574 1.3125782 -0.052808404
v -1.9308192 1.269084 0.055191517
v -1.9640769 -0.36881828 -0.21255112
v -1.8219554 -0.31594753 -0.0852474
v -1.8143901 1.328907 -0.09335315
v -1.9745283 1.3724012 -0.20135307
v -1.9308192 1.269084 0.055191517
v -2.0909574 1.3125782 -0.052808404
v -2.0909574 1.5417299 0.16726285
v -1.9308192 1.4346066 0.21287525
v -2.0909572 1.5399828 2.389635
v -1.9308189 1.4235535 2.389635
v -1.9745283 1.3724012 -0.20135307
v -1.8143901 1.328907 -0.09335315
v -1.8143901 1.5819445 0.15013927
v -1.9745283 1.6890678 0.10452688
v -1.8143897 1.5836916 2.389635
v -1.9745281 1.7001209 2.389635
vt 0.92929566 0.35068697
vt 0.90867484 0.35419658
vt 0.90973413 0.44122383
vt 0.9292957 0.44045123
vt 0.40078902 0.29662153
vt 0.37990022 0.29305768
vt 0.34610122 0.42743436
vt 0.36727124 0.42627737
vt 0.38424852 0.47623685
vt 0.40078902 0.46891692
vt 0.85983676 0.44859254
vt 0.8804726 0.45199925
vt 0.8804726 0.36500698
vt 0.860933 0.36433178
vt 0.7624943 0.62449074
vt 0.78347284 0.6212936
vt 0.75356936 0.49574816
vt 0.73243535 0.49422085
vt 0.78347284 0.45973334
vt 0.7671326 0.45212612
vt 0.40054905 0.47623685
vt 0.38374022 0.48049974
vt 0.38372582 0.547726
vt 0.40054905 0.552917
vt 0.38374215 0.6157917
vt 0.40053776 0.6200546
vt 0.40053776 0.552917
vt 0.38372582 0.55810803
vt 0.46643668 0.29549724
vt 0.4483103 0.29305768
vt 0.43837824 0.57155603
vt 0.45622054 0.57318187
vt 0.4512427 0.6180917
vt 0.46643662 0.60980177
vt 0.9305143 0.7047954
vt 0.95090383 0.7098643
vt 0.95090395 0.35068697
vt 0.93127966 0.35356244
vt 0.8905107 0.3088951
vt 0.90867484 0.3066506
vt 0.9002174 0.036658797
vt 0.8823508 0.038092814
vt 0.90867484 0.008452426
vt 0.8936196 0
vt 0.6316034 0.26712552
vt 0.611219 0.27220684
vt 0.61198723 0.62394404
vt 0.6316034 0.62679154
vt 0.61280626 0.26712552
vt 0.6323966 0.26598036
vt 0.62755466 0.23546013
vt 0.6087248 0.24343695
vt 0.5145055 0.12788858
vt 0.49496683 0.13460101
vt 0.5118293 0.1094026
vt 0.4910098 0.10622568
vt 0.63239664 0.0070012556
vt 0.614152 0
vt 0.4910098 0.0009453577
vt 0.4713974 0
vt 0.46686932 0.03188986
vt 0.4858198 0.039677523
vt 0.35043865 0.14979984
vt 0.370079 0.15631603
vt 0.34610122 0.18540078
vt 0.3668691 0.18201862
vt 0.4728774 0.29305768
vt 0.4910098 0.28587952
vt 0.4674641 0.7843036
vt 0.48674276 0.7849273
vt 0.48674276 0.6591866
vt 0.46643668 0.66443455
vt 0.63153267 0.62679154
vt 0.6122307 0.62743986
vt 0.611219 0.74839985
vt 0.6315326 0.753635
vt 0.73243535 0.57848364
vt 0.7162057 0.56819177
vt 0.7002252 0.5910138
vt 0.72088575 0.59486014
vt 0.7113064 0.77932066
vt 0.73243535 0.77913207
vt 0.3671804 0.70195156
vt 0.38372582 0.6919981
vt 0.3668752 0.6664018
vt 0.34610122 0.6698208
vt 0.38372582 0.47686118
vt 0.36261007 0.47623685
vn 0.9997973 0.004075508 -0.019721685
vn 0.00376209 -0.999992 0.0014053925
vn 0.16629048 -0.9836362 0.069334835
vn 0.92252284 0.00231176 0.38593572
vn -0.0043768673 0.99996877 0.006587486
vn 0.9997973 0.004075508 -0.019721685
vn 0.92252284 0.00231176 0.38593572
vn 0.1599209 0.98466486 0.06971634
vn 0.38112304 0.023779526 0.9242185
vn 0.060769875 0.99020267 0.12572077
vn -0.99961734 -0.0040952126 0.027357213
vn -0.0043768673 0.99996877 0.006587486
vn 0.1599209 0.98466486 0.06971634
vn -0.9235024 -0.0048929215 -0.38356146
vn 0.00376209 -0.999992 0.0014053925
vn -0.99961734 -0.0040952126 0.027357213
vn -0.9235024 -0.0048929215 -0.38356146
vn 0.16629048 -0.9836362 0.069334835
vn -0.38038495 -0.024973432 -0.9244909
vn 0.06284537 -0.98311216 0.1718746
vn 0.92252284 0.00231176 0.38593572
vn 0.16629048 -0.9836362 0.069334835
vn 0.06284537 -0.98311216 0.1718746
vn 0.38112304 0.023779526 0.9242185
vn -0.9235024 -0.0048929215 -0.38356146
vn 0.1599209 0.98466486 0.06971634
vn 0.060769875 0.99020267 0.12572077
vn -0.38038495 -0.024973432 -0.9244909
vn 0.38112304 0.023779526 0.9242185
vn 0.06284537 -0.98311216 0.1718746
vn -0.42086586 -0.9056521 0.051635303
vn -0.040455468 -0.109105766 0.9932066
vn -0.9302327 -0.35520515 0.09217541
vn -0.04616275 -0.027022596 0.9985683
vn 0.060769875 0.99020267 0.12572077
vn 0.38112304 0.023779526 0.9242185
vn -0.040455468 -0.109105766 0.9932066
vn 0.42361057 0.9015097 -0.08851169
vn -0.38038495 -0.024973432 -0.9244909
vn 0.060769875 0.99020267 0.12572077
vn 0.42361057 0.9015097 -0.08851169
vn -0.10645749 -0.21537785 -0.9707107
vn 0.9286629 0.3503426 -0.12184156
vn -0.23412447 -0.0840442 -0.96856713
vn 0.06284537 -0.98311216 0.1718746
vn -0.38038495 -0.024973432 -0.9244909
vn -0.10645749 -0.21537785 -0.9707107
vn -0.42086586 -0.9056521 0.051635303
vn 0.42361057 0.9015097 -0.08851169
vn -0.040455468 -0.109105766 0.9932066
vn -0.04616275 -0.027022596 0.9985683
vn 0.9286629 0.3503426 -0.12184156
vn 0.17454237 -0.37146315 0.9118937
vn 0.95641696 0.11566099 -0.2681214
vn 0.19386597 -0.9013304 0.38732347
vn 0.9488301 0.2903239 -0.12423192
vn 0.15567933 -0.9878044 -0.002538244
vn 0.98773766 0.15610144 -0.002590882
vn -0.42086586 -0.9056521 0.051635303
vn -0.10645749 -0.21537785 -0.9707107
vn -0.23412447 -0.0840442 -0.96856713
vn -0.9302327 -0.35520515 0.09217541
vn -0.11789428 0.37671605 -0.91879594
vn -0.99963164 0.0069380794 -0.026240373
vn -0.1340829 0.9102087 -0.39184436
vn -0.9997465 0.020027718 -0.010290091
vn -0.15562512 0.98781306 -0.0024744726
vn -0.9876622 -0.15657759 -0.0026201853
vn -0.04616275 -0.027022596 0.9985683
vn -0.9302327 -0.35520515 0.09217541
vn -0.99963164 0.0069380794 -0.026240373
vn 0.17454237 -0.37146315 0.9118937
vn -0.23412447 -0.0840442 -0.96856713
vn 0.9286629 0.3503426 -0.12184156
vn 0.95641696 0.11566099 -0.2681214
vn -0.11789428 0.37671605 -0.91879594
vn 0.17454237 -0.37146315 0.9118937
vn -0.99963164 0.0069380794 -0.026240373
vn -0.9997465 0.020027718 -0.010290091
vn 0.19386597 -0.9013304 0.38732347
vn -0.9876622 -0.15657759 -0.0026201853
vn 0.15567933 -0.9878044 -0.002538244
vn -0.11789428 0.37671605 -0.91879594
vn 0.95641696 0.11566099 -0.2681214
vn 0.9488301 0.2903239 -0.12423192
vn -0.1340829 0.9102087 -0.39184436
vn 0.98773766 0.15610144 -0.002590882
vn -0.15562512 0.98781306 -0.0024744726
g Pipe.005_0
f 3/3/3 2/2/2 1/1/1
f 4/4/4 3/3/3 1/1/1
f 7/7/7 6/6/6 5/5/5
f 8/8/8 7/7/7 5/5/5
f 9/9/9 7/7/7 8/8/8
f 10/10/10 9/9/9 8/8/8
f 13/13/13 12/12/12 11/11/11
f 14/14/14 13/13/13 11/11/11
f 17/17/17 16/16/16 15/15/15
f 18/18/18 17/17/17 15/15/15
f 19/19/19 17/17/17 18/18/18
f 20/20/20 19/19/19 18/18/18
f 23/23/23 22/22/22 21/21/21
f 24/24/24 23/23/23 21/21/21
f 27/27/27 26/26/26 25/25/25
f 28/28/28 27/27/27 25/25/25
f 31/31/31 30/30/30 29/29/29
f 32/32/32 31/31/31 29/29/29
f 33/33/33 31/31/31 32/32/32
f 34/34/34 33/33/33 32/32/32
f 37/37/37 36/36/36 35/35/35
f 38/38/38 37/37/37 35/35/35
f 41/41/41 40/40/40 39/39/39
f 42/42/42 41/41/41 39/39/39
f 43/43/43 41/41/41 42/42/42
f 44/44/44 43/43/43 42/42/42
f 47/47/47 46/46/46 45/45/45
f 48/48/48 47/47/47 45/45/45
f 51/51/51 50/50/50 49/49/49
f 52/52/52 51/51/51 49/49/49
f 53/53/53 51/51/51 52/52/52
f 54/54/54 53/53/53 52/52/52
f 55/55/55 53/53/53 54/54/54
f 56/56/56 55/55/55 54/54/54
f 57/57/57 55/55/55 56/56/56
f 58/58/58 57/57/57 56/56/56
f 61/61/61 60/60/60 59/59/59
f 62/62/62 61/61/61 59/59/59
f 63/63/63 61/61/61 62/62/62
f 64/64/64 63/63/63 62/62/62
f 65/65/65 63/63/63 64/64/64
f 66/66/66 65/65/65 64/64/64
f 67/67/67 65/65/65 66/66/66
f 68/68/68 67/67/67 66/66/66
f 71/71/71 70/70/70 69/69/69
f 72/72/72 71/71/71 69/69/69
f 75/75/75 74/74/74 73/73/73
f 76/76/76 75/75/75 73/73/73
f 79/79/79 78/78/78 77/77/77
f 80/80/80 79/79/79 77/77/77
f 81/81/81 79/79/79 80/80/80
f 82/82/82 81/81/81 80/80/80
f 85/85/85 84/84/84 83/83/83
f 86/86/86 85/85/85 83/83/83
f 87/87/87 85/85/85 86/86/86
f 88/88/88 87/87/87 86/86/86
