g Plane
v -0.40894806 -0.846752 0.2999935
v -0.7145844 -0.6290136 0.28556097
v -0.30179927 -0.34409714 0.78442174
v 0.06258195 -0.37852857 0.8551628
v 0.049327783 -0.9200129 0.3154727
v 0.00620933 -0.07920914 1.0253646
v 0.296045 -0.0817359 0.9269887
v 0.010357082 0.35541806 0.8721083
v 0.41686472 -0.84002584 0.30174136
v 0.70178145 -0.64614856 0.28243035
v 0.89421517 -0.24559055 0.3101219
v 0.91442144 0.09658668 0.3141606
v 0.28783265 0.3304369 0.79875
v 0.8318771 0.4386097 0.30001163
v 0.6704234 0.672864 0.2829241
v 0.28783265 0.3304369 0.79875
v 0.41686475 0.84002584 0.30174136
v 0.6704234 0.672864 0.2829241
v 0.010357082 0.35541806 0.8721083
v 0.049327824 0.92001295 0.3154727
v -0.40894806 0.846752 0.2999935
v -0.2616504 0.3180999 0.82765293
v -0.6726693 0.6701894 0.28261238
v 0.00620933 -0.07920914 1.0253646
v -0.81973886 0.45257178 0.2983744
v -0.36299744 2.577706E-07 0.8746443
v -0.30179927 -0.34409714 0.78442174
v -0.91161615 0.14833196 0.31379542
v -0.7145844 -0.6290136 0.28556097
v -0.8943284 -0.24494277 0.31012064
vt 0.44875097 0.49942964
vt 0.4858306 0.49101734
vt 0.49478295 0.42390758
vt 0.4627295 0.40597346
vt 0.4014254 0.48186958
vt 0.49260086 0.37009877
vt 0.45539406 0.35583025
vt 0.49478295 0.3208139
vt 0.36615166 0.45169133
vt 0.3426715 0.41268808
vt 0.33946562 0.35330966
vt 0.34961885 0.31115082
vt 0.46007398 0.30945295
vt 0.36861208 0.27519524
vt 0.3915612 0.25666964
vt 0.6605345 0.39612463
vt 0.6307875 0.48201764
vt 0.6605345 0.4731241
vt 0.6343964 0.3847137
vt 0.58939505 0.47571936
vt 0.53831935 0.4480943
vt 0.6014459 0.37038615
vt 0.51055354 0.4162046
vt 0.6521637 0.32605654
vt 0.4988783 0.3830079
vt 0.59879017 0.32575333
vt 0.6048687 0.28995594
vt 0.49478298 0.3416386
vt 0.5276866 0.25666964
vt 0.5029891 0.29478103
vn -0.29070893 -0.6412646 0.7101183
vn -0.540021 -0.4482652 0.71234524
vn -0.41874158 -0.47016397 0.7769178
vn 0.10393726 -0.5873018 0.80266654
vn 0.017580444 -0.706039 0.70795465
vn -0.018240534 -0.08946042 0.9958234
vn 0.4843611 -0.09685114 0.8694907
vn 0.032817986 0.5133655 0.85754234
vn 0.3215822 -0.6109664 0.72339827
vn 0.5120071 -0.460218 0.7252917
vn 0.67471397 -0.20557986 0.70887095
vn 0.6894271 0.08241799 0.7196511
vn 0.422269 0.4277673 0.79918957
vn 0.6156432 0.3126113 0.7233654
vn 0.49860862 0.5046163 0.7048062
vn 0.422269 0.4277673 0.79918957
vn 0.306989 0.63243234 0.7111871
vn 0.49860862 0.5046163 0.7048062
vn 0.032817986 0.5133655 0.85754234
vn 0.023410812 0.70105726 0.7127206
vn -0.29036948 0.6425587 0.70908666
vn -0.37819925 0.44300273 0.8128431
vn -0.50209 0.50294673 0.703527
vn -0.018240534 -0.08946042 0.9958234
vn -0.61391294 0.33742803 0.7136199
vn -0.54116416 0.00074778375 0.8409166
vn -0.41874158 -0.47016397 0.7769178
vn -0.69570524 0.11054337 0.7097706
vn -0.540021 -0.4482652 0.71234524
vn -0.6672999 -0.20362113 0.71641415
g Plane_0
f 3/3/3 2/2/2 1/1/1
f 3/3/3 1/1/1 4/4/4
f 5/5/5 4/4/4 1/1/1
f 6/6/6 3/3/3 4/4/4
f 7/7/7 6/6/6 4/4/4
f 6/6/6 7/7/7 8/8/8
f 4/4/4 5/5/5 9/9/9
f 7/7/7 4/4/4 9/9/9
f 7/7/7 9/9/9 10/10/10
f 11/11/11 7/7/7 10/10/10
f 12/12/12 7/7/7 11/11/11
f 7/7/7 13/13/13 8/8/8
f 14/14/14 7/7/7 12/12/12
f 13/13/13 7/7/7 14/14/14
f 14/14/14 15/15/15 13/13/13
f 18/18/18 17/17/17 16/16/16
f 17/17/17 19/19/19 16/16/16
f 17/17/17 20/20/20 19/19/19
f 20/20/20 21/21/21 19/19/19
f 19/19/19 21/21/21 22/22/22
f 21/21/21 23/23/23 22/22/22
f 19/19/19 22/22/22 24/24/24
f 23/23/23 25/25/25 22/22/22
f 24/24/24 22/22/22 26/26/26
f 22/22/22 25/25/25 26/26/26
f 26/26/26 27/27/27 24/24/24
f 25/25/25 28/28/28 26/26/26
f 26/26/26 29/29/29 27/27/27
f 26/26/26 28/28/28 30/30/30
f 29/29/29 26/26/26 30/30/30
