g Plane.001
v -11.334841 -0.40533316 0.3020976
v -9.207575 0.7296216 0.83538914
v -9.740931 -0.27723095 0.82492274
v -11.586369 0.1433721 0.31545365
v -9.207575 0.7296216 0.83538914
v -11.334841 -0.40533316 0.3020976
v 0.2499516 -0.03973654 1.0323324
v -2.4991622 -0.057655897 0.31668523
v -2.3080087 0.5930133 0.28640467
v 0.049118288 0.915883 0.31113946
v 0.41686475 0.84002584 0.30174136
v 0.7214215 0.57465285 0.25010076
v 0.9268505 -0.11212347 0.31601802
v 0.70178145 -0.64614856 0.28243035
v 0.2499516 -0.03973654 1.0323324
v 0.9268505 -0.11212347 0.31601802
v 0.41686472 -0.84002584 0.30174136
v 0.05755312 -0.91637856 0.31341967
v -2.2784162 -0.6290136 0.28556097
v -2.4991622 -0.057655897 0.31668523
v -2.9296963 -0.029108547 0.997736
v -5.359824 -0.0576559 0.3160104
v -4.8625717 0.5930133 0.29074365
v -3.990535 0.846752 0.30208245
v -2.7984133 0.92001295 0.31499863
v -1.8423326 0.84002584 0.30354092
v -1.1827457 0.672864 0.28783938
v -0.7627531 0.4386097 0.3020976
v -0.51569706 -0.11212347 0.31545365
v -1.1011734 -0.64614856 0.28742743
v -2.9296963 -0.029108547 0.997736
v -0.51569706 -0.11212347 0.31545365
v -1.8423326 -0.84002584 0.30354092
v -2.7984135 -0.9200129 0.31499863
v -3.990535 -0.846752 0.30208245
v -4.785592 -0.6290136 0.29003966
v -5.359824 -0.0576559 0.3160104
v -7.1213813 0.109471686 0.87801164
v -8.458187 -0.0576559 0.3160104
v -7.9609356 0.5930133 0.29074365
v -7.0888987 0.846752 0.30208245
v -5.735478 -0.03717848 1.0425794
v -5.340224 0.95487505 0.3622485
v -4.281109 0.672864 0.28783938
v -3.8611164 0.4386097 0.3020976
v -3.6140604 -0.11212347 0.31545365
v -4.199537 -0.64614856 0.28742743
v -5.735478 -0.03717848 1.0425794
v -3.6140604 -0.11212347 0.31545365
v -4.940696 -0.84002584 0.30354092
v -5.896777 -0.9200129 0.31499863
v -7.0888987 -0.846752 0.30208245
v -7.883955 -0.6290136 0.29003966
v -7.1213813 0.109471686 0.87801164
v -8.458187 -0.0576559 0.3160104
v -9.207575 0.7296216 0.83538914
v -7.9341297 0.46126747 0.8203232
v -9.740931 -0.27723095 0.82492274
v -8.103846 -0.7872058 0.30208245
v -7.233902 -0.526382 0.29074365
v -6.7419596 0.12831052 0.3160104
v -9.851582 -0.9095497 0.36224848
v -10.912957 -0.6361633 0.28783938
v -11.334841 -0.40533316 0.3020976
v -11.005256 0.68214214 0.28742743
v -9.207575 0.7296216 0.83538914
v -11.586369 0.1433721 0.31545365
v -10.092562 0.91190284 0.3010161
v -7.353575 0.6450768 0.23295228
v -7.9341297 0.46126747 0.8203232
v -6.7419596 0.12831052 0.3160104
vt 0.29956055 0.640625
vt 0.29956055 0.5058594
vt 0.26123047 0.5522461
vt 0.3305664 0.6538086
vt 0.3305664 0.5058594
vt 0.29956055 0.64941406
vt 0.69921875 0.39746094
vt 0.69921875 0.23132324
vt 0.6640625 0.2388916
vt 0.6303711 0.3762207
vt 0.63134766 0.39819336
vt 0.640625 0.41723633
vt 0.67529297 0.43359375
vt 0.63720703 0.45166016
vt 0.6948242 0.47143555
vt 0.66308594 0.43359375
vt 0.6308594 0.47021484
vt 0.6303711 0.49194336
vt 0.6640625 0.62646484
vt 0.6948242 0.63427734
vt 0.42773438 0.37402344
vt 0.4543457 0.5185547
vt 0.48657227 0.48706055
vt 0.49682617 0.43432617
vt 0.49682617 0.36328125
vt 0.49047852 0.30664062
vt 0.4807129 0.2680664
vt 0.46728516 0.24401855
vt 0.43823242 0.23132324
vt 0.61279297 0.484375
vt 0.5644531 0.37231445
vt 0.5834961 0.5185547
vt 0.62402344 0.4404297
vt 0.6303711 0.38354492
vt 0.6303711 0.31298828
vt 0.6220703 0.265625
vt 0.59375 0.23132324
vt 0.3725586 0.4387207
vt 0.38452148 0.51904297
vt 0.4169922 0.48754883
vt 0.42773438 0.4350586
vt 0.35717773 0.3564453
vt 0.42773438 0.33081055
vt 0.41381836 0.26879883
vt 0.40063477 0.24438477
vt 0.37182617 0.23132324
vt 0.51220703 0.26611328
vt 0.5644531 0.35986328
vt 0.5410156 0.23132324
vt 0.5019531 0.31030273
vt 0.49682617 0.3671875
vt 0.49804688 0.43798828
vt 0.5073242 0.48486328
vt 0.5644531 0.4416504
vt 0.5361328 0.5185547
vt 0.26123047 0.36108398
vt 0.2783203 0.43554688
vt 0.31103516 0.32543945
vt 0.35717773 0.42138672
vt 0.34643555 0.4741211
vt 0.31396484 0.5058594
vt 0.35717773 0.31713867
vt 0.34326172 0.2553711
vt 0.33007812 0.23132324
vt 0.7104492 0.26635742
vt 0.72509766 0.37426758
vt 0.73876953 0.23132324
vt 0.69921875 0.32080078
vt 0.70996094 0.4831543
vt 0.73779297 0.44970703
vt 0.73876953 0.51904297
vn -0.22631836 -0.16845703 0.95947266
vn -0.014007568 0.6269531 0.7788086
vn -0.12609863 -0.24938965 0.95996094
vn -0.21887207 0.022964478 0.97558594
vn -0.014007568 0.6269531 0.7788086
vn -0.22631836 -0.16845703 0.95947266
vn 0.25048828 -0.013916016 0.9682617
vn -0.25195312 -0.011489868 0.96777344
vn -0.22009277 0.22839355 0.9482422
vn 0.013717651 0.6040039 0.796875
vn 0.32641602 0.56640625 0.75683594
vn 0.61376953 0.39746094 0.6821289
vn 0.72509766 -0.030899048 0.6879883
vn 0.5419922 -0.4633789 0.7011719
vn 0.25048828 -0.013916016 0.9682617
vn 0.72509766 -0.030899048 0.6879883
vn 0.28710938 -0.6123047 0.7363281
vn 0.021759033 -0.63671875 0.7705078
vn -0.21984863 -0.2512207 0.9428711
vn -0.25195312 -0.011489868 0.96777344
vn -0.0020885468 -0.015312195 1
vn -0.27001953 -0.014533997 0.9628906
vn -0.23791504 0.3076172 0.9213867
vn -0.123168945 0.5214844 0.8442383
vn 0.010124207 0.5830078 0.8125
vn 0.1217041 0.52197266 0.8442383
vn 0.18554688 0.43115234 0.8828125
vn 0.2524414 0.22875977 0.9399414
vn 0.27001953 -0.050933838 0.9614258
vn 0.22558594 -0.36938477 0.9013672
vn -0.0020885468 -0.015312195 1
vn 0.27001953 -0.050933838 0.9614258
vn 0.12756348 -0.54052734 0.83154297
vn 0.010635376 -0.6074219 0.7944336
vn -0.12426758 -0.5444336 0.82958984
vn -0.23120117 -0.3540039 0.90625
vn -0.27001953 -0.014533997 0.9628906
vn -0.19580078 0.08483887 0.9770508
vn -0.38378906 -0.03289795 0.92285156
vn -0.32885742 0.4423828 0.83447266
vn -0.10864258 0.6064453 0.78759766
vn 0.049682617 -0.036895752 0.9980469
vn 0.08648682 0.5395508 0.83740234
vn 0.21618652 0.46801758 0.8569336
vn 0.29541016 0.26513672 0.91796875
vn 0.32177734 -0.0597229 0.9448242
vn 0.25854492 -0.42407227 0.8676758
vn 0.049682617 -0.036895752 0.9980469
vn 0.32177734 -0.0597229 0.9448242
vn 0.13305664 -0.5966797 0.7915039
vn 0.0025138855 -0.63623047 0.7714844
vn -0.1282959 -0.5439453 0.82910156
vn -0.25439453 -0.42797852 0.8671875
vn -0.19580078 0.08483887 0.9770508
vn -0.38378906 -0.03289795 0.92285156
vn -0.014007568 0.6269531 0.7788086
vn 0.2536621 0.3178711 0.9135742
vn -0.12609863 -0.24938965 0.95996094
vn 0.13684082 -0.4284668 0.8930664
vn 0.2220459 -0.33374023 0.9160156
vn 0.39941406 0.043518066 0.91552734
vn -0.07281494 -0.5805664 0.81103516
vn -0.2290039 -0.50097656 0.83447266
vn -0.22631836 -0.16845703 0.95947266
vn -0.27563477 0.41186523 0.86865234
vn -0.014007568 0.6269531 0.7788086
vn -0.21887207 0.022964478 0.97558594
vn -0.1505127 0.83251953 0.5332031
vn 0.36767578 0.7363281 0.5678711
vn 0.2536621 0.3178711 0.9135742
vn 0.39941406 0.043518066 0.91552734
g Plane.001_0
f 3/3/3 2/2/2 1/1/1
f 6/6/6 5/5/5 4/4/4
f 9/9/9 8/8/8 7/7/7
f 10/10/10 9/9/9 7/7/7
f 11/11/11 10/10/10 7/7/7
f 12/12/12 11/11/11 7/7/7
f 12/12/12 7/7/7 13/13/13
f 16/16/16 15/15/15 14/14/14
f 15/15/15 17/17/17 14/14/14
f 15/15/15 18/18/18 17/17/17
f 15/15/15 19/19/19 18/18/18
f 19/19/19 15/15/15 20/20/20
f 23/23/23 22/22/22 21/21/21
f 24/24/24 23/23/23 21/21/21
f 25/25/25 24/24/24 21/21/21
f 26/26/26 25/25/25 21/21/21
f 27/27/27 26/26/26 21/21/21
f 28/28/28 27/27/27 21/21/21
f 28/28/28 21/21/21 29/29/29
f 32/32/32 31/31/31 30/30/30
f 31/31/31 33/33/33 30/30/30
f 31/31/31 34/34/34 33/33/33
f 34/34/34 31/31/31 35/35/35
f 31/31/31 36/36/36 35/35/35
f 36/36/36 31/31/31 37/37/37
f 40/40/40 39/39/39 38/38/38
f 41/41/41 40/40/40 38/38/38
f 42/42/42 41/41/41 38/38/38
f 43/43/43 41/41/41 42/42/42
f 44/44/44 43/43/43 42/42/42
f 45/45/45 44/44/44 42/42/42
f 45/45/45 42/42/42 46/46/46
f 49/49/49 48/48/48 47/47/47
f 48/48/48 50/50/50 47/47/47
f 48/48/48 51/51/51 50/50/50
f 51/51/51 48/48/48 52/52/52
f 48/48/48 53/53/53 52/52/52
f 54/54/54 53/53/53 48/48/48
f 53/53/53 54/54/54 55/55/55
f 58/58/58 57/57/57 56/56/56
f 58/58/58 59/59/59 57/57/57
f 59/59/59 60/60/60 57/57/57
f 60/60/60 61/61/61 57/57/57
f 62/62/62 59/59/59 58/58/58
f 63/63/63 62/62/62 58/58/58
f 64/64/64 63/63/63 58/58/58
f 67/67/67 66/66/66 65/65/65
f 66/66/66 68/68/68 65/65/65
f 68/68/68 66/66/66 69/69/69
f 70/70/70 69/69/69 66/66/66
f 69/69/69 70/70/70 71/71/71
