g Plane
v -2.781972 0.29023153 -0.3890229
v -2.781972 -0.29023153 0.3890229
v -1.390986 -0.29023153 0.3890229
v -1.390986 0.29023153 -0.3890229
v -0 -0.29023153 0.3890229
v -0 0.29023153 -0.3890229
v 1.390986 -0.29023153 0.3890229
v 1.390986 0.29023153 -0.3890229
v 2.781972 -0.29023153 0.3890229
v 2.781972 0.29023153 -0.3890229
v 1.390986 0.7736848 0.037417177
v 2.781972 -0.7736848 0.037417043
v 2.781972 0.7736848 0.037417177
v 1.390986 -0.7736848 0.037417043
v -0 0.7736848 0.037417177
v -0 -0.7736848 0.037417043
v -1.390986 0.7736848 0.037417177
v -1.390986 -0.7736848 0.037417043
v -2.781972 0.7736848 0.037417177
v -2.781972 -0.7736848 0.037417043
v -2.781972 0.29023153 -0.3890229
v -1.390986 -0.29023153 0.3890229
v -2.781972 -0.29023153 0.3890229
v -1.390986 0.29023153 -0.3890229
v -0 -0.29023153 0.3890229
v -0 0.29023153 -0.3890229
v 1.390986 -0.29023153 0.3890229
v 1.390986 0.29023153 -0.3890229
v 2.781972 -0.29023153 0.3890229
v 2.781972 0.29023153 -0.3890229
v 1.390986 0.7736848 0.037417177
v 2.781972 0.7736848 0.037417177
v 2.781972 -0.7736848 0.037417043
v 1.390986 -0.7736848 0.037417043
v -0 0.7736848 0.037417177
v -0 -0.7736848 0.037417043
v -1.390986 0.7736848 0.037417177
v -1.390986 -0.7736848 0.037417043
v -2.781972 0.7736848 0.037417177
v -2.781972 -0.7736848 0.037417043
vt 0 0.6875
vt 0 0.3125
vt 0.25 0.3125
vt 0.25 0.6875
vt 0.5 0.3125
vt 0.5 0.6875
vt 0.75 0.3125
vt 0.75 0.6875
vt 1 0.3125
vt 1 0.6875
vt 0.75 1
vt 1 0
vt 1 1
vt 0.75 0
vt 0.5 1
vt 0.5 0
vt 0.25 1
vt 0.25 0
vt 0 1
vt 0 0
vt 0 0.6875
vt 0.25 0.3125
vt 0 0.3125
vt 0.25 0.6875
vt 0.5 0.3125
vt 0.5 0.6875
vt 0.75 0.3125
vt 0.75 0.6875
vt 1 0.3125
vt 1 0.6875
vt 0.75 1
vt 1 1
vt 1 0
vt 0.75 0
vt 0.5 1
vt 0.5 0
vt 0.25 1
vt 0.25 0
vt 0 1
vt 0 0
vn -0 -0.80151606 -0.59797317
vn -0 -0.80151606 -0.59797317
vn -0 -0.80151606 -0.59797317
vn -0 -0.80151606 -0.59797317
vn -0 -0.80151606 -0.59797317
vn -0 -0.80151606 -0.59797317
vn -0 -0.80151606 -0.59797317
vn -0 -0.80151606 -0.59797317
vn -0 -0.80151606 -0.59797317
vn -0 -0.80151606 -0.59797317
vn -0 0 -1
vn -0 0 -1
vn -0 0 -1
vn -0 0 -1
vn -0 0 -1
vn -0 0 -1
vn -0 0 -1
vn -0 0 -1
vn -0 0 -1
vn -0 0 -1
vn -0 0.80151606 0.59797317
vn -0 0.80151606 0.59797317
vn -0 0.80151606 0.59797317
vn -0 0.80151606 0.59797317
vn -0 0.80151606 0.59797317
vn -0 0.80151606 0.59797317
vn -0 0.80151606 0.59797317
vn -0 0.80151606 0.59797317
vn -0 0.80151606 0.59797317
vn -0 0.80151606 0.59797317
vn -0 0 1
vn -0 0 1
vn -0 0 1
vn -0 0 1
vn -0 0 1
vn -0 0 1
vn -0 0 1
vn -0 0 1
vn -0 0 1
vn -0 0 1
g Plane_0
f 3/3/3 2/2/2 1/1/1
f 4/4/4 3/3/3 1/1/1
f 5/5/5 3/3/3 4/4/4
f 6/6/6 5/5/5 4/4/4
f 7/7/7 5/5/5 6/6/6
f 8/8/8 7/7/7 6/6/6
f 9/9/9 7/7/7 8/8/8
f 10/10/10 9/9/9 8/8/8
f 13/13/13 12/12/12 11/11/11
f 12/12/12 14/14/14 11/11/11
f 11/11/11 14/14/14 15/15/15
f 14/14/14 16/16/16 15/15/15
f 15/15/15 16/16/16 17/17/17
f 16/16/16 18/18/18 17/17/17
f 17/17/17 18/18/18 19/19/19
f 18/18/18 20/20/20 19/19/19
f 23/23/23 22/22/22 21/21/21
f 22/22/22 24/24/24 21/21/21
f 22/22/22 25/25/25 24/24/24
f 25/25/25 26/26/26 24/24/24
f 25/25/25 27/27/27 26/26/26
f 27/27/27 28/28/28 26/26/26
f 27/27/27 29/29/29 28/28/28
f 29/29/29 30/30/30 28/28/28
f 33/33/33 32/32/32 31/31/31
f 34/34/34 33/33/33 31/31/31
f 34/34/34 31/31/31 35/35/35
f 36/36/36 34/34/34 35/35/35
f 36/36/36 35/35/35 37/37/37
f 38/38/38 36/36/36 37/37/37
f 38/38/38 37/37/37 39/39/39
f 40/40/40 38/38/38 39/39/39
