g Plane.003
v 0.12321197 0.3333333 0.2747069
v -0 0.99999994 0.2747069
v -0 0.99999994 -0.2747069
v 0.12321197 0.3333333 -0.2747069
v 0.12321197 -0.3333333 0.2747069
v 0.12321197 -0.3333333 -0.2747069
v -0 -0.99999994 0.2747069
v -0 -0.99999994 -0.2747069
vt 0.4711914 0.3642578
vt 0.734375 0.3642578
vt 0.734375 0.21740723
vt 0.4711914 0.21740723
vt 0.21252441 0.3642578
vt 0.21252441 0.21740723
vt -0.050567627 0.3642578
vt -0.050567627 0.21740723
vn 0.99560547 0.09124756 0
vn 0.98339844 0.1817627 0
vn 0.98339844 0.1817627 0
vn 0.99560547 0.09124756 0
vn 0.99560547 -0.09124756 0
vn 0.99560547 -0.09124756 0
vn 0.98339844 -0.1817627 0
vn 0.98339844 -0.1817627 0
g Plane.003_0
f 3/3/3 2/2/2 1/1/1
f 4/4/4 3/3/3 1/1/1
f 4/4/4 1/1/1 5/5/5
f 6/6/6 4/4/4 5/5/5
f 6/6/6 5/5/5 7/7/7
f 8/8/8 6/6/6 7/7/7
