g Plane
v -0.76665115 0.0059016347 0.0031986237
v 0.84832513 -0.009397447 -0.00081694126
v 0.85291266 0.010557234 1.7680762
v -0.7620641 0.025856316 1.7720916
v -0.76665115 0.0059016347 0.0031986237
v -0.7620641 0.025856316 1.7720916
v 0.85291266 0.010557234 1.7680762
v 0.84832513 -0.009397447 -0.00081694126
vt 0.1661377 0.31420898
vt 0.16699219 0.39331055
vt 0.31103516 0.39819336
vt 0.30981445 0.31640625
vt 0.1661377 0.31420898
vt 0.30981445 0.31640625
vt 0.31103516 0.39819336
vt 0.16699219 0.39331055
vn 0.00944519 1 -0.011306763
vn 0.00944519 1 -0.011306763
vn 0.00944519 1 -0.011306763
vn 0.00944519 1 -0.011306763
vn -0.00944519 -1 0.011306763
vn -0.00944519 -1 0.011306763
vn -0.00944519 -1 0.011306763
vn -0.00944519 -1 0.011306763
g Plane_0
f 3/3/3 2/2/2 1/1/1
f 4/4/4 3/3/3 1/1/1
f 7/7/7 6/6/6 5/5/5
f 8/8/8 7/7/7 5/5/5
