g PlayerScaleBlock
v 1.1291885 -1.0013199 -5.9246564
v 1.1291885 -1.0013199 5.932077
v -1.164154 -0.9615364 5.9165435
v -1.1644363 -0.9602699 -5.923652
v 1.1637726 0.9611244 -5.924552
v -1.1298523 1.0021744 -5.9235477
v -1.12957 1.0009079 5.9166484
v 1.1637726 0.9611244 5.932182
v -1.1644363 -0.9602699 -5.923652
v -1.1298523 1.0021744 -5.9235477
v 1.1637726 0.9611244 -5.924552
v 1.1291885 -1.0013199 -5.9246564
v 1.1291885 -1.0013199 5.932077
v 1.1637726 0.9611244 5.932182
v -1.12957 1.0009079 5.9166484
v -1.164154 -0.9615364 5.9165435
v -1.164154 -0.9615364 5.9165435
v -1.12957 1.0009079 5.9166484
v -1.1298523 1.0021744 -5.9235477
v -1.1644363 -0.9602699 -5.923652
v 1.1291885 -1.0013199 -5.9246564
v 1.1637726 0.9611244 -5.924552
v 1.1637726 0.9611244 5.932182
v 1.1291885 -1.0013199 5.932077
vt 0.375 0.75
vt 0.4578125 0.75
vt 0.4578125 0.75
vt 0.375 0.75
vt 0.375 0.75
vt 0.375 0.75
vt 0.4578125 0.75
vt 0.4578125 0.75
vt 0.375 0.75
vt 0.375 0.75
vt 0.375 0.75
vt 0.375 0.75
vt 0.4578125 0.75
vt 0.4578125 0.75
vt 0.4578125 0.75
vt 0.4578125 0.75
vt 0.4578125 0.75
vt 0.4578125 0.75
vt 0.375 0.75
vt 0.375 0.75
vt 0.375 0.75
vt 0.375 0.75
vt 0.4578125 0.75
vt 0.4578125 0.75
vn 0.017619511 0.9998448 5.32305E-05
vn 0.017619511 0.9998448 5.32305E-05
vn 0.017619511 0.9998448 5.32305E-05
vn 0.017619511 0.9998448 5.32305E-05
vn -0.01761951 -0.9998448 -5.3223266E-05
vn -0.01761951 -0.9998448 -5.3223266E-05
vn -0.01761951 -0.9998448 -5.3223266E-05
vn -0.01761951 -0.9998448 -5.3223266E-05
vn 0.00043670606 -6.090954E-05 0.9999999
vn 0.00043670606 -6.090954E-05 0.9999999
vn 0.00043670606 -6.090954E-05 0.9999999
vn 0.00043670606 -6.090954E-05 0.9999999
vn 0.00677203 -6.588757E-05 -0.9999771
vn 0.00677203 -6.588757E-05 -0.9999771
vn 0.00677203 -6.588757E-05 -0.9999771
vn 0.00677203 -6.588757E-05 -0.9999771
vn 0.9998448 -0.017620172 -2.57225E-05
vn 0.9998448 -0.017620172 -2.57225E-05
vn 0.9998448 -0.017620172 -2.57225E-05
vn 0.9998448 -0.017620172 -2.57225E-05
vn -0.9998448 0.017620185 0
vn -0.9998448 0.017620185 0
vn -0.9998448 0.017620185 0
vn -0.9998448 0.017620185 0
g PlayerScaleBlock_0
f 3/3/3 2/2/2 1/1/1
f 4/4/4 3/3/3 1/1/1
f 7/7/7 6/6/6 5/5/5
f 8/8/8 7/7/7 5/5/5
f 11/11/11 10/10/10 9/9/9
f 12/12/12 11/11/11 9/9/9
f 15/15/15 14/14/14 13/13/13
f 16/16/16 15/15/15 13/13/13
f 19/19/19 18/18/18 17/17/17
f 20/20/20 19/19/19 17/17/17
f 23/23/23 22/22/22 21/21/21
f 24/24/24 23/23/23 21/21/21
