g RaisedFloorSupports
v -4.7221837 1.2091961 0.29817116
v -4.6465287 1.1655169 1.035706
v -4.7221837 1.2091961 1.035706
v -4.6465287 1.1655169 0.29817116
v -4.6465287 1.0781583 1.035706
v -4.6465287 1.0781583 0.29817116
v -4.7221837 1.0344789 1.035706
v -4.7221837 1.0344789 0.29817116
v -4.7978387 1.0781583 1.035706
v -4.7978387 1.0781583 0.29817116
v -4.7978387 1.1655169 1.035706
v -4.7978387 1.1655169 0.29817116
v -4.7221837 1.2091961 1.035706
v -4.7221837 1.2091961 0.29817116
v -4.7221837 1.2091961 1.035706
v -4.6465287 1.1655169 1.035706
v -4.6465287 1.0781583 1.035706
v -4.7221837 1.0344789 1.035706
v -4.7978387 1.1655169 1.035706
v -4.7978387 1.0781583 1.035706
v -4.7221837 1.0344789 0.29817116
v -4.6465287 1.0781583 0.29817116
v -4.6465287 1.1655169 0.29817116
v -4.7221837 1.2091961 0.29817116
v -4.7978387 1.0781583 0.29817116
v -4.7978387 1.1655169 0.29817116
v 5.720122 1.2091961 0.29817116
v 5.795777 1.1655169 1.035706
v 5.720122 1.2091961 1.035706
v 5.795777 1.1655169 0.29817116
v 5.795777 1.0781583 1.035706
v 5.795777 1.0781583 0.29817116
v 5.720122 1.0344789 1.035706
v 5.720122 1.0344789 0.29817116
v 5.644467 1.0781583 1.035706
v 5.644467 1.0781583 0.29817116
v 5.644467 1.1655169 1.035706
v 5.644467 1.1655169 0.29817116
v 5.720122 1.2091961 1.035706
v 5.720122 1.2091961 0.29817116
v 5.720122 1.2091961 1.035706
v 5.795777 1.1655169 1.035706
v 5.795777 1.0781583 1.035706
v 5.720122 1.0344789 1.035706
v 5.644467 1.1655169 1.035706
v 5.644467 1.0781583 1.035706
v 5.720122 1.0344789 0.29817116
v 5.795777 1.0781583 0.29817116
v 5.795777 1.1655169 0.29817116
v 5.720122 1.2091961 0.29817116
v 5.644467 1.0781583 0.29817116
v 5.644467 1.1655169 0.29817116
v -4.7221837 15.865794 0.29817116
v -4.6465287 15.822114 1.035706
v -4.7221837 15.865794 1.035706
v -4.6465287 15.822114 0.29817116
v -4.6465287 15.734757 1.035706
v -4.6465287 15.734757 0.29817116
v -4.7221837 15.691077 1.035706
v -4.7221837 15.691077 0.29817116
v -4.7978387 15.734757 1.035706
v -4.7978387 15.734757 0.29817116
v -4.7978387 15.822114 1.035706
v -4.7978387 15.822114 0.29817116
v -4.7221837 15.865794 1.035706
v -4.7221837 15.865794 0.29817116
v -4.7221837 15.865794 1.035706
v -4.6465287 15.822114 1.035706
v -4.6465287 15.734757 1.035706
v -4.7221837 15.691077 1.035706
v -4.7978387 15.822114 1.035706
v -4.7978387 15.734757 1.035706
v -4.7221837 15.691077 0.29817116
v -4.6465287 15.734757 0.29817116
v -4.6465287 15.822114 0.29817116
v -4.7221837 15.865794 0.29817116
v -4.7978387 15.734757 0.29817116
v -4.7978387 15.822114 0.29817116
v 5.720122 15.865794 0.29817116
v 5.795777 15.822114 1.035706
v 5.720122 15.865794 1.035706
v 5.795777 15.822114 0.29817116
v 5.795777 15.734757 1.035706
v 5.795777 15.734757 0.29817116
v 5.720122 15.691077 1.035706
v 5.720122 15.691077 0.29817116
v 5.644467 15.734757 1.035706
v 5.644467 15.734757 0.29817116
v 5.644467 15.822114 1.035706
v 5.644467 15.822114 0.29817116
v 5.720122 15.865794 1.035706
v 5.720122 15.865794 0.29817116
v 5.720122 15.865794 1.035706
v 5.795777 15.822114 1.035706
v 5.795777 15.734757 1.035706
v 5.720122 15.691077 1.035706
v 5.644467 15.822114 1.035706
v 5.644467 15.734757 1.035706
v 5.720122 15.691077 0.29817116
v 5.795777 15.734757 0.29817116
v 5.795777 15.822114 0.29817116
v 5.720122 15.865794 0.29817116
v 5.644467 15.734757 0.29817116
v 5.644467 15.822114 0.29817116
vt 1 0.5
vt 0.8333333 1
vt 1 1
vt 0.8333333 0.5
vt 0.6666666 1
vt 0.6666666 0.5
vt 0.49999994 1
vt 0.49999994 0.5
vt 0.33333325 1
vt 0.33333325 0.5
vt 0.16666658 1
vt 0.16666658 0.5
vt -8.940697E-08 1
vt -8.940697E-08 0.5
vt 0.25 0.48999995
vt 0.4578461 0.36999997
vt 0.4578461 0.13
vt 0.25 0.009999976
vt 0.042153955 0.36999997
vt 0.042153955 0.13
vt 0.75 0.009999976
vt 0.9578461 0.13
vt 0.9578461 0.36999997
vt 0.75 0.48999995
vt 0.54215395 0.13
vt 0.54215395 0.36999997
vt 1 0.5
vt 0.8333333 1
vt 1 1
vt 0.8333333 0.5
vt 0.6666666 1
vt 0.6666666 0.5
vt 0.49999994 1
vt 0.49999994 0.5
vt 0.33333325 1
vt 0.33333325 0.5
vt 0.16666658 1
vt 0.16666658 0.5
vt -8.940697E-08 1
vt -8.940697E-08 0.5
vt 0.25 0.48999995
vt 0.4578461 0.36999997
vt 0.4578461 0.13
vt 0.25 0.009999976
vt 0.042153955 0.36999997
vt 0.042153955 0.13
vt 0.75 0.009999976
vt 0.9578461 0.13
vt 0.9578461 0.36999997
vt 0.75 0.48999995
vt 0.54215395 0.13
vt 0.54215395 0.36999997
vt 1 0.5
vt 0.8333333 1
vt 1 1
vt 0.8333333 0.5
vt 0.6666666 1
vt 0.6666666 0.5
vt 0.49999994 1
vt 0.49999994 0.5
vt 0.33333325 1
vt 0.33333325 0.5
vt 0.16666658 1
vt 0.16666658 0.5
vt -8.940697E-08 1
vt -8.940697E-08 0.5
vt 0.25 0.48999995
vt 0.4578461 0.36999997
vt 0.4578461 0.13
vt 0.25 0.009999976
vt 0.042153955 0.36999997
vt 0.042153955 0.13
vt 0.75 0.009999976
vt 0.9578461 0.13
vt 0.9578461 0.36999997
vt 0.75 0.48999995
vt 0.54215395 0.13
vt 0.54215395 0.36999997
vt 1 0.5
vt 0.8333333 1
vt 1 1
vt 0.8333333 0.5
vt 0.6666666 1
vt 0.6666666 0.5
vt 0.49999994 1
vt 0.49999994 0.5
vt 0.33333325 1
vt 0.33333325 0.5
vt 0.16666658 1
vt 0.16666658 0.5
vt -8.940697E-08 1
vt -8.940697E-08 0.5
vt 0.25 0.48999995
vt 0.4578461 0.36999997
vt 0.4578461 0.13
vt 0.25 0.009999976
vt 0.042153955 0.36999997
vt 0.042153955 0.13
vt 0.75 0.009999976
vt 0.9578461 0.13
vt 0.9578461 0.36999997
vt 0.75 0.48999995
vt 0.54215395 0.13
vt 0.54215395 0.36999997
vn -0 1 0
vn 0.86602473 0.50000113 0
vn -0 1 0
vn 0.86602473 0.50000113 0
vn 0.8660251 -0.50000066 0
vn 0.8660251 -0.50000066 0
vn -0 -1 0
vn -0 -1 0
vn -0.8660255 -0.4999999 0
vn -0.8660255 -0.4999999 0
vn -0.86602527 0.50000036 0
vn -0.86602527 0.50000036 0
vn -0 1 0
vn -0 1 0
vn -0 0 1
vn -0 0 1
vn -0 0 1
vn -0 0 1
vn -0 0 1
vn -0 0 1
vn -0 0 -1
vn -0 0 -1
vn -0 0 -1
vn -0 0 -1
vn -0 0 -1
vn -0 0 -1
vn -0 1 0
vn 0.86602527 0.50000036 0
vn -0 1 0
vn 0.86602527 0.50000036 0
vn 0.8660255 -0.4999999 0
vn 0.8660255 -0.4999999 0
vn -0 -1 0
vn -0 -1 0
vn -0.8660246 -0.50000143 0
vn -0.8660246 -0.50000143 0
vn -0.86602426 0.50000197 0
vn -0.86602426 0.50000197 0
vn -0 1 0
vn -0 1 0
vn -0 0 1
vn -0 0 1
vn -0 0 1
vn -0 0 1
vn -0 0 1
vn -0 0 1
vn -0 0 -1
vn -0 0 -1
vn -0 0 -1
vn -0 0 -1
vn -0 0 -1
vn -0 0 -1
vn -0 1 0
vn 0.8660271 0.49999705 0
vn -0 1 0
vn 0.8660271 0.49999705 0
vn 0.8660271 -0.49999705 0
vn 0.8660271 -0.49999705 0
vn -0 -1 0
vn -0 -1 0
vn -0.8660276 -0.4999963 0
vn -0.8660276 -0.4999963 0
vn -0.8660276 0.4999963 0
vn -0.8660276 0.4999963 0
vn -0 1 0
vn -0 1 0
vn -0 0 1
vn -0 0 1
vn -0 0 1
vn -0 0 1
vn -0 0 1
vn -0 0 1
vn -0 0 -1
vn -0 0 -1
vn -0 0 -1
vn -0 0 -1
vn -0 0 -1
vn -0 0 -1
vn -0 1 0
vn 0.8660276 0.4999963 0
vn -0 1 0
vn 0.8660276 0.4999963 0
vn 0.8660276 -0.4999963 0
vn 0.8660276 -0.4999963 0
vn -0 -1 0
vn -0 -1 0
vn -0.8660267 -0.4999979 0
vn -0.8660267 -0.4999979 0
vn -0.8660267 0.4999979 0
vn -0.8660267 0.4999979 0
vn -0 1 0
vn -0 1 0
vn -0 0 1
vn -0 0 1
vn -0 0 1
vn -0 0 1
vn -0 0 1
vn -0 0 1
vn -0 0 -1
vn -0 0 -1
vn -0 0 -1
vn -0 0 -1
vn -0 0 -1
vn -0 0 -1
g RaisedFloorSupports_0
f 3/3/3 2/2/2 1/1/1
f 2/2/2 4/4/4 1/1/1
f 2/2/2 5/5/5 4/4/4
f 5/5/5 6/6/6 4/4/4
f 5/5/5 7/7/7 6/6/6
f 7/7/7 8/8/8 6/6/6
f 7/7/7 9/9/9 8/8/8
f 9/9/9 10/10/10 8/8/8
f 9/9/9 11/11/11 10/10/10
f 11/11/11 12/12/12 10/10/10
f 11/11/11 13/13/13 12/12/12
f 13/13/13 14/14/14 12/12/12
f 17/17/17 16/16/16 15/15/15
f 15/15/15 18/18/18 17/17/17
f 15/15/15 19/19/19 18/18/18
f 19/19/19 20/20/20 18/18/18
f 23/23/23 22/22/22 21/21/21
f 21/21/21 24/24/24 23/23/23
f 21/21/21 25/25/25 24/24/24
f 25/25/25 26/26/26 24/24/24
f 29/29/29 28/28/28 27/27/27
f 28/28/28 30/30/30 27/27/27
f 28/28/28 31/31/31 30/30/30
f 31/31/31 32/32/32 30/30/30
f 31/31/31 33/33/33 32/32/32
f 33/33/33 34/34/34 32/32/32
f 33/33/33 35/35/35 34/34/34
f 35/35/35 36/36/36 34/34/34
f 35/35/35 37/37/37 36/36/36
f 37/37/37 38/38/38 36/36/36
f 37/37/37 39/39/39 38/38/38
f 39/39/39 40/40/40 38/38/38
f 43/43/43 42/42/42 41/41/41
f 41/41/41 44/44/44 43/43/43
f 41/41/41 45/45/45 44/44/44
f 45/45/45 46/46/46 44/44/44
f 49/49/49 48/48/48 47/47/47
f 47/47/47 50/50/50 49/49/49
f 47/47/47 51/51/51 50/50/50
f 51/51/51 52/52/52 50/50/50
f 55/55/55 54/54/54 53/53/53
f 54/54/54 56/56/56 53/53/53
f 54/54/54 57/57/57 56/56/56
f 57/57/57 58/58/58 56/56/56
f 57/57/57 59/59/59 58/58/58
f 59/59/59 60/60/60 58/58/58
f 59/59/59 61/61/61 60/60/60
f 61/61/61 62/62/62 60/60/60
f 61/61/61 63/63/63 62/62/62
f 63/63/63 64/64/64 62/62/62
f 63/63/63 65/65/65 64/64/64
f 65/65/65 66/66/66 64/64/64
f 69/69/69 68/68/68 67/67/67
f 67/67/67 70/70/70 69/69/69
f 67/67/67 71/71/71 70/70/70
f 71/71/71 72/72/72 70/70/70
f 75/75/75 74/74/74 73/73/73
f 73/73/73 76/76/76 75/75/75
f 73/73/73 77/77/77 76/76/76
f 77/77/77 78/78/78 76/76/76
f 81/81/81 80/80/80 79/79/79
f 80/80/80 82/82/82 79/79/79
f 80/80/80 83/83/83 82/82/82
f 83/83/83 84/84/84 82/82/82
f 83/83/83 85/85/85 84/84/84
f 85/85/85 86/86/86 84/84/84
f 85/85/85 87/87/87 86/86/86
f 87/87/87 88/88/88 86/86/86
f 87/87/87 89/89/89 88/88/88
f 89/89/89 90/90/90 88/88/88
f 89/89/89 91/91/91 90/90/90
f 91/91/91 92/92/92 90/90/90
f 95/95/95 94/94/94 93/93/93
f 93/93/93 96/96/96 95/95/95
f 93/93/93 97/97/97 96/96/96
f 97/97/97 98/98/98 96/96/96
f 101/101/101 100/100/100 99/99/99
f 99/99/99 102/102/102 101/101/101
f 99/99/99 103/103/103 102/102/102
f 103/103/103 104/104/104 102/102/102
