g RecordCrank
v -0 -19.809114 -17.651588
v 1 -19.509224 -17.91042
v 0.7265759 -23.579496 -17.604313
v -1 -23.580286 -17.803833
v -1 -19.509224 -17.91042
v -2.1151025 -43.510853 -18.79832
v 1.7659515E-08 -43.452785 -20.543005
v -1.6443729 -43.46926 -20.047966
v 1.6443729 -43.46926 -20.047966
v 2.1151028 -43.510853 -18.79832
v 1.6443729 -43.55244 -17.548666
v -1.108975 -43.59396 -17.214417
v 2.8754559 -41.85542 -16.555584
v 3.6986046 -41.782692 -18.740807
v 1.1910882 0.9999986 -0.811259
v 1 1 1
v -0 0.99999905 1.3961415
v -1.1910882 0.99999946 0.811259
v -1 1 -1
v -0 0.99999905 -1.3961415
v -0.04961777 -17.629725 -1.5956625
v 0.9615506 -17.845535 -1.3194526
v 1.1910882 0.9999986 -0.811259
v -0 0.99999905 -1.3961415
v -0.97544116 -17.806509 -1.2403625
v -1 1 -1
v -0 -19.809114 0.07904768
v -1 -19.509224 -0.17978263
v -1 -16.974638 1
v -0 -16.974636 1.3961415
v -1.1910882 0.99999946 0.811259
v -0 0.99999905 1.3961415
v 1 -16.974638 1
v 1 -19.509224 -0.17978263
v 1 1 1
v -0 -19.809114 -17.651588
v -1 -19.509224 -17.91042
v -1 -19.509224 -0.17978263
v -0 -19.809114 0.07904768
v 1 -19.509224 -0.17978263
v 1 -19.509224 -17.91042
v -1 -17.995155 -19.217167
v -0.04961777 -17.629725 -1.5956625
v -0.97544116 -17.806509 -1.2403625
v -0 -17.695261 -19.475994
v 1.1984442 -18.177288 -19.04849
v 0.9615506 -17.845535 -1.3194526
v 1.2724912 -23.521244 -18.972935
v 0.7265759 -23.579496 -17.604313
v 1 -19.509224 -17.91042
v 1.1984442 -18.177288 -19.04849
v 1.3036422 -18.598242 -0.50988543
v 1 -19.509224 -0.17978263
v 0.9615506 -17.845535 -1.3194526
v 1 -16.974638 1
v 1.1910882 0.9999986 -0.811259
v 1 1 1
v -0 -23.519682 -19.624794
v -1 -17.995155 -19.217167
v -1.2818372 -23.523258 -18.971733
v -0 -17.695261 -19.475994
v 1.1984442 -18.177288 -19.04849
v 1.2724912 -23.521244 -18.972935
v -1.2818372 -23.523258 -18.971733
v -1 -19.509224 -17.91042
v -1 -23.580286 -17.803833
v -1.286267 -18.752188 -18.563793
v -1 -17.995155 -19.217167
v -0.97544116 -17.806509 -1.2403625
v -1.2780033 -18.61648 -0.51107866
v -1 -19.509224 -0.17978263
v -1 1 -1
v -1 -16.974638 1
v -1.1910882 0.99999946 0.811259
v -2.8754559 -41.70997 -20.926022
v -3.2757037 -24.165049 -20.996586
v -4.21343 -24.247889 -18.5072
v -3.6986046 -41.782692 -18.740807
v -3.2757037 -24.330742 -16.017807
v -2.8754559 -41.85542 -16.555584
v -2.1151025 -43.510853 -18.79832
v -1.6443729 -43.46926 -20.047966
v -1.108975 -43.59396 -17.214417
v 2.8754559 -41.85542 -16.555584
v 1.7133335E-08 -24.363546 -15.031657
v 3.2757037 -24.330742 -16.017807
v 1.5036402E-08 -41.884216 -15.689927
v 1.6443729 -43.55244 -17.548666
v -1.108975 -43.59396 -17.214417
v -2.8754559 -41.85542 -16.555584
v -3.2757037 -24.330742 -16.017807
v 2.1151028 -43.510853 -18.79832
v 2.8754559 -41.70997 -20.926022
v 1.6443729 -43.46926 -20.047966
v 3.6986046 -41.782692 -18.740807
v 4.21343 -24.247889 -18.5072
v 3.2757037 -24.165049 -20.996586
v 3.2757037 -24.330742 -16.017807
v 2.8754559 -41.85542 -16.555584
v -1.6443729 -43.46926 -20.047966
v 1.7659515E-08 -43.452785 -20.543005
v 1.5036402E-08 -41.681156 -21.791676
v -2.8754559 -41.70997 -20.926022
v 1.6443729 -43.46926 -20.047966
v -3.2757037 -24.165049 -20.996586
v 2.8754559 -41.70997 -20.926022
v 1.7133335E-08 -24.132221 -21.982737
v 3.2757037 -24.165049 -20.996586
v 1.7133335E-08 -24.132221 -21.982737
v -0 -23.519682 -19.624794
v -1.2818372 -23.523258 -18.971733
v 1.2724912 -23.521244 -18.972935
v -3.2757037 -24.165049 -20.996586
v -4.21343 -24.247889 -18.5072
v -3.2757037 -24.330742 -16.017807
v -1 -23.580286 -17.803833
v 1.7133335E-08 -24.363546 -15.031657
v 0.7265759 -23.579496 -17.604313
v 3.2757037 -24.330742 -16.017807
v 3.2757037 -24.165049 -20.996586
v 4.21343 -24.247889 -18.5072
vt 0.30615234 0.8979492
vt 0.30517578 0.8979492
vt 0.30541992 0.90234375
vt 0.3071289 0.90234375
vt 0.3071289 0.8979492
vt 0.35717773 0.8989258
vt 0.36010742 0.9008789
vt 0.35888672 0.8989258
vt 0.36010742 0.90283203
vt 0.35864258 0.9042969
vt 0.3569336 0.9038086
vt 0.3557129 0.9008789
vt 0.35620117 0.9057617
vt 0.359375 0.90625
vt 0.30981445 0.9003906
vt 0.30981445 0.8984375
vt 0.30859375 0.8979492
vt 0.30737305 0.8984375
vt 0.30737305 0.9003906
vt 0.3083496 0.9008789
vt 0.3383789 0.8852539
vt 0.33740234 0.8847656
vt 0.33740234 0.90527344
vt 0.3383789 0.90527344
vt 0.3395996 0.8847656
vt 0.3395996 0.90527344
vt 0.33642578 0.8847656
vt 0.33520508 0.8852539
vt 0.33496094 0.8881836
vt 0.3359375 0.8881836
vt 0.33520508 0.90722656
vt 0.33618164 0.90722656
vt 0.3371582 0.8881836
vt 0.33740234 0.8852539
vt 0.33740234 0.90722656
vt 0.3388672 0.8833008
vt 0.33984375 0.8833008
vt 0.33984375 0.8642578
vt 0.3388672 0.86376953
vt 0.33764648 0.8642578
vt 0.33764648 0.8833008
vt 0.33764648 0.8642578
vt 0.33666992 0.8833008
vt 0.33764648 0.88378906
vt 0.33666992 0.86376953
vt 0.33544922 0.8642578
vt 0.33569336 0.8833008
vt 0.3190918 0.86376953
vt 0.3178711 0.8647461
vt 0.32128906 0.8676758
vt 0.32299805 0.86816406
vt 0.3083496 0.88134766
vt 0.30737305 0.8808594
vt 0.3095703 0.88134766
vt 0.3083496 0.88378906
vt 0.32299805 0.8964844
vt 0.32177734 0.8979492
vt 0.30395508 0.9042969
vt 0.30273438 0.8979492
vt 0.30249023 0.9042969
vt 0.30395508 0.8979492
vt 0.30493164 0.8984375
vt 0.30517578 0.9042969
vt 0.30297852 0.8979492
vt 0.30517578 0.89404297
vt 0.30200195 0.89697266
vt 0.30639648 0.8935547
vt 0.30737305 0.8935547
vt 0.29345703 0.8803711
vt 0.29248047 0.8803711
vt 0.2915039 0.8808594
vt 0.30737305 0.8652344
vt 0.29248047 0.8779297
vt 0.3059082 0.86376953
vt 0.39282227 0.88623047
vt 0.39208984 0.9082031
vt 0.39501953 0.9082031
vt 0.39526367 0.88623047
vt 0.39819336 0.9082031
vt 0.39819336 0.8857422
vt 0.39575195 0.88378906
vt 0.3942871 0.88378906
vt 0.39794922 0.88378906
vt 0.38500977 0.88134766
vt 0.38842773 0.8588867
vt 0.38427734 0.859375
vt 0.38891602 0.88134766
vt 0.38623047 0.88378906
vt 0.38989258 0.88378906
vt 0.39208984 0.88134766
vt 0.39233398 0.859375
vt 0.39526367 0.8588867
vt 0.39794922 0.8613281
vt 0.39697266 0.859375
vt 0.39501953 0.8613281
vt 0.39526367 0.8833008
vt 0.39868164 0.88378906
vt 0.39233398 0.88378906
vt 0.39233398 0.8613281
vt 0.3857422 0.9082031
vt 0.38793945 0.9082031
vt 0.38842773 0.90625
vt 0.38452148 0.90625
vt 0.38964844 0.9082031
vt 0.38427734 0.88378906
vt 0.39160156 0.90625
vt 0.38842773 0.88378906
vt 0.39208984 0.88378906
vt 0.3557129 0.90527344
vt 0.3527832 0.9042969
vt 0.3515625 0.9057617
vt 0.35253906 0.90283203
vt 0.35327148 0.9091797
vt 0.34985352 0.9091797
vt 0.34716797 0.90722656
vt 0.35009766 0.90527344
vt 0.34716797 0.90283203
vt 0.35058594 0.90283203
vt 0.34960938 0.8989258
vt 0.3557129 0.9008789
vt 0.35302734 0.8989258
vn 0.014808655 0.028579712 0.9995117
vn 0.23400879 0.057281494 0.9707031
vn -0.10223389 0.0127334595 0.9946289
vn -0.16540527 0.004032135 0.9863281
vn -0.16540527 0.004032135 0.9863281
vn -0.47680664 -0.87890625 -0.0076828003
vn -0 -0.84472656 -0.53564453
vn -0.32714844 -0.8510742 -0.41064453
vn 0.32714844 -0.8510742 -0.41064453
vn 0.47485352 -0.87939453 -0.031829834
vn 0.3083496 -0.8803711 0.35986328
vn -0.2006836 -0.87890625 0.43237305
vn 0.6386719 -0.3684082 0.67578125
vn 0.93652344 -0.35107422 -0.009101868
vn -0 1 0
vn -0 1 0
vn -0 1 0
vn -0 1 0
vn -0 1 0
vn -0 1 0
vn 0.0030612946 0.013999939 -1
vn 0.8520508 0.37719727 -0.36279297
vn 0.8671875 0.011871338 -0.49780273
vn 0.001244545 0.01398468 -1
vn -0.3642578 0.011184692 -0.93115234
vn -0.3642578 0.011184692 -0.93115234
vn -0 -0.42163086 0.9067383
vn -0.66259766 -0.6435547 0.38330078
vn -0.73583984 -0.14331055 0.6621094
vn -0.011680603 -0.20617676 0.9785156
vn -0.8847656 0.0069885254 0.46557617
vn -0.021896362 0.0014219284 1
vn 0.7402344 -0.14160156 0.65771484
vn 0.77441406 -0.33422852 0.5371094
vn 0.3684082 0 0.9296875
vn -0 -1 0
vn -0.9135742 -0.3840332 0.13476562
vn -0.66259766 -0.6435547 0.38330078
vn -0 -1 0
vn 0.28735352 -0.9580078 0
vn 0.28735352 -0.9580078 0
vn -0.6689453 0.53125 -0.51953125
vn 0.023864746 0.9995117 -0.007904053
vn -0.91796875 0.3864746 -0.08868408
vn 0.023971558 0.9995117 -0.007904053
vn 0.7939453 0.6044922 0.06665039
vn 0.8520508 0.37719727 -0.36279297
vn 0.95996094 -0.008972168 0.2800293
vn 0.95996094 -0.008972168 0.2800293
vn 0.98291016 -0.11187744 0.14672852
vn 0.7939453 0.6044922 0.06665039
vn 0.99365234 -0.0736084 0.084106445
vn 0.77441406 -0.33422852 0.5371094
vn 0.8520508 0.37719727 -0.36279297
vn 0.7402344 -0.14160156 0.65771484
vn 0.8671875 0.011871338 -0.49780273
vn 0.9892578 0.004131317 0.14538574
vn 0.016326904 0.0054092407 -1
vn -0.6689453 0.53125 -0.51953125
vn -0.90771484 -0.004135132 -0.41967773
vn 0.003610611 0.0052871704 -1
vn 0.40161133 0.008666992 -0.91552734
vn 0.40161133 0.008666992 -0.91552734
vn -0.90771484 -0.004135132 -0.41967773
vn -0.9135742 -0.3840332 0.13476562
vn -0.9560547 -0.010482788 0.29345703
vn -0.9902344 0.093688965 -0.10333252
vn -0.6689453 0.53125 -0.51953125
vn -0.91796875 0.3864746 -0.08868408
vn -0.98876953 -0.10357666 0.109069824
vn -0.66259766 -0.6435547 0.38330078
vn -0.9819336 0.009239197 -0.18786621
vn -0.73583984 -0.14331055 0.6621094
vn -0.8847656 0.0069885254 0.46557617
vn -0.6484375 -0.32226562 -0.6894531
vn -0.68066406 -0.018463135 -0.7324219
vn -0.9995117 -0.029281616 -0.005405426
vn -0.9316406 -0.36376953 0.002380371
vn -0.68652344 -0.037963867 0.7260742
vn -0.65283203 -0.35375977 0.6699219
vn -0.47680664 -0.87890625 -0.0076828003
vn -0.32714844 -0.8510742 -0.41064453
vn -0.2006836 -0.87890625 0.43237305
vn 0.6386719 -0.3684082 0.67578125
vn -0 -0.03753662 0.9995117
vn 0.68652344 -0.037963867 0.7260742
vn 0.01260376 -0.33813477 0.94091797
vn 0.3083496 -0.8803711 0.35986328
vn -0.2006836 -0.87890625 0.43237305
vn -0.65283203 -0.35375977 0.6699219
vn -0.68652344 -0.037963867 0.7260742
vn 0.47485352 -0.87939453 -0.031829834
vn 0.6484375 -0.32226562 -0.6894531
vn 0.32714844 -0.8510742 -0.41064453
vn 0.93652344 -0.35107422 -0.009101868
vn 0.9995117 -0.029281616 -0.005405426
vn 0.68066406 -0.018463135 -0.7324219
vn 0.68652344 -0.037963867 0.7260742
vn 0.6386719 -0.3684082 0.67578125
vn -0.32714844 -0.8510742 -0.41064453
vn -0 -0.84472656 -0.53564453
vn -0 -0.29101562 -0.95654297
vn -0.6484375 -0.32226562 -0.6894531
vn 0.32714844 -0.8510742 -0.41064453
vn -0.68066406 -0.018463135 -0.7324219
vn 0.6484375 -0.32226562 -0.6894531
vn -0 -0.010887146 -1
vn 0.68066406 -0.018463135 -0.7324219
vn -8.481741E-05 0.9716797 -0.23620605
vn -2.7239323E-05 0.9716797 -0.23620605
vn -0.17663574 0.9814453 -0.07159424
vn 0.17456055 0.9824219 -0.06347656
vn -0.17370605 0.9736328 -0.14685059
vn -0.23657227 0.9707031 0.036895752
vn -0.15576172 0.96875 0.19238281
vn -0.13916016 0.96777344 0.21081543
vn -0.004425049 0.9536133 0.3010254
vn 0.09051514 0.96875 0.23144531
vn 0.1661377 0.9663086 0.19555664
vn 0.17382812 0.9736328 -0.14685059
vn 0.23144531 0.97216797 0.04055786
g RecordCrank_0
f 3/3/3 2/2/2 1/1/1
f 3/3/3 1/1/1 4/4/4
f 1/1/1 5/5/5 4/4/4
f 8/8/8 7/7/7 6/6/6
f 7/7/7 9/9/9 6/6/6
f 9/9/9 10/10/10 6/6/6
f 10/10/10 11/11/11 6/6/6
f 11/11/11 12/12/12 6/6/6
f 13/13/13 11/11/11 10/10/10
f 14/14/14 13/13/13 10/10/10
f 17/17/17 16/16/16 15/15/15
f 17/17/17 15/15/15 18/18/18
f 19/19/19 18/18/18 15/15/15
f 20/20/20 19/19/19 15/15/15
f 23/23/23 22/22/22 21/21/21
f 24/24/24 23/23/23 21/21/21
f 24/24/24 21/21/21 25/25/25
f 26/26/26 24/24/24 25/25/25
f 29/29/29 28/28/28 27/27/27
f 30/30/30 29/29/29 27/27/27
f 31/31/31 29/29/29 30/30/30
f 32/32/32 31/31/31 30/30/30
f 33/33/33 30/30/30 27/27/27
f 32/32/32 30/30/30 33/33/33
f 34/34/34 33/33/33 27/27/27
f 35/35/35 32/32/32 33/33/33
f 38/38/38 37/37/37 36/36/36
f 39/39/39 38/38/38 36/36/36
f 40/40/40 39/39/39 36/36/36
f 41/41/41 40/40/40 36/36/36
f 44/44/44 43/43/43 42/42/42
f 43/43/43 45/45/45 42/42/42
f 45/45/45 43/43/43 46/46/46
f 43/43/43 47/47/47 46/46/46
f 50/50/50 49/49/49 48/48/48
f 51/51/51 50/50/50 48/48/48
f 51/51/51 52/52/52 50/50/50
f 52/52/52 53/53/53 50/50/50
f 52/52/52 51/51/51 54/54/54
f 55/55/55 53/53/53 52/52/52
f 52/52/52 54/54/54 56/56/56
f 57/57/57 55/55/55 52/52/52
f 56/56/56 57/57/57 52/52/52
f 60/60/60 59/59/59 58/58/58
f 59/59/59 61/61/61 58/58/58
f 61/61/61 62/62/62 58/58/58
f 62/62/62 63/63/63 58/58/58
f 66/66/66 65/65/65 64/64/64
f 65/65/65 67/67/67 64/64/64
f 68/68/68 64/64/64 67/67/67
f 69/69/69 68/68/68 67/67/67
f 70/70/70 67/67/67 65/65/65
f 70/70/70 69/69/69 67/67/67
f 71/71/71 70/70/70 65/65/65
f 69/69/69 70/70/70 72/72/72
f 71/71/71 73/73/73 70/70/70
f 70/70/70 74/74/74 72/72/72
f 74/74/74 70/70/70 73/73/73
f 77/77/77 76/76/76 75/75/75
f 78/78/78 77/77/77 75/75/75
f 79/79/79 77/77/77 78/78/78
f 80/80/80 79/79/79 78/78/78
f 78/78/78 75/75/75 81/81/81
f 80/80/80 78/78/78 81/81/81
f 75/75/75 82/82/82 81/81/81
f 83/83/83 80/80/80 81/81/81
f 86/86/86 85/85/85 84/84/84
f 85/85/85 87/87/87 84/84/84
f 84/84/84 87/87/87 88/88/88
f 87/87/87 89/89/89 88/88/88
f 90/90/90 89/89/89 87/87/87
f 87/87/87 85/85/85 90/90/90
f 85/85/85 91/91/91 90/90/90
f 94/94/94 93/93/93 92/92/92
f 93/93/93 95/95/95 92/92/92
f 96/96/96 95/95/95 93/93/93
f 97/97/97 96/96/96 93/93/93
f 96/96/96 98/98/98 95/95/95
f 98/98/98 99/99/99 95/95/95
f 102/102/102 101/101/101 100/100/100
f 103/103/103 102/102/102 100/100/100
f 101/101/101 102/102/102 104/104/104
f 103/103/103 105/105/105 102/102/102
f 102/102/102 106/106/106 104/104/104
f 105/105/105 107/107/107 102/102/102
f 108/108/108 106/106/106 102/102/102
f 107/107/107 108/108/108 102/102/102
f 111/111/111 110/110/110 109/109/109
f 110/110/110 112/112/112 109/109/109
f 113/113/113 111/111/111 109/109/109
f 113/113/113 114/114/114 111/111/111
f 111/111/111 114/114/114 115/115/115
f 116/116/116 111/111/111 115/115/115
f 116/116/116 115/115/115 117/117/117
f 118/118/118 116/116/116 117/117/117
f 117/117/117 119/119/119 118/118/118
f 112/112/112 118/118/118 119/119/119
f 112/112/112 120/120/120 109/109/109
f 121/121/121 112/112/112 119/119/119
f 121/121/121 120/120/120 112/112/112
