g RobotRightArm
v -0.32532915 -0.19375062 0.038541675
v -0.2112565 -0.19360375 0.25645995
v -0.28976253 -0.19362545 0.15919185
v -0.10058649 -0.19364214 0.31647408
v 0.14459664 -0.19367337 0.29276776
v 0.024331722 -0.19331169 0.3292011
v 0.24126217 -0.1937809 0.21316743
v 0.31704906 -0.19097519 -0.035721898
v 0.30540287 -0.19676423 0.081683636
v -0.06690146 0.0022989511 -0.29310244
v -0.22002777 -0.025276065 -0.17247999
v -0.071576156 -0.1925509 -0.29843175
v -0.071576156 -0.1925509 -0.29843175
v -0.22002777 -0.025276065 -0.17247999
v -0.17823243 -0.13536334 -0.26122582
v -0.3032879 -0.19535792 -0.112130344
v -0.26806375 -0.16879451 -0.20347303
v -0.17823243 -0.13536334 -0.26122582
v -0.26806375 -0.16879451 -0.20347303
v -0.071576156 -0.1925509 -0.29843175
v -0.17823243 -0.13536334 -0.26122582
v -0.26806375 -0.16879451 -0.20347303
v -0.3032879 -0.19535792 -0.112130344
v -0.071576156 -0.1925509 -0.29843175
v 0.047024228 -0.017882705 0.16537929
v 0.21436423 0.16460359 0.16665506
v 0.19630277 0.0022552013 0.2534964
v 0.24126217 -0.1937809 0.21316743
v 0.19630277 0.0022552013 0.2534964
v 0.31189623 0.0023977757 0.021956563
v 0.31704906 -0.19097519 -0.035721898
v -0.2112565 -0.19360375 0.25645995
v -0.28400975 0.0022583008 0.1589874
v -0.0654586 0.0024373531 0.32826412
v -0.10058649 -0.19364214 0.31647408
v -0.20987266 -0.32633567 0.2514007
v 0.021428857 -0.32633936 0.32471156
v 0.024331722 -0.19331169 0.3292011
v 0.14459664 -0.19367337 0.29276776
v 0.19630277 0.0022552013 0.2534964
v 0.23589984 -0.32633507 0.21215045
v 0.24126217 -0.1937809 0.21316743
v 0.24126217 -0.1937809 0.21316743
v 0.30540287 -0.19676423 0.081683636
v 0.23589984 -0.32633507 0.21215045
v 0.3065806 -0.32649565 -0.009242296
v 0.31704906 -0.19097519 -0.035721898
v 0.24964213 -0.3262694 -0.16033399
v 0.25891975 -0.13729835 -0.16840714
v 0.31189623 0.0023977757 0.021956563
v 0.24366575 -0.008812904 -0.20020872
v -0.28976253 -0.19362545 0.15919185
v -0.2112565 -0.19360375 0.25645995
v -0.20987266 -0.32633567 0.2514007
v -0.32554767 -0.3263831 -0.0007456541
v -0.32532915 -0.19375062 0.038541675
v -0.3032879 -0.19535792 -0.112130344
v -0.20102105 -0.326324 -0.23647779
v -0.31322384 0.0023611784 -0.06299412
v -0.28400975 0.0022583008 0.1589874
v -0.2112565 -0.19360375 0.25645995
v 0.041992903 0.16359305 -0.17324388
v -0.22002777 0.16359305 -0.17324388
v -0.22002777 -0.025276065 -0.17247999
v 0.22213146 0.16359305 -0.17324388
v 0.24366575 -0.008812904 -0.20020872
v 0.5626092 -0.3062396 -1.0419303
v 0.60670304 -0.31357324 -0.79037666
v 0.6085428 -0.20141566 -0.805959
v 0.5746683 -0.14100742 -0.98533493
v 0.6054917 -0.16482306 -1.086928
v 0.5645488 -0.021091223 -1.0431702
v 0.6090197 -0.017565608 -0.7914777
v 0.52238375 -0.1930579 -0.57644314
v 0.5110694 0.00072455406 -0.571722
v 0.60670304 -0.31357324 -0.79037666
v 0.25891975 -0.13729835 -0.16840714
v 0.24366575 -0.008812904 -0.20020872
v 0.24964213 -0.3262694 -0.16033399
v 0.08049484 -0.021764398 -1.2782246
v 0.1904603 -0.020977259 -1.1580205
v 0.18636057 -0.16814232 -1.1689146
v 0.19095111 -0.30627775 -1.156173
v 0.08434958 -0.30692077 -1.2730734
v 0.07264558 -0.16838145 -1.31736
v 0.17898604 -0.022475362 -1.4943106
v 0.20018455 -0.30847895 -1.5085526
v 0.22641873 -0.14443016 -1.5289257
v 0.12916622 -0.19031549 -1.4366984
v 0.08434958 -0.30692077 -1.2730734
v 0.07264558 -0.16838145 -1.31736
v 0.08049484 -0.021764398 -1.2782246
v 0.72204024 -0.30843592 -1.4044967
v 0.4959721 -0.30850708 -1.5234437
v 0.20018455 -0.30847895 -1.5085526
v 0.08434958 -0.30692077 -1.2730734
v 0.7265379 -0.30700195 -1.1416601
v 0.19095111 -0.30627775 -1.156173
v 0.16686752 -0.30643594 -1.0525534
v 0.5626092 -0.3062396 -1.0419303
v 0.018753523 -0.30864394 -0.9028609
v 0.60670304 -0.31357324 -0.79037666
v 0.013857628 -0.32834387 -0.7125871
v 0.24964213 -0.3262694 -0.16033399
v -0.06654336 -0.32630754 -0.29130197
v -0.20102105 -0.326324 -0.23647779
v -0.32554767 -0.3263831 -0.0007456541
v 0.3065806 -0.32649565 -0.009242296
v 0.23589984 -0.32633507 0.21215045
v -0.20987266 -0.32633567 0.2514007
v 0.021428857 -0.32633936 0.32471156
v 0.7476533 -0.022058964 -1.2871667
v 0.70145243 -0.022660136 -1.4346166
v 0.6991202 -0.19946635 -1.433692
v 0.77963394 -0.16879237 -1.1732526
v 0.7230924 -0.021538973 -1.1390496
v 0.74470097 -0.19883275 -1.2863648
v 0.7265379 -0.30700195 -1.1416601
v 0.72204024 -0.30843592 -1.4044967
v 0.19630277 0.0022552013 0.2534964
v 0.24366575 -0.008812904 -0.20020872
v -0.22002777 -0.025276065 -0.17247999
v 0.047024228 -0.017882705 0.16537929
v -0.21963227 0.16472113 0.15885389
v 0.21436423 0.16460359 0.16665506
v 0.047024228 -0.017882705 0.16537929
v -0.28400975 0.0022583008 0.1589874
v -0.21963227 0.16472113 0.15885389
v -0.28400975 0.0022583008 0.1589874
v -0.22002777 -0.025276065 -0.17247999
v -0.22002777 0.16359305 -0.17324388
v 0.22213146 0.16359305 -0.17324388
v 0.24366575 -0.008812904 -0.20020872
v 0.19630277 0.0022552013 0.2534964
v 0.21436423 0.16460359 0.16665506
v -0.22002777 -0.025276065 -0.17247999
v -0.31322384 0.0023611784 -0.06299412
v -0.3032879 -0.19535792 -0.112130344
v -0.17823243 -0.13536334 -0.26122582
v -0.06690146 0.0022989511 -0.29310244
v 0.08657044 -0.19671798 -0.66706026
v 0.013550514 0.00026619434 -0.7142974
v -0.071576156 -0.1925509 -0.29843175
v -0.06654336 -0.32630754 -0.29130197
v 0.013857628 -0.32834387 -0.7125871
v -0.071576156 -0.1925509 -0.29843175
v -0.20102105 -0.326324 -0.23647779
v -0.06654336 -0.32630754 -0.29130197
v -0.3032879 -0.19535792 -0.112130344
v 0.08657044 -0.19671798 -0.66706026
v 0.013857628 -0.32834387 -0.7125871
v 0.006917741 -0.17368686 -0.73709875
v 0.013550514 0.00026619434 -0.7142974
v 0.006917741 -0.17368686 -0.73709875
v 0.013857628 -0.32834387 -0.7125871
v 0.018753523 -0.30864394 -0.9028609
v -5.839765E-05 -0.17046762 -0.85357505
v 0.019279854 -0.018654585 -0.90865546
v 0.013550514 0.00026619434 -0.7142974
v 0.050984304 -0.18897986 -0.9722923
v 0.16656223 -0.020190716 -1.0542493
v 0.16686752 -0.30643594 -1.0525534
v 0.18636057 -0.16814232 -1.1689146
v 0.1904603 -0.020977259 -1.1580205
v 0.19095111 -0.30627775 -1.156173
v 0.46122253 -0.022478938 -1.530741
v 0.17898604 -0.022475362 -1.4943106
v 0.22641873 -0.14443016 -1.5289257
v 0.35211363 -0.14410794 -1.542395
v 0.20018455 -0.30847895 -1.5085526
v 0.4959721 -0.30850708 -1.5234437
v 0.5371445 -0.14385247 -1.5204341
v 0.70145243 -0.022660136 -1.4346166
v 0.6991202 -0.19946635 -1.433692
v 0.72204024 -0.30843592 -1.4044967
v 0.6054917 -0.16482306 -1.086928
v 0.5645488 -0.021091223 -1.0431702
v 0.7230924 -0.021538973 -1.1390496
v 0.77963394 -0.16879237 -1.1732526
v 0.7265379 -0.30700195 -1.1416601
v 0.5626092 -0.3062396 -1.0419303
v 0.17898604 -0.022475362 -1.4943106
v 0.46122253 -0.022478938 -1.530741
v 0.70145243 -0.022660136 -1.4346166
v 0.08049484 -0.021764398 -1.2782246
v 0.7476533 -0.022058964 -1.2871667
v 0.7230924 -0.021538973 -1.1390496
v 0.1904603 -0.020977259 -1.1580205
v 0.16656223 -0.020190716 -1.0542493
v 0.5645488 -0.021091223 -1.0431702
v 0.019279854 -0.018654585 -0.90865546
v 0.6090197 -0.017565608 -0.7914777
v 0.013550514 0.00026619434 -0.7142974
v 0.5110694 0.00072455406 -0.571722
v -0.06690146 0.0022989511 -0.29310244
v 0.24366575 -0.008812904 -0.20020872
v -0.22002777 -0.025276065 -0.17247999
v 0.31189623 0.0023977757 0.021956563
v -0.31322384 0.0023611784 -0.06299412
v -0.28400975 0.0022583008 0.1589874
v 0.19630277 0.0022552013 0.2534964
v -0.0654586 0.0024373531 0.32826412
vt 0.9819336 0.12133789
vt 0.9819336 0.092041016
vt 0.9790039 0.10662842
vt 0.9819336 0.07879639
vt 0.9819336 0.049468994
vt 0.9790039 0.06414795
vt 0.98046875 0.41479492
vt 0.98046875 0.38378906
vt 0.97753906 0.39770508
vt 0.7890625 0.9663086
vt 0.77197266 0.96972656
vt 0.7890625 0.9892578
vt 0.7890625 0.9892578
vt 0.77197266 0.96972656
vt 0.7763672 0.98291016
vt 0.5488281 0.9550781
vt 0.5449219 0.9663086
vt 0.5488281 0.97802734
vt 0.76660156 0.9873047
vt 0.7890625 0.9892578
vt 0.7763672 0.98291016
vt 0.30932617 0.9707031
vt 0.31518555 0.98095703
vt 0.31518555 0.9453125
vt 0.5629883 0.8623047
vt 0.58447266 0.84228516
vt 0.5644531 0.84472656
vt 0.94140625 0.4663086
vt 0.96435547 0.47143555
vt 0.96435547 0.44311523
vt 0.94140625 0.4362793
vt 0.1508789 0.9692383
vt 0.17504883 0.9785156
vt 0.17370605 0.95214844
vt 0.1505127 0.9560547
vt 0.1352539 0.96875
vt 0.1348877 0.94091797
vt 0.15063477 0.94091797
vt 0.15124512 0.9267578
vt 0.17504883 0.92089844
vt 0.13659668 0.91552734
vt 0.15234375 0.91552734
vt 0.94140625 0.4663086
vt 0.94091797 0.45043945
vt 0.92529297 0.4663086
vt 0.92529297 0.43945312
vt 0.94140625 0.4362793
vt 0.92529297 0.421875
vt 0.9477539 0.42089844
vt 0.96435547 0.44311523
vt 0.9633789 0.41723633
vt 0.67578125 0.2446289
vt 0.67578125 0.23352051
vt 0.65966797 0.23413086
vt 0.65966797 0.26342773
vt 0.67578125 0.25878906
vt 0.67529297 0.27685547
vt 0.65966797 0.29223633
vt 0.69921875 0.2709961
vt 0.69921875 0.24475098
vt 0.67578125 0.23352051
vt 0.47387695 0.8720703
vt 0.47387695 0.9033203
vt 0.4963379 0.9033203
vt 0.47387695 0.85058594
vt 0.49438477 0.84814453
vt 0.9277344 0.3149414
vt 0.9267578 0.34472656
vt 0.9404297 0.34277344
vt 0.9472656 0.3215332
vt 0.94433594 0.30932617
vt 0.96191406 0.31469727
vt 0.96191406 0.34448242
vt 0.94140625 0.37060547
vt 0.96435547 0.3713379
vt 0.9267578 0.34472656
vt 0.9477539 0.42089844
vt 0.9633789 0.41723633
vt 0.92529297 0.421875
vt 0.42358398 0.87890625
vt 0.42358398 0.8925781
vt 0.4411621 0.89160156
vt 0.45776367 0.8925781
vt 0.45776367 0.87939453
vt 0.4411621 0.8745117
vt 0.42358398 0.85253906
vt 0.45776367 0.85058594
vt 0.43823242 0.84814453
vt 0.44360352 0.8598633
vt 0.45776367 0.87939453
vt 0.4411621 0.8745117
vt 0.42358398 0.87890625
vt 0.66503906 0.6171875
vt 0.6347656 0.6123047
vt 0.6020508 0.6254883
vt 0.59814453 0.6567383
vt 0.67578125 0.6464844
vt 0.6147461 0.66552734
vt 0.61572266 0.67822266
vt 0.6611328 0.6640625
vt 0.60498047 0.7006836
vt 0.67578125 0.69091797
vt 0.6118164 0.72265625
vt 0.65966797 0.7758789
vt 0.61865234 0.7729492
vt 0.60595703 0.78466797
vt 0.6010742 0.81591797
vt 0.671875 0.79052734
vt 0.6723633 0.8183594
vt 0.62353516 0.83984375
vt 0.65234375 0.83935547
vt 0.79345703 0.27392578
vt 0.79345703 0.2565918
vt 0.77246094 0.2565918
vt 0.7758789 0.28710938
vt 0.79345703 0.29174805
vt 0.77246094 0.27392578
vt 0.7597656 0.29125977
vt 0.7597656 0.26000977
vt 0.4765625 0.29370117
vt 0.5307617 0.29370117
vt 0.52197266 0.2388916
vt 0.48510742 0.2746582
vt 0.58447266 0.89404297
vt 0.58447266 0.84228516
vt 0.5629883 0.8623047
vt 0.5654297 0.90185547
vt 0.11956787 0.78808594
vt 0.10021973 0.78759766
vt 0.09710693 0.8276367
vt 0.119628906 0.8276367
vt 0.38549805 0.9394531
vt 0.40600586 0.9433594
vt 0.40600586 0.88916016
vt 0.38623047 0.8989258
vt 0.6958008 0.28466797
vt 0.69921875 0.2709961
vt 0.67529297 0.27685547
vt 0.6826172 0.29541016
vt 0.92529297 0.53515625
vt 0.94873047 0.4897461
vt 0.92529297 0.48461914
vt 0.94873047 0.53466797
vt 0.96435547 0.53515625
vt 0.96435547 0.48461914
vt 0.7036133 0.9848633
vt 0.6879883 0.96972656
vt 0.6875 0.98535156
vt 0.7036133 0.9584961
vt 0.68896484 0.81396484
vt 0.6982422 0.8286133
vt 0.6982422 0.8100586
vt 0.69628906 0.7895508
vt 0.44213867 0.94384766
vt 0.46069336 0.94677734
vt 0.45825195 0.9238281
vt 0.4416504 0.9301758
vt 0.42358398 0.92333984
vt 0.42138672 0.94677734
vt 0.44384766 0.91552734
vt 0.42358398 0.90527344
vt 0.45776367 0.90527344
vt 0.4411621 0.89160156
vt 0.42358398 0.8925781
vt 0.45776367 0.8925781
vt 0.22241211 0.94873047
vt 0.22241211 0.91552734
vt 0.20788574 0.92089844
vt 0.20788574 0.9355469
vt 0.18823242 0.91748047
vt 0.18823242 0.9526367
vt 0.20788574 0.95751953
vt 0.22241211 0.97802734
vt 0.20129395 0.97753906
vt 0.18835449 0.98046875
vt 0.7871094 0.9355469
vt 0.7919922 0.9189453
vt 0.7734375 0.91796875
vt 0.76660156 0.9350586
vt 0.77246094 0.95166016
vt 0.7919922 0.953125
vt 0.73291016 0.22216797
vt 0.7636719 0.2368164
vt 0.7944336 0.23486328
vt 0.72998047 0.1940918
vt 0.8051758 0.2199707
vt 0.8076172 0.20227051
vt 0.74658203 0.18457031
vt 0.7480469 0.171875
vt 0.79345703 0.1854248
vt 0.7368164 0.14990234
vt 0.8076172 0.15856934
vt 0.74316406 0.12768555
vt 0.8046875 0.13000488
vt 0.7495117 0.07696533
vt 0.7885742 0.07800293
vt 0.7368164 0.05758667
vt 0.8041992 0.055358887
vt 0.73046875 0.04171753
vt 0.7421875 0.017654419
vt 0.7998047 0.024810791
vt 0.7729492 0.0065994263
vn 0.0015897751 1 -0.0015058517
vn 0.0015897751 1 -0.0015058517
vn 0.0015897751 1 -0.0015058517
vn -0.0012226105 1 -0.013961792
vn -0.0012226105 1 -0.013961792
vn -0.0012226105 1 -0.013961792
vn 0.1817627 0.98095703 0.06640625
vn 0.1817627 0.98095703 0.06640625
vn 0.1817627 0.98095703 0.06640625
vn -0.8300781 -0.087890625 -0.55078125
vn -0.6225586 0.036315918 -0.7817383
vn -0.9116211 0.041625977 -0.40893555
vn 0.079711914 0.6435547 -0.76123047
vn 0.079711914 0.6435547 -0.76123047
vn 0.079711914 0.6435547 -0.76123047
vn -0.23486328 0.95410156 0.18676758
vn -0.23486328 0.95410156 0.18676758
vn -0.23486328 0.95410156 0.18676758
vn -0.44506836 -0.2758789 -0.8520508
vn -0.44506836 -0.2758789 -0.8520508
vn -0.44506836 -0.2758789 -0.8520508
vn -0.28466797 -0.8857422 -0.3671875
vn -0.28466797 -0.8857422 -0.3671875
vn -0.28466797 -0.8857422 -0.3671875
vn -0.49804688 0.45141602 0.7402344
vn -0.49804688 0.45141602 0.7402344
vn -0.49804688 0.45141602 0.7402344
vn 0.8076172 -0.0074501038 0.58984375
vn 0.63720703 0.096069336 0.76464844
vn 0.93408203 0.01108551 0.3564453
vn 0.9550781 -0.06109619 0.29003906
vn -0.6611328 0.009529114 0.75
vn -0.8886719 0.045043945 0.45629883
vn -0.16687012 0.055847168 0.984375
vn -0.26416016 -0.071899414 0.96191406
vn -0.6479492 -0.13696289 0.74902344
vn 0.08758545 -0.13574219 0.9868164
vn 0.09832764 -0.035705566 0.9946289
vn 0.42944336 -0.05105591 0.90185547
vn 0.63720703 0.096069336 0.76464844
vn 0.76416016 -0.124938965 0.6328125
vn 0.8076172 -0.0074501038 0.58984375
vn 0.8076172 -0.0074501038 0.58984375
vn 0.9555664 -0.118774414 0.26953125
vn 0.76416016 -0.124938965 0.6328125
vn 0.9902344 -0.12548828 -0.05899048
vn 0.96728516 -0.018203735 -0.2536621
vn 0.91552734 -0.097229004 -0.38989258
vn 0.9375 0.01777649 -0.34716797
vn 0.9404297 0.08959961 -0.32763672
vn 0.95458984 0.040252686 -0.29516602
vn -0.8823242 -0.15612793 0.44360352
vn -0.6611328 0.009529114 0.75
vn -0.6479492 -0.13696289 0.74902344
vn -0.99072266 -0.13244629 -0.030563354
vn -0.9902344 -0.007205963 0.13842773
vn -0.94628906 -0.015579224 -0.3232422
vn -0.64160156 0.06100464 -0.76464844
vn -0.9970703 0.0713501 0.01890564
vn -0.8886719 0.045043945 0.45629883
vn -0.6611328 0.009529114 0.75
vn -0.03643799 0.08123779 -0.99609375
vn -0 -0.004043579 -1
vn -0.017501831 0.03692627 -0.99902344
vn -0.045410156 0.10229492 -0.99365234
vn -0.045410156 0.10229492 -0.99365234
vn 0.9975586 -0.06890869 -0.0068359375
vn 0.9838867 -0.007972717 -0.1796875
vn 0.9902344 -0.03237915 0.13574219
vn 0.99853516 0.013916016 0.055389404
vn 0.9550781 -0.023757935 0.29541016
vn 0.9970703 0.076293945 -0.0107803345
vn 0.9921875 0.0002425909 0.12536621
vn 0.8769531 -0.026733398 0.4794922
vn 0.8779297 0.064086914 0.4741211
vn 0.8623047 -0.113708496 0.49316406
vn 0.8491211 0.0013418198 0.52783203
vn 0.82421875 0.11456299 0.5546875
vn 0.8623047 -0.113708496 0.49316406
vn -0.77978516 0.00091171265 0.62597656
vn -0.72802734 0.0027236938 0.6855469
vn -0.72802734 0.0027236938 0.6855469
vn -0.72802734 0.0027236938 0.6855469
vn -0.7807617 0.00088214874 0.625
vn -0.97314453 -0.009017944 0.2290039
vn -0.82177734 0.07519531 -0.5649414
vn -0.80078125 -0.12963867 -0.58447266
vn -0.6845703 -0.014434814 -0.7290039
vn -0.84472656 -0.057495117 -0.53222656
vn -0.87939453 -0.23925781 -0.41137695
vn -0.9042969 -0.03515625 -0.42529297
vn -0.8955078 0.13928223 -0.4230957
vn 0.0045661926 -1 -0.008529663
vn 0.0045661926 -1 -0.008529663
vn 0.0045661926 -1 -0.008529663
vn 0.0045661926 -1 -0.008529663
vn 0.0045661926 -1 -0.008529663
vn 0.0045661926 -1 -0.008529663
vn 0.0045661926 -1 -0.008529663
vn 0.0045661926 -1 -0.008529663
vn 0.0045661926 -1 -0.008529663
vn 0.0045661926 -1 -0.008529663
vn 0.0045661926 -1 -0.008529663
vn 0.0045661926 -1 -0.008529663
vn 0.0045661926 -1 -0.008529663
vn 0.0045661926 -1 -0.008529663
vn 0.0045661926 -1 -0.008529663
vn 0.0045661926 -1 -0.008529663
vn 0.0045661926 -1 -0.008529663
vn 0.0045661926 -1 -0.008529663
vn 0.0045661926 -1 -0.008529663
vn 0.97998047 0.07104492 -0.18713379
vn 0.95410156 -0.014152527 -0.29882812
vn 0.9633789 0.07800293 -0.2565918
vn 0.99072266 -0.060516357 -0.123535156
vn 0.984375 0.103759766 -0.1427002
vn 0.97314453 -0.09851074 -0.20751953
vn 0.9609375 -0.26635742 -0.07849121
vn 0.9765625 -0.03439331 -0.21313477
vn 0.058929443 -0.9980469 0.0069274902
vn 0.058929443 -0.9980469 0.0069274902
vn 0.058929443 -0.9980469 0.0069274902
vn 0.058929443 -0.9980469 0.0069274902
vn -0.018310547 0.008987427 1
vn -0.018310547 0.008987427 1
vn -0.018310547 0.008987427 1
vn -0.018310547 0.008987427 1
vn -0.9785156 0.17907715 -0.101501465
vn -0.9785156 0.17907715 -0.101501465
vn -0.9785156 0.17907715 -0.101501465
vn -0.9785156 0.17907715 -0.101501465
vn 0.9975586 0.02267456 0.06896973
vn 0.9975586 0.02267456 0.06896973
vn 0.9975586 0.02267456 0.06896973
vn 0.9975586 0.02267456 0.06896973
vn -0.76464844 0.15209961 -0.62646484
vn -0.76464844 0.15209961 -0.62646484
vn -0.76464844 0.15209961 -0.62646484
vn -0.76464844 0.15209961 -0.62646484
vn -0.8300781 -0.087890625 -0.55078125
vn -0.9560547 0.044189453 -0.2890625
vn -0.9394531 -0.1940918 -0.28222656
vn -0.9116211 0.041625977 -0.40893555
vn -0.9199219 0.27514648 -0.2800293
vn -0.9199219 0.27514648 -0.2800293
vn -0.49975586 0.084350586 -0.8618164
vn -0.64160156 0.06100464 -0.76464844
vn -0.37670898 -0.06341553 -0.9243164
vn -0.94628906 -0.015579224 -0.3232422
vn -0.6567383 0.02041626 0.75390625
vn -0.6425781 0.09173584 0.7607422
vn -0.66064453 -0.0024261475 0.7504883
vn -0.67041016 -0.07128906 0.73876953
vn -1 -0.006099701 9.953976E-05
vn -0.99609375 -0.087646484 0.00020885468
vn -0.9375 -0.13708496 -0.3203125
vn -0.98779297 -0.004173279 -0.15600586
vn -0.93652344 0.11663818 -0.33081055
vn -0.9970703 0.07946777 -1.5854836E-05
vn -0.8300781 -0.04272461 -0.55615234
vn -0.84277344 0.17224121 -0.5097656
vn -0.8222656 -0.23400879 -0.5185547
vn -0.87402344 -0.009811401 -0.48583984
vn -0.9736328 0.04373169 -0.2244873
vn -0.97265625 -0.05319214 -0.22619629
vn 0.15563965 0.078063965 -0.9848633
vn -0.118774414 0.2142334 -0.96972656
vn -0.09564209 0.047027588 -0.9941406
vn -0.03643799 0.024368286 -0.99902344
vn -0.066345215 -0.14196777 -0.98779297
vn 0.2154541 -0.09307861 -0.97216797
vn 0.31958008 -0.0052375793 -0.9472656
vn 0.42089844 0.06982422 -0.9042969
vn 0.4423828 -0.046142578 -0.8955078
vn 0.45239258 -0.11480713 -0.88427734
vn 0.48120117 -0.000579834 0.87646484
vn 0.47827148 -0.07421875 0.875
vn 0.47827148 -0.07421875 0.875
vn 0.48120117 0.0011806488 0.87646484
vn 0.48168945 0.07385254 0.8730469
vn 0.48168945 0.07385254 0.8730469
vn 0.0030536652 1 -0.016601562
vn 0.0030536652 1 -0.016601562
vn 0.0030536652 1 -0.016601562
vn 0.0030536652 1 -0.016601562
vn 0.0030536652 1 -0.016601562
vn 0.0030536652 1 -0.016601562
vn 0.0030536652 1 -0.016601562
vn 0.0030536652 1 -0.016601562
vn 0.0030536652 1 -0.016601562
vn 0.0030536652 1 -0.016601562
vn 0.0030536652 1 -0.016601562
vn 0.0030536652 1 -0.016601562
vn 0.0030536652 1 -0.016601562
vn 0.0030536652 1 -0.016601562
vn 0.0030536652 1 -0.016601562
vn 0.0030536652 1 -0.016601562
vn 0.0030536652 1 -0.016601562
vn 0.0030536652 1 -0.016601562
vn 0.0030536652 1 -0.016601562
vn 0.0030536652 1 -0.016601562
vn 0.0030536652 1 -0.016601562
g RobotRightArm_0
f 3/3/3 2/2/2 1/1/1
f 6/6/6 5/5/5 4/4/4
f 9/9/9 8/8/8 7/7/7
f 12/12/12 11/11/11 10/10/10
f 15/15/15 14/14/14 13/13/13
f 18/18/18 17/17/17 16/16/16
f 21/21/21 20/20/20 19/19/19
f 24/24/24 23/23/23 22/22/22
f 27/27/27 26/26/26 25/25/25
f 30/30/30 29/29/29 28/28/28
f 31/31/31 30/30/30 28/28/28
f 34/34/34 33/33/33 32/32/32
f 34/34/34 32/32/32 35/35/35
f 32/32/32 36/36/36 35/35/35
f 36/36/36 37/37/37 35/35/35
f 37/37/37 38/38/38 35/35/35
f 35/35/35 39/39/39 34/34/34
f 37/37/37 39/39/39 38/38/38
f 40/40/40 34/34/34 39/39/39
f 37/37/37 41/41/41 39/39/39
f 40/40/40 39/39/39 42/42/42
f 39/39/39 41/41/41 42/42/42
f 45/45/45 44/44/44 43/43/43
f 45/45/45 46/46/46 44/44/44
f 47/47/47 44/44/44 46/46/46
f 46/46/46 48/48/48 47/47/47
f 48/48/48 49/49/49 47/47/47
f 47/47/47 49/49/49 50/50/50
f 51/51/51 50/50/50 49/49/49
f 54/54/54 53/53/53 52/52/52
f 55/55/55 54/54/54 52/52/52
f 55/55/55 52/52/52 56/56/56
f 56/56/56 57/57/57 55/55/55
f 57/57/57 58/58/58 55/55/55
f 57/57/57 56/56/56 59/59/59
f 56/56/56 60/60/60 59/59/59
f 60/60/60 56/56/56 61/61/61
f 64/64/64 63/63/63 62/62/62
f 64/64/64 62/62/62 65/65/65
f 66/66/66 64/64/64 65/65/65
f 69/69/69 68/68/68 67/67/67
f 67/67/67 70/70/70 69/69/69
f 70/70/70 67/67/67 71/71/71
f 70/70/70 71/71/71 72/72/72
f 70/70/70 72/72/72 73/73/73
f 70/70/70 73/73/73 69/69/69
f 69/69/69 73/73/73 74/74/74
f 73/73/73 75/75/75 74/74/74
f 76/76/76 69/69/69 74/74/74
f 74/74/74 75/75/75 77/77/77
f 76/76/76 74/74/74 77/77/77
f 75/75/75 78/78/78 77/77/77
f 77/77/77 79/79/79 76/76/76
f 82/82/82 81/81/81 80/80/80
f 83/83/83 82/82/82 80/80/80
f 80/80/80 84/84/84 83/83/83
f 84/84/84 80/80/80 85/85/85
f 88/88/88 87/87/87 86/86/86
f 87/87/87 89/89/89 86/86/86
f 89/89/89 87/87/87 90/90/90
f 91/91/91 89/89/89 90/90/90
f 86/86/86 89/89/89 91/91/91
f 92/92/92 86/86/86 91/91/91
f 95/95/95 94/94/94 93/93/93
f 93/93/93 96/96/96 95/95/95
f 93/93/93 97/97/97 96/96/96
f 97/97/97 98/98/98 96/96/96
f 97/97/97 99/99/99 98/98/98
f 97/97/97 100/100/100 99/99/99
f 100/100/100 101/101/101 99/99/99
f 100/100/100 102/102/102 101/101/101
f 102/102/102 103/103/103 101/101/101
f 102/102/102 104/104/104 103/103/103
f 104/104/104 105/105/105 103/103/103
f 104/104/104 106/106/106 105/105/105
f 104/104/104 107/107/107 106/106/106
f 104/104/104 108/108/108 107/107/107
f 108/108/108 109/109/109 107/107/107
f 109/109/109 110/110/110 107/107/107
f 109/109/109 111/111/111 110/110/110
f 114/114/114 113/113/113 112/112/112
f 114/114/114 112/112/112 115/115/115
f 112/112/112 116/116/116 115/115/115
f 117/117/117 114/114/114 115/115/115
f 117/117/117 115/115/115 118/118/118
f 119/119/119 114/114/114 117/117/117
f 119/119/119 117/117/117 118/118/118
f 122/122/122 121/121/121 120/120/120
f 123/123/123 122/122/122 120/120/120
f 126/126/126 125/125/125 124/124/124
f 127/127/127 126/126/126 124/124/124
f 130/130/130 129/129/129 128/128/128
f 131/131/131 130/130/130 128/128/128
f 134/134/134 133/133/133 132/132/132
f 135/135/135 134/134/134 132/132/132
f 138/138/138 137/137/137 136/136/136
f 139/139/139 138/138/138 136/136/136
f 142/142/142 141/141/141 140/140/140
f 141/141/141 143/143/143 140/140/140
f 143/143/143 141/141/141 144/144/144
f 141/141/141 145/145/145 144/144/144
f 148/148/148 147/147/147 146/146/146
f 149/149/149 146/146/146 147/147/147
f 152/152/152 151/151/151 150/150/150
f 153/153/153 152/152/152 150/150/150
f 156/156/156 155/155/155 154/154/154
f 157/157/157 156/156/156 154/154/154
f 158/158/158 157/157/157 154/154/154
f 156/156/156 157/157/157 158/158/158
f 159/159/159 158/158/158 154/154/154
f 160/160/160 156/156/156 158/158/158
f 158/158/158 161/161/161 160/160/160
f 162/162/162 156/156/156 160/160/160
f 161/161/161 163/163/163 160/160/160
f 163/163/163 162/162/162 160/160/160
f 161/161/161 164/164/164 163/163/163
f 165/165/165 162/162/162 163/163/163
f 168/168/168 167/167/167 166/166/166
f 169/169/169 168/168/168 166/166/166
f 170/170/170 168/168/168 169/169/169
f 171/171/171 170/170/170 169/169/169
f 169/169/169 166/166/166 171/171/171
f 166/166/166 172/172/172 171/171/171
f 172/172/172 166/166/166 173/173/173
f 174/174/174 172/172/172 173/173/173
f 171/171/171 172/172/172 174/174/174
f 175/175/175 171/171/171 174/174/174
f 178/178/178 177/177/177 176/176/176
f 179/179/179 178/178/178 176/176/176
f 179/179/179 176/176/176 180/180/180
f 176/176/176 181/181/181 180/180/180
f 184/184/184 183/183/183 182/182/182
f 182/182/182 185/185/185 184/184/184
f 185/185/185 186/186/186 184/184/184
f 185/185/185 187/187/187 186/186/186
f 185/185/185 188/188/188 187/187/187
f 188/188/188 189/189/189 187/187/187
f 189/189/189 190/190/190 187/187/187
f 189/189/189 191/191/191 190/190/190
f 191/191/191 192/192/192 190/190/190
f 191/191/191 193/193/193 192/192/192
f 193/193/193 194/194/194 192/192/192
f 193/193/193 195/195/195 194/194/194
f 195/195/195 196/196/196 194/194/194
f 195/195/195 197/197/197 196/196/196
f 197/197/197 198/198/198 196/196/196
f 197/197/197 199/199/199 198/198/198
f 199/199/199 200/200/200 198/198/198
f 200/200/200 201/201/201 198/198/198
f 200/200/200 202/202/202 201/201/201
