g RockGrouping5_LOD1
v -0.5250306 0.35250548 -0.026110465
v -0.27876312 0.5694798 0.40150157
v -0.11071343 -0.12316868 -0.16334753
v 0.87913126 0.1334609 -0.4354217
v -0.010976251 0.19857532 -0.72257227
v 0.39426836 0.0076119597 0.11724348
v 1.207107 0.3643549 -0.091844365
v 1.0884658 0.49218717 0.17850994
v 0.41819924 0.7057684 -2.2332745
v 0.25532797 0.5846018 -2.4713616
v 0.4868735 0.29819974 -2.190321
v 0.2707896 0.68357074 -1.7597458
v 0.08541862 0.43529877 -1.4556704
v -0.057718445 0.8582633 -2.091446
v -0.23848577 0.6218952 -1.5028397
v -0.3458372 0.61642045 -2.2219353
v 0.2707896 0.68357074 -1.7597458
v 0.41819924 0.7057684 -2.2332745
v 0.25532797 0.5846018 -2.4713616
v -0.17831992 0.14553468 -2.4062078
v 0.4868735 0.29819974 -2.190321
v 0.25532797 0.5846018 -2.4713616
v -0.3458372 0.61642045 -2.2219353
v -0.057718445 0.8582633 -2.091446
v -0.44744477 0.29669115 1.2943856
v -0.32846102 0.018043112 1.454037
v -0.51009154 -0.4195341 0.7965233
v -0.32455018 0.2341416 0.60504115
v -0.4139596 -0.20708737 0.42157114
v -0.51009154 -0.4195341 0.7965233
v -0.10381776 -0.63915855 0.59589046
v -0.4139596 -0.20708737 0.42157114
v 0.032661136 -0.65899783 1.0552433
v -0.32846102 0.018043112 1.454037
v 0.42926502 -0.3355124 0.68399
v 0.4274626 -0.3299515 1.0323592
v -0.32455018 0.2341416 0.60504115
v -0.4139596 -0.20708737 0.42157114
v 0.1863445 -0.15291625 0.3638344
v -0.10381776 -0.63915855 0.59589046
v 0.42926502 -0.3355124 0.68399
v 0.1863445 -0.15291625 0.3638344
v 0.42926502 -0.3355124 0.68399
v 0.34310794 0.089061484 0.7335483
v 0.4274626 -0.3299515 1.0323592
v -0.004497046 0.26534298 1.5492946
v -0.12638895 0.45324048 1.3440754
v 0.2671686 0.9868814 -0.00592536
v -0.2823937 0.8462172 -0.30440843
v 0.08719226 0.76764023 -0.6278983
v -0.27876312 0.5694798 0.40150157
v -0.2823937 0.8462172 -0.30440843
v -0.010976251 0.19857532 -0.72257227
v 0.08719226 0.76764023 -0.6278983
v 0.87913126 0.1334609 -0.4354217
v 1.1247231 0.57605565 -0.19267993
v 0.2671686 0.9868814 -0.00592536
v 1.1247231 0.57605565 -0.19267993
v 0.87913126 0.1334609 -0.4354217
v 1.207107 0.3643549 -0.091844365
v 1.0884658 0.49218717 0.17850994
v 1.0884658 0.49218717 0.17850994
v 0.57813936 0.49621826 0.40871948
v 0.2671686 0.9868814 -0.00592536
v 1.1247231 0.57605565 -0.19267993
v 0.57813936 0.49621826 0.40871948
v -0.27876312 0.5694798 0.40150157
v 0.2671686 0.9868814 -0.00592536
v 0.39426836 0.0076119597 0.11724348
v -0.11071343 -0.12316868 -0.16334753
v 1.0884658 0.49218717 0.17850994
v -0.11487144 -0.14218566 0.102283284
v 0.103373356 -0.39131427 1.1096017
v -0.36982545 -0.009578063 0.8698488
v -0.8048032 -0.37131894 0.5803553
v -0.21732345 -0.1433485 -0.13331689
v 0.26800802 -0.50286317 0.05443173
v -0.5655775 -0.70925474 -0.2235362
v -0.21732345 -0.1433485 -0.13331689
v -0.8048032 -0.37131894 0.5803553
v -0.28904498 -1.0661072 -0.1509623
v -0.39922288 -1.1772422 0.48290676
v -0.5450891 -0.80311906 0.9668193
v -0.39922288 -1.1772422 0.48290676
v -0.5450891 -0.80311906 0.9668193
v 0.14536732 -0.7635703 0.9389649
v 0.18775894 -0.6712522 0.48559573
v 0.07630472 -1.1093434 -0.041979235
v -0.28904498 -1.0661072 -0.1509623
v -0.08638247 -0.59331024 -0.33950338
v 0.07630472 -1.1093434 -0.041979235
v 0.26800802 -0.50286317 0.05443173
v 0.18775894 -0.6712522 0.48559573
v -0.11487144 -0.14218566 0.102283284
v 0.103373356 -0.39131427 1.1096017
v 0.14536732 -0.7635703 0.9389649
v -0.08638247 -0.59331024 -0.33950338
v 0.26800802 -0.50286317 0.05443173
v -0.21732345 -0.1433485 -0.13331689
v -0.5655775 -0.70925474 -0.2235362
v -0.28904498 -1.0661072 -0.1509623
v 0.07630472 -1.1093434 -0.041979235
v 0.08541862 0.43529877 -1.4556704
v -0.23848577 0.6218952 -1.5028397
v 0.2707896 0.68357074 -1.7597458
v -0.35026404 0.30195674 -1.5829923
v -0.3458372 0.61642045 -2.2219353
v -0.35026404 0.30195674 -1.5829923
v -0.17831992 0.14553468 -2.4062078
v -0.23848577 0.6218952 -1.5028397
v 0.4274626 -0.3299515 1.0323592
v 0.032661136 -0.65899783 1.0552433
v -0.004497046 0.26534298 1.5492946
v -0.32846102 0.018043112 1.454037
v -0.44744477 0.29669115 1.2943856
v -0.12638895 0.45324048 1.3440754
v -0.32455018 0.2341416 0.60504115
v 0.1863445 -0.15291625 0.3638344
v 0.34310794 0.089061484 0.7335483
v -0.12638895 0.45324048 1.3440754
v -0.44744477 0.29669115 1.2943856
v -0.5250306 0.35250548 -0.026110465
v -0.11071343 -0.12316868 -0.16334753
v -0.010976251 0.19857532 -0.72257227
v -0.2823937 0.8462172 -0.30440843
v -0.27876312 0.5694798 0.40150157
v 0.14536732 -0.7635703 0.9389649
v -0.5450891 -0.80311906 0.9668193
v 0.103373356 -0.39131427 1.1096017
v -0.36982545 -0.009578063 0.8698488
v -0.8048032 -0.37131894 0.5803553
v 0.046217583 0.021130405 -1.9947685
v -0.17831992 0.14553468 -2.4062078
v -0.35026404 0.30195674 -1.5829923
v 0.08541862 0.43529877 -1.4556704
v 0.4868735 0.29819974 -2.190321
vt 0.36566278 0.5223991
vt 0.42691335 0.6287529
vt 0.46870995 0.4882661
vt 0.7148998 0.42059702
vt 0.49351612 0.3491782
vt 0.5943068 0.5580535
vt 0.79647243 0.50605005
vt 0.76696455 0.5732914
vt 0.6736611 -0.026557028
vt 0.6435251 -0.08577305
vt 0.57229245 -0.01587385
vt 0.66814023 0.09121689
vt 0.6063911 0.16684523
vt 0.48189062 0.008717895
vt 0.43693095 0.15511349
vt 0.41023096 -0.023736775
vt 0.5635957 0.09121689
vt 0.60025877 -0.026557028
vt 0.55975014 -0.08577305
vt 0.45189515 0.53432226
vt 0.61733913 0.57229245
vt 0.55975014 0.6435251
vt 0.41023096 0.6514389
vt 0.48189062 0.711589
vt 0.57191724 0.8508271
vt 0.50261307 0.8905349
vt 0.3937808 0.72700095
vt 0.5563602 0.67937636
vt 0.44661963 0.63374454
vt 0.36937836 0.72700095
vt 0.470425 0.6771004
vt 0.39328787 0.63374454
vt 0.50436944 0.7913487
vt 0.4145527 0.8905349
vt 0.603011 0.69901216
vt 0.6025627 0.78565705
vt 0.41552538 0.5563602
vt 0.39328787 0.44661963
vt 0.5425929 0.4600928
vt 0.470425 0.33915678
vt 0.603011 0.4146783
vt 0.4600928 0.6193845
vt 0.4146783 0.69901216
vt 0.5202765 0.7113381
vt 0.4160614 0.78565705
vt 0.5641204 0.91422695
vt 0.6108535 0.86318576
vt 0.5626951 0.52741945
vt 0.42601037 0.45318207
vt 0.5179322 0.37272507
vt 0.42691335 0.6287529
vt 0.42601037 0.70859295
vt 0.49351612 0.54751426
vt 0.5179322 0.6890496
vt 0.7148998 0.5313193
vt 0.77598226 0.6413995
vt 0.5626951 0.7435783
vt 0.6413995 0.48097068
vt 0.5313193 0.42059702
vt 0.58874625 0.50605005
vt 0.62054014 0.5732914
vt 0.76696455 0.5732914
vt 0.6400384 0.6305481
vt 0.5626951 0.52741945
vt 0.77598226 0.48097068
vt 0.6400384 0.6215427
vt 0.42691335 0.639764
vt 0.5626951 0.7435783
vt 0.5943068 0.5000187
vt 0.46870995 0.4674915
vt 0.76696455 0.62054014
vt 0.46767578 0.5543326
vt 0.5219567 0.80486846
vt 0.40426472 0.7452382
vt 0.29607898 0.6732366
vt 0.44219434 0.4957352
vt 0.5629039 0.54243124
vt 0.32172275 0.47329625
vt 0.46247247 0.4957352
vt 0.40577266 0.6732366
vt 0.23296797 0.4913465
vt 0.20532697 0.64899963
vt 0.29837722 0.76935625
vt 0.3969531 0.64899963
vt 0.3606739 0.76935625
vt 0.5324012 0.7624284
vt 0.54294467 0.64966846
vt 0.5152243 0.5184523
vt 0.4243561 0.4913465
vt 0.35055995 0.4444534
vt 0.22221446 0.5184523
vt 0.37305558 0.54243124
vt 0.33117458 0.64966846
vt 0.4627617 0.5543326
vt 0.4007995 0.80486846
vt 0.30821362 0.7624284
vt 0.47476143 0.35055995
vt 0.5629039 0.37305558
vt 0.44219434 0.46247247
vt 0.35557812 0.32172275
vt 0.4243561 0.23296797
vt 0.5152243 0.22221446
vt 0.51749104 0.6063911
vt 0.43693095 0.65280056
vt 0.5635957 0.66814023
vt 0.40912995 0.57322687
vt 0.6514389 -0.023736775
vt 0.57322687 0.13517827
vt 0.53432226 -0.06956828
vt 0.65280056 0.15511349
vt 0.6025627 0.4160614
vt 0.50436944 0.33422244
vt 0.49512762 0.5641204
vt 0.4145527 0.50261307
vt 0.38495958 0.57191724
vt 0.46481118 0.6108535
vt 0.41552538 0.67937636
vt 0.5425929 0.6193845
vt 0.5815824 0.7113381
vt 0.46481118 0.86318576
vt 0.38495958 0.8508271
vt 0.5857991 0.5223991
vt 0.4674915 0.4882661
vt 0.54751426 0.3491782
vt 0.70859295 0.45318207
vt 0.639764 0.6287529
vt 0.5324012 0.30821362
vt 0.3606739 0.29837722
vt 0.5219567 0.4007995
vt 0.40426472 0.49574327
vt 0.29607898 0.40577266
vt 0.50774115 0.032763094
vt 0.45189515 -0.06956828
vt 0.40912995 0.13517827
vt 0.51749104 0.16684523
vt 0.61733913 -0.01587385
vn -0.9772413 -0.19195835 0.09028496
vn -0.51599693 0.17454834 0.8386179
vn -0.36464173 -0.93052125 0.034157395
vn 0.63240165 -0.48238418 -0.60611355
vn -0.27316546 -0.355884 -0.8937153
vn 0.1513779 -0.83783954 0.52450895
vn 0.94658226 -0.3216251 0.023223631
vn 0.7094916 0.13342856 0.6919671
vn 0.7427189 0.628796 -0.2301831
vn 0.26982203 0.25986207 -0.92718273
vn 0.8833809 -0.43450716 -0.17561843
vn 0.64165044 0.5854942 0.49546066
vn 0.3966109 -0.13779649 0.90758574
vn -0.18176462 0.9735867 -0.13816889
vn -0.45621857 0.5341273 0.7117392
vn -0.8189516 0.37387168 -0.43535984
vn 0.64165044 0.5854942 0.49546066
vn 0.7427189 0.628796 -0.2301831
vn 0.26982203 0.25986207 -0.92718273
vn -0.41520265 -0.58428913 -0.69728976
vn 0.8833809 -0.43450716 -0.17561843
vn 0.26982203 0.25986207 -0.92718273
vn -0.8189516 0.37387168 -0.43535984
vn -0.18176462 0.9735867 -0.13816889
vn -0.8079771 0.4985166 0.3140928
vn -0.50331944 -0.25710508 0.8249645
vn -0.880938 -0.4731494 0.008824913
vn -0.43253556 0.72167367 -0.54046285
vn -0.64709586 -0.0355813 -0.761578
vn -0.880938 -0.4731494 0.008824913
vn -0.05864701 -0.87727875 -0.47638473
vn -0.64709586 -0.0355813 -0.761578
vn 0.109146535 -0.8962004 0.43001375
vn -0.50331944 -0.25710508 0.8249645
vn 0.8751186 -0.34741867 -0.33684978
vn 0.8729244 -0.28367543 0.39690208
vn -0.43253556 0.72167367 -0.54046285
vn -0.64709586 -0.0355813 -0.761578
vn 0.39635167 0.08953196 -0.9137229
vn -0.05864701 -0.87727875 -0.47638473
vn 0.8751186 -0.34741867 -0.33684978
vn 0.39635167 0.08953196 -0.9137229
vn 0.8751186 -0.34741867 -0.33684978
vn 0.7442359 0.62062323 -0.2468595
vn 0.8729244 -0.28367543 0.39690208
vn 0.34105927 0.32322752 0.8827245
vn 0.0644855 0.9581118 0.27903986
vn 0.12310067 0.9854004 0.11761113
vn -0.658284 0.69501925 -0.2891543
vn -0.05061102 0.55550146 -0.8299739
vn -0.51599693 0.17454834 0.8386179
vn -0.658284 0.69501925 -0.2891543
vn -0.27316546 -0.355884 -0.8937153
vn -0.05061102 0.55550146 -0.8299739
vn 0.63240165 -0.48238418 -0.60611355
vn 0.72154593 0.60951686 -0.32842132
vn 0.12310067 0.9854004 0.11761113
vn 0.72154593 0.60951686 -0.32842132
vn 0.63240165 -0.48238418 -0.60611355
vn 0.94658226 -0.3216251 0.023223631
vn 0.7094916 0.13342856 0.6919671
vn 0.7094916 0.13342856 0.6919671
vn 0.23624721 0.0773018 0.9686133
vn 0.12310067 0.9854004 0.11761113
vn 0.72154593 0.60951686 -0.32842132
vn 0.23624721 0.0773018 0.9686133
vn -0.51599693 0.17454834 0.8386179
vn 0.12310067 0.9854004 0.11761113
vn 0.1513779 -0.83783954 0.52450895
vn -0.36464173 -0.93052125 0.034157395
vn 0.7094916 0.13342856 0.6919671
vn 0.3477721 0.93585956 -0.056759086
vn 0.5600922 0.3027966 0.77111024
vn -0.18617941 0.8779614 0.44104525
vn -0.95789224 0.2761792 0.07853308
vn -0.047329504 0.8337713 -0.5500776
vn 0.9417873 0.2892177 -0.17143446
vn -0.75483775 -0.15369625 -0.6376499
vn -0.047329504 0.8337713 -0.5500776
vn -0.95789224 0.2761792 0.07853308
vn -0.32582468 -0.73178273 -0.5986085
vn -0.30557254 -0.939044 0.15754911
vn -0.54332876 -0.41667157 0.72881997
vn -0.30557254 -0.939044 0.15754911
vn -0.54332876 -0.41667157 0.72881997
vn 0.6899268 -0.5210251 0.5025275
vn 0.9837863 -0.1365673 0.11624912
vn 0.5924165 -0.74163646 -0.31467116
vn -0.32582468 -0.73178273 -0.5986085
vn 0.27483866 0.07845611 -0.9582841
vn 0.5924165 -0.74163646 -0.31467116
vn 0.9417873 0.2892177 -0.17143446
vn 0.9837863 -0.1365673 0.11624912
vn 0.3477721 0.93585956 -0.056759086
vn 0.5600922 0.3027966 0.77111024
vn 0.6899268 -0.5210251 0.5025275
vn 0.27483866 0.07845611 -0.9582841
vn 0.9417873 0.2892177 -0.17143446
vn -0.047329504 0.8337713 -0.5500776
vn -0.75483775 -0.15369625 -0.6376499
vn -0.32582468 -0.73178273 -0.5986085
vn 0.5924165 -0.74163646 -0.31467116
vn 0.3966109 -0.13779649 0.90758574
vn -0.45621857 0.5341273 0.7117392
vn 0.64165044 0.5854942 0.49546066
vn -0.72029907 -0.43974188 0.53646654
vn -0.8189516 0.37387168 -0.43535984
vn -0.72029907 -0.43974188 0.53646654
vn -0.41520265 -0.58428913 -0.69728976
vn -0.45621857 0.5341273 0.7117392
vn 0.8729244 -0.28367543 0.39690208
vn 0.109146535 -0.8962004 0.43001375
vn 0.34105927 0.32322752 0.8827245
vn -0.50331944 -0.25710508 0.8249645
vn -0.8079771 0.4985166 0.3140928
vn 0.0644855 0.9581118 0.27903986
vn -0.43253556 0.72167367 -0.54046285
vn 0.39635167 0.08953196 -0.9137229
vn 0.7442359 0.62062323 -0.2468595
vn 0.0644855 0.9581118 0.27903986
vn -0.8079771 0.4985166 0.3140928
vn -0.9772413 -0.19195835 0.09028496
vn -0.36464173 -0.93052125 0.034157395
vn -0.27316546 -0.355884 -0.8937153
vn -0.658284 0.69501925 -0.2891543
vn -0.51599693 0.17454834 0.8386179
vn 0.6899268 -0.5210251 0.5025275
vn -0.54332876 -0.41667157 0.72881997
vn 0.5600922 0.3027966 0.77111024
vn -0.18617941 0.8779614 0.44104525
vn -0.95789224 0.2761792 0.07853308
vn 0.122300506 -0.9844758 0.12589686
vn -0.41520265 -0.58428913 -0.69728976
vn -0.72029907 -0.43974188 0.53646654
vn 0.3966109 -0.13779649 0.90758574
vn 0.8833809 -0.43450716 -0.17561843
g RockGrouping5_LOD1_0
f 3/3/3 2/2/2 1/1/1
f 5/5/5 4/4/4 3/3/3
f 6/6/6 3/3/3 4/4/4
f 7/7/7 6/6/6 4/4/4
f 7/7/7 8/8/8 6/6/6
f 11/11/11 10/10/10 9/9/9
f 12/12/12 11/11/11 9/9/9
f 13/13/13 11/11/11 12/12/12
f 16/16/16 15/15/15 14/14/14
f 15/15/15 17/17/17 14/14/14
f 18/18/18 14/14/14 17/17/17
f 14/14/14 18/18/18 19/19/19
f 22/22/22 21/21/21 20/20/20
f 23/23/23 22/22/22 20/20/20
f 23/23/23 24/24/24 22/22/22
f 27/27/27 26/26/26 25/25/25
f 28/28/28 27/27/27 25/25/25
f 28/28/28 29/29/29 27/27/27
f 32/32/32 31/31/31 30/30/30
f 33/33/33 30/30/30 31/31/31
f 33/33/33 34/34/34 30/30/30
f 33/33/33 31/31/31 35/35/35
f 36/36/36 33/33/33 35/35/35
f 39/39/39 38/38/38 37/37/37
f 38/38/38 39/39/39 40/40/40
f 39/39/39 41/41/41 40/40/40
f 44/44/44 43/43/43 42/42/42
f 45/45/45 43/43/43 44/44/44
f 45/45/45 44/44/44 46/46/46
f 46/46/46 44/44/44 47/47/47
f 50/50/50 49/49/49 48/48/48
f 48/48/48 49/49/49 51/51/51
f 54/54/54 53/53/53 52/52/52
f 53/53/53 54/54/54 55/55/55
f 56/56/56 55/55/55 54/54/54
f 57/57/57 56/56/56 54/54/54
f 60/60/60 59/59/59 58/58/58
f 61/61/61 60/60/60 58/58/58
f 64/64/64 63/63/63 62/62/62
f 65/65/65 64/64/64 62/62/62
f 68/68/68 67/67/67 66/66/66
f 69/69/69 66/66/66 67/67/67
f 70/70/70 69/69/69 67/67/67
f 66/66/66 69/69/69 71/71/71
f 74/74/74 73/73/73 72/72/72
f 75/75/75 74/74/74 72/72/72
f 75/75/75 72/72/72 76/76/76
f 76/76/76 72/72/72 77/77/77
f 80/80/80 79/79/79 78/78/78
f 81/81/81 80/80/80 78/78/78
f 82/82/82 80/80/80 81/81/81
f 82/82/82 83/83/83 80/80/80
f 86/86/86 85/85/85 84/84/84
f 86/86/86 84/84/84 87/87/87
f 87/87/87 84/84/84 88/88/88
f 88/88/88 84/84/84 89/89/89
f 92/92/92 91/91/91 90/90/90
f 92/92/92 93/93/93 91/91/91
f 94/94/94 93/93/93 92/92/92
f 94/94/94 95/95/95 93/93/93
f 93/93/93 95/95/95 96/96/96
f 99/99/99 98/98/98 97/97/97
f 99/99/99 97/97/97 100/100/100
f 97/97/97 101/101/101 100/100/100
f 101/101/101 97/97/97 102/102/102
f 105/105/105 104/104/104 103/103/103
f 103/103/103 104/104/104 106/106/106
f 109/109/109 108/108/108 107/107/107
f 108/108/108 110/110/110 107/107/107
f 113/113/113 112/112/112 111/111/111
f 112/112/112 113/113/113 114/114/114
f 113/113/113 115/115/115 114/114/114
f 115/115/115 113/113/113 116/116/116
f 119/119/119 118/118/118 117/117/117
f 119/119/119 117/117/117 120/120/120
f 120/120/120 117/117/117 121/121/121
f 124/124/124 123/123/123 122/122/122
f 125/125/125 124/124/124 122/122/122
f 126/126/126 125/125/125 122/122/122
f 129/129/129 128/128/128 127/127/127
f 130/130/130 128/128/128 129/129/129
f 130/130/130 131/131/131 128/128/128
f 134/134/134 133/133/133 132/132/132
f 132/132/132 135/135/135 134/134/134
f 133/133/133 136/136/136 132/132/132
f 132/132/132 136/136/136 135/135/135
