g RockGrouping4
v -0.22152485 0.09791811 0.03789687
v -0.17459323 -0.06818062 -0.27011064
v -0.3569991 0.011046886 -0.12896067
v -0.012629151 -0.0151744485 -0.4503618
v -0.34965223 -0.053286046 -0.4398051
v 0.18380457 0.19273418 -0.47819087
v -0.17345634 0.30329457 0.09723875
v 0.19455734 0.30451202 -0.40977442
v 0.18906078 0.4315659 -0.511457
v 0.15868628 0.30282637 -0.703851
v 0.07598516 0.07318671 -0.57652426
v -0.016936198 0.13346359 -0.735875
v -0.18109632 -0.044972688 -0.6476824
v -0.46859857 0.034695834 -0.56093216
v -0.38368052 0.12185255 -0.74711317
v -0.19733733 0.3075654 -0.7644105
v -0.34708315 -0.12866771 -0.2716374
v -0.3670487 0.07481411 -0.10680075
v -0.4561309 -0.2761202 -0.051283777
v -0.33664364 0.23697057 0.06653586
v -0.40651375 0.07918309 0.2409468
v -0.2322819 0.30719244 0.25308213
v -0.121073514 0.36671865 -0.041541845
v -0.02494745 0.3569383 0.20972648
v -0.45118576 -0.3165983 0.15811428
v -0.39325 -0.111062884 0.35203746
v -0.3283751 -0.4374473 0.21138486
v -0.32664257 -0.44793302 -0.016086072
v -0.34367257 -0.2975933 0.3955467
v -0.20621583 -0.23868686 0.6037934
v -0.099226266 -0.5606081 0.6433972
v -0.05020979 0.06005609 0.6216196
v -0.03413929 0.2913223 0.48223993
v 0.08320671 -0.20357066 0.8156476
v 0.39068836 -0.1048491 0.063354194
v 0.17908773 0.21818784 -0.079984024
v 0.3083263 -0.07340163 -0.16244826
v 0.16013834 0.22486702 0.16995162
v 0.3511654 0.053407 0.35478637
v 0.4046929 -0.14144492 0.33738956
v 0.3610214 -0.19175094 0.52929735
v -0.02494745 0.3569383 0.20972648
v -0.121073514 0.36671865 -0.041541845
v 0.21346655 0.22942239 0.40833953
v 0.16749096 0.1302731 0.6737131
v 0.34400123 -0.05842319 0.6113578
v 0.2414859 -0.35340267 0.60079396
v 0.08320671 -0.20357066 0.8156476
v -0.03413929 0.2913223 0.48223993
v -0.2322819 0.30719244 0.25308213
v 0.16749096 0.1302731 0.6737131
v -0.05020979 0.06005609 0.6216196
v 0.08320671 -0.20357066 0.8156476
v 0.34400123 -0.05842319 0.6113578
v 0.81190383 0.032201946 -0.22190106
v 0.5523747 0.0862641 -0.063744456
v 0.60002726 -0.12944546 -0.30251032
v 0.8687539 -0.08041856 -0.32821167
v 0.9559945 -0.034715354 -0.24013695
v 0.60778713 -0.27040476 -0.37341815
v 0.8686608 -0.14816985 -0.3095159
v 0.63548934 -0.2949667 -0.3451446
v 0.60778713 -0.27040476 -0.37341815
v 0.60002726 -0.12944546 -0.30251032
v 0.51585203 -0.07840553 0.088106364
v 0.5523747 0.0862641 -0.063744456
v 0.52961653 -0.22110277 0.23948035
v 0.6650741 -0.40322793 -0.17345327
v 0.6950548 -0.4482451 0.050528854
v 0.6017679 -0.34113616 0.18792745
v 0.55963403 -0.21616834 0.3139061
v 0.51896614 -0.025439978 0.1446279
v 0.62993854 0.03314787 0.20411307
v 0.72859997 0.011867017 0.26328668
v 0.7423953 -0.3945964 0.1314142
v 0.6950548 -0.4482451 0.050528854
v 0.6017679 -0.34113616 0.18792745
v 0.83108675 -0.39940393 0.059867024
v 0.90292776 -0.25542003 0.16808581
v 0.71972084 -0.26349568 0.2416558
v 1.0213721 -0.19544569 0.040991783
v 0.7351655 -0.44882816 -0.046713293
v 0.6650741 -0.40322793 -0.17345327
v 0.98586214 -0.25426835 -0.06055826
v 1.0120485 -0.10312861 -0.07985039
v 0.9559945 -0.034715354 -0.24013695
v 0.8333366 -0.3038491 -0.1850633
v 0.6650741 -0.40322793 -0.17345327
v 0.63548934 -0.2949667 -0.3451446
v 0.8686608 -0.14816985 -0.3095159
v 0.8687539 -0.08041856 -0.32821167
v 0.60778713 -0.27040476 -0.37341815
v 0.15868628 0.30282637 -0.703851
v 0.18906078 0.4315659 -0.511457
v 0.059115082 0.5009691 -0.5302675
v -0.030025244 0.4549914 -0.70063996
v -0.016936198 0.13346359 -0.735875
v -0.30668718 0.5961051 -0.48900235
v -0.19733733 0.3075654 -0.7644105
v -0.42004788 0.4818996 -0.54718834
v -0.4613657 0.52519614 -0.28485638
v -0.38368052 0.12185255 -0.74711317
v -0.5226035 0.33859336 -0.5834643
v -0.46859857 0.034695834 -0.56093216
v -0.56637716 0.15554099 -0.44284275
v -0.4613657 0.52519614 -0.28485638
v -0.3476878 0.53623265 -0.14948194
v -0.4202067 0.44204995 0.009746879
v -0.53630555 0.42020246 -0.14584225
v -0.562043 0.30380434 -0.285146
v -0.55129755 0.16485238 -0.13445821
v -0.5226035 0.33859336 -0.5834643
v -0.56637716 0.15554099 -0.44284275
v -0.46859857 0.034695834 -0.56093216
v -0.34965223 -0.053286046 -0.4398051
v -0.5165124 0.30418122 -0.013201475
v -0.33789936 0.3042486 0.12393662
v -0.41749018 0.17968845 0.085140646
v -0.47269353 0.09236129 -0.03842838
v -0.3569991 0.011046886 -0.12896067
v -0.17459323 -0.06818062 -0.27011064
v -0.47269353 0.09236129 -0.03842838
v -0.22152485 0.09791811 0.03789687
v -0.41749018 0.17968845 0.085140646
v -0.33789936 0.3042486 0.12393662
v -0.17345634 0.30329457 0.09723875
v -0.099226266 -0.5606081 0.6433972
v -0.20621583 -0.23868686 0.6037934
v 0.08320671 -0.20357066 0.8156476
v 0.2414859 -0.35340267 0.60079396
v 0.17291278 -0.057008564 -0.30000678
v 0.3083263 -0.07340163 -0.16244826
v 0.17908773 0.21818784 -0.079984024
v 0.08006942 0.13387303 -0.23866397
v -0.121073514 0.36671865 -0.041541845
v -0.113101795 -0.01118955 -0.33556798
v 0.039919794 -0.20061427 -0.36582896
v -0.16653402 -0.37959045 -0.25439087
v -0.17678125 0.18068638 -0.21906504
v -0.33664364 0.23697057 0.06653586
v -0.3670487 0.07481411 -0.10680075
v -0.34708315 -0.12866771 -0.2716374
v -0.4561309 -0.2761202 -0.051283777
v -0.32664257 -0.44793302 -0.016086072
v 0.6017679 -0.34113616 0.18792745
v 0.55963403 -0.21616834 0.3139061
v 0.71972084 -0.26349568 0.2416558
v 0.7423953 -0.3945964 0.1314142
v -0.33789936 0.3042486 0.12393662
v -0.4202067 0.44204995 0.009746879
v -0.2357258 0.48022568 -0.0035142004
v -0.17345634 0.30329457 0.09723875
v -0.3476878 0.53623265 -0.14948194
v 0.028887302 0.47769117 -0.2881505
v 0.19455734 0.30451202 -0.40977442
v 0.18906078 0.4315659 -0.511457
v 0.059115082 0.5009691 -0.5302675
v -0.19447517 0.57315516 -0.292836
v -0.4613657 0.52519614 -0.28485638
v -0.30668718 0.5961051 -0.48900235
v 0.8063405 -0.104010314 0.27328798
v 0.55963403 -0.21616834 0.3139061
v 0.72859997 0.011867017 0.26328668
v 0.71972084 -0.26349568 0.2416558
v 0.90292776 -0.25542003 0.16808581
v 1.0213721 -0.19544569 0.040991783
v 0.97151196 -0.0747686 0.046237618
v 1.0120485 -0.10312861 -0.07985039
v 0.9559945 -0.034715354 -0.24013695
v 0.81190383 0.032201946 -0.22190106
v 0.7186347 0.050988615 9.298325E-06
v 0.62993854 0.03314787 0.20411307
v 0.5523747 0.0862641 -0.063744456
v 0.24756554 -0.3097602 -0.15396266
v 0.3083263 -0.07340163 -0.16244826
v 0.17291278 -0.057008564 -0.30000678
v 0.39068836 -0.1048491 0.063354194
v 0.039919794 -0.20061427 -0.36582896
v 0.4046929 -0.14144492 0.33738956
v 0.022572666 -0.4208249 -0.058982417
v -0.16653402 -0.37959045 -0.25439087
v -0.32664257 -0.44793302 -0.016086072
v 0.33265328 -0.40410858 0.35580698
v 0.3610214 -0.19175094 0.52929735
v 0.2414859 -0.35340267 0.60079396
v 0.044970334 -0.44508022 0.28047374
v -0.099226266 -0.5606081 0.6433972
v -0.3283751 -0.4374473 0.21138486
v -0.15427089 -0.48726517 0.14680812
vt 0.6677714 0.37981793
vt 0.7512277 0.42183596
vt 0.7543081 0.39923987
vt 0.736425 0.48983294
vt 0.8292892 0.46806324
vt 0.6514475 0.5578552
vt 0.6038002 0.41928262
vt 0.61313343 0.5689733
vt 0.61151874 0.6306447
vt 0.6839576 0.6487036
vt 0.72275084 0.55040926
vt 0.7686209 0.607973
vt 0.8270247 0.5319715
vt 0.8687147 0.52177435
vt 0.8687147 0.5984881
vt 0.7884022 0.657445
vt 0.06407827 0.398657
vt 0.14024651 0.39194477
vt 0.021516323 0.31681007
vt 0.21520984 0.36795548
vt 0.1724385 0.29288113
vt 0.27899247 0.31215808
vt 0.286966 0.398657
vt 0.3320128 0.30845356
vt 0.03373176 0.24488252
vt 0.12985843 0.21976435
vt 0.028342724 0.18893158
vt 0 0.2553147
vt 0.08831805 0.16311967
vt 0.15792629 0.094255686
vt 0.08667445 0.0044534802
vt 0.2828402 0.12823772
vt 0.34075692 0.21428365
vt 0.25206658 0
vt 0.63110214 0.29820496
vt 0.49572167 0.37981793
vt 0.6108001 0.37529764
vt 0.47652447 0.292548
vt 0.5652935 0.2171449
vt 0.63110214 0.19863415
vt 0.6223376 0.12141961
vt 0.38859805 0.28456587
vt 0.3711974 0.36634758
vt 0.47881344 0.21422875
vt 0.4783301 0.1041829
vt 0.5794277 0.11112493
vt 0.62652797 0.064294994
vt 0.53310823 0
vt 0.38955814 0.17960382
vt 0.34075692 0.2471835
vt 0.4783301 0.1041829
vt 0.43744287 0.09623462
vt 0.53310823 0
vt 0.5794277 0.11112493
vt 0.24322158 0.80145633
vt 0.33882415 0.8664299
vt 0.3332405 0.74388903
vt 0.22827977 0.7401328
vt 0.1927656 0.76998746
vt 0.33882415 0.68433964
vt 0.23264569 0.7237279
vt 0.97612613 0.016904838
vt 0.97388154 0
vt 0.92422396 0.0030658916
vt 0.90400994 0.10676407
vt 0.84860784 0.043228656
vt 0.9432312 0.17585158
vt 0.99999994 0.09070756
vt 0.99999994 0.17307696
vt 0.9737189 0.18719658
vt 0.9329934 0.20405674
vt 0.88296056 0.11847194
vt 0.8411081 0.14872906
vt 0.8285083 0.18712652
vt 0.94158137 0.66926324
vt 0.97570336 0.6900544
vt 0.95710194 0.66998816
vt 0.92716646 0.6858861
vt 0.859541 0.6702702
vt 0.9011123 0.657445
vt 0.8249662 0.71474814
vt 0.97473484 0.7194525
vt 0.9915598 0.7747401
vt 0.8594365 0.7406544
vt 0.8131112 0.7720159
vt 0.82323086 0.8415136
vt 0.9229584 0.784206
vt 0.9915598 0.7747401
vt 0.9851212 0.8532108
vt 0.88278925 0.8507242
vt 0.86588323 0.86895967
vt 0.98796153 0.86895967
vt 0.72816014 0.9397006
vt 0.81036264 0.92333674
vt 0.81311107 0.87302434
vt 0.7540677 0.8601837
vt 0.65049905 0.8901628
vt 0.8098008 0.7290031
vt 0.67745537 0.815287
vt 0.7504504 0.70101196
vt 0.81311107 0.657445
vt 0.6038001 0.7581382
vt 0.68797374 0.6768023
vt 0.606236 0.71490073
vt 0.6564402 0.6595171
vt 0.19276555 0.86038566
vt 0.19276558 0.79251486
vt 0.13700335 0.7632503
vt 0.1348885 0.8382149
vt 0.10441298 0.89049256
vt 0.040162753 0.84620786
vt 0.14969328 0.9718511
vt 0.06599068 0.9445183
vt 0.041993447 0.96216995
vt 0.008016594 0.9005857
vt 0.08145995 0.7966709
vt 0.08267035 0.7137478
vt 0.034882966 0.74778396
vt 0.010941297 0.80106163
vt 0 0.8049168
vt 0.00030848756 0.80896425
vt 0.010941297 0.80106163
vt 0.026120292 0.7200127
vt 0.034882966 0.74778396
vt 0.08267035 0.7137478
vt 0.098514706 0.68433964
vt 0.08667445 0.0044534802
vt 0.15792629 0.094255686
vt 0.25206658 0
vt 0.21511719 0.014683723
vt 0.12618248 0.43025997
vt 0.08303848 0.39865702
vt 0.002762556 0.4852866
vt 0.07354213 0.49074233
vt 0 0.610206
vt 0.16530378 0.52994835
vt 0.20196092 0.45262897
vt 0.2659296 0.51869124
vt 0.09716945 0.5872913
vt 0.051689252 0.68433964
vt 0.1370413 0.65575886
vt 0.22478946 0.60629994
vt 0.24316709 0.6555586
vt 0.26592958 0.5964488
vt 0.9737189 0.18719658
vt 0.9329934 0.20405674
vt 0.9244467 0.21433896
vt 0.9699313 0.19998503
vt 0.7992264 0
vt 0.7257422 0.017295033
vt 0.74944896 0.060117662
vt 0.82850844 0.043387383
vt 0.6895301 0.08236483
vt 0.76198614 0.2072602
vt 0.82850844 0.28352353
vt 0.77533865 0.31322876
vt 0.7262337 0.29081345
vt 0.6885849 0.16019739
vt 0.6505312 0.101735115
vt 0.6311022 0.19888197
vt 0.4722675 0.9321947
vt 0.5319353 0.9570407
vt 0.5117982 0.8966236
vt 0.46424514 0.95673263
vt 0.39892572 0.9439099
vt 0.35027212 0.8991293
vt 0.38562506 0.8684468
vt 0.3446911 0.84092796
vt 0.3407569 0.7743387
vt 0.3965881 0.75506485
vt 0.46970427 0.80979544
vt 0.5319353 0.868502
vt 0.5105692 0.7730317
vt 0.43154228 0.64238167
vt 0.34321415 0.65426314
vt 0.36383715 0.72334
vt 0.34075695 0.5616142
vt 0.43644264 0.75506485
vt 0.35567588 0.4622494
vt 0.51718736 0.6350443
vt 0.5400821 0.7340561
vt 0.60154516 0.6708152
vt 0.4550073 0.4466287
vt 0.38541588 0.39883292
vt 0.4640258 0.37981796
vt 0.5278876 0.51281226
vt 0.60380024 0.40060568
vt 0.60380024 0.5934796
vt 0.5808826 0.58567786
vn 0.32230502 -0.63098335 0.70567656
vn 0.2015111 -0.93640083 0.28730974
vn -0.3064582 -0.88978356 0.3381841
vn 0.5356099 -0.842383 0.059269898
vn -0.36916402 -0.927063 -0.06536097
vn 0.9040731 -0.42229542 0.06571359
vn 0.4865009 0.09704117 0.8682741
vn 0.9363136 0.0055847056 0.35112038
vn 0.83947974 0.53984207 -0.062002797
vn 0.8833343 -0.33259538 -0.3303043
vn 0.6645843 -0.6828059 -0.30348602
vn 0.37934393 -0.40292153 -0.832918
vn 0.06920554 -0.8334038 -0.54831433
vn -0.6997803 -0.6346603 -0.3278929
vn -0.46010834 -0.27062923 -0.8456122
vn -0.123771176 0.22313482 -0.9668979
vn -0.6628057 -0.014041218 -0.7486598
vn -0.81425744 0.40095842 -0.41978225
vn -0.92284554 -0.2660803 -0.278491
vn -0.75766706 0.6421783 -0.116394036
vn -0.8755133 0.35091576 0.33216664
vn -0.54661566 0.77009654 0.32888064
vn -0.10080246 0.93589556 -0.33754748
vn 0.13654262 0.9886619 0.062480297
vn -0.9265953 -0.3402739 0.16010931
vn -0.867705 0.13992433 0.47697937
vn -0.56249744 -0.81544536 0.13654864
vn -0.45198685 -0.8487739 -0.27439177
vn -0.84231216 -0.2668904 0.4682731
vn -0.76907974 0.026431505 0.63860613
vn -0.8260202 -0.35563594 0.43728
vn -0.37631017 0.48861697 0.7871748
vn -0.18930252 0.8326329 0.52046806
vn -0.22967492 0.35833263 0.9049017
vn 0.9765271 0.08917356 -0.19606857
vn 0.6150289 0.7075407 -0.34803113
vn 0.8399317 0.12376391 -0.5283912
vn 0.6318452 0.7733867 -0.051425554
vn 0.8788476 0.47549942 0.03908085
vn 0.9968369 -0.062251493 0.04940628
vn 0.90387267 -0.17424832 0.39070675
vn 0.13654262 0.9886619 0.062480297
vn -0.10080246 0.93589556 -0.33754748
vn 0.5718457 0.79465765 0.2037442
vn 0.7672 0.5637222 0.30597603
vn 0.88932353 0.1587932 0.42882216
vn 0.56351674 -0.61953187 0.5464698
vn 0.23164056 -0.37692362 0.8968117
vn -0.18930252 0.8326329 0.52046806
vn -0.54661566 0.77009654 0.32888064
vn 0.08186958 0.56740576 0.81935835
vn -0.37631017 0.48861697 0.7871748
vn -0.22967492 0.35833263 0.9049017
vn 0.13206667 0.35940835 0.92378783
vn 0.13413908 0.90743554 -0.39820537
vn -0.2679438 0.6876856 -0.67475516
vn -0.12947392 0.47383764 -0.87104213
vn 0.010130258 0.5427265 -0.8398483
vn 0.42864892 0.8814964 -0.19805104
vn -0.008405076 0.242387 -0.9701432
vn -0.008405076 0.242387 -0.9701432
vn -0.93456453 -0.33696043 0.11422328
vn -0.79910433 -0.30469468 0.5182601
vn -0.97805256 -0.17562357 -0.11211465
vn -0.9947543 -0.041283287 -0.093592316
vn -0.6426246 0.76578724 -0.024565905
vn -0.94442874 -0.2669329 0.19183625
vn -0.82272995 -0.56358033 -0.07411209
vn -0.3110492 -0.9325409 0.18334652
vn -0.8753563 -0.44296303 -0.1937397
vn -0.45672488 -0.20942673 0.86460555
vn -0.8666032 0.39885187 0.29985997
vn -0.27960172 0.82409054 0.49264354
vn 0.18434717 0.7001798 0.6897567
vn 0.19859558 -0.7560043 0.6237126
vn -0.3110492 -0.9325409 0.18334652
vn 0.06284024 -0.6956644 0.7156132
vn 0.5334443 -0.81531525 0.22516273
vn 0.639398 -0.41657227 0.64624906
vn 0.26160452 -0.5224873 0.8115233
vn 0.9486374 -0.15971836 0.27308813
vn 0.17043188 -0.96156085 -0.21529877
vn -0.82272995 -0.56358033 -0.07411209
vn 0.8106021 -0.54082537 -0.22457065
vn 0.95674103 0.26871163 -0.11153733
vn 0.8284786 -0.26880383 -0.491292
vn 0.5303826 -0.6833175 -0.5017683
vn 0.40666887 -0.74956393 -0.5222782
vn 0.45530272 -0.6268369 -0.63227767
vn 0.6835668 -0.43498152 -0.5861122
vn 0.79569703 -0.28600582 -0.5339167
vn 0.46830836 -0.582643 -0.6642398
vn 0.36273256 0.42967957 -0.82692236
vn 0.83947974 0.53984207 -0.062002797
vn 0.41073394 0.89007026 -0.19766794
vn 0.17311308 0.62912667 -0.7577807
vn 0.37934393 -0.40292153 -0.832918
vn -0.22294103 0.9244168 -0.30943653
vn -0.123771176 0.22313482 -0.9668979
vn -0.54580855 0.6378584 -0.5433503
vn -0.6206306 0.7832106 0.037402377
vn -0.46010834 -0.27062923 -0.8456122
vn -0.79705447 0.29940626 -0.5244616
vn -0.6997803 -0.6346603 -0.3278929
vn -0.94008934 -0.3131069 -0.13489258
vn -0.6206306 0.7832106 0.037402377
vn -0.15631053 0.93736166 0.31132004
vn -0.4205853 0.63585496 0.64714485
vn -0.84927547 0.48292467 0.21334226
vn -0.9827272 0.18502446 -0.0036113353
vn -0.8966681 -0.38607672 0.21663582
vn -0.79705447 0.29940626 -0.5244616
vn -0.94008934 -0.3131069 -0.13489258
vn -0.6997803 -0.6346603 -0.3278929
vn -0.36916402 -0.927063 -0.06536097
vn -0.8389879 0.116305545 0.5315752
vn -0.2902209 0.43011293 0.8548536
vn -0.73525894 -0.0004135031 0.67778623
vn -0.8236129 -0.23201443 0.5175239
vn -0.3064582 -0.88978356 0.3381841
vn 0.2015111 -0.93640083 0.28730974
vn -0.41201684 -0.86383486 0.28988189
vn 0.32230502 -0.63098335 0.70567656
vn -0.024205822 -0.59723586 0.8017003
vn 0.11797913 -0.32477206 0.93840504
vn 0.4865009 0.09704117 0.8682741
vn -0.094562024 -0.39296326 0.9146791
vn -0.094562024 -0.39296326 0.9146791
vn 0.23164056 -0.37692362 0.8968117
vn 0.56351674 -0.61953187 0.5464698
vn 0.5302578 0.18063173 -0.8283711
vn 0.8399317 0.12376391 -0.5283912
vn 0.6150289 0.7075407 -0.34803113
vn 0.31640756 0.556602 -0.76816684
vn -0.10080246 0.93589556 -0.33754748
vn -0.17946874 0.26103732 -0.94849914
vn 0.21074268 -0.27289537 -0.9386776
vn -0.45743838 -0.36354032 -0.81153464
vn -0.29384163 0.6258553 -0.72246945
vn -0.75766706 0.6421783 -0.116394036
vn -0.81425744 0.40095842 -0.41978225
vn -0.6628057 -0.014041218 -0.7486598
vn -0.92284554 -0.2660803 -0.278491
vn -0.45198685 -0.8487739 -0.27439177
vn 0.06284024 -0.6956644 0.7156132
vn -0.45672488 -0.20942673 0.86460555
vn 0.26160452 -0.5224873 0.8115233
vn 0.19859558 -0.7560043 0.6237126
vn -0.2902209 0.43011293 0.8548536
vn -0.4205853 0.63585496 0.64714485
vn 0.24250251 0.75832427 0.6050925
vn 0.4865009 0.09704117 0.8682741
vn -0.15631053 0.93736166 0.31132004
vn 0.595421 0.69961387 0.39498636
vn 0.9363136 0.0055847056 0.35112038
vn 0.83947974 0.53984207 -0.062002797
vn 0.41073394 0.89007026 -0.19766794
vn 0.15129451 0.97227037 0.17832652
vn -0.6206306 0.7832106 0.037402377
vn -0.22294103 0.9244168 -0.30943653
vn 0.49691772 0.10822913 0.86102223
vn -0.45672488 -0.20942673 0.86460555
vn 0.18434717 0.7001798 0.6897567
vn 0.26160452 -0.5224873 0.8115233
vn 0.639398 -0.41657227 0.64624906
vn 0.9486374 -0.15971836 0.27308813
vn 0.71490836 0.6223618 0.3187035
vn 0.95674103 0.26871163 -0.11153733
vn 0.42864892 0.8814964 -0.19805104
vn 0.13413908 0.90743554 -0.39820537
vn 0.2818249 0.95471424 0.09537028
vn -0.27960172 0.82409054 0.49264354
vn -0.6426246 0.76578724 -0.024565905
vn 0.62810814 -0.6156426 -0.4758826
vn 0.8399317 0.12376391 -0.5283912
vn 0.5302578 0.18063173 -0.8283711
vn 0.9765271 0.08917356 -0.19606857
vn 0.21074268 -0.27289537 -0.9386776
vn 0.9968369 -0.062251493 0.04940628
vn 0.21247193 -0.92901367 -0.30296755
vn 0.16305147 -0.89234024 -0.42088377
vn -0.45198685 -0.8487739 -0.27439177
vn 0.7057588 -0.7083771 0.010318723
vn 0.90387267 -0.17424832 0.39070675
vn 0.56351674 -0.61953187 0.5464698
vn 0.22707905 -0.9694288 -0.0929673
vn 0.20636792 -0.97744703 -0.044826444
vn -0.56249744 -0.81544536 0.13654864
vn 0.027583038 -0.99125844 -0.12901849
g RockGrouping4_0
f 3/3/3 2/2/2 1/1/1
f 2/2/2 4/4/4 1/1/1
f 2/2/2 5/5/5 4/4/4
f 4/4/4 6/6/6 1/1/1
f 1/1/1 6/6/6 7/7/7
f 6/6/6 8/8/8 7/7/7
f 8/8/8 6/6/6 9/9/9
f 6/6/6 10/10/10 9/9/9
f 10/10/10 6/6/6 11/11/11
f 6/6/6 4/4/4 11/11/11
f 12/12/12 10/10/10 11/11/11
f 5/5/5 13/13/13 4/4/4
f 4/4/4 13/13/13 11/11/11
f 13/13/13 12/12/12 11/11/11
f 5/5/5 14/14/14 13/13/13
f 14/14/14 15/15/15 13/13/13
f 12/12/12 13/13/13 15/15/15
f 16/16/16 12/12/12 15/15/15
f 19/19/19 18/18/18 17/17/17
f 18/18/18 19/19/19 20/20/20
f 19/19/19 21/21/21 20/20/20
f 20/20/20 21/21/21 22/22/22
f 20/20/20 22/22/22 23/23/23
f 22/22/22 24/24/24 23/23/23
f 21/21/21 19/19/19 25/25/25
f 21/21/21 26/26/26 22/22/22
f 26/26/26 21/21/21 25/25/25
f 27/27/27 25/25/25 19/19/19
f 28/28/28 27/27/27 19/19/19
f 25/25/25 27/27/27 29/29/29
f 26/26/26 25/25/25 29/29/29
f 30/30/30 29/29/29 27/27/27
f 29/29/29 30/30/30 26/26/26
f 31/31/31 30/30/30 27/27/27
f 26/26/26 32/32/32 22/22/22
f 26/26/26 30/30/30 32/32/32
f 32/32/32 33/33/33 22/22/22
f 30/30/30 34/34/34 32/32/32
f 37/37/37 36/36/36 35/35/35
f 35/35/35 36/36/36 38/38/38
f 35/35/35 38/38/38 39/39/39
f 35/35/35 39/39/39 40/40/40
f 40/40/40 39/39/39 41/41/41
f 38/38/38 36/36/36 42/42/42
f 36/36/36 43/43/43 42/42/42
f 38/38/38 42/42/42 44/44/44
f 38/38/38 44/44/44 39/39/39
f 44/44/44 45/45/45 39/39/39
f 45/45/45 46/46/46 39/39/39
f 39/39/39 46/46/46 41/41/41
f 41/41/41 46/46/46 47/47/47
f 46/46/46 48/48/48 47/47/47
f 42/42/42 49/49/49 44/44/44
f 42/42/42 50/50/50 49/49/49
f 51/51/51 44/44/44 49/49/49
f 52/52/52 51/51/51 49/49/49
f 51/51/51 52/52/52 53/53/53
f 54/54/54 51/51/51 53/53/53
f 57/57/57 56/56/56 55/55/55
f 55/55/55 58/58/58 57/57/57
f 55/55/55 59/59/59 58/58/58
f 60/60/60 57/57/57 58/58/58
f 61/61/61 60/60/60 58/58/58
f 64/64/64 63/63/63 62/62/62
f 65/65/65 64/64/64 62/62/62
f 66/66/66 64/64/64 65/65/65
f 67/67/67 65/65/65 62/62/62
f 62/62/62 68/68/68 67/67/67
f 68/68/68 69/69/69 67/67/67
f 67/67/67 69/69/69 70/70/70
f 70/70/70 71/71/71 67/67/67
f 66/66/66 65/65/65 72/72/72
f 67/67/67 72/72/72 65/65/65
f 71/71/71 72/72/72 67/67/67
f 66/66/66 72/72/72 73/73/73
f 71/71/71 73/73/73 72/72/72
f 73/73/73 71/71/71 74/74/74
f 77/77/77 76/76/76 75/75/75
f 78/78/78 75/75/75 76/76/76
f 78/78/78 79/79/79 75/75/75
f 79/79/79 80/80/80 75/75/75
f 81/81/81 79/79/79 78/78/78
f 76/76/76 82/82/82 78/78/78
f 83/83/83 82/82/82 76/76/76
f 84/84/84 81/81/81 78/78/78
f 78/78/78 82/82/82 84/84/84
f 81/81/81 84/84/84 85/85/85
f 84/84/84 86/86/86 85/85/85
f 82/82/82 87/87/87 84/84/84
f 82/82/82 88/88/88 87/87/87
f 88/88/88 89/89/89 87/87/87
f 84/84/84 90/90/90 86/86/86
f 90/90/90 84/84/84 87/87/87
f 87/87/87 89/89/89 90/90/90
f 90/90/90 91/91/91 86/86/86
f 89/89/89 92/92/92 90/90/90
f 95/95/95 94/94/94 93/93/93
f 96/96/96 95/95/95 93/93/93
f 96/96/96 93/93/93 97/97/97
f 96/96/96 98/98/98 95/95/95
f 99/99/99 96/96/96 97/97/97
f 98/98/98 96/96/96 99/99/99
f 100/100/100 98/98/98 99/99/99
f 101/101/101 98/98/98 100/100/100
f 99/99/99 102/102/102 100/100/100
f 103/103/103 101/101/101 100/100/100
f 102/102/102 103/103/103 100/100/100
f 102/102/102 104/104/104 103/103/103
f 104/104/104 105/105/105 103/103/103
f 108/108/108 107/107/107 106/106/106
f 109/109/109 108/108/108 106/106/106
f 110/110/110 109/109/109 106/106/106
f 110/110/110 111/111/111 109/109/109
f 112/112/112 110/110/110 106/106/106
f 113/113/113 110/110/110 112/112/112
f 110/110/110 113/113/113 111/111/111
f 111/111/111 113/113/113 114/114/114
f 115/115/115 111/111/111 114/114/114
f 109/109/109 116/116/116 108/108/108
f 111/111/111 116/116/116 109/109/109
f 108/108/108 116/116/116 117/117/117
f 116/116/116 118/118/118 117/117/117
f 118/118/118 116/116/116 119/119/119
f 116/116/116 111/111/111 119/119/119
f 120/120/120 111/111/111 115/115/115
f 121/121/121 120/120/120 115/115/115
f 111/111/111 120/120/120 122/122/122
f 120/120/120 123/123/123 122/122/122
f 123/123/123 124/124/124 122/122/122
f 125/125/125 124/124/124 123/123/123
f 126/126/126 125/125/125 123/123/123
f 129/129/129 128/128/128 127/127/127
f 130/130/130 129/129/129 127/127/127
f 133/133/133 132/132/132 131/131/131
f 134/134/134 133/133/133 131/131/131
f 135/135/135 133/133/133 134/134/134
f 136/136/136 134/134/134 131/131/131
f 137/137/137 136/136/136 131/131/131
f 136/136/136 137/137/137 138/138/138
f 139/139/139 135/135/135 134/134/134
f 136/136/136 139/139/139 134/134/134
f 140/140/140 135/135/135 139/139/139
f 141/141/141 140/140/140 139/139/139
f 141/141/141 139/139/139 136/136/136
f 142/142/142 141/141/141 136/136/136
f 142/142/142 136/136/136 138/138/138
f 143/143/143 142/142/142 138/138/138
f 144/144/144 143/143/143 138/138/138
f 147/147/147 146/146/146 145/145/145
f 148/148/148 147/147/147 145/145/145
f 151/151/151 150/150/150 149/149/149
f 152/152/152 151/151/151 149/149/149
f 153/153/153 150/150/150 151/151/151
f 152/152/152 154/154/154 151/151/151
f 153/153/153 151/151/151 154/154/154
f 152/152/152 155/155/155 154/154/154
f 156/156/156 154/154/154 155/155/155
f 154/154/154 156/156/156 157/157/157
f 158/158/158 153/153/153 154/154/154
f 157/157/157 158/158/158 154/154/154
f 159/159/159 153/153/153 158/158/158
f 158/158/158 157/157/157 160/160/160
f 160/160/160 159/159/159 158/158/158
f 163/163/163 162/162/162 161/161/161
f 162/162/162 164/164/164 161/161/161
f 161/161/161 164/164/164 165/165/165
f 165/165/165 166/166/166 161/161/161
f 167/167/167 161/161/161 166/166/166
f 167/167/167 163/163/163 161/161/161
f 168/168/168 167/167/167 166/166/166
f 168/168/168 169/169/169 167/167/167
f 167/167/167 169/169/169 170/170/170
f 163/163/163 167/167/167 171/171/171
f 171/171/171 167/167/167 170/170/170
f 163/163/163 171/171/171 172/172/172
f 171/171/171 170/170/170 173/173/173
f 171/171/171 173/173/173 172/172/172
f 176/176/176 175/175/175 174/174/174
f 175/175/175 177/177/177 174/174/174
f 178/178/178 176/176/176 174/174/174
f 177/177/177 179/179/179 174/174/174
f 174/174/174 180/180/180 178/178/178
f 180/180/180 181/181/181 178/178/178
f 182/182/182 181/181/181 180/180/180
f 179/179/179 183/183/183 174/174/174
f 174/174/174 183/183/183 180/180/180
f 183/183/183 179/179/179 184/184/184
f 185/185/185 183/183/183 184/184/184
f 183/183/183 185/185/185 186/186/186
f 183/183/183 186/186/186 180/180/180
f 185/185/185 187/187/187 186/186/186
f 187/187/187 188/188/188 186/186/186
f 188/188/188 182/182/182 189/189/189
f 189/189/189 182/182/182 180/180/180
f 188/188/188 189/189/189 186/186/186
f 186/186/186 189/189/189 180/180/180
