g rock.002_LOD1
v 0.124106064 -0.17373721 -8.452813
v 0.068315364 -0.11269939 -9.300017
v 0.026583156 -0.20725898 -7.523513
v 0.026583156 -0.20725898 -7.523513
v -0.13172075 0.10057716 -8.259349
v -0.07917433 -0.13320105 -6.5887976
v 0.026583156 -0.20725898 -7.523513
v 0.068315364 -0.11269939 -9.300017
v -0.13172075 0.10057716 -8.259349
v -0.18497962 0.12503186 -5.128561
v -0.113997 -0.13434106 -4.1120234
v -0.07917433 -0.13320105 -6.5887976
v -0.06921102 0.17079723 5.7958064
v 0.04085651 0.16989785 8.439428
v -0.12787229 -0.1702749 8.535358
v -0.05391138 0.11717267 -9.218395
v -0.13172075 0.10057716 -8.259349
v 0.068315364 -0.11269939 -9.300017
v 0.13157873 -0.114550464 -8.12099
v 0.124106064 -0.17373721 -8.452813
v 0.026583156 -0.20725898 -7.523513
v -0.16522022 0.1522437 -1.9061745
v -0.113997 -0.13434106 -4.1120234
v -0.18497962 0.12503186 -5.128561
v 0.026583156 -0.20725898 -7.523513
v 0.061860316 -0.2880695 -4.367917
v 0.17657603 -0.19460763 -7.056872
v 0.13157873 -0.114550464 -8.12099
v 0.13157873 -0.114550464 -8.12099
v -0.05391138 0.11717267 -9.218395
v 0.124106064 -0.17373721 -8.452813
v 0.068315364 -0.11269939 -9.300017
v -0.13172075 0.10057716 -8.259349
v -0.10343517 0.19720644 -8.155099
v -0.17154713 0.18131265 -7.134568
v -0.05391138 0.11717267 -9.218395
v -0.080986395 0.2464475 -7.1948094
v -0.12890555 0.24486113 -6.1271024
v -0.17154713 0.18131265 -7.134568
v -0.10343517 0.19720644 -8.155099
v -0.12890555 0.24486113 -6.1271024
v -0.18497962 0.12503186 -5.128561
v -0.07917433 -0.13320105 -6.5887976
v -0.17154713 0.18131265 -7.134568
v -0.13172075 0.10057716 -8.259349
v -0.16522022 0.1522437 -1.9061745
v -0.12690994 -0.25381193 0.5331377
v -0.113997 -0.13434106 -4.1120234
v -0.14313893 0.10322157 2.911079
v -0.17749387 -0.17692184 3.044668
v -0.17203262 -0.18410185 6.4729567
v -0.06921102 0.17079723 5.7958064
v -0.12787229 -0.1702749 8.535358
v 0.16730551 -0.17717168 -1.2815868
v 0.062431358 -0.3073235 -2.0102668
v 0.056711636 -0.29418722 0.88112664
v 0.16548817 -0.18789098 -4.185612
v 0.061860316 -0.2880695 -4.367917
v 0.17657603 -0.19460763 -7.056872
v -0.07917433 -0.13320105 -6.5887976
v -0.113997 -0.13434106 -4.1120234
v 0.026583156 -0.20725898 -7.523513
v 0.061860316 -0.2880695 -4.367917
v -0.05508246 -0.2452809 -3.0446775
v -0.12690994 -0.25381193 0.5331377
v 0.061860316 -0.2880695 -4.367917
v -0.05508246 -0.2452809 -3.0446775
v 0.062431358 -0.3073235 -2.0102668
v -0.12690994 -0.25381193 0.5331377
v 0.056711636 -0.29418722 0.88112664
v -0.14477566 -0.2628192 3.720494
v -0.046027124 -0.30126646 3.6378424
v -0.11527087 -0.2737454 5.8421016
v 0.12094825 0.2704302 6.1466103
v 0.18560876 0.15866324 5.8119564
v 0.13399054 0.16144417 8.413274
v 0.09585562 0.28919625 3.1467206
v 0.1796482 0.17690618 3.3198988
v 0.15983649 0.19846334 1.2153459
v 0.04853908 0.27984557 -0.5286008
v 0.1465962 0.13014346 -2.235318
v 0.060259853 0.22626267 -3.5340264
v 0.16785708 -0.08781046 -4.8181973
v 0.12378433 0.041266568 -6.1294026
v 0.009945931 0.25420102 -4.926141
v 0.17657603 -0.19460763 -7.056872
v 0.13157873 -0.114550464 -8.12099
v 0.16548817 -0.18789098 -4.185612
v 0.1465962 0.13014346 -2.235318
v 0.16730551 -0.17717168 -1.2815868
v 0.1520249 -0.017706662 1.077721
v 0.15983649 0.19846334 1.2153459
v 0.1796482 0.17690618 3.3198988
v 0.12957628 -0.10095982 4.097744
v 0.18560876 0.15866324 5.8119564
v 0.056711636 -0.29418722 0.88112664
v 0.16730551 -0.17717168 -1.2815868
v 0.046706155 -0.2635679 3.4048038
v 0.07113216 -0.21259923 5.3887324
v 0.0013206487 -0.20223287 6.5898995
v 0.13399054 0.16144417 8.413274
v -0.056145497 -0.16010328 8.699548
v 0.069282375 0.11587734 9.259075
v -0.059363596 -0.09006438 9.292824
v 0.12378433 0.041266568 -6.1294026
v 0.009945931 0.25420102 -4.926141
v -0.12890555 0.24486113 -6.1271024
v -0.080986395 0.2464475 -7.1948094
v 0.13157873 -0.114550464 -8.12099
v -0.10343517 0.19720644 -8.155099
v -0.05391138 0.11717267 -9.218395
v 0.09585562 0.28919625 3.1467206
v -0.036414307 0.30217275 -0.20503522
v 0.04853908 0.27984557 -0.5286008
v 0.060259853 0.22626267 -3.5340264
v -0.108200006 0.26780108 -4.5499477
v 0.009945931 0.25420102 -4.926141
v -0.12890555 0.24486113 -6.1271024
v -0.036414307 0.30217275 -0.20503522
v 0.09585562 0.28919625 3.1467206
v -0.046241038 0.27378175 2.3439012
v 0.12094825 0.2704302 6.1466103
v -0.06921102 0.17079723 5.7958064
v -0.046241038 0.27378175 2.3439012
v 0.12094825 0.2704302 6.1466103
v 0.052287977 0.24394287 6.662964
v 0.04085651 0.16989785 8.439428
v 0.04085651 0.16989785 8.439428
v -0.059363596 -0.09006438 9.292824
v -0.12787229 -0.1702749 8.535358
v 0.069282375 0.11587734 9.259075
v -0.18497962 0.12503186 -5.128561
v -0.12890555 0.24486113 -6.1271024
v -0.108200006 0.26780108 -4.5499477
v -0.16522022 0.1522437 -1.9061745
v -0.036414307 0.30217275 -0.20503522
v -0.14313893 0.10322157 2.911079
v -0.046241038 0.27378175 2.3439012
v -0.06921102 0.17079723 5.7958064
v -0.12690994 -0.25381193 0.5331377
v -0.17749387 -0.17692184 3.044668
v -0.14477566 -0.2628192 3.720494
v -0.17203262 -0.18410185 6.4729567
v -0.11527087 -0.2737454 5.8421016
v -0.12787229 -0.1702749 8.535358
v 0.12957628 -0.10095982 4.097744
v -0.046027124 -0.30126646 3.6378424
v 0.07113216 -0.21259923 5.3887324
v 0.046706155 -0.2635679 3.4048038
v 0.056711636 -0.29418722 0.88112664
v -0.046027124 -0.30126646 3.6378424
v -0.11527087 -0.2737454 5.8421016
v 0.07113216 -0.21259923 5.3887324
v 0.0013206487 -0.20223287 6.5898995
v -0.12787229 -0.1702749 8.535358
v -0.056145497 -0.16010328 8.699548
v -0.059363596 -0.09006438 9.292824
v 0.13399054 0.16144417 8.413274
v 0.069282375 0.11587734 9.259075
v 0.04085651 0.16989785 8.439428
v 0.052287977 0.24394287 6.662964
v 0.12094825 0.2704302 6.1466103
vt 0.41813534 -0.37024048
vt 0.7579243 -0.42274606
vt 0.3208759 -0.26901639
vt 0.3208759 -0.26901639
vt 0.07565429 -0.26664826
vt 0.1412814 -0.1339435
vt 1.0983764 -0.31976765
vt 0.7579243 -0.42274606
vt 0.9505578 -0.27458197
vt 0.032384556 0.035227932
vt 0.1259996 0.11681835
vt 0.1412814 -0.1339435
vt 0.873359 1.0744174
vt 0.6957332 1.307086
vt 1.0986054 1.3506092
vt 0.90664124 -0.38784438
vt 0.9505578 -0.27458197
vt 0.7579243 -0.42274606
vt 0.47319573 -0.33262503
vt 0.41813534 -0.37024048
vt 0.3208759 -0.26901639
vt 0.9664328 0.35238793
vt 1.0213581 0.117354214
vt 0.97923535 0.0361314
vt 0.3208759 -0.26901639
vt 0.3220049 0.048215203
vt 0.4087341 -0.2367246
vt 0.47319573 -0.33262503
vt 0.47319573 -0.33262503
vt 0.90664124 -0.38784438
vt 0.41813534 -0.37024048
vt 0.7579243 -0.42274606
vt 0.9505578 -0.27458197
vt 0.88418746 -0.2764976
vt 0.92602456 -0.15557536
vt 0.90664124 -0.38784438
vt 0.9063279 -0.15416078
vt 0.91013986 -0.055994786
vt 0.92602456 -0.15557536
vt 0.88418746 -0.2764976
vt 0.91013986 -0.055994786
vt 0.97923535 0.0361314
vt 1.0883493 -0.13244548
vt 0.92602456 -0.15557536
vt 0.9505578 -0.27458197
vt 0.023039063 0.29755518
vt 0.17837636 0.5680958
vt 0.1259996 0.11681835
vt 0.028160583 0.8367393
vt 0.10063438 0.83600414
vt 0.1473623 1.1571444
vt 0.047639787 1.1826277
vt 0.16394877 1.3535334
vt 0.44862205 0.3257666
vt 0.34078747 0.26974294
vt 0.2957742 0.56962943
vt 0.41785106 0.04784869
vt 0.3220049 0.048215203
vt 0.4087341 -0.2367246
vt 0.1412814 -0.1339435
vt 0.1259996 0.11681835
vt 0.3208759 -0.26901639
vt 0.3220049 0.048215203
vt 0.22159772 0.2042028
vt 0.17837636 0.5680958
vt 0.3220049 0.048215203
vt 0.22159772 0.2042028
vt 0.34078747 0.26974294
vt 0.17837636 0.5680958
vt 0.2957742 0.56962943
vt 0.16255574 0.8873522
vt 0.25104505 0.85313153
vt 0.20109373 1.0847921
vt 0.697929 1.0822346
vt 0.5531499 1.0226287
vt 0.6834984 1.2955577
vt 0.70732653 0.7884023
vt 0.6076529 0.7804177
vt 0.64116895 0.579862
vt 0.72337866 0.41772026
vt 0.59808344 0.24908745
vt 0.7246517 0.13205265
vt 0.480461 -0.012520878
vt 0.66445994 -0.1278644
vt 0.7786697 0.011134109
vt 0.4087341 -0.2367246
vt 0.47319573 -0.33262503
vt 0.41785106 0.04784869
vt 0.59808344 0.24908745
vt 0.44862205 0.3257666
vt 0.5347109 0.56225616
vt 0.64116895 0.579862
vt 0.6076529 0.7804177
vt 0.41053978 0.86483335
vt 0.5531499 1.0226287
vt 0.2957742 0.56962943
vt 0.44862205 0.3257666
vt 0.31090355 0.81292266
vt 0.372068 1.0018816
vt 0.34834287 1.1270216
vt 0.6834984 1.2955577
vt 0.19639973 1.3586936
vt 0.6170851 1.38152
vt 0.18885289 1.4116483
vt 0.66445994 -0.1278644
vt 0.7786697 0.011134109
vt 0.91013986 -0.055994786
vt 0.9063279 -0.15416078
vt 0.47319573 -0.33262503
vt 0.88418746 -0.2764976
vt 0.90664124 -0.38784438
vt 0.70732653 0.7884023
vt 0.82250714 0.4976903
vt 0.72337866 0.41772026
vt 0.7246517 0.13205265
vt 0.8505098 0.07501749
vt 0.7786697 0.011134109
vt 0.91013986 -0.055994786
vt 0.82250714 0.4976903
vt 0.70732653 0.7884023
vt 0.81772727 0.762746
vt 0.697929 1.0822346
vt 0.873359 1.0744174
vt 0.81772727 0.762746
vt 0.697929 1.0822346
vt 0.72965795 1.1425622
vt 0.6957332 1.307086
vt 0.61390835 0.22741137
vt 0.68073046 0.79190195
vt 0.97966087 1.0872159
vt 0.16320935 0.20264584
vt 0.97923535 0.0361314
vt 0.91013986 -0.055994786
vt 0.8505098 0.07501749
vt 0.9664328 0.35238793
vt 0.82250714 0.4976903
vt 0.98664516 0.82327366
vt 0.81772727 0.762746
vt 0.873359 1.0744174
vt 0.17837636 0.5680958
vt 0.10063438 0.83600414
vt 0.16255574 0.8873522
vt 0.1473623 1.1571444
vt 0.20109373 1.0847921
vt 0.16394877 1.3535334
vt 0.41053978 0.86483335
vt 0.25104505 0.85313153
vt 0.372068 1.0018816
vt 0.31090355 0.81292266
vt 0.2957742 0.56962943
vt 0.25104505 0.85313153
vt 0.20109373 1.0847921
vt 0.372068 1.0018816
vt 0.34834287 1.1270216
vt 0.16394877 1.3535334
vt 0.19639973 1.3586936
vt 0.18885289 1.4116483
vt 0.6834984 1.2955577
vt 0.68393934 1.3621598
vt 0.6957332 1.307086
vt 0.72965795 1.1425622
vt 0.697929 1.0822346
vn -0.20577222 -0.97694814 -0.0568347
vn -0.20577222 -0.97694814 -0.0568347
vn -0.20577222 -0.97694814 -0.0568347
vn -0.8339647 -0.54950505 -0.05047
vn -0.8407857 -0.5389131 -0.05149755
vn -0.83362925 -0.5499884 -0.050744362
vn -0.8339647 -0.54950505 -0.05047
vn -0.8799067 -0.4695193 -0.07291039
vn -0.8407857 -0.5389131 -0.05149755
vn -0.9586915 -0.28398436 -0.016232276
vn -0.9716654 -0.23629713 0.0054812664
vn -0.98098123 -0.19293596 0.021247886
vn -0.9475136 0.31920648 0.018032221
vn -0.88722515 0.4597499 0.038229916
vn -0.89453316 0.44571087 0.033946183
vn -0.891615 -0.44566196 -0.080050275
vn -0.8407857 -0.5389131 -0.05149755
vn -0.8799067 -0.4695193 -0.07291039
vn 0.8574054 -0.5096372 0.071594335
vn 0.8574054 -0.5096372 0.071594335
vn 0.8574054 -0.5096372 0.071594335
vn -0.991306 -0.13147977 -0.005054004
vn -0.9716654 -0.23629713 0.0054812664
vn -0.9586915 -0.28398436 -0.016232276
vn 0.32532686 -0.9422938 -0.07902316
vn 0.16746382 -0.9855054 -0.02710957
vn 0.18415168 -0.9823584 -0.03255888
vn 0.3429877 -0.93549675 -0.084884174
vn 0.9327104 0.3508076 -0.0835776
vn 0.8853804 0.46392474 -0.02958841
vn 0.92774427 0.3651966 -0.07695514
vn 0.8791998 0.47586766 -0.023613041
vn -0.9358018 0.34611845 -0.06691099
vn -0.93854636 0.33983722 -0.060344197
vn -0.93972075 0.33707893 -0.05746888
vn -0.9345724 0.34886137 -0.06978698
vn -0.5953149 0.8030503 -0.02665297
vn -0.5948333 0.8034445 -0.02550263
vn -0.5950791 0.80324364 -0.026089445
vn -0.5955625 0.8028468 -0.02724529
vn -0.9956797 -0.08481253 -0.0377996
vn -0.9586915 -0.28398436 -0.016232276
vn -0.98098123 -0.19293596 0.021247886
vn -0.9596494 -0.28119916 0.0003747605
vn -0.95350736 -0.30112484 -0.012147504
vn -0.991306 -0.13147977 -0.005054004
vn -0.9977696 -0.06671049 0.0023465028
vn -0.9716654 -0.23629713 0.0054812664
vn -0.94728637 0.32038334 -0.0017769835
vn -0.9929558 0.11825607 -0.007368123
vn -0.9520665 0.30537796 0.017714825
vn -0.9475136 0.31920648 0.018032221
vn -0.89453316 0.44571087 0.033946183
vn 0.76690865 -0.64174217 0.0042474316
vn 0.7715977 -0.6361081 0.0018721416
vn 0.76638436 -0.64236695 0.00443448
vn 0.70033383 -0.7138063 -0.0036036207
vn 0.69312584 -0.7208136 0.0021002777
vn 0.6910582 -0.72278595 0.004359429
vn -0.62669635 -0.7792097 -0.009169812
vn -0.68676823 -0.7262274 -0.030710546
vn -0.6447119 -0.7643571 -0.0102296565
vn -0.6720854 -0.7402749 -0.017154953
vn -0.7968804 -0.6038451 -0.018778017
vn -0.80325663 -0.5953747 -0.017545642
vn -0.41567734 -0.90948266 -0.0073266975
vn -0.41473567 -0.9099114 -0.007459387
vn -0.39249548 -0.9197029 -0.009691741
vn -0.22302437 -0.9748097 0.0024588204
vn -0.21192473 -0.9772819 -0.002804337
vn -0.36266333 -0.9319104 -0.004298999
vn -0.3712972 -0.92844003 -0.011724945
vn -0.36263838 -0.93192995 0.00024375519
vn 0.8837449 0.46774325 0.014537873
vn 0.8625934 0.5058957 -0.0014823162
vn 0.88680285 0.4618312 0.017103197
vn 0.800949 0.5987319 -0.0008972658
vn 0.800232 0.5996882 0.0016487802
vn 0.69872224 0.71531284 -0.0107181035
vn 0.7427609 0.6693712 -0.015757704
vn 0.7993019 0.6008602 -0.009131295
vn 0.90137404 0.43226516 -0.025913833
vn 0.98639154 0.16440909 0.0011352197
vn 0.96365076 0.2670247 -0.00865922
vn 0.8330796 0.55282634 -0.019014526
vn 0.9594163 0.28143442 -0.017749079
vn 0.95738465 0.2882034 -0.018801464
vn 0.99978286 0.019913951 0.0061478135
vn 0.9980755 0.062009085 -0.0005083517
vn 0.9974502 0.07135379 0.0013332876
vn 0.98365086 -0.18008167 0.0012537743
vn 0.9994823 -0.03125224 -0.0076420465
vn 0.98581886 -0.16780521 0.0015629454
vn 0.97649354 -0.2155446 -0.0009589819
vn 0.9366262 -0.34795743 0.04070487
vn 0.9398065 -0.34114066 0.019666359
vn 0.93837667 -0.34436554 0.029353201
vn 0.8742387 -0.48540625 0.00935539
vn 0.9464529 -0.321772 0.02626317
vn 0.90858775 -0.41693246 0.0252138
vn 0.8762411 -0.4806367 0.03449686
vn 0.8718233 -0.48801365 0.042032324
vn 0.85927236 -0.5082137 0.058049906
vn 0.8511002 -0.52082515 0.066102356
vn 0.6490434 0.760243 -0.027807124
vn 0.6250428 0.77665293 -0.07830564
vn 0.627091 0.7785797 -0.023882154
vn 0.793393 0.6075949 -0.036821768
vn 0.8009361 0.5979671 -0.03060736
vn 0.79969335 0.59974074 -0.028313797
vn 0.7989244 0.60137755 -0.008054896
vn 0.23455957 0.9720862 -0.0054929345
vn 0.2327459 0.97251624 -0.0064389585
vn 0.19762364 0.9801515 -0.015747126
vn 0.30347607 0.9527688 -0.011570311
vn 0.15682153 0.98757845 0.009789674
vn 0.07633458 0.9970092 -0.012070271
vn 0.06588663 0.9977087 -0.015376813
vn -0.1654342 0.9861666 0.010346512
vn -0.14997701 0.9886606 0.007562739
vn -0.16474107 0.9862839 0.010221578
vn -0.14926049 0.98877 0.0074338173
vn -0.4968788 0.8676266 0.018315272
vn -0.49636078 0.86782235 0.022587795
vn -0.4538703 0.89104 -0.007039118
vn -0.634247 0.7727676 0.023681732
vn -0.65180045 0.75789565 0.027395645
vn -0.88722515 0.4597499 0.038229916
vn -0.8567919 0.5126618 0.055548504
vn -0.89453316 0.44571087 0.033946183
vn -0.8415695 0.5362803 0.06453085
vn -0.8885325 0.45878962 0.0047011944
vn -0.88904124 0.45779973 0.005012946
vn -0.8822365 0.47080263 0.0018890343
vn -0.80646574 0.5912196 0.008506686
vn -0.8111315 0.5847868 0.009499808
vn -0.94728637 0.32038334 -0.0017769835
vn -0.8652199 0.50138396 0.0029587736
vn -0.9475136 0.31920648 0.018032221
vn -0.91709185 -0.39862674 -0.0062669655
vn -0.9179713 -0.3966018 -0.0059670173
vn -0.9345188 -0.35591328 0.0005574172
vn -0.77628386 -0.6300645 0.020051915
vn -0.8152535 -0.5790354 0.008926876
vn -0.7720797 -0.6351856 0.020790324
vn 0.75918543 -0.65084285 -0.0064086705
vn 0.609807 -0.78828275 0.08213234
vn 0.773812 -0.63310844 -0.019717546
vn 0.44316387 -0.8958898 0.03142096
vn 0.40378994 -0.91476357 0.012699551
vn 0.361669 -0.9320228 0.022998
vn 0.3723771 -0.9276142 0.02944902
vn 0.36342016 -0.93132097 0.023812668
vn 0.33544272 -0.94133395 0.036993384
vn 0.07272482 -0.9968161 0.032691892
vn -0.09536414 -0.9900995 0.10299848
vn -0.124996446 -0.9853935 0.11565211
vn 0.10252672 0.9934714 0.05002883
vn 0.10739106 0.99230206 0.06167538
vn 0.105155475 0.9930165 0.05348455
vn -0.020931605 0.99862576 0.048046064
vn -0.02314077 0.99857223 0.04814666
g rock.002_LOD1_0
f 3/3/3 2/2/2 1/1/1
f 6/6/6 5/5/5 4/4/4
f 9/9/9 8/8/8 7/7/7
f 12/12/12 11/11/11 10/10/10
f 15/15/15 14/14/14 13/13/13
f 18/18/18 17/17/17 16/16/16
f 21/21/21 20/20/20 19/19/19
f 24/24/24 23/23/23 22/22/22
f 27/27/27 26/26/26 25/25/25
f 25/25/25 28/28/28 27/27/27
f 31/31/31 30/30/30 29/29/29
f 32/32/32 30/30/30 31/31/31
f 35/35/35 34/34/34 33/33/33
f 36/36/36 33/33/33 34/34/34
f 39/39/39 38/38/38 37/37/37
f 39/39/39 37/37/37 40/40/40
f 43/43/43 42/42/42 41/41/41
f 44/44/44 43/43/43 41/41/41
f 44/44/44 45/45/45 43/43/43
f 48/48/48 47/47/47 46/46/46
f 46/46/46 47/47/47 49/49/49
f 47/47/47 50/50/50 49/49/49
f 51/51/51 49/49/49 50/50/50
f 52/52/52 49/49/49 51/51/51
f 53/53/53 52/52/52 51/51/51
f 56/56/56 55/55/55 54/54/54
f 55/55/55 57/57/57 54/54/54
f 57/57/57 55/55/55 58/58/58
f 59/59/59 57/57/57 58/58/58
f 62/62/62 61/61/61 60/60/60
f 61/61/61 62/62/62 63/63/63
f 63/63/63 64/64/64 61/61/61
f 64/64/64 65/65/65 61/61/61
f 68/68/68 67/67/67 66/66/66
f 68/68/68 69/69/69 67/67/67
f 69/69/69 68/68/68 70/70/70
f 69/69/69 70/70/70 71/71/71
f 70/70/70 72/72/72 71/71/71
f 72/72/72 73/73/73 71/71/71
f 76/76/76 75/75/75 74/74/74
f 74/74/74 75/75/75 77/77/77
f 75/75/75 78/78/78 77/77/77
f 77/77/77 78/78/78 79/79/79
f 79/79/79 80/80/80 77/77/77
f 79/79/79 81/81/81 80/80/80
f 82/82/82 80/80/80 81/81/81
f 82/82/82 81/81/81 83/83/83
f 82/82/82 83/83/83 84/84/84
f 84/84/84 85/85/85 82/82/82
f 84/84/84 83/83/83 86/86/86
f 87/87/87 84/84/84 86/86/86
f 86/86/86 83/83/83 88/88/88
f 88/88/88 83/83/83 89/89/89
f 90/90/90 88/88/88 89/89/89
f 90/90/90 89/89/89 91/91/91
f 89/89/89 92/92/92 91/91/91
f 93/93/93 91/91/91 92/92/92
f 93/93/93 94/94/94 91/91/91
f 94/94/94 93/93/93 95/95/95
f 96/96/96 91/91/91 94/94/94
f 91/91/91 96/96/96 97/97/97
f 98/98/98 96/96/96 94/94/94
f 99/99/99 94/94/94 95/95/95
f 100/100/100 99/99/99 95/95/95
f 100/100/100 95/95/95 101/101/101
f 101/101/101 102/102/102 100/100/100
f 102/102/102 101/101/101 103/103/103
f 102/102/102 103/103/103 104/104/104
f 107/107/107 106/106/106 105/105/105
f 108/108/108 107/107/107 105/105/105
f 105/105/105 109/109/109 108/108/108
f 109/109/109 110/110/110 108/108/108
f 111/111/111 110/110/110 109/109/109
f 114/114/114 113/113/113 112/112/112
f 115/115/115 113/113/113 114/114/114
f 115/115/115 116/116/116 113/113/113
f 117/117/117 116/116/116 115/115/115
f 116/116/116 117/117/117 118/118/118
f 121/121/121 120/120/120 119/119/119
f 121/121/121 122/122/122 120/120/120
f 125/125/125 124/124/124 123/123/123
f 125/125/125 123/123/123 126/126/126
f 123/123/123 127/127/127 126/126/126
f 130/130/130 129/129/129 128/128/128
f 131/131/131 128/128/128 129/129/129
f 134/134/134 133/133/133 132/132/132
f 135/135/135 134/134/134 132/132/132
f 134/134/134 135/135/135 136/136/136
f 135/135/135 137/137/137 136/136/136
f 137/137/137 138/138/138 136/136/136
f 138/138/138 137/137/137 139/139/139
f 142/142/142 141/141/141 140/140/140
f 143/143/143 141/141/141 142/142/142
f 144/144/144 143/143/143 142/142/142
f 143/143/143 144/144/144 145/145/145
f 148/148/148 147/147/147 146/146/146
f 149/149/149 146/146/146 147/147/147
f 150/150/150 149/149/149 147/147/147
f 153/153/153 152/152/152 151/151/151
f 154/154/154 152/152/152 153/153/153
f 152/152/152 154/154/154 155/155/155
f 156/156/156 155/155/155 154/154/154
f 155/155/155 156/156/156 157/157/157
f 160/160/160 159/159/159 158/158/158
f 161/161/161 160/160/160 158/158/158
f 158/158/158 162/162/162 161/161/161
