g rock.011_LOD1
v -0.052062515 0.13544677 9.505249
v 0.015032785 -0.01747306 9.785508
v -0.15554799 0.12351909 9.40983
v -0.052062515 0.13544677 9.505249
v 0.11249361 -0.0394968 9.482572
v 0.015032785 -0.01747306 9.785508
v 0.113961846 -0.19428638 5.3097577
v -0.13211653 -0.25361973 4.0587053
v -0.036103405 -0.2702772 4.8276443
v 0.14687532 -0.25763485 1.1101098
v -0.01878697 -0.26831016 1.0219839
v 0.113961846 -0.19428638 5.3097577
v -0.13211653 -0.25361973 4.0587053
v 0.113961846 -0.19428638 5.3097577
v -0.01878697 -0.26831016 1.0219839
v 0.14865272 0.015121804 8.627319
v 0.11249361 -0.0394968 9.482572
v -0.052062515 0.13544677 9.505249
v -0.14355075 0.21140781 8.375979
v 0.027143935 0.20018801 5.094566
v 0.21264909 0.059125397 5.2085996
v 0.20929399 0.07814306 3.1482816
v -0.11748126 0.23777847 3.7306325
v -0.099792235 0.25369847 2.4796677
v 0.2070728 0.1518785 0.57355016
v -0.14333679 0.28009057 -0.70670074
v 0.1265468 0.26393762 -3.3754194
v 0.21546824 0.15311514 -1.4738777
v -0.1354998 0.27352893 -5.4456487
v 0.21049923 0.16547915 -3.6510167
v 0.07857722 0.31368214 -6.3105187
v -0.122966535 0.29435402 -6.9739943
v 0.2175576 0.2246792 -6.0735903
v 0.1970484 0.28088778 -8.176758
v -0.122966535 0.29435402 -6.9739943
v 0.002862167 0.33386728 -8.701147
v 0.14134128 0.29014567 -9.640644
v 0.054733638 0.2690871 -9.861697
v -0.05397627 0.25814053 -9.243886
v -0.122966535 0.29435402 -6.9739943
v 0.21951833 -0.07661519 -4.91313
v 0.210524 0.12018978 -8.81894
v 0.1970484 0.28088778 -8.176758
v 0.14134128 0.29014567 -9.640644
v 0.16587634 0.065107286 -9.753886
v 0.11393177 0.14834538 -9.912689
v 0.054733638 0.2690871 -9.861697
v 0.15017095 -0.30212533 -8.64037
v 0.17489439 -0.29855627 -7.505265
v 0.19863756 -0.23502682 -3.8686872
v 0.22297521 -0.094884254 -2.0613601
v 0.21546824 0.15311514 -1.4738777
v 0.20642692 -0.19316232 -1.233152
v 0.2070728 0.1518785 0.57355016
v 0.20955789 -0.15158801 1.4560822
v 0.20929399 0.07814306 3.1482816
v 0.20899935 -0.11477106 5.19003
v 0.21264909 0.059125397 5.2085996
v 0.14865272 0.015121804 8.627319
v 0.11249361 -0.0394968 9.482572
v -0.016797483 -0.14929895 9.4099865
v 0.113961846 -0.19428638 5.3097577
v 0.20955789 -0.15158801 1.4560822
v 0.14687532 -0.25763485 1.1101098
v -0.052169256 -0.33056656 -2.6997285
v -0.036103405 -0.2702772 4.8276443
v -0.116455324 -0.16089892 8.522358
v -0.16027123 -0.18266341 6.471661
v -0.13211653 -0.25361973 4.0587053
v -0.1956815 -0.18651326 2.456908
v -0.01878697 -0.26831016 1.0219839
v -0.19078948 -0.0060319244 6.042174
v -0.116455324 -0.16089892 8.522358
v -0.08354782 -0.07317427 9.479277
v -0.18867767 -0.18937962 0.9389481
v -0.20628841 0.20641237 3.4272835
v -0.20600384 0.12838002 8.61271
v -0.08354782 -0.07317427 9.479277
v -0.06953573 -0.25679287 0.17277542
v 0.14687532 -0.25763485 1.1101098
v -0.052169256 -0.33056656 -2.6997285
v -0.14113156 -0.25850523 -3.053342
v 0.027298078 -0.3079891 -3.6006284
v -0.19963841 0.11796652 -3.2544246
v -0.14333679 0.28009057 -0.70670074
v -0.1354998 0.27352893 -5.4456487
v -0.1842754 -0.16767403 -4.167288
v -0.16862656 -0.034402907 -5.495642
v -0.11543158 -0.27533525 -6.78154
v -0.16625367 0.13240038 -7.0802155
v -0.122966535 0.29435402 -6.9739943
v -0.05397627 0.25814053 -9.243886
v -0.083224565 0.085922085 -9.266458
v -0.14261717 -0.116372116 -7.701559
v -0.0703822 -0.20886984 -9.037944
v 0.029257065 -0.31186175 -9.4008
v -0.0547792 -0.32137597 -6.1593466
v 0.17489439 -0.29855627 -7.505265
v 0.15017095 -0.30212533 -8.64037
v 0.08158438 -0.28166842 -9.427564
v 0.19863756 -0.23502682 -3.8686872
v 0.20642692 -0.19316232 -1.233152
v -0.052169256 -0.33056656 -2.6997285
v 0.20955789 -0.15158801 1.4560822
v -0.14355075 0.21140781 8.375979
v -0.052062515 0.13544677 9.505249
v -0.15554799 0.12351909 9.40983
v -0.20600384 0.12838002 8.61271
v -0.20628841 0.20641237 3.4272835
v -0.11748126 0.23777847 3.7306325
v 0.027143935 0.20018801 5.094566
v -0.099792235 0.25369847 2.4796677
v -0.14333679 0.28009057 -0.70670074
v 0.015032785 -0.01747306 9.785508
v 0.11249361 -0.0394968 9.482572
v 0.0004539933 -0.06952955 9.782474
v -0.016797483 -0.14929895 9.4099865
v -0.116455324 -0.16089892 8.522358
v -0.08354782 -0.07317427 9.479277
v -0.016797483 -0.14929895 9.4099865
v 0.0004539933 -0.06952955 9.782474
v 0.08158438 -0.28166842 -9.427564
v 0.15017095 -0.30212533 -8.64037
v 0.210524 0.12018978 -8.81894
v 0.16587634 0.065107286 -9.753886
v 0.09370551 -0.015699334 -9.855202
v 0.11393177 0.14834538 -9.912689
v -0.08354782 -0.07317427 9.479277
v 0.015032785 -0.01747306 9.785508
v 0.0004539933 -0.06952955 9.782474
v -0.15554799 0.12351909 9.40983
v -0.20600384 0.12838002 8.61271
v 0.09370551 -0.015699334 -9.855202
v 0.029257065 -0.31186175 -9.4008
v 0.08158438 -0.28166842 -9.427564
v 0.020660305 -0.0019758407 -9.835978
v 0.11393177 0.14834538 -9.912689
v 0.054733638 0.2690871 -9.861697
v 0.020660305 -0.0019758407 -9.835978
v -0.0703822 -0.20886984 -9.037944
v -0.083224565 0.085922085 -9.266458
v 0.054733638 0.2690871 -9.861697
v -0.05397627 0.25814053 -9.243886
vt 0.22134024 0.5646783
vt 0.74035144 0.7980679
vt 0.1807348 0.30755568
vt 0.22134024 0.5646783
vt 0.7624271 0.98499143
vt 0.74035144 0.7980679
vt 0.3124442 0.9198979
vt 0.04050675 0.85712636
vt 0.22428441 0.86343336
vt 0.4014353 0.47956336
vt 0.4034701 0.55252016
vt 0.3124442 0.9198979
vt 0.04050675 0.85712636
vt 0.3124442 0.9198979
vt 0.4034701 0.55252016
vt 0.6073578 1.3281311
vt 0.5192432 1.3793097
vt 1.2640383 1.5265219
vt 1.1699729 1.4549595
vt 1.0115106 1.1552994
vt 0.6509464 0.99684966
vt 0.7002373 0.8510091
vt 1.1467757 1.0944413
vt 1.2025359 1.0048623
vt 0.6955467 0.5987208
vt 1.1936233 0.7420231
vt 0.97477746 0.42622277
vt 0.74515545 0.44660044
vt 1.240128 0.32007858
vt 0.7424089 0.23236242
vt 0.9820169 0.16915892
vt 1.2461646 0.19763766
vt 0.8399297 0.1008754
vt 0.88106966 -0.058219366
vt 1.240538 0.14591557
vt 1.0952804 0.008940291
vt 0.9301324 -0.16554318
vt 1.035351 -0.1651014
vt 1.1809468 -0.06409711
vt 1.240538 0.14591557
vt 0.60625863 0.013943495
vt 0.74675834 -0.2336453
vt 0.88106966 -0.058219366
vt 0.9301324 -0.16554318
vt 0.7583767 -0.29738396
vt 0.91886055 -0.22496888
vt 1.035351 -0.1651014
vt 0.43938327 -0.39742222
vt 0.43630219 -0.31186056
vt 0.50359476 0.04738795
vt 0.5719396 0.24496144
vt 0.74515545 0.44660044
vt 0.47153464 0.2749048
vt 0.6955467 0.5987208
vt 0.5403081 0.5455424
vt 0.7002373 0.8510091
vt 0.52183974 0.894639
vt 0.6509464 0.99684966
vt 0.6073578 1.3281311
vt 0.5192432 1.3793097
vt 0.21124847 1.3556138
vt 0.3124442 0.9198979
vt 0.5403081 0.5455424
vt 0.4014353 0.47956336
vt 0.12996076 0.17893028
vt 0.22428441 0.86343336
vt -0.0025223326 1.316967
vt -0.087330125 1.1558883
vt 0.04050675 0.85712636
vt -0.1412315 0.827015
vt 0.4034701 0.55252016
vt -0.17995511 1.1878664
vt -0.0025223326 1.316967
vt -0.0029163938 1.4094722
vt -0.039483663 0.60821193
vt -0.43303826 1.1046835
vt -0.35347366 1.5392715
vt -0.18684179 1.4150944
vt 0.12381166 0.4720109
vt 0.4014353 0.47956336
vt 0.12996076 0.17893028
vt 0.0065676086 0.19680518
vt 0.20251058 0.08964601
vt -0.32646558 0.43127412
vt -0.5600037 0.57178456
vt -0.49409878 0.3121212
vt -0.14865842 0.18976721
vt -0.31440803 0.19417372
vt -0.050343923 -0.10241054
vt -0.3993085 0.09486845
vt -0.54932564 0.21893474
vt -0.57886636 -0.03820887
vt -0.50251645 -0.10241477
vt -0.2556159 -0.06478612
vt -0.23168617 -0.18952248
vt 0.10881592 -0.37143078
vt 0.099375665 -0.12561978
vt 0.43630219 -0.31186056
vt 0.43938327 -0.39742222
vt 0.27664658 -0.4255391
vt 0.50359476 0.04738795
vt 0.47153464 0.2749048
vt 0.12996076 0.17893028
vt 0.5403081 0.5455424
vt -0.49020538 1.4856472
vt -0.4666318 1.5420892
vt -0.33512974 1.5517037
vt -0.35347366 1.5392715
vt -0.43303826 1.1046835
vt -0.5759413 1.1129563
vt -0.54966706 1.2853869
vt -0.5212506 1.0680315
vt -0.52747136 0.9315145
vt 0.74035144 0.7980679
vt 0.7624271 0.98499143
vt 0.8288888 0.71673155
vt 0.99999994 0.8065096
vt -0.0025223326 1.316967
vt -0.0029163938 1.4094722
vt 0.21124847 1.3556138
vt 0.22814047 1.4060935
vt 0.9017574 0.17378767
vt 0.46235615 0.0071902676
vt 0.29183644 0.021083781
vt 0.24591795 0.19781649
vt 0.420954 0.3050061
vt 0.15244937 0.39382884
vt 0.7664561 0.39258623
vt 0.74035144 0.7980679
vt 0.8288888 0.71673155
vt 0.1807348 0.30755568
vt 0.17768763 0.004957945
vt 0.420954 0.3050061
vt 0.93827575 0.3250708
vt 0.9017574 0.17378767
vt 0.49555588 0.53174794
vt 0.15244937 0.39382884
vt 0.0581805 0.5667342
vt 0.49555588 0.53174794
vt 0.85112965 0.69912696
vt 0.3681415 0.913238
vt 0.0581805 0.5667342
vt 0.15633896 0.8829595
vn -0.469594 0.7810331 0.4116657
vn -0.5385786 0.6787185 0.49927372
vn -0.28486657 0.94402987 0.1663093
vn 0.7097307 0.69523484 0.11371375
vn 0.7308058 0.6716103 0.121911556
vn 0.72760373 0.6602777 0.1860812
vn 0.53505075 -0.84457606 0.020294845
vn 0.19669083 -0.9804345 0.0078103114
vn 0.20171815 -0.97859246 -0.040823203
vn 0.051500946 -0.99865013 0.0067535825
vn -0.17624313 -0.98434573 -0.0013767448
vn 0.53505075 -0.84457606 0.020294845
vn 0.19669083 -0.9804345 0.0078103114
vn 0.53505075 -0.84457606 0.020294845
vn -0.17624313 -0.98434573 -0.0013767448
vn 0.56600976 0.8241308 0.021010678
vn 0.7308058 0.6716103 0.121911556
vn 0.7097307 0.69523484 0.11371375
vn -0.1658664 0.9858396 0.024666496
vn 0.4089937 0.9124956 0.008709634
vn 0.59891397 0.8006508 0.016137855
vn 0.4606525 0.88748056 0.013324013
vn 0.036478426 0.9993262 -0.004048624
vn 0.07497546 0.99700755 0.018830786
vn 0.34056613 0.94020134 0.006010623
vn 0.2656328 0.963879 0.019405026
vn 0.44190034 0.89706105 0.0023614494
vn 0.7503128 0.6610741 0.0034408888
vn -0.106500745 0.9941607 0.017378062
vn 0.94784755 0.31865764 0.006511284
vn 0.20206866 0.9792843 0.013059677
vn -0.029206958 0.99948835 -0.013035109
vn 0.8761777 0.48197603 0.0034126746
vn 0.18131407 0.9830488 0.027207857
vn -0.029206958 0.99948835 -0.013035109
vn -0.22905104 0.97321564 -0.019669393
vn -0.06533734 0.9962909 -0.05599505
vn -0.19749784 0.97824895 -0.06343161
vn -0.8210275 0.56327856 -0.092903815
vn -0.9610975 0.27584904 -0.014105066
vn 0.99769115 -0.067914926 0.00016401854
vn 0.99892646 0.018066077 -0.042655136
vn 0.99276114 0.11975802 -0.009135722
vn 0.9669011 0.21858595 -0.13161433
vn 0.9685167 -0.1281715 -0.21341845
vn 0.9246031 0.17283213 -0.33946756
vn 0.7725427 0.52782446 -0.3529576
vn 0.9872521 -0.1541084 -0.039799247
vn 0.99848384 0.050662696 -0.021526825
vn 0.999111 -0.041880224 0.0048290556
vn 0.9977791 -0.06660938 0.00010218421
vn 0.9998841 -0.010113794 0.011382671
vn 0.99965143 -0.02532604 0.0074553485
vn 0.999995 0.0030576775 -0.0008582892
vn 0.9999831 0.0057757986 -0.0007126622
vn 1 -0.000191893 5.2969754E-05
vn 0.90392035 -0.42754948 0.011370725
vn 0.9997197 -0.021933787 0.0089119645
vn 0.97217417 -0.2328267 0.025866322
vn 0.6494007 -0.75294745 0.106530726
vn 0.60150415 -0.79618967 0.06538175
vn 0.53505075 -0.84457606 0.020294845
vn 0.84468925 -0.53516626 0.009857123
vn 0.9051434 -0.42373586 -0.034109198
vn 0.9116565 -0.40902144 -0.03979949
vn 0.20171815 -0.97859246 -0.040823203
vn -0.1268155 -0.9915697 0.026596459
vn -0.80399764 -0.5942084 0.022455895
vn -0.7901743 -0.61283183 0.007854018
vn -0.867575 -0.49720305 -0.010133641
vn -0.17624313 -0.98434573 -0.0013767448
vn -0.99288285 -0.11899435 0.0048959884
vn -0.9991867 0.025152626 0.031517405
vn -0.9454827 -0.24009202 0.22004154
vn -0.8338172 -0.55202377 0.004310072
vn -0.9995511 -0.02987686 0.0021971266
vn -0.89673233 -0.44206187 0.021270487
vn -0.9454827 -0.24009202 0.22004154
vn -0.28080973 -0.95961875 0.016668616
vn 0.051500946 -0.99865013 0.0067535825
vn -0.63594294 -0.7717099 0.0063552503
vn -0.71080977 -0.70287746 -0.026696144
vn 0.088304855 -0.9960359 0.010714493
vn -0.98768985 0.15640473 -0.0025215016
vn -0.9096583 0.4153091 -0.006325776
vn -0.9928227 0.1193718 -0.007321544
vn -0.9689265 -0.24720642 -0.008389991
vn -0.9999161 -0.0021790166 -0.012771436
vn -0.81302685 -0.58210576 -0.011836326
vn -0.9941577 0.106388055 -0.018222038
vn -0.9610975 0.27584904 -0.014105066
vn -0.8210275 0.56327856 -0.092903815
vn -0.9925721 0.02483984 -0.11909512
vn -0.98572344 -0.16538216 -0.031590518
vn -0.9272568 -0.3683808 -0.06700946
vn -0.34683177 -0.8989813 -0.2674706
vn -0.2647644 -0.96431303 0.00033672797
vn 0.10141946 -0.9948437 -8.380302E-05
vn 0.08094695 -0.99671835 -0.00010933825
vn 0.31879452 -0.87514997 -0.36398146
vn 0.40925774 -0.91232234 0.013269086
vn 0.40785694 -0.9129443 0.013617545
vn 0.40942746 -0.91224605 0.013275889
vn 0.40775865 -0.9129878 0.0136396345
vn -0.1658664 0.9858396 0.024666496
vn -0.469594 0.7810331 0.4116657
vn -0.28486657 0.94402987 0.1663093
vn -0.73283446 0.67893136 0.044786323
vn -0.35477182 0.9349284 0.006768977
vn 0.036478426 0.9993262 -0.004048624
vn 0.4089937 0.9124956 0.008709634
vn 0.07497546 0.99700755 0.018830786
vn 0.2656328 0.963879 0.019405026
vn 0.9098176 -0.27302155 0.31255594
vn 0.6494007 -0.75294745 0.106530726
vn 0.8613713 -0.4242954 0.27930817
vn 0.60150415 -0.79618967 0.06538175
vn -0.70756066 -0.7010759 0.0886028
vn -0.6674536 -0.7279608 0.15677574
vn -0.69118863 -0.7130528 0.11753273
vn -0.6471668 -0.73875785 0.18818067
vn 0.961422 -0.26592502 -0.07036783
vn 0.9872521 -0.1541084 -0.039799247
vn 0.99892646 0.018066077 -0.042655136
vn 0.9685167 -0.1281715 -0.21341845
vn 0.87160707 -0.3561903 -0.336793
vn 0.9246031 0.17283213 -0.33946756
vn -0.9454827 -0.24009202 0.22004154
vn -0.95144534 0.115721956 0.28523695
vn -0.9346383 0.24683139 0.2559792
vn -0.9446938 -0.29582477 0.14156717
vn -0.89673233 -0.44206187 0.021270487
vn -0.29214036 -0.5511935 -0.7815623
vn -0.34683177 -0.8989813 -0.2674706
vn 0.31879452 -0.87514997 -0.36398146
vn -0.37479335 -0.52479684 -0.7642762
vn -0.5908015 -0.044538084 -0.80558676
vn -0.6430232 0.008163557 -0.7658031
vn -0.9823751 -0.0057572946 -0.18683144
vn -0.9272568 -0.3683808 -0.06700946
vn -0.9925721 0.02483984 -0.11909512
vn -0.974614 0.120175496 -0.18890609
vn -0.8210275 0.56327856 -0.092903815
g rock.011_LOD1_0
f 3/3/3 2/2/2 1/1/1
f 6/6/6 5/5/5 4/4/4
f 9/9/9 8/8/8 7/7/7
f 12/12/12 11/11/11 10/10/10
f 15/15/15 14/14/14 13/13/13
f 18/18/18 17/17/17 16/16/16
f 16/16/16 19/19/19 18/18/18
f 19/19/19 16/16/16 20/20/20
f 21/21/21 20/20/20 16/16/16
f 22/22/22 20/20/20 21/21/21
f 22/22/22 23/23/23 20/20/20
f 24/24/24 23/23/23 22/22/22
f 25/25/25 24/24/24 22/22/22
f 26/26/26 24/24/24 25/25/25
f 27/27/27 26/26/26 25/25/25
f 28/28/28 27/27/27 25/25/25
f 27/27/27 29/29/29 26/26/26
f 30/30/30 27/27/27 28/28/28
f 27/27/27 31/31/31 29/29/29
f 29/29/29 31/31/31 32/32/32
f 27/27/27 33/33/33 31/31/31
f 27/27/27 30/30/30 33/33/33
f 33/33/33 34/34/34 31/31/31
f 31/31/31 34/34/34 35/35/35
f 36/36/36 35/35/35 34/34/34
f 36/36/36 34/34/34 37/37/37
f 37/37/37 38/38/38 36/36/36
f 39/39/39 36/36/36 38/38/38
f 40/40/40 36/36/36 39/39/39
f 41/41/41 33/33/33 30/30/30
f 33/33/33 41/41/41 42/42/42
f 33/33/33 42/42/42 43/43/43
f 42/42/42 44/44/44 43/43/43
f 44/44/44 42/42/42 45/45/45
f 46/46/46 44/44/44 45/45/45
f 44/44/44 46/46/46 47/47/47
f 48/48/48 42/42/42 41/41/41
f 49/49/49 48/48/48 41/41/41
f 50/50/50 49/49/49 41/41/41
f 41/41/41 30/30/30 50/50/50
f 50/50/50 30/30/30 51/51/51
f 30/30/30 52/52/52 51/51/51
f 50/50/50 51/51/51 53/53/53
f 53/53/53 51/51/51 52/52/52
f 52/52/52 54/54/54 53/53/53
f 53/53/53 54/54/54 55/55/55
f 56/56/56 55/55/55 54/54/54
f 56/56/56 57/57/57 55/55/55
f 57/57/57 56/56/56 58/58/58
f 57/57/57 58/58/58 59/59/59
f 59/59/59 60/60/60 57/57/57
f 57/57/57 60/60/60 61/61/61
f 57/57/57 61/61/61 62/62/62
f 62/62/62 63/63/63 57/57/57
f 64/64/64 63/63/63 62/62/62
f 63/63/63 64/64/64 65/65/65
f 61/61/61 66/66/66 62/62/62
f 66/66/66 61/61/61 67/67/67
f 67/67/67 68/68/68 66/66/66
f 69/69/69 66/66/66 68/68/68
f 70/70/70 69/69/69 68/68/68
f 70/70/70 71/71/71 69/69/69
f 68/68/68 72/72/72 70/70/70
f 73/73/73 72/72/72 68/68/68
f 73/73/73 74/74/74 72/72/72
f 75/75/75 71/71/71 70/70/70
f 72/72/72 76/76/76 70/70/70
f 70/70/70 76/76/76 75/75/75
f 77/77/77 76/76/76 72/72/72
f 77/77/77 72/72/72 78/78/78
f 75/75/75 79/79/79 71/71/71
f 71/71/71 79/79/79 80/80/80
f 79/79/79 81/81/81 80/80/80
f 82/82/82 81/81/81 79/79/79
f 79/79/79 75/75/75 82/82/82
f 83/83/83 81/81/81 82/82/82
f 76/76/76 84/84/84 75/75/75
f 76/76/76 85/85/85 84/84/84
f 85/85/85 86/86/86 84/84/84
f 75/75/75 84/84/84 87/87/87
f 75/75/75 87/87/87 82/82/82
f 86/86/86 88/88/88 84/84/84
f 87/87/87 84/84/84 88/88/88
f 89/89/89 82/82/82 87/87/87
f 87/87/87 88/88/88 89/89/89
f 90/90/90 88/88/88 86/86/86
f 90/90/90 86/86/86 91/91/91
f 91/91/91 92/92/92 90/90/90
f 93/93/93 90/90/90 92/92/92
f 88/88/88 90/90/90 94/94/94
f 94/94/94 90/90/90 93/93/93
f 94/94/94 89/89/89 88/88/88
f 93/93/93 95/95/95 94/94/94
f 89/89/89 94/94/94 95/95/95
f 96/96/96 89/89/89 95/95/95
f 82/82/82 89/89/89 97/97/97
f 97/97/97 89/89/89 96/96/96
f 97/97/97 83/83/83 82/82/82
f 97/97/97 96/96/96 98/98/98
f 83/83/83 97/97/97 98/98/98
f 98/98/98 96/96/96 99/99/99
f 96/96/96 100/100/100 99/99/99
f 98/98/98 101/101/101 83/83/83
f 102/102/102 83/83/83 101/101/101
f 103/103/103 83/83/83 102/102/102
f 104/104/104 103/103/103 102/102/102
f 107/107/107 106/106/106 105/105/105
f 107/107/107 105/105/105 108/108/108
f 109/109/109 108/108/108 105/105/105
f 105/105/105 110/110/110 109/109/109
f 110/110/110 105/105/105 111/111/111
f 112/112/112 109/109/109 110/110/110
f 112/112/112 113/113/113 109/109/109
f 116/116/116 115/115/115 114/114/114
f 117/117/117 115/115/115 116/116/116
f 120/120/120 119/119/119 118/118/118
f 121/121/121 119/119/119 120/120/120
f 124/124/124 123/123/123 122/122/122
f 124/124/124 122/122/122 125/125/125
f 122/122/122 126/126/126 125/125/125
f 127/127/127 125/125/125 126/126/126
f 130/130/130 129/129/129 128/128/128
f 128/128/128 129/129/129 131/131/131
f 131/131/131 132/132/132 128/128/128
f 135/135/135 134/134/134 133/133/133
f 134/134/134 136/136/136 133/133/133
f 136/136/136 137/137/137 133/133/133
f 136/136/136 138/138/138 137/137/137
f 134/134/134 140/140/140 139/139/139
f 139/139/139 140/140/140 141/141/141
f 141/141/141 142/142/142 139/139/139
f 143/143/143 142/142/142 141/141/141
