g rock.015_LOD1
v 0.20418821 0.06447651 -1.9894118
v 0.19905904 -0.081141345 -4.549244
v 0.19494945 -0.02801916 -1.4300219
v 0.17782249 0.0018096245 0.41727018
v 0.19494945 -0.02801916 -1.4300219
v 0.03428704 -0.03442351 -1.3995906
v -0.15128048 -0.14566557 2.0301971
v -0.03753037 -0.050220452 3.0155337
v 0.036410663 0.017608257 1.5476938
v 0.13595252 -0.061760947 -9.420785
v 0.19161555 -0.03113636 -9.013191
v 0.12271195 -0.017680671 -9.436144
v 0.16110897 0.092789575 2.8277917
v 0.18035924 0.037994124 1.4377732
v 0.13105471 0.06633414 3.7404883
v 0.10100289 0.15972506 -1.4572028
v 0.20418821 0.06447651 -1.9894118
v 0.1568208 0.12703815 0.66363937
v -0.0009856079 -0.025242766 -0.16995795
v 0.17782249 0.0018096245 0.41727018
v 0.03428704 -0.03442351 -1.3995906
v 0.014183315 0.070637785 7.448987
v -0.051504567 0.06586625 8.4448595
v -0.040622845 0.10010326 8.159174
v 0.12271195 -0.017680671 -9.436144
v 0.074580595 -0.06291081 -9.439097
v 0.13595252 -0.061760947 -9.420785
v 0.16851243 0.04372414 -8.540972
v -0.004706723 0.1350583 -7.3846893
v 0.082663365 0.0730082 -8.69502
v 0.17782249 0.0018096245 0.41727018
v 0.18035924 0.037994124 1.4377732
v 0.19494945 -0.02801916 -1.4300219
v -0.19504169 -0.15944532 -0.8846131
v -0.15128048 -0.14566557 2.0301971
v -0.16882275 -0.17151913 -1.2120616
v 0.12271195 -0.017680671 -9.436144
v 0.024700515 -0.003164954 -9.291032
v 0.074580595 -0.06291081 -9.439097
v 0.10100289 0.15972506 -1.4572028
v 0.14222689 0.15398063 -2.7921968
v 0.20418821 0.06447651 -1.9894118
v 0.17505112 0.105398506 -4.1841993
v 0.19905904 -0.081141345 -4.549244
v 0.21551846 -0.06635791 -5.950948
v 0.20049551 0.035808764 -6.674788
v 0.12833779 0.14385016 -5.1439962
v -0.035607602 0.18369518 -3.2364511
v 0.14222689 0.15398063 -2.7921968
v 0.10100289 0.15972506 -1.4572028
v 0.033074602 0.18593532 1.290798
v 0.1568208 0.12703815 0.66363937
v 0.14287885 0.11395338 1.6851312
v 0.16110897 0.092789575 2.8277917
v 0.03654576 0.13397327 6.4770937
v 0.14971744 0.1102158 -6.5585732
v 0.16851243 0.04372414 -8.540972
v -0.05616505 0.16213825 -5.6368446
v 0.14971744 0.1102158 -6.5585732
v -0.004706723 0.1350583 -7.3846893
v 0.16851243 0.04372414 -8.540972
v -0.047249474 0.1725889 5.0768785
v -0.15746003 0.17764181 2.3934803
v -0.17725481 0.16275395 -1.0766804
v -0.16448198 0.13130362 -4.23957
v -0.13166514 0.15057237 5.064929
v -0.056334708 0.14147432 6.8298645
v -0.040622845 0.10010326 8.159174
v -0.115969755 0.11671744 -5.9842005
v -0.10753915 0.078654766 -7.2856684
v -0.004706723 0.1350583 -7.3846893
v -0.14584857 0.08550734 6.454294
v -0.1853743 0.08309667 3.1761897
v -0.15746003 0.17764181 2.3934803
v -0.17725481 0.16275395 -1.0766804
v -0.10819462 0.058548342 8.218486
v -0.040622845 0.10010326 8.159174
v -0.051504567 0.06586625 8.4448595
v -0.07719299 0.043135624 8.431455
v -0.19504169 -0.15944532 -0.8846131
v -0.16448198 0.13130362 -4.23957
v -0.18556133 -0.110895626 2.3758173
v -0.18099387 -0.14709675 -3.9612727
v -0.16673397 -0.15369011 -4.6450276
v -0.12872772 -0.08371199 -7.4216146
v -0.10753915 0.078654766 -7.2856684
v -0.067900695 -0.044589818 -8.6427
v -0.17068891 -0.12711328 3.2165065
v -0.15929672 0.007899822 6.569635
v -0.10819462 0.058548342 8.218486
v -0.13589884 -0.05363808 6.3717327
v -0.09573008 -0.03338478 6.957558
v 0.19161555 -0.03113636 -9.013191
v 0.13595252 -0.061760947 -9.420785
v 0.18357393 -0.10433615 -8.618932
v 0.21551846 -0.06635791 -5.950948
v 0.19535296 -0.11947619 -7.132993
v 0.19905904 -0.081141345 -4.549244
v 0.16851243 0.04372414 -8.540972
v 0.20049551 0.035808764 -6.674788
v -0.15128048 -0.14566557 2.0301971
v 0.036410663 0.017608257 1.5476938
v -0.16882275 -0.17151913 -1.2120616
v -0.0009856079 -0.025242766 -0.16995795
v -0.16062857 -0.16551529 -3.4865994
v -0.037591875 -0.09615878 -4.3028502
v -0.16673397 -0.15369011 -4.6450276
v 0.03428704 -0.03442351 -1.3995906
v 0.04982923 0.042092 6.210216
v -0.07285957 -0.061898056 5.521942
v -0.09573008 -0.03338478 6.957558
v 0.014183315 0.070637785 7.448987
v -0.077978745 -8.2461476E-05 8.004489
v -0.051504567 0.06586625 8.4448595
v -0.07719299 0.043135624 8.431455
v 0.13105471 0.06633414 3.7404883
v -0.07285957 -0.061898056 5.521942
v 0.04982923 0.042092 6.210216
v -0.03753037 -0.050220452 3.0155337
v 0.036410663 0.017608257 1.5476938
v -0.09573008 -0.03338478 6.957558
v -0.07285957 -0.061898056 5.521942
v -0.13589884 -0.05363808 6.3717327
v -0.17068891 -0.12711328 3.2165065
v -0.03753037 -0.050220452 3.0155337
v -0.15128048 -0.14566557 2.0301971
v -0.19504169 -0.15944532 -0.8846131
v -0.18556133 -0.110895626 2.3758173
v -0.15128048 -0.14566557 2.0301971
v -0.17068891 -0.12711328 3.2165065
v 0.04982923 0.042092 6.210216
v 0.014183315 0.070637785 7.448987
v 0.05641815 0.09508458 6.538192
v 0.13105471 0.06633414 3.7404883
v 0.074580595 -0.06291081 -9.439097
v 0.18357393 -0.10433615 -8.618932
v 0.13595252 -0.061760947 -9.420785
v -0.009181852 -0.11994371 -8.551624
v 0.19535296 -0.11947619 -7.132993
v -0.08151295 -0.13839765 -6.93045
v 0.000438236 -0.122708835 -5.4908757
v -0.16673397 -0.15369011 -4.6450276
v 0.19905904 -0.081141345 -4.549244
v -0.037591875 -0.09615878 -4.3028502
v 0.19494945 -0.02801916 -1.4300219
v 0.03428704 -0.03442351 -1.3995906
v 0.011748454 -0.052522723 -9.278241
v -0.009181852 -0.11994371 -8.551624
v 0.074580595 -0.06291081 -9.439097
v -0.067900695 -0.044589818 -8.6427
v -0.12872772 -0.08371199 -7.4216146
v -0.10753915 0.078654766 -7.2856684
v -0.067900695 -0.044589818 -8.6427
v -0.04086953 0.05223671 -8.561773
v 0.024700515 -0.003164954 -9.291032
v 0.011748454 -0.052522723 -9.278241
v 0.074580595 -0.06291081 -9.439097
v -0.12872772 -0.08371199 -7.4216146
v -0.08151295 -0.13839765 -6.93045
v -0.009181852 -0.11994371 -8.551624
v -0.16673397 -0.15369011 -4.6450276
v 0.18035924 0.037994124 1.4377732
v 0.17782249 0.0018096245 0.41727018
v -0.0009856079 -0.025242766 -0.16995795
v 0.036410663 0.017608257 1.5476938
v 0.13105471 0.06633414 3.7404883
v -0.10819462 0.058548342 8.218486
v -0.07719299 0.043135624 8.431455
v -0.077978745 -8.2461476E-05 8.004489
v -0.15929672 0.007899822 6.569635
v -0.09573008 -0.03338478 6.957558
v -0.16062857 -0.16551529 -3.4865994
v -0.16673397 -0.15369011 -4.6450276
v -0.18099387 -0.14709675 -3.9612727
v -0.16882275 -0.17151913 -1.2120616
v -0.19504169 -0.15944532 -0.8846131
v 0.014183315 0.070637785 7.448987
v -0.040622845 0.10010326 8.159174
v 0.05641815 0.09508458 6.538192
v 0.03654576 0.13397327 6.4770937
v 0.13105471 0.06633414 3.7404883
v 0.16110897 0.092789575 2.8277917
v 0.20418821 0.06447651 -1.9894118
v 0.19494945 -0.02801916 -1.4300219
v 0.1568208 0.12703815 0.66363937
v 0.18035924 0.037994124 1.4377732
v 0.14287885 0.11395338 1.6851312
v 0.16110897 0.092789575 2.8277917
v 0.12271195 -0.017680671 -9.436144
v 0.19161555 -0.03113636 -9.013191
v 0.16851243 0.04372414 -8.540972
v 0.082663365 0.0730082 -8.69502
v 0.024700515 -0.003164954 -9.291032
v -0.04086953 0.05223671 -8.561773
v -0.004706723 0.1350583 -7.3846893
v -0.10753915 0.078654766 -7.2856684
vt 1.6144693 0.33883208
vt 1.4065472 0.23500219
vt 1.6063056 0.4401791
vt 0.44486284 0.28422916
vt 0.44870958 0.045170054
vt 0.18870129 0.13266791
vt 0.81698537 0.7207587
vt 0.9839027 0.77750677
vt 1.5529407 0.65774584
vt 0.5041307 0.1734526
vt 0.23616952 0.028631642
vt 0.3808638 0.23898838
vt 0.8791014 0.65091586
vt 0.6986477 0.42819694
vt 0.8658114 0.7701044
vt 0.90908486 0.33937204
vt 0.92188627 0.20324193
vt 0.964589 0.43243968
vt 1.5170528 0.57750267
vt 1.5733242 0.53452784
vt 1.3902254 0.46174106
vt -0.2901537 1.0840521
vt 0.16515161 1.153963
vt -0.019649161 1.1328576
vt 0.3808638 0.23898838
vt 0.53046244 0.3204414
vt 0.5041307 0.1734526
vt 0.024234934 0.1846098
vt 0.18979523 0.78743714
vt 0.09473469 0.48960087
vt 0.44486284 0.28422916
vt 0.6986477 0.42819694
vt 0.70912087 0.059572093
vt 0.18524429 0.4644913
vt 0.35247177 0.59531313
vt 0.30428186 0.35283053
vt 0.3808638 0.23898838
vt 0.45348442 0.52924544
vt 0.53046244 0.3204414
vt -0.39833283 0.4579016
vt -0.48233578 0.36229444
vt -0.655056 0.4096712
vt -0.49841574 0.26703194
vt -0.81910974 0.23741713
vt -0.78081906 0.15849409
vt -0.71101725 0.086561725
vt -0.42512286 0.20421778
vt -0.16421047 0.34544605
vt -0.48233578 0.36229444
vt -0.39833283 0.4579016
vt -0.27947342 0.6531658
vt -0.5067516 0.6069692
vt -0.523605 0.6706942
vt -0.51042604 0.7480618
vt -0.30055127 1.0107552
vt -0.5465956 0.10036661
vt -0.7628804 -0.0071597374
vt -0.06800013 0.18197984
vt -0.5465956 0.10036661
vt -0.15761322 0.05700235
vt -0.7628804 -0.0071597374
vt -0.087451234 0.92177415
vt 0.19060741 0.7484855
vt 0.25609607 0.5074926
vt 0.24725896 0.28687203
vt 0.087237164 0.9285823
vt 0.0245958 1.0448427
vt -0.019649161 1.1328576
vt 0.15655524 0.16174167
vt 0.1975829 0.07240966
vt -0.15761322 0.05700235
vt 0.25021818 1.0234444
vt 0.3318783 0.8017919
vt 0.19060741 0.7484855
vt 0.25609607 0.5074926
vt 0.07207951 1.1326196
vt -0.019649161 1.1328576
vt 0.16515161 1.153963
vt 0.29013386 1.1539102
vt 0.74339676 0.5157378
vt 0.24725896 0.28687203
vt 0.66646254 0.7422087
vt 0.71996415 0.30796146
vt 0.77849007 0.24614376
vt 0.6612481 0.06073691
vt 0.1975829 0.07240966
vt 0.487337 0.018089592
vt 0.74276114 0.7977778
vt 0.4910554 1.030958
vt 0.07207951 1.1326196
vt 0.6140099 1.0157665
vt 0.64420456 1.0523362
vt 1.5754026 -0.07494983
vt 1.4143136 -0.08687141
vt 1.4311533 -0.048020646
vt 1.569329 0.13597298
vt 1.3412881 0.056794964
vt 1.4065472 0.23500219
vt 1.6182632 -0.003214538
vt 1.6435962 0.063459665
vt 0.35247177 0.59531313
vt 0.6124296 0.58593965
vt 0.30428186 0.35283053
vt 0.7204082 0.4226857
vt 0.31985927 0.13309978
vt 0.60070634 0.105317116
vt 0.2947867 0.058713578
vt 0.78446496 0.38012522
vt 0.7574546 0.4281971
vt 0.3754392 0.14303443
vt 0.13088107 0.47816986
vt 0.8705314 0.73545635
vt 0.36111382 0.6683993
vt 0.47778535 0.9822198
vt 0.39448768 0.9223352
vt -0.5764406 0.81569946
vt -0.75567937 0.8802732
vt -0.64212143 0.9891841
vt -0.83545434 0.7642183
vt -0.7845807 0.67945707
vt 0.64420456 1.0523362
vt 0.8835523 0.9461355
vt 0.6140099 1.0157665
vt 0.74276114 0.7977778
vt 0.9300668 0.7810498
vt 0.80190253 0.71187556
vt 0.74339676 0.5157378
vt 0.66646254 0.7422087
vt 0.80190253 0.71187556
vt 0.74276114 0.7977778
vt -0.64212143 0.9891841
vt -0.38641253 1.0577089
vt -0.40860325 1.0133784
vt -0.5764406 0.81569946
vt 1.3060832 -0.07778227
vt 1.4311533 -0.048020646
vt 1.4143136 -0.08687141
vt 1.0618863 -0.010934167
vt 1.3412881 0.056794964
vt 0.87688005 0.08960878
vt 1.0201035 0.19828796
vt 0.77849007 0.24614376
vt 1.4065472 0.23500219
vt 1.0504267 0.26259738
vt 1.6063056 0.4401791
vt 1.3902254 0.46174106
vt 0.63228536 0.52060103
vt 0.93512 0.52693737
vt 0.53046244 0.3204414
vt 0.74879503 0.7982836
vt 0.9504908 0.81776214
vt 0.39708942 0.90906453
vt 0.74879503 0.7982836
vt 0.37950718 0.82745004
vt 0.45348442 0.52924544
vt 0.63228536 0.52060103
vt 0.53046244 0.3204414
vt 0.6612481 0.06073691
vt 0.87688005 0.08960878
vt 1.0618863 -0.010934167
vt 0.77849007 0.24614376
vt 0.6986477 0.42819694
vt 0.44486284 0.28422916
vt 0.0618839 0.46409592
vt 0.21852157 0.5449834
vt 0.8658114 0.7701044
vt 0.16245337 0.88874507
vt 0.39448768 0.9223352
vt 0.36111382 0.6683993
vt -0.0035479206 0.6398213
vt 0.13088107 0.47816986
vt 0.31985927 0.13309978
vt 0.2947867 0.058713578
vt 0.25603217 0.07958346
vt 0.30428186 0.35283053
vt 0.1780964 0.297728
vt -0.2901537 1.0840521
vt -0.019649161 1.1328576
vt -0.40860325 1.0133784
vt -0.30055127 1.0107552
vt -0.56212914 0.8247117
vt -0.51042604 0.7480618
vt 0.92188627 0.20324193
vt 0.70912087 0.059572093
vt 0.964589 0.43243968
vt 0.6986477 0.42819694
vt 0.89155877 0.56052905
vt 0.8791014 0.65091586
vt 0.3808638 0.23898838
vt 0.23616952 0.028631642
vt 0.024234934 0.1846098
vt 0.09473469 0.48960087
vt 0.45348442 0.52924544
vt 0.37950718 0.82745004
vt 0.18979523 0.78743714
vt 0.39708942 0.90906453
vn 0.94476736 0.3275575 0.010987986
vn 0.9942473 0.106684126 0.009523491
vn 0.999846 0.005925471 0.016521145
vn 0.040845033 -0.9986168 0.03310828
vn 0.044317566 -0.9988464 0.018485347
vn 0.146837 -0.9890266 0.016284235
vn 0.6484191 -0.7612835 -0.00021829187
vn 0.55836225 -0.82958084 0.005221311
vn 0.42255375 -0.90628606 0.009696875
vn 0.9601496 0.23652367 -0.14889364
vn 0.9601496 0.23652367 -0.14889364
vn 0.9601496 0.23652367 -0.14889364
vn 0.9629573 -0.26859045 0.023923932
vn 0.9629573 -0.26859045 0.023923932
vn 0.9629573 -0.26859045 0.023923932
vn 0.45553482 0.8902096 -0.0038757268
vn 0.94476736 0.3275575 0.010987986
vn 0.4478576 0.89409935 0.0031717042
vn 0.3928678 -0.91954905 0.0091987
vn 0.040845033 -0.9986168 0.03310828
vn 0.146837 -0.9890266 0.016284235
vn 0.911515 0.40778214 0.05342411
vn 0.9698288 0.2349355 0.065095715
vn 0.96860653 0.23999508 0.06483571
vn 0.28171366 -0.23913978 -0.9292199
vn 0.28171366 -0.23913978 -0.9292199
vn 0.28171366 -0.23913978 -0.9292199
vn 0.7201401 0.69349873 -0.02139574
vn 0.30226246 0.9528325 -0.027344132
vn 0.10066874 0.9911814 -0.086169764
vn 0.85402346 -0.5199786 0.016314244
vn 0.85402346 -0.5199786 0.016314244
vn 0.85402346 -0.5199786 0.016314244
vn -0.32635477 -0.9452055 0.008904355
vn -0.64489925 -0.7641616 0.012734396
vn -0.4723623 -0.8813888 -0.0052724313
vn -0.5909168 0.65919405 -0.4650598
vn -0.5909168 0.65919405 -0.4650598
vn -0.5909168 0.65919405 -0.4650598
vn 0.45553482 0.8902096 -0.0038757268
vn 0.8194863 0.5730983 0.000645504
vn 0.94476736 0.3275575 0.010987986
vn 0.79828197 0.60227495 0.0032855792
vn 0.9942473 0.106684126 0.009523491
vn 0.9889359 -0.14825408 0.0051685483
vn 0.94707054 0.3207254 -0.01388262
vn 0.48828265 0.8726362 -0.009286846
vn -0.0054599834 0.9998745 -0.014876162
vn 0.17228827 0.9850418 -0.0030809469
vn 0.45553482 0.8902096 -0.0038757268
vn 0.23947726 0.97086585 0.008372858
vn 0.4478576 0.89409935 0.0031717042
vn 0.5270741 0.84977823 0.008352603
vn 0.5222778 0.8527363 0.008171312
vn 0.1596933 0.986989 0.018726256
vn 0.78954464 0.6136412 -0.007980876
vn 0.817431 0.5759105 -0.011566597
vn -0.19573538 0.9804152 -0.021763997
vn 0.2093851 0.97776926 -0.011186566
vn 0.30226246 0.9528325 -0.027344132
vn 0.7201401 0.69349873 -0.02139574
vn 0.015127244 0.9998105 0.012258031
vn -0.030969605 0.9995161 0.0028739595
vn -0.1948435 0.98082906 -0.003217011
vn -0.40303218 0.91511977 -0.010995439
vn -0.63990015 0.7683353 0.013735304
vn -0.22779052 0.9732798 0.028947843
vn 0.18698141 0.98195434 0.028350573
vn -0.60267806 0.7975366 -0.026733039
vn -0.50593233 0.8619487 -0.032816168
vn -0.50167704 0.8640916 -0.04081599
vn -0.85450315 0.5189221 0.0233271
vn -0.9868037 0.16148342 0.011898694
vn -0.94858474 0.31649283 0.004399842
vn -0.9984723 0.05515623 -0.0033006687
vn -0.49096835 0.8680239 0.07405805
vn -0.49237812 0.86906064 0.047931243
vn -0.6470431 0.74989855 0.13779493
vn -0.69832623 0.69939566 0.15227018
vn -0.9985929 0.052991584 -0.0020315412
vn -0.9989976 0.041993815 -0.015502355
vn -0.99986005 -0.0162013 0.0041604694
vn -0.9986797 0.050645135 -0.008589644
vn -0.999482 0.028678576 -0.014606733
vn -0.9870077 0.15635955 -0.03697833
vn -0.9874877 0.15526351 -0.02758993
vn -0.93882036 0.33128864 -0.09414961
vn -0.9975083 -0.069730036 0.010719859
vn -0.98021185 -0.19188355 0.048634376
vn -0.9784167 0.20524122 0.024019128
vn -0.90457636 -0.42555556 0.0253793
vn -0.69337827 -0.7196215 0.037034176
vn 0.98454106 0.14491476 -0.09837978
vn 0.854181 -0.51408845 -0.078025155
vn 0.98397696 -0.17782572 -0.012940069
vn 0.9889359 -0.14825408 0.0051685483
vn 0.9859548 -0.16675147 -0.009326797
vn 0.88752747 -0.46072122 0.005562623
vn 0.7201401 0.69349873 -0.02139574
vn 0.94707054 0.3207254 -0.01388262
vn 0.6484191 -0.7612835 -0.00021829187
vn 0.42255375 -0.90628606 0.009696875
vn 0.655228 -0.75543094 0.00060300814
vn 0.3928678 -0.91954905 0.0091987
vn 0.5360591 -0.8441394 0.008329325
vn 0.26101655 -0.9653076 0.0071793334
vn 0.34012222 -0.94005597 0.024734922
vn 0.146837 -0.9890266 0.016284235
vn 0.56614566 -0.82392776 0.024941828
vn 0.39358556 -0.91912395 0.017365517
vn 0.5909106 -0.80606854 0.03283333
vn 0.65721023 -0.753518 0.016895147
vn 0.76273495 -0.6450685 0.046063427
vn 0.6611836 -0.7467533 0.0720826
vn 0.63808906 -0.766165 0.076378025
vn 0.5537623 -0.83266675 0.0036546492
vn 0.39358556 -0.91912395 0.017365517
vn 0.56614566 -0.82392776 0.024941828
vn 0.55836225 -0.82958084 0.005221311
vn 0.42255375 -0.90628606 0.009696875
vn 0.5909106 -0.80606854 0.03283333
vn 0.39358556 -0.91912395 0.017365517
vn 0.17107543 -0.9850063 0.022265028
vn 0.50475866 -0.86323065 0.00717069
vn 0.55836225 -0.82958084 0.005221311
vn 0.6484191 -0.7612835 -0.00021829187
vn -0.32635477 -0.9452055 0.008904355
vn -0.71308595 -0.7010766 -0.0001990446
vn -0.64489925 -0.7641616 0.012734396
vn -0.7160537 -0.6980447 -0.0007984237
vn 0.9544571 -0.29695445 0.028805593
vn 0.9424805 -0.33244663 0.034780867
vn 0.94315076 -0.3305737 0.034464784
vn 0.95500964 -0.29520103 0.028511183
vn -0.04035552 -0.99714005 -0.06390016
vn 0.06643231 -0.997022 -0.039163474
vn 0.035127167 -0.99786454 -0.055068817
vn -0.37428096 -0.9258606 -0.05192309
vn 0.06844941 -0.99764735 -0.0037912545
vn 0.07327375 -0.99730957 0.002142008
vn 0.16103587 -0.98691076 0.0086372895
vn 0.34012222 -0.94005597 0.024734922
vn 0.09057507 -0.99563664 0.022448601
vn 0.26101655 -0.9653076 0.0071793334
vn 0.044317566 -0.9988464 0.018485347
vn 0.146837 -0.9890266 0.016284235
vn -0.41514698 -0.90468556 -0.09590181
vn -0.37428096 -0.9258606 -0.05192309
vn -0.04035552 -0.99714005 -0.06390016
vn -0.7392348 -0.66903806 -0.076941885
vn -0.5855243 -0.8098792 -0.035452764
vn -0.9874877 0.15526351 -0.02758993
vn -0.93882036 0.33128864 -0.09414961
vn -0.9438253 0.32274833 -0.07090247
vn -0.9483804 0.19011177 -0.25383458
vn -0.954743 0.19157533 -0.22751883
vn -0.91831607 0.14558464 -0.3681044
vn -0.5855243 -0.8098792 -0.035452764
vn -0.6148669 -0.7881107 -0.028641159
vn -0.37428096 -0.9258606 -0.05192309
vn -0.6169168 -0.78652054 -0.028267052
vn 0.15058379 -0.9883939 0.020049155
vn 0.040845033 -0.9986168 0.03310828
vn 0.3928678 -0.91954905 0.0091987
vn 0.42255375 -0.90628606 0.009696875
vn 0.5537623 -0.83266675 0.0036546492
vn -0.7733155 -0.63081914 0.06364126
vn -0.7685797 -0.6363583 0.06582756
vn -0.81029856 -0.58432686 0.044478375
vn -0.98021185 -0.19188355 0.048634376
vn -0.69337827 -0.7196215 0.037034176
vn -0.61371 -0.7895198 -0.004304852
vn -0.6049851 -0.7962215 -0.004939303
vn -0.6047253 -0.7964189 -0.004931952
vn -0.4723623 -0.8813888 -0.0052724313
vn -0.32635477 -0.9452055 0.008904355
vn 0.911515 0.40778214 0.05342411
vn 0.96860653 0.23999508 0.06483571
vn 0.88462514 0.4640878 0.045398332
vn 0.9508481 0.3080161 0.031842995
vn 0.96693516 0.2535758 0.027125722
vn 0.96693516 0.2535758 0.027125722
vn 0.94476736 0.3275575 0.010987986
vn 0.999846 0.005925471 0.016521145
vn 0.9681009 0.2505605 0.00015058841
vn 0.91853005 0.39508075 0.014624492
vn 0.8925807 0.45087624 -0.0032096682
vn 0.88924694 0.45739165 -0.0057155583
vn 0.17388166 0.97789454 -0.11613605
vn 0.98454106 0.14491476 -0.09837978
vn 0.7201401 0.69349873 -0.02139574
vn 0.10066874 0.9911814 -0.086169764
vn -0.052480806 0.99119383 -0.12157538
vn -0.24652366 0.96670234 -0.06864905
vn -0.50167704 0.8640916 -0.04081599
vn -0.50593233 0.8619487 -0.032816168
g rock.015_LOD1_0
f 3/3/3 2/2/2 1/1/1
f 6/6/6 5/5/5 4/4/4
f 9/9/9 8/8/8 7/7/7
f 12/12/12 11/11/11 10/10/10
f 15/15/15 14/14/14 13/13/13
f 18/18/18 17/17/17 16/16/16
f 21/21/21 20/20/20 19/19/19
f 24/24/24 23/23/23 22/22/22
f 27/27/27 26/26/26 25/25/25
f 30/30/30 29/29/29 28/28/28
f 33/33/33 32/32/32 31/31/31
f 36/36/36 35/35/35 34/34/34
f 39/39/39 38/38/38 37/37/37
f 42/42/42 41/41/41 40/40/40
f 42/42/42 43/43/43 41/41/41
f 42/42/42 44/44/44 43/43/43
f 45/45/45 43/43/43 44/44/44
f 46/46/46 43/43/43 45/45/45
f 43/43/43 46/46/46 47/47/47
f 43/43/43 47/47/47 48/48/48
f 49/49/49 43/43/43 48/48/48
f 50/50/50 49/49/49 48/48/48
f 51/51/51 50/50/50 48/48/48
f 51/51/51 52/52/52 50/50/50
f 51/51/51 53/53/53 52/52/52
f 51/51/51 54/54/54 53/53/53
f 54/54/54 51/51/51 55/55/55
f 46/46/46 56/56/56 47/47/47
f 46/46/46 57/57/57 56/56/56
f 48/48/48 47/47/47 58/58/58
f 59/59/59 58/58/58 47/47/47
f 59/59/59 60/60/60 58/58/58
f 59/59/59 61/61/61 60/60/60
f 55/55/55 51/51/51 62/62/62
f 63/63/63 51/51/51 48/48/48
f 63/63/63 62/62/62 51/51/51
f 48/48/48 64/64/64 63/63/63
f 48/48/48 58/58/58 64/64/64
f 64/64/64 58/58/58 65/65/65
f 66/66/66 62/62/62 63/63/63
f 62/62/62 67/67/67 55/55/55
f 67/67/67 62/62/62 66/66/66
f 67/67/67 68/68/68 55/55/55
f 58/58/58 69/69/69 65/65/65
f 70/70/70 65/65/65 69/69/69
f 58/58/58 71/71/71 69/69/69
f 69/69/69 71/71/71 70/70/70
f 66/66/66 72/72/72 67/67/67
f 66/66/66 73/73/73 72/72/72
f 74/74/74 73/73/73 66/66/66
f 74/74/74 75/75/75 73/73/73
f 72/72/72 76/76/76 67/67/67
f 67/67/67 76/76/76 77/77/77
f 76/76/76 78/78/78 77/77/77
f 79/79/79 78/78/78 76/76/76
f 80/80/80 73/73/73 75/75/75
f 80/80/80 75/75/75 81/81/81
f 73/73/73 80/80/80 82/82/82
f 80/80/80 81/81/81 83/83/83
f 84/84/84 83/83/83 81/81/81
f 81/81/81 85/85/85 84/84/84
f 85/85/85 81/81/81 86/86/86
f 87/87/87 85/85/85 86/86/86
f 82/82/82 88/88/88 73/73/73
f 88/88/88 89/89/89 73/73/73
f 72/72/72 73/73/73 89/89/89
f 89/89/89 90/90/90 72/72/72
f 88/88/88 91/91/91 89/89/89
f 91/91/91 92/92/92 89/89/89
f 95/95/95 94/94/94 93/93/93
f 93/93/93 96/96/96 95/95/95
f 95/95/95 96/96/96 97/97/97
f 98/98/98 97/97/97 96/96/96
f 99/99/99 96/96/96 93/93/93
f 99/99/99 100/100/100 96/96/96
f 103/103/103 102/102/102 101/101/101
f 103/103/103 104/104/104 102/102/102
f 105/105/105 104/104/104 103/103/103
f 106/106/106 104/104/104 105/105/105
f 105/105/105 107/107/107 106/106/106
f 106/106/106 108/108/108 104/104/104
f 111/111/111 110/110/110 109/109/109
f 109/109/109 112/112/112 111/111/111
f 113/113/113 111/111/111 112/112/112
f 112/112/112 114/114/114 113/113/113
f 115/115/115 113/113/113 114/114/114
f 118/118/118 117/117/117 116/116/116
f 117/117/117 119/119/119 116/116/116
f 116/116/116 119/119/119 120/120/120
f 123/123/123 122/122/122 121/121/121
f 123/123/123 124/124/124 122/122/122
f 124/124/124 125/125/125 122/122/122
f 126/126/126 125/125/125 124/124/124
f 129/129/129 128/128/128 127/127/127
f 129/129/129 130/130/130 128/128/128
f 133/133/133 132/132/132 131/131/131
f 131/131/131 134/134/134 133/133/133
f 137/137/137 136/136/136 135/135/135
f 138/138/138 135/135/135 136/136/136
f 136/136/136 139/139/139 138/138/138
f 139/139/139 140/140/140 138/138/138
f 140/140/140 139/139/139 141/141/141
f 141/141/141 142/142/142 140/140/140
f 139/139/139 143/143/143 141/141/141
f 141/141/141 144/144/144 142/142/142
f 141/141/141 143/143/143 144/144/144
f 144/144/144 143/143/143 145/145/145
f 146/146/146 144/144/144 145/145/145
f 149/149/149 148/148/148 147/147/147
f 150/150/150 147/147/147 148/148/148
f 151/151/151 150/150/150 148/148/148
f 154/154/154 153/153/153 152/152/152
f 154/154/154 155/155/155 153/153/153
f 153/153/153 155/155/155 156/156/156
f 157/157/157 156/156/156 155/155/155
f 160/160/160 159/159/159 158/158/158
f 159/159/159 161/161/161 158/158/158
f 164/164/164 163/163/163 162/162/162
f 165/165/165 164/164/164 162/162/162
f 166/166/166 165/165/165 162/162/162
f 169/169/169 168/168/168 167/167/167
f 170/170/170 169/169/169 167/167/167
f 170/170/170 171/171/171 169/169/169
f 174/174/174 173/173/173 172/172/172
f 174/174/174 172/172/172 175/175/175
f 176/176/176 174/174/174 175/175/175
f 179/179/179 178/178/178 177/177/177
f 180/180/180 178/178/178 179/179/179
f 179/179/179 181/181/181 180/180/180
f 181/181/181 182/182/182 180/180/180
f 185/185/185 184/184/184 183/183/183
f 186/186/186 184/184/184 185/185/185
f 187/187/187 186/186/186 185/185/185
f 187/187/187 188/188/188 186/186/186
f 191/191/191 190/190/190 189/189/189
f 191/191/191 189/189/189 192/192/192
f 192/192/192 189/189/189 193/193/193
f 193/193/193 194/194/194 192/192/192
f 195/195/195 192/192/192 194/194/194
f 195/195/195 194/194/194 196/196/196
