g RockSIngle4
v 0.080354646 -0.29969904 -4.4538274
v 0.027484572 -0.27023196 4.2291665
v 0.18617842 -0.20638584 -4.4394774
v -0.106035255 0.22614978 -7.8967137
v 0.019934589 0.1800093 -7.2684107
v -0.057027705 0.29383913 -4.900229
v 0.09145932 -0.089303896 -9.334736
v -0.07617262 0.116812095 -9.316779
v 0.026293976 -0.09694647 -9.352969
v -0.10638047 -0.1019745 9.311011
v 0.0777977 0.106721185 9.294038
v -0.052290924 -0.123684175 9.341499
v 0.026293976 -0.09694647 -9.352969
v 0.097040504 -0.17173386 -9.1267605
v 0.09145932 -0.089303896 -9.334736
v -0.10638047 -0.1019745 9.311011
v -0.052290924 -0.123684175 9.341499
v -0.096343905 -0.21298043 8.524334
v 0.06861333 0.30899042 0.5582292
v -0.057027705 0.29383913 -4.900229
v 0.019934589 0.1800093 -7.2684107
v 0.11467953 0.14954935 -4.218169
v 0.1773519 0.1888944 6.9524107
v 0.09145932 -0.089303896 -9.334736
v -0.07617262 0.116812095 -9.316779
v -0.106035255 0.22614978 -7.8967137
v 0.18617842 -0.20638584 -4.4394774
v 0.14096498 -0.1378219 2.9069228
v 0.12190294 0.03177923 7.969249
v 0.18617842 -0.20638584 -4.4394774
v 0.027484572 -0.27023196 4.2291665
v 0.0777977 0.106721185 9.294038
v -0.052290924 -0.123684175 9.341499
v 0.1089573 0.2022524 8.541572
v 0.09145932 -0.089303896 -9.334736
v 0.097040504 -0.17173386 -9.1267605
v 0.080354646 -0.29969904 -4.4538274
v 0.12190294 0.03177923 7.969249
v -0.096343905 -0.21298043 8.524334
v -0.052290924 -0.123684175 9.341499
v 0.027484572 -0.27023196 4.2291665
v -0.1107025 -0.28744668 5.679003
v 0.080354646 -0.29969904 -4.4538274
v -0.16701475 -0.21668991 1.6879622
v 0.033921804 -0.20599534 -7.786854
v -0.11904415 -0.14985307 -4.2419987
v 0.097040504 -0.17173386 -9.1267605
v 0.097040504 -0.17173386 -9.1267605
v 0.026293976 -0.09694647 -9.352969
v 0.033921804 -0.20599534 -7.786854
v -0.16363977 0.14535135 -8.142415
v -0.07617262 0.116812095 -9.316779
v -0.11904415 -0.14985307 -4.2419987
v -0.18886398 0.17411186 -5.1638527
v -0.15861656 0.25897574 -4.8801885
v -0.16701475 -0.21668991 1.6879622
v -0.13122763 0.11309162 4.707886
v -0.18397598 -0.16362476 3.018526
v -0.1797404 -0.18049179 6.3780236
v -0.1107025 -0.28744668 5.679003
v -0.096343905 -0.21298043 8.524334
v -0.10638047 -0.1019745 9.311011
v 0.02853711 0.15948395 8.7578335
v 0.1773519 0.1888944 6.9524107
v 0.1089573 0.2022524 8.541572
v 0.06861333 0.30899042 0.5582292
v -0.034162197 0.29901692 2.2912428
v -0.057027705 0.29383913 -4.900229
v 0.02853711 0.15948395 8.7578335
v 0.0777977 0.106721185 9.294038
v -0.10638047 -0.1019745 9.311011
v -0.13122763 0.11309162 4.707886
v -0.15861656 0.25897574 -4.8801885
v -0.106035255 0.22614978 -7.8967137
v -0.16363977 0.14535135 -8.142415
v -0.07617262 0.116812095 -9.316779
vt 1.2700324 0.31491968
vt 1.2514081 0.65695643
vt 1.385027 0.31514323
vt 0.9678292 0.18645099
vt 0.85733545 0.21136215
vt 0.897519 0.30504537
vt 1.4453439 0.14083603
vt 1.4453439 0.13029352
vt 1.3850274 0.13949475
vt 1.0478851 0.8678336
vt 0.8070525 0.86707556
vt 1.0012069 0.86905766
vt 1.4446074 0.15040678
vt 1.4446074 0.1408357
vt 1.3850274 0.14902753
vt 1.1473783 0.85654545
vt 1.2008867 0.8578379
vt 1.1460459 0.8259725
vt 0.17490384 0.521953
vt 0.1749044 0.30584502
vt 0.045223624 0.21209061
vt 0.0019656122 0.33285615
vt 0.042309403 0.7751122
vt -0.23995098 0.13029352
vt -0.0046890676 0.1309945
vt 0.111795336 0.1872119
vt -0.36867985 0.3241079
vt -0.284932 0.6149579
vt -0.105909675 0.8153747
vt -0.36867985 0.3241079
vt -0.3984215 0.6673096
vt -0.021840185 0.86782086
vt -0.23260805 0.8697065
vt 0.06856915 0.83802724
vt -0.23995098 0.13029352
vt -0.3237295 0.1385305
vt -0.44534388 0.3235417
vt 1.3850265 0.8031938
vt 1.1460459 0.8259725
vt 1.2008867 0.8578379
vt 1.2514081 0.65695643
vt 1.1148901 0.7141343
vt 1.2700324 0.31491968
vt 1.0478851 0.5565869
vt 1.2173519 0.18321499
vt 1.0793942 0.32266518
vt 1.2791758 0.13029352
vt 0.66962504 0.1392568
vt 0.583483 0.13029352
vt 0.6878608 0.19231647
vt 0.30257058 0.17819288
vt 0.3509381 0.1316961
vt 0.5905773 0.33266294
vt 0.25657678 0.29611313
vt 0.1749044 0.30732512
vt 0.62438995 0.5674506
vt 0.28514382 0.6869476
vt 0.562383 0.6201203
vt 0.56561667 0.7531282
vt 0.68786097 0.7254669
vt 0.6029896 0.83809984
vt 0.48611057 0.8692256
vt 0.24757674 0.84726477
vt 0.6878613 0.77434504
vt 0.74950933 0.83724165
vt 0.76521784 0.52114
vt 0.8671621 0.5897393
vt 0.897519 0.30504537
vt 0.84044915 0.8458157
vt 0.8070525 0.86707556
vt 1.0478851 0.8678336
vt 1.0139517 0.6854928
vt 1.0070642 0.30584502
vt 0.9678292 0.18645099
vt 1.0478839 0.1767593
vt 0.97159666 0.13029352
vn 0.77489686 -0.6320415 -0.0076324474
vn 0.37260464 -0.9279571 0.007832837
vn 0.7637406 -0.6454962 -0.005925603
vn 0.554719 0.83052045 -0.0502262
vn 0.7219086 0.69140655 -0.028369809
vn 0.6769986 0.73579895 -0.016514434
vn 0.23017053 0.26869616 -0.9353202
vn 0.23017053 0.26869616 -0.9353202
vn 0.23017053 0.26869616 -0.9353202
vn -0.339175 0.36970225 0.8650322
vn -0.339175 0.36970225 0.8650322
vn -0.339175 0.36970225 0.8650322
vn 0.20858164 -0.907266 -0.3651877
vn 0.20858164 -0.907266 -0.3651877
vn 0.20858164 -0.907266 -0.3651877
vn -0.42770848 -0.8957889 0.12094557
vn -0.42770848 -0.8957889 0.12094557
vn -0.42770848 -0.8957889 0.12094557
vn 0.99040914 0.13802712 -0.00618503
vn 0.6769986 0.73579895 -0.016514434
vn 0.7219086 0.69140655 -0.028369809
vn 0.8743353 0.4852281 -0.009565331
vn 0.970841 -0.2393583 0.013240152
vn 0.7949106 0.6044716 -0.05226102
vn 0.76355547 0.6433378 -0.055673737
vn 0.554719 0.83052045 -0.0502262
vn 0.97940254 0.20175627 -0.008070042
vn 0.9725011 -0.23284322 0.005058151
vn 0.9248159 -0.3787391 0.035671335
vn 0.7637406 -0.6454962 -0.005925603
vn 0.37260464 -0.9279571 0.007832837
vn 0.8943634 -0.44389927 0.05538617
vn 0.8584686 -0.51026636 0.051575504
vn 0.9990074 0.012016444 0.04289445
vn 0.8587555 -0.5119907 -0.020115959
vn 0.8587555 -0.5119907 -0.020115959
vn 0.77489686 -0.6320415 -0.0076324474
vn 0.9248159 -0.3787391 0.035671335
vn 0.77519935 -0.6310007 0.030069886
vn 0.8584686 -0.51026636 0.051575504
vn 0.37260464 -0.9279571 0.007832837
vn 0.33608544 -0.9415767 0.021906473
vn -0.6027002 -0.7978486 -0.013793248
vn -0.8012481 -0.59833103 0.0012305593
vn -0.5116261 -0.8585941 -0.03247934
vn -0.8388165 -0.54427224 -0.012436097
vn -0.6383278 -0.76815796 -0.049711432
vn -0.6383278 -0.76815796 -0.049711432
vn -0.8562773 -0.51391417 -0.051782183
vn -0.5116261 -0.8585941 -0.03247934
vn -0.9903223 0.12553646 -0.05918155
vn -0.90401065 -0.42368808 -0.057034805
vn -0.8388165 -0.54427224 -0.012436097
vn -0.9974099 0.071284875 -0.009596599
vn -0.71000224 0.7041992 0.0006662715
vn -0.8012481 -0.59833103 0.0012305593
vn -0.89847255 0.43885076 0.012531242
vn -0.999731 0.019274699 -0.012895711
vn -0.9773004 -0.21089794 0.020149136
vn -0.8312459 -0.555897 0.0029589948
vn -0.94704616 -0.31950262 0.031961896
vn -0.8275095 0.5531604 0.09613273
vn -0.5855063 0.8068005 0.079091154
vn 0.41246134 0.91091913 0.0100946855
vn -0.38391617 0.9227823 0.03287916
vn -0.09646894 0.995336 -7.492632E-05
vn -0.40968147 0.91212463 0.0137749
vn -0.32402322 0.9460388 -0.0044423076
vn -0.5855063 0.8068005 0.079091154
vn -0.7069019 0.69463813 0.13329512
vn -0.8275095 0.5531604 0.09613273
vn -0.89847255 0.43885076 0.012531242
vn -0.71000224 0.7041992 0.0006662715
vn -0.7713995 0.63583577 -0.02560389
vn -0.9903223 0.12553646 -0.05918155
vn -0.70034254 0.7104226 -0.06942637
g RockSIngle4_0
f 3/3/3 2/2/2 1/1/1
f 6/6/6 5/5/5 4/4/4
f 9/9/9 8/8/8 7/7/7
f 12/12/12 11/11/11 10/10/10
f 15/15/15 14/14/14 13/13/13
f 18/18/18 17/17/17 16/16/16
f 21/21/21 20/20/20 19/19/19
f 22/22/22 21/21/21 19/19/19
f 19/19/19 23/23/23 22/22/22
f 21/21/21 22/22/22 24/24/24
f 24/24/24 25/25/25 21/21/21
f 21/21/21 25/25/25 26/26/26
f 27/27/27 24/24/24 22/22/22
f 27/27/27 22/22/22 28/28/28
f 23/23/23 28/28/28 22/22/22
f 28/28/28 23/23/23 29/29/29
f 28/28/28 29/29/29 30/30/30
f 29/29/29 31/31/31 30/30/30
f 23/23/23 32/32/32 29/29/29
f 32/32/32 33/33/33 29/29/29
f 34/34/34 32/32/32 23/23/23
f 36/36/36 35/35/35 30/30/30
f 37/37/37 36/36/36 30/30/30
f 40/40/40 39/39/39 38/38/38
f 39/39/39 41/41/41 38/38/38
f 39/39/39 42/42/42 41/41/41
f 41/41/41 42/42/42 43/43/43
f 42/42/42 44/44/44 43/43/43
f 43/43/43 44/44/44 45/45/45
f 46/46/46 45/45/45 44/44/44
f 47/47/47 43/43/43 45/45/45
f 50/50/50 49/49/49 48/48/48
f 51/51/51 49/49/49 50/50/50
f 52/52/52 49/49/49 51/51/51
f 53/53/53 51/51/51 50/50/50
f 54/54/54 51/51/51 53/53/53
f 54/54/54 55/55/55 51/51/51
f 56/56/56 54/54/54 53/53/53
f 54/54/54 57/57/57 55/55/55
f 54/54/54 56/56/56 57/57/57
f 56/56/56 58/58/58 57/57/57
f 59/59/59 58/58/58 56/56/56
f 59/59/59 57/57/57 58/58/58
f 56/56/56 60/60/60 59/59/59
f 59/59/59 60/60/60 61/61/61
f 62/62/62 59/59/59 61/61/61
f 57/57/57 59/59/59 62/62/62
f 57/57/57 62/62/62 63/63/63
f 66/66/66 65/65/65 64/64/64
f 67/67/67 65/65/65 66/66/66
f 68/68/68 67/67/67 66/66/66
f 67/67/67 69/69/69 65/65/65
f 65/65/65 69/69/69 70/70/70
f 70/70/70 69/69/69 71/71/71
f 72/72/72 69/69/69 67/67/67
f 67/67/67 73/73/73 72/72/72
f 67/67/67 68/68/68 73/73/73
f 68/68/68 74/74/74 73/73/73
f 75/75/75 73/73/73 74/74/74
f 76/76/76 75/75/75 74/74/74
