g RockGrouping2
v -0.45714855 -0.3157702 -0.070082195
v -0.27346992 -0.4832846 -0.075087406
v -0.4398098 -0.52949136 0.12671655
v -0.9694959 -0.8571503 0.26848903
v -0.80415237 -0.47730654 0.42003846
v -1.099032 -0.77520716 0.33890533
v -1.0900198 -0.42339534 0.33662426
v -0.8615335 -0.22992545 0.22130689
v 0.5078039 0.35755193 0.4645096
v 0.2983532 0.97569 0.2786002
v 0.41401613 0.6899022 0.4042729
v -0.27346992 -0.4832846 -0.075087406
v -0.2792853 -0.710593 -0.05856044
v -0.4398098 -0.52949136 0.12671655
v -0.22074902 -0.68777794 -0.29937378
v -0.34708774 -0.40596408 -0.34306878
v -0.3380767 -0.5758164 -0.51762635
v -0.3612467 -0.8770456 -0.4967145
v -1.1858834 -0.26535183 -0.023088165
v -1.1696168 -0.59433377 -0.3211265
v -0.9510325 -0.2906044 -0.28983942
v -1.2401625 -0.77523315 0.118205555
v -1.0900198 -0.42339534 0.33662426
v -1.099032 -0.77520716 0.33890533
v -1.1430897 -0.9115478 -0.23330602
v -0.9342333 -0.80494165 -0.50571656
v -1.1353217 -0.9211327 0.0026996657
v -0.6915052 -0.9831779 -0.42724276
v -0.3612467 -0.8770456 -0.4967145
v -0.9342333 -0.80494165 -0.50571656
v -0.3380767 -0.5758164 -0.51762635
v -0.9510325 -0.2906044 -0.28983942
v -1.1696168 -0.59433377 -0.3211265
v 0.5078039 0.35755193 0.4645096
v 0.45713305 -0.003601849 0.2089234
v -0.08853495 0.09644824 0.7465104
v 0.029861093 0.4919318 0.6586058
v 0.2983532 0.97569 0.2786002
v -0.28836012 0.6093365 0.7231897
v -0.13018024 1.050963 0.3810675
v -0.5751451 0.8479339 0.43330348
v -0.47307754 0.24843568 0.7683202
v -0.7882072 0.6695355 0.23243204
v -0.2076695 -0.21493345 0.55089307
v -0.5659424 -0.11378187 0.5167383
v -0.2681588 -0.25682288 -0.22633451
v -0.6740185 -0.10079676 -0.058765568
v -0.38288605 -0.32125342 0.16589707
v -0.2076695 -0.21493345 0.55089307
v -0.5659424 -0.11378187 0.5167383
v 0.21224105 -0.2575615 0.006431274
v 0.37321103 0.03664726 -0.42416516
v -0.32088554 0.03887695 -0.43798175
v 0.45713305 -0.003601849 0.2089234
v -0.08853495 0.09644824 0.7465104
v 0.7381002 0.14296621 -0.15537551
v 1.1621512 -0.8417926 0.021289624
v 0.9126884 -1.2501326 0.060229577
v 1.0803094 -0.88258445 -0.38583076
v 0.8400701 -1.3343992 -0.14904296
v 0.9736732 -1.4810102 0.14082348
v 0.94636035 -1.2978308 -0.49814117
v 0.9661257 -1.6521461 -0.08154946
v 1.164651 -1.5438491 -0.59133196
v 1.5261208 -1.5744326 -0.306312
v 1.5777122 -1.079178 -0.595433
v 1.3875228 -1.4405711 -0.62693316
v 1.637113 -1.0872955 -0.20970002
v 1.5495232 -0.8638804 -0.29668468
v 1.4072882 -0.8862486 0.018447302
v 1.5990025 -1.1973262 0.057611056
v 1.4309124 -1.6375272 -0.039425455
v 1.3782667 -1.3980148 0.1860404
v -0.9694959 -0.8571503 0.26848903
v -1.2401625 -0.77523315 0.118205555
v -1.099032 -0.77520716 0.33890533
v -1.1353217 -0.9211327 0.0026996657
v -0.9268557 -0.92378587 -0.11621607
v -1.1430897 -0.9115478 -0.23330602
v -0.9342333 -0.80494165 -0.50571656
v -0.4398098 -0.52949136 0.12671655
v -0.6915052 -0.9831779 -0.42724276
v -0.45478737 -0.8999859 -0.24706864
v -0.2792853 -0.710593 -0.05856044
v -0.3612467 -0.8770456 -0.4967145
v -0.22074902 -0.68777794 -0.29937378
v -0.5659424 -0.11378187 0.5167383
v -0.38288605 -0.32125342 0.16589707
v -0.6740185 -0.10079676 -0.058765568
v -0.7883409 0.14016742 0.26023868
v -0.7882072 0.6695355 0.23243204
v -0.47307754 0.24843568 0.7683202
v -0.8567611 0.42416775 -0.009250827
v -0.71793854 0.21327215 -0.31492475
v -0.5990913 0.6288787 -0.41960153
v -0.45714855 -0.3157702 -0.070082195
v -0.4398098 -0.52949136 0.12671655
v -0.80415237 -0.47730654 0.42003846
v -0.8615335 -0.22992545 0.22130689
v -0.7209439 -0.22946805 -0.11091513
v -0.34708774 -0.40596408 -0.34306878
v -0.27346992 -0.4832846 -0.075087406
v -0.9510325 -0.2906044 -0.28983942
v -0.3380767 -0.5758164 -0.51762635
v -1.1858834 -0.26535183 -0.023088165
v -1.0900198 -0.42339534 0.33662426
v 0.2983532 0.97569 0.2786002
v 0.27832425 0.9814588 -0.35900143
v 0.5606321 0.79859626 -0.13836306
v 0.11798251 1.1859382 -0.03350454
v -0.028014183 1.0313314 -0.44923928
v -0.13018024 1.050963 0.3810675
v -0.19205713 1.0395302 -0.31280288
v -0.38551307 1.0174786 0.105155356
v -0.5751451 0.8479339 0.43330348
v -0.7882072 0.6695355 0.23243204
v -0.5990913 0.6288787 -0.41960153
v -0.2681588 -0.25682288 -0.22633451
v -0.71793854 0.21327215 -0.31492475
v -0.6740185 -0.10079676 -0.058765568
v -0.32088554 0.03887695 -0.43798175
v -0.5990913 0.6288787 -0.41960153
v -0.32289922 0.43982232 -0.5159369
v -0.19205713 1.0395302 -0.31280288
v 0.37321103 0.03664726 -0.42416516
v -0.029789329 0.8297907 -0.552807
v -0.028014183 1.0313314 -0.44923928
v 0.27832425 0.9814588 -0.35900143
v 0.5050156 0.4870628 -0.39761466
v 0.7381002 0.14296621 -0.15537551
v 0.5606321 0.79859626 -0.13836306
v 0.5078039 0.35755193 0.4645096
v 0.7381002 0.14296621 -0.15537551
v 0.45713305 -0.003601849 0.2089234
v 0.7087215 0.533846 0.15060765
v 0.41401613 0.6899022 0.4042729
v 0.5050156 0.4870628 -0.39761466
v 0.2983532 0.97569 0.2786002
v 0.5606321 0.79859626 -0.13836306
v 1.0803094 -0.88258445 -0.38583076
v 1.303584 -1.0247713 -0.6286942
v 1.3222238 -0.8065089 -0.44101557
v 0.94636035 -1.2978308 -0.49814117
v 1.164651 -1.5438491 -0.59133196
v 1.3875228 -1.4405711 -0.62693316
v 1.5777122 -1.079178 -0.595433
v 1.1621512 -0.8417926 0.021289624
v 1.0803094 -0.88258445 -0.38583076
v 1.3222238 -0.8065089 -0.44101557
v 1.4072882 -0.8862486 0.018447302
v 1.5495232 -0.8638804 -0.29668468
v 1.5777122 -1.079178 -0.595433
v 1.303584 -1.0247713 -0.6286942
v 0.9736732 -1.4810102 0.14082348
v 1.2059577 -1.6795983 0.041906424
v 0.9661257 -1.6521461 -0.08154946
v 1.3782667 -1.3980148 0.1860404
v 1.4309124 -1.6375272 -0.039425455
v 0.9126884 -1.2501326 0.060229577
v 1.3410741 -1.0265298 0.14060128
v 1.5990025 -1.1973262 0.057611056
v 1.1621512 -0.8417926 0.021289624
v 1.4072882 -0.8862486 0.018447302
v 1.164651 -1.5438491 -0.59133196
v 1.3211507 -1.7218021 -0.34299812
v 1.3875228 -1.4405711 -0.62693316
v 0.9661257 -1.6521461 -0.08154946
v 1.5261208 -1.5744326 -0.306312
v 1.2059577 -1.6795983 0.041906424
v 1.4309124 -1.6375272 -0.039425455
vt 0.31237638 0.5343013
vt 0.37554526 0.47669142
vt 0.31833935 0.46080047
vt 0.13617519 0.34811538
vt 0.19303843 0.47874734
vt 0.091626465 0.37629646
vt 0.09472585 0.49728793
vt 0.1733045 0.5638241
vt 0.76586324 0.68342197
vt 0.9784469 0.619486
vt 0.8801617 0.662706
vt 0.47669142 0.49784938
vt 0.39851788 0.5035331
vt 0.46080047 0.5672517
vt 0.4063642 0.42071512
vt 0.5032827 0.405688
vt 0.44486886 0.34565595
vt 0.34127325 0.35284775
vt 0.5516406 0.5157324
vt 0.43850055 0.41323414
vt 0.542956 0.42399406
vt 0.37628752 0.5643247
vt 0.49728793 0.639441
vt 0.37629646 0.64022547
vt 0.32940757 0.44343644
vt 0.36607045 0.34975183
vt 0.32611126 0.5246011
vt 0.23177889 0.3047733
vt 0.34535798 0.34127325
vt 0.14830235 0.36607045
vt 0.35332638 0.44486886
vt 0.14252493 0.542956
vt 0.06735167 0.43850055
vt 0.64423287 0.76586324
vt 0.6268067 0.64165896
vt 0.4391462 0.6760672
vt 0.47986373 0.81207776
vt 0.5722008 0.9784469
vt 0.3704244 0.8524544
vt 0.42482397 1.004334
vt 0.27179623 0.93451035
vt 0.30689827 0.7283371
vt 0.19852215 0.8731574
vt 0.39817467 0.56898
vt 0.27496114 0.603767
vt 0.37737182 0.445834
vt 0.23779273 0.5034626
vt 0.33791602 0.58072627
vt 0.39817467 0.7131301
vt 0.27496114 0.70138395
vt 0.54258597 0.52588445
vt 0.5979451 0.37779814
vt 0.35923856 0.3730465
vt 0.6268067 0.5955234
vt 0.4391462 0.7804048
vt 0.723434 0.4702375
vt 0.35339707 0.53099436
vt 0.21296501 0.54438615
vt 0.33936834 0.39098173
vt 0.1839849 0.47241533
vt 0.13356397 0.5721032
vt 0.19656113 0.3523571
vt 0.07470867 0.495627
vt 0.11195305 0.32030785
vt 0.101435095 0.418329
vt 0.27175796 0.3188975
vt 0.14747137 0.30806428
vt 0.26896626 0.45155478
vt 0.34580088 0.42163992
vt 0.33810824 0.53001684
vt 0.23112562 0.54348564
vt 0.07973623 0.51011384
vt 0.1621069 0.58765376
vt 0.13617519 0.61600864
vt 0.043090343 0.5643247
vt 0.091626465 0.64022547
vt 0.07914609 0.5246011
vt 0.15083957 0.4837048
vt 0.07647464 0.44343644
vt 0.14830235 0.34975183
vt 0.31833935 0.5672517
vt 0.23177889 0.37673974
vt 0.31318843 0.43870336
vt 0.3735453 0.5035331
vt 0.34535798 0.35284775
vt 0.3936765 0.42071512
vt 0.603767 0.70138395
vt 0.5324155 0.58072627
vt 0.6082327 0.5034626
vt 0.6911026 0.6131712
vt 0.8731574 0.60360825
vt 0.7283371 0.78790534
vt 0.78877306 0.5204912
vt 0.71624404 0.41536698
vt 0.85917515 0.37936762
vt 0.31237638 0.4995707
vt 0.31833935 0.5672517
vt 0.19303843 0.66812795
vt 0.1733045 0.5997822
vt 0.22165462 0.48552787
vt 0.3502274 0.405688
vt 0.37554526 0.49784938
vt 0.14252493 0.42399406
vt 0.35332638 0.34565595
vt 0.061757445 0.5157324
vt 0.09472585 0.639441
vt 0.5722008 0.619486
vt 0.5653126 0.4002086
vt 0.662401 0.47608826
vt 0.5101695 0.5121501
vt 0.45995986 0.3691749
vt 0.42482397 0.65472543
vt 0.40354392 0.41609672
vt 0.33701253 0.55983657
vt 0.27179623 0.6726899
vt 0.19852215 0.60360825
vt 0.26356092 0.37936762
vt 0.37737182 0.55457383
vt 0.2226882 0.71624404
vt 0.23779273 0.6082327
vt 0.35923856 0.6562678
vt 0.26356092 0.85917515
vt 0.35854605 0.7941568
vt 0.40354392 1.0004022
vt 0.5979451 0.655501
vt 0.45934936 0.9282707
vt 0.45995986 0.99758255
vt 0.5653126 0.98043084
vt 0.64327395 0.8104033
vt 0.723434 0.6920651
vt 0.662401 0.91754264
vt 0.76586324 0.68342197
vt 0.6920651 0.4702375
vt 0.64165896 0.5955234
vt 0.8264925 0.57546806
vt 0.8801617 0.662706
vt 0.8104033 0.38692912
vt 0.9784469 0.619486
vt 0.91754264 0.47608826
vt 0.84112304 0.33936834
vt 0.9179093 0.29046893
vt 0.92431974 0.36553147
vt 0.7950567 0.19656113
vt 0.870129 0.11195305
vt 0.94677675 0.14747137
vt 1.0121846 0.27175796
vt 0.86926925 0.53099436
vt 0.84112304 0.39098173
vt 0.92431974 0.37200314
vt 0.9535742 0.53001684
vt 1.0024903 0.42163992
vt 1.0121846 0.3188975
vt 0.9179093 0.30745864
vt 0.8044498 0.13356397
vt 0.8843347 0.06526759
vt 0.80185413 0.07470867
vt 0.94359344 0.1621069
vt 0.9616988 0.07973623
vt 0.7834766 0.21296501
vt 0.9308026 0.28986418
vt 1.0195066 0.23112562
vt 0.86926925 0.35339707
vt 0.9535742 0.33810824
vt 0.870129 0.32030785
vt 0.9239507 0.40571228
vt 0.94677675 0.30806428
vt 0.80185413 0.495627
vt 0.99444187 0.418329
vt 0.8843347 0.5380847
vt 0.9616988 0.51011384
vn 0.5131033 0.8314084 0.21327224
vn 0.8621709 0.40093052 0.30970326
vn 0.62959933 -0.03636761 0.77606833
vn 0.14961572 -0.81477356 0.56014204
vn 0.29198766 0.13026701 0.9475092
vn -0.44866484 -0.42215934 0.78770643
vn -0.57540447 0.3811627 0.7236192
vn 0.0705398 0.88872945 0.4529724
vn 0.67090374 -0.08259799 0.73692995
vn 0.52591974 0.69989437 0.4832765
vn -0.13693622 0.35695478 0.92403024
vn 0.8621709 0.40093052 0.30970326
vn 0.65592694 -0.49881062 0.5665225
vn 0.62959933 -0.03636761 0.77606833
vn 0.9780627 -0.186642 -0.0925104
vn 0.5637711 0.7421553 -0.3624469
vn 0.50261563 0.33774778 -0.7958039
vn 0.5166855 -0.60453296 -0.6062805
vn -0.71937484 0.6934066 -0.041074544
vn -0.79089725 0.14431398 -0.59468913
vn -0.24721792 0.7467165 -0.61749315
vn -0.9126353 -0.3265704 0.24586274
vn -0.57540447 0.3811627 0.7236192
vn -0.44866484 -0.42215934 0.78770643
vn -0.65979767 -0.68007344 -0.31963578
vn -0.36956325 -0.2998539 -0.8794945
vn -0.4074559 -0.90292495 0.13677092
vn 0.0075355507 -0.9252279 -0.37933716
vn 0.5166855 -0.60453296 -0.6062805
vn -0.36956325 -0.2998539 -0.8794945
vn 0.50261563 0.33774778 -0.7958039
vn -0.24721792 0.7467165 -0.61749315
vn -0.79089725 0.14431398 -0.59468913
vn 0.67090374 -0.08259799 0.73692995
vn 0.6690125 -0.64735043 0.3651844
vn 0.2428374 -0.34973228 0.90483
vn 0.32700294 0.2732691 0.9046508
vn 0.52591974 0.69989437 0.4832765
vn -0.1237927 0.3834306 0.91523564
vn -0.032031555 0.84206593 0.5384226
vn -0.57159126 0.64779884 0.50362694
vn -0.43729988 -0.06356726 0.8970663
vn -0.8765806 0.4363683 0.20295097
vn 0.07556483 -0.8229522 0.56306255
vn -0.6106086 -0.57541376 0.5441104
vn -0.13024488 -0.8747015 -0.46683356
vn -0.72859466 -0.6323614 -0.26318994
vn -0.29457197 -0.9540317 0.055235595
vn 0.07556483 -0.8229522 0.56306255
vn -0.6106086 -0.57541376 0.5441104
vn 0.3829499 -0.92177975 -0.060592227
vn 0.38849333 -0.5146537 -0.7643327
vn -0.20163643 -0.46586004 -0.8615784
vn 0.6690125 -0.64735043 0.3651844
vn 0.2428374 -0.34973228 0.90483
vn 0.9091927 -0.3550181 -0.21755655
vn -0.35887933 0.79150885 0.4946912
vn -0.7634018 0.23976067 0.5997771
vn -0.647344 0.6913893 -0.32082146
vn -0.99976486 0.003624656 -0.021378042
vn -0.52347404 -0.23146938 0.8199981
vn -0.7911705 -0.011026658 -0.6114963
vn -0.64380616 -0.7470976 0.16540469
vn -0.31943998 -0.5356373 -0.7816974
vn 0.8177931 -0.5596112 -0.13434985
vn 0.71051395 0.197356 -0.6754411
vn 0.34763727 -0.36469716 -0.8637965
vn 0.9833241 0.1599233 0.086592585
vn 0.6395698 0.76657045 -0.057620235
vn 0.42403647 0.7517536 0.5050344
vn 0.842009 0.04586699 0.53751016
vn 0.58447045 -0.71201366 0.3891412
vn 0.320713 -0.250373 0.91348594
vn 0.14961572 -0.81477356 0.56014204
vn -0.9126353 -0.3265704 0.24586274
vn -0.44866484 -0.42215934 0.78770643
vn -0.4074559 -0.90292495 0.13677092
vn 0.09129447 -0.9888565 0.1175935
vn -0.65979767 -0.68007344 -0.31963578
vn -0.36956325 -0.2998539 -0.8794945
vn 0.62959933 -0.03636761 0.77606833
vn 0.0075355507 -0.9252279 -0.37933716
vn 0.37697318 -0.8607768 0.3419863
vn 0.65592694 -0.49881062 0.5665225
vn 0.5166855 -0.60453296 -0.6062805
vn 0.9780627 -0.186642 -0.0925104
vn -0.6106086 -0.57541376 0.5441104
vn -0.29457197 -0.9540317 0.055235595
vn -0.72859466 -0.6323614 -0.26318994
vn -0.9266666 -0.28747234 0.24217446
vn -0.8765806 0.4363683 0.20295097
vn -0.43729988 -0.06356726 0.8970663
vn -0.9852821 0.09106304 -0.14466035
vn -0.73894805 -0.25516975 -0.62357366
vn -0.6360257 0.36298665 -0.680964
vn 0.5131033 0.8314084 0.21327224
vn 0.62959933 -0.03636761 0.77606833
vn 0.29198766 0.13026701 0.9475092
vn 0.0705398 0.88872945 0.4529724
vn 0.13123596 0.97137266 -0.19802119
vn 0.5637711 0.7421553 -0.3624469
vn 0.8621709 0.40093052 0.30970326
vn -0.24721792 0.7467165 -0.61749315
vn 0.50261563 0.33774778 -0.7958039
vn -0.71937484 0.6934066 -0.041074544
vn -0.57540447 0.3811627 0.7236192
vn 0.52591974 0.69989437 0.4832765
vn 0.51057595 0.66974497 -0.5392159
vn 0.80869114 0.53716815 -0.23972718
vn 0.19668876 0.9804654 -0.0010484641
vn -0.0889451 0.69322526 -0.7152115
vn -0.032031555 0.84206593 0.5384226
vn -0.3818986 0.79807854 -0.46607307
vn -0.51406115 0.8567942 -0.04055638
vn -0.57159126 0.64779884 0.50362694
vn -0.8765806 0.4363683 0.20295097
vn -0.6360257 0.36298665 -0.680964
vn -0.13024488 -0.8747015 -0.46683356
vn -0.73894805 -0.25516975 -0.62357366
vn -0.72859466 -0.6323614 -0.26318994
vn -0.20163643 -0.46586004 -0.8615784
vn -0.6360257 0.36298665 -0.680964
vn -0.18693723 -0.0057808175 -0.9823548
vn -0.3818986 0.79807854 -0.46607307
vn 0.38849333 -0.5146537 -0.7643327
vn 0.032064445 0.27193785 -0.9617805
vn -0.0889451 0.69322526 -0.7152115
vn 0.51057595 0.66974497 -0.5392159
vn 0.59728134 0.109483466 -0.79452395
vn 0.9091927 -0.3550181 -0.21755655
vn 0.80869114 0.53716815 -0.23972718
vn 0.67090374 -0.08259799 0.73692995
vn 0.9091927 -0.3550181 -0.21755655
vn 0.6690125 -0.64735043 0.3651844
vn 0.9496828 0.2014712 0.23981649
vn -0.13693622 0.35695478 0.92403024
vn 0.59728134 0.109483466 -0.79452395
vn 0.52591974 0.69989437 0.4832765
vn 0.80869114 0.53716815 -0.23972718
vn -0.647344 0.6913893 -0.32082146
vn -0.096838884 0.4052054 -0.9090824
vn 0.016507534 0.9147277 -0.4037337
vn -0.7911705 -0.011026658 -0.6114963
vn -0.31943998 -0.5356373 -0.7816974
vn 0.34763727 -0.36469716 -0.8637965
vn 0.71051395 0.197356 -0.6754411
vn -0.35887933 0.79150885 0.4946912
vn -0.647344 0.6913893 -0.32082146
vn 0.016507534 0.9147277 -0.4037337
vn 0.42403647 0.7517536 0.5050344
vn 0.6395698 0.76657045 -0.057620235
vn 0.71051395 0.197356 -0.6754411
vn -0.096838884 0.4052054 -0.9090824
vn -0.52347404 -0.23146938 0.8199981
vn 0.020767495 -0.8364846 0.5475967
vn -0.64380616 -0.7470976 0.16540469
vn 0.320713 -0.250373 0.91348594
vn 0.58447045 -0.71201366 0.3891412
vn -0.7634018 0.23976067 0.5997771
vn 0.110852234 0.34130803 0.9333919
vn 0.842009 0.04586699 0.53751016
vn -0.35887933 0.79150885 0.4946912
vn 0.42403647 0.7517536 0.5050344
vn -0.31943998 -0.5356373 -0.7816974
vn 0.16058159 -0.9455888 -0.2829756
vn 0.34763727 -0.36469716 -0.8637965
vn -0.64380616 -0.7470976 0.16540469
vn 0.8177931 -0.5596112 -0.13434985
vn 0.020767495 -0.8364846 0.5475967
vn 0.58447045 -0.71201366 0.3891412
g RockGrouping2_0
f 3/3/3 2/2/2 1/1/1
f 5/5/5 4/4/4 3/3/3
f 6/6/6 4/4/4 5/5/5
f 6/6/6 5/5/5 7/7/7
f 7/7/7 5/5/5 8/8/8
f 11/11/11 10/10/10 9/9/9
f 14/14/14 13/13/13 12/12/12
f 15/15/15 12/12/12 13/13/13
f 12/12/12 15/15/15 16/16/16
f 15/15/15 17/17/17 16/16/16
f 17/17/17 15/15/15 18/18/18
f 21/21/21 20/20/20 19/19/19
f 20/20/20 22/22/22 19/19/19
f 23/23/23 19/19/19 22/22/22
f 22/22/22 24/24/24 23/23/23
f 25/25/25 22/22/22 20/20/20
f 20/20/20 26/26/26 25/25/25
f 22/22/22 25/25/25 27/27/27
f 30/30/30 29/29/29 28/28/28
f 29/29/29 30/30/30 31/31/31
f 32/32/32 31/31/31 30/30/30
f 33/33/33 32/32/32 30/30/30
f 36/36/36 35/35/35 34/34/34
f 36/36/36 34/34/34 37/37/37
f 38/38/38 37/37/37 34/34/34
f 37/37/37 38/38/38 39/39/39
f 37/37/37 39/39/39 36/36/36
f 38/38/38 40/40/40 39/39/39
f 41/41/41 39/39/39 40/40/40
f 39/39/39 42/42/42 36/36/36
f 39/39/39 41/41/41 42/42/42
f 41/41/41 43/43/43 42/42/42
f 36/36/36 42/42/42 44/44/44
f 42/42/42 45/45/45 44/44/44
f 48/48/48 47/47/47 46/46/46
f 49/49/49 48/48/48 46/46/46
f 49/49/49 50/50/50 48/48/48
f 51/51/51 49/49/49 46/46/46
f 51/51/51 46/46/46 52/52/52
f 46/46/46 53/53/53 52/52/52
f 51/51/51 54/54/54 49/49/49
f 51/51/51 52/52/52 54/54/54
f 54/54/54 55/55/55 49/49/49
f 52/52/52 56/56/56 54/54/54
f 59/59/59 58/58/58 57/57/57
f 60/60/60 58/58/58 59/59/59
f 58/58/58 60/60/60 61/61/61
f 62/62/62 60/60/60 59/59/59
f 60/60/60 63/63/63 61/61/61
f 60/60/60 62/62/62 63/63/63
f 64/64/64 63/63/63 62/62/62
f 67/67/67 66/66/66 65/65/65
f 66/66/66 68/68/68 65/65/65
f 66/66/66 69/69/69 68/68/68
f 69/69/69 70/70/70 68/68/68
f 70/70/70 71/71/71 68/68/68
f 68/68/68 71/71/71 65/65/65
f 72/72/72 65/65/65 71/71/71
f 73/73/73 72/72/72 71/71/71
f 76/76/76 75/75/75 74/74/74
f 75/75/75 77/77/77 74/74/74
f 77/77/77 78/78/78 74/74/74
f 78/78/78 77/77/77 79/79/79
f 79/79/79 80/80/80 78/78/78
f 78/78/78 81/81/81 74/74/74
f 80/80/80 82/82/82 78/78/78
f 83/83/83 81/81/81 78/78/78
f 83/83/83 78/78/78 82/82/82
f 84/84/84 81/81/81 83/83/83
f 83/83/83 82/82/82 85/85/85
f 86/86/86 84/84/84 83/83/83
f 85/85/85 86/86/86 83/83/83
f 89/89/89 88/88/88 87/87/87
f 90/90/90 89/89/89 87/87/87
f 90/90/90 87/87/87 91/91/91
f 87/87/87 92/92/92 91/91/91
f 90/90/90 93/93/93 89/89/89
f 93/93/93 90/90/90 91/91/91
f 93/93/93 94/94/94 89/89/89
f 95/95/95 93/93/93 91/91/91
f 94/94/94 93/93/93 95/95/95
f 98/98/98 97/97/97 96/96/96
f 99/99/99 98/98/98 96/96/96
f 99/99/99 96/96/96 100/100/100
f 100/100/100 96/96/96 101/101/101
f 96/96/96 102/102/102 101/101/101
f 103/103/103 100/100/100 101/101/101
f 100/100/100 103/103/103 99/99/99
f 104/104/104 103/103/103 101/101/101
f 103/103/103 105/105/105 99/99/99
f 99/99/99 105/105/105 106/106/106
f 109/109/109 108/108/108 107/107/107
f 108/108/108 110/110/110 107/107/107
f 110/110/110 108/108/108 111/111/111
f 110/110/110 112/112/112 107/107/107
f 113/113/113 110/110/110 111/111/111
f 112/112/112 110/110/110 113/113/113
f 114/114/114 112/112/112 113/113/113
f 114/114/114 115/115/115 112/112/112
f 115/115/115 114/114/114 116/116/116
f 116/116/116 114/114/114 113/113/113
f 116/116/116 113/113/113 117/117/117
f 120/120/120 119/119/119 118/118/118
f 119/119/119 121/121/121 118/118/118
f 121/121/121 119/119/119 122/122/122
f 123/123/123 121/121/121 122/122/122
f 123/123/123 122/122/122 124/124/124
f 123/123/123 125/125/125 121/121/121
f 126/126/126 123/123/123 124/124/124
f 125/125/125 123/123/123 126/126/126
f 127/127/127 126/126/126 124/124/124
f 127/127/127 128/128/128 126/126/126
f 129/129/129 125/125/125 126/126/126
f 129/129/129 126/126/126 128/128/128
f 129/129/129 130/130/130 125/125/125
f 131/131/131 129/129/129 128/128/128
f 134/134/134 133/133/133 132/132/132
f 133/133/133 135/135/135 132/132/132
f 135/135/135 136/136/136 132/132/132
f 135/135/135 133/133/133 137/137/137
f 138/138/138 136/136/136 135/135/135
f 139/139/139 135/135/135 137/137/137
f 139/139/139 138/138/138 135/135/135
f 142/142/142 141/141/141 140/140/140
f 141/141/141 143/143/143 140/140/140
f 143/143/143 141/141/141 144/144/144
f 145/145/145 144/144/144 141/141/141
f 141/141/141 146/146/146 145/145/145
f 149/149/149 148/148/148 147/147/147
f 149/149/149 147/147/147 150/150/150
f 151/151/151 149/149/149 150/150/150
f 149/149/149 151/151/151 152/152/152
f 153/153/153 149/149/149 152/152/152
f 156/156/156 155/155/155 154/154/154
f 155/155/155 157/157/157 154/154/154
f 155/155/155 158/158/158 157/157/157
f 154/154/154 157/157/157 159/159/159
f 159/159/159 157/157/157 160/160/160
f 160/160/160 157/157/157 161/161/161
f 162/162/162 159/159/159 160/160/160
f 163/163/163 160/160/160 161/161/161
f 163/163/163 162/162/162 160/160/160
f 166/166/166 165/165/165 164/164/164
f 165/165/165 167/167/167 164/164/164
f 165/165/165 166/166/166 168/168/168
f 169/169/169 167/167/167 165/165/165
f 168/168/168 170/170/170 165/165/165
f 169/169/169 165/165/165 170/170/170
