g RockSIngle3
v 0.52138656 0.024048233 -0.29922286
v 0.49112695 0.19311531 -0.26795882
v 0.3730716 0.029517043 -0.43759745
v 0.50683475 -0.30453897 -0.21362025
v 0.35217234 -0.28743184 -0.28823996
v 0.31274945 -0.35058686 -0.19457933
v -0.39013875 0.28355825 0.16367069
v -0.46046367 0.0154135395 0.310321
v -0.2087957 0.13999836 0.1180497
v -0.22677492 -0.23141968 0.15118118
v -0.37854233 -0.27751708 0.31304273
v -0.07982482 -0.076535 -0.08421159
v -0.18762882 0.18678956 -0.17718191
v -0.39013875 0.28355825 0.16367069
v -0.34122407 0.37689653 -0.1505219
v -0.14515954 -0.4068592 0.21263379
v -0.18914513 -0.43898582 0.3697035
v 0.03054148 -0.21898225 0.037427615
v -0.07982482 -0.076535 -0.08421159
v 0.07601464 -0.05727361 -0.21754926
v -0.18762882 0.18678956 -0.17718191
v 0.20262682 -0.37603644 0.20256206
v -0.18914513 -0.43898582 0.3697035
v 0.20767495 -0.3225322 0.044273537
v 0.32908097 -0.37660834 0.072678894
v 0.31274945 -0.35058686 -0.19457933
v 0.017679458 -0.4439903 0.38125545
v -0.08464113 -0.36613083 0.5785505
v -0.38303056 -0.24202996 0.5322466
v -0.37854233 -0.27751708 0.31304273
v 0.35217234 -0.28743184 -0.28823996
v 0.10154393 0.15464082 -0.2994084
v 0.21497907 -0.023247 -0.3957015
v -0.044361882 0.24758366 -0.3126585
v -0.34122407 0.37689653 -0.1505219
v 0.3730716 0.029517043 -0.43759745
v 0.50683475 -0.30453897 -0.21362025
v 0.52138656 0.024048233 -0.29922286
v 0.20839499 0.28211093 -0.33378315
v 0.0028438107 0.35988426 -0.336221
v -0.33421725 0.518779 -0.104553014
v -0.123448476 0.5129978 -0.17662905
v 0.4060902 0.18201645 0.119243205
v 0.29367325 0.28307632 0.3185138
v 0.2963229 0.294977 0.12064068
v 0.49112695 0.19311531 -0.26795882
v 0.49112695 0.19311531 -0.26795882
v 0.2963229 0.294977 0.12064068
v 0.080573276 0.4280102 -0.25555733
v 0.13501602 0.34264785 0.006614031
v -0.15353063 0.54301316 0.032247044
v 0.29367325 0.28307632 0.3185138
v -0.123448476 0.5129978 -0.17662905
v 0.0028438107 0.35988426 -0.336221
v 0.20839499 0.28211093 -0.33378315
v 0.49112695 0.19311531 -0.26795882
v 0.3730716 0.029517043 -0.43759745
v -0.33421725 0.518779 -0.104553014
v -0.3888154 0.35407767 0.30186495
v -0.025193261 0.39496046 0.3800823
v -0.040744126 0.24153185 0.5191829
v 0.18973233 0.18123811 0.45875424
v -0.44096723 0.11611514 0.49307635
v 0.012967349 -0.015165699 0.63647366
v -0.38303056 -0.24202996 0.5322466
v -0.16158365 -0.13209787 0.6208593
v -0.08464113 -0.36613083 0.5785505
v -0.16158365 -0.13209787 0.6208593
v 0.012967349 -0.015165699 0.63647366
v -0.08464113 -0.36613083 0.5785505
v 0.23292811 -0.122272655 0.44265306
v 0.18973233 0.18123811 0.45875424
v 0.29367325 0.28307632 0.3185138
v 0.22203161 -0.29437357 0.41495493
v 0.017679458 -0.4439903 0.38125545
v 0.20262682 -0.37603644 0.20256206
v 0.44032905 -0.3156632 0.08806366
v 0.32908097 -0.37660834 0.072678894
v 0.50683475 -0.30453897 -0.21362025
v 0.31274945 -0.35058686 -0.19457933
v 0.44032905 -0.3156632 0.08806366
v 0.5333193 -0.11702419 -0.14019608
v 0.4060902 0.18201645 0.119243205
v 0.50683475 -0.30453897 -0.21362025
v 0.49112695 0.19311531 -0.26795882
v 0.52138656 0.024048233 -0.29922286
v -0.34122407 0.37689653 -0.1505219
v -0.33421725 0.518779 -0.104553014
v -0.3888154 0.35407767 0.30186495
v -0.39013875 0.28355825 0.16367069
v -0.44096723 0.11611514 0.49307635
v -0.46046367 0.0154135395 0.310321
v -0.38303056 -0.24202996 0.5322466
v -0.37854233 -0.27751708 0.31304273
vt 0.59295994 0.9693881
vt 0.51960623 0.9624809
vt 0.59145486 1
vt 0.42923406 0.055493116
vt 0.40163955 0.070694625
vt 0.4254402 0.114947945
vt 0.09689677 0.3838289
vt 0.20158845 0.46407643
vt 0.1750204 0.3287579
vt 0.3241216 0.36342123
vt 0.32984227 0.45856932
vt 0.2715332 0.2398569
vt 0.14935362 0.22410873
vt 0.09689677 0.3838289
vt 0.055102766 0.2633057
vt 0.4066691 0.3711881
vt 0.41936922 0.4358095
vt 0.34603485 0.25810722
vt 0.2715332 0.2398569
vt 0.27804142 0.15436447
vt 0.14935362 0.22410873
vt 0.43512446 0.2751844
vt 0.41936922 0.4358095
vt 0.40912485 0.219266
vt 0.44627714 0.19954231
vt 0.4254402 0.114947945
vt 0.44627714 0.3856626
vt 0.4088455 0.47308633
vt 0.32183146 0.52971596
vt 0.32984227 0.45856932
vt 0.40163955 0.070694625
vt 0.19280809 0.10996622
vt 0.27517328 0.057855844
vt 0.13750911 0.13907379
vt 0.055102766 0.2633057
vt 0.27126738 0
vt 0.42923406 0.055493116
vt 0.29540157 0.006744623
vt 0.15285283 0.06415707
vt 0.09695518 0.11321312
vt 0 0.26922938
vt 0.025068104 0.19069842
vt 0.5024395 0.79832995
vt 0.44627714 0.70934165
vt 0.45084494 0.7871703
vt 0.51960623 0.9624809
vt 0.7495624 0.47225863
vt 0.72469735 0.32063457
vt 0.59094775 0.4574754
vt 0.645838 0.35217038
vt 0.5372497 0.3410748
vt 0.7495624 0.2444554
vt 0.52115226 0.41786888
vt 0.5478596 0.46777558
vt 0.62915426 0.47828895
vt 0.7495624 0.47225863
vt 0.6767774 0.49594358
vt 0.44627714 0.3674259
vt 0.47503805 0.18292296
vt 0.63192517 0.20231849
vt 0.6412262 0.124073684
vt 0.7245312 0.16376215
vt 0.47498247 0.06749064
vt 0.6735003 0.04555726
vt 0.49674588 0.0025103688
vt 0.59928274 0.012547255
vt 0.62020123 0
vt 0.5875473 0.4959436
vt 0.54477024 0.5242768
vt 0.6904173 0.5106494
vt 0.6074202 0.62772965
vt 0.47808066 0.632598
vt 0.44627714 0.70934165
vt 0.68025726 0.62659484
vt 0.73639077 0.5986512
vt 0.72376466 0.70105773
vt 0.71331525 0.78643763
vt 0.73516095 0.77128744
vt 0.72566503 0.9145195
vt 0.73639077 0.8738589
vt 0.71331525 0.78643763
vt 0.644815 0.90129197
vt 0.5024395 0.79832995
vt 0.72566503 0.9145195
vt 0.51960623 0.9624809
vt 0.59295994 0.9693881
vt 0.055102766 0.2633057
vt 0 0.26922938
vt 0.07286906 0.42511827
vt 0.09689677 0.3838289
vt 0.16890734 0.5136473
vt 0.20158845 0.46407643
vt 0.32183146 0.52971596
vt 0.32984227 0.45856932
vn 0.62084126 -0.052557535 -0.78217244
vn 0.47894368 0.4628442 -0.74591434
vn 0.20753302 0.023567928 -0.977944
vn 0.27846998 -0.9397279 -0.19840832
vn 0.15133205 -0.8479257 -0.50805575
vn 0.26958108 -0.9365781 -0.22393657
vn -0.46595573 -0.32736504 -0.8220203
vn -0.586839 -0.16999924 -0.7916566
vn -0.7549046 -0.4050504 -0.51580346
vn -0.58552504 -0.38645625 -0.7126093
vn -0.6540793 -0.418039 -0.6304154
vn -0.90852624 -0.19689728 -0.36852622
vn -0.80659777 -0.5570895 -0.19761407
vn -0.69884396 -0.67989206 -0.22217976
vn -0.7638641 -0.5764643 -0.2901734
vn -0.25565344 -0.78497046 -0.56432503
vn -0.57431483 -0.64065254 -0.5096341
vn -0.28772643 -0.7303784 -0.61948436
vn -0.39517903 -0.62038743 -0.6774606
vn -0.58514893 -0.49629062 -0.6413238
vn -0.49212348 -0.3214795 -0.80899036
vn -0.17551272 -0.8814759 -0.43840104
vn -0.2461858 -0.95597553 0.15969725
vn -0.47722647 -0.8320227 -0.2828306
vn -0.364728 -0.91350913 -0.1802073
vn -0.6493718 -0.6600429 -0.37770298
vn 0.23421521 -0.9581373 0.16466996
vn 0.031391047 -0.6437711 0.76457405
vn -0.5280142 -0.7857228 0.32224345
vn -0.5280142 -0.7857228 0.32224345
vn -0.10880203 -0.52410066 -0.84467775
vn -0.40267023 -0.18777566 -0.8958778
vn -0.4712549 -0.22993238 -0.85149866
vn -0.35214514 -0.35837016 -0.8646182
vn -0.44202045 0.23240244 -0.86637586
vn 0.20753302 0.023567928 -0.977944
vn 0.52986515 -0.31560963 -0.787168
vn 0.62084126 -0.052557535 -0.78217244
vn -0.23265165 -0.0041953875 -0.97255105
vn -0.12514003 0.26930404 -0.9548902
vn -0.36635298 0.42768815 -0.8263585
vn -0.020457068 0.8609434 -0.5082892
vn 0.7115531 0.6897834 0.13375756
vn 0.68602645 0.56880647 0.45368147
vn 0.55193174 0.82798797 0.099031754
vn 0.5570191 0.8289315 0.051011864
vn 0.5570191 0.8289315 0.051011864
vn 0.55193174 0.82798797 0.099031754
vn 0.343234 0.8593885 -0.3790011
vn 0.37856477 0.9255566 -0.0058062198
vn 0.0784138 0.98464864 0.15594342
vn 0.68602645 0.56880647 0.45368147
vn -0.020457068 0.8609434 -0.5082892
vn -0.12514003 0.26930404 -0.9548902
vn 0.34038934 0.6317935 -0.69639933
vn 0.47894368 0.4628442 -0.74591434
vn 0.20753302 0.023567928 -0.977944
vn -0.20894372 0.97241277 0.10371135
vn -0.24892245 0.7781767 0.5766096
vn 0.12805434 0.8283069 0.54544455
vn 0.043026425 0.5595691 0.8276661
vn 0.55306166 0.3378208 0.7615773
vn -0.2659641 0.40794083 0.87341136
vn 0.2493559 0.09558077 0.96368355
vn -0.29698408 -0.022378892 0.9546201
vn -0.20338337 -0.051670697 0.9777348
vn 0.031391047 -0.6437711 0.76457405
vn -0.20338337 -0.051670697 0.9777348
vn 0.2493559 0.09558077 0.96368355
vn 0.031391047 -0.6437711 0.76457405
vn 0.7531871 -0.067620896 0.6543215
vn 0.55306166 0.3378208 0.7615773
vn 0.68602645 0.56880647 0.45368147
vn 0.63980156 -0.49364427 0.589041
vn 0.23421521 -0.9581373 0.16466996
vn 0.4329906 -0.848181 0.3051361
vn 0.3559963 -0.9266741 0.12058953
vn 0.36249667 -0.9164416 0.16950206
vn 0.27846998 -0.9397279 -0.19840832
vn 0.26958108 -0.9365781 -0.22393657
vn 0.92011523 -0.017314158 0.3912647
vn 0.9839267 -0.0272427 0.17648213
vn 0.9080637 0.07167641 0.41265345
vn 0.98091745 -0.17316182 0.08840789
vn 0.9462442 0.10264604 0.30673382
vn 0.9936572 0.110059336 0.02307308
vn -0.98343974 0.16686267 -0.07073316
vn -0.98343974 0.16686267 -0.07073316
vn -0.98343974 0.16686267 -0.07073316
vn -0.98343974 0.16686267 -0.07073316
vn -0.99994695 -0.0024632446 0.010002623
vn -0.99864954 -0.04293438 0.029253244
vn -0.9736647 -0.20240204 0.104930624
vn -0.9736647 -0.20240204 0.104930624
g RockSIngle3_0
f 3/3/3 2/2/2 1/1/1
f 6/6/6 5/5/5 4/4/4
f 9/9/9 8/8/8 7/7/7
f 9/9/9 10/10/10 8/8/8
f 8/8/8 10/10/10 11/11/11
f 9/9/9 12/12/12 10/10/10
f 13/13/13 12/12/12 9/9/9
f 14/14/14 13/13/13 9/9/9
f 13/13/13 14/14/14 15/15/15
f 11/11/11 10/10/10 16/16/16
f 17/17/17 11/11/11 16/16/16
f 16/16/16 10/10/10 18/18/18
f 10/10/10 19/19/19 18/18/18
f 19/19/19 20/20/20 18/18/18
f 19/19/19 21/21/21 20/20/20
f 16/16/16 18/18/18 22/22/22
f 23/23/23 16/16/16 22/22/22
f 22/22/22 18/18/18 24/24/24
f 20/20/20 24/24/24 18/18/18
f 24/24/24 25/25/25 22/22/22
f 25/25/25 24/24/24 26/26/26
f 24/24/24 20/20/20 26/26/26
f 27/27/27 23/23/23 22/22/22
f 23/23/23 27/27/27 28/28/28
f 28/28/28 29/29/29 23/23/23
f 29/29/29 30/30/30 23/23/23
f 26/26/26 20/20/20 31/31/31
f 21/21/21 32/32/32 20/20/20
f 20/20/20 33/33/33 31/31/31
f 33/33/33 20/20/20 32/32/32
f 34/34/34 32/32/32 21/21/21
f 21/21/21 35/35/35 34/34/34
f 33/33/33 36/36/36 31/31/31
f 37/37/37 31/31/31 36/36/36
f 38/38/38 37/37/37 36/36/36
f 39/39/39 36/36/36 33/33/33
f 32/32/32 39/39/39 33/33/33
f 39/39/39 32/32/32 34/34/34
f 40/40/40 39/39/39 34/34/34
f 35/35/35 40/40/40 34/34/34
f 35/35/35 41/41/41 40/40/40
f 41/41/41 42/42/42 40/40/40
f 45/45/45 44/44/44 43/43/43
f 46/46/46 45/45/45 43/43/43
f 49/49/49 48/48/48 47/47/47
f 49/49/49 50/50/50 48/48/48
f 50/50/50 51/51/51 48/48/48
f 49/49/49 51/51/51 50/50/50
f 52/52/52 48/48/48 51/51/51
f 49/49/49 53/53/53 51/51/51
f 54/54/54 53/53/53 49/49/49
f 55/55/55 54/54/54 49/49/49
f 55/55/55 49/49/49 56/56/56
f 57/57/57 55/55/55 56/56/56
f 53/53/53 58/58/58 51/51/51
f 58/58/58 59/59/59 51/51/51
f 60/60/60 52/52/52 51/51/51
f 51/51/51 59/59/59 60/60/60
f 52/52/52 60/60/60 61/61/61
f 60/60/60 59/59/59 61/61/61
f 62/62/62 52/52/52 61/61/61
f 59/59/59 63/63/63 61/61/61
f 61/61/61 64/64/64 62/62/62
f 63/63/63 64/64/64 61/61/61
f 64/64/64 63/63/63 65/65/65
f 66/66/66 64/64/64 65/65/65
f 65/65/65 67/67/67 66/66/66
f 70/70/70 69/69/69 68/68/68
f 71/71/71 69/69/69 70/70/70
f 69/69/69 71/71/71 72/72/72
f 71/71/71 73/73/73 72/72/72
f 74/74/74 71/71/71 70/70/70
f 75/75/75 74/74/74 70/70/70
f 75/75/75 76/76/76 74/74/74
f 74/74/74 76/76/76 77/77/77
f 76/76/76 78/78/78 77/77/77
f 79/79/79 77/77/77 78/78/78
f 80/80/80 79/79/79 78/78/78
f 81/81/81 71/71/71 74/74/74
f 82/82/82 73/73/73 71/71/71
f 71/71/71 81/81/81 82/82/82
f 82/82/82 83/83/83 73/73/73
f 84/84/84 82/82/82 81/81/81
f 83/83/83 82/82/82 85/85/85
f 84/84/84 86/86/86 82/82/82
f 82/82/82 86/86/86 85/85/85
f 89/89/89 88/88/88 87/87/87
f 89/89/89 87/87/87 90/90/90
f 91/91/91 89/89/89 90/90/90
f 90/90/90 92/92/92 91/91/91
f 93/93/93 91/91/91 92/92/92
f 94/94/94 93/93/93 92/92/92
