g RotatingLid
v 2.527237E-05 -0.9714554 0.06681061
v 2.527237E-05 0.9369754 0.06681061
v 1.1589365 0.9369754 0.06681061
v 1.1589365 -0.9714554 0.06681061
v 2.527237E-05 -0.9714554 -0.014487863
v 1.1589365 -0.9714554 -0.014487863
v 1.1589365 0.9369754 -0.014487863
v 2.527237E-05 0.9369754 -0.014487863
v 1.1589365 -0.9714554 0.06681061
v 1.1589365 -0.9714554 -0.014487863
v 2.527237E-05 -0.9714554 -0.014487863
v 2.527237E-05 -0.9714554 0.06681061
v 1.1589365 0.9369754 0.06681061
v 1.1589365 0.9369754 -0.014487863
v 1.1589365 -0.9714554 -0.014487863
v 1.1589365 -0.9714554 0.06681061
v 2.527237E-05 0.9369754 0.06681061
v 2.527237E-05 0.9369754 -0.014487863
v 1.1589365 0.9369754 -0.014487863
v 1.1589365 0.9369754 0.06681061
v 2.527237E-05 -0.9714554 0.06681061
v 2.527237E-05 -0.9714554 -0.014487863
v 2.527237E-05 0.9369754 -0.014487863
v 2.527237E-05 0.9369754 0.06681061
v 0.029035479 0.38490546 0.13097942
v 0.12794894 -0.42340684 0.040344477
v 0.029035479 -0.42340684 0.13097942
v 0.12794894 0.38490546 0.040344477
v 0.09891336 -0.42340684 -0.09063482
v 0.09891337 0.38490546 -0.09063476
v -0.029035628 -0.42340684 -0.13097876
v -0.029035628 0.38490546 -0.13097888
v -0.12794918 -0.42340684 -0.04034376
v -0.12794915 0.38490546 -0.04034376
v -0.09891358 -0.42340684 0.09063554
v -0.09891358 0.38490546 0.09063554
v 0.029035479 -0.42340684 0.13097942
v 0.029035479 0.38490546 0.13097942
v 0.09891336 -0.42340684 -0.09063482
v -0.029035628 -0.42340684 -0.13097876
v -0.12794918 -0.42340684 -0.04034376
v 0.12794894 -0.42340684 0.040344477
v -0.09891358 -0.42340684 0.09063554
v 0.029035479 -0.42340684 0.13097942
v -0.12794915 0.38490546 -0.04034376
v -0.029035628 0.38490546 -0.13097888
v 0.09891337 0.38490546 -0.09063476
v 0.12794894 0.38490546 0.040344477
v -0.09891358 0.38490546 0.09063554
v 0.029035479 0.38490546 0.13097942
vt 0.43432617 0.26904297
vt 0.43432617 0.23339844
vt 0.45581055 0.23339844
vt 0.45581055 0.26904297
vt 0.43432617 0.26904297
vt 0.45581055 0.26904297
vt 0.45581055 0.23339844
vt 0.43432617 0.23339844
vt 0.45581055 0.26904297
vt 0.45581055 0.26904297
vt 0.43432617 0.26904297
vt 0.43432617 0.26904297
vt 0.45581055 0.23339844
vt 0.45581055 0.23339844
vt 0.45581055 0.26904297
vt 0.45581055 0.26904297
vt 0.43432617 0.23339844
vt 0.43432617 0.23339844
vt 0.45581055 0.23339844
vt 0.45581055 0.23339844
vt 0.43432617 0.26904297
vt 0.43432617 0.26904297
vt 0.43432617 0.23339844
vt 0.43432617 0.23339844
vt 0.42382812 0.921875
vt 0.42163086 0.92871094
vt 0.42382812 0.92871094
vt 0.42163086 0.921875
vt 0.41918945 0.92871094
vt 0.41918945 0.921875
vt 0.4169922 0.92871094
vt 0.4169922 0.921875
vt 0.41479492 0.92871094
vt 0.41479492 0.921875
vt 0.41235352 0.92871094
vt 0.41235352 0.921875
vt 0.41015625 0.92871094
vt 0.41015625 0.921875
vt 0.4165039 0.9169922
vt 0.41357422 0.91503906
vt 0.41064453 0.9169922
vt 0.4165039 0.9199219
vt 0.41064453 0.9199219
vt 0.41357422 0.921875
vt 0.41748047 0.9169922
vt 0.42041016 0.91503906
vt 0.4230957 0.9169922
vt 0.4230957 0.9199219
vt 0.41748047 0.9199219
vt 0.42041016 0.921875
vn -0 0 1
vn -0 0 1
vn -0 0 1
vn -0 0 1
vn -0 0 -1
vn -0 0 -1
vn -0 0 -1
vn -0 0 -1
vn -0 -1 0
vn -0 -1 0
vn -0 -1 0
vn -0 -1 0
vn 1 0 0
vn 1 0 0
vn 1 0 0
vn 1 0 0
vn -0 1 0
vn -0 1 0
vn -0 1 0
vn -0 1 0
vn -1 0 0
vn -1 0 0
vn -1 0 0
vn -1 0 0
vn 0.21643066 0 0.9760742
vn 0.9536133 0 0.30078125
vn 0.21643066 0 0.9760742
vn 0.9536133 0 0.30078125
vn 0.7373047 0 -0.67578125
vn 0.7373047 0 -0.67578125
vn -0.21643066 0 -0.9760742
vn -0.21643066 0 -0.9760742
vn -0.9536133 0 -0.30078125
vn -0.9536133 0 -0.30078125
vn -0.7373047 0 0.67578125
vn -0.7373047 0 0.67578125
vn 0.21643066 0 0.9760742
vn 0.21643066 0 0.9760742
vn -0 -1 0
vn -0 -1 0
vn -0 -1 0
vn -0 -1 0
vn -0 -1 0
vn -0 -1 0
vn -0 1 0
vn -0 1 0
vn -0 1 0
vn -0 1 0
vn -0 1 0
vn -0 1 0
g RotatingLid_0
f 3/3/3 2/2/2 1/1/1
f 4/4/4 3/3/3 1/1/1
f 7/7/7 6/6/6 5/5/5
f 8/8/8 7/7/7 5/5/5
f 11/11/11 10/10/10 9/9/9
f 12/12/12 11/11/11 9/9/9
f 15/15/15 14/14/14 13/13/13
f 16/16/16 15/15/15 13/13/13
f 19/19/19 18/18/18 17/17/17
f 20/20/20 19/19/19 17/17/17
f 23/23/23 22/22/22 21/21/21
f 24/24/24 23/23/23 21/21/21
f 27/27/27 26/26/26 25/25/25
f 26/26/26 28/28/28 25/25/25
f 26/26/26 29/29/29 28/28/28
f 29/29/29 30/30/30 28/28/28
f 29/29/29 31/31/31 30/30/30
f 31/31/31 32/32/32 30/30/30
f 31/31/31 33/33/33 32/32/32
f 33/33/33 34/34/34 32/32/32
f 33/33/33 35/35/35 34/34/34
f 35/35/35 36/36/36 34/34/34
f 35/35/35 37/37/37 36/36/36
f 37/37/37 38/38/38 36/36/36
f 41/41/41 40/40/40 39/39/39
f 39/39/39 42/42/42 41/41/41
f 42/42/42 43/43/43 41/41/41
f 42/42/42 44/44/44 43/43/43
f 47/47/47 46/46/46 45/45/45
f 45/45/45 48/48/48 47/47/47
f 45/45/45 49/49/49 48/48/48
f 49/49/49 50/50/50 48/48/48
