g RoundFlask
v 5.439531E-10 0.5392397 -0.2773138
v 0.26961985 0.46699524 -0.2773138
v 0.4818892 0.8346566 0.15260649
v 1.799143E-10 0.9637784 0.15260649
v -0.26961985 0.46699524 -0.2773138
v -5.2120632E-09 1.1227981 0.73783183
v 0.56139904 0.9723717 0.73783183
v -0.4818892 0.8346566 0.15260649
v -0.46699524 0.26961985 -0.2773138
v -0.8346566 0.4818892 0.15260649
v -0.97237176 0.56139904 0.73783183
v -0.56139904 0.9723717 0.73783183
v -0.7964395 0.4598245 1.2938362
v -0.4598245 0.7964394 1.2938362
v -0.5265127 0.30398226 1.6211575
v -9.974436E-09 0.919649 1.2938362
v 0.4598245 0.7964394 1.2938362
v -0.3039821 0.5265127 1.6211575
v -0.3005879 0.17354463 1.7667633
v 1.1293064E-07 0.6079645 1.6211575
v 0.30398238 0.5265127 1.6211575
v -0.17354435 0.3005881 1.7667633
v -0.27875456 0.16093902 2.7165747
v 2.7381282E-07 0.34708926 1.7667633
v 0.17354493 0.3005881 1.7667633
v -0.16093896 0.27875453 2.7165747
v -0.3231213 0.18655413 2.791455
v -0.18655412 0.32312122 2.791455
v 4.806907E-08 0.32187805 2.7165747
v 0.16093908 0.27875453 2.7165747
v 4.945605E-09 0.37310827 2.791455
v 0.18655415 0.32312122 2.791455
v 0.5392397 3.4631853E-10 -0.2773138
v 0.46699524 -0.26961985 -0.2773138
v 0.8346566 -0.4818892 0.15260649
v 0.9637784 -1.3511507E-09 0.15260649
v 0.46699524 0.26961985 -0.2773138
v 1.1227981 2.8676026E-09 0.73783183
v 0.9723717 -0.56139904 0.73783183
v 0.8346566 0.4818892 0.15260649
v 0.26961985 0.46699524 -0.2773138
v 0.4818892 0.8346566 0.15260649
v 0.56139904 0.9723717 0.73783183
v 0.9723717 0.56139904 0.73783183
v 0.4598245 0.7964394 1.2938362
v 0.7964394 0.4598245 1.2938362
v 0.30398238 0.5265127 1.6211575
v 0.919649 1.9016058E-09 1.2938362
v 0.7964394 -0.4598245 1.2938362
v 0.5265128 0.30398226 1.6211575
v 0.17354493 0.3005881 1.7667633
v 0.60796463 2.8846714E-09 1.6211575
v 0.5265128 -0.30398226 1.6211575
v 0.30058834 0.17354463 1.7667633
v 0.16093908 0.27875453 2.7165747
v 0.34708956 2.6055849E-09 1.7667633
v 0.30058834 -0.17354463 1.7667633
v 0.27875456 0.16093902 2.7165747
v 0.18655415 0.32312122 2.791455
v 0.32312122 0.18655413 2.791455
v 0.3218781 2.4163251E-09 2.7165747
v 0.27875456 -0.16093902 2.7165747
v 0.3731083 2.9223342E-09 2.791455
v 0.32312122 -0.18655413 2.791455
v 5.439531E-10 -0.5392397 -0.2773138
v -0.26961985 -0.46699524 -0.2773138
v -0.4818892 -0.8346566 0.15260649
v -0.12573476 -0.9121803 0.15260649
v 0.26961985 -0.46699524 -0.2773138
v -0.12573476 -1.0712 0.73783183
v -0.56139904 -0.9723717 0.73783183
v 0.4818892 -0.8346566 0.15260649
v 0.46699524 -0.26961985 -0.2773138
v 0.8346566 -0.4818892 0.15260649
v 0.9723717 -0.56139904 0.73783183
v 0.56139904 -0.9723717 0.73783183
v 0.7964394 -0.4598245 1.2938362
v 0.4598245 -0.7964394 1.2938362
v 0.5265128 -0.30398226 1.6211575
v -9.974436E-09 -0.919649 1.2938362
v -0.4598245 -0.7964394 1.2938362
v 0.30398238 -0.5265127 1.6211575
v 0.30058834 -0.17354463 1.7667633
v 1.1293064E-07 -0.6079645 1.6211575
v -0.3039821 -0.5265127 1.6211575
v 0.17354493 -0.3005881 1.7667633
v 0.27875456 -0.16093902 2.7165747
v 2.7381282E-07 -0.34708926 1.7667633
v -0.17354435 -0.3005881 1.7667633
v 0.16093908 -0.27875453 2.7165747
v 0.32312122 -0.18655413 2.791455
v 0.18655415 -0.32312122 2.791455
v 4.806907E-08 -0.32187805 2.7165747
v -0.16093896 -0.27875453 2.7165747
v 4.945605E-09 -0.37310827 2.791455
v -0.18655412 -0.32312122 2.791455
v -0.5392397 3.4631853E-10 -0.2773138
v -0.46699524 0.26961985 -0.2773138
v -0.8346566 0.4818892 0.15260649
v -0.9637784 -1.3511507E-09 0.15260649
v -0.46699524 -0.26961985 -0.2773138
v -1.1227981 2.8676026E-09 0.73783183
v -0.97237176 0.56139904 0.73783183
v -0.8346566 -0.4818892 0.15260649
v -0.26961985 -0.46699524 -0.2773138
v -0.4818892 -0.8346566 0.15260649
v -0.56139904 -0.9723717 0.73783183
v -0.97237176 -0.56139904 0.73783183
v -0.4598245 -0.7964394 1.2938362
v -0.7964395 -0.4598245 1.2938362
v -0.3039821 -0.5265127 1.6211575
v -0.919649 1.9016058E-09 1.2938362
v -0.7964395 0.4598245 1.2938362
v -0.5265127 -0.30398226 1.6211575
v -0.17354435 -0.3005881 1.7667633
v -0.6079644 2.8846714E-09 1.6211575
v -0.5265127 0.30398226 1.6211575
v -0.3005879 -0.17354463 1.7667633
v -0.16093896 -0.27875453 2.7165747
v -0.347089 2.6055849E-09 1.7667633
v -0.3005879 0.17354463 1.7667633
v -0.27875456 -0.16093902 2.7165747
v -0.18655412 -0.32312122 2.791455
v -0.3231213 -0.18655413 2.791455
v -0.32187796 2.4163251E-09 2.7165747
v -0.27875456 0.16093902 2.7165747
v -0.37310824 2.9223342E-09 2.791455
v -0.3231213 0.18655413 2.791455
v 0.46699524 -0.26961985 -0.2773138
v 0.5392397 3.4631853E-10 -0.2773138
v 0.46699524 0.26961985 -0.2773138
v 0.26961985 -0.46699524 -0.2773138
v 0.26961985 0.46699524 -0.2773138
v 5.439531E-10 -0.5392397 -0.2773138
v 5.439531E-10 0.5392397 -0.2773138
v -0.26961985 -0.46699524 -0.2773138
v -0.26961985 0.46699524 -0.2773138
v -0.46699524 -0.26961985 -0.2773138
v -0.46699524 0.26961985 -0.2773138
v -0.5392397 3.4631853E-10 -0.2773138
v 0.25014225 0.14441971 2.8139343
v 0.28883943 3.5251269E-09 2.8139343
v 0.25014225 -0.14441969 2.8139343
v 0.14441973 0.25014225 2.8139343
v 0.14441973 -0.25014225 2.8139343
v 6.7252586E-09 0.2888394 2.8139343
v 6.7252586E-09 -0.2888394 2.8139343
v -0.14441967 0.25014225 2.8139343
v -0.14441967 -0.25014225 2.8139343
v -0.25014234 0.14441971 2.8139343
v -0.25014234 -0.14441969 2.8139343
v -0.28883937 3.5251269E-09 2.8139343
v -0.3231213 0.18655413 2.791455
v -0.25014234 0.14441971 2.8139343
v -0.28883937 3.5251269E-09 2.8139343
v -0.37310824 2.9223342E-09 2.791455
v -0.18655412 0.32312122 2.791455
v -0.25014234 -0.14441969 2.8139343
v -0.14441967 0.25014225 2.8139343
v -0.3231213 -0.18655413 2.791455
v 4.945605E-09 0.37310827 2.791455
v -0.14441967 -0.25014225 2.8139343
v 6.7252586E-09 0.2888394 2.8139343
v -0.18655412 -0.32312122 2.791455
v 0.18655415 0.32312122 2.791455
v 6.7252586E-09 -0.2888394 2.8139343
v 0.14441973 0.25014225 2.8139343
v 4.945605E-09 -0.37310827 2.791455
v 0.32312122 0.18655413 2.791455
v 0.14441973 -0.25014225 2.8139343
v 0.25014225 0.14441971 2.8139343
v 0.18655415 -0.32312122 2.791455
v 0.3731083 2.9223342E-09 2.791455
v 0.25014225 -0.14441969 2.8139343
v 0.28883943 3.5251269E-09 2.8139343
v 0.32312122 -0.18655413 2.791455
vt 0.9135742 0.5180664
vt 0.98095703 0.51708984
vt 0.9980469 0.47802734
vt 0.9199219 0.4790039
vt 0.8364258 0.5180664
vt 0.9082031 0.35668945
vt 0.9658203 0.35595703
vt 0.8300781 0.4790039
vt 0.76904297 0.51708984
vt 0.7519531 0.47802734
vt 0.7841797 0.35595703
vt 0.8417969 0.35668945
vt 0.81347656 0.24401855
vt 0.85253906 0.24450684
vt 0.8330078 0.1706543
vt 0.89746094 0.24450684
vt 0.93652344 0.24401855
vt 0.859375 0.17102051
vt 0.84277344 0.13220215
vt 0.890625 0.17102051
vt 0.9169922 0.1706543
vt 0.86328125 0.13244629
vt 0.84277344 0.024749756
vt 0.88671875 0.13244629
vt 0.90722656 0.13220215
vt 0.86328125 0.025009155
vt 0.8378906 0.0020618439
vt 0.8613281 0.002368927
vt 0.88671875 0.025009155
vt 0.90722656 0.024749756
vt 0.8886719 0.002368927
vt 0.9121094 0.0020618439
vt 0.5864258 0.0020618439
vt 0.51904297 0.002937317
vt 0.5019531 0.041900635
vt 0.5800781 0.040893555
vt 0.6635742 0.0020618439
vt 0.5917969 0.16333008
vt 0.5341797 0.1640625
vt 0.6699219 0.040893555
vt 0.73095703 0.002937317
vt 0.7480469 0.041900635
vt 0.7158203 0.1640625
vt 0.6582031 0.16333008
vt 0.68652344 0.2758789
vt 0.64746094 0.27539062
vt 0.6669922 0.34936523
vt 0.60253906 0.27539062
vt 0.56347656 0.2758789
vt 0.640625 0.34887695
vt 0.65722656 0.38793945
vt 0.609375 0.34887695
vt 0.5830078 0.34936523
vt 0.63671875 0.3876953
vt 0.65722656 0.49536133
vt 0.61328125 0.3876953
vt 0.59277344 0.38793945
vt 0.63671875 0.49487305
vt 0.6621094 0.5180664
vt 0.6386719 0.5175781
vt 0.61328125 0.49487305
vt 0.59277344 0.49536133
vt 0.6113281 0.5175781
vt 0.5878906 0.5180664
vt 0.33618164 0.0020618439
vt 0.26904297 0.002937317
vt 0.25195312 0.041900635
vt 0.33007812 0.040893555
vt 0.41381836 0.0020618439
vt 0.34179688 0.16333008
vt 0.2841797 0.1640625
vt 0.41992188 0.040893555
vt 0.48095703 0.002937317
vt 0.49804688 0.041900635
vt 0.4658203 0.1640625
vt 0.40820312 0.16333008
vt 0.43652344 0.2758789
vt 0.39746094 0.27539062
vt 0.41723633 0.34936523
vt 0.35253906 0.27539062
vt 0.31347656 0.2758789
vt 0.39038086 0.34887695
vt 0.40698242 0.38793945
vt 0.35961914 0.34887695
vt 0.33276367 0.34936523
vt 0.38671875 0.3876953
vt 0.40698242 0.49536133
vt 0.36328125 0.3876953
vt 0.34301758 0.38793945
vt 0.38671875 0.49487305
vt 0.41210938 0.5180664
vt 0.38867188 0.5175781
vt 0.36328125 0.49487305
vt 0.34301758 0.49536133
vt 0.36132812 0.5175781
vt 0.33789062 0.5180664
vt 0.08618164 0.0020618439
vt 0.018966675 0.002937317
vt 0.0020618439 0.041900635
vt 0.08001709 0.040893555
vt 0.16381836 0.0020618439
vt 0.09173584 0.16333008
vt 0.03414917 0.1640625
vt 0.17004395 0.040893555
vt 0.2310791 0.002937317
vt 0.2479248 0.041900635
vt 0.21582031 0.1640625
vt 0.15820312 0.16333008
vt 0.18652344 0.2758789
vt 0.14746094 0.27539062
vt 0.16723633 0.34936523
vt 0.10247803 0.27539062
vt 0.0635376 0.2758789
vt 0.14050293 0.34887695
vt 0.15710449 0.38793945
vt 0.109558105 0.34887695
vt 0.08282471 0.34936523
vt 0.13671875 0.3876953
vt 0.15710449 0.49536133
vt 0.11328125 0.3876953
vt 0.09289551 0.38793945
vt 0.13671875 0.49487305
vt 0.16223145 0.5180664
vt 0.13867188 0.5175781
vt 0.11328125 0.49487305
vt 0.09289551 0.49536133
vt 0.11138916 0.5175781
vt 0.087768555 0.5180664
vt 0.2529297 0.56103516
vt 0.18566895 0.52197266
vt 0.10809326 0.52197266
vt 0.29174805 0.6279297
vt 0.040863037 0.56103516
vt 0.29174805 0.7055664
vt 0.0020618439 0.6279297
vt 0.2529297 0.7729492
vt 0.0020618439 0.7055664
vt 0.18566895 0.81152344
vt 0.040863037 0.7729492
vt 0.10809326 0.81152344
vt 0.17907715 0.7988281
vt 0.23925781 0.76416016
vt 0.27392578 0.7036133
vt 0.10961914 0.7988281
vt 0.27392578 0.63427734
vt 0.049438477 0.76416016
vt 0.23925781 0.57421875
vt 0.014701843 0.7036133
vt 0.17907715 0.5395508
vt 0.014701843 0.63427734
vt 0.10961914 0.5395508
vt 0.049438477 0.57421875
vt 0.29589844 0.55908203
vt 0.30737305 0.5625
vt 0.3178711 0.5439453
vt 0.3095703 0.53564453
vt 0.29589844 0.5864258
vt 0.33618164 0.5336914
vt 0.30737305 0.5834961
vt 0.3330078 0.52197266
vt 0.3095703 0.6098633
vt 0.35717773 0.5336914
vt 0.3178711 0.6015625
vt 0.36035156 0.52197266
vt 0.3330078 0.62353516
vt 0.37548828 0.5439453
vt 0.33618164 0.6123047
vt 0.38378906 0.53564453
vt 0.36035156 0.62353516
vt 0.38598633 0.5625
vt 0.35717773 0.6123047
vt 0.39746094 0.55908203
vt 0.38378906 0.6098633
vt 0.38598633 0.5834961
vt 0.37548828 0.6015625
vt 0.39746094 0.5864258
vn -0 0.4375 -0.89941406
vn 0.21875 0.37890625 -0.89941406
vn 0.43823242 0.75927734 -0.4814453
vn -0 0.87646484 -0.4814453
vn -0.21875 0.37890625 -0.89941406
vn -0 0.99902344 0.040496826
vn 0.49951172 0.8652344 0.040496826
vn -0.43823242 0.75927734 -0.4814453
vn -0.37890625 0.21875 -0.89941406
vn -0.75927734 0.43823242 -0.4814453
vn -0.8652344 0.49951172 0.040496826
vn -0.49951172 0.8652344 0.040496826
vn -0.74365234 0.42919922 0.5126953
vn -0.42919922 0.74365234 0.5126953
vn -0.54345703 0.31396484 0.7783203
vn -0 0.85839844 0.5126953
vn 0.42919922 0.74365234 0.5126953
vn -0.31396484 0.54345703 0.7783203
vn -0.7192383 0.41503906 0.5576172
vn -0 0.6279297 0.7783203
vn 0.31396484 0.54345703 0.7783203
vn -0.41503906 0.7192383 0.5576172
vn -0.82666016 0.47729492 -0.29760742
vn -0 0.8300781 0.5576172
vn 0.41503906 0.7192383 0.5576172
vn -0.47729492 0.82666016 -0.29760742
vn -0.71484375 0.41259766 -0.5644531
vn -0.41259766 0.71484375 -0.5644531
vn -0 0.95458984 -0.29760742
vn 0.47729492 0.82666016 -0.29760742
vn -0 0.8251953 -0.5644531
vn 0.41259766 0.71484375 -0.5644531
vn 0.4375 0 -0.89941406
vn 0.37890625 -0.21875 -0.89941406
vn 0.75927734 -0.43823242 -0.4814453
vn 0.87646484 0 -0.4814453
vn 0.37890625 0.21875 -0.89941406
vn 0.99902344 0 0.040496826
vn 0.8652344 -0.49951172 0.040496826
vn 0.75927734 0.43823242 -0.4814453
vn 0.21875 0.37890625 -0.89941406
vn 0.43823242 0.75927734 -0.4814453
vn 0.49951172 0.8652344 0.040496826
vn 0.8652344 0.49951172 0.040496826
vn 0.42919922 0.74365234 0.5126953
vn 0.74365234 0.42919922 0.5126953
vn 0.31396484 0.54345703 0.7783203
vn 0.85839844 0 0.5126953
vn 0.74365234 -0.42919922 0.5126953
vn 0.54345703 0.31396484 0.7783203
vn 0.41503906 0.7192383 0.5576172
vn 0.6279297 0 0.7783203
vn 0.54345703 -0.31396484 0.7783203
vn 0.7192383 0.41503906 0.5576172
vn 0.47729492 0.82666016 -0.29760742
vn 0.8300781 0 0.5576172
vn 0.7192383 -0.41503906 0.5576172
vn 0.82666016 0.47729492 -0.29760742
vn 0.41259766 0.71484375 -0.5644531
vn 0.71484375 0.41259766 -0.5644531
vn 0.95458984 0 -0.29760742
vn 0.82666016 -0.47729492 -0.29760742
vn 0.8251953 0 -0.5644531
vn 0.71484375 -0.41259766 -0.5644531
vn -0.0021514893 -0.45825195 -0.8886719
vn -0.21398926 -0.3840332 -0.8984375
vn -0.42504883 -0.7680664 -0.4790039
vn -0.042663574 -0.88183594 -0.4699707
vn 0.20166016 -0.39672852 -0.8955078
vn -0.046966553 -0.99853516 0.024230957
vn -0.4868164 -0.8725586 0.036468506
vn 0.3959961 -0.7871094 -0.4729004
vn 0.37890625 -0.21875 -0.89941406
vn 0.75927734 -0.43823242 -0.4814453
vn 0.8652344 -0.49951172 0.040496826
vn 0.4584961 -0.8881836 0.02520752
vn 0.74365234 -0.42919922 0.5126953
vn 0.4152832 -0.7597656 0.5004883
vn 0.54345703 -0.31396484 0.7783203
vn 0.0019016266 -0.87060547 0.49169922
vn -0.4255371 -0.7475586 0.5097656
vn 0.31396484 -0.54345703 0.7783203
vn 0.7192383 -0.41503906 0.5576172
vn -0 -0.6279297 0.7783203
vn -0.31396484 -0.54345703 0.7783203
vn 0.41503906 -0.7192383 0.5576172
vn 0.82666016 -0.47729492 -0.29760742
vn -0 -0.8300781 0.5576172
vn -0.41503906 -0.7192383 0.5576172
vn 0.47729492 -0.82666016 -0.29760742
vn 0.71484375 -0.41259766 -0.5644531
vn 0.41259766 -0.71484375 -0.5644531
vn -0 -0.95458984 -0.29760742
vn -0.47729492 -0.82666016 -0.29760742
vn -0 -0.8251953 -0.5644531
vn -0.41259766 -0.71484375 -0.5644531
vn -0.4375 0 -0.89941406
vn -0.37890625 0.21875 -0.89941406
vn -0.75927734 0.43823242 -0.4814453
vn -0.87646484 0 -0.4814453
vn -0.37890625 -0.21875 -0.89941406
vn -0.99902344 0 0.040496826
vn -0.8652344 0.49951172 0.040496826
vn -0.75927734 -0.43823242 -0.4814453
vn -0.21398926 -0.3840332 -0.8984375
vn -0.42504883 -0.7680664 -0.4790039
vn -0.4868164 -0.8725586 0.036468506
vn -0.8652344 -0.49951172 0.040496826
vn -0.4255371 -0.7475586 0.5097656
vn -0.74365234 -0.42919922 0.5126953
vn -0.31396484 -0.54345703 0.7783203
vn -0.85839844 0 0.5126953
vn -0.74365234 0.42919922 0.5126953
vn -0.54345703 -0.31396484 0.7783203
vn -0.41503906 -0.7192383 0.5576172
vn -0.6279297 0 0.7783203
vn -0.54345703 0.31396484 0.7783203
vn -0.7192383 -0.41503906 0.5576172
vn -0.47729492 -0.82666016 -0.29760742
vn -0.8300781 0 0.5576172
vn -0.7192383 0.41503906 0.5576172
vn -0.82666016 -0.47729492 -0.29760742
vn -0.41259766 -0.71484375 -0.5644531
vn -0.71484375 -0.41259766 -0.5644531
vn -0.95458984 0 -0.29760742
vn -0.82666016 0.47729492 -0.29760742
vn -0.8251953 0 -0.5644531
vn -0.71484375 0.41259766 -0.5644531
vn 0.37890625 -0.21875 -0.89941406
vn 0.4375 0 -0.89941406
vn 0.37890625 0.21875 -0.89941406
vn 0.20166016 -0.39672852 -0.8955078
vn 0.21875 0.37890625 -0.89941406
vn -0.0021514893 -0.45825195 -0.8886719
vn -0 0.4375 -0.89941406
vn -0.21398926 -0.3840332 -0.8984375
vn -0.21875 0.37890625 -0.89941406
vn -0.37890625 -0.21875 -0.89941406
vn -0.37890625 0.21875 -0.89941406
vn -0.4375 0 -0.89941406
vn 0.13085938 0.07556152 0.98828125
vn 0.15112305 0 0.98828125
vn 0.13085938 -0.07556152 0.98828125
vn 0.07556152 0.13085938 0.98828125
vn 0.07556152 -0.13085938 0.98828125
vn -0 0.15112305 0.98828125
vn -0 -0.15112305 0.98828125
vn -0.07556152 0.13085938 0.98828125
vn -0.07556152 -0.13085938 0.98828125
vn -0.13085938 0.07556152 0.98828125
vn -0.13085938 -0.07556152 0.98828125
vn -0.15112305 0 0.98828125
vn -0.2232666 0.12890625 0.9663086
vn -0.13085938 0.07556152 0.98828125
vn -0.15112305 0 0.98828125
vn -0.2578125 0 0.9663086
vn -0.12890625 0.2232666 0.9663086
vn -0.13085938 -0.07556152 0.98828125
vn -0.07556152 0.13085938 0.98828125
vn -0.2232666 -0.12890625 0.9663086
vn -0 0.2578125 0.9663086
vn -0.07556152 -0.13085938 0.98828125
vn -0 0.15112305 0.98828125
vn -0.12890625 -0.2232666 0.9663086
vn 0.12890625 0.2232666 0.9663086
vn -0 -0.15112305 0.98828125
vn 0.07556152 0.13085938 0.98828125
vn -0 -0.2578125 0.9663086
vn 0.2232666 0.12890625 0.9663086
vn 0.07556152 -0.13085938 0.98828125
vn 0.13085938 0.07556152 0.98828125
vn 0.12890625 -0.2232666 0.9663086
vn 0.2578125 0 0.9663086
vn 0.13085938 -0.07556152 0.98828125
vn 0.15112305 0 0.98828125
vn 0.2232666 -0.12890625 0.9663086
g RoundFlask_0
f 3/3/3 2/2/2 1/1/1
f 4/4/4 3/3/3 1/1/1
f 4/4/4 1/1/1 5/5/5
f 4/4/4 6/6/6 3/3/3
f 6/6/6 7/7/7 3/3/3
f 8/8/8 4/4/4 5/5/5
f 8/8/8 5/5/5 9/9/9
f 10/10/10 8/8/8 9/9/9
f 10/10/10 11/11/11 8/8/8
f 8/8/8 12/12/12 4/4/4
f 11/11/11 12/12/12 8/8/8
f 12/12/12 6/6/6 4/4/4
f 11/11/11 13/13/13 12/12/12
f 13/13/13 14/14/14 12/12/12
f 12/12/12 14/14/14 6/6/6
f 13/13/13 15/15/15 14/14/14
f 6/6/6 16/16/16 7/7/7
f 14/14/14 16/16/16 6/6/6
f 16/16/16 17/17/17 7/7/7
f 15/15/15 18/18/18 14/14/14
f 14/14/14 18/18/18 16/16/16
f 15/15/15 19/19/19 18/18/18
f 16/16/16 20/20/20 17/17/17
f 18/18/18 20/20/20 16/16/16
f 20/20/20 21/21/21 17/17/17
f 19/19/19 22/22/22 18/18/18
f 18/18/18 22/22/22 20/20/20
f 19/19/19 23/23/23 22/22/22
f 20/20/20 24/24/24 21/21/21
f 22/22/22 24/24/24 20/20/20
f 24/24/24 25/25/25 21/21/21
f 23/23/23 26/26/26 22/22/22
f 22/22/22 26/26/26 24/24/24
f 23/23/23 27/27/27 26/26/26
f 27/27/27 28/28/28 26/26/26
f 24/24/24 29/29/29 25/25/25
f 26/26/26 29/29/29 24/24/24
f 26/26/26 28/28/28 29/29/29
f 29/29/29 30/30/30 25/25/25
f 28/28/28 31/31/31 29/29/29
f 29/29/29 31/31/31 30/30/30
f 31/31/31 32/32/32 30/30/30
f 35/35/35 34/34/34 33/33/33
f 36/36/36 35/35/35 33/33/33
f 36/36/36 33/33/33 37/37/37
f 36/36/36 38/38/38 35/35/35
f 38/38/38 39/39/39 35/35/35
f 40/40/40 36/36/36 37/37/37
f 40/40/40 37/37/37 41/41/41
f 42/42/42 40/40/40 41/41/41
f 42/42/42 43/43/43 40/40/40
f 40/40/40 44/44/44 36/36/36
f 43/43/43 44/44/44 40/40/40
f 44/44/44 38/38/38 36/36/36
f 43/43/43 45/45/45 44/44/44
f 45/45/45 46/46/46 44/44/44
f 44/44/44 46/46/46 38/38/38
f 45/45/45 47/47/47 46/46/46
f 38/38/38 48/48/48 39/39/39
f 46/46/46 48/48/48 38/38/38
f 48/48/48 49/49/49 39/39/39
f 47/47/47 50/50/50 46/46/46
f 46/46/46 50/50/50 48/48/48
f 47/47/47 51/51/51 50/50/50
f 48/48/48 52/52/52 49/49/49
f 50/50/50 52/52/52 48/48/48
f 52/52/52 53/53/53 49/49/49
f 51/51/51 54/54/54 50/50/50
f 50/50/50 54/54/54 52/52/52
f 51/51/51 55/55/55 54/54/54
f 52/52/52 56/56/56 53/53/53
f 54/54/54 56/56/56 52/52/52
f 56/56/56 57/57/57 53/53/53
f 55/55/55 58/58/58 54/54/54
f 54/54/54 58/58/58 56/56/56
f 55/55/55 59/59/59 58/58/58
f 59/59/59 60/60/60 58/58/58
f 56/56/56 61/61/61 57/57/57
f 58/58/58 61/61/61 56/56/56
f 58/58/58 60/60/60 61/61/61
f 61/61/61 62/62/62 57/57/57
f 60/60/60 63/63/63 61/61/61
f 61/61/61 63/63/63 62/62/62
f 63/63/63 64/64/64 62/62/62
f 67/67/67 66/66/66 65/65/65
f 68/68/68 67/67/67 65/65/65
f 68/68/68 65/65/65 69/69/69
f 68/68/68 70/70/70 67/67/67
f 70/70/70 71/71/71 67/67/67
f 72/72/72 68/68/68 69/69/69
f 72/72/72 69/69/69 73/73/73
f 74/74/74 72/72/72 73/73/73
f 74/74/74 75/75/75 72/72/72
f 72/72/72 76/76/76 68/68/68
f 75/75/75 76/76/76 72/72/72
f 76/76/76 70/70/70 68/68/68
f 75/75/75 77/77/77 76/76/76
f 77/77/77 78/78/78 76/76/76
f 76/76/76 78/78/78 70/70/70
f 77/77/77 79/79/79 78/78/78
f 70/70/70 80/80/80 71/71/71
f 78/78/78 80/80/80 70/70/70
f 80/80/80 81/81/81 71/71/71
f 79/79/79 82/82/82 78/78/78
f 78/78/78 82/82/82 80/80/80
f 79/79/79 83/83/83 82/82/82
f 80/80/80 84/84/84 81/81/81
f 82/82/82 84/84/84 80/80/80
f 84/84/84 85/85/85 81/81/81
f 83/83/83 86/86/86 82/82/82
f 82/82/82 86/86/86 84/84/84
f 83/83/83 87/87/87 86/86/86
f 84/84/84 88/88/88 85/85/85
f 86/86/86 88/88/88 84/84/84
f 88/88/88 89/89/89 85/85/85
f 87/87/87 90/90/90 86/86/86
f 86/86/86 90/90/90 88/88/88
f 87/87/87 91/91/91 90/90/90
f 91/91/91 92/92/92 90/90/90
f 88/88/88 93/93/93 89/89/89
f 90/90/90 93/93/93 88/88/88
f 90/90/90 92/92/92 93/93/93
f 93/93/93 94/94/94 89/89/89
f 92/92/92 95/95/95 93/93/93
f 93/93/93 95/95/95 94/94/94
f 95/95/95 96/96/96 94/94/94
f 99/99/99 98/98/98 97/97/97
f 100/100/100 99/99/99 97/97/97
f 100/100/100 97/97/97 101/101/101
f 100/100/100 102/102/102 99/99/99
f 102/102/102 103/103/103 99/99/99
f 104/104/104 100/100/100 101/101/101
f 104/104/104 101/101/101 105/105/105
f 106/106/106 104/104/104 105/105/105
f 106/106/106 107/107/107 104/104/104
f 104/104/104 108/108/108 100/100/100
f 107/107/107 108/108/108 104/104/104
f 108/108/108 102/102/102 100/100/100
f 107/107/107 109/109/109 108/108/108
f 109/109/109 110/110/110 108/108/108
f 108/108/108 110/110/110 102/102/102
f 109/109/109 111/111/111 110/110/110
f 102/102/102 112/112/112 103/103/103
f 110/110/110 112/112/112 102/102/102
f 112/112/112 113/113/113 103/103/103
f 111/111/111 114/114/114 110/110/110
f 110/110/110 114/114/114 112/112/112
f 111/111/111 115/115/115 114/114/114
f 112/112/112 116/116/116 113/113/113
f 114/114/114 116/116/116 112/112/112
f 116/116/116 117/117/117 113/113/113
f 115/115/115 118/118/118 114/114/114
f 114/114/114 118/118/118 116/116/116
f 115/115/115 119/119/119 118/118/118
f 116/116/116 120/120/120 117/117/117
f 118/118/118 120/120/120 116/116/116
f 120/120/120 121/121/121 117/117/117
f 119/119/119 122/122/122 118/118/118
f 118/118/118 122/122/122 120/120/120
f 119/119/119 123/123/123 122/122/122
f 123/123/123 124/124/124 122/122/122
f 120/120/120 125/125/125 121/121/121
f 122/122/122 125/125/125 120/120/120
f 122/122/122 124/124/124 125/125/125
f 125/125/125 126/126/126 121/121/121
f 124/124/124 127/127/127 125/125/125
f 125/125/125 127/127/127 126/126/126
f 127/127/127 128/128/128 126/126/126
f 131/131/131 130/130/130 129/129/129
f 129/129/129 132/132/132 131/131/131
f 132/132/132 133/133/133 131/131/131
f 132/132/132 134/134/134 133/133/133
f 134/134/134 135/135/135 133/133/133
f 134/134/134 136/136/136 135/135/135
f 136/136/136 137/137/137 135/135/135
f 136/136/136 138/138/138 137/137/137
f 138/138/138 139/139/139 137/137/137
f 138/138/138 140/140/140 139/139/139
f 143/143/143 142/142/142 141/141/141
f 141/141/141 144/144/144 143/143/143
f 144/144/144 145/145/145 143/143/143
f 144/144/144 146/146/146 145/145/145
f 146/146/146 147/147/147 145/145/145
f 146/146/146 148/148/148 147/147/147
f 148/148/148 149/149/149 147/147/147
f 148/148/148 150/150/150 149/149/149
f 150/150/150 151/151/151 149/149/149
f 150/150/150 152/152/152 151/151/151
f 155/155/155 154/154/154 153/153/153
f 156/156/156 155/155/155 153/153/153
f 153/153/153 154/154/154 157/157/157
f 158/158/158 155/155/155 156/156/156
f 154/154/154 159/159/159 157/157/157
f 160/160/160 158/158/158 156/156/156
f 157/157/157 159/159/159 161/161/161
f 162/162/162 158/158/158 160/160/160
f 159/159/159 163/163/163 161/161/161
f 164/164/164 162/162/162 160/160/160
f 161/161/161 163/163/163 165/165/165
f 166/166/166 162/162/162 164/164/164
f 163/163/163 167/167/167 165/165/165
f 168/168/168 166/166/166 164/164/164
f 165/165/165 167/167/167 169/169/169
f 170/170/170 166/166/166 168/168/168
f 167/167/167 171/171/171 169/169/169
f 172/172/172 170/170/170 168/168/168
f 169/169/169 171/171/171 173/173/173
f 174/174/174 170/170/170 172/172/172
f 171/171/171 175/175/175 173/173/173
f 176/176/176 174/174/174 172/172/172
f 173/173/173 175/175/175 176/176/176
f 175/175/175 174/174/174 176/176/176
