g ScissorArmBase
v -0.75884277 0.36362553 1.0366151
v -0.5455288 0.27526796 1.0366151
v -0.43223912 0.25484717 4.58729
v -0.64555305 0.34320468 4.58729
v -0.9721567 0.27526796 1.0366151
v -0.858867 0.2548471 4.58729
v -0.5455288 0.27526796 1.0366151
v -0.34388155 0.041533172 4.58729
v -0.43223912 0.25484717 4.58729
v -0.45717126 0.06195402 1.0366151
v -0.43223912 -0.1717807 4.58729
v -0.5455288 -0.15135992 1.0366151
v -0.5455288 -0.15135992 1.0366151
v -0.6455531 -0.26013827 4.58729
v -0.43223912 -0.1717807 4.58729
v -0.75884277 -0.23971748 1.0366151
v -0.858867 -0.1717807 4.58729
v -0.9721567 -0.15135992 1.0366151
v -0.9721567 -0.15135992 1.0366151
v -0.9472245 0.04153323 4.58729
v -0.858867 -0.1717807 4.58729
v -1.0605142 0.06195402 1.0366151
v -0.858867 0.2548471 4.58729
v -0.9721567 0.27526796 1.0366151
v -0.43223912 0.25484717 4.58729
v -0.34388155 0.041533172 4.58729
v -0.43223912 -0.1717807 4.58729
v -0.64555305 0.34320468 4.58729
v -0.6455531 -0.26013827 4.58729
v -0.858867 0.2548471 4.58729
v -0.858867 -0.1717807 4.58729
v -0.9472245 0.04153323 4.58729
v -0.5455288 -0.15135992 1.0366151
v -0.45717126 0.06195402 1.0366151
v -0.5455288 0.27526796 1.0366151
v -0.75884277 -0.23971748 1.0366151
v -0.75884277 0.36362553 1.0366151
v -0.9721567 -0.15135992 1.0366151
v -0.9721567 0.27526796 1.0366151
v -1.0605142 0.06195402 1.0366151
v 0.54497504 0.41769272 0.94813323
v 0.81759477 0.30476987 0.94813323
v 0.81759477 0.30476987 9.533671
v 0.54497504 0.41769272 9.533671
v 0.27235544 0.30476987 0.94813323
v 0.27235544 0.30476987 9.533671
v 0.81759477 0.30476987 0.94813323
v 0.93051755 0.03215021 9.533671
v 0.81759477 0.30476987 9.533671
v 0.93051755 0.03215021 0.94813323
v 0.81759477 -0.24046946 9.533671
v 0.81759477 -0.24046946 0.94813323
v 0.81759477 -0.24046946 0.94813323
v 0.54497504 -0.35339224 9.533671
v 0.81759477 -0.24046946 9.533671
v 0.54497504 -0.35339224 0.94813323
v 0.27235544 -0.24046946 9.533671
v 0.27235544 -0.24046946 0.94813323
v 0.27235544 -0.24046946 0.94813323
v 0.15943265 0.03215021 9.533671
v 0.27235544 -0.24046946 9.533671
v 0.15943265 0.03215021 0.94813323
v 0.27235544 0.30476987 9.533671
v 0.27235544 0.30476987 0.94813323
v 0.81759477 0.30476987 9.533671
v 0.93051755 0.03215021 9.533671
v 0.81759477 -0.24046946 9.533671
v 0.54497504 0.41769272 9.533671
v 0.54497504 -0.35339224 9.533671
v 0.27235544 0.30476987 9.533671
v 0.27235544 -0.24046946 9.533671
v 0.15943265 0.03215021 9.533671
v 0.81759477 -0.24046946 0.94813323
v 0.93051755 0.03215021 0.94813323
v 0.81759477 0.30476987 0.94813323
v 0.54497504 -0.35339224 0.94813323
v 0.54497504 0.41769272 0.94813323
v 0.27235544 -0.24046946 0.94813323
v 0.27235544 0.30476987 0.94813323
v 0.15943265 0.03215021 0.94813323
v -1.1312988 0.94854665 -1.0350499
v 0.027338326 0.94563645 -1.5149649
v 1.1859758 0.9485465 -1.0350504
v 1.6658995 0.95557195 0.123565435
v -1.611222 0.95557195 0.123565674
v 1.1859758 0.96259737 1.282182
v -1.1312988 0.96259737 1.2821815
v 0.027338326 0.9655074 1.7620962
v 1.1859758 -0.8982949 -1.0238521
v 0.027338326 -0.90120494 -1.5037662
v -1.1312988 -0.8982949 -1.0238516
v 1.6658995 -0.89126945 0.1347642
v -1.611222 -0.89126945 0.1347642
v 1.1859758 -0.8842441 1.29338
v -1.1312988 -0.8842442 1.29338
v 0.027338326 -0.88133407 1.7732947
v 0.027338326 0.9655074 1.7620962
v 1.1859758 0.96259737 1.282182
v 1.1859758 -0.8842441 1.29338
v 0.027338326 -0.88133407 1.7732947
v -1.1312988 0.96259737 1.2821815
v -1.1312988 -0.8842442 1.29338
v -1.1312988 0.94854665 -1.0350499
v -1.611222 -0.89126945 0.1347642
v -1.1312988 -0.8982949 -1.0238516
v -1.611222 0.95557195 0.123565674
v -1.1312988 -0.8842442 1.29338
v -1.1312988 0.96259737 1.2821815
v 1.1859758 0.9485465 -1.0350504
v 0.027338326 -0.90120494 -1.5037662
v 1.1859758 -0.8982949 -1.0238521
v 0.027338326 0.94563645 -1.5149649
v -1.1312988 -0.8982949 -1.0238516
v -1.1312988 0.94854665 -1.0350499
v 1.1859758 0.96259737 1.282182
v 1.6658995 -0.89126945 0.1347642
v 1.1859758 -0.8842441 1.29338
v 1.6658995 0.95557195 0.123565435
v 1.1859758 -0.8982949 -1.0238521
v 1.1859758 0.9485465 -1.0350504
v 0.95722604 -0.89773655 4.194278
v 1.3423982 0.032150865 4.194278
v 0.95722604 0.96203834 4.194278
v 0.027338624 -1.2829084 4.194278
v 0.027338624 1.3472104 4.194278
v -0.90254843 -0.8977362 4.194278
v -0.90254843 0.9620381 4.194278
v -1.2877203 0.032150924 4.194278
v 0.95722604 0.96203834 4.846155
v 1.3423982 0.032150865 4.846155
v 0.95722604 -0.89773655 4.846155
v 0.027338624 1.3472104 4.846155
v 0.027338624 -1.2829084 4.846155
v -0.90254843 0.9620381 4.846155
v -0.90254843 -0.8977362 4.846155
v -1.2877203 0.032150924 4.846155
v 0.027338624 1.3472104 4.194278
v 0.95722604 0.96203834 4.194278
v 0.95722604 0.96203834 4.846155
v 0.027338624 1.3472104 4.846155
v -0.90254843 0.9620381 4.194278
v -0.90254843 0.9620381 4.846155
v -0.90254843 -0.8977362 4.194278
v -1.2877203 0.032150924 4.846155
v -0.90254843 -0.8977362 4.846155
v -1.2877203 0.032150924 4.194278
v -0.90254843 0.9620381 4.846155
v -0.90254843 0.9620381 4.194278
v 0.95722604 -0.89773655 4.194278
v 0.027338624 -1.2829084 4.846155
v 0.95722604 -0.89773655 4.846155
v 0.027338624 -1.2829084 4.194278
v -0.90254843 -0.8977362 4.846155
v -0.90254843 -0.8977362 4.194278
v 0.95722604 0.96203834 4.194278
v 1.3423982 0.032150865 4.846155
v 0.95722604 0.96203834 4.846155
v 1.3423982 0.032150865 4.194278
v 0.95722604 -0.89773655 4.846155
v 0.95722604 -0.89773655 4.194278
v -0.2951125 -0.30890763 4.7307796
v -0.14995503 0.041533172 4.7307796
v -0.2951125 0.39197403 4.7307796
v -0.64555335 -0.45406508 4.7307796
v -0.64555335 0.5371314 4.7307796
v -0.9959942 -0.30890763 4.7307796
v -0.9959942 0.39197397 4.7307796
v -1.1411515 0.041533172 4.7307796
v -0.64555335 0.5371314 4.7307796
v -0.6653017 0.27215523 9.670743
v -0.9959942 0.39197397 4.7307796
v -0.43887353 0.36768204 9.626964
v -0.2951125 0.39197403 4.7307796
v -0.21244538 0.27215528 9.583182
v -1.1411515 0.041533172 4.7307796
v -0.6653017 -0.18908882 9.670743
v -0.9959942 -0.30890763 4.7307796
v -0.7590913 0.04153323 9.68888
v -0.9959942 0.39197397 4.7307796
v -0.6653017 0.27215523 9.670743
v -0.64555335 -0.45406508 4.7307796
v -0.21244538 -0.18908882 9.583182
v -0.2951125 -0.30890763 4.7307796
v -0.43887356 -0.28461564 9.626964
v -0.9959942 -0.30890763 4.7307796
v -0.6653017 -0.18908882 9.670743
v -0.14995503 0.041533172 4.7307796
v -0.21244538 0.27215528 9.583182
v -0.2951125 0.39197403 4.7307796
v -0.11865568 0.041533172 9.565047
v -0.2951125 -0.30890763 4.7307796
v -0.21244538 -0.18908882 9.583182
vt 0.95410156 0.0027503967
vt 0.94628906 0.003019333
vt 0.94628906 0.12988281
vt 0.95410156 0.12963867
vt 0.96191406 0.002532959
vt 0.96191406 0.12939453
vt 0.9667969 0.48364258
vt 0.9589844 0.61035156
vt 0.9667969 0.61035156
vt 0.9589844 0.48364258
vt 0.95166016 0.61035156
vt 0.95166016 0.48364258
vt 0.94677734 0.30615234
vt 0.95410156 0.1796875
vt 0.94677734 0.17944336
vt 0.95410156 0.30664062
vt 0.96191406 0.17993164
vt 0.96191406 0.30664062
vt 0.9667969 0.35668945
vt 0.9589844 0.48339844
vt 0.9667969 0.48364258
vt 0.9589844 0.3564453
vt 0.95166016 0.48339844
vt 0.95166016 0.35668945
vt 0.4873047 0.2619629
vt 0.4873047 0.2536621
vt 0.4814453 0.2479248
vt 0.4814453 0.26782227
vt 0.47338867 0.2479248
vt 0.47338867 0.26782227
vt 0.4675293 0.2536621
vt 0.4675293 0.2619629
vt 0.45751953 0.39794922
vt 0.4658203 0.39794922
vt 0.47143555 0.39208984
vt 0.45166016 0.39208984
vt 0.47143555 0.3840332
vt 0.45166016 0.3840332
vt 0.4658203 0.37817383
vt 0.45751953 0.37817383
vt 0.7939453 0.3161621
vt 0.7841797 0.3161621
vt 0.7841797 0.6225586
vt 0.7939453 0.6225586
vt 0.80371094 0.3161621
vt 0.80371094 0.6225586
vt 0.8364258 0.0096588135
vt 0.82666016 0.31591797
vt 0.8364258 0.3161621
vt 0.82666016 0.009506226
vt 0.81689453 0.3161621
vt 0.81689453 0.0096588135
vt 0.8232422 0.3161621
vt 0.81347656 0.6225586
vt 0.8232422 0.6225586
vt 0.81347656 0.3161621
vt 0.80371094 0.6225586
vt 0.80371094 0.3161621
vt 0.84277344 0.31640625
vt 0.8330078 0.6220703
vt 0.84277344 0.6220703
vt 0.8330078 0.3161621
vt 0.8232422 0.6220703
vt 0.8232422 0.31640625
vt 0.7661133 0.10614014
vt 0.75878906 0.09863281
vt 0.74853516 0.09863281
vt 0.7661133 0.11663818
vt 0.74072266 0.10614014
vt 0.75878906 0.12408447
vt 0.74072266 0.11663818
vt 0.74853516 0.12408447
vt 0.71533203 0.10614014
vt 0.71533203 0.11663818
vt 0.72314453 0.12408447
vt 0.72314453 0.09863281
vt 0.73339844 0.12408447
vt 0.73339844 0.09863281
vt 0.74072266 0.11663818
vt 0.74072266 0.10614014
vt 0.625 0.07647705
vt 0.625 0.031677246
vt 0.5932617 0
vt 0.54833984 0
vt 0.5932617 0.1081543
vt 0.51708984 0.031677246
vt 0.54833984 0.1081543
vt 0.51708984 0.07647705
vt 0.37646484 0.62597656
vt 0.40795898 0.5942383
vt 0.40795898 0.5493164
vt 0.3317871 0.62597656
vt 0.37646484 0.5180664
vt 0.30004883 0.5942383
vt 0.3317871 0.5180664
vt 0.30004883 0.5493164
vt 0.82714844 0.77685547
vt 0.82714844 0.73583984
vt 0.76123047 0.73583984
vt 0.76123047 0.77685547
vt 0.82714844 0.8183594
vt 0.76123047 0.8183594
vt 0.76123047 0.84033203
vt 0.6953125 0.80029297
vt 0.6953125 0.84033203
vt 0.76123047 0.80029297
vt 0.6953125 0.7578125
vt 0.76123047 0.7578125
vt 0.6040039 0.4831543
vt 0.53808594 0.4416504
vt 0.53808594 0.4831543
vt 0.6040039 0.4416504
vt 0.53808594 0.40039062
vt 0.6040039 0.40039062
vt 0.2915039 0.8383789
vt 0.22570801 0.7963867
vt 0.22570801 0.8383789
vt 0.2915039 0.7963867
vt 0.22570801 0.7558594
vt 0.2915039 0.7558594
vt 0.6088867 0.67529297
vt 0.6088867 0.7109375
vt 0.63427734 0.7368164
vt 0.63427734 0.64990234
vt 0.6699219 0.7368164
vt 0.6699219 0.64990234
vt 0.6953125 0.7109375
vt 0.6953125 0.67529297
vt 0.74121094 0.5629883
vt 0.7055664 0.5629883
vt 0.6801758 0.5883789
vt 0.76660156 0.5883789
vt 0.6801758 0.6245117
vt 0.76660156 0.6245117
vt 0.7055664 0.64990234
vt 0.74121094 0.64990234
vt 0.9667969 0.38964844
vt 0.9667969 0.42285156
vt 0.9902344 0.42285156
vt 0.9897461 0.38964844
vt 0.9667969 0.3564453
vt 0.9902344 0.3564453
vt 0.63671875 0.90185547
vt 0.6591797 0.9350586
vt 0.66015625 0.90185547
vt 0.6357422 0.9350586
vt 0.66015625 0.9682617
vt 0.63671875 0.9682617
vt 0.9667969 0.42285156
vt 0.9897461 0.4560547
vt 0.9902344 0.42285156
vt 0.9667969 0.4560547
vt 0.9902344 0.4892578
vt 0.9667969 0.4892578
vt 0.27661133 0.90966797
vt 0.2993164 0.9428711
vt 0.2998047 0.90966797
vt 0.27612305 0.9428711
vt 0.2998047 0.9760742
vt 0.27661133 0.9760742
vt 0.67041016 0.4716797
vt 0.6796875 0.4621582
vt 0.6796875 0.44873047
vt 0.6567383 0.4716797
vt 0.67041016 0.43896484
vt 0.64697266 0.4621582
vt 0.6567383 0.43896484
vt 0.64697266 0.44873047
vt 0.9042969 0.6503906
vt 0.9165039 0.82666016
vt 0.9165039 0.64990234
vt 0.9082031 0.8256836
vt 0.89160156 0.6513672
vt 0.9003906 0.82470703
vt 0.21081543 0.9140625
vt 0.20690918 0.7368164
vt 0.19836426 0.9135742
vt 0.21508789 0.7363281
vt 0.2232666 0.9140625
vt 0.2232666 0.7373047
vt 0.9057617 0.17858887
vt 0.90185547 0.004573822
vt 0.8930664 0.17773438
vt 0.91015625 0.003578186
vt 0.91845703 0.17944336
vt 0.91845703 0.002532959
vt 0.9057617 0.17944336
vt 0.9140625 0.3527832
vt 0.91845703 0.17956543
vt 0.9057617 0.35180664
vt 0.8930664 0.17956543
vt 0.89746094 0.3527832
vn -0.0077552795 1 0.005996704
vn 0.70214844 0.7114258 -0.018310547
vn 0.7114258 0.7026367 -0.018661499
vn 0.007785797 1 0.0055007935
vn -0.70996094 0.7036133 0.02670288
vn -0.7036133 0.70996094 0.026535034
vn 0.70214844 0.7114258 -0.018310547
vn 0.9995117 -0.0013837814 -0.03189087
vn 0.7114258 0.7026367 -0.018661499
vn 0.9995117 0.0014162064 -0.03189087
vn 0.70996094 -0.7036133 -0.02670288
vn 0.7036133 -0.70996094 -0.026535034
vn 0.7036133 -0.70996094 -0.026535034
vn 0.0077552795 -1 -0.005996704
vn 0.70996094 -0.7036133 -0.02670288
vn -0.007785797 -1 -0.0055007935
vn -0.70214844 -0.7114258 0.018310547
vn -0.7114258 -0.7026367 0.018661499
vn -0.7114258 -0.7026367 0.018661499
vn -0.9995117 -0.0014162064 0.03189087
vn -0.70214844 -0.7114258 0.018310547
vn -0.9995117 0.0013837814 0.03189087
vn -0.7036133 0.70996094 0.026535034
vn -0.70996094 0.7036133 0.02670288
vn -0 0 1
vn -0 0 1
vn -0 0 1
vn -0 0 1
vn -0 0 1
vn -0 0 1
vn -0 0 1
vn -0 0 1
vn -0 0 -1
vn -0 0 -1
vn -0 0 -1
vn -0 0 -1
vn -0 0 -1
vn -0 0 -1
vn -0 0 -1
vn -0 0 -1
vn -0 1 0
vn 0.70703125 0.70703125 0
vn 0.70703125 0.70703125 0
vn -0 1 0
vn -0.70703125 0.70703125 0
vn -0.70703125 0.70703125 0
vn 0.70703125 0.70703125 0
vn 1 0 0
vn 0.70703125 0.70703125 0
vn 1 0 0
vn 0.70703125 -0.70703125 0
vn 0.70703125 -0.70703125 0
vn 0.70703125 -0.70703125 0
vn -0 -1 0
vn 0.70703125 -0.70703125 0
vn -0 -1 0
vn -0.70703125 -0.70703125 0
vn -0.70703125 -0.70703125 0
vn -0.70703125 -0.70703125 0
vn -1 0 0
vn -0.70703125 -0.70703125 0
vn -1 0 0
vn -0.70703125 0.70703125 0
vn -0.70703125 0.70703125 0
vn -0 0 1
vn -0 0 1
vn -0 0 1
vn -0 0 1
vn -0 0 1
vn -0 0 1
vn -0 0 1
vn -0 0 1
vn -0 0 -1
vn -0 0 -1
vn -0 0 -1
vn -0 0 -1
vn -0 0 -1
vn -0 0 -1
vn -0 0 -1
vn -0 0 -1
vn -0 1 -0.0060653687
vn -0 1 -0.0060653687
vn -0 1 -0.0060653687
vn -0 1 -0.0060653687
vn -0 1 -0.0060653687
vn -0 1 -0.0060653687
vn -0 1 -0.0060653687
vn -0 1 -0.0060653687
vn -0 -1 0.0060653687
vn -0 -1 0.0060653687
vn -0 -1 0.0060653687
vn -0 -1 0.0060653687
vn -0 -1 0.0060653687
vn -0 -1 0.0060653687
vn -0 -1 0.0060653687
vn -0 -1 0.0060653687
vn -0 0.006061554 1
vn 0.70703125 0.0042877197 0.70703125
vn 0.70703125 0.0042877197 0.70703125
vn -0 0.006061554 1
vn -0.70703125 0.0042877197 0.70703125
vn -0.70703125 0.0042877197 0.70703125
vn -0.70703125 -0.0042877197 -0.70703125
vn -1 0 0
vn -0.70703125 -0.0042877197 -0.70703125
vn -1 0 0
vn -0.70703125 0.0042877197 0.70703125
vn -0.70703125 0.0042877197 0.70703125
vn 0.70703125 -0.0042877197 -0.70703125
vn -0 -0.0060653687 -1
vn 0.70703125 -0.0042877197 -0.70703125
vn -0 -0.0060653687 -1
vn -0.70703125 -0.0042877197 -0.70703125
vn -0.70703125 -0.0042877197 -0.70703125
vn 0.70703125 0.0042877197 0.70703125
vn 1 0 0
vn 0.70703125 0.0042877197 0.70703125
vn 1 0 0
vn 0.70703125 -0.0042877197 -0.70703125
vn 0.70703125 -0.0042877197 -0.70703125
vn -0 0 -1
vn -0 0 -1
vn -0 0 -1
vn -0 0 -1
vn -0 0 -1
vn -0 0 -1
vn -0 0 -1
vn -0 0 -1
vn -0 0 1
vn -0 0 1
vn -0 0 1
vn -0 0 1
vn -0 0 1
vn -0 0 1
vn -0 0 1
vn -0 0 1
vn -0 1 0
vn 0.70703125 0.70703125 0
vn 0.70703125 0.70703125 0
vn -0 1 0
vn -0.70703125 0.70703125 0
vn -0.70703125 0.70703125 0
vn -0.70703125 -0.70703125 0
vn -1 0 0
vn -0.70703125 -0.70703125 0
vn -1 0 0
vn -0.70703125 0.70703125 0
vn -0.70703125 0.70703125 0
vn 0.70703125 -0.70703125 0
vn -0 -1 0
vn 0.70703125 -0.70703125 0
vn -0 -1 0
vn -0.70703125 -0.70703125 0
vn -0.70703125 -0.70703125 0
vn 0.70703125 0.70703125 0
vn 1 0 0
vn 0.70703125 0.70703125 0
vn 1 0 0
vn 0.70703125 -0.70703125 0
vn 0.70703125 -0.70703125 0
vn -0 0 -1
vn -0 0 -1
vn -0 0 -1
vn -0 0 -1
vn -0 0 -1
vn -0 0 -1
vn -0 0 -1
vn -0 0 -1
vn -0.0079422 0.9995117 0.03503418
vn -0.7236328 0.6875 0.06512451
vn -0.7104492 0.7006836 0.06463623
vn -0.033569336 0.99902344 0.036102295
vn 0.70410156 0.70996094 0.0054740906
vn 0.69140625 0.72216797 0.0059814453
vn -0.9970703 0 0.07678223
vn -0.7236328 -0.6875 0.06512451
vn -0.7104492 -0.7006836 0.06463623
vn -0.9970703 0 0.07678223
vn -0.7104492 0.7006836 0.06463623
vn -0.7236328 0.6875 0.06512451
vn -0.0079422 -0.9995117 0.03503418
vn 0.69140625 -0.72216797 0.0059814453
vn 0.70410156 -0.70996094 0.0054740906
vn -0.033569336 -0.99902344 0.036102295
vn -0.7104492 -0.7006836 0.06463623
vn -0.7236328 -0.6875 0.06512451
vn 1 0 -0.00667572
vn 0.69140625 0.72216797 0.0059814453
vn 0.70410156 0.70996094 0.0054740906
vn 1 0 -0.00667572
vn 0.70410156 -0.70996094 0.0054740906
vn 0.69140625 -0.72216797 0.0059814453
g ScissorArmBase_0
f 3/3/3 2/2/2 1/1/1
f 4/4/4 3/3/3 1/1/1
f 4/4/4 1/1/1 5/5/5
f 6/6/6 4/4/4 5/5/5
f 9/9/9 8/8/8 7/7/7
f 8/8/8 10/10/10 7/7/7
f 8/8/8 11/11/11 10/10/10
f 11/11/11 12/12/12 10/10/10
f 15/15/15 14/14/14 13/13/13
f 14/14/14 16/16/16 13/13/13
f 14/14/14 17/17/17 16/16/16
f 17/17/17 18/18/18 16/16/16
f 21/21/21 20/20/20 19/19/19
f 20/20/20 22/22/22 19/19/19
f 20/20/20 23/23/23 22/22/22
f 23/23/23 24/24/24 22/22/22
f 27/27/27 26/26/26 25/25/25
f 25/25/25 28/28/28 27/27/27
f 28/28/28 29/29/29 27/27/27
f 28/28/28 30/30/30 29/29/29
f 30/30/30 31/31/31 29/29/29
f 30/30/30 32/32/32 31/31/31
f 35/35/35 34/34/34 33/33/33
f 33/33/33 36/36/36 35/35/35
f 36/36/36 37/37/37 35/35/35
f 36/36/36 38/38/38 37/37/37
f 38/38/38 39/39/39 37/37/37
f 38/38/38 40/40/40 39/39/39
f 43/43/43 42/42/42 41/41/41
f 44/44/44 43/43/43 41/41/41
f 44/44/44 41/41/41 45/45/45
f 46/46/46 44/44/44 45/45/45
f 49/49/49 48/48/48 47/47/47
f 48/48/48 50/50/50 47/47/47
f 48/48/48 51/51/51 50/50/50
f 51/51/51 52/52/52 50/50/50
f 55/55/55 54/54/54 53/53/53
f 54/54/54 56/56/56 53/53/53
f 54/54/54 57/57/57 56/56/56
f 57/57/57 58/58/58 56/56/56
f 61/61/61 60/60/60 59/59/59
f 60/60/60 62/62/62 59/59/59
f 60/60/60 63/63/63 62/62/62
f 63/63/63 64/64/64 62/62/62
f 67/67/67 66/66/66 65/65/65
f 65/65/65 68/68/68 67/67/67
f 68/68/68 69/69/69 67/67/67
f 68/68/68 70/70/70 69/69/69
f 70/70/70 71/71/71 69/69/69
f 70/70/70 72/72/72 71/71/71
f 75/75/75 74/74/74 73/73/73
f 73/73/73 76/76/76 75/75/75
f 76/76/76 77/77/77 75/75/75
f 76/76/76 78/78/78 77/77/77
f 78/78/78 79/79/79 77/77/77
f 78/78/78 80/80/80 79/79/79
f 83/83/83 82/82/82 81/81/81
f 81/81/81 84/84/84 83/83/83
f 81/81/81 85/85/85 84/84/84
f 85/85/85 86/86/86 84/84/84
f 85/85/85 87/87/87 86/86/86
f 87/87/87 88/88/88 86/86/86
f 91/91/91 90/90/90 89/89/89
f 89/89/89 92/92/92 91/91/91
f 92/92/92 93/93/93 91/91/91
f 92/92/92 94/94/94 93/93/93
f 94/94/94 95/95/95 93/93/93
f 94/94/94 96/96/96 95/95/95
f 99/99/99 98/98/98 97/97/97
f 100/100/100 99/99/99 97/97/97
f 100/100/100 97/97/97 101/101/101
f 102/102/102 100/100/100 101/101/101
f 105/105/105 104/104/104 103/103/103
f 104/104/104 106/106/106 103/103/103
f 104/104/104 107/107/107 106/106/106
f 107/107/107 108/108/108 106/106/106
f 111/111/111 110/110/110 109/109/109
f 110/110/110 112/112/112 109/109/109
f 110/110/110 113/113/113 112/112/112
f 113/113/113 114/114/114 112/112/112
f 117/117/117 116/116/116 115/115/115
f 116/116/116 118/118/118 115/115/115
f 116/116/116 119/119/119 118/118/118
f 119/119/119 120/120/120 118/118/118
f 123/123/123 122/122/122 121/121/121
f 121/121/121 124/124/124 123/123/123
f 124/124/124 125/125/125 123/123/123
f 124/124/124 126/126/126 125/125/125
f 126/126/126 127/127/127 125/125/125
f 126/126/126 128/128/128 127/127/127
f 131/131/131 130/130/130 129/129/129
f 129/129/129 132/132/132 131/131/131
f 132/132/132 133/133/133 131/131/131
f 132/132/132 134/134/134 133/133/133
f 134/134/134 135/135/135 133/133/133
f 134/134/134 136/136/136 135/135/135
f 139/139/139 138/138/138 137/137/137
f 140/140/140 139/139/139 137/137/137
f 140/140/140 137/137/137 141/141/141
f 142/142/142 140/140/140 141/141/141
f 145/145/145 144/144/144 143/143/143
f 144/144/144 146/146/146 143/143/143
f 144/144/144 147/147/147 146/146/146
f 147/147/147 148/148/148 146/146/146
f 151/151/151 150/150/150 149/149/149
f 150/150/150 152/152/152 149/149/149
f 150/150/150 153/153/153 152/152/152
f 153/153/153 154/154/154 152/152/152
f 157/157/157 156/156/156 155/155/155
f 156/156/156 158/158/158 155/155/155
f 156/156/156 159/159/159 158/158/158
f 159/159/159 160/160/160 158/158/158
f 163/163/163 162/162/162 161/161/161
f 161/161/161 164/164/164 163/163/163
f 164/164/164 165/165/165 163/163/163
f 164/164/164 166/166/166 165/165/165
f 166/166/166 167/167/167 165/165/165
f 166/166/166 168/168/168 167/167/167
f 171/171/171 170/170/170 169/169/169
f 170/170/170 172/172/172 169/169/169
f 169/169/169 172/172/172 173/173/173
f 172/172/172 174/174/174 173/173/173
f 177/177/177 176/176/176 175/175/175
f 176/176/176 178/178/178 175/175/175
f 175/175/175 178/178/178 179/179/179
f 178/178/178 180/180/180 179/179/179
f 183/183/183 182/182/182 181/181/181
f 182/182/182 184/184/184 181/181/181
f 181/181/181 184/184/184 185/185/185
f 184/184/184 186/186/186 185/185/185
f 189/189/189 188/188/188 187/187/187
f 188/188/188 190/190/190 187/187/187
f 187/187/187 190/190/190 191/191/191
f 190/190/190 192/192/192 191/191/191
