g SecondaryArmPick
v -1.0045143 0.90805006 -1.0643482
v 0.052575678 0.90805006 -1.5022087
v 1.1096658 0.9080498 -1.0643482
v -1.4423754 0.9080498 -0.0072574615
v 1.5475272 0.9080498 -0.0072574615
v -1.0045143 0.9080497 1.0498323
v 1.1096658 0.9080497 1.0498333
v 0.052575678 0.9080498 1.4876947
v 1.1096658 -0.90805006 -1.0643482
v 0.052575678 -0.9080498 -1.5022087
v -1.0045143 -0.90805006 -1.0643482
v 1.5475272 -0.9080502 -0.0072574615
v -1.4423754 -0.9080502 -0.0072574615
v 1.1096658 -0.9080502 1.0498333
v -1.0045143 -0.90805054 1.0498323
v 0.052575678 -0.9080502 1.4876947
v 0.052575678 0.9080498 1.4876947
v 1.1096658 0.9080497 1.0498333
v 1.1096658 -0.9080502 1.0498333
v 0.052575678 -0.9080502 1.4876947
v -1.0045143 0.9080497 1.0498323
v -1.0045143 -0.90805054 1.0498323
v -1.0045143 0.90805006 -1.0643482
v -1.4423754 -0.9080502 -0.0072574615
v -1.0045143 -0.90805006 -1.0643482
v -1.4423754 0.9080498 -0.0072574615
v -1.0045143 -0.90805054 1.0498323
v -1.0045143 0.9080497 1.0498323
v 1.1096658 0.9080498 -1.0643482
v 0.052575678 -0.9080498 -1.5022087
v 1.1096658 -0.90805006 -1.0643482
v 0.052575678 0.90805006 -1.5022087
v -1.0045143 -0.90805006 -1.0643482
v -1.0045143 0.90805006 -1.0643482
v 1.1096658 0.9080497 1.0498333
v 1.5475272 -0.9080502 -0.0072574615
v 1.1096658 -0.9080502 1.0498333
v 1.5475272 0.9080498 -0.0072574615
v 1.1096658 -0.90805006 -1.0643482
v 1.1096658 0.9080498 -1.0643482
v 0.651101 0.5384799 -0.01574707
v 0.651101 0.3807619 -0.57120514
v 2.3116138 0.3807619 -0.57120514
v 2.3116138 0.5384799 -0.01574707
v 0.651101 0.38076183 0.5397091
v 2.3116138 0.38076183 0.5397091
v 0.651101 0.3807619 -0.57120514
v 0.651101 -3.259629E-06 -0.80128384
v 2.3116138 -3.259629E-06 -0.80128384
v 2.3116138 0.3807619 -0.57120514
v 0.651101 -3.259629E-06 -0.80128384
v 0.651101 -0.38076836 -0.57120514
v 2.3116138 -0.38076836 -0.57120514
v 2.3116138 -3.259629E-06 -0.80128384
v 0.651101 -0.38076836 -0.57120514
v 2.3116138 -0.5384865 -0.01574707
v 2.3116138 -0.38076836 -0.57120514
v 0.651101 -0.5384865 -0.01574707
v 2.3116138 -0.38076827 0.5397091
v 0.651101 -0.38076827 0.5397091
v 0.651101 -0.38076827 0.5397091
v 0.651101 -3.2298267E-06 0.7697878
v 2.3116138 -3.2298267E-06 0.7697878
v 2.3116138 -0.38076827 0.5397091
v 2.3116138 -0.38076836 -0.57120514
v 2.3116138 -0.5384865 -0.01574707
v 2.3116138 -0.38076827 0.5397091
v 2.3116138 -3.259629E-06 -0.80128384
v 2.3116138 -3.2298267E-06 0.7697878
v 2.3116138 0.3807619 -0.57120514
v 2.3116138 0.38076183 0.5397091
v 2.3116138 0.5384799 -0.01574707
v 0.651101 -3.2298267E-06 0.7697878
v 0.651101 0.38076183 0.5397091
v 2.3116138 0.38076183 0.5397091
v 2.3116138 -3.2298267E-06 0.7697878
v 0.651101 -0.38076827 0.5397091
v 0.651101 -0.5384865 -0.01574707
v 0.651101 -0.38076836 -0.57120514
v 0.651101 -3.259629E-06 -0.80128384
v 0.651101 -3.2298267E-06 0.7697878
v 0.651101 0.3807619 -0.57120514
v 0.651101 0.38076183 0.5397091
v 0.651101 0.5384799 -0.01574707
v 2.3116138 -0.26656222 0.25080967
v 2.3116138 -0.37697467 -0.015748024
v 2.3116138 -0.26656228 -0.28230762
v 2.3116138 -3.2205135E-06 -0.39272022
v 2.3116138 -3.2000244E-06 0.36122227
v 2.3116138 0.26655588 -0.28230762
v 2.3116138 0.26655585 0.25080967
v 2.3116138 0.37696826 -0.015748024
vt 0.19677734 0.55126953
vt 0.15600586 0.55126953
vt 0.12719727 0.5800781
vt 0.22570801 0.5800781
vt 0.12719727 0.62060547
vt 0.22570801 0.62060547
vt 0.15600586 0.64990234
vt 0.19677734 0.64990234
vt 0 0.6147461
vt 0.028839111 0.6435547
vt 0.06964111 0.6435547
vt 0 0.57373047
vt 0.09844971 0.6147461
vt 0.028839111 0.5449219
vt 0.09844971 0.57373047
vt 0.06964111 0.5449219
vt 0 0.8569336
vt 0 0.8979492
vt 0.0647583 0.8979492
vt 0.0647583 0.8569336
vt 0 0.828125
vt 0.0647583 0.828125
vt 0.49536133 0.8959961
vt 0.43066406 0.86035156
vt 0.43066406 0.8959961
vt 0.49536133 0.86035156
vt 0.43066406 0.82128906
vt 0.49536133 0.82128906
vt 0.12719727 0.8305664
vt 0.19189453 0.859375
vt 0.19189453 0.8305664
vt 0.12719727 0.859375
vt 0.19189453 0.9003906
vt 0.12719727 0.9003906
vt 0.43066406 0.8964844
vt 0.3659668 0.8588867
vt 0.3659668 0.8964844
vt 0.43066406 0.8588867
vt 0.3659668 0.82128906
vt 0.43066406 0.82128906
vt 0.08642578 0.94091797
vt 0.10620117 0.94091797
vt 0.10620117 0.88183594
vt 0.08642578 0.88183594
vt 0.066589355 0.94091797
vt 0.066589355 0.88183594
vt 0.8666992 0.9741211
vt 0.8803711 0.9707031
vt 0.8803711 0.9160156
vt 0.8666992 0.9194336
vt 0.8803711 0.9707031
vt 0.89404297 0.9741211
vt 0.89404297 0.9194336
vt 0.8803711 0.9160156
vt 0.76123047 0.95410156
vt 0.78125 0.89501953
vt 0.76123047 0.89501953
vt 0.78125 0.95410156
vt 0.80078125 0.89501953
vt 0.80078125 0.95410156
vt 0.5942383 0.92578125
vt 0.5805664 0.9223633
vt 0.5805664 0.9770508
vt 0.5942383 0.98046875
vt 0.4675293 0.93847656
vt 0.4675293 0.91796875
vt 0.4567871 0.9003906
vt 0.4567871 0.9501953
vt 0.44140625 0.8959961
vt 0.44140625 0.9458008
vt 0.43066406 0.90771484
vt 0.43066406 0.92822266
vt 0.5805664 0.9223633
vt 0.56689453 0.92578125
vt 0.56689453 0.98046875
vt 0.5805664 0.9770508
vt 0.010810852 0.90185547
vt 0 0.9194336
vt 0 0.9399414
vt 0.010810852 0.95166016
vt 0.02609253 0.8979492
vt 0.02609253 0.9472656
vt 0.036895752 0.90966797
vt 0.036895752 0.9301758
vt 0.87158203 0.28979492
vt 0.8613281 0.28979492
vt 0.8544922 0.296875
vt 0.8544922 0.3071289
vt 0.87890625 0.29711914
vt 0.8613281 0.31445312
vt 0.87890625 0.30737305
vt 0.87158203 0.31469727
vn -0 1 0
vn -0 1 0
vn -0 1 0
vn -0 1 0
vn -0 1 0
vn -0 1 0
vn -0 1 0
vn -0 1 0
vn -0 -1 0
vn -0 -1 0
vn -0 -1 0
vn -0 -1 0
vn -0 -1 0
vn -0 -1 0
vn -0 -1 0
vn -0 -1 0
vn -0 0 1
vn 0.70703125 0 0.70703125
vn 0.70703125 0 0.70703125
vn -0 0 1
vn -0.70703125 0 0.70703125
vn -0.70703125 0 0.70703125
vn -0.70703125 0 -0.70703125
vn -1 0 0
vn -0.70703125 0 -0.70703125
vn -1 0 0
vn -0.70703125 0 0.70703125
vn -0.70703125 0 0.70703125
vn 0.70703125 0 -0.70703125
vn -0 0 -1
vn 0.70703125 0 -0.70703125
vn -0 0 -1
vn -0.70703125 0 -0.70703125
vn -0.70703125 0 -0.70703125
vn 0.70703125 0 0.70703125
vn 1 0 0
vn 0.70703125 0 0.70703125
vn 1 0 0
vn 0.70703125 0 -0.70703125
vn 0.70703125 0 -0.70703125
vn -0 1 0
vn -0 0.7949219 -0.6069336
vn -0 0.7949219 -0.6069336
vn -0 1 0
vn -0 0.7949219 0.6069336
vn -0 0.7949219 0.6069336
vn -0 0.7949219 -0.6069336
vn -0 0.51708984 -0.85595703
vn -0 0.51708984 -0.85595703
vn -0 0.7949219 -0.6069336
vn -0 -0.51708984 -0.85595703
vn -0 -0.7949219 -0.6069336
vn -0 -0.7949219 -0.6069336
vn -0 -0.51708984 -0.85595703
vn -0 -0.7949219 -0.6069336
vn -0 -1 0
vn -0 -0.7949219 -0.6069336
vn -0 -1 0
vn -0 -0.7949219 0.6069336
vn -0 -0.7949219 0.6069336
vn -0 -0.7949219 0.6069336
vn -0 -0.51708984 0.85595703
vn -0 -0.51708984 0.85595703
vn -0 -0.7949219 0.6069336
vn 1 0 0
vn 1 0 0
vn 1 0 0
vn 1 0 0
vn 1 0 0
vn 1 0 0
vn 1 0 0
vn 1 0 0
vn -0 0.51708984 0.85595703
vn -0 0.7949219 0.6069336
vn -0 0.7949219 0.6069336
vn -0 0.51708984 0.85595703
vn -1 0 0
vn -1 0 0
vn -1 0 0
vn -1 0 0
vn -1 0 0
vn -1 0 0
vn -1 0 0
vn -1 0 0
vn -1 0 0
vn -1 0 0
vn -1 0 0
vn -1 0 0
vn -1 0 0
vn -1 0 0
vn -1 0 0
vn -1 0 0
g SecondaryArmPick_0
f 3/3/3 2/2/2 1/1/1
f 1/1/1 4/4/4 3/3/3
f 4/4/4 5/5/5 3/3/3
f 4/4/4 6/6/6 5/5/5
f 6/6/6 7/7/7 5/5/5
f 6/6/6 8/8/8 7/7/7
f 11/11/11 10/10/10 9/9/9
f 9/9/9 12/12/12 11/11/11
f 12/12/12 13/13/13 11/11/11
f 12/12/12 14/14/14 13/13/13
f 14/14/14 15/15/15 13/13/13
f 14/14/14 16/16/16 15/15/15
f 19/19/19 18/18/18 17/17/17
f 20/20/20 19/19/19 17/17/17
f 20/20/20 17/17/17 21/21/21
f 22/22/22 20/20/20 21/21/21
f 25/25/25 24/24/24 23/23/23
f 24/24/24 26/26/26 23/23/23
f 24/24/24 27/27/27 26/26/26
f 27/27/27 28/28/28 26/26/26
f 31/31/31 30/30/30 29/29/29
f 30/30/30 32/32/32 29/29/29
f 30/30/30 33/33/33 32/32/32
f 33/33/33 34/34/34 32/32/32
f 37/37/37 36/36/36 35/35/35
f 36/36/36 38/38/38 35/35/35
f 36/36/36 39/39/39 38/38/38
f 39/39/39 40/40/40 38/38/38
f 43/43/43 42/42/42 41/41/41
f 44/44/44 43/43/43 41/41/41
f 44/44/44 41/41/41 45/45/45
f 46/46/46 44/44/44 45/45/45
f 49/49/49 48/48/48 47/47/47
f 50/50/50 49/49/49 47/47/47
f 53/53/53 52/52/52 51/51/51
f 54/54/54 53/53/53 51/51/51
f 57/57/57 56/56/56 55/55/55
f 56/56/56 58/58/58 55/55/55
f 56/56/56 59/59/59 58/58/58
f 59/59/59 60/60/60 58/58/58
f 63/63/63 62/62/62 61/61/61
f 64/64/64 63/63/63 61/61/61
f 67/67/67 66/66/66 65/65/65
f 65/65/65 68/68/68 67/67/67
f 68/68/68 69/69/69 67/67/67
f 68/68/68 70/70/70 69/69/69
f 70/70/70 71/71/71 69/69/69
f 70/70/70 72/72/72 71/71/71
f 75/75/75 74/74/74 73/73/73
f 76/76/76 75/75/75 73/73/73
f 79/79/79 78/78/78 77/77/77
f 77/77/77 80/80/80 79/79/79
f 77/77/77 81/81/81 80/80/80
f 81/81/81 82/82/82 80/80/80
f 81/81/81 83/83/83 82/82/82
f 83/83/83 84/84/84 82/82/82
f 87/87/87 86/86/86 85/85/85
f 85/85/85 88/88/88 87/87/87
f 85/85/85 89/89/89 88/88/88
f 89/89/89 90/90/90 88/88/88
f 89/89/89 91/91/91 90/90/90
f 91/91/91 92/92/92 90/90/90
