g SecondaryArmBase
v -0.7841837 0.302165 2.8548732
v -0.13635337 0.21380746 12.741979
v -0.3496673 0.302165 12.741979
v -0.5708698 0.21380746 2.8548732
v -0.047995806 0.00049351325 12.741979
v -0.48251224 0.00049351325 2.8548732
v -0.48251224 0.00049351325 2.8548732
v -0.13635337 -0.21282041 12.741979
v -0.047995806 0.00049351325 12.741979
v -0.5708698 -0.21282041 2.8548732
v -0.34966734 -0.30117795 12.741979
v -0.78418374 -0.30117795 2.8548732
v -0.56298125 -0.21282037 12.741979
v -0.9974977 -0.21282037 2.8548732
v -0.9974977 -0.21282037 2.8548732
v -0.6513388 0.00049353007 12.741979
v -0.56298125 -0.21282037 12.741979
v -1.0858552 0.00049353007 2.8548732
v -0.56298125 0.21380743 12.741979
v -0.9974977 0.21380743 2.8548732
v -0.3496673 0.302165 12.741979
v -0.7841837 0.302165 2.8548732
v -0.13635337 0.21380746 12.741979
v -0.047995806 0.00049351325 12.741979
v -0.13635337 -0.21282041 12.741979
v -0.3496673 0.302165 12.741979
v -0.34966734 -0.30117795 12.741979
v -0.56298125 0.21380743 12.741979
v -0.56298125 -0.21282037 12.741979
v -0.6513388 0.00049353007 12.741979
v -0.5708698 -0.21282041 2.8548732
v -0.48251224 0.00049351325 2.8548732
v -0.5708698 0.21380746 2.8548732
v -0.78418374 -0.30117795 2.8548732
v -0.7841837 0.302165 2.8548732
v -0.9974977 0.21380743 2.8548732
v -0.9974977 -0.21282037 2.8548732
v -1.0858552 0.00049353007 2.8548732
v 1.0313413 0.37142834 2.8220906
v 1.1973329 -0.029310266 2.8220906
v 1.1973329 -0.029310266 12.833701
v 1.0313413 0.37142834 12.833701
v 0.63060284 0.53741974 2.8220906
v 0.63060284 0.53741974 12.833701
v 0.22986436 0.37142825 2.8220906
v 0.22986436 0.37142825 12.833701
v 1.1973329 -0.029310266 2.8220906
v 1.0313413 -0.43004882 12.833701
v 1.1973329 -0.029310266 12.833701
v 1.0313413 -0.43004882 2.8220906
v 0.63060284 -0.5960402 12.833701
v 0.63060284 -0.5960402 2.8220906
v 0.22986436 -0.4300487 12.833701
v 0.22986436 -0.4300487 2.8220906
v 0.22986436 -0.4300487 2.8220906
v 0.06387305 -0.029310236 12.833701
v 0.22986436 -0.4300487 12.833701
v 0.06387305 -0.029310236 2.8220906
v 0.22986436 0.37142825 12.833701
v 0.22986436 0.37142825 2.8220906
v 1.0313413 0.37142834 12.833701
v 1.1973329 -0.029310266 12.833701
v 1.0313413 -0.43004882 12.833701
v 0.63060284 0.53741974 12.833701
v 0.63060284 -0.5960402 12.833701
v 0.22986436 0.37142825 12.833701
v 0.22986436 -0.4300487 12.833701
v 0.06387305 -0.029310236 12.833701
v 1.0313413 -0.43004882 2.8220906
v 1.1973329 -0.029310266 2.8220906
v 1.0313413 0.37142834 2.8220906
v 0.63060284 -0.5960402 2.8220906
v 0.63060284 0.53741974 2.8220906
v 0.22986436 -0.4300487 2.8220906
v 0.22986436 0.37142825 2.8220906
v 0.06387305 -0.029310236 2.8220906
v 1.2716038 -1.187947 1.0239844
v 1.7515275 -0.029309629 1.0239844
v 1.2716038 1.129328 1.0239844
v 0.11296636 -1.6678704 1.0239844
v 0.11296636 1.6092515 1.0239844
v -1.0456707 -1.1879467 1.0239844
v -1.0456707 1.1293277 1.0239844
v -1.525594 -0.029309543 1.0239844
v 1.2716038 1.129328 2.87086
v 1.7515275 -0.029309629 2.87086
v 1.2716038 -1.187947 2.87086
v 0.11296636 1.6092515 2.87086
v 0.11296636 -1.6678704 2.87086
v -1.0456707 1.1293277 2.87086
v -1.0456707 -1.1879467 2.87086
v -1.525594 -0.029309543 2.87086
v -1.0456707 1.1293277 1.0239844
v 0.11296636 1.6092515 2.87086
v -1.0456707 1.1293277 2.87086
v 0.11296636 1.6092515 1.0239844
v 1.2716038 1.129328 2.87086
v 1.2716038 1.129328 1.0239844
v 1.7515275 -0.029309629 2.87086
v 1.7515275 -0.029309629 1.0239844
v -1.0456707 -1.1879467 1.0239844
v -1.525594 -0.029309543 2.87086
v -1.0456707 -1.1879467 2.87086
v -1.525594 -0.029309543 1.0239844
v -1.0456707 1.1293277 2.87086
v -1.0456707 1.1293277 1.0239844
v 0.11296636 -1.6678704 1.0239844
v -1.0456707 -1.1879467 1.0239844
v -1.0456707 -1.1879467 2.87086
v 0.11296636 -1.6678704 2.87086
v 1.2716038 -1.187947 1.0239844
v 1.2716038 -1.187947 2.87086
v 1.7515275 -0.029309629 1.0239844
v 1.7515275 -0.029309629 2.87086
v 1.3551149 -1.2714583 5.071183
v 1.8696306 -0.029309655 5.071183
v 1.3551149 1.2128394 5.071183
v 0.11296624 -1.7859733 5.071183
v 0.11296624 1.7273543 5.071183
v -1.1291822 -1.271458 5.071183
v -1.1291822 1.2128389 5.071183
v -1.643697 -0.029309563 5.071183
v 1.3551149 1.2128394 5.9419646
v 1.8696306 -0.029309655 5.9419646
v 1.3551149 -1.2714583 5.9419646
v 0.11296624 1.7273543 5.9419646
v 0.11296624 -1.7859733 5.9419646
v -1.1291822 1.2128389 5.9419646
v -1.1291822 -1.271458 5.9419646
v -1.643697 -0.029309563 5.9419646
v -1.1291822 1.2128389 5.071183
v 0.11296624 1.7273543 5.9419646
v -1.1291822 1.2128389 5.9419646
v 0.11296624 1.7273543 5.071183
v 1.3551149 1.2128394 5.9419646
v 1.3551149 1.2128394 5.071183
v 1.8696306 -0.029309655 5.9419646
v 1.8696306 -0.029309655 5.071183
v -1.1291822 -1.271458 5.071183
v -1.643697 -0.029309563 5.9419646
v -1.1291822 -1.271458 5.9419646
v -1.643697 -0.029309563 5.071183
v -1.1291822 1.2128389 5.9419646
v -1.1291822 1.2128389 5.071183
v 0.11296624 -1.7859733 5.071183
v -1.1291822 -1.271458 5.071183
v -1.1291822 -1.271458 5.9419646
v 0.11296624 -1.7859733 5.9419646
v 1.3551149 -1.2714583 5.071183
v 1.3551149 -1.2714583 5.9419646
v 1.8696306 -0.029309655 5.071183
v 1.8696306 -0.029309655 5.9419646
vt 0.87939453 0.3564453
vt 0.8876953 0.0027446747
vt 0.87939453 0.003080368
vt 0.8876953 0.35620117
vt 0.8930664 0.002532959
vt 0.8930664 0.35595703
vt 0.76416016 0.1328125
vt 0.75878906 0.48608398
vt 0.76416016 0.48608398
vt 0.75878906 0.13256836
vt 0.7504883 0.4855957
vt 0.7504883 0.13220215
vt 0.7446289 0.48535156
vt 0.7446289 0.13195801
vt 0.76416016 0.4855957
vt 0.77001953 0.13220215
vt 0.76416016 0.13232422
vt 0.77001953 0.4855957
vt 0.7783203 0.13208008
vt 0.7783203 0.48535156
vt 0.7841797 0.13195801
vt 0.7841797 0.48535156
vt 0.42773438 0.2619629
vt 0.43359375 0.26782227
vt 0.44189453 0.26782227
vt 0.42773438 0.2536621
vt 0.44750977 0.2619629
vt 0.43359375 0.2479248
vt 0.44750977 0.2536621
vt 0.44189453 0.2479248
vt 0.43774414 0.39794922
vt 0.44580078 0.39794922
vt 0.45166016 0.39208984
vt 0.43188477 0.39208984
vt 0.45166016 0.3840332
vt 0.44580078 0.37817383
vt 0.43188477 0.3840332
vt 0.43774414 0.37817383
vt 0.51171875 0.13195801
vt 0.50097656 0.13195801
vt 0.50097656 0.48950195
vt 0.51171875 0.48950195
vt 0.52734375 0.13195801
vt 0.52734375 0.48950195
vt 0.53808594 0.13195801
vt 0.53808594 0.48950195
vt 0.23510742 0.5307617
vt 0.24609375 0.17297363
vt 0.23510742 0.1730957
vt 0.24609375 0.5307617
vt 0.2614746 0.17297363
vt 0.2614746 0.5307617
vt 0.27246094 0.1730957
vt 0.27246094 0.5307617
vt 0.29882812 0.1730957
vt 0.2878418 0.5307617
vt 0.29882812 0.5307617
vt 0.2878418 0.17297363
vt 0.27246094 0.5307617
vt 0.27246094 0.17297363
vt 0.9291992 0.17919922
vt 0.9448242 0.17919922
vt 0.9555664 0.16821289
vt 0.91845703 0.16821289
vt 0.9555664 0.15270996
vt 0.91845703 0.15270996
vt 0.9448242 0.1418457
vt 0.9291992 0.1418457
vt 0.9555664 0.32958984
vt 0.9448242 0.31860352
vt 0.9291992 0.31860352
vt 0.9555664 0.34521484
vt 0.91845703 0.32958984
vt 0.9448242 0.35595703
vt 0.91845703 0.34521484
vt 0.9291992 0.35595703
vt 0.03161621 0.43701172
vt 0 0.46850586
vt 0 0.5131836
vt 0.076293945 0.43701172
vt 0.03161621 0.5449219
vt 0.107910156 0.46850586
vt 0.076293945 0.5449219
vt 0.107910156 0.5131836
vt 0.23510742 0.47460938
vt 0.20349121 0.4428711
vt 0.15881348 0.4428711
vt 0.23510742 0.51953125
vt 0.12719727 0.47460938
vt 0.20349121 0.55126953
vt 0.12719727 0.51953125
vt 0.15881348 0.55126953
vt 0.76123047 0.7578125
vt 0.6953125 0.7260742
vt 0.6958008 0.7578125
vt 0.76123047 0.7260742
vt 0.6953125 0.6816406
vt 0.76123047 0.6816406
vt 0.6958008 0.64990234
vt 0.76123047 0.64990234
vt 0.76171875 0.8183594
vt 0.82714844 0.85009766
vt 0.8276367 0.8183594
vt 0.76123047 0.85009766
vt 0.82714844 0.89501953
vt 0.76123047 0.89501953
vt 0.2915039 0.58251953
vt 0.29174805 0.55126953
vt 0.22583008 0.55126953
vt 0.22570801 0.58251953
vt 0.2915039 0.6274414
vt 0.22570801 0.6274414
vt 0.29174805 0.6591797
vt 0.22583008 0.6591797
vt 0.30004883 0.48388672
vt 0.33398438 0.5180664
vt 0.38183594 0.5180664
vt 0.30004883 0.43579102
vt 0.41577148 0.48388672
vt 0.33398438 0.40185547
vt 0.41577148 0.43579102
vt 0.38183594 0.40185547
vt 0.3852539 0.21398926
vt 0.41918945 0.2479248
vt 0.46704102 0.2479248
vt 0.3852539 0.16589355
vt 0.50097656 0.21398926
vt 0.41918945 0.13195801
vt 0.50097656 0.16589355
vt 0.46704102 0.13195801
vt 0.6953125 0.84033203
vt 0.7265625 0.8745117
vt 0.7265625 0.84033203
vt 0.6958008 0.8745117
vt 0.7265625 0.9223633
vt 0.6958008 0.9223633
vt 0.7265625 0.95654297
vt 0.6953125 0.95654297
vt 0.9003906 0.56689453
vt 0.93115234 0.60058594
vt 0.9316406 0.56689453
vt 0.9003906 0.6010742
vt 0.9316406 0.6489258
vt 0.9003906 0.6489258
vt 0.7265625 0.9223633
vt 0.7265625 0.95654297
vt 0.7578125 0.95654297
vt 0.7578125 0.9223633
vt 0.7265625 0.8745117
vt 0.7578125 0.8745117
vt 0.7265625 0.84033203
vt 0.7578125 0.84033203
vn -0.010696411 1 0.00047016144
vn 0.71191406 0.70166016 -0.031280518
vn 0.010696411 1 -0.00047016144
vn 0.7011719 0.71191406 -0.030822754
vn 0.99902344 0 -0.043914795
vn 0.99902344 0 -0.043914795
vn 0.99902344 0 -0.043914795
vn 0.71191406 -0.70166016 -0.031280518
vn 0.99902344 0 -0.043914795
vn 0.7011719 -0.71191406 -0.030822754
vn 0.010696411 -1 -0.00047016144
vn -0.010696411 -1 0.00047016144
vn -0.7011719 -0.71191406 0.030822754
vn -0.71191406 -0.70166016 0.031280518
vn -0.71191406 -0.70166016 0.031280518
vn -0.99902344 0 0.043914795
vn -0.7011719 -0.71191406 0.030822754
vn -0.99902344 0 0.043914795
vn -0.7011719 0.71191406 0.030822754
vn -0.71191406 0.70166016 0.031280518
vn 0.010696411 1 -0.00047016144
vn -0.010696411 1 0.00047016144
vn -0 0 1
vn -0 0 1
vn -0 0 1
vn -0 0 1
vn -0 0 1
vn -0 0 1
vn -0 0 1
vn -0 0 1
vn -0 0 -1
vn -0 0 -1
vn -0 0 -1
vn -0 0 -1
vn -0 0 -1
vn -0 0 -1
vn -0 0 -1
vn -0 0 -1
vn 0.70703125 0.70703125 0
vn 1 0 0
vn 1 0 0
vn 0.70703125 0.70703125 0
vn -0 1 0
vn -0 1 0
vn -0.70703125 0.70703125 0
vn -0.70703125 0.70703125 0
vn 1 0 0
vn 0.70703125 -0.70703125 0
vn 1 0 0
vn 0.70703125 -0.70703125 0
vn -0 -1 0
vn -0 -1 0
vn -0.70703125 -0.70703125 0
vn -0.70703125 -0.70703125 0
vn -0.70703125 -0.70703125 0
vn -1 0 0
vn -0.70703125 -0.70703125 0
vn -1 0 0
vn -0.70703125 0.70703125 0
vn -0.70703125 0.70703125 0
vn -0 0 1
vn -0 0 1
vn -0 0 1
vn -0 0 1
vn -0 0 1
vn -0 0 1
vn -0 0 1
vn -0 0 1
vn -0 0 -1
vn -0 0 -1
vn -0 0 -1
vn -0 0 -1
vn -0 0 -1
vn -0 0 -1
vn -0 0 -1
vn -0 0 -1
vn -0 0 -1
vn -0 0 -1
vn -0 0 -1
vn -0 0 -1
vn -0 0 -1
vn -0 0 -1
vn -0 0 -1
vn -0 0 -1
vn -0 0 1
vn -0 0 1
vn -0 0 1
vn -0 0 1
vn -0 0 1
vn -0 0 1
vn -0 0 1
vn -0 0 1
vn -0.70703125 0.70703125 0
vn -0 1 0
vn -0.70703125 0.70703125 0
vn -0 1 0
vn 0.70703125 0.70703125 0
vn 0.70703125 0.70703125 0
vn 1 0 0
vn 1 0 0
vn -0.70703125 -0.70703125 0
vn -1 0 0
vn -0.70703125 -0.70703125 0
vn -1 0 0
vn -0.70703125 0.70703125 0
vn -0.70703125 0.70703125 0
vn -0 -1 0
vn -0.70703125 -0.70703125 0
vn -0.70703125 -0.70703125 0
vn -0 -1 0
vn 0.70703125 -0.70703125 0
vn 0.70703125 -0.70703125 0
vn 1 0 0
vn 1 0 0
vn -0 0 -1
vn -0 0 -1
vn -0 0 -1
vn -0 0 -1
vn -0 0 -1
vn -0 0 -1
vn -0 0 -1
vn -0 0 -1
vn -0 0 1
vn -0 0 1
vn -0 0 1
vn -0 0 1
vn -0 0 1
vn -0 0 1
vn -0 0 1
vn -0 0 1
vn -0.70703125 0.70703125 0
vn -0 1 0
vn -0.70703125 0.70703125 0
vn -0 1 0
vn 0.70703125 0.70703125 0
vn 0.70703125 0.70703125 0
vn 1 0 0
vn 1 0 0
vn -0.70703125 -0.70703125 0
vn -1 0 0
vn -0.70703125 -0.70703125 0
vn -1 0 0
vn -0.70703125 0.70703125 0
vn -0.70703125 0.70703125 0
vn -0 -1 0
vn -0.70703125 -0.70703125 0
vn -0.70703125 -0.70703125 0
vn -0 -1 0
vn 0.70703125 -0.70703125 0
vn 0.70703125 -0.70703125 0
vn 1 0 0
vn 1 0 0
g SecondaryArmBase_0
f 3/3/3 2/2/2 1/1/1
f 2/2/2 4/4/4 1/1/1
f 2/2/2 5/5/5 4/4/4
f 5/5/5 6/6/6 4/4/4
f 9/9/9 8/8/8 7/7/7
f 8/8/8 10/10/10 7/7/7
f 8/8/8 11/11/11 10/10/10
f 11/11/11 12/12/12 10/10/10
f 11/11/11 13/13/13 12/12/12
f 13/13/13 14/14/14 12/12/12
f 17/17/17 16/16/16 15/15/15
f 16/16/16 18/18/18 15/15/15
f 16/16/16 19/19/19 18/18/18
f 19/19/19 20/20/20 18/18/18
f 19/19/19 21/21/21 20/20/20
f 21/21/21 22/22/22 20/20/20
f 25/25/25 24/24/24 23/23/23
f 23/23/23 26/26/26 25/25/25
f 26/26/26 27/27/27 25/25/25
f 26/26/26 28/28/28 27/27/27
f 28/28/28 29/29/29 27/27/27
f 28/28/28 30/30/30 29/29/29
f 33/33/33 32/32/32 31/31/31
f 31/31/31 34/34/34 33/33/33
f 34/34/34 35/35/35 33/33/33
f 34/34/34 36/36/36 35/35/35
f 34/34/34 37/37/37 36/36/36
f 37/37/37 38/38/38 36/36/36
f 41/41/41 40/40/40 39/39/39
f 42/42/42 41/41/41 39/39/39
f 42/42/42 39/39/39 43/43/43
f 44/44/44 42/42/42 43/43/43
f 44/44/44 43/43/43 45/45/45
f 46/46/46 44/44/44 45/45/45
f 49/49/49 48/48/48 47/47/47
f 48/48/48 50/50/50 47/47/47
f 48/48/48 51/51/51 50/50/50
f 51/51/51 52/52/52 50/50/50
f 51/51/51 53/53/53 52/52/52
f 53/53/53 54/54/54 52/52/52
f 57/57/57 56/56/56 55/55/55
f 56/56/56 58/58/58 55/55/55
f 56/56/56 59/59/59 58/58/58
f 59/59/59 60/60/60 58/58/58
f 63/63/63 62/62/62 61/61/61
f 61/61/61 64/64/64 63/63/63
f 64/64/64 65/65/65 63/63/63
f 64/64/64 66/66/66 65/65/65
f 66/66/66 67/67/67 65/65/65
f 66/66/66 68/68/68 67/67/67
f 71/71/71 70/70/70 69/69/69
f 69/69/69 72/72/72 71/71/71
f 72/72/72 73/73/73 71/71/71
f 72/72/72 74/74/74 73/73/73
f 74/74/74 75/75/75 73/73/73
f 74/74/74 76/76/76 75/75/75
f 79/79/79 78/78/78 77/77/77
f 77/77/77 80/80/80 79/79/79
f 80/80/80 81/81/81 79/79/79
f 80/80/80 82/82/82 81/81/81
f 82/82/82 83/83/83 81/81/81
f 82/82/82 84/84/84 83/83/83
f 87/87/87 86/86/86 85/85/85
f 85/85/85 88/88/88 87/87/87
f 88/88/88 89/89/89 87/87/87
f 88/88/88 90/90/90 89/89/89
f 90/90/90 91/91/91 89/89/89
f 90/90/90 92/92/92 91/91/91
f 95/95/95 94/94/94 93/93/93
f 94/94/94 96/96/96 93/93/93
f 94/94/94 97/97/97 96/96/96
f 97/97/97 98/98/98 96/96/96
f 97/97/97 99/99/99 98/98/98
f 99/99/99 100/100/100 98/98/98
f 103/103/103 102/102/102 101/101/101
f 102/102/102 104/104/104 101/101/101
f 102/102/102 105/105/105 104/104/104
f 105/105/105 106/106/106 104/104/104
f 109/109/109 108/108/108 107/107/107
f 110/110/110 109/109/109 107/107/107
f 110/110/110 107/107/107 111/111/111
f 112/112/112 110/110/110 111/111/111
f 112/112/112 111/111/111 113/113/113
f 114/114/114 112/112/112 113/113/113
f 117/117/117 116/116/116 115/115/115
f 115/115/115 118/118/118 117/117/117
f 118/118/118 119/119/119 117/117/117
f 118/118/118 120/120/120 119/119/119
f 120/120/120 121/121/121 119/119/119
f 120/120/120 122/122/122 121/121/121
f 125/125/125 124/124/124 123/123/123
f 123/123/123 126/126/126 125/125/125
f 126/126/126 127/127/127 125/125/125
f 126/126/126 128/128/128 127/127/127
f 128/128/128 129/129/129 127/127/127
f 128/128/128 130/130/130 129/129/129
f 133/133/133 132/132/132 131/131/131
f 132/132/132 134/134/134 131/131/131
f 132/132/132 135/135/135 134/134/134
f 135/135/135 136/136/136 134/134/134
f 135/135/135 137/137/137 136/136/136
f 137/137/137 138/138/138 136/136/136
f 141/141/141 140/140/140 139/139/139
f 140/140/140 142/142/142 139/139/139
f 140/140/140 143/143/143 142/142/142
f 143/143/143 144/144/144 142/142/142
f 147/147/147 146/146/146 145/145/145
f 148/148/148 147/147/147 145/145/145
f 148/148/148 145/145/145 149/149/149
f 150/150/150 148/148/148 149/149/149
f 150/150/150 149/149/149 151/151/151
f 152/152/152 150/150/150 151/151/151
