g ShipInside.001
v 7.6106687 3.1639543 -1.0431442
v 7.6134973 3.619735 -1.0416541
v 7.212876 3.619735 -1.0416541
v 7.215689 3.1639543 -1.0431442
v 7.212876 3.2840915 -1.0475447
v 7.212876 3.0382059 3.1253831
v 7.212876 3.4645839 2.931487
v 7.6134973 3.4645839 2.931487
v 7.6134973 3.0382059 3.1253831
v 7.6134973 -0.19068575 3.1253831
v 7.212876 -0.19068575 3.1253831
v 7.212876 -0.67935514 2.9058356
v 7.6134973 -0.67935514 2.9058356
v 7.212876 -0.81916547 2.6490054
v 7.212876 -0.67935514 2.9058356
v 7.6134973 -0.67935514 2.9058356
v 7.6134973 -0.81916547 2.6490054
v 7.6134973 -0.81917 0.85791814
v 7.212876 -0.81917 0.85791814
v 7.210057 -0.83061004 0.8205316
v 7.6107183 -0.83061004 0.8205316
v 7.212876 3.4645839 2.931487
v 7.212876 3.6353078 2.6510563
v 7.6134973 3.6353078 2.6510563
v 7.6134973 3.4645839 2.931487
v 7.210057 3.6309109 0.8205316
v 7.6134973 3.619735 0.78407425
v 7.6107183 3.6309109 0.8205316
v 7.212876 3.619735 0.78407425
v 7.6134973 3.619735 -1.0416541
v 7.212876 3.619735 -1.0416541
v 7.212876 -0.81917 -1.0416541
v 7.6134973 -0.81917 -1.0416541
v 7.6106687 -0.32810736 -1.0431442
v 7.215689 -0.32810736 -1.0431442
v 7.212876 -0.45902145 -1.0475447
v 7.212876 -0.81917 0.78407425
v 7.210057 -0.83061004 0.8205316
v 7.6107183 -0.83061004 0.8205316
v 7.6134973 -0.81917 0.78407425
v 7.6134973 -0.81917 -1.0416541
v 7.212876 -0.81917 -1.0416541
v 7.6134973 3.619735 0.85791814
v 7.6134973 3.6353078 2.6510563
v 7.212876 3.6353078 2.6510563
v 7.212876 3.619735 0.85791814
v 7.6107183 3.6309109 0.8205316
v 7.210057 3.6309109 0.8205316
v 7.215689 -0.21531677 2.7574892
v 7.6106687 -0.32810736 2.5136487
v 7.6106687 -0.21531677 2.7574892
v 7.215689 -0.32810736 2.5136487
v 7.6106687 -0.32810736 -1.0431442
v 7.215689 -0.32810736 -1.0431442
v 7.215689 3.1639543 2.5136487
v 7.215689 3.0489144 2.7574892
v 7.6106687 3.0489144 2.7574892
v 7.6106687 3.1639543 2.5136487
v 7.215689 3.1639543 -1.0431442
v 7.6106687 3.1639543 -1.0431442
v 7.215689 -0.009807467 2.8995037
v 7.215689 -0.21531677 2.7574892
v 7.6106687 -0.21531677 2.7574892
v 7.6106687 -0.009807467 2.8995037
v 7.215689 0.19570184 2.9423409
v 7.6106687 0.19570184 2.9423409
v 7.215689 2.6401448 2.9423409
v 7.6106687 2.6401448 2.9423409
v 7.215689 2.8445296 2.8995037
v 7.6106687 2.8445296 2.8995037
v 7.215689 3.0489144 2.7574892
v 7.6106687 3.0489144 2.7574892
v 7.6107183 3.6309109 0.8205316
v 7.6134973 3.619735 0.78407425
v 7.6134973 3.619735 0.85791814
v 7.6134973 3.619735 -1.0416541
v 7.6134973 3.4645839 2.931487
v 7.6134973 3.6353078 2.6510563
v 7.6106687 3.1639543 2.5136487
v 7.6106687 3.1639543 -1.0431442
v 7.6106687 3.0489144 2.7574892
v 7.6134973 3.0382059 3.1253831
v 7.6106687 2.8445296 2.8995037
v 7.6106687 2.6401448 2.9423409
v 7.6106687 0.19570184 2.9423409
v 7.6134973 -0.19068575 3.1253831
v 7.6106687 -0.009807467 2.8995037
v 7.6106687 -0.21531677 2.7574892
v 7.6106687 -0.32810736 2.5136487
v 7.6134973 -0.67935514 2.9058356
v 7.6106687 -0.32810736 -1.0431442
v 7.6134973 -0.81916547 2.6490054
v 7.6134973 -0.81917 0.85791814
v 7.6134973 -0.81917 0.78407425
v 7.6134973 -0.81917 -1.0416541
v 7.6107183 -0.83061004 0.8205316
v 7.215689 3.1639543 -1.0431442
v 7.212876 3.2840915 -1.0475447
v 7.212876 3.2840915 2.6144865
v 7.215689 3.1639543 2.5136487
v 7.212876 3.1607811 2.8657513
v 7.215689 3.0489144 2.7574892
v 7.212876 2.9417028 3.01209
v 7.215689 2.8445296 2.8995037
v 7.212876 2.7226243 3.0562315
v 7.215689 2.6401448 2.9423409
v 7.215689 0.19570184 2.9423409
v 7.212876 0.102445364 3.0562315
v 7.215689 -0.009807467 2.8995037
v 7.212876 -0.11783838 3.01209
v 7.215689 -0.21531677 2.7574892
v 7.215689 -0.32810736 2.5136487
v 7.212876 -0.33812213 2.8657513
v 7.215689 -0.32810736 -1.0431442
v 7.212876 -0.45902145 -1.0475447
v 7.212876 -0.45902145 2.6144865
v 7.212876 -0.35415816 -0.94118786
v 7.212876 -0.81917 -1.0416541
v 7.212876 -0.45902145 -1.0475447
v 7.212876 -0.2909404 -0.9470782
v 7.212876 3.1375265 -0.94118786
v 7.212876 3.073152 -0.9470782
v 7.212876 3.2840915 -1.0475447
v 7.212876 3.619735 -1.0416541
vt 0.8774414 0.44799805
vt 0.8774414 0.4362793
vt 0.87939453 0.4362793
vt 0.87939453 0.44799805
vt 0.87939453 0.44482422
vt 0.8198242 0.94433594
vt 0.8198242 0.9550781
vt 0.8178711 0.9550781
vt 0.8178711 0.94433594
vt 0.8178711 0.86279297
vt 0.8198242 0.86279297
vt 0.8198242 0.85058594
vt 0.8178711 0.85058594
vt 0.25024414 0.9091797
vt 0.25024414 0.90283203
vt 0.2524414 0.90283203
vt 0.2524414 0.9091797
vt 0.2524414 0.95458984
vt 0.25024414 0.95458984
vt 0.25024414 0.9555664
vt 0.2524414 0.9555664
vt 0.9873047 0.097839355
vt 0.9873047 0.09075928
vt 0.9892578 0.09075928
vt 0.9897461 0.09790039
vt 0.9873047 0.044525146
vt 0.9892578 0.04360962
vt 0.9892578 0.044525146
vt 0.9873047 0.04360962
vt 0.9897461 1.9073486E-06
vt 0.9873047 0
vt 0.5395508 0.7583008
vt 0.53759766 0.7583008
vt 0.53759766 0.74560547
vt 0.5395508 0.74560547
vt 0.5395508 0.74902344
vt 0.25024414 0.95654297
vt 0.25024414 0.9555664
vt 0.2524414 0.9555664
vt 0.2524414 0.95654297
vt 0.2524414 1
vt 0.25024414 1
vt 0.9892578 0.04547119
vt 0.9892578 0.09075928
vt 0.9873047 0.09075928
vt 0.9873047 0.04547119
vt 0.9892578 0.044525146
vt 0.9873047 0.044525146
vt 0.25439453 0.90283203
vt 0.2524414 0.9091797
vt 0.2524414 0.90283203
vt 0.25439453 0.9091797
vt 0.2524414 0.99609375
vt 0.25439453 0.99609375
vt 0.25463867 0.9091797
vt 0.25439453 0.90283203
vt 0.25634766 0.90283203
vt 0.2565918 0.9091797
vt 0.25463867 0.99609375
vt 0.2565918 0.99609375
vt 0.26171875 0.97998047
vt 0.26171875 0.98535156
vt 0.25976562 0.98535156
vt 0.25976562 0.97998047
vt 0.26171875 0.97509766
vt 0.25976562 0.97509766
vt 0.26171875 0.91308594
vt 0.25976562 0.91308594
vt 0.26171875 0.9082031
vt 0.25976562 0.9082031
vt 0.26171875 0.90283203
vt 0.25976562 0.90283203
vt 0.7524414 0.85058594
vt 0.75146484 0.85009766
vt 0.75341797 0.85009766
vt 0.7080078 0.85009766
vt 0.8051758 0.8461914
vt 0.79833984 0.85058594
vt 0.7949219 0.8388672
vt 0.7080078 0.8388672
vt 0.80078125 0.8359375
vt 0.8100586 0.8354492
vt 0.8046875 0.8305664
vt 0.80566406 0.8251953
vt 0.80566406 0.7636719
vt 0.8100586 0.75390625
vt 0.8046875 0.7583008
vt 0.80078125 0.75341797
vt 0.7949219 0.7504883
vt 0.8046875 0.7416992
vt 0.7080078 0.7504883
vt 0.79833984 0.73779297
vt 0.75341797 0.73779297
vt 0.75146484 0.73779297
vt 0.7080078 0.73779297
vt 0.7524414 0.73779297
vt 0.0030097961 0.87158203
vt 0 0.87158203
vt 0 0.7817383
vt 0.0030097961 0.7841797
vt 0.0030879974 0.7753906
vt 0.0058898926 0.7783203
vt 0.008575439 0.77197266
vt 0.011009216 0.77441406
vt 0.014060974 0.7705078
vt 0.01612854 0.7734375
vt 0.07733154 0.7734375
vt 0.079711914 0.7705078
vt 0.08251953 0.77441406
vt 0.08520508 0.77197266
vt 0.087646484 0.7783203
vt 0.0904541 0.7841797
vt 0.09075928 0.7753906
vt 0.0904541 0.87158203
vt 0.09375 0.87158203
vt 0.09375 0.7817383
vt 0.14135742 0.56884766
vt 0.13720703 0.57958984
vt 0.14025879 0.57128906
vt 0.1418457 0.56689453
vt 0.17272949 0.48632812
vt 0.17199707 0.48779297
vt 0.17382812 0.48266602
vt 0.17700195 0.47485352
vn 0.006008148 0.0033054352 -1
vn 0.006008148 0.0033054352 -1
vn 0.006008148 0.0033054352 -1
vn 0.006008148 0.0033054352 -1
vn 0.006008148 0.0033054352 -1
vn -0 0.21179199 0.97753906
vn -0 0.4140625 0.91015625
vn -0 0.4140625 0.91015625
vn -0 0.21179199 0.97753906
vn -0 -0.20959473 0.97802734
vn -0 -0.20959473 0.97802734
vn -0 -0.4099121 0.9121094
vn -0 -0.4099121 0.9121094
vn -0 -0.9692383 0.2467041
vn -0 -0.87841797 0.47802734
vn -0 -0.87841797 0.47802734
vn -0 -0.9692383 0.2467041
vn -0 -0.9897461 0.14453125
vn -0 -0.98828125 0.15124512
vn -0 -0.9560547 0.29248047
vn -0 -0.9560547 0.29248047
vn -0 0.8540039 0.52001953
vn -0 0.8540039 0.52001953
vn -0 0.8540039 0.52001953
vn -0 0.8540039 0.52001953
vn -0 0.9560547 -0.29296875
vn -0 0.9892578 -0.14465332
vn -0 0.9560547 -0.29296875
vn -0 0.98828125 -0.15161133
vn -0 1 0
vn -0 1 0
vn 0.0060157776 -0.003068924 -1
vn 0.0060157776 -0.003068924 -1
vn 0.0060157776 -0.003068924 -1
vn 0.0060157776 -0.003068924 -1
vn 0.0060157776 -0.003068924 -1
vn -0 -0.98779297 -0.15490723
vn -0 -0.95410156 -0.2993164
vn -0 -0.95410156 -0.2993164
vn -0 -0.98876953 -0.14782715
vn -0 -1 0
vn -0 -1 0
vn -0 0.99072266 0.13696289
vn -0 1 -0.008682251
vn -0 1 -0.008682251
vn -0 0.9897461 0.14379883
vn -0 0.9580078 0.28637695
vn -0 0.9580078 0.28637695
vn -0 0.7651367 -0.64404297
vn -0 0.9765625 -0.21496582
vn -0 0.7651367 -0.64404297
vn -0 0.9765625 -0.21496582
vn -0 1 0
vn -0 1 0
vn -0 -0.97558594 -0.21862793
vn -0 -0.7636719 -0.6459961
vn -0 -0.7636719 -0.6459961
vn -0 -0.97558594 -0.21862793
vn -0 -1 0
vn -0 -1 0
vn -0 0.39404297 -0.9189453
vn -0 0.7651367 -0.64404297
vn -0 0.7651367 -0.64404297
vn -0 0.39404297 -0.9189453
vn -0 0.1026001 -0.9946289
vn -0 0.1026001 -0.9946289
vn -0 -0.10308838 -0.9946289
vn -0 -0.10308838 -0.9946289
vn -0 -0.39575195 -0.91845703
vn -0 -0.39575195 -0.91845703
vn -0 -0.7636719 -0.6459961
vn -0 -0.7636719 -0.6459961
vn 1 0 -0.0024757385
vn 1 0 -0.0024757385
vn 1 0 -0.0024757385
vn 1 0 -0.0024757385
vn 1 0 -0.0024757385
vn 1 0 -0.0024757385
vn 1 0 -0.0024757385
vn 1 0 -0.0024757385
vn 1 0 -0.0024757385
vn 1 0 -0.0024757385
vn 1 0 -0.0024757385
vn 1 0 -0.0024757385
vn 1 0 -0.0024757385
vn 1 0 -0.0024757385
vn 1 0 -0.0024757385
vn 1 0 -0.0024757385
vn 1 0 -0.0024757385
vn 1 0 -0.0024757385
vn 1 0 -0.0024757385
vn 1 0 -0.0024757385
vn 1 0 -0.0024757385
vn 1 0 -0.0024757385
vn 1 0 -0.0024757385
vn 1 0 -0.0024757385
vn -1 0 -0.007194519
vn -1 0 -0.007194519
vn -1 0 -0.007194519
vn -1 0 -0.007194519
vn -1 0 -0.007194519
vn -1 0 -0.007194519
vn -1 0 -0.007194519
vn -1 0 -0.007194519
vn -1 0 -0.007194519
vn -1 0 -0.007194519
vn -1 0 -0.007194519
vn -1 0 -0.007194519
vn -1 0 -0.007194519
vn -1 0 -0.007194519
vn -1 0 -0.007194519
vn -1 0 -0.007194519
vn -1 0 -0.007194519
vn -1 0 -0.007194519
vn -1 0 -0.007194519
vn -1 0 -0.007194519
vn -1 0 0
vn -1 0 0
vn -1 0 0
vn -1 0 0
vn -1 0 0
vn -1 0 0
vn -1 0 0
vn -1 0 0
g ShipInside.001_0
f 3/3/3 2/2/2 1/1/1
f 1/1/1 4/4/4 3/3/3
f 4/4/4 5/5/5 3/3/3
f 8/8/8 7/7/7 6/6/6
f 9/9/9 8/8/8 6/6/6
f 9/9/9 6/6/6 10/10/10
f 6/6/6 11/11/11 10/10/10
f 10/10/10 11/11/11 12/12/12
f 13/13/13 10/10/10 12/12/12
f 16/16/16 15/15/15 14/14/14
f 17/17/17 16/16/16 14/14/14
f 17/17/17 14/14/14 18/18/18
f 14/14/14 19/19/19 18/18/18
f 18/18/18 19/19/19 20/20/20
f 21/21/21 18/18/18 20/20/20
f 24/24/24 23/23/23 22/22/22
f 25/25/25 24/24/24 22/22/22
f 28/28/28 27/27/27 26/26/26
f 27/27/27 29/29/29 26/26/26
f 29/29/29 27/27/27 30/30/30
f 31/31/31 29/29/29 30/30/30
f 34/34/34 33/33/33 32/32/32
f 32/32/32 35/35/35 34/34/34
f 32/32/32 36/36/36 35/35/35
f 39/39/39 38/38/38 37/37/37
f 40/40/40 39/39/39 37/37/37
f 40/40/40 37/37/37 41/41/41
f 37/37/37 42/42/42 41/41/41
f 45/45/45 44/44/44 43/43/43
f 46/46/46 45/45/45 43/43/43
f 43/43/43 47/47/47 46/46/46
f 47/47/47 48/48/48 46/46/46
f 51/51/51 50/50/50 49/49/49
f 50/50/50 52/52/52 49/49/49
f 52/52/52 50/50/50 53/53/53
f 54/54/54 52/52/52 53/53/53
f 57/57/57 56/56/56 55/55/55
f 58/58/58 57/57/57 55/55/55
f 55/55/55 59/59/59 58/58/58
f 59/59/59 60/60/60 58/58/58
f 63/63/63 62/62/62 61/61/61
f 64/64/64 63/63/63 61/61/61
f 64/64/64 61/61/61 65/65/65
f 66/66/66 64/64/64 65/65/65
f 65/65/65 67/67/67 66/66/66
f 67/67/67 68/68/68 66/66/66
f 68/68/68 67/67/67 69/69/69
f 70/70/70 68/68/68 69/69/69
f 70/70/70 69/69/69 71/71/71
f 72/72/72 70/70/70 71/71/71
f 75/75/75 74/74/74 73/73/73
f 76/76/76 74/74/74 75/75/75
f 76/76/76 75/75/75 77/77/77
f 75/75/75 78/78/78 77/77/77
f 76/76/76 77/77/77 79/79/79
f 79/79/79 80/80/80 76/76/76
f 81/81/81 79/79/79 77/77/77
f 81/81/81 77/77/77 82/82/82
f 83/83/83 81/81/81 82/82/82
f 84/84/84 83/83/83 82/82/82
f 85/85/85 84/84/84 82/82/82
f 85/85/85 82/82/82 86/86/86
f 87/87/87 85/85/85 86/86/86
f 88/88/88 87/87/87 86/86/86
f 89/89/89 88/88/88 86/86/86
f 89/89/89 86/86/86 90/90/90
f 91/91/91 89/89/89 90/90/90
f 91/91/91 90/90/90 92/92/92
f 91/91/91 92/92/92 93/93/93
f 91/91/91 93/93/93 94/94/94
f 94/94/94 95/95/95 91/91/91
f 96/96/96 94/94/94 93/93/93
f 99/99/99 98/98/98 97/97/97
f 99/99/99 97/97/97 100/100/100
f 101/101/101 99/99/99 100/100/100
f 101/101/101 100/100/100 102/102/102
f 103/103/103 101/101/101 102/102/102
f 103/103/103 102/102/102 104/104/104
f 105/105/105 103/103/103 104/104/104
f 105/105/105 104/104/104 106/106/106
f 105/105/105 106/106/106 107/107/107
f 108/108/108 105/105/105 107/107/107
f 108/108/108 107/107/107 109/109/109
f 110/110/110 108/108/108 109/109/109
f 110/110/110 109/109/109 111/111/111
f 110/110/110 111/111/111 112/112/112
f 112/112/112 113/113/113 110/110/110
f 113/113/113 112/112/112 114/114/114
f 113/113/113 114/114/114 115/115/115
f 115/115/115 116/116/116 113/113/113
g ShipInside.001_1
f 119/119/119 118/118/118 117/117/117
f 117/117/117 120/120/120 119/119/119
f 117/117/117 121/121/121 120/120/120
f 121/121/121 122/122/122 120/120/120
f 121/121/121 123/123/123 122/122/122
f 121/121/121 124/124/124 123/123/123
