g SingleScreen
v 0.45023093 1.8265831 0.701807
v 0.4517885 1.826122 0.65882015
v -0.077716716 0.042764843 0.65882015
v -0.090896 0.007796526 0.701807
v -0.090431176 0.007741213 0.65819335
v -0.09043222 0.007741332 -0.8812356
v -0.07583933 0.04910612 -0.78342295
v 0.4517885 1.826122 -0.8812356
v 0.4517885 1.826122 -0.78342295
v 0.47675326 1.8187311 0.75330126
v 0.46527773 1.8221285 0.7096284
v -0.075866245 0.006006956 0.70975095
v -0.06380244 0.0045705438 0.75330126
v 0.47762206 1.8184738 0.79607236
v -0.062915586 0.0044649243 0.79607236
v -0.075866245 0.006006956 0.70975095
v 0.46527773 1.8221285 0.7096284
v 0.45023093 1.8265831 0.701807
v -0.090896 0.007796526 0.701807
v -0.037461184 0.18651497 -0.660835
v 0.4048212 1.6752577 -0.660835
v 0.42855552 1.6834931 -0.66586375
v -0.022035563 0.166686 -0.66586375
v -0.3318622 0.16544458 -0.7470641
v 0.16031459 1.8227164 -0.7470641
v 0.058099568 1.7809479 -0.71002316
v -0.39486408 0.25612673 -0.71002316
v -0.037461184 0.18651497 0.53623223
v -0.037461184 0.18651497 -0.660835
v -0.022035563 0.166686 -0.66586375
v -0.022035563 0.166686 0.54126096
v 0.4048212 1.6752577 -0.660835
v 0.4048212 1.6752577 0.53623223
v 0.42855552 1.6834931 0.54126096
v 0.42855552 1.6834931 -0.66586375
v -0.04195743 0.056761444 0.63733387
v 0.4716873 1.7865462 0.63733387
v 0.4772674 1.742393 0.607468
v -0.013239557 0.09076083 0.607468
v 0.47762206 1.8184738 0.79607236
v -0.062915586 0.0044649243 0.79607236
v -0.36609483 0.060107376 0.79779124
v 0.17645976 1.8910555 0.79779124
v 0.4048212 1.6752577 0.53623223
v -0.037461184 0.18651497 0.53623223
v -0.022035563 0.166686 0.54126096
v 0.42855552 1.6834931 0.54126096
v -0.04195743 0.056761444 -0.76193666
v -0.04195743 0.056761444 0.63733387
v -0.013239557 0.09076083 0.607468
v -0.013239557 0.09076083 -0.7320707
v -0.008644918 0.12606108 0.5743644
v -0.008644918 0.12606108 -0.6989672
v 0.4772674 1.742393 -0.7320707
v 0.46190414 1.7102807 0.5743644
v 0.4772674 1.742393 0.607468
v -0.022035563 0.166686 0.54126096
v -0.022035563 0.166686 -0.66586375
v 0.42855552 1.6834931 0.54126096
v -0.022035563 0.166686 0.54126096
v 0.46190414 1.7102807 -0.6989672
v -0.022035563 0.166686 -0.66586375
v 0.42855552 1.6834931 -0.66586375
v 0.42855552 1.6834931 -0.66586375
v 0.42855552 1.6834931 0.54126096
v 0.4716873 1.7865462 0.63733387
v 0.4716873 1.7865462 -0.76193666
v 0.4517885 1.826122 0.65882015
v 0.4517885 1.826122 -0.78342295
v 0.4716873 1.7865462 -0.76193666
v -0.04195743 0.056761444 -0.76193666
v -0.013239557 0.09076083 -0.7320707
v 0.4772674 1.742393 -0.7320707
v 0.058099568 1.7809479 -0.71002316
v 0.058099568 1.7809479 0.58293605
v -0.39486408 0.25612673 0.58293605
v -0.39486408 0.25612673 -0.71002316
v 0.16031459 1.8227164 0.619977
v -0.3318622 0.16544458 0.619977
v -0.39486408 0.25612673 0.58293605
v 0.058099568 1.7809479 0.58293605
v -0.3318622 0.16544458 0.619977
v -0.3318622 0.16544458 -0.7470641
v -0.39486408 0.25612673 -0.71002316
v -0.39486408 0.25612673 0.58293605
v 0.16031459 1.8227164 -0.7470641
v 0.16031459 1.8227164 0.619977
v 0.058099568 1.7809479 0.58293605
v 0.058099568 1.7809479 -0.71002316
v 0.4517885 1.826122 -0.78342295
v -0.07583933 0.04910612 -0.78342295
v -0.04195743 0.056761444 -0.76193666
v 0.4716873 1.7865462 -0.76193666
v -0.07583933 0.04910612 -0.78342295
v -0.077716716 0.042764843 0.65882015
v -0.04195743 0.056761444 0.63733387
v -0.04195743 0.056761444 -0.76193666
v -0.077716716 0.042764843 0.65882015
v 0.4517885 1.826122 0.65882015
v 0.4716873 1.7865462 0.63733387
v -0.04195743 0.056761444 0.63733387
v -0.09043222 0.007741332 -0.8812356
v -0.36397612 0.05985507 -1.1977956
v -0.36413336 0.059873786 0.657578
v -0.090431176 0.007741213 0.65819335
v -0.090896 0.007796526 0.701807
v -0.075866245 0.006006956 0.70975095
v -0.075866245 0.006006956 0.70975095
v -0.36609483 0.060107376 0.79779124
v -0.06380244 0.0045705438 0.75330126
v -0.062915586 0.0044649243 0.79607236
v 0.17810062 1.8905698 -0.7846651
v 0.17810062 1.8905698 -1.1977956
v 0.4517885 1.826122 -0.8812356
v 0.4517885 1.826122 -0.78342295
v 0.17810062 1.8905698 0.657578
v 0.4517885 1.826122 0.65882015
v 0.17810062 1.8905698 0.70056486
v 0.45023093 1.8265831 0.701807
v 0.17645976 1.8910555 0.79779124
v 0.46527773 1.8221285 0.7096284
v 0.47675326 1.8187311 0.75330126
v 0.47762206 1.8184738 0.79607236
v 0.4517885 1.826122 -0.8812356
v 0.17810062 1.8905698 -1.1977956
v -0.36397612 0.05985507 -1.1977956
v -0.09043222 0.007741332 -0.8812356
v -0.36397612 0.05985507 -1.1977956
v 0.17810062 1.8905698 -1.1977956
v -0.35388184 0.09884468 -0.7846651
v -0.36413336 0.059873786 0.657578
v -0.36609483 0.060107376 0.79779124
v 0.17810062 1.8905698 -0.7846651
v -0.3318622 0.16544458 0.619977
v 0.17645976 1.8910555 0.79779124
v -0.3318622 0.16544458 -0.7470641
v 0.16031459 1.8227164 -0.7470641
v 0.17810062 1.8905698 0.657578
v 0.16031459 1.8227164 0.619977
v 0.17810062 1.8905698 0.70056486
v -0.037461184 0.18651497 -0.660835
v -0.037461184 0.18651497 0.53623223
v 0.10345549 0.38525873 0.34548202
v 0.10345549 0.38525873 -0.47008458
v 0.4048212 1.6752577 -0.660835
v 0.414517 1.4318666 0.34548202
v 0.4048212 1.6752577 0.53623223
v 0.414517 1.4318666 -0.47008458
vt 0.14294434 0.064575195
vt 0.14147949 0.064575195
vt 0.14135742 0.12719727
vt 0.1427002 0.12841797
vt 0.14135742 0.12841797
vt 0.09106445 0.1282959
vt 0.09429932 0.12683105
vt 0.091308594 0.06451416
vt 0.09448242 0.06451416
vt 0.40966797 0.85595703
vt 0.40893555 0.85595703
vt 0.4086914 0.8886719
vt 0.40942383 0.8881836
vt 0.4104004 0.85595703
vt 0.41015625 0.8881836
vt 0.22143555 0.12792969
vt 0.2319336 0.06463623
vt 0.23132324 0.06451416
vt 0.2208252 0.12792969
vt 0.16357422 0.48583984
vt 0.16357422 0.51660156
vt 0.16394043 0.51708984
vt 0.16394043 0.4855957
vt 0.17456055 0.25146484
vt 0.17456055 0.1928711
vt 0.171875 0.19519043
vt 0.171875 0.24914551
vt 0.16394043 0.4855957
vt 0.16394043 0.50927734
vt 0.16430664 0.50927734
vt 0.16430664 0.4855957
vt 0.16381836 0.52246094
vt 0.16381836 0.5463867
vt 0.16430664 0.5463867
vt 0.16430664 0.52246094
vt 0.07891846 0.5600586
vt 0.07879639 0.59521484
vt 0.0793457 0.59472656
vt 0.07946777 0.5605469
vt 0.18237305 0.19226074
vt 0.171875 0.12902832
vt 0.14294434 0.12902832
vt 0.15344238 0.1928711
vt 0.16308594 0.52246094
vt 0.16308594 0.55322266
vt 0.16345215 0.55371094
vt 0.16345215 0.52246094
vt 0.105529785 0.5600586
vt 0.07891846 0.5600586
vt 0.07946777 0.5605469
vt 0.10498047 0.5605469
vt 0.080078125 0.56152344
vt 0.10430908 0.56152344
vt 0.1048584 0.59472656
vt 0.08001709 0.59375
vt 0.0793457 0.59472656
vt 0.08074951 0.5620117
vt 0.10369873 0.5620117
vt 0.08062744 0.5932617
vt 0.08074951 0.5620117
vt 0.10424805 0.59375
vt 0.10369873 0.5620117
vt 0.103637695 0.5932617
vt 0.103637695 0.5932617
vt 0.08062744 0.5932617
vt 0.07879639 0.59521484
vt 0.10546875 0.59521484
vt 0.078430176 0.5961914
vt 0.105895996 0.5961914
vt 0.10546875 0.59521484
vt 0.105529785 0.5600586
vt 0.10498047 0.5605469
vt 0.1048584 0.59472656
vt 0.041870117 0.18774414
vt 0.08404541 0.18774414
vt 0.08404541 0.13391113
vt 0.0418396 0.13391113
vt 0.086120605 0.25073242
vt 0.086120605 0.19226074
vt 0.08325195 0.19458008
vt 0.08325195 0.24853516
vt 0.08526611 0.13134766
vt 0.040649414 0.13134766
vt 0.0418396 0.13391113
vt 0.08404541 0.13391113
vt 0.18054199 0.23913574
vt 0.18054199 0.1928711
vt 0.1776123 0.1940918
vt 0.1776123 0.23791504
vt 0.078308105 0.5966797
vt 0.078308105 0.5600586
vt 0.077697754 0.5605469
vt 0.077697754 0.5961914
vt 0.16357422 0.51416016
vt 0.16357422 0.4855957
vt 0.16296387 0.48608398
vt 0.16296387 0.5136719
vt 0.16296387 0.52246094
vt 0.16296387 0.4855957
vt 0.16235352 0.48632812
vt 0.16235352 0.52197266
vt 0.09106445 0.1282959
vt 0.036224365 0.12768555
vt 0.08648682 0.12768555
vt 0.14135742 0.12841797
vt 0.1427002 0.12841797
vt 0.22143555 0.12792969
vt 0.4086914 0.8886719
vt 0.09106445 0.12768555
vt 0.40942383 0.8881836
vt 0.41015625 0.8881836
vt 0.2401123 0.19616699
vt 0.2401123 0.1928711
vt 0.21203613 0.19299316
vt 0.2121582 0.19628906
vt 0.24023438 0.24499512
vt 0.21228027 0.24511719
vt 0.24023438 0.24645996
vt 0.21228027 0.24658203
vt 0.24035645 0.24975586
vt 0.21179199 0.24682617
vt 0.21142578 0.24829102
vt 0.21142578 0.24975586
vt 0.2208252 0.064941406
vt 0.1928711 0.06451416
vt 0.18237305 0.1282959
vt 0.21032715 0.1282959
vt 0.036224365 0.12768555
vt 0.036254883 0.19226074
vt 0.03942871 0.12902832
vt 0.08648682 0.12768555
vt 0.09106445 0.12768555
vt 0.03945923 0.19226074
vt 0.08526611 0.13134766
vt 0.09106445 0.19226074
vt 0.040649414 0.13134766
vt 0.04067993 0.18981934
vt 0.08648682 0.19226074
vt 0.08526611 0.18981934
vt 0.087890625 0.19226074
vt 0 5.9604645E-08
vt 5.9604645E-08 1
vt 0.14855957 0.8408203
vt 0.14855957 0.15930176
vt 1 0
vt 0.8515625 0.8408203
vt 1 1
vt 0.8515625 0.15930176
vn 0.95703125 -0.28515625 0.04949951
vn 0.95703125 -0.28515625 0.04949951
vn 0.95654297 -0.28955078 0.030044556
vn 0.95703125 -0.28515625 0.04949951
vn 0.9560547 -0.29174805 0.020248413
vn 0.95458984 -0.2980957 -0.00844574
vn 0.95458984 -0.2980957 -0.00844574
vn 0.95458984 -0.2980957 -0.00844574
vn 0.95458984 -0.2980957 -0.00844574
vn 0.9482422 -0.28271484 -0.14379883
vn 0.9243164 -0.27539062 -0.26464844
vn 0.9243164 -0.27539062 -0.26464844
vn 0.9482422 -0.2824707 -0.14575195
vn 0.9580078 -0.2854004 -0.020874023
vn 0.9580078 -0.2854004 -0.020874023
vn 0.43896484 -0.1307373 -0.88916016
vn 0.43896484 -0.1307373 -0.88916016
vn 0.43896484 -0.1307373 -0.88916016
vn 0.43896484 -0.1307373 -0.88916016
vn 0.22924805 -0.068115234 0.9711914
vn 0.22924805 -0.068115234 0.9711914
vn 0.22924805 -0.068115234 0.9711914
vn 0.22924805 -0.068115234 0.9711914
vn -0.3786621 0.11248779 -0.91845703
vn -0.3786621 0.11248779 -0.91845703
vn -0.3786621 0.11248779 -0.91845703
vn -0.3786621 0.11248779 -0.91845703
vn 0.7890625 0.6142578 0
vn 0.7890625 0.6142578 0
vn 0.9008789 0.4338379 0
vn 0.9008789 0.4338379 0
vn 0.32788086 -0.9448242 0
vn 0.32788086 -0.9448242 0
vn 0.51953125 -0.8544922 0
vn 0.51953125 -0.8544922 0
vn 0.6308594 -0.18737793 0.7529297
vn 0.6274414 -0.1862793 0.75634766
vn 0.8222656 -0.2442627 0.5136719
vn 0.8222656 -0.2442627 0.5136719
vn 0.0053520203 -0.0015897751 1
vn 0.0053520203 -0.0015897751 1
vn 0.0053520203 -0.0015897751 1
vn 0.0053520203 -0.0015897751 1
vn 0.22924805 -0.068115234 -0.9711914
vn 0.22924805 -0.068115234 -0.9711914
vn 0.22924805 -0.068115234 -0.9711914
vn 0.22924805 -0.068115234 -0.9711914
vn 0.46020508 -0.8876953 -0.0013713837
vn 0.46240234 -0.88671875 -0.0013628006
vn 0.8798828 -0.4736328 -0.035217285
vn 0.8798828 -0.4736328 0.035217285
vn 0.9790039 -0.14160156 -0.14648438
vn 0.9790039 -0.14160156 0.14648438
vn 0.99609375 -0.08215332 0.035217285
vn 0.8979492 -0.41503906 -0.1463623
vn 0.99609375 -0.08215332 -0.035217285
vn 0.9008789 0.4338379 0
vn 0.9008789 0.4338379 0
vn 0.77197266 -0.22924805 -0.59277344
vn 0.77197266 -0.22924805 -0.59277344
vn 0.8979492 -0.41503906 0.1463623
vn 0.77197266 -0.22924805 0.59277344
vn 0.77197266 -0.22924805 0.59277344
vn 0.51953125 -0.8544922 0
vn 0.51953125 -0.8544922 0
vn 0.9375 0.3479004 0
vn 0.9375 0.3479004 0
vn 0.8935547 0.44921875 0
vn 0.8935547 0.44921875 0
vn 0.6274414 -0.1862793 -0.75634766
vn 0.6347656 -0.18847656 -0.7495117
vn 0.8222656 -0.2442627 -0.5136719
vn 0.8222656 -0.2442627 -0.5136719
vn -0.9584961 0.28466797 0
vn -0.9584961 0.28466797 0
vn -0.9584961 0.28466797 0
vn -0.9584961 0.28466797 0
vn -0.3786621 0.11248779 0.91845703
vn -0.3786621 0.11248779 0.91845703
vn -0.3786621 0.11248779 0.91845703
vn -0.3786621 0.11248779 0.91845703
vn -0.82128906 -0.5708008 0
vn -0.82128906 -0.5708008 0
vn -0.82128906 -0.5708008 0
vn -0.82128906 -0.5708008 0
vn -0.37817383 0.92578125 0
vn -0.37817383 0.92578125 0
vn -0.37817383 0.92578125 0
vn -0.37817383 0.92578125 0
vn 0.5541992 -0.16455078 -0.81591797
vn 0.5541992 -0.16455078 -0.81591797
vn 0.6347656 -0.18847656 -0.7495117
vn 0.6274414 -0.1862793 -0.75634766
vn 0.296875 -0.9550781 -0.0019350052
vn 0.296875 -0.9550781 -0.0019350052
vn 0.46240234 -0.88671875 -0.0013628006
vn 0.46020508 -0.8876953 -0.0013713837
vn 0.5541992 -0.16455078 0.81591797
vn 0.5541992 -0.16455078 0.81591797
vn 0.6274414 -0.1862793 0.75634766
vn 0.6308594 -0.18737793 0.7529297
vn -0.18713379 -0.9824219 0.00029349327
vn -0.18713379 -0.9824219 0.00029349327
vn -0.18481445 -0.98291016 0.0015659332
vn -0.18713379 -0.9824219 0.00029349327
vn -0.18713379 -0.9824219 0.00029349327
vn -0.18261719 -0.98339844 0.0027599335
vn -0.18261719 -0.98339844 0.0027599335
vn -0.18188477 -0.98339844 0.0031433105
vn -0.18188477 -0.98339844 0.0031433105
vn -0.18188477 -0.98339844 0.0031433105
vn 0.22949219 0.97314453 0.00038695335
vn 0.22949219 0.97314453 0.00038695335
vn 0.22949219 0.97314453 0.00038695335
vn 0.22949219 0.97314453 0.00038695335
vn 0.22949219 0.97314453 0.00038695335
vn 0.22949219 0.97314453 0.00038695335
vn 0.22949219 0.97314453 0.00038695335
vn 0.22949219 0.97314453 0.00038695335
vn 0.22949219 0.97314453 0.00038695335
vn 0.22949219 0.97314453 0.00038695335
vn 0.22949219 0.97314453 0.00038695335
vn 0.22949219 0.97314453 0.00038695335
vn 0.7192383 -0.21374512 -0.6611328
vn 0.7192383 -0.21374512 -0.6611328
vn 0.7192383 -0.21374512 -0.6611328
vn 0.7192383 -0.21374512 -0.6611328
vn -0.9584961 0.2849121 -0.0059432983
vn -0.9584961 0.2849121 -0.0059432983
vn -0.9614258 0.27563477 0.008979797
vn -0.9584961 0.2849121 -0.0059432983
vn -0.9584961 0.2849121 -0.0059432983
vn -0.9614258 0.27563477 0.008979797
vn -0.9584961 0.2849121 -0.0059432983
vn -0.9584961 0.2849121 -0.0059432983
vn -0.9614258 0.27441406 0.01083374
vn -0.9638672 0.26611328 0.023895264
vn -0.9604492 0.27856445 0.0043029785
vn -0.9609375 0.27685547 0.00712204
vn -0.9584961 0.2849121 -0.0059432983
vn 0.8745117 -0.45214844 -0.17529297
vn 0.8745117 -0.45214844 0.17529297
vn 0.90625 -0.39379883 0.15222168
vn 0.90625 -0.39379883 -0.15222168
vn 0.9794922 -0.09851074 -0.17529297
vn 0.9746094 -0.16479492 0.15222168
vn 0.9794922 -0.09851074 0.17529297
vn 0.9746094 -0.16479492 -0.15222168
g SingleScreen_0
f 3/3/3 2/2/2 1/1/1
f 3/3/3 1/1/1 4/4/4
f 4/4/4 5/5/5 3/3/3
f 3/3/3 5/5/5 6/6/6
f 6/6/6 7/7/7 3/3/3
f 6/6/6 8/8/8 7/7/7
f 8/8/8 9/9/9 7/7/7
f 12/12/12 11/11/11 10/10/10
f 13/13/13 12/12/12 10/10/10
f 13/13/13 10/10/10 14/14/14
f 15/15/15 13/13/13 14/14/14
f 18/18/18 17/17/17 16/16/16
f 19/19/19 18/18/18 16/16/16
f 22/22/22 21/21/21 20/20/20
f 23/23/23 22/22/22 20/20/20
f 26/26/26 25/25/25 24/24/24
f 27/27/27 26/26/26 24/24/24
f 30/30/30 29/29/29 28/28/28
f 31/31/31 30/30/30 28/28/28
f 34/34/34 33/33/33 32/32/32
f 35/35/35 34/34/34 32/32/32
f 38/38/38 37/37/37 36/36/36
f 39/39/39 38/38/38 36/36/36
f 42/42/42 41/41/41 40/40/40
f 43/43/43 42/42/42 40/40/40
f 46/46/46 45/45/45 44/44/44
f 47/47/47 46/46/46 44/44/44
f 50/50/50 49/49/49 48/48/48
f 51/51/51 50/50/50 48/48/48
f 50/50/50 51/51/51 52/52/52
f 51/51/51 53/53/53 52/52/52
f 51/51/51 54/54/54 53/53/53
f 50/50/50 52/52/52 55/55/55
f 56/56/56 50/50/50 55/55/55
f 52/52/52 53/53/53 57/57/57
f 53/53/53 58/58/58 57/57/57
f 55/55/55 52/52/52 59/59/59
f 52/52/52 60/60/60 59/59/59
f 54/54/54 61/61/61 53/53/53
f 56/56/56 55/55/55 61/61/61
f 54/54/54 56/56/56 61/61/61
f 53/53/53 61/61/61 62/62/62
f 61/61/61 63/63/63 62/62/62
f 61/61/61 55/55/55 64/64/64
f 55/55/55 65/65/65 64/64/64
f 56/56/56 54/54/54 66/66/66
f 54/54/54 67/67/67 66/66/66
f 66/66/66 67/67/67 68/68/68
f 67/67/67 69/69/69 68/68/68
f 72/72/72 71/71/71 70/70/70
f 73/73/73 72/72/72 70/70/70
f 76/76/76 75/75/75 74/74/74
f 77/77/77 76/76/76 74/74/74
f 80/80/80 79/79/79 78/78/78
f 81/81/81 80/80/80 78/78/78
f 84/84/84 83/83/83 82/82/82
f 85/85/85 84/84/84 82/82/82
f 88/88/88 87/87/87 86/86/86
f 89/89/89 88/88/88 86/86/86
f 92/92/92 91/91/91 90/90/90
f 93/93/93 92/92/92 90/90/90
f 96/96/96 95/95/95 94/94/94
f 97/97/97 96/96/96 94/94/94
f 100/100/100 99/99/99 98/98/98
f 101/101/101 100/100/100 98/98/98
f 104/104/104 103/103/103 102/102/102
f 102/102/102 105/105/105 104/104/104
f 105/105/105 106/106/106 104/104/104
f 106/106/106 107/107/107 104/104/104
f 109/109/109 104/104/104 108/108/108
f 108/108/108 110/110/110 109/109/109
f 110/110/110 111/111/111 109/109/109
f 114/114/114 113/113/113 112/112/112
f 112/112/112 115/115/115 114/114/114
f 112/112/112 116/116/116 115/115/115
f 116/116/116 117/117/117 115/115/115
f 116/116/116 118/118/118 117/117/117
f 118/118/118 119/119/119 117/117/117
f 118/118/118 120/120/120 119/119/119
f 120/120/120 121/121/121 119/119/119
f 120/120/120 122/122/122 121/121/121
f 120/120/120 123/123/123 122/122/122
f 126/126/126 125/125/125 124/124/124
f 127/127/127 126/126/126 124/124/124
f 130/130/130 129/129/129 128/128/128
f 128/128/128 131/131/131 130/130/130
f 131/131/131 132/132/132 130/130/130
f 130/130/130 133/133/133 129/129/129
f 134/134/134 130/130/130 132/132/132
f 132/132/132 135/135/135 134/134/134
f 130/130/130 134/134/134 136/136/136
f 133/133/133 130/130/130 136/136/136
f 136/136/136 137/137/137 133/133/133
f 137/137/137 138/138/138 133/133/133
f 135/135/135 139/139/139 134/134/134
f 137/137/137 139/139/139 138/138/138
f 135/135/135 140/140/140 139/139/139
f 139/139/139 140/140/140 138/138/138
g SingleScreen_1
f 143/143/143 142/142/142 141/141/141
f 144/144/144 143/143/143 141/141/141
f 144/144/144 141/141/141 145/145/145
f 143/143/143 146/146/146 142/142/142
f 146/146/146 143/143/143 144/144/144
f 146/146/146 147/147/147 142/142/142
f 148/148/148 145/145/145 147/147/147
f 148/148/148 144/144/144 145/145/145
f 146/146/146 148/148/148 147/147/147
f 148/148/148 146/146/146 144/144/144
