g Sphere.004
v 2.9802322E-07 0.95105666 0.5000576
v 0.58942306 0.34030348 1.1927344
v 6.6354744E-09 0.680607 1.1927344
v 0.82363915 0.47552824 0.5000576
v -0 0.95105654 -0.14052063
v 0.58942294 -0.3403036 1.1927344
v 0.82363915 0.47552824 -0.14052063
v 0.8236391 -0.47552836 0.5000576
v -1.3139909E-07 -0.6806071 1.1927344
v -1.4901161E-07 -0.9510566 0.5000576
v 0.8236391 -0.47552836 -0.14052063
v 0.63351136 0.36575788 -0.48556098
v 0.63351125 -0.365758 -0.48556098
v 0.3591496 -0.20735519 -0.75746727
v 0.35914963 0.20735511 -0.75746727
v -1.4901161E-07 -0.9510566 -0.14052063
v -0.8236393 -0.47552815 0.5000576
v -0.8236393 -0.47552815 -0.14052063
v -0.58942294 -0.3403034 1.1927344
v -1.3139909E-07 -0.6806071 1.1927344
v -0.58942294 0.34030372 1.1927344
v -0.8236391 0.47552854 0.5000576
v 6.6354744E-09 0.680607 1.1927344
v 2.9802322E-07 0.95105666 0.5000576
v -0.8236391 0.47552854 -0.14052063
v -0 0.95105654 -0.14052063
v -0.63351136 -0.3657578 -0.48556098
v -0.63351125 0.36575815 -0.48556098
v -0.3591496 0.20735526 -0.75746727
v -0.3591497 -0.20735507 -0.75746727
v 0.63351125 -0.365758 -0.48556098
v -1.4901161E-07 -0.9510566 -0.14052063
v 0.8236391 -0.47552836 -0.14052063
v -1.3864272E-07 -0.7315159 -0.48556098
v -0.8236393 -0.47552815 -0.14052063
v -0.63351136 -0.3657578 -0.48556098
v -0.3591497 -0.20735507 -0.75746727
v -7.7876415E-08 -0.41471028 -0.75746727
v 0.3591496 -0.20735519 -0.75746727
v -0.3591496 0.20735526 -0.75746727
v 6.2313728E-09 0.41471028 -0.75746727
v 0.35914963 0.20735511 -0.75746727
v -0.63351125 0.36575815 -0.48556098
v 9.7167145E-09 0.7315158 -0.48556098
v 0.63351136 0.36575788 -0.48556098
v 0.82363915 0.47552824 -0.14052063
v -0 0.95105654 -0.14052063
v -0.8236391 0.47552854 -0.14052063
v -1.3139909E-07 -0.6806071 1.1927344
v -0.58942294 -0.3403034 1.1927344
v -0.21512026 -0.12419965 1.5602038
v -4.65931E-08 -0.2483994 1.5602038
v 0.58942294 -0.3403036 1.1927344
v -0.21512015 0.12419977 1.5602038
v -0.58942294 0.34030372 1.1927344
v 3.785022E-09 0.24839939 1.5602038
v 6.6354744E-09 0.680607 1.1927344
v 0.21512018 -0.12419973 1.5602038
v 0.58942306 0.34030348 1.1927344
v 0.21512023 0.12419971 1.5602038
vt 0.79052734 0.3515625
vt 0.7475586 0.4025879
vt 0.7714844 0.40014648
vt 0.75683594 0.35498047
vt 0.7895508 0.31152344
vt 0.69970703 0.4025879
vt 0.7558594 0.31469727
vt 0.6899414 0.35498047
vt 0.67578125 0.40014648
vt 0.63964844 0.34057617
vt 0.6899414 0.30981445
vt 0.7495117 0.2849121
vt 0.6977539 0.2849121
vt 0.7089844 0.26464844
vt 0.73828125 0.26464844
vt 0.63964844 0.3125
vt 0.5917969 0.35498047
vt 0.5917969 0.30981445
vt 0.58251953 0.4025879
vt 0.6064453 0.40014648
vt 0.53466797 0.4025879
vt 0.52490234 0.35498047
vt 0.5107422 0.40014648
vt 0.49145508 0.3515625
vt 0.52490234 0.30981445
vt 0.49145508 0.30664062
vt 0.5839844 0.2849121
vt 0.53271484 0.2849121
vt 0.5439453 0.26464844
vt 0.5732422 0.26464844
vt 0.5444336 0.45654297
vt 0.5986328 0.47509766
vt 0.5444336 0.4411621
vt 0.58496094 0.48291016
vt 0.6020508 0.53808594
vt 0.5888672 0.53027344
vt 0.56933594 0.51904297
vt 0.56591797 0.49414062
vt 0.5444336 0.4790039
vt 0.5341797 0.53759766
vt 0.5151367 0.5234375
vt 0.51171875 0.49658203
vt 0.5341797 0.5600586
vt 0.49609375 0.5341797
vt 0.49267578 0.48535156
vt 0.47924805 0.47753906
vt 0.48266602 0.5419922
vt 0.5341797 0.5756836
vt 0.67041016 0.43579102
vt 0.62939453 0.4597168
vt 0.65527344 0.47509766
vt 0.67041016 0.4663086
vt 0.71191406 0.4597168
vt 0.65527344 0.49243164
vt 0.62939453 0.5078125
vt 0.67041016 0.50146484
vt 0.67041016 0.5317383
vt 0.68603516 0.47509766
vt 0.71191406 0.5078125
vt 0.68603516 0.49243164
vn -0 0.984375 0.1751709
vn 0.72558594 0.4189453 0.54589844
vn -0 0.8378906 0.54589844
vn 0.85253906 0.4921875 0.1751709
vn -0 0.9663086 -0.25830078
vn 0.72558594 -0.4189453 0.54589844
vn 0.8364258 0.4831543 -0.25830078
vn 0.85253906 -0.4921875 0.1751709
vn -0 -0.8378906 0.54589844
vn -0 -0.984375 0.1751709
vn 0.8364258 -0.4831543 -0.25830078
vn 0.67089844 0.38745117 -0.6323242
vn 0.67089844 -0.38745117 -0.6323242
vn 0.38085938 -0.2199707 -0.8979492
vn 0.38085938 0.2199707 -0.8979492
vn -0 -0.9663086 -0.25830078
vn -0.85253906 -0.4921875 0.1751709
vn -0.8364258 -0.4831543 -0.25830078
vn -0.72558594 -0.4189453 0.54589844
vn -0 -0.8378906 0.54589844
vn -0.72558594 0.4189453 0.54589844
vn -0.85253906 0.4921875 0.1751709
vn -0 0.8378906 0.54589844
vn -0 0.984375 0.1751709
vn -0.8364258 0.4831543 -0.25830078
vn -0 0.9663086 -0.25830078
vn -0.67089844 -0.38745117 -0.6323242
vn -0.67089844 0.38745117 -0.6323242
vn -0.38085938 0.2199707 -0.8979492
vn -0.38085938 -0.2199707 -0.8979492
vn 0.67089844 -0.38745117 -0.6323242
vn -0 -0.9663086 -0.25830078
vn 0.8364258 -0.4831543 -0.25830078
vn -0 -0.77490234 -0.6323242
vn -0.8364258 -0.4831543 -0.25830078
vn -0.67089844 -0.38745117 -0.6323242
vn -0.38085938 -0.2199707 -0.8979492
vn -0 -0.4399414 -0.8979492
vn 0.38085938 -0.2199707 -0.8979492
vn -0.38085938 0.2199707 -0.8979492
vn -0 0.4399414 -0.8979492
vn 0.38085938 0.2199707 -0.8979492
vn -0.67089844 0.38745117 -0.6323242
vn -0 0.77490234 -0.6323242
vn 0.67089844 0.38745117 -0.6323242
vn 0.8364258 0.4831543 -0.25830078
vn -0 0.9663086 -0.25830078
vn -0.8364258 0.4831543 -0.25830078
vn -0 -0.8378906 0.54589844
vn -0.72558594 -0.4189453 0.54589844
vn -0.3786621 -0.21862793 0.89941406
vn -0 -0.43725586 0.89941406
vn 0.72558594 -0.4189453 0.54589844
vn -0.3786621 0.21862793 0.89941406
vn -0.72558594 0.4189453 0.54589844
vn -0 0.43725586 0.89941406
vn -0 0.8378906 0.54589844
vn 0.3786621 -0.21862793 0.89941406
vn 0.72558594 0.4189453 0.54589844
vn 0.3786621 0.21862793 0.89941406
g Sphere.004_0
f 3/3/3 2/2/2 1/1/1
f 2/2/2 4/4/4 1/1/1
f 1/1/1 4/4/4 5/5/5
f 2/2/2 6/6/6 4/4/4
f 4/4/4 7/7/7 5/5/5
f 6/6/6 8/8/8 4/4/4
f 4/4/4 8/8/8 7/7/7
f 6/6/6 9/9/9 8/8/8
f 9/9/9 10/10/10 8/8/8
f 8/8/8 11/11/11 7/7/7
f 8/8/8 10/10/10 11/11/11
f 7/7/7 11/11/11 12/12/12
f 11/11/11 13/13/13 12/12/12
f 12/12/12 13/13/13 14/14/14
f 15/15/15 12/12/12 14/14/14
f 10/10/10 16/16/16 11/11/11
f 10/10/10 17/17/17 16/16/16
f 17/17/17 18/18/18 16/16/16
f 19/19/19 17/17/17 10/10/10
f 20/20/20 19/19/19 10/10/10
f 19/19/19 21/21/21 17/17/17
f 21/21/21 22/22/22 17/17/17
f 17/17/17 22/22/22 18/18/18
f 21/21/21 23/23/23 22/22/22
f 23/23/23 24/24/24 22/22/22
f 22/22/22 25/25/25 18/18/18
f 22/22/22 24/24/24 25/25/25
f 24/24/24 26/26/26 25/25/25
f 18/18/18 25/25/25 27/27/27
f 25/25/25 28/28/28 27/27/27
f 27/27/27 28/28/28 29/29/29
f 30/30/30 27/27/27 29/29/29
f 33/33/33 32/32/32 31/31/31
f 32/32/32 34/34/34 31/31/31
f 32/32/32 35/35/35 34/34/34
f 35/35/35 36/36/36 34/34/34
f 34/34/34 36/36/36 37/37/37
f 31/31/31 34/34/34 38/38/38
f 38/38/38 34/34/34 37/37/37
f 39/39/39 31/31/31 38/38/38
f 38/38/38 37/37/37 40/40/40
f 39/39/39 38/38/38 41/41/41
f 38/38/38 40/40/40 41/41/41
f 41/41/41 42/42/42 39/39/39
f 40/40/40 43/43/43 41/41/41
f 41/41/41 44/44/44 42/42/42
f 43/43/43 44/44/44 41/41/41
f 44/44/44 45/45/45 42/42/42
f 46/46/46 45/45/45 44/44/44
f 47/47/47 46/46/46 44/44/44
f 47/47/47 44/44/44 43/43/43
f 48/48/48 47/47/47 43/43/43
f 51/51/51 50/50/50 49/49/49
f 52/52/52 51/51/51 49/49/49
f 52/52/52 49/49/49 53/53/53
f 51/51/51 54/54/54 50/50/50
f 54/54/54 51/51/51 52/52/52
f 54/54/54 55/55/55 50/50/50
f 54/54/54 56/56/56 55/55/55
f 56/56/56 54/54/54 52/52/52
f 56/56/56 57/57/57 55/55/55
f 58/58/58 52/52/52 53/53/53
f 56/56/56 52/52/52 58/58/58
f 58/58/58 53/53/53 59/59/59
f 60/60/60 59/59/59 57/57/57
f 56/56/56 60/60/60 57/57/57
f 60/60/60 58/58/58 59/59/59
f 58/58/58 60/60/60 56/56/56
