g Sphere.002
v 2.9802322E-07 0.95105666 0.5000576
v 0.58942306 0.34030348 1.1927344
v 6.6354744E-09 0.680607 1.1927344
v 0.82363915 0.47552824 0.5000576
v -0 0.95105654 -0.14052063
v 0.58942294 -0.3403036 1.1927344
v 0.82363915 0.47552824 -0.14052063
v 0.8236391 -0.47552836 0.5000576
v -1.3139909E-07 -0.6806071 1.1927344
v -1.4901161E-07 -0.9510566 0.5000576
v 0.8236391 -0.47552836 -0.14052063
v 0.63351136 0.36575788 -0.48556098
v 0.63351125 -0.365758 -0.48556098
v 0.3591496 -0.20735519 -0.75746727
v 0.35914963 0.20735511 -0.75746727
v -1.4901161E-07 -0.9510566 -0.14052063
v -0.8236393 -0.47552815 0.5000576
v -0.8236393 -0.47552815 -0.14052063
v -0.58942294 -0.3403034 1.1927344
v -1.3139909E-07 -0.6806071 1.1927344
v -0.58942294 0.34030372 1.1927344
v -0.8236391 0.47552854 0.5000576
v 6.6354744E-09 0.680607 1.1927344
v 2.9802322E-07 0.95105666 0.5000576
v -0.8236391 0.47552854 -0.14052063
v -0 0.95105654 -0.14052063
v -0.63351136 -0.3657578 -0.48556098
v -0.63351125 0.36575815 -0.48556098
v -0.3591496 0.20735526 -0.75746727
v -0.3591497 -0.20735507 -0.75746727
v 0.63351125 -0.365758 -0.48556098
v -1.4901161E-07 -0.9510566 -0.14052063
v 0.8236391 -0.47552836 -0.14052063
v -1.3864272E-07 -0.7315159 -0.48556098
v -0.8236393 -0.47552815 -0.14052063
v -0.63351136 -0.3657578 -0.48556098
v -0.3591497 -0.20735507 -0.75746727
v -7.7876415E-08 -0.41471028 -0.75746727
v 0.3591496 -0.20735519 -0.75746727
v -0.3591496 0.20735526 -0.75746727
v 6.2313728E-09 0.41471028 -0.75746727
v 0.35914963 0.20735511 -0.75746727
v -0.63351125 0.36575815 -0.48556098
v 9.7167145E-09 0.7315158 -0.48556098
v 0.63351136 0.36575788 -0.48556098
v 0.82363915 0.47552824 -0.14052063
v -0 0.95105654 -0.14052063
v -0.8236391 0.47552854 -0.14052063
v -1.3139909E-07 -0.6806071 1.1927344
v -0.58942294 -0.3403034 1.1927344
v -0.21512026 -0.12419965 1.5602038
v -4.65931E-08 -0.2483994 1.5602038
v 0.58942294 -0.3403036 1.1927344
v -0.21512015 0.12419977 1.5602038
v -0.58942294 0.34030372 1.1927344
v 3.785022E-09 0.24839939 1.5602038
v 6.6354744E-09 0.680607 1.1927344
v 0.21512018 -0.12419973 1.5602038
v 0.58942306 0.34030348 1.1927344
v 0.21512023 0.12419971 1.5602038
vt 0.3671875 0.35253906
vt 0.3161621 0.41308594
vt 0.34448242 0.41015625
vt 0.32739258 0.3564453
vt 0.3671875 0.2993164
vt 0.25952148 0.41308594
vt 0.32739258 0.30322266
vt 0.24816895 0.3564453
vt 0.2310791 0.41015625
vt 0.20422363 0.35253906
vt 0.24816895 0.30322266
vt 0.31835938 0.27368164
vt 0.25732422 0.27368164
vt 0.2705078 0.24963379
vt 0.30517578 0.24963379
vt 0.20422363 0.2993164
vt 0.16027832 0.3564453
vt 0.16027832 0.30322266
vt 0.14904785 0.41308594
vt 0.17736816 0.41015625
vt 0.092285156 0.41308594
vt 0.08099365 0.3564453
vt 0.06390381 0.41015625
vt 0.04135132 0.35253906
vt 0.08099365 0.30322266
vt 0.04135132 0.2993164
vt 0.15112305 0.27368164
vt 0.090148926 0.27368164
vt 0.10333252 0.24963379
vt 0.13793945 0.24963379
vt 0.10498047 0.4477539
vt 0.17370605 0.46899414
vt 0.10498047 0.42944336
vt 0.15783691 0.47827148
vt 0.17553711 0.5463867
vt 0.15966797 0.5371094
vt 0.13671875 0.5239258
vt 0.1348877 0.49145508
vt 0.10498047 0.4741211
vt 0.10437012 0.54345703
vt 0.07501221 0.5258789
vt 0.07501221 0.49145508
vt 0.10437012 0.5698242
vt 0.05215454 0.5390625
vt 0.05215454 0.47827148
vt 0.036315918 0.46899414
vt 0.036315918 0.54833984
vt 0.10437012 0.5878906
vt 0.23510742 0.42700195
vt 0.18591309 0.45532227
vt 0.21716309 0.47338867
vt 0.23510742 0.46313477
vt 0.2841797 0.45532227
vt 0.21716309 0.49414062
vt 0.18591309 0.51220703
vt 0.23510742 0.50439453
vt 0.23510742 0.54052734
vt 0.2529297 0.47338867
vt 0.2841797 0.51220703
vt 0.2529297 0.49414062
vn -0 0.984375 0.1751709
vn 0.72558594 0.4189453 0.54589844
vn -0 0.8378906 0.54589844
vn 0.85253906 0.4921875 0.1751709
vn -0 0.9663086 -0.25830078
vn 0.72558594 -0.4189453 0.54589844
vn 0.8364258 0.4831543 -0.25830078
vn 0.85253906 -0.4921875 0.1751709
vn -0 -0.8378906 0.54589844
vn -0 -0.984375 0.1751709
vn 0.8364258 -0.4831543 -0.25830078
vn 0.67089844 0.38745117 -0.6323242
vn 0.67089844 -0.38745117 -0.6323242
vn 0.38085938 -0.2199707 -0.8979492
vn 0.38085938 0.2199707 -0.8979492
vn -0 -0.9663086 -0.25830078
vn -0.85253906 -0.4921875 0.1751709
vn -0.8364258 -0.4831543 -0.25830078
vn -0.72558594 -0.4189453 0.54589844
vn -0 -0.8378906 0.54589844
vn -0.72558594 0.4189453 0.54589844
vn -0.85253906 0.4921875 0.1751709
vn -0 0.8378906 0.54589844
vn -0 0.984375 0.1751709
vn -0.8364258 0.4831543 -0.25830078
vn -0 0.9663086 -0.25830078
vn -0.67089844 -0.38745117 -0.6323242
vn -0.67089844 0.38745117 -0.6323242
vn -0.38085938 0.2199707 -0.8979492
vn -0.38085938 -0.2199707 -0.8979492
vn 0.67089844 -0.38745117 -0.6323242
vn -0 -0.9663086 -0.25830078
vn 0.8364258 -0.4831543 -0.25830078
vn -0 -0.77490234 -0.6323242
vn -0.8364258 -0.4831543 -0.25830078
vn -0.67089844 -0.38745117 -0.6323242
vn -0.38085938 -0.2199707 -0.8979492
vn -0 -0.4399414 -0.8979492
vn 0.38085938 -0.2199707 -0.8979492
vn -0.38085938 0.2199707 -0.8979492
vn -0 0.4399414 -0.8979492
vn 0.38085938 0.2199707 -0.8979492
vn -0.67089844 0.38745117 -0.6323242
vn -0 0.77490234 -0.6323242
vn 0.67089844 0.38745117 -0.6323242
vn 0.8364258 0.4831543 -0.25830078
vn -0 0.9663086 -0.25830078
vn -0.8364258 0.4831543 -0.25830078
vn -0 -0.8378906 0.54589844
vn -0.72558594 -0.4189453 0.54589844
vn -0.3786621 -0.21862793 0.89941406
vn -0 -0.43725586 0.89941406
vn 0.72558594 -0.4189453 0.54589844
vn -0.3786621 0.21862793 0.89941406
vn -0.72558594 0.4189453 0.54589844
vn -0 0.43725586 0.89941406
vn -0 0.8378906 0.54589844
vn 0.3786621 -0.21862793 0.89941406
vn 0.72558594 0.4189453 0.54589844
vn 0.3786621 0.21862793 0.89941406
g Sphere.002_0
f 3/3/3 2/2/2 1/1/1
f 2/2/2 4/4/4 1/1/1
f 1/1/1 4/4/4 5/5/5
f 2/2/2 6/6/6 4/4/4
f 4/4/4 7/7/7 5/5/5
f 6/6/6 8/8/8 4/4/4
f 4/4/4 8/8/8 7/7/7
f 6/6/6 9/9/9 8/8/8
f 9/9/9 10/10/10 8/8/8
f 8/8/8 11/11/11 7/7/7
f 8/8/8 10/10/10 11/11/11
f 7/7/7 11/11/11 12/12/12
f 11/11/11 13/13/13 12/12/12
f 12/12/12 13/13/13 14/14/14
f 15/15/15 12/12/12 14/14/14
f 10/10/10 16/16/16 11/11/11
f 10/10/10 17/17/17 16/16/16
f 17/17/17 18/18/18 16/16/16
f 19/19/19 17/17/17 10/10/10
f 20/20/20 19/19/19 10/10/10
f 19/19/19 21/21/21 17/17/17
f 21/21/21 22/22/22 17/17/17
f 17/17/17 22/22/22 18/18/18
f 21/21/21 23/23/23 22/22/22
f 23/23/23 24/24/24 22/22/22
f 22/22/22 25/25/25 18/18/18
f 22/22/22 24/24/24 25/25/25
f 24/24/24 26/26/26 25/25/25
f 18/18/18 25/25/25 27/27/27
f 25/25/25 28/28/28 27/27/27
f 27/27/27 28/28/28 29/29/29
f 30/30/30 27/27/27 29/29/29
f 33/33/33 32/32/32 31/31/31
f 32/32/32 34/34/34 31/31/31
f 32/32/32 35/35/35 34/34/34
f 35/35/35 36/36/36 34/34/34
f 34/34/34 36/36/36 37/37/37
f 31/31/31 34/34/34 38/38/38
f 38/38/38 34/34/34 37/37/37
f 39/39/39 31/31/31 38/38/38
f 38/38/38 37/37/37 40/40/40
f 39/39/39 38/38/38 41/41/41
f 38/38/38 40/40/40 41/41/41
f 41/41/41 42/42/42 39/39/39
f 40/40/40 43/43/43 41/41/41
f 41/41/41 44/44/44 42/42/42
f 43/43/43 44/44/44 41/41/41
f 44/44/44 45/45/45 42/42/42
f 46/46/46 45/45/45 44/44/44
f 47/47/47 46/46/46 44/44/44
f 47/47/47 44/44/44 43/43/43
f 48/48/48 47/47/47 43/43/43
f 51/51/51 50/50/50 49/49/49
f 52/52/52 51/51/51 49/49/49
f 52/52/52 49/49/49 53/53/53
f 51/51/51 54/54/54 50/50/50
f 54/54/54 51/51/51 52/52/52
f 54/54/54 55/55/55 50/50/50
f 54/54/54 56/56/56 55/55/55
f 56/56/56 54/54/54 52/52/52
f 56/56/56 57/57/57 55/55/55
f 58/58/58 52/52/52 53/53/53
f 56/56/56 52/52/52 58/58/58
f 58/58/58 53/53/53 59/59/59
f 60/60/60 59/59/59 57/57/57
f 56/56/56 60/60/60 57/57/57
f 60/60/60 58/58/58 59/59/59
f 58/58/58 60/60/60 56/56/56
