g Stand
v -1.0476775E-10 0.92703366 -0.88005733
v 0.252811 0.81959313 -0.75707304
v -1.5894299E-09 0.8576983 -0.75707304
v 0.27324796 0.88584816 -0.88005733
v 7.981775E-10 0.9711785 -1.0068284
v 0.4831587 0.7086636 -0.75707304
v 0.2862599 0.9280317 -1.0068284
v 0.5222167 0.76595116 -0.88005733
v 0.6705755 0.5347661 -0.75707304
v 0.5470844 0.8024253 -1.0068284
v 0.72478396 0.577996 -0.88005733
v 0.79840875 0.31335238 -0.75707304
v 0.75929785 0.60551995 -1.0068284
v 0.86295116 0.33868346 -0.88005733
v 0.85529995 0.064095885 -0.75707304
v 0.90404457 0.35481137 -1.0068284
v 0.92444134 0.0692773 -0.88005733
v 0.8361939 -0.19085582 -0.75707304
v 0.96846277 0.072576255 -1.0068284
v 0.9037909 -0.20628439 -0.88005733
v 0.74278843 -0.4288492 -0.75707304
v 0.94682896 -0.21610756 -1.0068284
v 0.80283463 -0.4635168 -0.88005733
v 0.583383 -0.6287373 -0.75707304
v 0.8410653 -0.48558927 -1.0068284
v 0.6305431 -0.67956364 -0.88005733
v 0.37214133 -0.7727594 -0.75707304
v 0.6605692 -0.71192414 -1.0068284
v 0.4022248 -0.83522844 -0.88005733
v 0.1278333 -0.8481184 -0.75707304
v 0.42137858 -0.8750016 -1.0068284
v 0.13816722 -0.9166793 -0.88005733
v -0.1278333 -0.8481184 -0.75707304
v 0.14474666 -0.9603312 -1.0068284
v -0.13816722 -0.9166793 -0.88005733
v -0.37214133 -0.7727594 -0.75707304
v -0.14474665 -0.9603312 -1.0068284
v -0.4022248 -0.83522844 -0.88005733
v -0.583383 -0.6287373 -0.75707304
v -0.42137858 -0.8750016 -1.0068284
v -0.6305431 -0.67956364 -0.88005733
v -0.74278843 -0.4288492 -0.75707304
v -0.6605692 -0.71192414 -1.0068284
v -0.80283463 -0.4635168 -0.88005733
v -0.8361939 -0.19085582 -0.75707304
v -0.8410653 -0.48558927 -1.0068284
v -0.9037909 -0.20628439 -0.88005733
v -0.85529995 0.064095885 -0.75707304
v -0.94682896 -0.21610756 -1.0068284
v -0.92444134 0.0692773 -0.88005733
v -0.79840875 0.31335238 -0.75707304
v -0.96846277 0.072576255 -1.0068284
v -0.86295116 0.33868346 -0.88005733
v -0.6705755 0.5347661 -0.75707304
v -0.90404457 0.35481137 -1.0068284
v -0.72478396 0.577996 -0.88005733
v -0.4831587 0.7086636 -0.75707304
v -0.75929785 0.60551995 -1.0068284
v -0.5222167 0.76595116 -0.88005733
v -0.252811 0.81959313 -0.75707304
v -0.5470844 0.8024253 -1.0068284
v -0.273248 0.88584816 -0.88005733
v -1.5894299E-09 0.8576983 -0.75707304
v -0.2862599 0.9280317 -1.0068284
v -1.0476775E-10 0.92703366 -0.88005733
v 7.981775E-10 0.9711785 -1.0068284
v 0.94682896 -0.21610756 -1.0068284
v 0.96846277 0.072576255 -1.0068284
v 0.90404457 0.35481137 -1.0068284
v 0.8410653 -0.48558927 -1.0068284
v 0.75929785 0.60551995 -1.0068284
v 0.6605692 -0.71192414 -1.0068284
v 0.5470844 0.8024253 -1.0068284
v 0.42137858 -0.8750016 -1.0068284
v 0.2862599 0.9280317 -1.0068284
v 0.14474666 -0.9603312 -1.0068284
v 7.981775E-10 0.9711785 -1.0068284
v -0.14474665 -0.9603312 -1.0068284
v -0.2862599 0.9280317 -1.0068284
v -0.42137858 -0.8750016 -1.0068284
v -0.5470844 0.8024253 -1.0068284
v -0.6605692 -0.71192414 -1.0068284
v -0.75929785 0.60551995 -1.0068284
v -0.8410653 -0.48558927 -1.0068284
v -0.90404457 0.35481137 -1.0068284
v -0.94682896 -0.21610756 -1.0068284
v -0.96846277 0.072576255 -1.0068284
v 0.252811 0.81959313 -0.75707304
v -1.5256125E-08 0.12628126 -0.6733045
v -1.5894299E-09 0.8576983 -0.75707304
v 0.037222043 0.120670915 -0.6733045
v 0.4831587 0.7086636 -0.75707304
v 0.07113677 0.10433847 -0.6733045
v 0.6705755 0.5347661 -0.75707304
v 0.09873068 0.07873508 -0.6733045
v 0.79840875 0.31335238 -0.75707304
v 0.11755192 0.046135724 -0.6733045
v 0.85529995 0.064095885 -0.75707304
v 0.12592816 0.00943701 -0.6733045
v 0.8361939 -0.19085582 -0.75707304
v 0.12311512 -0.028100237 -0.6733045
v 0.74278843 -0.4288492 -0.75707304
v 0.10936278 -0.06314063 -0.6733045
v 0.583383 -0.6287373 -0.75707304
v 0.085893065 -0.09257072 -0.6733045
v 0.37214133 -0.7727594 -0.75707304
v 0.05479139 -0.11377549 -0.6733045
v 0.1278333 -0.8481184 -0.75707304
v 0.018821232 -0.12487078 -0.6733045
v -0.1278333 -0.8481184 -0.75707304
v -0.018821262 -0.12487078 -0.6733045
v -0.37214133 -0.7727594 -0.75707304
v -0.05479139 -0.11377549 -0.6733045
v -0.583383 -0.6287373 -0.75707304
v -0.085893095 -0.09257072 -0.6733045
v -0.74278843 -0.4288492 -0.75707304
v -0.10936278 -0.06314063 -0.6733045
v -0.8361939 -0.19085582 -0.75707304
v -0.12311512 -0.028100237 -0.6733045
v -0.85529995 0.064095885 -0.75707304
v -0.12592816 0.00943701 -0.6733045
v -0.79840875 0.31335238 -0.75707304
v -0.11755192 0.046135724 -0.6733045
v -0.6705755 0.5347661 -0.75707304
v -0.09873068 0.07873508 -0.6733045
v -0.4831587 0.7086636 -0.75707304
v -0.07113677 0.10433847 -0.6733045
v -0.252811 0.81959313 -0.75707304
v -0.037222072 0.120670915 -0.6733045
v -1.5894299E-09 0.8576983 -0.75707304
v -1.5256125E-08 0.12628126 -0.6733045
v 0.11755198 0.046135724 -0.4334469
v 0.12592822 0.00943701 -0.4334469
v 0.12311518 -0.028100237 -0.4334469
v 0.10936284 -0.06314063 -0.4334469
v 0.09873074 0.07873508 -0.4334469
v 0.085893124 -0.09257072 -0.4334469
v 0.07113683 0.10433847 -0.4334469
v 0.05479145 -0.11377549 -0.4334469
v 0.037222102 0.120670915 -0.4334469
v 0.018821292 -0.12487078 -0.4334469
v 4.515529E-08 0.12628126 -0.4334469
v -0.018821202 -0.12487078 -0.4334469
v -0.037222013 0.120670915 -0.4334469
v -0.05479133 -0.11377549 -0.4334469
v -0.07113671 0.10433847 -0.4334469
v -0.085893035 -0.09257072 -0.4334469
v -0.09873062 0.07873508 -0.4334469
v -0.10936272 -0.06314063 -0.4334469
v -0.11755186 0.046135724 -0.4334469
v -0.12311506 -0.028100237 -0.4334469
v -0.1259281 0.00943701 -0.4334469
v 0.037222043 0.120670915 -0.6733045
v 4.515529E-08 0.12628126 -0.4334469
v -1.5256125E-08 0.12628126 -0.6733045
v 0.037222102 0.120670915 -0.4334469
v 0.07113677 0.10433847 -0.6733045
v 0.07113683 0.10433847 -0.4334469
v 0.09873068 0.07873508 -0.6733045
v 0.09873074 0.07873508 -0.4334469
v 0.11755192 0.046135724 -0.6733045
v 0.11755198 0.046135724 -0.4334469
v 0.12592816 0.00943701 -0.6733045
v 0.12592822 0.00943701 -0.4334469
v 0.12311512 -0.028100237 -0.6733045
v 0.12311518 -0.028100237 -0.4334469
v 0.10936278 -0.06314063 -0.6733045
v 0.10936284 -0.06314063 -0.4334469
v 0.085893065 -0.09257072 -0.6733045
v 0.085893124 -0.09257072 -0.4334469
v 0.05479139 -0.11377549 -0.6733045
v 0.05479145 -0.11377549 -0.4334469
v 0.018821232 -0.12487078 -0.6733045
v 0.018821292 -0.12487078 -0.4334469
v -0.018821262 -0.12487078 -0.6733045
v -0.018821202 -0.12487078 -0.4334469
v -0.05479139 -0.11377549 -0.6733045
v -0.05479133 -0.11377549 -0.4334469
v -0.085893095 -0.09257072 -0.6733045
v -0.085893035 -0.09257072 -0.4334469
v -0.10936278 -0.06314063 -0.6733045
v -0.10936272 -0.06314063 -0.4334469
v -0.12311512 -0.028100237 -0.6733045
v -0.12311506 -0.028100237 -0.4334469
v -0.12592816 0.00943701 -0.6733045
v -0.1259281 0.00943701 -0.4334469
v -0.11755192 0.046135724 -0.6733045
v -0.11755186 0.046135724 -0.4334469
v -0.09873068 0.07873508 -0.6733045
v -0.09873062 0.07873508 -0.4334469
v -0.07113677 0.10433847 -0.6733045
v -0.07113671 0.10433847 -0.4334469
v -0.037222072 0.120670915 -0.6733045
v -0.037222013 0.120670915 -0.4334469
v -1.5256125E-08 0.12628126 -0.6733045
v 4.515529E-08 0.12628126 -0.4334469
vt 1 0.75
vt 0.95214844 1
vt 1 1
vt 0.95214844 0.75
vt 1 0.5
vt 0.90478516 1
vt 0.95214844 0.5
vt 0.90478516 0.75
vt 0.8569336 1
vt 0.90478516 0.5
vt 0.8569336 0.75
vt 0.8095703 1
vt 0.8569336 0.5
vt 0.8095703 0.75
vt 0.76171875 1
vt 0.8095703 0.5
vt 0.76171875 0.75
vt 0.71435547 1
vt 0.76171875 0.5
vt 0.71435547 0.75
vt 0.6665039 1
vt 0.71435547 0.5
vt 0.6665039 0.75
vt 0.6191406 1
vt 0.6665039 0.5
vt 0.6191406 0.75
vt 0.57128906 1
vt 0.6191406 0.5
vt 0.57128906 0.75
vt 0.5239258 1
vt 0.57128906 0.5
vt 0.5239258 0.75
vt 0.47607422 1
vt 0.5239258 0.5
vt 0.47607422 0.75
vt 0.4284668 1
vt 0.47607422 0.5
vt 0.4284668 0.75
vt 0.38085938 1
vt 0.4284668 0.5
vt 0.38085938 0.75
vt 0.33325195 1
vt 0.38085938 0.5
vt 0.33325195 0.75
vt 0.28564453 1
vt 0.33325195 0.5
vt 0.28564453 0.75
vt 0.23803711 1
vt 0.28564453 0.5
vt 0.23803711 0.75
vt 0.19042969 1
vt 0.23803711 0.5
vt 0.19042969 0.75
vt 0.14282227 1
vt 0.19042969 0.5
vt 0.14282227 0.75
vt 0.095214844 1
vt 0.14282227 0.5
vt 0.095214844 0.75
vt 0.047607422 1
vt 0.095214844 0.5
vt 0.047607422 0.75
vt 5.9604645E-08 1
vt 0.047607422 0.5
vt 5.9604645E-08 0.75
vt 5.9604645E-08 0.5
vt 0.9838867 0.19665527
vt 0.9892578 0.26782227
vt 0.9736328 0.33764648
vt 0.9580078 0.13000488
vt 0.9375 0.3996582
vt 0.91308594 0.07409668
vt 0.8852539 0.4482422
vt 0.8540039 0.03375244
vt 0.8208008 0.47924805
vt 0.78564453 0.012680054
vt 0.75 0.48999023
vt 0.71435547 0.012680054
vt 0.6791992 0.47924805
vt 0.6459961 0.03375244
vt 0.6147461 0.4482422
vt 0.58691406 0.07409668
vt 0.5625 0.3996582
vt 0.5419922 0.13000488
vt 0.5263672 0.33764648
vt 0.5161133 0.19665527
vt 0.5107422 0.26782227
vt 0.95214844 1
vt 1 1
vt 1 1
vt 0.95214844 1
vt 0.90478516 1
vt 0.90478516 1
vt 0.8569336 1
vt 0.8569336 1
vt 0.8095703 1
vt 0.8095703 1
vt 0.76171875 1
vt 0.76171875 1
vt 0.71435547 1
vt 0.71435547 1
vt 0.6665039 1
vt 0.6665039 1
vt 0.6191406 1
vt 0.6191406 1
vt 0.57128906 1
vt 0.57128906 1
vt 0.5239258 1
vt 0.5239258 1
vt 0.47607422 1
vt 0.47607422 1
vt 0.4284668 1
vt 0.4284668 1
vt 0.38085938 1
vt 0.38085938 1
vt 0.33325195 1
vt 0.33325195 1
vt 0.28564453 1
vt 0.28564453 1
vt 0.23803711 1
vt 0.23803711 1
vt 0.19042969 1
vt 0.19042969 1
vt 0.14282227 1
vt 0.14282227 1
vt 0.095214844 1
vt 0.095214844 1
vt 0.047607422 1
vt 0.047607422 1
vt 5.9604645E-08 1
vt 5.9604645E-08 1
vt 0.47338867 0.33764648
vt 0.4892578 0.26782227
vt 0.48388672 0.19665527
vt 0.45776367 0.13000488
vt 0.43774414 0.3996582
vt 0.41333008 0.07409668
vt 0.3852539 0.4482422
vt 0.35424805 0.03375244
vt 0.32080078 0.47924805
vt 0.28588867 0.012680054
vt 0.25 0.48999023
vt 0.2142334 0.012680054
vt 0.17919922 0.47924805
vt 0.14587402 0.03375244
vt 0.11480713 0.4482422
vt 0.08673096 0.07409668
vt 0.062347412 0.3996582
vt 0.042144775 0.13000488
vt 0.02659607 0.33764648
vt 0.016021729 0.19665527
vt 0.010673523 0.26782227
vt 0.95214844 1
vt 1 1
vt 1 1
vt 0.95214844 1
vt 0.90478516 1
vt 0.90478516 1
vt 0.8569336 1
vt 0.8569336 1
vt 0.8095703 1
vt 0.8095703 1
vt 0.76171875 1
vt 0.76171875 1
vt 0.71435547 1
vt 0.71435547 1
vt 0.6665039 1
vt 0.6665039 1
vt 0.6191406 1
vt 0.6191406 1
vt 0.57128906 1
vt 0.57128906 1
vt 0.5239258 1
vt 0.5239258 1
vt 0.47607422 1
vt 0.47607422 1
vt 0.4284668 1
vt 0.4284668 1
vt 0.38085938 1
vt 0.38085938 1
vt 0.33325195 1
vt 0.33325195 1
vt 0.28564453 1
vt 0.28564453 1
vt 0.23803711 1
vt 0.23803711 1
vt 0.19042969 1
vt 0.19042969 1
vt 0.14282227 1
vt 0.14282227 1
vt 0.095214844 1
vt 0.095214844 1
vt 0.047607422 1
vt 0.047607422 1
vt 5.9604645E-08 1
vt 5.9604645E-08 1
vn -0 0.91259766 0.40844727
vn 0.25683594 0.83251953 0.49121094
vn -0 0.87109375 0.49121094
vn 0.26904297 0.8720703 0.40844727
vn -0 0.94433594 0.32885742
vn 0.49072266 0.71972656 0.49121094
vn 0.2783203 0.90234375 0.32885742
vn 0.51416016 0.75439453 0.40844727
vn 0.68115234 0.54296875 0.49121094
vn 0.53222656 0.78027344 0.32885742
vn 0.7138672 0.56933594 0.40844727
vn 0.81103516 0.31835938 0.49121094
vn 0.73828125 0.5888672 0.32885742
vn 0.8496094 0.3334961 0.40844727
vn 0.86865234 0.06512451 0.49121094
vn 0.87890625 0.3449707 0.32885742
vn 0.91015625 0.068237305 0.40844727
vn 0.8491211 -0.19384766 0.49121094
vn 0.94189453 0.07055664 0.32885742
vn 0.88964844 -0.203125 0.40844727
vn 0.75439453 -0.43554688 0.49121094
vn 0.92089844 -0.21020508 0.32885742
vn 0.79052734 -0.45629883 0.40844727
vn 0.59228516 -0.6386719 0.49121094
vn 0.8178711 -0.47216797 0.32885742
vn 0.62060547 -0.6689453 0.40844727
vn 0.3779297 -0.78466797 0.49121094
vn 0.6425781 -0.6923828 0.32885742
vn 0.3959961 -0.8222656 0.40844727
vn 0.12988281 -0.8613281 0.49121094
vn 0.40966797 -0.8510742 0.32885742
vn 0.13598633 -0.90234375 0.40844727
vn -0.12988281 -0.8613281 0.49121094
vn 0.14074707 -0.93359375 0.32885742
vn -0.13598633 -0.90234375 0.40844727
vn -0.3779297 -0.78466797 0.49121094
vn -0.14074707 -0.93359375 0.32885742
vn -0.3959961 -0.8222656 0.40844727
vn -0.59228516 -0.6386719 0.49121094
vn -0.40966797 -0.8510742 0.32885742
vn -0.62060547 -0.6689453 0.40844727
vn -0.75439453 -0.43554688 0.49121094
vn -0.6425781 -0.6923828 0.32885742
vn -0.79052734 -0.45629883 0.40844727
vn -0.8491211 -0.19384766 0.49121094
vn -0.8178711 -0.47216797 0.32885742
vn -0.88964844 -0.203125 0.40844727
vn -0.86865234 0.06512451 0.49121094
vn -0.92089844 -0.21008301 0.32885742
vn -0.91015625 0.068237305 0.40844727
vn -0.81103516 0.31835938 0.49121094
vn -0.94189453 0.07055664 0.32885742
vn -0.8496094 0.3334961 0.40844727
vn -0.68115234 0.54296875 0.49121094
vn -0.87890625 0.3449707 0.32885742
vn -0.7138672 0.56933594 0.40844727
vn -0.49072266 0.71972656 0.49121094
vn -0.73828125 0.5888672 0.32885742
vn -0.51416016 0.75439453 0.40844727
vn -0.25683594 0.83251953 0.49121094
vn -0.53222656 0.78027344 0.32885742
vn -0.26904297 0.8720703 0.40844727
vn -0 0.87109375 0.49121094
vn -0.2783203 0.90234375 0.32885742
vn -0 0.91259766 0.40844727
vn -0 0.94433594 0.32885742
vn -0 0 -1
vn -0 0 -1
vn -0 0 -1
vn -0 0 -1
vn -0 0 -1
vn -0 0 -1
vn -0 0 -1
vn -0 0 -1
vn -0 0 -1
vn -0 0 -1
vn -0 0 -1
vn -0 0 -1
vn -0 0 -1
vn -0 0 -1
vn -0 0 -1
vn -0 0 -1
vn -0 0 -1
vn -0 0 -1
vn -0 0 -1
vn -0 0 -1
vn -0 0 -1
vn 0.03353882 0.10870361 0.99365234
vn -0 0.11376953 0.99365234
vn -0 0.11376953 0.99365234
vn 0.03353882 0.10870361 0.99365234
vn 0.064086914 0.09399414 0.99365234
vn 0.064086914 0.09399414 0.99365234
vn 0.08898926 0.07092285 0.99365234
vn 0.08898926 0.07092285 0.99365234
vn 0.105895996 0.04156494 0.99365234
vn 0.105895996 0.04156494 0.99365234
vn 0.113464355 0.008506775 0.99365234
vn 0.113464355 0.008506775 0.99365234
vn 0.110961914 -0.025314331 0.99365234
vn 0.110961914 -0.025314331 0.99365234
vn 0.09851074 -0.056884766 0.99365234
vn 0.09851074 -0.056884766 0.99365234
vn 0.07739258 -0.08343506 0.99365234
vn 0.07739258 -0.08343506 0.99365234
vn 0.04937744 -0.10253906 0.99365234
vn 0.04937744 -0.10253906 0.99365234
vn 0.016952515 -0.11248779 0.99365234
vn 0.016952515 -0.11248779 0.99365234
vn -0.016952515 -0.11248779 0.99365234
vn -0.016952515 -0.11248779 0.99365234
vn -0.04937744 -0.10253906 0.99365234
vn -0.04937744 -0.10253906 0.99365234
vn -0.07739258 -0.08343506 0.99365234
vn -0.07739258 -0.08343506 0.99365234
vn -0.09851074 -0.056884766 0.99365234
vn -0.09851074 -0.056884766 0.99365234
vn -0.110961914 -0.025314331 0.99365234
vn -0.110961914 -0.025314331 0.99365234
vn -0.113464355 0.008506775 0.99365234
vn -0.113464355 0.008506775 0.99365234
vn -0.105895996 0.04156494 0.99365234
vn -0.105895996 0.04156494 0.99365234
vn -0.08898926 0.07092285 0.99365234
vn -0.08898926 0.07092285 0.99365234
vn -0.064086914 0.09399414 0.99365234
vn -0.064086914 0.09399414 0.99365234
vn -0.03353882 0.10870361 0.99365234
vn -0.03353882 0.10870361 0.99365234
vn -0 0.11376953 0.99365234
vn -0 0.11376953 0.99365234
vn -0 0 1
vn -0 0 1
vn -0 0 1
vn -0 0 1
vn -0 0 1
vn -0 0 1
vn -0 0 1
vn -0 0 1
vn -0 0 1
vn -0 0 1
vn -0 0 1
vn -0 0 1
vn -0 0 1
vn -0 0 1
vn -0 0 1
vn -0 0 1
vn -0 0 1
vn -0 0 1
vn -0 0 1
vn -0 0 1
vn -0 0 1
vn 0.29467773 0.9555664 0
vn -0 1 0
vn -0 1 0
vn 0.29467773 0.9555664 0
vn 0.56347656 0.8261719 0
vn 0.56347656 0.8261719 0
vn 0.7817383 0.62353516 0
vn 0.7817383 0.62353516 0
vn 0.93066406 0.36523438 0
vn 0.93066406 0.36523438 0
vn 0.9970703 0.07470703 0
vn 0.9970703 0.07470703 0
vn 0.97509766 -0.22253418 0
vn 0.97509766 -0.22253418 0
vn 0.86621094 -0.5 0
vn 0.86621094 -0.5 0
vn 0.6801758 -0.73291016 0
vn 0.6801758 -0.73291016 0
vn 0.4338379 -0.9008789 0
vn 0.4338379 -0.9008789 0
vn 0.14904785 -0.98876953 0
vn 0.14904785 -0.98876953 0
vn -0.14904785 -0.98876953 0
vn -0.14904785 -0.98876953 0
vn -0.4338379 -0.9008789 0
vn -0.4338379 -0.9008789 0
vn -0.6801758 -0.73291016 0
vn -0.6801758 -0.73291016 0
vn -0.86621094 -0.5 0
vn -0.86621094 -0.5 0
vn -0.97509766 -0.22253418 0
vn -0.97509766 -0.22253418 0
vn -0.9970703 0.07470703 0
vn -0.9970703 0.07470703 0
vn -0.93066406 0.36523438 0
vn -0.93066406 0.36523438 0
vn -0.7817383 0.62353516 0
vn -0.7817383 0.62353516 0
vn -0.56347656 0.8261719 0
vn -0.56347656 0.8261719 0
vn -0.29467773 0.9555664 0
vn -0.29467773 0.9555664 0
vn -0 1 0
vn -0 1 0
g Stand_0
f 3/3/3 2/2/2 1/1/1
f 2/2/2 4/4/4 1/1/1
f 1/1/1 4/4/4 5/5/5
f 2/2/2 6/6/6 4/4/4
f 4/4/4 7/7/7 5/5/5
f 6/6/6 8/8/8 4/4/4
f 4/4/4 8/8/8 7/7/7
f 6/6/6 9/9/9 8/8/8
f 8/8/8 10/10/10 7/7/7
f 9/9/9 11/11/11 8/8/8
f 8/8/8 11/11/11 10/10/10
f 9/9/9 12/12/12 11/11/11
f 11/11/11 13/13/13 10/10/10
f 12/12/12 14/14/14 11/11/11
f 11/11/11 14/14/14 13/13/13
f 12/12/12 15/15/15 14/14/14
f 14/14/14 16/16/16 13/13/13
f 15/15/15 17/17/17 14/14/14
f 14/14/14 17/17/17 16/16/16
f 15/15/15 18/18/18 17/17/17
f 17/17/17 19/19/19 16/16/16
f 18/18/18 20/20/20 17/17/17
f 17/17/17 20/20/20 19/19/19
f 18/18/18 21/21/21 20/20/20
f 20/20/20 22/22/22 19/19/19
f 21/21/21 23/23/23 20/20/20
f 20/20/20 23/23/23 22/22/22
f 21/21/21 24/24/24 23/23/23
f 23/23/23 25/25/25 22/22/22
f 24/24/24 26/26/26 23/23/23
f 23/23/23 26/26/26 25/25/25
f 24/24/24 27/27/27 26/26/26
f 26/26/26 28/28/28 25/25/25
f 27/27/27 29/29/29 26/26/26
f 26/26/26 29/29/29 28/28/28
f 27/27/27 30/30/30 29/29/29
f 29/29/29 31/31/31 28/28/28
f 30/30/30 32/32/32 29/29/29
f 29/29/29 32/32/32 31/31/31
f 30/30/30 33/33/33 32/32/32
f 32/32/32 34/34/34 31/31/31
f 33/33/33 35/35/35 32/32/32
f 32/32/32 35/35/35 34/34/34
f 33/33/33 36/36/36 35/35/35
f 35/35/35 37/37/37 34/34/34
f 36/36/36 38/38/38 35/35/35
f 35/35/35 38/38/38 37/37/37
f 36/36/36 39/39/39 38/38/38
f 38/38/38 40/40/40 37/37/37
f 39/39/39 41/41/41 38/38/38
f 38/38/38 41/41/41 40/40/40
f 39/39/39 42/42/42 41/41/41
f 41/41/41 43/43/43 40/40/40
f 42/42/42 44/44/44 41/41/41
f 41/41/41 44/44/44 43/43/43
f 42/42/42 45/45/45 44/44/44
f 44/44/44 46/46/46 43/43/43
f 45/45/45 47/47/47 44/44/44
f 44/44/44 47/47/47 46/46/46
f 45/45/45 48/48/48 47/47/47
f 47/47/47 49/49/49 46/46/46
f 48/48/48 50/50/50 47/47/47
f 47/47/47 50/50/50 49/49/49
f 48/48/48 51/51/51 50/50/50
f 50/50/50 52/52/52 49/49/49
f 51/51/51 53/53/53 50/50/50
f 50/50/50 53/53/53 52/52/52
f 51/51/51 54/54/54 53/53/53
f 53/53/53 55/55/55 52/52/52
f 54/54/54 56/56/56 53/53/53
f 53/53/53 56/56/56 55/55/55
f 54/54/54 57/57/57 56/56/56
f 56/56/56 58/58/58 55/55/55
f 57/57/57 59/59/59 56/56/56
f 56/56/56 59/59/59 58/58/58
f 57/57/57 60/60/60 59/59/59
f 59/59/59 61/61/61 58/58/58
f 60/60/60 62/62/62 59/59/59
f 59/59/59 62/62/62 61/61/61
f 60/60/60 63/63/63 62/62/62
f 62/62/62 64/64/64 61/61/61
f 63/63/63 65/65/65 62/62/62
f 62/62/62 65/65/65 64/64/64
f 65/65/65 66/66/66 64/64/64
f 69/69/69 68/68/68 67/67/67
f 67/67/67 70/70/70 69/69/69
f 70/70/70 71/71/71 69/69/69
f 70/70/70 72/72/72 71/71/71
f 72/72/72 73/73/73 71/71/71
f 72/72/72 74/74/74 73/73/73
f 74/74/74 75/75/75 73/73/73
f 74/74/74 76/76/76 75/75/75
f 76/76/76 77/77/77 75/75/75
f 76/76/76 78/78/78 77/77/77
f 78/78/78 79/79/79 77/77/77
f 78/78/78 80/80/80 79/79/79
f 80/80/80 81/81/81 79/79/79
f 80/80/80 82/82/82 81/81/81
f 82/82/82 83/83/83 81/81/81
f 82/82/82 84/84/84 83/83/83
f 84/84/84 85/85/85 83/83/83
f 84/84/84 86/86/86 85/85/85
f 86/86/86 87/87/87 85/85/85
f 90/90/90 89/89/89 88/88/88
f 89/89/89 91/91/91 88/88/88
f 88/88/88 91/91/91 92/92/92
f 91/91/91 93/93/93 92/92/92
f 92/92/92 93/93/93 94/94/94
f 93/93/93 95/95/95 94/94/94
f 94/94/94 95/95/95 96/96/96
f 95/95/95 97/97/97 96/96/96
f 96/96/96 97/97/97 98/98/98
f 97/97/97 99/99/99 98/98/98
f 98/98/98 99/99/99 100/100/100
f 99/99/99 101/101/101 100/100/100
f 100/100/100 101/101/101 102/102/102
f 101/101/101 103/103/103 102/102/102
f 102/102/102 103/103/103 104/104/104
f 103/103/103 105/105/105 104/104/104
f 104/104/104 105/105/105 106/106/106
f 105/105/105 107/107/107 106/106/106
f 106/106/106 107/107/107 108/108/108
f 107/107/107 109/109/109 108/108/108
f 108/108/108 109/109/109 110/110/110
f 109/109/109 111/111/111 110/110/110
f 110/110/110 111/111/111 112/112/112
f 111/111/111 113/113/113 112/112/112
f 112/112/112 113/113/113 114/114/114
f 113/113/113 115/115/115 114/114/114
f 114/114/114 115/115/115 116/116/116
f 115/115/115 117/117/117 116/116/116
f 116/116/116 117/117/117 118/118/118
f 117/117/117 119/119/119 118/118/118
f 118/118/118 119/119/119 120/120/120
f 119/119/119 121/121/121 120/120/120
f 120/120/120 121/121/121 122/122/122
f 121/121/121 123/123/123 122/122/122
f 122/122/122 123/123/123 124/124/124
f 123/123/123 125/125/125 124/124/124
f 124/124/124 125/125/125 126/126/126
f 125/125/125 127/127/127 126/126/126
f 126/126/126 127/127/127 128/128/128
f 127/127/127 129/129/129 128/128/128
f 128/128/128 129/129/129 130/130/130
f 129/129/129 131/131/131 130/130/130
g Stand_1
f 134/134/134 133/133/133 132/132/132
f 132/132/132 135/135/135 134/134/134
f 132/132/132 136/136/136 135/135/135
f 136/136/136 137/137/137 135/135/135
f 136/136/136 138/138/138 137/137/137
f 138/138/138 139/139/139 137/137/137
f 138/138/138 140/140/140 139/139/139
f 140/140/140 141/141/141 139/139/139
f 140/140/140 142/142/142 141/141/141
f 142/142/142 143/143/143 141/141/141
f 142/142/142 144/144/144 143/143/143
f 144/144/144 145/145/145 143/143/143
f 144/144/144 146/146/146 145/145/145
f 146/146/146 147/147/147 145/145/145
f 146/146/146 148/148/148 147/147/147
f 148/148/148 149/149/149 147/147/147
f 148/148/148 150/150/150 149/149/149
f 150/150/150 151/151/151 149/149/149
f 150/150/150 152/152/152 151/151/151
f 155/155/155 154/154/154 153/153/153
f 154/154/154 156/156/156 153/153/153
f 153/153/153 156/156/156 157/157/157
f 156/156/156 158/158/158 157/157/157
f 157/157/157 158/158/158 159/159/159
f 158/158/158 160/160/160 159/159/159
f 159/159/159 160/160/160 161/161/161
f 160/160/160 162/162/162 161/161/161
f 161/161/161 162/162/162 163/163/163
f 162/162/162 164/164/164 163/163/163
f 163/163/163 164/164/164 165/165/165
f 164/164/164 166/166/166 165/165/165
f 165/165/165 166/166/166 167/167/167
f 166/166/166 168/168/168 167/167/167
f 167/167/167 168/168/168 169/169/169
f 168/168/168 170/170/170 169/169/169
f 169/169/169 170/170/170 171/171/171
f 170/170/170 172/172/172 171/171/171
f 171/171/171 172/172/172 173/173/173
f 172/172/172 174/174/174 173/173/173
f 173/173/173 174/174/174 175/175/175
f 174/174/174 176/176/176 175/175/175
f 175/175/175 176/176/176 177/177/177
f 176/176/176 178/178/178 177/177/177
f 177/177/177 178/178/178 179/179/179
f 178/178/178 180/180/180 179/179/179
f 179/179/179 180/180/180 181/181/181
f 180/180/180 182/182/182 181/181/181
f 181/181/181 182/182/182 183/183/183
f 182/182/182 184/184/184 183/183/183
f 183/183/183 184/184/184 185/185/185
f 184/184/184 186/186/186 185/185/185
f 185/185/185 186/186/186 187/187/187
f 186/186/186 188/188/188 187/187/187
f 187/187/187 188/188/188 189/189/189
f 188/188/188 190/190/190 189/189/189
f 189/189/189 190/190/190 191/191/191
f 190/190/190 192/192/192 191/191/191
f 191/191/191 192/192/192 193/193/193
f 192/192/192 194/194/194 193/193/193
f 193/193/193 194/194/194 195/195/195
f 194/194/194 196/196/196 195/195/195
