g storage door
v -0.2829893 1.8212986 0.80866516
v -0.28298888 0.054452002 0.80866516
v -0.27397597 0.054452002 -1.0789387
v -0.2768734 1.6134272 -0.28624746
v -0.2739764 1.8212986 -1.0789387
v -0.27697593 1.6314284 -0.27063504
v -0.2767709 1.6314284 -0.30185986
v -0.27701843 1.6748872 -0.26416802
v -0.276976 1.7183461 -0.27063504
v -0.27687347 1.7363473 -0.28624746
v -0.27672842 1.6748872 -0.3083269
v -0.27677095 1.7183461 -0.30185986
v -0.0028152913 1.8755918 0.83146703
v 0.06823715 1.8755919 0.83151
v 0.06823806 0.00015869457 0.83151
v -0.0028143823 0.00015854836 0.83146703
v -0.28323215 1.8755918 0.83146703
v -0.2832312 0.00015854836 0.83146703
v -0.37448296 1.8755915 0.83141184
v -0.374482 0.00015832763 0.83141184
v 0.005321539 1.8207338 -1.0799757
v 0.07637376 1.8373511 -1.086941
v 0.07637399 0.038399756 -1.086941
v 0.0053213323 0.055016756 -1.0799757
v -0.2739398 1.8755918 -1.1017399
v -0.3651906 1.8755915 -1.1017951
v -0.36518964 0.00015832763 -1.1017951
v -0.27393883 0.00015854836 -1.1017399
v 0.0064770877 1.8755918 -1.1017399
v 0.0064779967 0.00015854836 -1.1017399
v 0.07752953 1.8755919 -1.1016968
v 0.077530436 0.00015869457 -1.1016968
v -0.7013223 1.6539676 -0.20128322
v -0.7013223 1.7234375 -0.20128322
v -0.7013223 1.7234375 -0.06070905
v -0.7013223 1.6539676 -0.06070905
v -0.5589731 1.7234375 -0.20128322
v -0.5589731 1.6539676 -0.20128322
v -0.5589731 1.6539676 -0.06070905
v -0.5589731 1.7234375 -0.06070905
v -0.7013223 1.6539676 -0.20128322
v -0.6173341 1.7234375 -0.22902785
v -0.7013223 1.7234375 -0.20128322
v -0.6173341 1.6539676 -0.22902785
v -0.22688842 1.7234375 -0.22902785
v -0.22688842 1.6539676 -0.22902785
v -0.12623382 1.6539676 -0.21638083
v -0.12623382 1.7234375 -0.21638083
v -0.7013223 1.7234375 -0.06070905
v -0.6190965 1.6539676 -0.03384076
v -0.7013223 1.6539676 -0.06070905
v -0.6190965 1.7234375 -0.03384076
v -0.24055648 1.6539676 -0.03384076
v -0.24055648 1.7234375 -0.03384076
v -0.13990188 1.7234375 -0.046487674
v -0.13990188 1.6539676 -0.046487674
v -0.5184419 1.7234375 -0.046487674
v -0.13990188 1.7234375 -0.046487674
v -0.24055648 1.7234375 -0.03384076
v -0.6190965 1.7234375 -0.03384076
v -0.5589731 1.7234375 -0.06070905
v -0.7013223 1.7234375 -0.06070905
v -0.7013223 1.7234375 -0.20128322
v -0.5589731 1.7234375 -0.20128322
v -0.5166795 1.7234375 -0.21638083
v -0.6173341 1.7234375 -0.22902785
v -0.12623382 1.7234375 -0.21638083
v -0.22688842 1.7234375 -0.22902785
v -0.5589731 1.6539676 -0.06070905
v -0.5184419 1.7234375 -0.046487674
v -0.5589731 1.7234375 -0.06070905
v -0.5184419 1.6539676 -0.046487674
v -0.13990188 1.7234375 -0.046487674
v -0.13990188 1.6539676 -0.046487674
v -0.6190965 1.6539676 -0.03384076
v -0.24055648 1.6539676 -0.03384076
v -0.13990188 1.6539676 -0.046487674
v -0.5184419 1.6539676 -0.046487674
v -0.7013223 1.6539676 -0.06070905
v -0.5589731 1.6539676 -0.06070905
v -0.5589731 1.6539676 -0.20128322
v -0.7013223 1.6539676 -0.20128322
v -0.6173341 1.6539676 -0.22902785
v -0.5166795 1.6539676 -0.21638083
v -0.22688842 1.6539676 -0.22902785
v -0.12623382 1.6539676 -0.21638083
v -0.5589731 1.7234375 -0.20128322
v -0.5166795 1.6539676 -0.21638083
v -0.5589731 1.6539676 -0.20128322
v -0.5166795 1.7234375 -0.21638083
v -0.12623382 1.6539676 -0.21638083
v -0.12623382 1.7234375 -0.21638083
v -0.2768734 1.6134272 -0.28624746
v 0.00140796 1.6314284 -0.30185992
v 0.00130544 1.6134272 -0.28624746
v -0.2767709 1.6314284 -0.30185986
v 0.0014504283 1.6748872 -0.3083269
v -0.27672842 1.6748872 -0.3083269
v 0.0014079153 1.7183461 -0.30185992
v -0.27677095 1.7183461 -0.30185986
v 0.0013053506 1.7363473 -0.28624746
v -0.27687347 1.7363473 -0.28624746
v -0.27687347 1.7363473 -0.28624746
v 0.0012028306 1.7183461 -0.27063504
v 0.0013053506 1.7363473 -0.28624746
v -0.276976 1.7183461 -0.27063504
v 0.0011604219 1.6748872 -0.26416802
v -0.27701843 1.6748872 -0.26416802
v 0.0012028902 1.6314284 -0.27063504
v -0.27697593 1.6314284 -0.27063504
v 0.00130544 1.6134272 -0.28624746
v -0.2768734 1.6134272 -0.28624746
v -0.27397597 0.054452002 -1.0789387
v -0.36319464 0.03223449 -1.0878475
v -0.36319482 1.8435156 -1.0878475
v -0.2739764 1.8212986 -1.0789387
v -0.2829893 1.8212986 0.80866516
v -0.37220773 1.8435156 0.8174653
v -0.37220758 0.03223449 0.8174653
v -0.28298888 0.054452002 0.80866516
v -0.0038968837 0.055016756 0.79565334
v 0.06715577 0.038399756 0.8167542
v 0.06715555 1.8373511 0.8167542
v -0.003896677 1.8207338 0.79565334
v 0.0064770877 1.8755918 -1.1017399
v 0.07752953 1.8755919 -1.1016968
v 0.06823715 1.8755919 0.83151
v -0.0028152913 1.8755918 0.83146703
v -0.2739398 1.8755918 -1.1017399
v -0.28323215 1.8755918 0.83146703
v -0.3651906 1.8755915 -1.1017951
v -0.37448296 1.8755915 0.83141184
v 0.0053213323 0.055016756 -1.0799757
v 0.07637399 0.038399756 -1.086941
v 0.06715577 0.038399756 0.8167542
v -0.0038968837 0.055016756 0.79565334
v -0.003896677 1.8207338 0.79565334
v 0.06715555 1.8373511 0.8167542
v 0.07637376 1.8373511 -1.086941
v 0.005321539 1.8207338 -1.0799757
v -0.0028143823 0.00015854836 0.83146703
v 0.06823806 0.00015869457 0.83151
v 0.077530436 0.00015869457 -1.1016968
v 0.0064779967 0.00015854836 -1.1017399
v -0.2832312 0.00015854836 0.83146703
v -0.27393883 0.00015854836 -1.1017399
v -0.374482 0.00015832763 0.83141184
v -0.36518964 0.00015832763 -1.1017951
v -0.28298888 0.054452002 0.80866516
v -0.37220758 0.03223449 0.8174653
v -0.36319464 0.03223449 -1.0878475
v -0.27397597 0.054452002 -1.0789387
v -0.2739764 1.8212986 -1.0789387
v -0.36319482 1.8435156 -1.0878475
v -0.37220773 1.8435156 0.8174653
v -0.2829893 1.8212986 0.80866516
v 0.0014504283 1.6748872 -0.3083269
v 0.0014079153 1.7183461 -0.30185992
v 0.005321539 1.8207338 -1.0799757
v 0.00140796 1.6314284 -0.30185992
v 0.0013053506 1.7363473 -0.28624746
v 0.00130544 1.6134272 -0.28624746
v -0.003896677 1.8207338 0.79565334
v 0.0053213323 0.055016756 -1.0799757
v -0.0038968837 0.055016756 0.79565334
v 0.0012028306 1.7183461 -0.27063504
v 0.0012028902 1.6314284 -0.27063504
v 0.0011604219 1.6748872 -0.26416802
v -0.37220773 1.8435156 0.8174653
v -0.374482 0.00015832763 0.83141184
v -0.37220758 0.03223449 0.8174653
v -0.37448296 1.8755915 0.83141184
v -0.36518964 0.00015832763 -1.1017951
v -0.36319482 1.8435156 -1.0878475
v -0.36319464 0.03223449 -1.0878475
v -0.3651906 1.8755915 -1.1017951
v 0.06715577 0.038399756 0.8167542
v 0.06823715 1.8755919 0.83151
v 0.06715555 1.8373511 0.8167542
v 0.06823806 0.00015869457 0.83151
v 0.07752953 1.8755919 -1.1016968
v 0.07637399 0.038399756 -1.086941
v 0.07637376 1.8373511 -1.086941
v 0.077530436 0.00015869457 -1.1016968
vt 0.76693 0.2899052
vt 0.84719 0.2899052
vt 0.84719 0.2041589
vt 0.7763727 0.2401675
vt 0.7669301 0.20415878
vt 0.775555 0.24087667
vt 0.775555 0.2394582
vt 0.7735809 0.2411704
vt 0.7716067 0.24087667
vt 0.770789 0.2401675
vt 0.7735809 0.23916447
vt 0.7716067 0.2394582
vt 0.0106802285 0.7672148
vt 0.007452905 0.7672148
vt 0.007452905 0.8524072
vt 0.010680214 0.8524072
vt 0.023417324 0.7672148
vt 0.023417324 0.8524072
vt 0.027562082 0.7672148
vt 0.027562082 0.8524072
vt 0.9403545 0.5689187
vt 0.93712324 0.56816375
vt 0.93712324 0.6498821
vt 0.9403545 0.64912724
vt 0.046611488 0.7672148
vt 0.042467892 0.7672148
vt 0.042467892 0.8524072
vt 0.046611488 0.8524072
vt 0.05934459 0.7672148
vt 0.05934459 0.8524072
vt 0.06257099 0.7672148
vt 0.06257099 0.8524072
vt 0.24830401 0.4063228
vt 0.2451483 0.4063228
vt 0.2451483 0.41270837
vt 0.24830401 0.41270837
vt 0.3611952 0.18284664
vt 0.3580395 0.18284664
vt 0.3580395 0.18923226
vt 0.3611952 0.18923226
vt 0.080147624 0.97846067
vt 0.076991916 0.97468215
vt 0.076991916 0.97846067
vt 0.080147624 0.97468215
vt 0.076991916 0.9569528
vt 0.080147624 0.9569528
vt 0.080147624 0.9523663
vt 0.076991916 0.9523663
vt 0.7637424 0.97909343
vt 0.7605867 0.9753737
vt 0.7605867 0.97909343
vt 0.7637424 0.9753737
vt 0.7605867 0.95817965
vt 0.7637424 0.95817965
vt 0.7637424 0.9536006
vt 0.7605867 0.9536006
vt 0.59456956 0.15161613
vt 0.59456956 0.13442075
vt 0.59399503 0.13899304
vt 0.59399503 0.15618841
vt 0.59521556 0.15345727
vt 0.59521556 0.15992355
vt 0.60160124 0.15992355
vt 0.60160124 0.15345727
vt 0.60228705 0.15153606
vt 0.6028615 0.15610835
vt 0.60228705 0.13379988
vt 0.6028615 0.13837217
vt 0.86187065 0.067156225
vt 0.85871494 0.06529777
vt 0.85871494 0.067156225
vt 0.86187065 0.06529777
vt 0.85871494 0.048109077
vt 0.86187065 0.048109077
vt 0.61776733 0.13753498
vt 0.61776733 0.15473038
vt 0.61834186 0.15930265
vt 0.61834186 0.14210725
vt 0.61898786 0.13379985
vt 0.61898786 0.14026612
vt 0.62537354 0.14026612
vt 0.62537354 0.13379985
vt 0.6266338 0.13761503
vt 0.62605935 0.14218736
vt 0.6266338 0.15535122
vt 0.62605935 0.1599235
vt 0.82048565 0.06774631
vt 0.81732994 0.06581673
vt 0.81732994 0.06774631
vt 0.82048565 0.06581673
vt 0.81732994 0.048081897
vt 0.82048565 0.048081897
vt 0.9602933 0.53529704
vt 0.95947564 0.547946
vt 0.9602933 0.5479325
vt 0.95947564 0.5353105
vt 0.9575014 0.5479515
vt 0.9575014 0.5353161
vt 0.9555273 0.547946
vt 0.9555273 0.5353105
vt 0.95470953 0.5479325
vt 0.95470953 0.53529704
vt 0.9552603 0.66512674
vt 0.95607805 0.65248007
vt 0.9552603 0.6524952
vt 0.95607805 0.6651116
vt 0.95805216 0.6524738
vt 0.95805216 0.66510534
vt 0.9600264 0.65248007
vt 0.9600264 0.6651116
vt 0.96084404 0.6524952
vt 0.96084404 0.6651267
vt 0.90513825 0.08413545
vt 0.9010908 0.08312621
vt 0.9010908 0.16540462
vt 0.90513825 0.16439539
vt 0.9055383 0.569173
vt 0.90149826 0.5681639
vt 0.90149826 0.65044224
vt 0.9055383 0.649433
vt 0.095053494 0.93282676
vt 0.09830658 0.9335816
vt 0.09830658 0.85186327
vt 0.09505351 0.8526182
vt 0.8319381 0.41835582
vt 0.8351656 0.41836935
vt 0.8351656 0.3305514
vt 0.8319381 0.3305378
vt 0.81920016 0.41829455
vt 0.81920016 0.33047658
vt 0.8150551 0.41827714
vt 0.8150551 0.33045918
vt 0.9032203 0.5371325
vt 0.90644526 0.53746456
vt 0.90644526 0.45098716
vt 0.9032141 0.45193005
vt 0.9043975 0.77142465
vt 0.90762866 0.7723675
vt 0.90762866 0.6858901
vt 0.9044037 0.6862222
vt 0.82334006 0.083204865
vt 0.8201125 0.083218455
vt 0.8201125 0.17103642
vt 0.82334006 0.17102283
vt 0.836078 0.08314365
vt 0.836078 0.17096162
vt 0.8402231 0.08312625
vt 0.8402231 0.17094421
vt 0.59362656 0.8812752
vt 0.59767884 0.8816941
vt 0.59767884 0.79514325
vt 0.59362274 0.79552877
vt 0.61258465 0.8813086
vt 0.61664075 0.8816941
vt 0.61664075 0.7951433
vt 0.61258847 0.7955622
vt 0.8430914 0.48386687
vt 0.8450656 0.48479706
vt 0.8497166 0.44360474
vt 0.8411173 0.48479706
vt 0.8458833 0.48704326
vt 0.8402996 0.48704326
vt 0.8497166 0.55403024
vt 0.769508 0.44360474
vt 0.76950794 0.55403024
vt 0.8450656 0.4892891
vt 0.8411173 0.4892891
vt 0.8430914 0.4902193
vt 0.7569332 0.6553478
vt 0.8406687 0.6559819
vt 0.8392117 0.6553478
vt 0.75547624 0.6559819
vt 0.8406687 0.5681639
vt 0.7569332 0.568797
vt 0.8392117 0.568797
vt 0.75547624 0.5681639
vt 0.76232386 0.7730379
vt 0.84577924 0.773708
vt 0.8440422 0.7730379
vt 0.76058674 0.773708
vt 0.8457793 0.6858901
vt 0.76232386 0.68656063
vt 0.8440422 0.68656063
vt 0.76058674 0.6858901
vn -0.999987 0 -0.0050980267
vn -0.999987 0 -0.0050980267
vn -0.99998915 0 -0.004663561
vn -0.99998987 0 -0.0045132185
vn -0.99999297 0 -0.0037458385
vn -0.999987 0 -0.0050980267
vn -0.9999933 0 -0.003647229
vn -0.999987 0 -0.0050980267
vn -0.999987 0 -0.0050980267
vn -0.99998903 0 -0.004681571
vn -0.9999933 0 -0.003647229
vn -0.9999933 0 -0.003647229
vn -0.00030237527 0 1
vn -0.00060475036 0 0.9999999
vn -0.00060475036 0 0.9999999
vn -0.0003023751 0 1
vn -0.00030231607 0 1
vn -0.00030231636 0 1
vn -0.0006046324 0 0.9999999
vn -0.0006046324 0 0.9999999
vn 0.09756246 0 0.99522936
vn 0.09756246 0 0.99522936
vn 0.09756246 0 0.99522936
vn 0.09756246 0 0.99522936
vn 0.00030231607 0 -1
vn 0.0006046324 0 -0.9999999
vn 0.0006046324 0 -0.9999999
vn 0.00030231636 0 -1
vn 0.0003032699 0 -1
vn 0.0003032697 0 -1
vn 0.0006065396 0 -0.9999999
vn 0.0006065396 0 -0.9999999
vn -0.81045306 0 -0.58580357
vn -0.81045306 0 -0.58580357
vn -0.8095064 0 0.58711106
vn -0.8095064 0 0.58711106
vn 0.8173719 0 0.5761103
vn 0.8173719 0 0.5761103
vn 0.81580824 0 -0.5783224
vn 0.81580824 0 -0.5783224
vn -0.81045306 0 -0.58580357
vn -0.15885122 0 -0.98730254
vn -0.81045306 0 -0.58580357
vn -0.15885122 0 -0.98730254
vn 0.062455658 0 -0.9980477
vn 0.062455658 0 -0.9980477
vn 0.12466747 0 -0.9921985
vn 0.12466747 0 -0.9921985
vn -0.8095064 0 0.58711106
vn -0.15725724 0 0.98755765
vn -0.8095064 0 0.58711106
vn -0.15725724 0 0.98755765
vn 0.062455095 0 0.9980478
vn 0.062455095 0 0.9980478
vn 0.12466633 0 0.99219877
vn 0.12466633 0 0.99219877
vn -0 1 0
vn -0 1 0
vn -0 1 0
vn -0 1 0
vn -0 1 0
vn -0 1 0
vn -0 1 0
vn -0 1 0
vn -0 1 0
vn -0 1 0
vn -0 1 0
vn -0 1 0
vn 0.81580824 0 -0.5783224
vn 0.16792788 0 -0.9857993
vn 0.81580824 0 -0.5783224
vn 0.16792788 0 -0.9857993
vn -0 0 -1
vn -0 0 -1
vn -0 -1 0
vn -0 -1 0
vn -0 -1 0
vn -0 -1 0
vn -0 -1 0
vn -0 -1 0
vn -0 -1 0
vn -0 -1 0
vn -0 -1 0
vn -0 -1 0
vn -0 -1 0
vn -0 -1 0
vn 0.8173719 0 0.5761103
vn 0.17059776 0 0.9853408
vn 0.8173719 0 0.5761103
vn 0.17059776 0 0.9853408
vn -0 0 1
vn -0 0 1
vn -0 0.65520465 0.7554514
vn -0 0.41741583 0.9087156
vn -0 0.65520465 0.7554514
vn -0 0.41830328 0.90830743
vn -0 0 1
vn -0 0 1
vn -0 -0.41741535 0.9087159
vn -0 -0.41830316 0.90830755
vn -0 -0.6552046 0.7554514
vn -0 -0.6552046 0.7554514
vn -0 -0.6552024 -0.7554534
vn -0 -0.41830167 -0.90830815
vn -0 -0.6552024 -0.7554534
vn -0 -0.4174145 -0.9087162
vn -0 0 -1
vn -0 0 -1
vn -0 0.41830194 -0.908308
vn -0 0.41741437 -0.90871626
vn -0 0.65520245 -0.7554534
vn -0 0.65520245 -0.7554534
vn -0.09935948 0 0.99505156
vn -0.09935948 0 0.99505156
vn -0.09935948 0 0.99505156
vn -0.09935948 0 0.99505156
vn -0.09815915 0 -0.9951708
vn -0.09815915 0 -0.9951708
vn -0.09815915 0 -0.9951708
vn -0.09815915 0 -0.9951708
vn 0.2846869 0 -0.9586206
vn 0.9597438 0.010701674 -0.28067303
vn 0.9597441 -0.010694913 -0.28067213
vn 0.2846869 0 -0.9586206
vn -0 1 0
vn -0 1 0
vn -0 1 0
vn -0 1 0
vn -0 1 0
vn -0 1 0
vn -0 1 0
vn -0 1 0
vn 0.22761922 0.9737496 0.0011103802
vn 0.22761922 0.9737496 0.0011103802
vn 0.22761922 0.9737496 0.0011103802
vn 0.22761922 0.9737496 0.0011103802
vn 0.22762437 -0.9737483 0.0011104203
vn 0.22762437 -0.9737483 0.0011104203
vn 0.22762437 -0.9737483 0.0011104203
vn 0.22762437 -0.9737483 0.0011104203
vn -0 -1 0
vn -0 -1 0
vn -0 -1 0
vn -0 -1 0
vn -0 -1 0
vn -0 -1 0
vn -0 -1 0
vn -0 -1 0
vn -0.24164253 0.97036475 -0.0011484048
vn -0.24164253 0.97036475 -0.0011484048
vn -0.24164253 0.97036475 -0.0011484048
vn -0.24164253 0.97036475 -0.0011484048
vn -0.24163827 -0.97036576 -0.0011483944
vn -0.24163827 -0.97036576 -0.0011483944
vn -0.24163827 -0.97036576 -0.0011483944
vn -0.24163827 -0.97036576 -0.0011483944
vn 0.99998724 0 0.0050558406
vn 0.99998724 0 0.0050558406
vn 0.99998736 0 0.0050433753
vn 0.99998724 0 0.0050558406
vn 0.99998796 0 0.004924023
vn 0.99998784 0 0.0049454686
vn 0.9999882 0 0.0048709773
vn 0.99998784 0 0.004926417
vn 0.9999882 0 0.0048709773
vn 0.9999882 0 0.0048709773
vn 0.9999882 0 0.0048709773
vn 0.9999882 0 0.0048709773
vn -0.99502534 -0.028047245 -0.095592424
vn -0.99773526 0.04905944 -0.04601591
vn -0.9950256 0.028036421 -0.095592536
vn -0.9977344 -0.049077578 -0.04601644
vn -0.99822336 0.049082708 0.03377972
vn -0.99637574 -0.028027197 0.08031056
vn -0.9963761 0.028016372 0.08031064
vn -0.9982224 -0.04910088 0.03378021
vn 0.9597438 0.010701674 -0.28067303
vn 0.99965835 -0.022387777 -0.013491852
vn 0.9597441 -0.010694913 -0.28067213
vn 0.999658 0.02240146 -0.0134917945
vn 0.99950624 -0.022383379 0.022052914
vn 0.9987754 0.012051166 0.047982953
vn 0.99877554 -0.012043548 0.047982924
vn 0.9995059 0.022397058 0.02205284
g storage door_0
f 3/3/3 2/2/2 1/1/1
f 1/1/1 4/4/4 3/3/3
f 5/5/5 3/3/3 4/4/4
f 1/1/1 6/6/6 4/4/4
f 4/4/4 7/7/7 5/5/5
f 1/1/1 8/8/8 6/6/6
f 1/1/1 9/9/9 8/8/8
f 1/1/1 10/10/10 9/9/9
f 1/1/1 5/5/5 10/10/10
f 7/7/7 11/11/11 5/5/5
f 12/12/12 10/10/10 5/5/5
f 11/11/11 12/12/12 5/5/5
f 15/15/15 14/14/14 13/13/13
f 16/16/16 15/15/15 13/13/13
f 13/13/13 17/17/17 16/16/16
f 17/17/17 18/18/18 16/16/16
f 17/17/17 19/19/19 18/18/18
f 19/19/19 20/20/20 18/18/18
f 23/23/23 22/22/22 21/21/21
f 24/24/24 23/23/23 21/21/21
f 27/27/27 26/26/26 25/25/25
f 28/28/28 27/27/27 25/25/25
f 28/28/28 25/25/25 29/29/29
f 30/30/30 28/28/28 29/29/29
f 29/29/29 31/31/31 30/30/30
f 31/31/31 32/32/32 30/30/30
f 35/35/35 34/34/34 33/33/33
f 36/36/36 35/35/35 33/33/33
f 39/39/39 38/38/38 37/37/37
f 40/40/40 39/39/39 37/37/37
f 43/43/43 42/42/42 41/41/41
f 42/42/42 44/44/44 41/41/41
f 42/42/42 45/45/45 44/44/44
f 45/45/45 46/46/46 44/44/44
f 47/47/47 46/46/46 45/45/45
f 48/48/48 47/47/47 45/45/45
f 51/51/51 50/50/50 49/49/49
f 50/50/50 52/52/52 49/49/49
f 50/50/50 53/53/53 52/52/52
f 53/53/53 54/54/54 52/52/52
f 54/54/54 53/53/53 55/55/55
f 53/53/53 56/56/56 55/55/55
f 59/59/59 58/58/58 57/57/57
f 60/60/60 59/59/59 57/57/57
f 60/60/60 57/57/57 61/61/61
f 62/62/62 60/60/60 61/61/61
f 62/62/62 61/61/61 63/63/63
f 61/61/61 64/64/64 63/63/63
f 64/64/64 65/65/65 63/63/63
f 65/65/65 66/66/66 63/63/63
f 65/65/65 67/67/67 66/66/66
f 67/67/67 68/68/68 66/66/66
f 71/71/71 70/70/70 69/69/69
f 70/70/70 72/72/72 69/69/69
f 70/70/70 73/73/73 72/72/72
f 73/73/73 74/74/74 72/72/72
f 77/77/77 76/76/76 75/75/75
f 78/78/78 77/77/77 75/75/75
f 78/78/78 75/75/75 79/79/79
f 80/80/80 78/78/78 79/79/79
f 80/80/80 79/79/79 81/81/81
f 79/79/79 82/82/82 81/81/81
f 82/82/82 83/83/83 81/81/81
f 83/83/83 84/84/84 81/81/81
f 83/83/83 85/85/85 84/84/84
f 85/85/85 86/86/86 84/84/84
f 89/89/89 88/88/88 87/87/87
f 88/88/88 90/90/90 87/87/87
f 88/88/88 91/91/91 90/90/90
f 91/91/91 92/92/92 90/90/90
f 95/95/95 94/94/94 93/93/93
f 94/94/94 96/96/96 93/93/93
f 94/94/94 97/97/97 96/96/96
f 97/97/97 98/98/98 96/96/96
f 97/97/97 99/99/99 98/98/98
f 99/99/99 100/100/100 98/98/98
f 99/99/99 101/101/101 100/100/100
f 101/101/101 102/102/102 100/100/100
f 105/105/105 104/104/104 103/103/103
f 104/104/104 106/106/106 103/103/103
f 104/104/104 107/107/107 106/106/106
f 107/107/107 108/108/108 106/106/106
f 107/107/107 109/109/109 108/108/108
f 109/109/109 110/110/110 108/108/108
f 109/109/109 111/111/111 110/110/110
f 111/111/111 112/112/112 110/110/110
f 115/115/115 114/114/114 113/113/113
f 116/116/116 115/115/115 113/113/113
f 119/119/119 118/118/118 117/117/117
f 120/120/120 119/119/119 117/117/117
f 123/123/123 122/122/122 121/121/121
f 124/124/124 123/123/123 121/121/121
f 127/127/127 126/126/126 125/125/125
f 128/128/128 127/127/127 125/125/125
f 125/125/125 129/129/129 128/128/128
f 129/129/129 130/130/130 128/128/128
f 129/129/129 131/131/131 130/130/130
f 131/131/131 132/132/132 130/130/130
f 135/135/135 134/134/134 133/133/133
f 136/136/136 135/135/135 133/133/133
f 139/139/139 138/138/138 137/137/137
f 140/140/140 139/139/139 137/137/137
f 143/143/143 142/142/142 141/141/141
f 144/144/144 143/143/143 141/141/141
f 141/141/141 145/145/145 144/144/144
f 145/145/145 146/146/146 144/144/144
f 145/145/145 147/147/147 146/146/146
f 147/147/147 148/148/148 146/146/146
f 151/151/151 150/150/150 149/149/149
f 152/152/152 151/151/151 149/149/149
f 155/155/155 154/154/154 153/153/153
f 156/156/156 155/155/155 153/153/153
f 159/159/159 158/158/158 157/157/157
f 159/159/159 157/157/157 160/160/160
f 159/159/159 161/161/161 158/158/158
f 159/159/159 160/160/160 162/162/162
f 161/161/161 159/159/159 163/163/163
f 162/162/162 164/164/164 159/159/159
f 165/165/165 164/164/164 162/162/162
f 162/162/162 163/163/163 165/165/165
f 166/166/166 161/161/161 163/163/163
f 162/162/162 167/167/167 163/163/163
f 168/168/168 166/166/166 163/163/163
f 167/167/167 168/168/168 163/163/163
f 171/171/171 170/170/170 169/169/169
f 170/170/170 172/172/172 169/169/169
f 173/173/173 170/170/170 171/171/171
f 169/169/169 172/172/172 174/174/174
f 175/175/175 173/173/173 171/171/171
f 172/172/172 176/176/176 174/174/174
f 176/176/176 173/173/173 175/175/175
f 174/174/174 176/176/176 175/175/175
f 179/179/179 178/178/178 177/177/177
f 178/178/178 180/180/180 177/177/177
f 181/181/181 178/178/178 179/179/179
f 177/177/177 180/180/180 182/182/182
f 183/183/183 181/181/181 179/179/179
f 180/180/180 184/184/184 182/182/182
f 184/184/184 181/181/181 183/183/183
f 182/182/182 184/184/184 183/183/183
