g TeethBottom
v -0.08075668 -0.5152676 -0.13857396
v -0.09137544 -0.49121746 -0.158456
v -0.07570564 -1.3137324 -0.12993911
v 0.04684684 -1.3039887 -0.057927385
v -0.09137544 -0.49121746 -0.158456
v -0.11854494 -0.47134373 -0.14564286
v -0.22164881 -1.3106987 -0.073301405
v -0.07570564 -1.3137324 -0.12993911
v -0.11854494 -0.47134373 -0.14564286
v -0.12471785 -0.48311126 -0.11784167
v -0.18929411 -1.2990803 0.033714257
v -0.22164881 -1.3106987 -0.073301405
v 0.04684684 -1.3039887 -0.057927385
v -0.07570564 -1.3137324 -0.12993911
v -0.22164881 -1.3106987 -0.073301405
v -0.18929411 -1.2990803 0.033714257
v -0.023354527 -1.2949331 0.043215886
v -0.12471785 -0.48311126 -0.11784167
v -0.023354527 -1.2949331 0.043215886
v -0.18929411 -1.2990803 0.033714257
v -0.10136352 -0.5102577 -0.113473
v 0.04684684 -1.3039887 -0.057927385
v -0.08075668 -0.5152676 -0.13857396
v -0.09137544 -0.49121746 -0.158456
v -0.08075668 -0.5152676 -0.13857396
v -0.10136352 -0.5102577 -0.113473
v -0.12471785 -0.48311126 -0.11784167
v -0.11854494 -0.47134373 -0.14564286
v -0.4998654 -0.69590604 -0.11055255
v -0.5151347 -0.6886151 -0.12806723
v -0.51994544 -1.1159093 -0.2327687
v -0.45965123 -1.1047218 -0.1537031
v -0.5151347 -0.6886151 -0.12806723
v -0.5415679 -0.6902958 -0.1219451
v -0.6149202 -1.111054 -0.20094058
v -0.51994544 -1.1159093 -0.2327687
v -0.5415679 -0.6902958 -0.1219451
v -0.5426346 -0.69862556 -0.10064651
v -0.61332315 -1.0968658 -0.102204405
v -0.6149202 -1.111054 -0.20094058
v -0.45965123 -1.1047218 -0.1537031
v -0.51994544 -1.1159093 -0.2327687
v -0.6149202 -1.111054 -0.20094058
v -0.61332315 -1.0968658 -0.102204405
v -0.5173617 -1.0929524 -0.07300996
v -0.5426346 -0.69862556 -0.10064651
v -0.5173617 -1.0929524 -0.07300996
v -0.61332315 -1.0968658 -0.102204405
v -0.51686096 -0.7020928 -0.0936058
v -0.45965123 -1.1047218 -0.1537031
v -0.4998654 -0.69590604 -0.11055255
v -0.5415679 -0.6902958 -0.1219451
v -0.5151347 -0.6886151 -0.12806723
v -0.4998654 -0.69590604 -0.11055255
v -0.5426346 -0.69862556 -0.10064651
v -0.51686096 -0.7020928 -0.0936058
v 0.37098798 -0.5933311 -0.15794012
v 0.35158446 -0.58340335 -0.1678213
v 0.32939062 -1.2494228 -0.2648844
v 0.47155267 -1.2489653 -0.17918637
v 0.36042014 -0.5992365 -0.13674124
v 0.4325077 -1.2302217 -0.019349448
v 0.35158446 -0.58340335 -0.1678213
v 0.3290241 -0.5831733 -0.1527298
v 0.20248505 -1.2309616 -0.15801111
v 0.32939062 -1.2494228 -0.2648844
v 0.3290241 -0.5831733 -0.1527298
v 0.33448514 -0.59295857 -0.13352098
v 0.26621485 -1.2190948 -0.0062622502
v 0.20248505 -1.2309616 -0.15801111
v 0.47155267 -1.2489653 -0.17918637
v 0.32939062 -1.2494228 -0.2648844
v 0.20248505 -1.2309616 -0.15801111
v 0.4325077 -1.2302217 -0.019349448
v 0.26621485 -1.2190948 -0.0062622502
v 0.33448514 -0.59295857 -0.13352098
v 0.36042014 -0.5992365 -0.13674124
v 0.4325077 -1.2302217 -0.019349448
v 0.26621485 -1.2190948 -0.0062622502
v 0.3290241 -0.5831733 -0.1527298
v 0.35158446 -0.58340335 -0.1678213
v 0.37098798 -0.5933311 -0.15794012
v 0.36042014 -0.5992365 -0.13674124
v 0.33448514 -0.59295857 -0.13352098
v 0.70486915 -0.2319654 -0.17450786
v 0.76584786 -0.94363177 -0.38339645
v 0.8529399 -0.89903283 -0.37557477
v 0.68569607 -0.25876075 -0.1754357
v 0.70381135 -0.9829724 -0.3043994
v 0.6671491 -0.2656297 -0.1453332
v 0.6748597 -0.24307927 -0.12580082
v 0.69817203 -0.2222737 -0.14383174
v 0.6671491 -0.2656297 -0.1453332
v 0.6748597 -0.24307927 -0.12580082
v 0.75256276 -0.9626868 -0.2477548
v 0.70381135 -0.9829724 -0.3043994
v 0.8529399 -0.89903283 -0.37557477
v 0.76584786 -0.94363177 -0.38339645
v 0.70381135 -0.9829724 -0.3043994
v 0.8447293 -0.9108092 -0.29174364
v 0.75256276 -0.9626868 -0.2477548
v 0.6748597 -0.24307927 -0.12580082
v 0.69817203 -0.2222737 -0.14383174
v 0.8447293 -0.9108092 -0.29174364
v 0.75256276 -0.9626868 -0.2477548
v 0.69817203 -0.2222737 -0.14383174
v 0.70486915 -0.2319654 -0.17450786
v 0.8529399 -0.89903283 -0.37557477
v 0.8447293 -0.9108092 -0.29174364
v -0.6541642 -0.17302783 -0.26102445
v -0.65223616 -0.15585268 -0.25084075
v -0.67125183 -0.1537203 -0.24502668
v -0.6743714 -0.18151037 -0.26150438
v -0.6849322 -0.16957755 -0.25161728
v -0.930654 -0.82843167 -0.40322077
v -0.9084298 -0.8462787 -0.47522342
v -0.8064702 -0.86794144 -0.44744325
v -0.67125183 -0.1537203 -0.24502668
v -0.65223616 -0.15585268 -0.25084075
v -0.7656802 -0.8634828 -0.35827166
v -0.8424298 -0.8390642 -0.33094066
v -0.6849322 -0.16957755 -0.25161728
v -0.67125183 -0.1537203 -0.24502668
v -0.8424298 -0.8390642 -0.33094066
v -0.930654 -0.82843167 -0.40322077
v -0.8064702 -0.86794144 -0.44744325
v -0.9084298 -0.8462787 -0.47522342
v -0.930654 -0.82843167 -0.40322077
v -0.7656802 -0.8634828 -0.35827166
v -0.8424298 -0.8390642 -0.33094066
v -0.65223616 -0.15585268 -0.25084075
v -0.6541642 -0.17302783 -0.26102445
v -0.8064702 -0.86794144 -0.44744325
v -0.7656802 -0.8634828 -0.35827166
vt 0.97802734 0.7368164
vt 0.9790039 0.73779297
vt 0.9790039 0.70996094
vt 0.9746094 0.70996094
vt 0.050567627 0.9316406
vt 0.049560547 0.93115234
vt 0.045928955 0.9589844
vt 0.05117798 0.9589844
vt 0.75146484 0.7519531
vt 0.7504883 0.7524414
vt 0.7475586 0.77978516
vt 0.75146484 0.78027344
vt 0.95947266 0.22692871
vt 0.95703125 0.23120117
vt 0.95947266 0.23596191
vt 0.9628906 0.23461914
vt 0.9628906 0.2290039
vt 0.6484375 0.9121094
vt 0.6459961 0.9394531
vt 0.6513672 0.9399414
vt 0.64746094 0.91308594
vt 0.6425781 0.9399414
vt 0.64697266 0.91308594
vt 0.60253906 0.6923828
vt 0.6020508 0.6933594
vt 0.60253906 0.69433594
vt 0.6035156 0.69384766
vt 0.6035156 0.6928711
vt 0.72558594 0.9736328
vt 0.7265625 0.9736328
vt 0.7265625 0.9589844
vt 0.72314453 0.95996094
vt 0.35327148 0.9506836
vt 0.35229492 0.9506836
vt 0.3515625 0.96533203
vt 0.35498047 0.96533203
vt 0.7319336 0.9589844
vt 0.7314453 0.9589844
vt 0.7290039 0.97216797
vt 0.7319336 0.9736328
vt 0.7866211 0.3876953
vt 0.7895508 0.38671875
vt 0.7895508 0.38330078
vt 0.7866211 0.38232422
vt 0.78466797 0.38500977
vt 0.68359375 0.95654297
vt 0.6821289 0.96972656
vt 0.6850586 0.96972656
vt 0.6826172 0.95654297
vt 0.6796875 0.96972656
vt 0.6821289 0.9560547
vt 0.31445312 0.6044922
vt 0.31445312 0.6035156
vt 0.3137207 0.6035156
vt 0.3137207 0.60498047
vt 0.31323242 0.6040039
vt 0.20910645 0.9448242
vt 0.2097168 0.9453125
vt 0.2097168 0.92285156
vt 0.20483398 0.92333984
vt 0.20861816 0.9448242
vt 0.2010498 0.9243164
vt 0.9663086 0.70751953
vt 0.96533203 0.70751953
vt 0.96484375 0.7294922
vt 0.97021484 0.7294922
vt 0.8222656 0.93310547
vt 0.82128906 0.93359375
vt 0.81689453 0.95458984
vt 0.8222656 0.9550781
vt 0.91503906 0.7583008
vt 0.91503906 0.7529297
vt 0.90966797 0.75097656
vt 0.90966797 0.7597656
vt 0.90625 0.7553711
vt 0.25317383 0.9428711
vt 0.2524414 0.9428711
vt 0.24768066 0.9638672
vt 0.25317383 0.96435547
vt 0.31420898 0.6074219
vt 0.31445312 0.6064453
vt 0.31396484 0.60595703
vt 0.31323242 0.6064453
vt 0.31347656 0.6074219
vt 0.031036377 0.9560547
vt 0.029663086 0.93115234
vt 0.026855469 0.9321289
vt 0.03173828 0.9550781
vt 0.032684326 0.9301758
vt 0.032684326 0.9550781
vt 0.032592773 0.9560547
vt 0.031555176 0.95654297
vt 0.37402344 0.91064453
vt 0.37353516 0.90966797
vt 0.37182617 0.93359375
vt 0.37402344 0.9345703
vt 0.8183594 0.38232422
vt 0.81591797 0.38427734
vt 0.81640625 0.3876953
vt 0.8203125 0.38427734
vt 0.81933594 0.3876953
vt 0.75097656 0.8623047
vt 0.75 0.8618164
vt 0.7475586 0.8852539
vt 0.75097656 0.88671875
vt 0.12414551 0.92333984
vt 0.12335205 0.9238281
vt 0.12182617 0.94677734
vt 0.12414551 0.94677734
vt 0.26245117 0.9453125
vt 0.26245117 0.9448242
vt 0.26171875 0.9448242
vt 0.2619629 0.9458008
vt 0.2614746 0.9453125
vt 0.25805664 0.96875
vt 0.25976562 0.9692383
vt 0.26245117 0.9692383
vt 0.93603516 0.8886719
vt 0.9370117 0.8886719
vt 0.9370117 0.8647461
vt 0.93408203 0.8652344
vt 0.43164062 0.92041016
vt 0.43139648 0.9199219
vt 0.42822266 0.9433594
vt 0.43164062 0.94433594
vt 0.8125 0.38598633
vt 0.8125 0.38256836
vt 0.8095703 0.38232422
vt 0.8095703 0.38793945
vt 0.80810547 0.3857422
vt 0.82421875 0.8432617
vt 0.82470703 0.84277344
vt 0.82470703 0.8183594
vt 0.82128906 0.81933594
vn 0.93896484 0.3305664 -0.0970459
vn 0.3972168 0.515625 -0.75878906
vn 0.09838867 -0.6767578 -0.7294922
vn 0.9760742 0.13256836 -0.17358398
vn 0.3972168 0.515625 -0.75878906
vn -0.8652344 0.054107666 -0.49829102
vn -0.75146484 -0.56884766 -0.33398438
vn 0.09838867 -0.6767578 -0.7294922
vn -0.8652344 0.054107666 -0.49829102
vn -0.34960938 0.5917969 0.7260742
vn -0.6533203 0.19665527 0.73095703
vn -0.75146484 -0.56884766 -0.33398438
vn 0.018997192 -0.9946289 0.10223389
vn 0.09838867 -0.6767578 -0.7294922
vn -0.75146484 -0.56884766 -0.33398438
vn 0.018997192 -0.9946289 0.10223389
vn 0.018997192 -0.9946289 0.10223389
vn -0.34960938 0.5917969 0.7260742
vn 0.43945312 0.21520996 0.8720703
vn -0.6533203 0.19665527 0.73095703
vn 0.46240234 0.38964844 0.7963867
vn 0.9760742 0.13256836 -0.17358398
vn 0.93896484 0.3305664 -0.0970459
vn 0.3972168 0.515625 -0.75878906
vn 0.93896484 0.3305664 -0.0970459
vn 0.46240234 0.38964844 0.7963867
vn -0.34960938 0.5917969 0.7260742
vn 0.6567383 0.63134766 0.4128418
vn 0.8095703 0.5761719 0.11352539
vn 0.27539062 0.22375488 -0.9350586
vn 0.24963379 0.22558594 -0.94189453
vn 0.82958984 -0.55859375 0.005607605
vn 0.27539062 0.22375488 -0.9350586
vn -0.5786133 0.7553711 -0.30786133
vn -0.7363281 0.24938965 -0.62890625
vn 0.24963379 0.22558594 -0.94189453
vn -0.5786133 0.7553711 -0.30786133
vn -0.6069336 0.5498047 0.57373047
vn -0.6933594 -0.4987793 0.5205078
vn -0.7363281 0.24938965 -0.62890625
vn 0.82958984 -0.55859375 0.005607605
vn -0.0029201508 -0.9897461 0.14233398
vn -0.0029201508 -0.9897461 0.14233398
vn -0.6933594 -0.4987793 0.5205078
vn 0.24865723 -0.5151367 0.8203125
vn -0.6069336 0.5498047 0.57373047
vn 0.24865723 -0.5151367 0.8203125
vn -0.6933594 -0.4987793 0.5205078
vn 0.24926758 0.48242188 0.83984375
vn 0.82958984 -0.55859375 0.005607605
vn 0.8095703 0.5761719 0.11352539
vn -0.5786133 0.7553711 -0.30786133
vn 0.025421143 0.93066406 0.36523438
vn 0.8095703 0.5761719 0.11352539
vn -0.6069336 0.5498047 0.57373047
vn 0.24926758 0.48242188 0.83984375
vn 0.8095703 0.5410156 -0.22814941
vn -0.15673828 0.14501953 -0.9770508
vn -0.04711914 0.14331055 -0.98876953
vn 0.9067383 0.1574707 -0.39086914
vn 0.54345703 0.52197266 0.65722656
vn 0.66015625 0.20275879 0.7236328
vn -0.15673828 0.14501953 -0.9770508
vn -0.6230469 0.7783203 -0.07531738
vn -0.94091797 0.18798828 -0.28198242
vn -0.04711914 0.14331055 -0.98876953
vn -0.6230469 0.7783203 -0.07531738
vn -0.3479004 0.5751953 0.74072266
vn -0.50097656 0.22644043 0.83496094
vn -0.94091797 0.18798828 -0.28198242
vn -0.058410645 -0.99316406 0.10217285
vn -0.058410645 -0.99316406 0.10217285
vn -0.058410645 -0.99316406 0.10217285
vn -0.058410645 -0.99316406 0.10217285
vn -0.058410645 -0.99316406 0.10217285
vn -0.3479004 0.5751953 0.74072266
vn 0.54345703 0.52197266 0.65722656
vn 0.66015625 0.20275879 0.7236328
vn -0.50097656 0.22644043 0.83496094
vn -0.6230469 0.7783203 -0.07531738
vn 0.2619629 0.8881836 0.3779297
vn 0.8095703 0.5410156 -0.22814941
vn 0.54345703 0.52197266 0.65722656
vn -0.3479004 0.5751953 0.74072266
vn -0.60253906 0.5136719 -0.61083984
vn -0.56591797 0.1776123 -0.8051758
vn -0.103881836 0.27197266 -0.95654297
vn -0.58691406 0.35327148 -0.7285156
vn -0.99853516 -0.05230713 -0.015808105
vn -0.98876953 0.14501953 0.0345459
vn -0.45458984 0.39160156 0.80029297
vn -0.75878906 0.5546875 -0.34106445
vn -0.98876953 0.14501953 0.0345459
vn -0.45458984 0.39160156 0.80029297
vn 0.047058105 -0.7050781 0.70751953
vn -0.99853516 -0.05230713 -0.015808105
vn 0.8857422 -0.46362305 0.027404785
vn 0.45996094 -0.88427734 -0.0791626
vn 0.45996094 -0.88427734 -0.0791626
vn 0.8330078 -0.41015625 0.37109375
vn 0.047058105 -0.7050781 0.70751953
vn -0.45458984 0.39160156 0.80029297
vn 0.80615234 0.039642334 0.59033203
vn 0.8330078 -0.41015625 0.37109375
vn 0.047058105 -0.7050781 0.70751953
vn 0.80615234 0.039642334 0.59033203
vn 0.97509766 0.1784668 0.13024902
vn 0.8857422 -0.46362305 0.027404785
vn 0.8330078 -0.41015625 0.37109375
vn 0.5444336 0.21459961 -0.81103516
vn 0.009773254 0.47436523 -0.8803711
vn -0.19689941 0.5161133 -0.8334961
vn -0.27563477 0.4255371 -0.8618164
vn -0.8833008 0.46557617 0.054382324
vn -0.9291992 -0.3400879 0.14465332
vn -0.28149414 0.37036133 -0.8852539
vn 0.59765625 0.09106445 -0.7963867
vn 0.078308105 -0.14428711 0.9863281
vn 0.2746582 -0.18701172 0.9433594
vn 0.0040779114 -0.73828125 0.6743164
vn -0.2734375 -0.54248047 0.7944336
vn -0.8833008 0.46557617 0.054382324
vn 0.078308105 -0.14428711 0.9863281
vn -0.2734375 -0.54248047 0.7944336
vn -0.9291992 -0.3400879 0.14465332
vn -0.24682617 -0.9555664 0.16064453
vn -0.24682617 -0.9555664 0.16064453
vn -0.9291992 -0.3400879 0.14465332
vn 0.0040779114 -0.73828125 0.6743164
vn -0.2734375 -0.54248047 0.7944336
vn 0.009773254 0.47436523 -0.8803711
vn 0.5444336 0.21459961 -0.81103516
vn 0.59765625 0.09106445 -0.7963867
vn 0.921875 -0.0960083 -0.37548828
g TeethBottom_0
f 3/3/3 2/2/2 1/1/1
f 4/4/4 3/3/3 1/1/1
f 7/7/7 6/6/6 5/5/5
f 8/8/8 7/7/7 5/5/5
f 11/11/11 10/10/10 9/9/9
f 12/12/12 11/11/11 9/9/9
f 15/15/15 14/14/14 13/13/13
f 13/13/13 16/16/16 15/15/15
f 13/13/13 17/17/17 16/16/16
f 20/20/20 19/19/19 18/18/18
f 19/19/19 21/21/21 18/18/18
f 19/19/19 22/22/22 21/21/21
f 22/22/22 23/23/23 21/21/21
f 26/26/26 25/25/25 24/24/24
f 24/24/24 27/27/27 26/26/26
f 24/24/24 28/28/28 27/27/27
f 31/31/31 30/30/30 29/29/29
f 32/32/32 31/31/31 29/29/29
f 35/35/35 34/34/34 33/33/33
f 36/36/36 35/35/35 33/33/33
f 39/39/39 38/38/38 37/37/37
f 40/40/40 39/39/39 37/37/37
f 43/43/43 42/42/42 41/41/41
f 41/41/41 44/44/44 43/43/43
f 41/41/41 45/45/45 44/44/44
f 48/48/48 47/47/47 46/46/46
f 47/47/47 49/49/49 46/46/46
f 47/47/47 50/50/50 49/49/49
f 50/50/50 51/51/51 49/49/49
f 54/54/54 53/53/53 52/52/52
f 52/52/52 55/55/55 54/54/54
f 55/55/55 56/56/56 54/54/54
f 59/59/59 58/58/58 57/57/57
f 60/60/60 59/59/59 57/57/57
f 60/60/60 57/57/57 61/61/61
f 62/62/62 60/60/60 61/61/61
f 65/65/65 64/64/64 63/63/63
f 66/66/66 65/65/65 63/63/63
f 69/69/69 68/68/68 67/67/67
f 70/70/70 69/69/69 67/67/67
f 73/73/73 72/72/72 71/71/71
f 71/71/71 74/74/74 73/73/73
f 74/74/74 75/75/75 73/73/73
f 78/78/78 77/77/77 76/76/76
f 79/79/79 78/78/78 76/76/76
f 82/82/82 81/81/81 80/80/80
f 80/80/80 83/83/83 82/82/82
f 80/80/80 84/84/84 83/83/83
f 87/87/87 86/86/86 85/85/85
f 86/86/86 88/88/88 85/85/85
f 86/86/86 89/89/89 88/88/88
f 89/89/89 90/90/90 88/88/88
f 88/88/88 90/90/90 91/91/91
f 91/91/91 85/85/85 88/88/88
f 91/91/91 92/92/92 85/85/85
f 95/95/95 94/94/94 93/93/93
f 96/96/96 95/95/95 93/93/93
f 99/99/99 98/98/98 97/97/97
f 97/97/97 100/100/100 99/99/99
f 100/100/100 101/101/101 99/99/99
f 104/104/104 103/103/103 102/102/102
f 105/105/105 104/104/104 102/102/102
f 108/108/108 107/107/107 106/106/106
f 109/109/109 108/108/108 106/106/106
f 112/112/112 111/111/111 110/110/110
f 110/110/110 113/113/113 112/112/112
f 113/113/113 114/114/114 112/112/112
f 115/115/115 114/114/114 113/113/113
f 116/116/116 115/115/115 113/113/113
f 116/116/116 113/113/113 110/110/110
f 117/117/117 116/116/116 110/110/110
f 120/120/120 119/119/119 118/118/118
f 121/121/121 120/120/120 118/118/118
f 124/124/124 123/123/123 122/122/122
f 125/125/125 124/124/124 122/122/122
f 128/128/128 127/127/127 126/126/126
f 126/126/126 129/129/129 128/128/128
f 129/129/129 130/130/130 128/128/128
f 133/133/133 132/132/132 131/131/131
f 134/134/134 133/133/133 131/131/131
