g TelephoneWireGrounding
v 0.1819465 -1.2782902 -1.5360073
v 0.43872464 -1.3412455 -1.4669324
v 0.2095281 1.9418482 1.5048968
v -0.004271536 1.9942662 1.4473834
v 0.43872464 -1.3412455 -1.4669324
v 0.5753533 -1.5006533 -1.2920284
v 0.32328847 1.8091213 1.6505262
v 0.2095281 1.9418482 1.5048968
v 0.5753533 -1.5006533 -1.2920284
v 0.28377992 1.6581899 1.8161296
v 0.32328847 1.8091213 1.6505262
v 0.52790266 -1.6819254 -1.0931351
v 0.10948884 1.5596763 1.9242193
v 0.3185752 -1.8002422 -0.9633167
v 0.3185752 -1.8002422 -0.9633167
v -0.11803199 1.5596763 1.9242193
v 0.10948884 1.5596763 1.9242193
v 0.045317635 -1.8002422 -0.9633167
v -0.292323 1.6581899 1.8161296
v -0.16400972 -1.6819254 -1.0931354
v -0.3318315 1.8091213 1.6505262
v -0.21146032 -1.5006533 -1.2920284
v -0.2180712 1.9418482 1.504897
v -0.004271536 1.9942662 1.4473834
v 0.2095281 1.9418482 1.5048968
v 0.32328847 1.8091213 1.6505262
v -0.3318315 1.8091213 1.6505262
v -0.292323 1.6581899 1.8161296
v 0.28377992 1.6581899 1.8161296
v -0.11803199 1.5596763 1.9242193
v 0.10948884 1.5596763 1.9242193
v -0.21146032 -1.5006533 -1.2920284
v -0.2180712 1.9418482 1.504897
v -0.3318315 1.8091213 1.6505262
v -0.074831665 -1.3412455 -1.4669324
v -0.004271536 1.9942662 1.4473834
v 0.1819465 -1.2782902 -1.5360073
v 1.0222676 -1.8657818 -0.87291294
v 0.5289364 -3.581469 -1.9857172
v 0.5138392 -2.1531577 -0.5576015
v 1.0373646 -3.2940934 -2.3010285
v 1.1375186 -1.4254966 -1.3559978
v 1.1526158 -2.8538082 -2.7841136
v 0.8207631 -2.4666276 -3.208932
v 0.19708368 -2.313718 -3.3767052
v -0.42659578 -2.4666278 -3.208932
v 1.1526158 -2.8538082 -2.7841136
v -0.7584485 -2.8538082 -2.7841136
v 1.0373646 -3.2940934 -2.3010285
v -0.6431973 -3.2940934 -2.3010287
v -0.13476944 -3.581469 -1.9857172
v 0.5289364 -3.581469 -1.9857172
v 0.1819865 -0.8854071 -1.9485893
v 0.19708368 -2.313718 -3.3767052
v 0.8207631 -2.4666276 -3.208932
v 0.8056659 -1.0383164 -1.7808158
v -0.77354556 -1.4254966 -1.3559978
v -0.7584485 -2.8538082 -2.7841136
v -0.42659578 -2.4666278 -3.208932
v -0.441693 -1.0383164 -1.7808156
v 0.19708368 -2.313718 -3.3767052
v 0.1819865 -0.8854071 -1.9485893
v 0.5138392 -2.1531577 -0.5576015
v 0.5289364 -3.581469 -1.9857172
v -0.13476944 -3.581469 -1.9857172
v -0.14986655 -2.1531577 -0.5576015
v 0.8056659 -1.0383164 -1.7808158
v 0.8207631 -2.4666276 -3.208932
v 1.1526158 -2.8538082 -2.7841136
v 1.1375186 -1.4254966 -1.3559978
v -0.14986655 -2.1531577 -0.5576015
v -0.13476944 -3.581469 -1.9857172
v -0.6431973 -3.2940934 -2.3010287
v -0.6582944 -1.8657818 -0.8729132
v -0.7584485 -2.8538082 -2.7841136
v -0.77354556 -1.4254966 -1.3559978
v -0.16400972 -1.6819254 -1.0931354
v -0.6582944 -1.8657818 -0.8729132
v -0.77354556 -1.4254966 -1.3559978
v -0.21146032 -1.5006533 -1.2920284
v 0.045317635 -1.8002422 -0.9633167
v -0.441693 -1.0383164 -1.7808156
v -0.14986655 -2.1531577 -0.5576015
v -0.074831665 -1.3412455 -1.4669324
v 0.3185752 -1.8002422 -0.9633167
v 0.1819865 -0.8854071 -1.9485893
v 0.5138392 -2.1531577 -0.5576015
v 0.1819465 -1.2782902 -1.5360073
v 0.52790266 -1.6819254 -1.0931351
v 0.8056659 -1.0383164 -1.7808158
v 1.0222676 -1.8657818 -0.87291294
v 0.43872464 -1.3412455 -1.4669324
v 0.5753533 -1.5006533 -1.2920284
v 1.1375186 -1.4254966 -1.3559978
vt 0.8349308 0.3007725
vt 0.80550665 0.30043867
vt 0.8217815 0.9969102
vt 0.84628075 0.9971881
vt 0.90274227 0.9973636
vt 0.9321661 0.99815685
vt 0.9307487 0.30109924
vt 0.90624964 0.30043873
vt 0.9321661 0.99815685
vt 0.9627299 0.3010992
vt 0.9307487 0.30109924
vt 0.9705762 0.99815685
vt 0.9872288 0.30043867
vt 1 0.99736345
vt 0.708289 1
vt 0.74903744 0.3017766
vt 0.7245609 0.30304244
vt 0.737686 0.99847966
vt 0.78100544 0.3007482
vt 0.77608013 0.99724466
vt 0.8055066 0.30043867
vt 0.80550665 0.99687284
vt 0.56772506 0.10299148
vt 0.5992204 0.096780375
vt 0.61977756 0.0693801
vt 0.61977756 0.033611484
vt 0.5400286 0.08510714
vt 0.5290904 0.051495686
vt 0.59922045 0.006211163
vt 0.54002863 0.01788425
vt 0.5677252 0
vt 0.90274227 0.302758
vt 0.87825465 0.9979508
vt 0.90274227 0.9988414
vt 0.87333214 0.30168843
vt 0.84628075 0.9971881
vt 0.8349308 0.3007725
vt 0.16465932 0.30610797
vt 0.23596667 0.6178435
vt 0.23596667 0.30043867
vt 0.16465935 0.62351274
vt 0.07146882 0.31099612
vt 0.07146887 0.628401
vt 0.031908054 0.24826811
vt 0.112702124 0.30043867
vt 0.20457773 0.28232002
vt 0 0.15021934
vt 0.26454523 0.20238993
vt 0.031908043 0.05217062
vt 0.26454526 0.098048724
vt 0.20457773 0.018118663
vt 0.11270211 0
vt 0.5435909 0.61879224
vt 0.5435909 0.30137128
vt 0.47212473 0.30043867
vt 0.4721248 0.6178597
vt 0.7082891 0.6238953
vt 0.7082891 0.3064742
vt 0.6368595 0.3037549
vt 0.6368595 0.6211759
vt 0.5435909 0.30137128
vt 0.5435909 0.61879224
vt 0.47212473 0.6242603
vt 0.47212464 0.30677846
vt 0.4006488 0.3062555
vt 0.4006488 0.62373745
vt 5.02695E-08 0.31281602
vt 0 0.63022083
vt 0.07146887 0.628401
vt 0.07146882 0.31099612
vt 0.4006488 0.62373745
vt 0.4006488 0.3062555
vt 0.3073827 0.3037517
vt 0.30738273 0.6212336
vt 0.23596667 0.30043867
vt 0.23596676 0.6179205
vt 0.42883584 0.0958252
vt 0.46912286 0.018118644
vt 0.37724733 0
vt 0.3910093 0.08836549
vt 0.45352536 0.12873359
vt 0.2964533 0.05217058
vt 0.5290904 0.09804865
vt 0.35774517 0.1098449
vt 0.45352533 0.17169245
vt 0.26454523 0.15021932
vt 0.5290904 0.20238993
vt 0.3446081 0.15021303
vt 0.42883584 0.20460084
vt 0.29645327 0.24826804
vt 0.4691229 0.28232
vt 0.35774517 0.19058116
vt 0.3910093 0.21206057
vt 0.37724733 0.3004386
vn 0.0056357724 0.9952232 0.09746297
vn 0.38130093 0.89888895 0.21588959
vn 0.48369676 0.8752304 0.0030282817
vn -0.007049945 0.99013114 -0.1399662
vn 0.38130093 0.89888895 0.21588959
vn 0.5696512 0.66888523 0.4775879
vn 0.74124396 0.5766056 0.34363255
vn 0.48369676 0.8752304 0.0030282817
vn 0.5696512 0.66888523 0.4775879
vn 0.6502854 0.23352069 0.7229086
vn 0.74124396 0.5766056 0.34363255
vn 0.4993791 0.41071454 0.7628461
vn 0.25341156 0.0028778699 0.9673543
vn 0.20315918 0.23378313 0.9508268
vn 0.20315918 0.23378313 0.9508268
vn -0.26895806 -0.007833719 0.96312004
vn 0.25341156 0.0028778699 0.9673543
vn -0.19719993 0.21863107 0.955674
vn -0.6737468 0.20975722 0.7085669
vn -0.5205658 0.3831106 0.7630449
vn -0.767168 0.5551963 0.3212639
vn -0.6005116 0.65650266 0.4564976
vn -0.50272036 0.86432093 -0.014885404
vn -0.007049945 0.99013114 -0.1399662
vn 0.48369676 0.8752304 0.0030282817
vn 0.74124396 0.5766056 0.34363255
vn -0.767168 0.5551963 0.3212639
vn -0.6737468 0.20975722 0.7085669
vn 0.6502854 0.23352069 0.7229086
vn -0.26895806 -0.007833719 0.96312004
vn 0.25341156 0.0028778699 0.9673543
vn -0.6005116 0.65650266 0.4564976
vn -0.50272036 0.86432093 -0.014885404
vn -0.767168 0.5551963 0.3212639
vn -0.38808864 0.9018871 0.18970206
vn -0.007049945 0.99013114 -0.1399662
vn 0.0056357724 0.9952232 0.09746297
vn 0.66309035 0.20791052 0.71908575
vn 0.26266396 -0.961103 0.08537283
vn 0.26221043 -0.027979452 0.964605
vn 0.6663997 -0.72920144 -0.1554882
vn 0.74967444 0.5643105 0.34574836
vn 0.76213807 -0.3712505 -0.5303948
vn 0.49999994 -0.054405853 -0.8643148
vn 0.0012579277 0.07003359 -0.99754375
vn -0.49668524 -0.05768893 -0.8660114
vn 0.76213807 -0.3712505 -0.5303948
vn -0.75760466 -0.37557024 -0.53383726
vn 0.6663997 -0.72920144 -0.1554882
vn -0.6622007 -0.73215604 -0.15949242
vn -0.25988853 -0.96202093 0.083508715
vn 0.26266396 -0.961103 0.08537283
vn -0.0012615632 0.9940807 -0.10863652
vn 0.0012579277 0.07003359 -0.99754375
vn 0.49999994 -0.054405853 -0.8643148
vn 0.48640707 0.87349606 0.020315995
vn -0.7543373 0.56049937 0.3417831
vn -0.75760466 -0.37557024 -0.53383726
vn -0.49668524 -0.05768893 -0.8660114
vn -0.48990533 0.8716091 0.017041892
vn 0.0012579277 0.07003359 -0.99754375
vn -0.0012615632 0.9940807 -0.10863652
vn 0.26221043 -0.027979452 0.964605
vn 0.26266396 -0.961103 0.08537283
vn -0.25988853 -0.96202093 0.083508715
vn -0.26497886 -0.0297831 0.9637942
vn 0.48640707 0.87349606 0.020315995
vn 0.49999994 -0.054405853 -0.8643148
vn 0.76213807 -0.3712505 -0.5303948
vn 0.74967444 0.5643105 0.34574836
vn -0.26497886 -0.0297831 0.9637942
vn -0.25988853 -0.96202093 0.083508715
vn -0.6622007 -0.73215604 -0.15949242
vn -0.6671468 0.20377748 0.7165124
vn -0.75760466 -0.37557024 -0.53383726
vn -0.7543373 0.56049937 0.3417831
vn -0.5205658 0.3831106 0.7630449
vn -0.6671468 0.20377748 0.7165124
vn -0.7543373 0.56049937 0.3417831
vn -0.6005116 0.65650266 0.4564976
vn -0.19719993 0.21863107 0.955674
vn -0.48990533 0.8716091 0.017041892
vn -0.26497886 -0.0297831 0.9637942
vn -0.38808864 0.9018871 0.18970206
vn 0.20315918 0.23378313 0.9508268
vn -0.0012615632 0.9940807 -0.10863652
vn 0.26221043 -0.027979452 0.964605
vn 0.0056357724 0.9952232 0.09746297
vn 0.4993791 0.41071454 0.7628461
vn 0.48640707 0.87349606 0.020315995
vn 0.66309035 0.20791052 0.71908575
vn 0.38130093 0.89888895 0.21588959
vn 0.5696512 0.66888523 0.4775879
vn 0.74967444 0.5643105 0.34574836
g TelephoneWireGrounding_0
f 3/3/3 2/2/2 1/1/1
f 4/4/4 3/3/3 1/1/1
f 7/7/7 6/6/6 5/5/5
f 8/8/8 7/7/7 5/5/5
f 11/11/11 10/10/10 9/9/9
f 10/10/10 12/12/12 9/9/9
f 10/10/10 13/13/13 12/12/12
f 13/13/13 14/14/14 12/12/12
f 17/17/17 16/16/16 15/15/15
f 16/16/16 18/18/18 15/15/15
f 16/16/16 19/19/19 18/18/18
f 19/19/19 20/20/20 18/18/18
f 19/19/19 21/21/21 20/20/20
f 21/21/21 22/22/22 20/20/20
f 25/25/25 24/24/24 23/23/23
f 23/23/23 26/26/26 25/25/25
f 23/23/23 27/27/27 26/26/26
f 27/27/27 28/28/28 26/26/26
f 28/28/28 29/29/29 26/26/26
f 28/28/28 30/30/30 29/29/29
f 30/30/30 31/31/31 29/29/29
f 34/34/34 33/33/33 32/32/32
f 33/33/33 35/35/35 32/32/32
f 33/33/33 36/36/36 35/35/35
f 36/36/36 37/37/37 35/35/35
g TelephoneWireGrounding_1
f 40/40/40 39/39/39 38/38/38
f 39/39/39 41/41/41 38/38/38
f 38/38/38 41/41/41 42/42/42
f 41/41/41 43/43/43 42/42/42
f 46/46/46 45/45/45 44/44/44
f 44/44/44 47/47/47 46/46/46
f 47/47/47 48/48/48 46/46/46
f 47/47/47 49/49/49 48/48/48
f 49/49/49 50/50/50 48/48/48
f 49/49/49 51/51/51 50/50/50
f 49/49/49 52/52/52 51/51/51
f 55/55/55 54/54/54 53/53/53
f 56/56/56 55/55/55 53/53/53
f 59/59/59 58/58/58 57/57/57
f 60/60/60 59/59/59 57/57/57
f 61/61/61 59/59/59 60/60/60
f 62/62/62 61/61/61 60/60/60
f 65/65/65 64/64/64 63/63/63
f 66/66/66 65/65/65 63/63/63
f 69/69/69 68/68/68 67/67/67
f 70/70/70 69/69/69 67/67/67
f 73/73/73 72/72/72 71/71/71
f 74/74/74 73/73/73 71/71/71
f 75/75/75 73/73/73 74/74/74
f 76/76/76 75/75/75 74/74/74
f 79/79/79 78/78/78 77/77/77
f 80/80/80 79/79/79 77/77/77
f 77/77/77 78/78/78 81/81/81
f 82/82/82 79/79/79 80/80/80
f 78/78/78 83/83/83 81/81/81
f 84/84/84 82/82/82 80/80/80
f 81/81/81 83/83/83 85/85/85
f 86/86/86 82/82/82 84/84/84
f 83/83/83 87/87/87 85/85/85
f 88/88/88 86/86/86 84/84/84
f 85/85/85 87/87/87 89/89/89
f 90/90/90 86/86/86 88/88/88
f 87/87/87 91/91/91 89/89/89
f 92/92/92 90/90/90 88/88/88
f 89/89/89 91/91/91 93/93/93
f 94/94/94 90/90/90 92/92/92
f 91/91/91 94/94/94 93/93/93
f 93/93/93 94/94/94 92/92/92
