g TinyCamera
v 1.3411045E-07 0.033194423 0.062007546
v 0.015839517 0.029907465 0.062007546
v 1.3411045E-07 3.33786E-06 0.06711626
v 1.7881393E-07 0.061332345 0.047458887
v 0.02926752 0.05525887 0.047458887
v 0.028541699 0.020697713 0.062007546
v 1.3411045E-07 3.33786E-06 0.06711626
v -0.029267207 0.05525887 0.047458887
v -0.015839234 0.029907465 0.062007546
v 1.3411045E-07 3.33786E-06 0.06711626
v 1.7881393E-07 0.08013356 0.02568543
v -0.03823951 0.07219815 0.02568543
v 0.05273807 0.038241386 0.047458887
v 0.03823982 0.07219827 0.02568543
v 0.03559096 0.0073890686 0.062007546
v 1.3411045E-07 3.33786E-06 0.06711626
v -0.052737802 0.038241506 0.047458887
v -0.06890533 0.049963832 0.02568543
v -0.028541438 0.020697713 0.062007546
v 1.3411045E-07 3.33786E-06 0.06711626
v -0.04139016 0.07814646 1.9073486E-06
v 1.3411045E-07 0.086735725 1.9073486E-06
v -0.07458264 0.05408013 1.9073486E-06
v 0.06890561 0.049963713 0.02568543
v 0.06576337 0.013650417 0.047458887
v 0.04139048 0.07814646 1.9073486E-06
v 0.035590902 -0.0073822737 0.062007546
v 1.3411045E-07 3.33786E-06 0.06711626
v -0.03823951 0.07219815 -0.025681734
v -0.06890533 0.049963832 -0.025681734
v 1.7881393E-07 0.08013356 -0.025681734
v -0.09300313 0.019303203 1.9073486E-06
v -0.085923634 0.017834067 -0.025681734
v -0.085923634 0.017834067 0.02568543
v -0.06576311 0.013650417 0.047458887
v -0.035590634 0.0073890686 0.062007546
v 1.3411045E-07 3.33786E-06 0.06711626
v -0.09300313 -0.019296288 1.9073486E-06
v -0.085923634 -0.017827272 0.02568543
v -0.085923634 -0.017827272 -0.025681734
v -0.06576311 -0.013643622 0.047458887
v -0.035590634 -0.0073822737 0.062007546
v 1.3411045E-07 3.33786E-06 0.06711626
v -0.06576311 -0.013643622 -0.04745519
v -0.06576311 0.013650417 -0.04745519
v -0.035590634 -0.0073822737 -0.06200373
v -0.035590634 0.0073890686 -0.06200373
v 1.3411045E-07 3.4570694E-06 -0.067112565
v -0.052737802 0.038241506 -0.04745519
v -0.028541438 0.020697713 -0.06200373
v 1.3411045E-07 3.4570694E-06 -0.067112565
v -0.029267207 0.05525887 -0.04745519
v -0.015839234 0.029907465 -0.06200373
v 1.3411045E-07 3.4570694E-06 -0.067112565
v 1.3411045E-07 0.061332345 -0.04745519
v 0.03823982 0.07219827 -0.025681734
v 1.3411045E-07 0.033194423 -0.06200373
v 1.3411045E-07 3.4570694E-06 -0.067112565
v 0.02926752 0.05525887 -0.04745519
v 0.074582905 0.05408013 1.9073486E-06
v 0.015839517 0.029907465 -0.06200373
v 1.3411045E-07 3.4570694E-06 -0.067112565
v 0.06890561 0.049963713 -0.025681734
v 0.085923895 0.017834067 0.02568543
v 0.05273807 0.038241386 -0.04745519
v 0.0930033 0.019303203 1.9073486E-06
v 0.06576328 -0.013643622 0.047458887
v 0.028541759 0.020697713 -0.06200373
v 1.3411045E-07 3.4570694E-06 -0.067112565
v 0.085923895 0.017834067 -0.025681734
v 0.085923895 -0.017827272 0.02568543
v 0.028541699 -0.020690799 0.062007546
v 1.3411045E-07 3.33786E-06 0.06711626
v 0.06576337 0.013650417 -0.04745519
v 0.0930033 -0.019296408 1.9073486E-06
v 0.05273807 -0.03823459 0.047458887
v 0.03559096 0.0073890686 -0.06200373
v 1.3411045E-07 3.4570694E-06 -0.067112565
v 0.085923895 -0.017827272 -0.025681734
v 0.06890561 -0.049956918 0.02568543
v 0.015839517 -0.02990067 0.062007546
v 1.3411045E-07 3.33786E-06 0.06711626
v 0.06576328 -0.013643622 -0.04745519
v 0.074582905 -0.054073334 1.9073486E-06
v 0.02926752 -0.055252194 0.047458887
v 0.03559096 -0.0073822737 -0.06200373
v 1.3411045E-07 3.4570694E-06 -0.067112565
v 0.06890561 -0.049956918 -0.025681734
v 0.038239777 -0.07219148 0.02568543
v 1.3411045E-07 -0.033187628 0.062007546
v 1.3411045E-07 3.33786E-06 0.06711626
v 0.05273807 -0.03823459 -0.04745519
v 0.041390434 -0.07813978 1.9073486E-06
v 1.1920929E-07 -0.06132567 0.047458887
v 0.028541759 -0.020690799 -0.06200373
v 1.3411045E-07 3.4570694E-06 -0.067112565
v 0.038239777 -0.07219148 -0.025681734
v 1.1920929E-07 -0.08012688 0.02568543
v -0.015839234 -0.02990067 0.062007546
v 1.3411045E-07 3.33786E-06 0.06711626
v 0.02926752 -0.055252194 -0.04745519
v 1.0430813E-07 -0.08672893 1.9073486E-06
v -0.029267251 -0.055252194 0.047458887
v 0.015839517 -0.02990067 -0.06200373
v 1.3411045E-07 3.4570694E-06 -0.067112565
v 1.1920929E-07 -0.08012688 -0.025681734
v -0.038239554 -0.07219148 0.02568543
v -0.028541438 -0.020690799 0.062007546
v 1.3411045E-07 3.33786E-06 0.06711626
v 1.1920929E-07 -0.06132567 -0.04745519
v -0.04139021 -0.07813978 1.9073486E-06
v -0.052737907 -0.03823459 0.047458887
v -0.035590634 -0.0073822737 0.062007546
v 1.3411045E-07 3.33786E-06 0.06711626
v -0.06576311 -0.013643622 0.047458887
v -0.068905436 -0.049956918 0.02568543
v -0.085923634 -0.017827272 0.02568543
v -0.07458264 -0.054073334 1.9073486E-06
v -0.09300313 -0.019296288 1.9073486E-06
v -0.038239554 -0.07219148 -0.025681734
v -0.068905436 -0.049956918 -0.025681734
v -0.085923634 -0.017827272 -0.025681734
v -0.029267251 -0.055252194 -0.04745519
v -0.052737907 -0.03823459 -0.04745519
v -0.06576311 -0.013643622 -0.04745519
v 1.3411045E-07 -0.033187628 -0.06200373
v 1.3411045E-07 3.4570694E-06 -0.067112565
v -0.015839234 -0.02990067 -0.06200373
v 1.3411045E-07 3.4570694E-06 -0.067112565
v -0.028541438 -0.020690799 -0.06200373
v 1.3411045E-07 3.4570694E-06 -0.067112565
v -0.035590634 -0.0073822737 -0.06200373
v 1.3411045E-07 3.4570694E-06 -0.067112565
vt 0.71435547 0.875
vt 0.6430664 0.875
vt 0.67871094 1
vt 0.71435547 0.75
vt 0.6430664 0.75
vt 0.57128906 0.875
vt 0.6069336 1
vt 0.78564453 0.75
vt 0.78564453 0.875
vt 0.75 1
vt 0.71435547 0.625
vt 0.78564453 0.625
vt 0.57128906 0.75
vt 0.6430664 0.625
vt 0.5 0.875
vt 0.53564453 1
vt 0.8569336 0.75
vt 0.8569336 0.625
vt 0.8569336 0.875
vt 0.82128906 1
vt 0.78564453 0.5
vt 0.71435547 0.5
vt 0.8569336 0.5
vt 0.57128906 0.625
vt 0.5 0.75
vt 0.6430664 0.5
vt 0.4284668 0.875
vt 0.46435547 1
vt 0.78564453 0.375
vt 0.8569336 0.375
vt 0.71435547 0.375
vt 0.92871094 0.5
vt 0.92871094 0.375
vt 0.92871094 0.625
vt 0.92871094 0.75
vt 0.92871094 0.875
vt 0.8930664 1
vt 1 0.5
vt 1 0.625
vt 1 0.375
vt 1 0.75
vt 1 0.875
vt 0.96435547 1
vt 1 0.25
vt 0.92871094 0.25
vt 1 0.125
vt 0.92871094 0.125
vt 0.96435547 0
vt 0.8569336 0.25
vt 0.8569336 0.125
vt 0.8930664 0
vt 0.78564453 0.25
vt 0.78564453 0.125
vt 0.82128906 0
vt 0.71435547 0.25
vt 0.6430664 0.375
vt 0.71435547 0.125
vt 0.75 0
vt 0.6430664 0.25
vt 0.57128906 0.5
vt 0.6430664 0.125
vt 0.67871094 0
vt 0.57128906 0.375
vt 0.5 0.625
vt 0.57128906 0.25
vt 0.5 0.5
vt 0.4284668 0.75
vt 0.57128906 0.125
vt 0.6069336 0
vt 0.5 0.375
vt 0.4284668 0.625
vt 0.35717773 0.875
vt 0.39282227 1
vt 0.5 0.25
vt 0.4284668 0.5
vt 0.35717773 0.75
vt 0.5 0.125
vt 0.53564453 0
vt 0.4284668 0.375
vt 0.35717773 0.625
vt 0.28564453 0.875
vt 0.3215332 1
vt 0.4284668 0.25
vt 0.35717773 0.5
vt 0.28564453 0.75
vt 0.4284668 0.125
vt 0.46435547 0
vt 0.35717773 0.375
vt 0.28564453 0.625
vt 0.2142334 0.875
vt 0.25 1
vt 0.35717773 0.25
vt 0.28564453 0.5
vt 0.2142334 0.75
vt 0.35717773 0.125
vt 0.39282227 0
vt 0.28564453 0.375
vt 0.2142334 0.625
vt 0.14282227 0.875
vt 0.17858887 1
vt 0.28564453 0.25
vt 0.2142334 0.5
vt 0.14282227 0.75
vt 0.28564453 0.125
vt 0.3215332 0
vt 0.2142334 0.375
vt 0.14282227 0.625
vt 0.07141113 0.875
vt 0.1071167 1
vt 0.2142334 0.25
vt 0.14282227 0.5
vt 0.07141113 0.75
vt 0 0.875
vt 0.035705566 1
vt 5.9604645E-08 0.75
vt 0.07141113 0.625
vt 5.9604645E-08 0.625
vt 0.07141113 0.5
vt 5.9604645E-08 0.5
vt 0.14282227 0.375
vt 0.07141113 0.375
vt 5.9604645E-08 0.375
vt 0.14282227 0.25
vt 0.07141113 0.25
vt 5.9604645E-08 0.25
vt 0.2142334 0.125
vt 0.25 0
vt 0.14282227 0.125
vt 0.17858887 0
vt 0.07141113 0.125
vt 0.1071167 0
vt 0 0.125
vt 0.035705566 0
vn -0 0.32861328 0.94433594
vn 0.12927246 0.29785156 0.9458008
vn -0 0 1
vn -0 0.63378906 0.7734375
vn 0.25268555 0.5756836 0.77783203
vn 0.23620605 0.20910645 0.94873047
vn -0 0 1
vn -0.25268555 0.5756836 0.77783203
vn -0.12927246 0.29785156 0.9458008
vn -0 0 1
vn -0 0.89208984 0.45166016
vn -0.36010742 0.81347656 0.4567871
vn 0.46362305 0.40576172 0.78759766
vn 0.36010742 0.81347656 0.4567871
vn 0.2980957 0.07556152 0.95166016
vn -0 0 1
vn -0.46362305 0.40576172 0.78759766
vn -0.66748047 0.57910156 0.46826172
vn -0.23620605 0.20910645 0.94873047
vn -0 0 1
vn -0.40625 0.9135742 0
vn -0 1 0
vn -0.75683594 0.6533203 0
vn 0.66748047 0.57910156 0.46826172
vn 0.58740234 0.14709473 0.79589844
vn 0.40625 0.9135742 0
vn 0.2980957 -0.07556152 0.95166016
vn -0 0 1
vn -0.36010742 0.81347656 -0.4567871
vn -0.66748047 0.57910156 -0.46826172
vn -0 0.89208984 -0.45166016
vn -0.9707031 0.23962402 0
vn -0.85253906 0.21154785 -0.47802734
vn -0.85253906 0.21154785 0.47802734
vn -0.58740234 0.14709473 0.79589844
vn -0.2980957 0.07556152 0.95166016
vn -0 0 1
vn -0.9707031 -0.23962402 0
vn -0.85253906 -0.21154785 0.47802734
vn -0.85253906 -0.21154785 -0.47802734
vn -0.58740234 -0.14709473 0.79589844
vn -0.2980957 -0.07556152 0.95166016
vn -0 0 1
vn -0.58740234 -0.14709473 -0.79589844
vn -0.58740234 0.14709473 -0.79589844
vn -0.2980957 -0.07556152 -0.95166016
vn -0.2980957 0.07556152 -0.95166016
vn -0 0 -1
vn -0.46362305 0.40576172 -0.78759766
vn -0.23620605 0.20910645 -0.94873047
vn -0 0 -1
vn -0.25268555 0.5756836 -0.77783203
vn -0.12927246 0.29785156 -0.9458008
vn -0 0 -1
vn -0 0.63378906 -0.7734375
vn 0.36010742 0.81347656 -0.4567871
vn -0 0.32861328 -0.94433594
vn -0 0 -1
vn 0.25268555 0.5756836 -0.77783203
vn 0.75683594 0.6533203 0
vn 0.12927246 0.29785156 -0.9458008
vn -0 0 -1
vn 0.66748047 0.57910156 -0.46826172
vn 0.85253906 0.21154785 0.47802734
vn 0.46362305 0.40576172 -0.78759766
vn 0.9707031 0.23962402 0
vn 0.58740234 -0.14709473 0.79589844
vn 0.23620605 0.20910645 -0.94873047
vn -0 0 -1
vn 0.85253906 0.21154785 -0.47802734
vn 0.85253906 -0.21154785 0.47802734
vn 0.23620605 -0.20910645 0.94873047
vn -0 0 1
vn 0.58740234 0.14709473 -0.79589844
vn 0.9707031 -0.23962402 0
vn 0.46362305 -0.40576172 0.78759766
vn 0.2980957 0.07556152 -0.95166016
vn -0 0 -1
vn 0.85253906 -0.21154785 -0.47802734
vn 0.66748047 -0.57910156 0.46826172
vn 0.12927246 -0.29785156 0.9458008
vn -0 0 1
vn 0.58740234 -0.14709473 -0.79589844
vn 0.75683594 -0.6533203 0
vn 0.25268555 -0.5756836 0.77783203
vn 0.2980957 -0.07556152 -0.95166016
vn -0 0 -1
vn 0.66748047 -0.57910156 -0.46826172
vn 0.36010742 -0.81347656 0.4567871
vn -0 -0.32861328 0.94433594
vn -0 0 1
vn 0.46362305 -0.40576172 -0.78759766
vn 0.40625 -0.9135742 0
vn -0 -0.63378906 0.7734375
vn 0.23620605 -0.20910645 -0.94873047
vn -0 0 -1
vn 0.36010742 -0.81347656 -0.4567871
vn -0 -0.89208984 0.45166016
vn -0.12927246 -0.29785156 0.9458008
vn -0 0 1
vn 0.25268555 -0.5756836 -0.77783203
vn -0 -1 0
vn -0.25268555 -0.5756836 0.77783203
vn 0.12927246 -0.29785156 -0.9458008
vn -0 0 -1
vn -0 -0.89208984 -0.45166016
vn -0.36010742 -0.81347656 0.4567871
vn -0.23620605 -0.20910645 0.94873047
vn -0 0 1
vn -0 -0.63378906 -0.7734375
vn -0.40625 -0.9135742 0
vn -0.46362305 -0.40576172 0.78759766
vn -0.2980957 -0.07556152 0.95166016
vn -0 0 1
vn -0.58740234 -0.14709473 0.79589844
vn -0.66748047 -0.57910156 0.46826172
vn -0.85253906 -0.21154785 0.47802734
vn -0.75683594 -0.6533203 0
vn -0.9707031 -0.23962402 0
vn -0.36010742 -0.81347656 -0.4567871
vn -0.66748047 -0.57910156 -0.46826172
vn -0.85253906 -0.21154785 -0.47802734
vn -0.25268555 -0.5756836 -0.77783203
vn -0.46362305 -0.40576172 -0.78759766
vn -0.58740234 -0.14709473 -0.79589844
vn -0 -0.32861328 -0.94433594
vn -0 0 -1
vn -0.12927246 -0.29785156 -0.9458008
vn -0 0 -1
vn -0.23620605 -0.20910645 -0.94873047
vn -0 0 -1
vn -0.2980957 -0.07556152 -0.95166016
vn -0 0 -1
g TinyCamera_0
f 3/3/3 2/2/2 1/1/1
f 1/1/1 2/2/2 4/4/4
f 2/2/2 5/5/5 4/4/4
f 2/2/2 6/6/6 5/5/5
f 7/7/7 6/6/6 2/2/2
f 1/1/1 4/4/4 8/8/8
f 9/9/9 1/1/1 8/8/8
f 10/10/10 1/1/1 9/9/9
f 4/4/4 5/5/5 11/11/11
f 8/8/8 4/4/4 12/12/12
f 4/4/4 11/11/11 12/12/12
f 6/6/6 13/13/13 5/5/5
f 5/5/5 14/14/14 11/11/11
f 5/5/5 13/13/13 14/14/14
f 6/6/6 15/15/15 13/13/13
f 16/16/16 15/15/15 6/6/6
f 9/9/9 8/8/8 17/17/17
f 8/8/8 12/12/12 18/18/18
f 17/17/17 8/8/8 18/18/18
f 19/19/19 9/9/9 17/17/17
f 20/20/20 9/9/9 19/19/19
f 12/12/12 11/11/11 21/21/21
f 11/11/11 14/14/14 22/22/22
f 11/11/11 22/22/22 21/21/21
f 18/18/18 12/12/12 23/23/23
f 12/12/12 21/21/21 23/23/23
f 13/13/13 24/24/24 14/14/14
f 15/15/15 25/25/25 13/13/13
f 13/13/13 25/25/25 24/24/24
f 14/14/14 26/26/26 22/22/22
f 14/14/14 24/24/24 26/26/26
f 15/15/15 27/27/27 25/25/25
f 28/28/28 27/27/27 15/15/15
f 21/21/21 22/22/22 29/29/29
f 23/23/23 21/21/21 30/30/30
f 21/21/21 29/29/29 30/30/30
f 22/22/22 26/26/26 31/31/31
f 22/22/22 31/31/31 29/29/29
f 18/18/18 23/23/23 32/32/32
f 23/23/23 30/30/30 33/33/33
f 32/32/32 23/23/23 33/33/33
f 34/34/34 18/18/18 32/32/32
f 17/17/17 18/18/18 34/34/34
f 35/35/35 17/17/17 34/34/34
f 19/19/19 17/17/17 35/35/35
f 36/36/36 19/19/19 35/35/35
f 37/37/37 19/19/19 36/36/36
f 34/34/34 32/32/32 38/38/38
f 39/39/39 34/34/34 38/38/38
f 35/35/35 34/34/34 39/39/39
f 38/38/38 32/32/32 40/40/40
f 32/32/32 33/33/33 40/40/40
f 41/41/41 35/35/35 39/39/39
f 36/36/36 35/35/35 41/41/41
f 42/42/42 36/36/36 41/41/41
f 43/43/43 36/36/36 42/42/42
f 40/40/40 33/33/33 44/44/44
f 33/33/33 45/45/45 44/44/44
f 44/44/44 45/45/45 46/46/46
f 33/33/33 30/30/30 45/45/45
f 45/45/45 47/47/47 46/46/46
f 46/46/46 47/47/47 48/48/48
f 30/30/30 49/49/49 45/45/45
f 45/45/45 49/49/49 47/47/47
f 30/30/30 29/29/29 49/49/49
f 49/49/49 50/50/50 47/47/47
f 47/47/47 50/50/50 51/51/51
f 29/29/29 52/52/52 49/49/49
f 49/49/49 52/52/52 50/50/50
f 29/29/29 31/31/31 52/52/52
f 52/52/52 53/53/53 50/50/50
f 50/50/50 53/53/53 54/54/54
f 31/31/31 55/55/55 52/52/52
f 52/52/52 55/55/55 53/53/53
f 31/31/31 56/56/56 55/55/55
f 26/26/26 56/56/56 31/31/31
f 55/55/55 57/57/57 53/53/53
f 53/53/53 57/57/57 58/58/58
f 55/55/55 59/59/59 57/57/57
f 56/56/56 59/59/59 55/55/55
f 26/26/26 60/60/60 56/56/56
f 24/24/24 60/60/60 26/26/26
f 59/59/59 61/61/61 57/57/57
f 57/57/57 61/61/61 62/62/62
f 56/56/56 63/63/63 59/59/59
f 60/60/60 63/63/63 56/56/56
f 24/24/24 64/64/64 60/60/60
f 25/25/25 64/64/64 24/24/24
f 59/59/59 65/65/65 61/61/61
f 63/63/63 65/65/65 59/59/59
f 60/60/60 66/66/66 63/63/63
f 64/64/64 66/66/66 60/60/60
f 25/25/25 67/67/67 64/64/64
f 27/27/27 67/67/67 25/25/25
f 65/65/65 68/68/68 61/61/61
f 61/61/61 68/68/68 69/69/69
f 63/63/63 70/70/70 65/65/65
f 66/66/66 70/70/70 63/63/63
f 64/64/64 71/71/71 66/66/66
f 67/67/67 71/71/71 64/64/64
f 27/27/27 72/72/72 67/67/67
f 73/73/73 72/72/72 27/27/27
f 65/65/65 74/74/74 68/68/68
f 70/70/70 74/74/74 65/65/65
f 66/66/66 75/75/75 70/70/70
f 71/71/71 75/75/75 66/66/66
f 67/67/67 76/76/76 71/71/71
f 72/72/72 76/76/76 67/67/67
f 74/74/74 77/77/77 68/68/68
f 68/68/68 77/77/77 78/78/78
f 70/70/70 79/79/79 74/74/74
f 75/75/75 79/79/79 70/70/70
f 71/71/71 80/80/80 75/75/75
f 76/76/76 80/80/80 71/71/71
f 72/72/72 81/81/81 76/76/76
f 82/82/82 81/81/81 72/72/72
f 74/74/74 83/83/83 77/77/77
f 79/79/79 83/83/83 74/74/74
f 75/75/75 84/84/84 79/79/79
f 80/80/80 84/84/84 75/75/75
f 76/76/76 85/85/85 80/80/80
f 81/81/81 85/85/85 76/76/76
f 83/83/83 86/86/86 77/77/77
f 77/77/77 86/86/86 87/87/87
f 79/79/79 88/88/88 83/83/83
f 84/84/84 88/88/88 79/79/79
f 80/80/80 89/89/89 84/84/84
f 85/85/85 89/89/89 80/80/80
f 81/81/81 90/90/90 85/85/85
f 91/91/91 90/90/90 81/81/81
f 83/83/83 92/92/92 86/86/86
f 88/88/88 92/92/92 83/83/83
f 84/84/84 93/93/93 88/88/88
f 89/89/89 93/93/93 84/84/84
f 90/90/90 94/94/94 85/85/85
f 85/85/85 94/94/94 89/89/89
f 92/92/92 95/95/95 86/86/86
f 86/86/86 95/95/95 96/96/96
f 88/88/88 97/97/97 92/92/92
f 93/93/93 97/97/97 88/88/88
f 89/89/89 98/98/98 93/93/93
f 94/94/94 98/98/98 89/89/89
f 90/90/90 99/99/99 94/94/94
f 100/100/100 99/99/99 90/90/90
f 92/92/92 101/101/101 95/95/95
f 97/97/97 101/101/101 92/92/92
f 93/93/93 102/102/102 97/97/97
f 98/98/98 102/102/102 93/93/93
f 99/99/99 103/103/103 94/94/94
f 94/94/94 103/103/103 98/98/98
f 101/101/101 104/104/104 95/95/95
f 95/95/95 104/104/104 105/105/105
f 97/97/97 106/106/106 101/101/101
f 102/102/102 106/106/106 97/97/97
f 98/98/98 107/107/107 102/102/102
f 103/103/103 107/107/107 98/98/98
f 99/99/99 108/108/108 103/103/103
f 109/109/109 108/108/108 99/99/99
f 101/101/101 110/110/110 104/104/104
f 106/106/106 110/110/110 101/101/101
f 102/102/102 111/111/111 106/106/106
f 107/107/107 111/111/111 102/102/102
f 103/103/103 112/112/112 107/107/107
f 108/108/108 112/112/112 103/103/103
f 108/108/108 113/113/113 112/112/112
f 114/114/114 113/113/113 108/108/108
f 113/113/113 115/115/115 112/112/112
f 112/112/112 116/116/116 107/107/107
f 112/112/112 115/115/115 116/116/116
f 107/107/107 116/116/116 111/111/111
f 115/115/115 117/117/117 116/116/116
f 116/116/116 117/117/117 118/118/118
f 116/116/116 118/118/118 111/111/111
f 117/117/117 119/119/119 118/118/118
f 111/111/111 120/120/120 106/106/106
f 111/111/111 118/118/118 120/120/120
f 106/106/106 120/120/120 110/110/110
f 118/118/118 119/119/119 121/121/121
f 118/118/118 121/121/121 120/120/120
f 119/119/119 122/122/122 121/121/121
f 120/120/120 123/123/123 110/110/110
f 120/120/120 121/121/121 123/123/123
f 121/121/121 122/122/122 124/124/124
f 121/121/121 124/124/124 123/123/123
f 122/122/122 125/125/125 124/124/124
f 110/110/110 123/123/123 126/126/126
f 110/110/110 126/126/126 104/104/104
f 104/104/104 126/126/126 127/127/127
f 123/123/123 128/128/128 126/126/126
f 123/123/123 124/124/124 128/128/128
f 126/126/126 128/128/128 129/129/129
f 124/124/124 125/125/125 130/130/130
f 124/124/124 130/130/130 128/128/128
f 128/128/128 130/130/130 131/131/131
f 125/125/125 132/132/132 130/130/130
f 130/130/130 132/132/132 133/133/133
