g Toothpaste
v -1.0141875 -0.42944092 3.2421877E-08
v -1.0141875 -0.30366057 0.21128741
v -0.16961977 -0.37321764 0.21301922
v -0.16961975 -0.47572374 -3.8859103E-08
v -1.0141875 -0.30366057 -0.21128733
v -1.3094115 -0.25472116 9.885782E-08
v -1.3094115 -0.18011531 -0.11038999
v -1.5126288 -0.18108082 1.10905184E-07
v -1.5126288 -0.12804364 -0.08072655
v -0.16961981 -0.37321764 -0.21301933
v 0.57802767 -0.30366024 -0.17903455
v 0.5780277 -0.38706213 -5.7048418E-08
v 0.5780277 -0.30366024 0.17903443
v 1.2015808 -0.21621418 -0.028380794
v 1.2015808 -0.2755984 -9.329372E-08
v -0.16961986 0.37321833 -0.21301933
v 0.5780276 0.30366033 -0.17903455
v 0.5780276 0.38706177 -5.7048414E-08
v -0.16961984 0.47572413 -3.8859092E-08
v -1.0141875 0.42944074 3.2421884E-08
v -1.0141875 0.30366042 -0.21128733
v -1.3094115 0.18011376 -0.11038999
v -1.3094115 0.25471964 9.885782E-08
v -1.0141875 0.30366042 0.21128741
v -1.3094115 0.18011376 0.110390194
v -1.5126288 0.18107963 1.109052E-07
v -1.5126288 0.12804244 0.080726705
v -0.16961983 0.37321833 0.21301922
v 0.57802767 0.30366033 0.17903443
v 1.2015808 0.21621343 0.028380599
v 1.2015808 0.2755974 -9.3293714E-08
v 0.5780276 0.30366033 -0.17903455
v 1.2015808 0.2755974 -9.3293714E-08
v 0.5780276 0.38706177 -5.7048414E-08
v 1.2015808 0.21621343 -0.028380794
v 0.57802767 5.0531803E-08 -0.25319308
v 1.2015808 -3.667115E-07 -0.04013645
v 0.57802767 -0.30366024 -0.17903455
v 1.2015808 -0.21621418 -0.028380794
v -0.16961981 -0.37321764 -0.21301933
v -0.16961984 3.604198E-07 -0.30125478
v -0.16961986 0.37321833 -0.21301933
v -1.0141875 0.30366042 -0.21128733
v -1.0141875 -8.866307E-08 -0.29880548
v -1.0141875 -0.30366057 -0.21128733
v -1.3094115 -0.18011531 -0.11038999
v -1.3094115 -7.809775E-07 -0.15611507
v -1.5126288 -0.12804364 -0.08072655
v -1.5126288 -6.0605555E-07 -0.11511305
v -1.3094115 0.18011376 -0.11038999
v -1.5126288 0.12804244 -0.08072649
v -1.3094115 0.25471964 9.885782E-08
v -1.5126288 0.18107963 1.109052E-07
v -1.3094115 -0.25472116 9.885782E-08
v -1.5126288 -0.18108082 1.10905184E-07
v -1.5126288 -0.12804364 0.080726765
v -1.3094115 -0.18011531 0.110390194
v -1.0141875 -0.42944092 3.2421877E-08
v -1.5126288 -6.0605555E-07 0.115113266
v -1.0141875 -0.30366057 0.21128741
v -1.3094115 -7.809775E-07 0.15611528
v -1.5126288 0.12804244 0.080726705
v -1.3094115 0.18011376 0.110390194
v -1.0141875 -8.866307E-08 0.2988055
v -1.0141875 0.30366042 0.21128741
v -0.16961983 0.37321833 0.21301922
v -0.1696198 3.604198E-07 0.30125475
v -0.16961977 -0.37321764 0.21301922
v 0.5780277 -0.30366024 0.17903443
v 0.57802767 5.0531803E-08 0.2531929
v 0.57802767 0.30366033 0.17903443
v 1.2015808 -3.667115E-07 0.04013627
v 1.2015808 0.21621343 0.028380599
v 1.2015808 -0.21621418 0.028380599
v 1.2015808 -0.2755984 -9.329372E-08
v 0.5780277 -0.38706213 -5.7048418E-08
v -1.6835197 -0.15569834 0.11541798
v -1.6835197 -0.22019051 7.3622694E-08
v -1.6835197 -0.15569834 -0.11541784
v -1.6835197 -3.6951306E-07 0.16322568
v -1.6835197 -3.6951306E-07 -0.16322553
v -1.6835197 0.15569761 0.11541798
v -1.6835197 0.15569761 -0.11541784
v -1.6835197 0.2201898 7.3622694E-08
v -1.5432591 -3.5725114E-07 -0.1632255
v -1.6835197 -0.15569834 -0.11541784
v -1.5432591 -0.15569834 -0.1154178
v -1.6835197 -3.6951306E-07 -0.16322553
v -1.5432591 0.15569761 -0.1154178
v -1.6835197 0.15569761 -0.11541784
v -1.5432591 0.22018982 1.24384E-07
v -1.6835197 0.2201898 7.3622694E-08
v -1.6835197 0.15569761 -0.11541784
v -1.5432591 0.15569761 -0.1154178
v -1.5432591 0.15569761 0.11541805
v -1.6835197 0.2201898 7.3622694E-08
v -1.6835197 0.15569761 0.11541798
v -1.5432591 -3.5725114E-07 0.16322573
v -1.6835197 0.15569761 0.11541798
v -1.5432591 0.15569761 0.11541805
v -1.6835197 -3.6951306E-07 0.16322568
v -1.5432591 -0.15569834 0.11541805
v -1.6835197 -0.15569834 0.11541798
v -1.5432591 -0.22019048 1.24384E-07
v -1.6835197 -0.22019051 7.3622694E-08
v -1.5432591 -0.15569834 -0.1154178
v -1.6835197 -0.15569834 -0.11541784
v -1.6835197 -0.22019051 7.3622694E-08
v -1.5432591 -0.22019048 1.24384E-07
v 1.2015808 -0.21621418 -0.028380794
v 1.2015808 -0.2755984 -9.329372E-08
v 1.2015808 -0.21621418 0.028380599
v 1.2015808 -3.667115E-07 -0.04013645
v 1.2015808 -3.667115E-07 0.04013627
v 1.2015808 0.21621343 -0.028380794
v 1.2015808 0.21621343 0.028380599
v 1.2015808 0.2755974 -9.3293714E-08
v -1.5126288 -0.18108082 1.10905184E-07
v -1.5432591 -0.15569834 0.11541805
v -1.5126288 -0.12804364 0.080726765
v -1.5432591 -0.22019048 1.24384E-07
v -1.5432591 -3.5725114E-07 0.16322573
v -1.5126288 -0.12804364 -0.08072655
v -1.5126288 -6.0605555E-07 0.115113266
v -1.5432591 -0.15569834 -0.1154178
v -1.5432591 0.15569761 0.11541805
v -1.5126288 -6.0605555E-07 -0.11511305
v -1.5126288 0.12804244 0.080726705
v -1.5432591 -3.5725114E-07 -0.1632255
v -1.5432591 0.22018982 1.24384E-07
v -1.5126288 0.12804244 -0.08072649
v -1.5126288 0.18107963 1.109052E-07
v -1.5432591 0.15569761 -0.1154178
vt 0.7680664 0.17114258
vt 0.71728516 0.17163086
vt 0.71240234 0.4399414
vt 0.76708984 0.43945312
vt 0.85498047 0.1694336
vt 0.7910156 0.076538086
vt 0.8378906 0.07556152
vt 0.80029297 0.011650085
vt 0.83447266 0.010925293
vt 0.8510742 0.43774414
vt 0.85498047 0.6748047
vt 0.78466797 0.67626953
vt 0.73828125 0.6767578
vt 0.8222656 0.8730469
vt 0.8046875 0.87353516
vt 0.54785156 0.4399414
vt 0.57373047 0.6767578
vt 0.6201172 0.67626953
vt 0.60253906 0.43945312
vt 0.6035156 0.17114258
vt 0.5527344 0.17163086
vt 0.6015625 0.076660156
vt 0.6269531 0.076538086
vt 0.6904297 0.1694336
vt 0.67333984 0.07556152
vt 0.63623047 0.011650085
vt 0.6699219 0.010925293
vt 0.68652344 0.43774414
vt 0.6904297 0.6748047
vt 0.6582031 0.8730469
vt 0.6401367 0.87353516
vt 0.49316406 0.6796875
vt 0.4807129 0.8779297
vt 0.5258789 0.6821289
vt 0.4609375 0.8769531
vt 0.39453125 0.6743164
vt 0.39233398 0.87353516
vt 0.3017578 0.6699219
vt 0.3244629 0.8701172
vt 0.29077148 0.43188477
vt 0.40527344 0.43725586
vt 0.5258789 0.44384766
vt 0.5180664 0.1751709
vt 0.41918945 0.16967773
vt 0.3269043 0.1652832
vt 0.37451172 0.07434082
vt 0.42944336 0.07696533
vt 0.39526367 0.010925293
vt 0.43432617 0.012802124
vt 0.4880371 0.08013916
vt 0.47607422 0.015068054
vt 0.515625 0.081970215
vt 0.4958496 0.01637268
vt 0.21228027 0.07489014
vt 0.18762207 0.010925293
vt 0.1652832 0.012367249
vt 0.18103027 0.0769043
vt 0.26904297 0.16748047
vt 0.12298584 0.01361084
vt 0.21447754 0.17114258
vt 0.12164307 0.07861328
vt 0.08569336 0.013893127
vt 0.06903076 0.07904053
vt 0.11364746 0.17419434
vt 0.025680542 0.17480469
vt 0.010925293 0.44311523
vt 0.1204834 0.44213867
vt 0.24291992 0.43847656
vt 0.22998047 0.67578125
vt 0.13012695 0.67822266
vt 0.041229248 0.6791992
vt 0.1508789 0.8730469
vt 0.08459473 0.87402344
vt 0.21899414 0.87158203
vt 0.23950195 0.87109375
vt 0.26904297 0.6723633
vt 0.9892578 0.04425049
vt 0.9560547 0.010925293
vt 0.90966797 0.016204834
vt 0.9892578 0.09661865
vt 0.8769531 0.05697632
vt 0.9560547 0.13745117
vt 0.8769531 0.109375
vt 0.90966797 0.1427002
vt 0.9213867 0.7128906
vt 0.8769531 0.7602539
vt 0.9213867 0.7602539
vt 0.8769531 0.7128906
vt 0.9213867 0.6621094
vt 0.8769531 0.6621094
vt 0.8769531 0.8105469
vt 0.9213867 0.8105469
vt 0.9213867 0.78222656
vt 0.8769531 0.78222656
vt 0.8769531 0.8574219
vt 0.9213867 0.8105469
vt 0.9213867 0.8574219
vt 0.9223633 0.59521484
vt 0.8769531 0.6401367
vt 0.9213867 0.6401367
vt 0.8779297 0.59521484
vt 0.9223633 0.54345703
vt 0.8779297 0.54296875
vt 0.9213867 0.51464844
vt 0.8769531 0.51464844
vt 0.9213867 0.87939453
vt 0.8769531 0.87939453
vt 0.8769531 0.92626953
vt 0.9213867 0.92626953
vt 0.89746094 0.33642578
vt 0.8857422 0.31811523
vt 0.8769531 0.33764648
vt 0.9057617 0.40454102
vt 0.8769531 0.40649414
vt 0.9057617 0.47338867
vt 0.8852539 0.47460938
vt 0.89697266 0.49267578
vt 0.9135742 0.28466797
vt 0.9560547 0.29101562
vt 0.9472656 0.27856445
vt 0.90966797 0.29638672
vt 0.9892578 0.25024414
vt 0.89160156 0.2590332
vt 0.97265625 0.24438477
vt 0.8769531 0.26293945
vt 0.9892578 0.19787598
vt 0.8930664 0.21643066
vt 0.9741211 0.2019043
vt 0.8769531 0.21057129
vt 0.9560547 0.16455078
vt 0.91845703 0.18237305
vt 0.95214844 0.17626953
vt 0.90966797 0.1697998
vn -0.28076172 -0.95996094 0
vn -0.24731445 -0.5908203 0.7680664
vn 0.025680542 -0.63427734 0.7729492
vn 0.023910522 -0.9995117 0
vn -0.24731445 -0.5908203 -0.7680664
vn -0.44726562 -0.89453125 0
vn -0.37109375 -0.54345703 -0.7529297
vn -0.2854004 -0.796875 -0.53222656
vn -0.25390625 -0.5371094 -0.8046875
vn 0.025680542 -0.63427734 -0.7729492
vn 0.17529297 -0.5698242 -0.8027344
vn 0.17114258 -0.98535156 0
vn 0.17529297 -0.5698242 0.8027344
vn 0.2631836 -0.5058594 -0.82128906
vn 0.19604492 -0.8076172 -0.55615234
vn 0.025680542 0.63427734 -0.7729492
vn 0.17529297 0.5698242 -0.8027344
vn 0.17126465 0.98535156 0
vn 0.023910522 0.9995117 0
vn -0.28076172 0.95996094 0
vn -0.24731445 0.5908203 -0.7680664
vn -0.37109375 0.54345703 -0.7529297
vn -0.44726562 0.89453125 0
vn -0.24731445 0.5908203 0.7680664
vn -0.37109375 0.54345703 0.7529297
vn -0.2854004 0.796875 0.53222656
vn -0.25390625 0.5371094 0.8046875
vn 0.025680542 0.63427734 0.7729492
vn 0.17529297 0.5698242 0.8027344
vn 0.2631836 0.5058594 0.82128906
vn 0.19604492 0.8076172 0.55615234
vn 0.17529297 0.5698242 -0.8027344
vn 0.19604492 0.8076172 -0.55615234
vn 0.17126465 0.98535156 0
vn 0.2631836 0.5058594 -0.82128906
vn 0.17675781 0 -0.984375
vn 0.2902832 0 -0.95703125
vn 0.17529297 -0.5698242 -0.8027344
vn 0.2631836 -0.5058594 -0.82128906
vn 0.025680542 -0.63427734 -0.7729492
vn 0.026290894 0 -0.9995117
vn 0.025680542 0.63427734 -0.7729492
vn -0.24731445 0.5908203 -0.7680664
vn -0.21618652 0 -0.9765625
vn -0.24731445 -0.5908203 -0.7680664
vn -0.37109375 -0.54345703 -0.7529297
vn -0.32177734 0 -0.94677734
vn -0.25390625 -0.5371094 -0.8046875
vn -0.20288086 0 -0.9790039
vn -0.37109375 0.54345703 -0.7529297
vn -0.25390625 0.5371094 -0.8046875
vn -0.44726562 0.89453125 0
vn -0.2854004 0.796875 -0.53222656
vn -0.44726562 -0.89453125 0
vn -0.2854004 -0.796875 0.53222656
vn -0.25390625 -0.5371094 0.8046875
vn -0.37109375 -0.54345703 0.7529297
vn -0.28076172 -0.95996094 0
vn -0.20288086 0 0.9790039
vn -0.24731445 -0.5908203 0.7680664
vn -0.32177734 0 0.94677734
vn -0.25390625 0.5371094 0.8046875
vn -0.37109375 0.54345703 0.7529297
vn -0.21618652 0 0.9765625
vn -0.24731445 0.5908203 0.7680664
vn 0.025680542 0.63427734 0.7729492
vn 0.026290894 0 0.9995117
vn 0.025680542 -0.63427734 0.7729492
vn 0.17529297 -0.5698242 0.8027344
vn 0.17675781 0 0.984375
vn 0.17529297 0.5698242 0.8027344
vn 0.2902832 0 0.95703125
vn 0.2631836 0.5058594 0.82128906
vn 0.2631836 -0.5058594 0.82128906
vn 0.19604492 -0.8076172 0.55615234
vn 0.17114258 -0.98535156 0
vn -1 0 0
vn -1 0 0
vn -1 0 0
vn -1 0 0
vn -1 0 0
vn -1 0 0
vn -1 0 0
vn -1 0 0
vn 0.43603516 0 -0.89990234
vn -0 -0.62841797 -0.77783203
vn 0.42041016 -0.56884766 -0.70703125
vn -0 0 -1
vn 0.42041016 0.56884766 -0.70703125
vn -0 0.62841797 -0.77783203
vn 0.41333008 0.91064453 0
vn -0 0.8730469 -0.48779297
vn -0 0.62841797 -0.77783203
vn 0.42041016 0.56884766 -0.70703125
vn 0.42041016 0.56884766 0.70703125
vn -0 0.8730469 0.48779297
vn -0 0.62841797 0.77783203
vn 0.43603516 0 0.89990234
vn -0 0.62841797 0.77783203
vn 0.42041016 0.56884766 0.70703125
vn -0 0 1
vn 0.42041016 -0.56884766 0.70703125
vn -0 -0.62841797 0.77783203
vn 0.41333008 -0.91064453 0
vn -0 -0.8730469 0.48779297
vn 0.42041016 -0.56884766 -0.70703125
vn -0 -0.62841797 -0.77783203
vn -0 -0.8730469 -0.48779297
vn 0.41333008 -0.91064453 0
vn 1 0 0
vn 1 0 0
vn 1 0 0
vn 1 0 0
vn 1 0 0
vn 1 0 0
vn 1 0 0
vn 1 0 0
vn 0.81933594 -0.5732422 0
vn 0.42041016 -0.56884766 0.70703125
vn 0.8178711 -0.35620117 0.45214844
vn 0.41333008 -0.91064453 0
vn 0.43603516 0 0.89990234
vn 0.8178711 -0.35620117 -0.45214844
vn 0.82910156 0 0.55908203
vn 0.42041016 -0.56884766 -0.70703125
vn 0.42041016 0.56884766 0.70703125
vn 0.82910156 0 -0.55908203
vn 0.8178711 0.35620117 0.45214844
vn 0.43603516 0 -0.89990234
vn 0.41333008 0.91064453 0
vn 0.8178711 0.35620117 -0.45214844
vn 0.81933594 0.5732422 0
vn 0.42041016 0.56884766 -0.70703125
g Toothpaste_0
f 3/3/3 2/2/2 1/1/1
f 4/4/4 3/3/3 1/1/1
f 4/4/4 1/1/1 5/5/5
f 1/1/1 6/6/6 5/5/5
f 6/6/6 7/7/7 5/5/5
f 6/6/6 8/8/8 7/7/7
f 8/8/8 9/9/9 7/7/7
f 10/10/10 4/4/4 5/5/5
f 10/10/10 11/11/11 4/4/4
f 4/4/4 12/12/12 3/3/3
f 11/11/11 12/12/12 4/4/4
f 12/12/12 13/13/13 3/3/3
f 11/11/11 14/14/14 12/12/12
f 14/14/14 15/15/15 12/12/12
f 18/18/18 17/17/17 16/16/16
f 19/19/19 18/18/18 16/16/16
f 19/19/19 16/16/16 20/20/20
f 16/16/16 21/21/21 20/20/20
f 21/21/21 22/22/22 20/20/20
f 22/22/22 23/23/23 20/20/20
f 20/20/20 23/23/23 24/24/24
f 19/19/19 20/20/20 24/24/24
f 23/23/23 25/25/25 24/24/24
f 23/23/23 26/26/26 25/25/25
f 26/26/26 27/27/27 25/25/25
f 28/28/28 19/19/19 24/24/24
f 28/28/28 29/29/29 19/19/19
f 29/29/29 18/18/18 19/19/19
f 29/29/29 30/30/30 18/18/18
f 30/30/30 31/31/31 18/18/18
f 34/34/34 33/33/33 32/32/32
f 33/33/33 35/35/35 32/32/32
f 32/32/32 35/35/35 36/36/36
f 35/35/35 37/37/37 36/36/36
f 36/36/36 37/37/37 38/38/38
f 37/37/37 39/39/39 38/38/38
f 36/36/36 38/38/38 40/40/40
f 32/32/32 36/36/36 41/41/41
f 41/41/41 36/36/36 40/40/40
f 42/42/42 32/32/32 41/41/41
f 42/42/42 41/41/41 43/43/43
f 41/41/41 40/40/40 44/44/44
f 41/41/41 44/44/44 43/43/43
f 40/40/40 45/45/45 44/44/44
f 45/45/45 46/46/46 44/44/44
f 44/44/44 47/47/47 43/43/43
f 46/46/46 47/47/47 44/44/44
f 46/46/46 48/48/48 47/47/47
f 48/48/48 49/49/49 47/47/47
f 47/47/47 50/50/50 43/43/43
f 47/47/47 49/49/49 50/50/50
f 49/49/49 51/51/51 50/50/50
f 50/50/50 51/51/51 52/52/52
f 51/51/51 53/53/53 52/52/52
f 56/56/56 55/55/55 54/54/54
f 57/57/57 56/56/56 54/54/54
f 57/57/57 54/54/54 58/58/58
f 59/59/59 56/56/56 57/57/57
f 60/60/60 57/57/57 58/58/58
f 61/61/61 59/59/59 57/57/57
f 61/61/61 57/57/57 60/60/60
f 62/62/62 59/59/59 61/61/61
f 63/63/63 62/62/62 61/61/61
f 63/63/63 61/61/61 64/64/64
f 64/64/64 61/61/61 60/60/60
f 65/65/65 63/63/63 64/64/64
f 66/66/66 65/65/65 64/64/64
f 67/67/67 64/64/64 60/60/60
f 67/67/67 66/66/66 64/64/64
f 68/68/68 67/67/67 60/60/60
f 68/68/68 69/69/69 67/67/67
f 67/67/67 70/70/70 66/66/66
f 69/69/69 70/70/70 67/67/67
f 70/70/70 71/71/71 66/66/66
f 70/70/70 72/72/72 71/71/71
f 72/72/72 73/73/73 71/71/71
f 74/74/74 72/72/72 70/70/70
f 69/69/69 74/74/74 70/70/70
f 75/75/75 74/74/74 69/69/69
f 76/76/76 75/75/75 69/69/69
f 79/79/79 78/78/78 77/77/77
f 77/77/77 80/80/80 79/79/79
f 80/80/80 81/81/81 79/79/79
f 80/80/80 82/82/82 81/81/81
f 82/82/82 83/83/83 81/81/81
f 82/82/82 84/84/84 83/83/83
f 87/87/87 86/86/86 85/85/85
f 86/86/86 88/88/88 85/85/85
f 85/85/85 88/88/88 89/89/89
f 88/88/88 90/90/90 89/89/89
f 93/93/93 92/92/92 91/91/91
f 94/94/94 93/93/93 91/91/91
f 91/91/91 96/96/96 95/95/95
f 96/96/96 97/97/97 95/95/95
f 100/100/100 99/99/99 98/98/98
f 99/99/99 101/101/101 98/98/98
f 98/98/98 101/101/101 102/102/102
f 101/101/101 103/103/103 102/102/102
f 102/102/102 103/103/103 104/104/104
f 103/103/103 105/105/105 104/104/104
f 108/108/108 107/107/107 106/106/106
f 109/109/109 108/108/108 106/106/106
f 112/112/112 111/111/111 110/110/110
f 110/110/110 113/113/113 112/112/112
f 113/113/113 114/114/114 112/112/112
f 113/113/113 115/115/115 114/114/114
f 115/115/115 116/116/116 114/114/114
f 115/115/115 117/117/117 116/116/116
f 120/120/120 119/119/119 118/118/118
f 119/119/119 121/121/121 118/118/118
f 122/122/122 119/119/119 120/120/120
f 118/118/118 121/121/121 123/123/123
f 124/124/124 122/122/122 120/120/120
f 121/121/121 125/125/125 123/123/123
f 126/126/126 122/122/122 124/124/124
f 123/123/123 125/125/125 127/127/127
f 128/128/128 126/126/126 124/124/124
f 125/125/125 129/129/129 127/127/127
f 130/130/130 126/126/126 128/128/128
f 127/127/127 129/129/129 131/131/131
f 132/132/132 130/130/130 128/128/128
f 129/129/129 133/133/133 131/131/131
f 133/133/133 130/130/130 132/132/132
f 131/131/131 133/133/133 132/132/132
