g TragedyMaskEyesFilled
v 0.92124546 0.5753734 0.04520494
v 0.874612 0.7627876 0.037685048
v 0.69291544 0.6875447 0.078499354
v 0.2190132 0.70634145 0.091180965
v 0.45306653 0.6680216 0.10611972
v 0.20266277 0.82242495 0.09531594
v 0.69291544 0.6875447 0.078499354
v 0.874612 0.7627876 0.037685048
v 0.78740275 0.81889427 0.0874516
v 0.69291544 0.6875447 0.078499354
v 0.624936 0.8946709 0.056762833
v 0.579532 0.6877119 0.09511095
v -0.730414 0.8490309 0.062937014
v -0.98208195 0.74079245 -0.025590254
v -0.876987 0.63657373 0.041497394
v 0.35716298 1.0353144 0.030901194
v 0.2751911 0.9394993 0.04127607
v 0.43815508 1.0326896 0.03404134
v 0.45306653 0.6680216 0.10611972
v 0.2751911 0.9394993 0.04127607
v 0.20266277 0.82242495 0.09531594
v 0.3436207 0.61264783 0.10217382
v 0.45306653 0.6680216 0.10611972
v 0.2190132 0.70634145 0.091180965
v 0.23334107 0.5166872 0.12612395
v 0.3436207 0.61264783 0.10217382
v 0.2190132 0.70634145 0.091180965
v 0.69291544 0.6875447 0.078499354
v 0.78740275 0.81889427 0.0874516
v 0.624936 0.8946709 0.056762833
v -0.876987 0.63657373 0.041497394
v -0.98208195 0.74079245 -0.025590254
v -1.0244734 0.6685298 -0.005694938
v -0.876987 0.63657373 0.041497394
v -1.0244734 0.6685298 -0.005694938
v -1.0112628 0.5944878 -0.0076714046
v -0.43437758 1.029972 0.070654035
v -0.52698284 1.0343482 0.058825396
v -0.3248611 0.90364736 0.076833986
v -0.48560554 0.6053701 0.11272351
v -0.29156905 0.8217749 0.06039891
v -0.3248611 0.90364736 0.076833986
v -0.36970258 0.55046374 0.11603762
v -0.29156905 0.8217749 0.06039891
v -0.48560554 0.6053701 0.11272351
v -0.36970258 0.55046374 0.11603762
v -0.2652446 0.5386545 0.123810336
v -0.29156905 0.8217749 0.06039891
v -0.69861215 0.64778125 0.086665906
v -0.730414 0.8490309 0.062937014
v -0.876987 0.63657373 0.041497394
v -1.0143207 0.59602666 -0.0021838709
v -1.0190349 0.66483796 -0.016158111
v -0.876987 0.63657373 0.041497394
v -1.0023783 0.71640944 -0.016924912
v -0.9342913 0.76114225 -0.0038234084
v -0.832422 0.8026591 0.037871856
v -0.69861215 0.64778125 0.086665906
v -0.72902274 0.85919917 0.044287063
v -0.6720176 0.92685854 0.06150038
v -0.48560554 0.6053701 0.11272351
v -0.3248611 0.90364736 0.076833986
v -0.2904906 0.8238233 0.077771574
v -0.28606406 0.7229794 0.090218894
v -0.36975142 0.5496806 0.11332149
v -0.2652446 0.5386545 0.123810336
v -0.41032448 0.9965114 0.061242066
v -0.6206948 0.9840324 0.058887124
v -0.56784564 1.0139356 0.056085132
v -0.45746803 1.0249857 0.05632883
v -0.5141721 1.0320162 0.056208085
v 0.69729394 0.6887884 0.08316428
v 0.902814 0.6943387 0.049577765
v 0.9191125 0.5751773 0.043274377
v 0.86004263 0.7659771 0.070528485
v 0.7864887 0.82012624 0.08631146
v 0.71896064 0.8496975 0.07743383
v 0.63887805 0.88565314 0.06833668
v 0.579532 0.6877119 0.09511095
v 0.58565044 0.9220019 0.06288653
v 0.45306653 0.6680216 0.10611972
v 0.28767368 0.96908516 0.04938709
v 0.49583608 1.0123063 0.04392924
v 0.42825708 1.0363135 0.037424095
v 0.3577378 1.0332894 0.028690564
v 0.23806138 0.87040883 0.060924415
v 0.2190132 0.70634145 0.091180965
v 0.3436207 0.61264783 0.10217382
v 0.29156885 0.55876213 0.10461858
v 0.2255052 0.5112552 0.11449583
v 0.20182788 0.7887408 0.089472815
v 0.20533031 0.8266225 0.08493425
v 0.45306653 0.6680216 0.10611972
v 0.624936 0.8946709 0.056762833
v 0.49583608 1.0123063 0.04392924
v 0.579532 0.6877119 0.09511095
v 0.43815508 1.0326896 0.03404134
v 0.2751911 0.9394993 0.04127607
v 0.49583608 1.0123063 0.04392924
v 0.45306653 0.6680216 0.10611972
v -0.730414 0.8490309 0.062937014
v -0.48560554 0.6053701 0.11272351
v -0.6303014 0.974474 0.064994074
v -0.69861215 0.64778125 0.086665906
v -0.52698284 1.0343482 0.058825396
v -0.6303014 0.974474 0.064994074
v -0.3248611 0.90364736 0.076833986
v -0.48560554 0.6053701 0.11272351
vt 0 0
vt 0 0
vt 0 0
vt 0 0
vt 0 0
vt 0 0
vt 0 0
vt 0 0
vt 0 0
vt 0 0
vt 0 0
vt 0 0
vt 0 0
vt 0 0
vt 0 0
vt 0 0
vt 0 0
vt 0 0
vt 0 0
vt 0 0
vt 0 0
vt 0 0
vt 0 0
vt 0 0
vt 0 0
vt 0 0
vt 0 0
vt 0 0
vt 0 0
vt 0 0
vt 0 0
vt 0 0
vt 0 0
vt 0 0
vt 0 0
vt 0 0
vt 0 0
vt 0 0
vt 0 0
vt 0 0
vt 0 0
vt 0 0
vt 0 0
vt 0 0
vt 0 0
vt 0 0
vt 0 0
vt 0 0
vt 0 0
vt 0 0
vt 0 0
vt 0 0
vt 0 0
vt 0 0
vt 0 0
vt 0 0
vt 0 0
vt 0 0
vt 0 0
vt 0 0
vt 0 0
vt 0 0
vt 0 0
vt 0 0
vt 0 0
vt 0 0
vt 0 0
vt 0 0
vt 0 0
vt 0 0
vt 0 0
vt 0 0
vt 0 0
vt 0 0
vt 0 0
vt 0 0
vt 0 0
vt 0 0
vt 0 0
vt 0 0
vt 0 0
vt 0 0
vt 0 0
vt 0 0
vt 0 0
vt 0 0
vt 0 0
vt 0 0
vt 0 0
vt 0 0
vt 0 0
vt 0 0
vt 0 0
vt 0 0
vt 0 0
vt 0 0
vt 0 0
vt 0 0
vt 0 0
vt 0 0
vt 0 0
vt 0 0
vt 0 0
vt 0 0
vt 0 0
vt 0 0
vt 0 0
vt 0 0
vn -0.18469238 -0.08520508 -0.9790039
vn -0.18469238 -0.08520508 -0.9790039
vn -0.18469238 -0.08520508 -0.9790039
vn 0.07104492 0.04550171 -0.99658203
vn 0.07104492 0.04550171 -0.99658203
vn 0.07104492 0.04550171 -0.99658203
vn -0.32373047 0.29418945 -0.89941406
vn -0.32373047 0.29418945 -0.89941406
vn -0.32373047 0.29418945 -0.89941406
vn -0.14355469 -0.14978027 -0.97802734
vn -0.14355469 -0.14978027 -0.97802734
vn -0.14355469 -0.14978027 -0.97802734
vn 0.3947754 -0.18151855 -0.9003906
vn 0.3947754 -0.18151855 -0.9003906
vn 0.3947754 -0.18151855 -0.9003906
vn 0.033966064 -0.13623047 -0.9902344
vn 0.033966064 -0.13623047 -0.9902344
vn 0.033966064 -0.13623047 -0.9902344
vn -0.16259766 -0.32861328 -0.9301758
vn -0.16259766 -0.32861328 -0.9301758
vn -0.16259766 -0.32861328 -0.9301758
vn 0.056884766 -0.041381836 -0.9975586
vn 0.056884766 -0.041381836 -0.9975586
vn 0.056884766 -0.041381836 -0.9975586
vn -0.052368164 -0.18481445 -0.9814453
vn -0.052368164 -0.18481445 -0.9814453
vn -0.052368164 -0.18481445 -0.9814453
vn 0.1628418 -0.049957275 -0.98535156
vn 0.1628418 -0.049957275 -0.98535156
vn 0.1628418 -0.049957275 -0.98535156
vn 0.20898438 -0.37158203 -0.90478516
vn 0.20898438 -0.37158203 -0.90478516
vn 0.20898438 -0.37158203 -0.90478516
vn 0.31982422 0.08227539 -0.94384766
vn 0.31982422 0.08227539 -0.94384766
vn 0.31982422 0.08227539 -0.94384766
vn 0.12939453 0.06378174 -0.9897461
vn 0.12939453 0.06378174 -0.9897461
vn 0.12939453 0.06378174 -0.9897461
vn -0.32104492 0.05923462 -0.9453125
vn -0.32104492 0.05923462 -0.9453125
vn -0.32104492 0.05923462 -0.9453125
vn -0.059173584 -0.1842041 -0.98095703
vn -0.059173584 -0.1842041 -0.98095703
vn -0.059173584 -0.1842041 -0.98095703
vn 0.04840088 -0.21398926 -0.97558594
vn 0.04840088 -0.21398926 -0.97558594
vn 0.04840088 -0.21398926 -0.97558594
vn 0.24914551 -0.07446289 -0.9658203
vn 0.24914551 -0.07446289 -0.9658203
vn 0.24914551 -0.07446289 -0.9658203
vn -0.34277344 0.16430664 0.9248047
vn -0.3474121 0.14440918 0.9267578
vn -0.3215332 0.13049316 0.9379883
vn -0.3317871 0.15917969 0.9296875
vn -0.36450195 0.16577148 0.9165039
vn -0.26367188 0.13671875 0.9550781
vn -0.17407227 0.1104126 0.9785156
vn -0.32543945 0.140625 0.9350586
vn -0.12548828 0.11328125 0.98583984
vn -0.010574341 0.113464355 0.99365234
vn 0.012184143 0.11199951 0.99365234
vn 0.09112549 0.07745361 0.9926758
vn 0.01953125 0.1295166 0.99121094
vn -0.009117126 0.13647461 0.99072266
vn -0.08062744 0.16992188 0.9819336
vn -0.02960205 0.12988281 0.99121094
vn -0.015304565 0.06970215 0.9975586
vn -0.017181396 0.11743164 0.99316406
vn -0.01537323 0.13171387 0.99121094
vn -0.00217247 -0.0003502369 1
vn 0.07171631 0.0070495605 0.9975586
vn 0.16296387 -0.089660645 0.9824219
vn 0.1619873 -0.030014038 0.9863281
vn 0.15026855 -0.15698242 0.9760742
vn 0.016418457 -0.035095215 0.99902344
vn -0.09857178 0.048675537 0.9941406
vn -0.010986328 0.10821533 0.9941406
vn 0.072509766 0.122924805 0.9897461
vn -0.0026569366 0.16186523 0.9868164
vn -0.009208679 0.13952637 0.9902344
vn -0.046875 0.20227051 0.97802734
vn -0.015037537 0.19628906 0.98046875
vn -0.03652954 0.24853516 0.96777344
vn -0.12915039 0.42919922 0.89404297
vn 0.03543091 0.15185547 0.98779297
vn 0.027511597 0.1348877 0.9902344
vn -0.046203613 0.05557251 0.9975586
vn 0.02331543 0.101989746 0.9946289
vn 0.061523438 0.1204834 0.99072266
vn 0.46069336 0.10369873 0.88134766
vn 0.546875 0.049591064 0.8359375
vn -0.057617188 -0.17053223 -0.9838867
vn -0.057617188 -0.17053223 -0.9838867
vn -0.057617188 -0.17053223 -0.9838867
vn -0.059295654 -0.16931152 -0.9838867
vn 0.086364746 -0.22631836 -0.97021484
vn 0.086364746 -0.22631836 -0.97021484
vn 0.086364746 -0.22631836 -0.97021484
vn 0.07318115 -0.18603516 -0.97998047
vn 0.121154785 -0.080444336 -0.9892578
vn 0.121154785 -0.080444336 -0.9892578
vn 0.121154785 -0.080444336 -0.9892578
vn 0.10101318 -0.10070801 -0.9897461
vn 0.010543823 -0.1204834 -0.9926758
vn 0.010543823 -0.1204834 -0.9926758
vn 0.010543823 -0.1204834 -0.9926758
vn 0.0095825195 -0.124572754 -0.9921875
g TragedyMaskEyesFilled_0
f 3/3/3 2/2/2 1/1/1
f 6/6/6 5/5/5 4/4/4
f 9/9/9 8/8/8 7/7/7
f 12/12/12 11/11/11 10/10/10
f 15/15/15 14/14/14 13/13/13
f 18/18/18 17/17/17 16/16/16
f 21/21/21 20/20/20 19/19/19
f 24/24/24 23/23/23 22/22/22
f 27/27/27 26/26/26 25/25/25
f 30/30/30 29/29/29 28/28/28
f 33/33/33 32/32/32 31/31/31
f 36/36/36 35/35/35 34/34/34
f 39/39/39 38/38/38 37/37/37
f 42/42/42 41/41/41 40/40/40
f 45/45/45 44/44/44 43/43/43
f 48/48/48 47/47/47 46/46/46
f 51/51/51 50/50/50 49/49/49
f 54/54/54 53/53/53 52/52/52
f 55/55/55 53/53/53 54/54/54
f 56/56/56 55/55/55 54/54/54
f 57/57/57 56/56/56 54/54/54
f 57/57/57 54/54/54 58/58/58
f 59/59/59 57/57/57 58/58/58
f 60/60/60 59/59/59 58/58/58
f 60/60/60 58/58/58 61/61/61
f 62/62/62 60/60/60 61/61/61
f 61/61/61 63/63/63 62/62/62
f 64/64/64 63/63/63 61/61/61
f 65/65/65 64/64/64 61/61/61
f 64/64/64 65/65/65 66/66/66
f 62/62/62 67/67/67 60/60/60
f 60/60/60 67/67/67 68/68/68
f 69/69/69 68/68/68 67/67/67
f 69/69/69 67/67/67 70/70/70
f 71/71/71 69/69/69 70/70/70
f 74/74/74 73/73/73 72/72/72
f 73/73/73 75/75/75 72/72/72
f 75/75/75 76/76/76 72/72/72
f 76/76/76 77/77/77 72/72/72
f 78/78/78 72/72/72 77/77/77
f 79/79/79 72/72/72 78/78/78
f 78/78/78 80/80/80 79/79/79
f 79/79/79 80/80/80 81/81/81
f 81/81/81 80/80/80 82/82/82
f 82/82/82 80/80/80 83/83/83
f 82/82/82 83/83/83 84/84/84
f 82/82/82 84/84/84 85/85/85
f 82/82/82 86/86/86 81/81/81
f 86/86/86 87/87/87 81/81/81
f 81/81/81 87/87/87 88/88/88
f 88/88/88 87/87/87 89/89/89
f 89/89/89 87/87/87 90/90/90
f 87/87/87 86/86/86 91/91/91
f 86/86/86 92/92/92 91/91/91
f 95/95/95 94/94/94 93/93/93
f 93/93/93 94/94/94 96/96/96
f 99/99/99 98/98/98 97/97/97
f 100/100/100 98/98/98 99/99/99
f 103/103/103 102/102/102 101/101/101
f 101/101/101 102/102/102 104/104/104
f 107/107/107 106/106/106 105/105/105
f 107/107/107 108/108/108 106/106/106
