g TrapDoor
v -0.5318083 1.6779134 -1.5073266
v -0.5318083 1.8800426 -1.5073266
v -0.5318083 1.8800426 0.5607934
v -0.5318083 1.6779134 0.5607934
v -0.5318083 1.8800426 -1.5073266
v 1.2043853 1.8800426 -1.5073266
v 1.2043853 1.8800426 0.5607934
v -0.5318083 1.8800426 0.5607934
v 1.2043853 1.8800426 -1.5073266
v 1.2043853 1.6779134 -1.5073266
v 1.2043853 1.6779134 0.5607934
v 1.2043853 1.8800426 0.5607934
v 1.2043853 1.6779134 -1.5073266
v -0.5318083 1.6779134 -1.5073266
v -0.5318083 1.6779134 0.5607934
v 1.2043853 1.6779134 0.5607934
v -0.5318083 1.8800426 -1.5073266
v -0.5318083 1.6779134 -1.5073266
v 1.2043853 1.6779134 -1.5073266
v 1.2043853 1.8800426 -1.5073266
v 1.2043853 1.8800426 0.5607934
v 1.2043853 1.6779134 0.5607934
v -0.5318083 1.6779134 0.5607934
v -0.5318083 1.8800426 0.5607934
v -0.5318083 1.4236004 -1.5073266
v -0.5318083 1.6257296 -1.5073266
v -0.5318083 1.6257296 0.5607934
v -0.5318083 1.4236004 0.5607934
v -0.5318083 1.6257296 -1.5073266
v 1.2043853 1.6257296 -1.5073266
v 1.2043853 1.6257296 0.5607934
v -0.5318083 1.6257296 0.5607934
v 1.2043853 1.6257296 -1.5073266
v 1.2043853 1.4236004 -1.5073266
v 1.2043853 1.4236004 0.5607934
v 1.2043853 1.6257296 0.5607934
v 1.2043853 1.4236004 -1.5073266
v -0.5318083 1.4236004 -1.5073266
v -0.5318083 1.4236004 0.5607934
v 1.2043853 1.4236004 0.5607934
v -0.5318083 1.6257296 -1.5073266
v -0.5318083 1.4236004 -1.5073266
v 1.2043853 1.4236004 -1.5073266
v 1.2043853 1.6257296 -1.5073266
v 1.2043853 1.6257296 0.5607934
v 1.2043853 1.4236004 0.5607934
v -0.5318083 1.4236004 0.5607934
v -0.5318083 1.6257296 0.5607934
v -0.5318083 1.1644279 -1.5073266
v -0.5318083 1.3665569 -1.5073266
v -0.5318083 1.3665569 0.5607934
v -0.5318083 1.1644279 0.5607934
v -0.5318083 1.3665569 -1.5073266
v 1.2043853 1.3665569 -1.5073266
v 1.2043853 1.3665569 0.5607934
v -0.5318083 1.3665569 0.5607934
v 1.2043853 1.3665569 -1.5073266
v 1.2043853 1.1644279 -1.5073266
v 1.2043853 1.1644279 0.5607934
v 1.2043853 1.3665569 0.5607934
v 1.2043853 1.1644279 -1.5073266
v -0.5318083 1.1644279 -1.5073266
v -0.5318083 1.1644279 0.5607934
v 1.2043853 1.1644279 0.5607934
v -0.5318083 1.3665569 -1.5073266
v -0.5318083 1.1644279 -1.5073266
v 1.2043853 1.1644279 -1.5073266
v 1.2043853 1.3665569 -1.5073266
v 1.2043853 1.3665569 0.5607934
v 1.2043853 1.1644279 0.5607934
v -0.5318083 1.1644279 0.5607934
v -0.5318083 1.3665569 0.5607934
v -0.5318083 0.9101149 -1.5073266
v -0.5318083 1.112244 -1.5073266
v -0.5318083 1.112244 0.5607934
v -0.5318083 0.9101149 0.5607934
v -0.5318083 1.112244 -1.5073266
v 1.2043853 1.112244 -1.5073266
v 1.2043853 1.112244 0.5607934
v -0.5318083 1.112244 0.5607934
v 1.2043853 1.112244 -1.5073266
v 1.2043853 0.9101149 -1.5073266
v 1.2043853 0.9101149 0.5607934
v 1.2043853 1.112244 0.5607934
v 1.2043853 0.9101149 -1.5073266
v -0.5318083 0.9101149 -1.5073266
v -0.5318083 0.9101149 0.5607934
v 1.2043853 0.9101149 0.5607934
v -0.5318083 1.112244 -1.5073266
v -0.5318083 0.9101149 -1.5073266
v 1.2043853 0.9101149 -1.5073266
v 1.2043853 1.112244 -1.5073266
v 1.2043853 1.112244 0.5607934
v 1.2043853 0.9101149 0.5607934
v -0.5318083 0.9101149 0.5607934
v -0.5318083 1.112244 0.5607934
v -0.5318083 0.6514085 -1.5073266
v -0.5318083 0.85353756 -1.5073266
v -0.5318083 0.85353756 0.5607934
v -0.5318083 0.6514085 0.5607934
v -0.5318083 0.85353756 -1.5073266
v 1.2043853 0.85353756 -1.5073266
v 1.2043853 0.85353756 0.5607934
v -0.5318083 0.85353756 0.5607934
v 1.2043853 0.85353756 -1.5073266
v 1.2043853 0.6514085 -1.5073266
v 1.2043853 0.6514085 0.5607934
v 1.2043853 0.85353756 0.5607934
v 1.2043853 0.6514085 -1.5073266
v -0.5318083 0.6514085 -1.5073266
v -0.5318083 0.6514085 0.5607934
v 1.2043853 0.6514085 0.5607934
v -0.5318083 0.85353756 -1.5073266
v -0.5318083 0.6514085 -1.5073266
v 1.2043853 0.6514085 -1.5073266
v 1.2043853 0.85353756 -1.5073266
v 1.2043853 0.85353756 0.5607934
v 1.2043853 0.6514085 0.5607934
v -0.5318083 0.6514085 0.5607934
v -0.5318083 0.85353756 0.5607934
v -0.5318083 0.39709556 -1.5073266
v -0.5318083 0.5992247 -1.5073266
v -0.5318083 0.5992247 0.5607934
v -0.5318083 0.39709556 0.5607934
v -0.5318083 0.5992247 -1.5073266
v 1.2043853 0.5992247 -1.5073266
v 1.2043853 0.5992247 0.5607934
v -0.5318083 0.5992247 0.5607934
v 1.2043853 0.5992247 -1.5073266
v 1.2043853 0.39709556 -1.5073266
v 1.2043853 0.39709556 0.5607934
v 1.2043853 0.5992247 0.5607934
v 1.2043853 0.39709556 -1.5073266
v -0.5318083 0.39709556 -1.5073266
v -0.5318083 0.39709556 0.5607934
v 1.2043853 0.39709556 0.5607934
v -0.5318083 0.5992247 -1.5073266
v -0.5318083 0.39709556 -1.5073266
v 1.2043853 0.39709556 -1.5073266
v 1.2043853 0.5992247 -1.5073266
v 1.2043853 0.5992247 0.5607934
v 1.2043853 0.39709556 0.5607934
v -0.5318083 0.39709556 0.5607934
v -0.5318083 0.5992247 0.5607934
v -0.5318083 0.13792282 -1.5073266
v -0.5318083 0.340052 -1.5073266
v -0.5318083 0.340052 0.5607934
v -0.5318083 0.13792282 0.5607934
v -0.5318083 0.340052 -1.5073266
v 1.2043853 0.340052 -1.5073266
v 1.2043853 0.340052 0.5607934
v -0.5318083 0.340052 0.5607934
v 1.2043853 0.340052 -1.5073266
v 1.2043853 0.13792282 -1.5073266
v 1.2043853 0.13792282 0.5607934
v 1.2043853 0.340052 0.5607934
v 1.2043853 0.13792282 -1.5073266
v -0.5318083 0.13792282 -1.5073266
v -0.5318083 0.13792282 0.5607934
v 1.2043853 0.13792282 0.5607934
v -0.5318083 0.340052 -1.5073266
v -0.5318083 0.13792282 -1.5073266
v 1.2043853 0.13792282 -1.5073266
v 1.2043853 0.340052 -1.5073266
v 1.2043853 0.340052 0.5607934
v 1.2043853 0.13792282 0.5607934
v -0.5318083 0.13792282 0.5607934
v -0.5318083 0.340052 0.5607934
v -0.6527326 1.1920929E-07 -1.8466578
v -0.6527326 2.0156865 -1.8466578
v -0.6527326 2.0156865 0.9003687
v -0.6527326 1.1920929E-07 0.9003687
v -0.6527326 2.0156865 -1.8466578
v 1.3252943 2.0156865 -1.8466578
v 1.3252943 2.0156865 0.9003687
v -0.6527326 2.0156865 0.9003687
v 1.3252943 2.0156865 -1.8466578
v 1.3252943 1.1920929E-07 -1.8466578
v 1.3252943 1.1920929E-07 0.9003687
v 1.3252943 2.0156865 0.9003687
v 1.3252943 1.1920929E-07 -1.8466578
v -0.6527326 1.1920929E-07 -1.8466578
v -0.6527326 1.1920929E-07 0.9003687
v 1.3252943 1.1920929E-07 0.9003687
v -0.523514 0.13167894 0.9003687
v -0.523514 1.8840076 0.9003687
v -0.523514 1.8840076 -1.8466578
v -0.523514 0.13167894 -1.8466578
v -0.523514 1.8840076 0.9003687
v 1.1960757 1.8840076 0.9003687
v 1.1960757 1.8840076 -1.8466578
v -0.523514 1.8840076 -1.8466578
v 1.1960757 1.8840076 -1.8466578
v 1.1960757 1.8840076 0.9003687
v 1.1960757 0.13167894 0.9003687
v 1.1960757 0.13167894 -1.8466578
v 1.1960757 0.13167894 -1.8466578
v 1.1960757 0.13167894 0.9003687
v -0.523514 0.13167894 0.9003687
v -0.523514 0.13167894 -1.8466578
v 1.3252943 2.0156865 0.9003687
v 1.3252943 1.1920929E-07 0.9003687
v 1.1960757 1.8840076 0.9003687
v -0.6527326 2.0156865 0.9003687
v 1.1960757 0.13167894 0.9003687
v -0.523514 1.8840076 0.9003687
v -0.6527326 1.1920929E-07 0.9003687
v -0.523514 0.13167894 0.9003687
v 1.3252943 2.0156865 -1.8466578
v -0.6527326 2.0156865 -1.8466578
v 1.1960757 1.8840076 -1.8466578
v 1.1960757 0.13167894 -1.8466578
v -0.523514 1.8840076 -1.8466578
v 1.3252943 1.1920929E-07 -1.8466578
v -0.6527326 1.1920929E-07 -1.8466578
v -0.523514 0.13167894 -1.8466578
vt 0.99365234 0.47436523
vt 0.9760742 0.47436523
vt 0.9760742 0.65283203
vt 0.99365234 0.65283203
vt 0.14990234 0.6484375
vt 0 0.6484375
vt 0 0.82714844
vt 0.14990234 0.82714844
vt 0.96533203 0
vt 0.9477539 0
vt 0.9477539 0.17858887
vt 0.96533203 0.17858887
vt 0.94140625 0.65283203
vt 0.7915039 0.65283203
vt 0.7915039 0.83154297
vt 0.94140625 0.83154297
vt 0.06982422 0.82714844
vt 0.052368164 0.82714844
vt 0.052368164 0.9770508
vt 0.06982422 0.9770508
vt 0.15710449 0.82714844
vt 0.13964844 0.82714844
vt 0.13964844 0.9770508
vt 0.15710449 0.9770508
vt 0.9760742 0.23718262
vt 0.9584961 0.23718262
vt 0.9584961 0.41577148
vt 0.9760742 0.41577148
vt 0.79785156 0
vt 0.6479492 0
vt 0.6479492 0.17858887
vt 0.79785156 0.17858887
vt 0.9824219 0
vt 0.96533203 0
vt 0.96533203 0.17858887
vt 0.9824219 0.17858887
vt 0.64160156 0.65283203
vt 0.49145508 0.65283203
vt 0.49145508 0.83154297
vt 0.64160156 0.83154297
vt 0.12219238 0.82714844
vt 0.10473633 0.82714844
vt 0.10473633 0.9770508
vt 0.12219238 0.9770508
vt 0.17456055 0.82714844
vt 0.15710449 0.82714844
vt 0.15710449 0.9770508
vt 0.17456055 0.9770508
vt 1 0
vt 0.9824219 0
vt 0.9824219 0.17858887
vt 1 0.17858887
vt 0.7910156 0.23718262
vt 0.6411133 0.23718262
vt 0.6411133 0.41577148
vt 0.7910156 0.41577148
vt 0.99365234 0.65283203
vt 0.9760742 0.65283203
vt 0.9760742 0.83154297
vt 0.99365234 0.83154297
vt 0.94140625 0.47436523
vt 0.7915039 0.47436523
vt 0.7915039 0.65283203
vt 0.94140625 0.65283203
vt 0.24438477 0.82714844
vt 0.22692871 0.82714844
vt 0.22692871 0.9770508
vt 0.24438477 0.9770508
vt 0.22692871 0.82714844
vt 0.20947266 0.82714844
vt 0.20947266 0.9770508
vt 0.22692871 0.9770508
vt 0.9760742 0.47436523
vt 0.9584961 0.47436523
vt 0.9584961 0.65283203
vt 0.9760742 0.65283203
vt 0.64160156 0.47436523
vt 0.49145508 0.47436523
vt 0.49145508 0.65283203
vt 0.64160156 0.65283203
vt 0.9584961 0.47436523
vt 0.94140625 0.47436523
vt 0.94140625 0.65283203
vt 0.9584961 0.65283203
vt 0.94091797 0.23718262
vt 0.7910156 0.23718262
vt 0.7910156 0.41577148
vt 0.94091797 0.41577148
vt 0.08728027 0.82714844
vt 0.06982422 0.82714844
vt 0.06982422 0.9770508
vt 0.08728027 0.9770508
vt 0.052368164 0.82714844
vt 0.03491211 0.82714844
vt 0.03491211 0.9770508
vt 0.052368164 0.9770508
vt 0.99365234 0.23718262
vt 0.9760742 0.23718262
vt 0.9760742 0.41577148
vt 0.99365234 0.41577148
vt 0.7915039 0.47436523
vt 0.64160156 0.47436523
vt 0.64160156 0.65283203
vt 0.7915039 0.65283203
vt 0.9760742 0.65283203
vt 0.9584961 0.65283203
vt 0.9584961 0.83154297
vt 0.9760742 0.83154297
vt 0.49145508 0.65283203
vt 0.34155273 0.65283203
vt 0.34155273 0.83154297
vt 0.49145508 0.83154297
vt 0.1920166 0.82714844
vt 0.17456055 0.82714844
vt 0.17456055 0.9770508
vt 0.1920166 0.9770508
vt 0.20947266 0.82714844
vt 0.1920166 0.82714844
vt 0.1920166 0.9770508
vt 0.20947266 0.9770508
vt 0.9584961 0.23718262
vt 0.94091797 0.23718262
vt 0.94091797 0.41577148
vt 0.9584961 0.41577148
vt 0.49145508 0.47436523
vt 0.34155273 0.47436523
vt 0.34155273 0.65283203
vt 0.49145508 0.65283203
vt 0.9584961 0.65283203
vt 0.94140625 0.65283203
vt 0.94140625 0.83154297
vt 0.9584961 0.83154297
vt 0.7915039 0.65283203
vt 0.64160156 0.65283203
vt 0.64160156 0.83154297
vt 0.7915039 0.83154297
vt 0.13964844 0.82714844
vt 0.12219238 0.82714844
vt 0.12219238 0.9770508
vt 0.13964844 0.9770508
vt 0.10473633 0.82714844
vt 0.08728027 0.82714844
vt 0.08728027 0.9770508
vt 0.10473633 0.9770508
vt 0.31713867 0.6484375
vt 0.2998047 0.6484375
vt 0.2998047 0.82714844
vt 0.31713867 0.82714844
vt 0.2998047 0.6484375
vt 0.14990234 0.6484375
vt 0.14990234 0.82714844
vt 0.2998047 0.82714844
vt 0.3347168 0.6484375
vt 0.31713867 0.6484375
vt 0.31713867 0.82714844
vt 0.3347168 0.82714844
vt 0.9477539 0
vt 0.79785156 0
vt 0.79785156 0.17858887
vt 0.9477539 0.17858887
vt 0.017456055 0.82714844
vt 0 0.82714844
vt 0 0.9770508
vt 0.017456055 0.9770508
vt 0.03491211 0.82714844
vt 0.017456055 0.82714844
vt 0.017456055 0.9770508
vt 0.03491211 0.9770508
vt 0.34814453 0
vt 0.17407227 0
vt 0.17407227 0.23718262
vt 0.34814453 0.23718262
vt 0.17077637 0.23718262
vt 0 0.23718262
vt 0 0.47436523
vt 0.17077637 0.47436523
vt 0.17407227 0
vt 0 0
vt 0 0.23718262
vt 0.17407227 0.23718262
vt 0.34155273 0.23718262
vt 0.17077637 0.23718262
vt 0.17077637 0.47436523
vt 0.34155273 0.47436523
vt 0.34155273 0.47436523
vt 0.49291992 0.47436523
vt 0.49291992 0.23718262
vt 0.34155273 0.23718262
vt 0.49926758 0.23718262
vt 0.6479492 0.23718262
vt 0.6479492 0
vt 0.49926758 0
vt 0.34814453 0
vt 0.34814453 0.23718262
vt 0.49926758 0.23718262
vt 0.49926758 0
vt 0.49291992 0.23718262
vt 0.49291992 0.47436523
vt 0.6411133 0.47436523
vt 0.6411133 0.23718262
vt 0 0.47436523
vt 0 0.6484375
vt 0.011154175 0.48583984
vt 0.17077637 0.47436523
vt 0.011154175 0.63720703
vt 0.15966797 0.48583984
vt 0.17077637 0.6484375
vt 0.15966797 0.63720703
vt 0.34155273 0.47436523
vt 0.17077637 0.47436523
vt 0.33032227 0.48583984
vt 0.33032227 0.63720703
vt 0.18188477 0.48583984
vt 0.34155273 0.6484375
vt 0.17077637 0.6484375
vt 0.18188477 0.63720703
vn -1 0 0
vn -1 0 0
vn -1 0 0
vn -1 0 0
vn -0 1 0
vn -0 1 0
vn -0 1 0
vn -0 1 0
vn 1 0 0
vn 1 0 0
vn 1 0 0
vn 1 0 0
vn -0 -1 0
vn -0 -1 0
vn -0 -1 0
vn -0 -1 0
vn -0 0 -1
vn -0 0 -1
vn -0 0 -1
vn -0 0 -1
vn -0 0 1
vn -0 0 1
vn -0 0 1
vn -0 0 1
vn -1 0 0
vn -1 0 0
vn -1 0 0
vn -1 0 0
vn -0 1 0
vn -0 1 0
vn -0 1 0
vn -0 1 0
vn 1 0 0
vn 1 0 0
vn 1 0 0
vn 1 0 0
vn -0 -1 0
vn -0 -1 0
vn -0 -1 0
vn -0 -1 0
vn -0 0 -1
vn -0 0 -1
vn -0 0 -1
vn -0 0 -1
vn -0 0 1
vn -0 0 1
vn -0 0 1
vn -0 0 1
vn -1 0 0
vn -1 0 0
vn -1 0 0
vn -1 0 0
vn -0 1 0
vn -0 1 0
vn -0 1 0
vn -0 1 0
vn 1 0 0
vn 1 0 0
vn 1 0 0
vn 1 0 0
vn -0 -1 0
vn -0 -1 0
vn -0 -1 0
vn -0 -1 0
vn -0 0 -1
vn -0 0 -1
vn -0 0 -1
vn -0 0 -1
vn -0 0 1
vn -0 0 1
vn -0 0 1
vn -0 0 1
vn -1 0 0
vn -1 0 0
vn -1 0 0
vn -1 0 0
vn -0 1 0
vn -0 1 0
vn -0 1 0
vn -0 1 0
vn 1 0 0
vn 1 0 0
vn 1 0 0
vn 1 0 0
vn -0 -1 0
vn -0 -1 0
vn -0 -1 0
vn -0 -1 0
vn -0 0 -1
vn -0 0 -1
vn -0 0 -1
vn -0 0 -1
vn -0 0 1
vn -0 0 1
vn -0 0 1
vn -0 0 1
vn -1 0 0
vn -1 0 0
vn -1 0 0
vn -1 0 0
vn -0 1 0
vn -0 1 0
vn -0 1 0
vn -0 1 0
vn 1 0 0
vn 1 0 0
vn 1 0 0
vn 1 0 0
vn -0 -1 0
vn -0 -1 0
vn -0 -1 0
vn -0 -1 0
vn -0 0 -1
vn -0 0 -1
vn -0 0 -1
vn -0 0 -1
vn -0 0 1
vn -0 0 1
vn -0 0 1
vn -0 0 1
vn -1 0 0
vn -1 0 0
vn -1 0 0
vn -1 0 0
vn -0 1 0
vn -0 1 0
vn -0 1 0
vn -0 1 0
vn 1 0 0
vn 1 0 0
vn 1 0 0
vn 1 0 0
vn -0 -1 0
vn -0 -1 0
vn -0 -1 0
vn -0 -1 0
vn -0 0 -1
vn -0 0 -1
vn -0 0 -1
vn -0 0 -1
vn -0 0 1
vn -0 0 1
vn -0 0 1
vn -0 0 1
vn -1 0 0
vn -1 0 0
vn -1 0 0
vn -1 0 0
vn -0 1 0
vn -0 1 0
vn -0 1 0
vn -0 1 0
vn 1 0 0
vn 1 0 0
vn 1 0 0
vn 1 0 0
vn -0 -1 0
vn -0 -1 0
vn -0 -1 0
vn -0 -1 0
vn -0 0 -1
vn -0 0 -1
vn -0 0 -1
vn -0 0 -1
vn -0 0 1
vn -0 0 1
vn -0 0 1
vn -0 0 1
vn -1 0 0
vn -1 0 0
vn -1 0 0
vn -1 0 0
vn -0 1 0
vn -0 1 0
vn -0 1 0
vn -0 1 0
vn 1 0 0
vn 1 0 0
vn 1 0 0
vn 1 0 0
vn -0 -1 0
vn -0 -1 0
vn -0 -1 0
vn -0 -1 0
vn 1 0 0
vn 1 0 0
vn 1 0 0
vn 1 0 0
vn -0 -1 0
vn -0 -1 0
vn -0 -1 0
vn -0 -1 0
vn -1 0 0
vn -1 0 0
vn -1 0 0
vn -1 0 0
vn -0 1 0
vn -0 1 0
vn -0 1 0
vn -0 1 0
vn -0 0 1
vn -0 0 1
vn -0 0 1
vn -0 0 1
vn -0 0 1
vn -0 0 1
vn -0 0 1
vn -0 0 1
vn -0 0 -1
vn -0 0 -1
vn -0 0 -1
vn -0 0 -1
vn -0 0 -1
vn -0 0 -1
vn -0 0 -1
vn -0 0 -1
g TrapDoor_0
f 3/3/3 2/2/2 1/1/1
f 4/4/4 3/3/3 1/1/1
f 7/7/7 6/6/6 5/5/5
f 8/8/8 7/7/7 5/5/5
f 11/11/11 10/10/10 9/9/9
f 12/12/12 11/11/11 9/9/9
f 15/15/15 14/14/14 13/13/13
f 16/16/16 15/15/15 13/13/13
f 19/19/19 18/18/18 17/17/17
f 20/20/20 19/19/19 17/17/17
f 23/23/23 22/22/22 21/21/21
f 24/24/24 23/23/23 21/21/21
f 27/27/27 26/26/26 25/25/25
f 28/28/28 27/27/27 25/25/25
f 31/31/31 30/30/30 29/29/29
f 32/32/32 31/31/31 29/29/29
f 35/35/35 34/34/34 33/33/33
f 36/36/36 35/35/35 33/33/33
f 39/39/39 38/38/38 37/37/37
f 40/40/40 39/39/39 37/37/37
f 43/43/43 42/42/42 41/41/41
f 44/44/44 43/43/43 41/41/41
f 47/47/47 46/46/46 45/45/45
f 48/48/48 47/47/47 45/45/45
f 51/51/51 50/50/50 49/49/49
f 52/52/52 51/51/51 49/49/49
f 55/55/55 54/54/54 53/53/53
f 56/56/56 55/55/55 53/53/53
f 59/59/59 58/58/58 57/57/57
f 60/60/60 59/59/59 57/57/57
f 63/63/63 62/62/62 61/61/61
f 64/64/64 63/63/63 61/61/61
f 67/67/67 66/66/66 65/65/65
f 68/68/68 67/67/67 65/65/65
f 71/71/71 70/70/70 69/69/69
f 72/72/72 71/71/71 69/69/69
f 75/75/75 74/74/74 73/73/73
f 76/76/76 75/75/75 73/73/73
f 79/79/79 78/78/78 77/77/77
f 80/80/80 79/79/79 77/77/77
f 83/83/83 82/82/82 81/81/81
f 84/84/84 83/83/83 81/81/81
f 87/87/87 86/86/86 85/85/85
f 88/88/88 87/87/87 85/85/85
f 91/91/91 90/90/90 89/89/89
f 92/92/92 91/91/91 89/89/89
f 95/95/95 94/94/94 93/93/93
f 96/96/96 95/95/95 93/93/93
f 99/99/99 98/98/98 97/97/97
f 100/100/100 99/99/99 97/97/97
f 103/103/103 102/102/102 101/101/101
f 104/104/104 103/103/103 101/101/101
f 107/107/107 106/106/106 105/105/105
f 108/108/108 107/107/107 105/105/105
f 111/111/111 110/110/110 109/109/109
f 112/112/112 111/111/111 109/109/109
f 115/115/115 114/114/114 113/113/113
f 116/116/116 115/115/115 113/113/113
f 119/119/119 118/118/118 117/117/117
f 120/120/120 119/119/119 117/117/117
f 123/123/123 122/122/122 121/121/121
f 124/124/124 123/123/123 121/121/121
f 127/127/127 126/126/126 125/125/125
f 128/128/128 127/127/127 125/125/125
f 131/131/131 130/130/130 129/129/129
f 132/132/132 131/131/131 129/129/129
f 135/135/135 134/134/134 133/133/133
f 136/136/136 135/135/135 133/133/133
f 139/139/139 138/138/138 137/137/137
f 140/140/140 139/139/139 137/137/137
f 143/143/143 142/142/142 141/141/141
f 144/144/144 143/143/143 141/141/141
f 147/147/147 146/146/146 145/145/145
f 148/148/148 147/147/147 145/145/145
f 151/151/151 150/150/150 149/149/149
f 152/152/152 151/151/151 149/149/149
f 155/155/155 154/154/154 153/153/153
f 156/156/156 155/155/155 153/153/153
f 159/159/159 158/158/158 157/157/157
f 160/160/160 159/159/159 157/157/157
f 163/163/163 162/162/162 161/161/161
f 164/164/164 163/163/163 161/161/161
f 167/167/167 166/166/166 165/165/165
f 168/168/168 167/167/167 165/165/165
f 171/171/171 170/170/170 169/169/169
f 172/172/172 171/171/171 169/169/169
f 175/175/175 174/174/174 173/173/173
f 176/176/176 175/175/175 173/173/173
f 179/179/179 178/178/178 177/177/177
f 180/180/180 179/179/179 177/177/177
f 183/183/183 182/182/182 181/181/181
f 184/184/184 183/183/183 181/181/181
f 187/187/187 186/186/186 185/185/185
f 188/188/188 187/187/187 185/185/185
f 191/191/191 190/190/190 189/189/189
f 192/192/192 191/191/191 189/189/189
f 195/195/195 194/194/194 193/193/193
f 196/196/196 195/195/195 193/193/193
f 199/199/199 198/198/198 197/197/197
f 200/200/200 199/199/199 197/197/197
f 203/203/203 202/202/202 201/201/201
f 201/201/201 204/204/204 203/203/203
f 202/202/202 203/203/203 205/205/205
f 204/204/204 206/206/206 203/203/203
f 207/207/207 202/202/202 205/205/205
f 208/208/208 206/206/206 204/204/204
f 205/205/205 208/208/208 207/207/207
f 208/208/208 204/204/204 207/207/207
f 211/211/211 210/210/210 209/209/209
f 212/212/212 211/211/211 209/209/209
f 211/211/211 213/213/213 210/210/210
f 209/209/209 214/214/214 212/212/212
f 213/213/213 215/215/215 210/210/210
f 216/216/216 212/212/212 214/214/214
f 213/213/213 216/216/216 215/215/215
f 215/215/215 216/216/216 214/214/214
