g tree.002_LOD2.001
v -1.9677781 -0.064068556 0.0003363327
v -1.9677781 4.173257 0.00033623492
v 2.1425617 4.173257 0.00033623492
v 2.1425617 -0.064068556 0.0003363327
v -0.18384615 -0.06406832 -1.9998559
v -0.18384624 4.1732564 -1.9998559
v 0.2399778 4.1732564 2.0885746
v 0.2399779 -0.06406832 2.0885746
v -1.9677781 -0.064068556 0.0003363327
v 2.1425617 -0.064068556 0.0003363327
v 2.1425617 4.173257 0.00033623492
v -1.9677781 4.173257 0.00033623492
v -0.18384615 -0.06406832 -1.9998559
v 0.2399779 -0.06406832 2.0885746
v 0.2399778 4.1732564 2.0885746
v -0.18384624 4.1732564 -1.9998559
vt 0 0
vt 0 1
vt 1 1
vt 1 0
vt 0 0
vt 0 1
vt 1 1
vt 1 0
vt 0 0
vt 1 0
vt 1 1
vt 0 1
vt 0 0
vt 1 0
vt 1 1
vt 0 1
vn -0 0 1
vn -0 0 1
vn -0 0 1
vn -0 0 1
vn -0.99466974 0 0.10311167
vn -0.99466974 0 0.10311167
vn -0.99466974 0 0.10311167
vn -0.99466974 0 0.10311167
vn -0 0 -1
vn -0 0 -1
vn -0 0 -1
vn -0 0 -1
vn 0.99466974 0 -0.10311167
vn 0.99466974 0 -0.10311167
vn 0.99466974 0 -0.10311167
vn 0.99466974 0 -0.10311167
g tree.002_LOD2.001_0
f 3/3/3 2/2/2 1/1/1
f 4/4/4 3/3/3 1/1/1
f 7/7/7 6/6/6 5/5/5
f 8/8/8 7/7/7 5/5/5
f 11/11/11 10/10/10 9/9/9
f 12/12/12 11/11/11 9/9/9
f 15/15/15 14/14/14 13/13/13
f 16/16/16 15/15/15 13/13/13
