g UpButtonLight
v 0.7236073 -0.5257253 -0.44721952
v 0.95105785 -0.30901262 0
v 0.85064787 0 -0.5257359
v 0.42532268 -0.3090114 -0.8506542
v 0.26286882 -0.80901164 -0.52573764
v -0.16245556 -0.49999526 -0.8506544
v 0.42532268 0.3090114 -0.8506542
v 0.7236073 0.5257253 -0.44721952
v 0.26286882 0.80901164 -0.52573764
v -0.16245556 0.49999526 -0.8506544
v -0 0 -1
v -0.5257298 0 -0.8506517
v -0.95105785 0.30901262 0
v -0.7236073 0.5257253 0.44721952
v -0.85064787 0 0.5257359
v -0.42532268 0.3090114 0.8506542
v -0.26286882 0.80901164 0.52573764
v 0.16245556 0.49999526 0.85065436
v -0.42532268 -0.3090114 0.8506542
v -0.7236073 -0.5257253 0.44721952
v -0.26286882 -0.80901164 0.52573764
v 0.16245556 -0.49999526 0.85065436
v -0 0 1
v 0.5257298 0 0.8506517
v -0.5257298 0 -0.8506517
v -0.8944262 0 -0.44721562
v -0.6881894 -0.49999693 -0.5257362
v -0.16245556 -0.49999526 -0.8506544
v -0.95105785 -0.30901262 0
v -0.95105785 0.30901262 0
v -0.85064787 0 0.5257359
v -0.7236073 -0.5257253 0.44721952
v -0.5877856 -0.8090167 0
v -0.26286882 -0.80901164 0.52573764
v -0 -0.99999994 0
v -0.27638802 -0.85064924 -0.44721985
v 0.26286882 -0.80901164 -0.52573764
v -0.16245556 0.49999526 -0.8506544
v -0.6881894 0.49999693 -0.5257362
v -0.5257298 0 -0.8506517
v -0.8944262 0 -0.44721562
v -0.95105785 0.30901262 0
v -0.27638802 0.85064924 -0.44721985
v 0.26286882 0.80901164 -0.52573764
v -0 0.99999994 0
v -0.5877856 0.8090167 0
v -0.7236073 0.5257253 0.44721952
v -0.26286882 0.80901164 0.52573764
v 0.95105785 -0.30901262 0
v 0.95105785 0.30901262 0
v 0.85064787 0 -0.5257359
v 0.8944262 0 0.44721562
v 0.7236073 0.5257253 -0.44721952
v 0.6881894 0.49999693 0.5257362
v 0.5257298 0 0.8506517
v 0.16245556 0.49999526 0.85065436
v 0.5877856 0.8090167 0
v 0.26286882 0.80901164 -0.52573764
v -0 0.99999994 0
v 0.27638802 0.85064924 0.44721985
v -0.26286882 0.80901164 0.52573764
v -0 -0.99999994 0
v 0.5877856 -0.8090167 0
v 0.26286882 -0.80901164 -0.52573764
v 0.7236073 -0.5257253 -0.44721952
v 0.95105785 -0.30901262 0
v 0.27638802 -0.85064924 0.44721985
v -0.26286882 -0.80901164 0.52573764
v 0.16245556 -0.49999526 0.85065436
v 0.6881894 -0.49999693 0.5257362
v 0.8944262 0 0.44721562
v 0.5257298 0 0.8506517
vt 0.12731934 0.54296875
vt 0.017120361 0.5371094
vt 0.04776001 0.68066406
vt 0.19396973 0.68066406
vt 0.2536621 0.5371094
vt 0.32495117 0.7138672
vt 0.11907959 0.8574219
vt 0 0.8442383
vt 0.05770874 1
vt 0.20385742 1
vt 0.24865723 0.8442383
vt 0.3310547 0.9111328
vt 0.64501953 0.5371094
vt 0.53515625 0.54296875
vt 0.6147461 0.68066406
vt 0.46826172 0.68066406
vt 0.4086914 0.5371094
vt 0.33740234 0.7138672
vt 0.54296875 0.8574219
vt 0.6621094 0.8442383
vt 0.6044922 1
vt 0.4584961 1
vt 0.41357422 0.8442383
vt 0.3310547 0.9111328
vt 0.67089844 0.43432617
vt 0.6616211 0.2685547
vt 0.55908203 0.37109375
vt 0.54248047 0.5371094
vt 0.55908203 0.16589355
vt 0.67089844 0.10253906
vt 0.54248047 0
vt 0.44360352 0.09399414
vt 0.4309082 0.2685547
vt 0.33544922 0.16589355
vt 0.33544922 0.37109375
vt 0.44360352 0.4428711
vt 0.40454102 0.5371094
vt 0.80029297 0
vt 0.88134766 0.14648438
vt 0.94628906 0.0072402954
vt 1 0.16589355
vt 0.9482422 0.3269043
vt 0.75146484 0.15356445
vt 0.67089844 0.08251953
vt 0.671875 0.2800293
vt 0.8017578 0.31958008
vt 0.8652344 0.46044922
vt 0.73876953 0.46044922
vt 0.33544922 0.43432617
vt 0.22363281 0.37109375
vt 0.20727539 0.5371094
vt 0.32617188 0.2685547
vt 0.10821533 0.4428711
vt 0.22363281 0.16589355
vt 0.33544922 0.10253906
vt 0.20727539 1.1920929E-07
vt 0.095458984 0.2685547
vt 9.536743E-07 0.37109375
vt 0 0.16589355
vt 0.10821533 0.09399414
vt 0.0690918 0
vt 0.9902344 0.81689453
vt 0.86035156 0.8564453
vt 0.9238281 0.9970703
vt 0.7973633 0.9970703
vt 0.71435547 0.86376953
vt 0.91064453 0.6904297
vt 0.9916992 0.6196289
vt 0.8618164 0.5371094
vt 0.7807617 0.68359375
vt 0.6621094 0.7026367
vt 0.7158203 0.5439453
vn 0.7236328 -0.5258789 -0.44726562
vn 0.9511719 -0.30908203 0
vn 0.85058594 0 -0.5258789
vn 0.42529297 -0.30908203 -0.85058594
vn 0.26293945 -0.80908203 -0.5258789
vn -0.16247559 -0.5 -0.85058594
vn 0.42529297 0.30908203 -0.85058594
vn 0.7236328 0.5258789 -0.44726562
vn 0.26293945 0.80908203 -0.5258789
vn -0.16247559 0.5 -0.85058594
vn -0 0 -1
vn -0.5258789 0 -0.85058594
vn -0.9511719 0.30908203 0
vn -0.7236328 0.5258789 0.44726562
vn -0.85058594 0 0.5258789
vn -0.42529297 0.30908203 0.85058594
vn -0.26293945 0.80908203 0.5258789
vn 0.16247559 0.5 0.85058594
vn -0.42529297 -0.30908203 0.85058594
vn -0.7236328 -0.5258789 0.44726562
vn -0.26293945 -0.80908203 0.5258789
vn 0.16247559 -0.5 0.85058594
vn -0 0 1
vn 0.5258789 0 0.85058594
vn -0.5258789 0 -0.85058594
vn -0.89453125 0 -0.44726562
vn -0.6879883 -0.5 -0.5258789
vn -0.16247559 -0.5 -0.85058594
vn -0.9511719 -0.30908203 0
vn -0.9511719 0.30908203 0
vn -0.85058594 0 0.5258789
vn -0.7236328 -0.5258789 0.44726562
vn -0.5878906 -0.80908203 0
vn -0.26293945 -0.80908203 0.5258789
vn -0 -1 0
vn -0.2763672 -0.85058594 -0.44726562
vn 0.26293945 -0.80908203 -0.5258789
vn -0.16247559 0.5 -0.85058594
vn -0.6879883 0.5 -0.5258789
vn -0.5258789 0 -0.85058594
vn -0.89453125 0 -0.44726562
vn -0.9511719 0.30908203 0
vn -0.2763672 0.85058594 -0.44726562
vn 0.26293945 0.80908203 -0.5258789
vn -0 1 0
vn -0.5878906 0.80908203 0
vn -0.7236328 0.5258789 0.44726562
vn -0.26293945 0.80908203 0.5258789
vn 0.9511719 -0.30908203 0
vn 0.9511719 0.30908203 0
vn 0.85058594 0 -0.5258789
vn 0.89453125 0 0.44726562
vn 0.7236328 0.5258789 -0.44726562
vn 0.6879883 0.5 0.5258789
vn 0.5258789 0 0.85058594
vn 0.16247559 0.5 0.85058594
vn 0.5878906 0.80908203 0
vn 0.26293945 0.80908203 -0.5258789
vn -0 1 0
vn 0.2763672 0.85058594 0.44726562
vn -0.26293945 0.80908203 0.5258789
vn -0 -1 0
vn 0.5878906 -0.80908203 0
vn 0.26293945 -0.80908203 -0.5258789
vn 0.7236328 -0.5258789 -0.44726562
vn 0.9511719 -0.30908203 0
vn 0.2763672 -0.85058594 0.44726562
vn -0.26293945 -0.80908203 0.5258789
vn 0.16247559 -0.5 0.85058594
vn 0.6879883 -0.5 0.5258789
vn 0.89453125 0 0.44726562
vn 0.5258789 0 0.85058594
g UpButtonLight_0
f 3/3/3 2/2/2 1/1/1
f 4/4/4 3/3/3 1/1/1
f 1/1/1 5/5/5 4/4/4
f 4/4/4 5/5/5 6/6/6
f 4/4/4 7/7/7 3/3/3
f 7/7/7 8/8/8 3/3/3
f 9/9/9 8/8/8 7/7/7
f 10/10/10 9/9/9 7/7/7
f 4/4/4 6/6/6 11/11/11
f 11/11/11 7/7/7 4/4/4
f 10/10/10 7/7/7 11/11/11
f 6/6/6 12/12/12 11/11/11
f 12/12/12 10/10/10 11/11/11
f 15/15/15 14/14/14 13/13/13
f 15/15/15 16/16/16 14/14/14
f 14/14/14 16/16/16 17/17/17
f 17/17/17 16/16/16 18/18/18
f 15/15/15 19/19/19 16/16/16
f 20/20/20 19/19/19 15/15/15
f 21/21/21 19/19/19 20/20/20
f 21/21/21 22/22/22 19/19/19
f 16/16/16 23/23/23 18/18/18
f 19/19/19 23/23/23 16/16/16
f 22/22/22 23/23/23 19/19/19
f 18/18/18 23/23/23 24/24/24
f 24/24/24 23/23/23 22/22/22
f 27/27/27 26/26/26 25/25/25
f 28/28/28 27/27/27 25/25/25
f 27/27/27 29/29/29 26/26/26
f 29/29/29 30/30/30 26/26/26
f 29/29/29 31/31/31 30/30/30
f 32/32/32 31/31/31 29/29/29
f 33/33/33 32/32/32 29/29/29
f 27/27/27 33/33/33 29/29/29
f 34/34/34 32/32/32 33/33/33
f 35/35/35 34/34/34 33/33/33
f 36/36/36 27/27/27 28/28/28
f 36/36/36 33/33/33 27/27/27
f 35/35/35 33/33/33 36/36/36
f 37/37/37 36/36/36 28/28/28
f 37/37/37 35/35/35 36/36/36
f 40/40/40 39/39/39 38/38/38
f 41/41/41 39/39/39 40/40/40
f 41/41/41 42/42/42 39/39/39
f 39/39/39 43/43/43 38/38/38
f 43/43/43 44/44/44 38/38/38
f 43/43/43 45/45/45 44/44/44
f 39/39/39 42/42/42 46/46/46
f 39/39/39 46/46/46 43/43/43
f 46/46/46 45/45/45 43/43/43
f 42/42/42 47/47/47 46/46/46
f 46/46/46 48/48/48 45/45/45
f 47/47/47 48/48/48 46/46/46
f 51/51/51 50/50/50 49/49/49
f 50/50/50 52/52/52 49/49/49
f 53/53/53 50/50/50 51/51/51
f 54/54/54 52/52/52 50/50/50
f 54/54/54 55/55/55 52/52/52
f 54/54/54 56/56/56 55/55/55
f 57/57/57 50/50/50 53/53/53
f 57/57/57 54/54/54 50/50/50
f 58/58/58 57/57/57 53/53/53
f 58/58/58 59/59/59 57/57/57
f 60/60/60 56/56/56 54/54/54
f 60/60/60 54/54/54 57/57/57
f 59/59/59 60/60/60 57/57/57
f 61/61/61 56/56/56 60/60/60
f 61/61/61 60/60/60 59/59/59
f 64/64/64 63/63/63 62/62/62
f 65/65/65 63/63/63 64/64/64
f 66/66/66 63/63/63 65/65/65
f 63/63/63 67/67/67 62/62/62
f 67/67/67 68/68/68 62/62/62
f 67/67/67 69/69/69 68/68/68
f 66/66/66 70/70/70 63/63/63
f 70/70/70 67/67/67 63/63/63
f 70/70/70 69/69/69 67/67/67
f 71/71/71 70/70/70 66/66/66
f 70/70/70 72/72/72 69/69/69
f 71/71/71 72/72/72 70/70/70
