g Walkway3
v -0.97100353 71.93884 -0.27936637
v -0.96589494 85.278755 -0.27936637
v -0.96589494 85.278755 1
v -0.97100353 71.93884 1
v -0.96589494 85.278755 -0.27936637
v 3.3755047 84.960434 -0.27936637
v 3.3755047 84.960434 1
v -0.96589494 85.278755 1
v 3.3755047 84.960434 -0.27936637
v 3.4702065 71.92443 -0.27936637
v 3.4702065 71.92443 1
v 3.3755047 84.960434 1
v 3.4702065 71.92443 -0.27936637
v -0.97100353 71.93884 -0.27936637
v -0.97100353 71.93884 1
v 3.4702065 71.92443 1
v -0.96589494 85.278755 -0.27936637
v -0.97100353 71.93884 -0.27936637
v 3.4702065 71.92443 -0.27936637
v 3.3755047 84.960434 -0.27936637
v 3.3755047 84.960434 1
v 3.4702065 71.92443 1
v -0.97100353 71.93884 1
v -0.96589494 85.278755 1
v -1.0285344 85.669655 0.9284992
v -0.97107697 97.65493 -0.27936637
v -0.97107697 97.65493 1
v -1.0285344 85.669655 2.2078657
v -0.97107697 97.65493 -0.27936637
v 3.3699372 97.492836 -0.27936637
v 3.3699372 97.492836 1
v -0.97107697 97.65493 1
v 3.3699372 97.492836 -0.27936637
v 3.3124797 85.50757 -0.27936637
v 3.3124797 85.50757 1
v 3.3699372 97.492836 1
v 3.3124797 85.50757 -0.27936637
v -1.0285344 85.669655 0.9284992
v -1.0285344 85.669655 2.2078657
v 3.3124797 85.50757 1
v -0.97107697 97.65493 -0.27936637
v -1.0285344 85.669655 0.9284992
v 3.3124797 85.50757 -0.27936637
v 3.3699372 97.492836 -0.27936637
v 3.3699372 97.492836 1
v 3.3124797 85.50757 1
v -1.0285344 85.669655 2.2078657
v -0.97107697 97.65493 1
v 1.9952036 73.14469 -1.4865985
v 1.9952036 94.80417 -1.4865985
v 1.9952036 94.80417 -0.14736885
v 1.9952036 73.14469 -0.14736885
v 1.9952036 94.80417 -1.4865985
v 2.6339273 94.80417 -1.4865985
v 2.6339273 94.80417 -0.14736885
v 1.9952036 94.80417 -0.14736885
v 2.6339273 94.80417 -1.4865985
v 2.6339273 73.14469 -1.4865985
v 2.6339273 73.14469 -0.14736885
v 2.6339273 94.80417 -0.14736885
v 2.6339273 73.14469 -1.4865985
v 1.9952036 73.14469 -1.4865985
v 1.9952036 73.14469 -0.14736885
v 2.6339273 73.14469 -0.14736885
v 1.9952036 94.80417 -1.4865985
v 1.9952036 73.14469 -1.4865985
v 2.6339273 73.14469 -1.4865985
v 2.6339273 94.80417 -1.4865985
v 2.6339273 94.80417 -0.14736885
v 2.6339273 73.14469 -0.14736885
v 1.9952036 73.14469 -0.14736885
v 1.9952036 94.80417 -0.14736885
v -0.28419238 73.36941 -1.4865985
v 0.6425272 94.824036 -1.4865985
v 0.6425272 94.824036 -0.14736885
v -0.28419238 73.36941 -0.14736885
v 0.6425272 94.824036 -1.4865985
v 1.2752098 94.579445 -1.4865985
v 1.2752098 94.579445 -0.14736885
v 0.6425272 94.824036 -0.14736885
v 1.2752098 94.579445 -1.4865985
v 0.34849054 73.124825 -1.4865985
v 0.34849054 73.124825 -0.14736885
v 1.2752098 94.579445 -0.14736885
v 0.34849054 73.124825 -1.4865985
v -0.28419238 73.36941 -1.4865985
v -0.28419238 73.36941 -0.14736885
v 0.34849054 73.124825 -0.14736885
v 0.6425272 94.824036 -1.4865985
v -0.28419238 73.36941 -1.4865985
v 0.34849054 73.124825 -1.4865985
v 1.2752098 94.579445 -1.4865985
v 1.2752098 94.579445 -0.14736885
v 0.34849054 73.124825 -0.14736885
v -0.28419238 73.36941 -0.14736885
v 0.6425272 94.824036 -0.14736885
vt 2.3145406 1.1850946
vt 2.3145406 -0.42656326
vt 2.1599746 -0.42656326
vt 2.1599746 1.1850946
vt 1.420098 2.836366
vt 1.420098 2.310539
vt 1.265532 2.310539
vt 1.265532 2.836366
vt 2.4691064 1.1116614
vt 2.4691064 -0.46327972
vt 2.3145406 -0.46327972
vt 2.3145406 1.1116614
vt 1.265532 2.8470254
vt 1.265532 2.3105383
vt 1.110966 2.3105383
vt 1.110966 2.8470254
vt 0.05625567 -0.42458922
vt 0.05625567 -2.0357733
vt -0.4789937 -2.0382211
vt -0.46697813 -0.46375352
vt -1.0022297 -1.9990566
vt -1.0142443 -0.42458922
vt -0.47899485 -0.4270764
vt -0.47899485 -2.0382211
vt 0.2100431 2.5096924
vt 0.2100431 1.0543363
vt 0.056258142 1.0698521
vt 0.056258142 2.5251684
vt 1.8837945 2.8352764
vt 1.8837945 2.3105383
vt 1.7292285 2.3105383
vt 1.7292285 2.8352764
vt 2.7782385 2.3059747
vt 2.7782385 0.8580016
vt 2.6236727 0.8580016
vt 2.6236727 2.3059747
vt 0.58015543 2.2508094
vt 0.58015543 2.7954686
vt 0.7290705 2.8368807
vt 0.7290705 2.2922218
vt -0.48070365 1.0372416
vt -0.48070496 -0.41400856
vt -1.0142443 -0.42458922
vt -1.0040843 1.0229496
vt -0.47054243 -0.4102974
vt -0.48070365 1.0372416
vt 0.052836925 1.0266607
vt 0.052836925 -0.42458922
vt 0.12347861 0.9982834
vt 0.12347862 0
vt 0.061739326 0
vt 0.06173931 0.9982834
vt 0.39404774 0.18521786
vt 0.3651018 0.18521786
vt 0.3651018 0.24695718
vt 0.39404774 0.24695718
vt 0.061739296 0.9982834
vt 0.06173931 0
vt 1.4901161E-08 0
vt 0 0.9982834
vt 0.39404774 0.12347865
vt 0.3651018 0.12347865
vt 0.3651018 0.18521798
vt 0.39404774 0.18521798
vt 0.33565605 0
vt 0.33565593 0.99851227
vt 0.36510146 0.99851227
vt 0.36510146 0
vt 0.30621028 0
vt 0.30621028 0.99851227
vt 0.33565593 0.99851227
vt 0.33565593 0
vt 0.18521792 0.98976135
vt 0.18521792 0
vt 0.12347863 0
vt 0.123478614 0.98976135
vt 0.39584255 0
vt 0.3651018 0
vt 0.3651018 0.061739326
vt 0.39584255 0.061739326
vt 0.24695723 0.98976135
vt 0.24695724 0
vt 0.18521795 0
vt 0.18521793 0.98976135
vt 0.3958416 0.061739326
vt 0.3651018 0.061739326
vt 0.3651018 0.12347865
vt 0.3958416 0.12347865
vt 0.2469573 0
vt 0.2469573 0.98999023
vt 0.27658367 1
vt 0.2765839 0.010009766
vt 0.30621004 0.98999023
vt 0.30621004 0
vt 0.27658367 0.010009766
vt 0.27658367 1
vn -1 0.00038295588 0
vn -1 0.00038295588 0
vn -1 0.00038295588 0
vn -1 0.00038295588 0
vn 0.07312596 0.99732274 0
vn 0.07312596 0.99732274 0
vn 0.07312596 0.99732274 0
vn 0.07312596 0.99732274 0
vn 0.99997365 0.0072644325 0
vn 0.99997365 0.0072644325 0
vn 0.99997365 0.0072644325 0
vn 0.99997365 0.0072644325 0
vn -0.0032450284 -0.99999475 0
vn -0.0032450284 -0.99999475 0
vn -0.0032450284 -0.99999475 0
vn -0.0032450284 -0.99999475 0
vn -0 0 -1
vn -0 0 -1
vn -0 0 -1
vn -0 0 -1
vn -0 0 1
vn -0 0 1
vn -0 0 1
vn -0 0 1
vn -0.99998856 0.004793946 0
vn -0.99998856 0.004793946 0
vn -0.99998856 0.004793946 0
vn -0.99998856 0.004793946 0
vn 0.037314147 0.9993036 0
vn 0.037314147 0.9993036 0
vn 0.037314147 0.9993036 0
vn 0.037314147 0.9993036 0
vn 0.99998856 -0.0047939573 0
vn 0.99998856 -0.0047939573 0
vn 0.99998856 -0.0047939573 0
vn 0.99998856 -0.0047939573 0
vn -0.0373124 -0.9993037 0
vn -0.0373124 -0.9993037 0
vn -0.0373124 -0.9993037 0
vn -0.0373124 -0.9993037 0
vn -0.13942946 -0.049167383 -0.98901063
vn -0.13942946 -0.049167383 -0.98901063
vn -0.13942946 -0.049167383 -0.98901063
vn -0.13942946 -0.049167383 -0.98901063
vn 0.1394295 0.049167387 0.98901063
vn 0.1394295 0.049167387 0.98901063
vn 0.1394295 0.049167387 0.98901063
vn 0.1394295 0.049167387 0.98901063
vn -1 0 0
vn -1 0 0
vn -1 0 0
vn -1 0 0
vn -0 1 0
vn -0 1 0
vn -0 1 0
vn -0 1 0
vn 1 0 0
vn 1 0 0
vn 1 0 0
vn 1 0 0
vn -0 -1 0
vn -0 -1 0
vn -0 -1 0
vn -0 -1 0
vn -0 0 -1
vn -0 0 -1
vn -0 0 -1
vn -0 0 -1
vn -0 0 1
vn -0 0 1
vn -0 0 1
vn -0 0 1
vn -0.99906844 0.043154154 0
vn -0.99906844 0.043154154 0
vn -0.99906844 0.043154154 0
vn -0.99906844 0.043154154 0
vn 0.36058554 0.93272614 0
vn 0.36058554 0.93272614 0
vn 0.36058554 0.93272614 0
vn 0.36058554 0.93272614 0
vn 0.99906844 -0.043154154 0
vn 0.99906844 -0.043154154 0
vn 0.99906844 -0.043154154 0
vn 0.99906844 -0.043154154 0
vn -0.3605756 -0.93273 0
vn -0.3605756 -0.93273 0
vn -0.3605756 -0.93273 0
vn -0.3605756 -0.93273 0
vn -0 0 -1
vn -0 0 -1
vn -0 0 -1
vn -0 0 -1
vn -0 0 1
vn -0 0 1
vn -0 0 1
vn -0 0 1
g Walkway3_0
f 3/3/3 2/2/2 1/1/1
f 4/4/4 3/3/3 1/1/1
f 7/7/7 6/6/6 5/5/5
f 8/8/8 7/7/7 5/5/5
f 11/11/11 10/10/10 9/9/9
f 12/12/12 11/11/11 9/9/9
f 15/15/15 14/14/14 13/13/13
f 16/16/16 15/15/15 13/13/13
f 19/19/19 18/18/18 17/17/17
f 20/20/20 19/19/19 17/17/17
f 23/23/23 22/22/22 21/21/21
f 24/24/24 23/23/23 21/21/21
f 27/27/27 26/26/26 25/25/25
f 28/28/28 27/27/27 25/25/25
f 31/31/31 30/30/30 29/29/29
f 32/32/32 31/31/31 29/29/29
f 35/35/35 34/34/34 33/33/33
f 36/36/36 35/35/35 33/33/33
f 39/39/39 38/38/38 37/37/37
f 40/40/40 39/39/39 37/37/37
f 43/43/43 42/42/42 41/41/41
f 44/44/44 43/43/43 41/41/41
f 47/47/47 46/46/46 45/45/45
f 48/48/48 47/47/47 45/45/45
g Walkway3_1
f 51/51/51 50/50/50 49/49/49
f 52/52/52 51/51/51 49/49/49
f 55/55/55 54/54/54 53/53/53
f 56/56/56 55/55/55 53/53/53
f 59/59/59 58/58/58 57/57/57
f 60/60/60 59/59/59 57/57/57
f 63/63/63 62/62/62 61/61/61
f 64/64/64 63/63/63 61/61/61
f 67/67/67 66/66/66 65/65/65
f 68/68/68 67/67/67 65/65/65
f 71/71/71 70/70/70 69/69/69
f 72/72/72 71/71/71 69/69/69
f 75/75/75 74/74/74 73/73/73
f 76/76/76 75/75/75 73/73/73
f 79/79/79 78/78/78 77/77/77
f 80/80/80 79/79/79 77/77/77
f 83/83/83 82/82/82 81/81/81
f 84/84/84 83/83/83 81/81/81
f 87/87/87 86/86/86 85/85/85
f 88/88/88 87/87/87 85/85/85
f 91/91/91 90/90/90 89/89/89
f 92/92/92 91/91/91 89/89/89
f 95/95/95 94/94/94 93/93/93
f 96/96/96 95/95/95 93/93/93
