g Walkway2
v -1.0285344 47.62363 -0.27936637
v -0.97107697 59.6089 -0.27936637
v -0.97107697 59.6089 1
v -1.0285344 47.62363 1
v -0.97107697 59.6089 -0.27936637
v 3.3699372 59.446808 -0.27936637
v 3.3699372 59.446808 1
v -0.97107697 59.6089 1
v 3.3699372 59.446808 -0.27936637
v 3.3124797 47.46154 -1.471772
v 3.3124797 47.46154 -0.19240558
v 3.3699372 59.446808 1
v 3.3124797 47.46154 -1.471772
v -1.0285344 47.62363 -0.27936637
v -1.0285344 47.62363 1
v 3.3124797 47.46154 -0.19240558
v -0.97107697 59.6089 -0.27936637
v -1.0285344 47.62363 -0.27936637
v 3.3124797 47.46154 -1.471772
v 3.3699372 59.446808 -0.27936637
v 3.3699372 59.446808 1
v 3.3124797 47.46154 -0.19240558
v -1.0285344 47.62363 1
v -0.97107697 59.6089 1
v -0.97100353 59.700027 -0.27936637
v -0.96589494 71.686356 -0.27936637
v -0.96589494 71.686356 1
v -0.97100353 59.700027 1
v -0.96589494 71.686356 -0.27936637
v 3.3755047 71.67195 -0.27936637
v 3.3755047 71.67195 1
v -0.96589494 71.686356 1
v 3.3755047 71.67195 -0.27936637
v 3.3703961 59.685616 -0.27936637
v 3.3703961 59.685616 1
v 3.3755047 71.67195 1
v 3.3703961 59.685616 -0.27936637
v -0.97100353 59.700027 -0.27936637
v -0.97100353 59.700027 1
v 3.3703961 59.685616 1
v -0.96589494 71.686356 -0.27936637
v -0.97100353 59.700027 -0.27936637
v 3.3703961 59.685616 -0.27936637
v 3.3755047 71.67195 -0.27936637
v 3.3755047 71.67195 1
v 3.3703961 59.685616 1
v -0.97100353 59.700027 1
v -0.96589494 71.686356 1
v 1.9952036 50.4601 -1.4865985
v 1.9952036 72.119576 -1.4865985
v 1.9952036 72.119576 -0.14736885
v 1.9952036 50.4601 -0.14736885
v 1.9952036 72.119576 -1.4865985
v 2.6339273 72.119576 -1.4865985
v 2.6339273 72.119576 -0.14736885
v 1.9952036 72.119576 -0.14736885
v 2.6339273 72.119576 -1.4865985
v 2.6339273 50.4601 -1.4865985
v 2.6339273 50.4601 -0.14736885
v 2.6339273 72.119576 -0.14736885
v 2.6339273 50.4601 -1.4865985
v 1.9952036 50.4601 -1.4865985
v 1.9952036 50.4601 -0.14736885
v 2.6339273 50.4601 -0.14736885
v 1.9952036 72.119576 -1.4865985
v 1.9952036 50.4601 -1.4865985
v 2.6339273 50.4601 -1.4865985
v 2.6339273 72.119576 -1.4865985
v 2.6339273 72.119576 -0.14736885
v 2.6339273 50.4601 -0.14736885
v 1.9952036 50.4601 -0.14736885
v 1.9952036 72.119576 -0.14736885
v -0.06274617 50.4601 -1.4865985
v -0.06274617 72.119576 -1.4865985
v -0.06274617 72.119576 -0.14736885
v -0.06274617 50.4601 -0.14736885
v -0.06274617 72.119576 -1.4865985
v 0.57597756 72.119576 -1.4865985
v 0.57597756 72.119576 -0.14736885
v -0.06274617 72.119576 -0.14736885
v 0.57597756 72.119576 -1.4865985
v 0.57597756 50.4601 -1.4865985
v 0.57597756 50.4601 -0.14736885
v 0.57597756 72.119576 -0.14736885
v 0.57597756 50.4601 -1.4865985
v -0.06274617 50.4601 -1.4865985
v -0.06274617 50.4601 -0.14736885
v 0.57597756 50.4601 -0.14736885
v -0.06274617 72.119576 -1.4865985
v -0.06274617 50.4601 -1.4865985
v 0.57597756 50.4601 -1.4865985
v 0.57597756 72.119576 -1.4865985
v 0.57597756 72.119576 -0.14736885
v 0.57597756 50.4601 -0.14736885
v -0.06274617 50.4601 -0.14736885
v -0.06274617 72.119576 -0.14736885
vt 2.7782378 0.8579029
vt 2.7782378 -0.59010965
vt 2.623672 -0.59010965
vt 2.623672 0.8579029
vt 1.7292292 2.835285
vt 1.7292292 2.3105383
vt 1.5746632 2.3105383
vt 1.5746632 2.835285
vt 0.2100431 1.0696545
vt 0.2100431 2.5248132
vt 0.3638503 2.5095148
vt 0.3638503 1.0543561
vt 0.7290708 2.2508101
vt 0.7290708 2.7949722
vt 0.87812173 2.8358917
vt 0.87812173 2.29173
vt -1.0212581 1.0422752
vt -1.0212581 -0.40528345
vt -1.5543139 -0.4250235
vt -1.5446129 1.0260885
vt -2.0776677 -0.40883666
vt -2.0873697 1.0422752
vt -1.5543139 1.0225548
vt -1.5543139 -0.4250235
vt 2.6236727 0.85804117
vt 2.6236727 -0.59009
vt 2.4691064 -0.59009
vt 2.4691064 0.85804117
vt -1.9328039 2.9541116
vt -1.9328039 2.4296808
vt -2.0873697 2.4296808
vt -2.0873697 2.9541116
vt 2.6236727 -0.59010965
vt 2.6236727 -2.0382211
vt 2.4691064 -2.0382211
vt 2.4691064 -0.59010965
vt -1.7782378 2.9541101
vt -1.7782378 2.4296796
vt -1.9328039 2.4296796
vt -1.9328039 2.9541101
vt 2.1576016 2.3105347
vt 2.1576016 0.86285776
vt 1.6342835 0.86222607
vt 1.6342835 2.3099034
vt 1.110966 0.86285776
vt 1.110966 2.310515
vt 1.6342835 2.3098834
vt 1.6342835 0.86222607
vt 0.18549338 1
vt 0.18549338 0
vt 0.12366227 0
vt 0.123662256 1
vt 0.39477134 0.12366223
vt 0.36528206 0.12366223
vt 0.36528206 0.18549335
vt 0.39477134 0.18549335
vt 0.12366225 1
vt 0.12366226 0
vt 0.061831146 0
vt 0.06183113 1
vt 0.39477158 0
vt 0.36528218 0
vt 0.36528218 0.061831117
vt 0.39477158 0.061831117
vt 0.3357929 0
vt 0.33579278 1
vt 0.36528206 1
vt 0.3652823 0
vt 0.30630326 0
vt 0.30630326 1
vt 0.33579254 1
vt 0.33579278 0
vt 0.2473245 1
vt 0.2473245 0
vt 0.1854934 0
vt 0.18549338 1
vt 0.39477152 0.18549335
vt 0.36528218 0.18549335
vt 0.36528218 0.24732447
vt 0.39477152 0.24732447
vt 0.061831117 1
vt 0.06183113 0
vt 1.4901161E-08 0
vt 0 1
vt 0.39477155 0.061831117
vt 0.3652822 0.061831117
vt 0.36528218 0.12366223
vt 0.39477155 0.12366223
vt 0.24732459 0
vt 0.2473245 1
vt 0.27681383 1
vt 0.27681392 0
vt 0.27681398 0
vt 0.27681392 1
vt 0.30630326 1
vt 0.30630338 0
vn -0.99998856 0.0047939494 0
vn -0.99998856 0.0047939494 0
vn -0.99998856 0.0047939494 0
vn -0.99998856 0.0047939494 0
vn 0.03731327 0.9993036 0
vn 0.03731327 0.9993036 0
vn 0.03731327 0.9993036 0
vn 0.03731327 0.9993036 0
vn 0.99998856 -0.0047939573 0
vn 0.99998856 -0.0047939573 0
vn 0.99998856 -0.0047939573 0
vn 0.99998856 -0.0047939573 0
vn -0.03731327 -0.9993036 0
vn -0.03731327 -0.9993036 0
vn -0.03731327 -0.9993036 0
vn -0.03731327 -0.9993036 0
vn -0.13406712 0.04987579 -0.98971635
vn -0.13406712 0.04987579 -0.98971635
vn -0.13406712 0.04987579 -0.98971635
vn -0.13406712 0.04987579 -0.98971635
vn 0.1340671 -0.04987579 0.98971635
vn 0.1340671 -0.04987579 0.98971635
vn 0.1340671 -0.04987579 0.98971635
vn 0.1340671 -0.04987579 0.98971635
vn -0.9999999 0.00042620202 0
vn -0.9999999 0.00042620202 0
vn -0.9999999 0.00042620202 0
vn -0.9999999 0.00042620202 0
vn 0.0033178744 0.9999945 0
vn 0.0033178744 0.9999945 0
vn 0.0033178744 0.9999945 0
vn 0.0033178744 0.9999945 0
vn 0.9999999 -0.0004261862 0
vn 0.9999999 -0.0004261862 0
vn 0.9999999 -0.0004261862 0
vn 0.9999999 -0.0004261862 0
vn -0.0033196313 -0.9999945 0
vn -0.0033196313 -0.9999945 0
vn -0.0033196313 -0.9999945 0
vn -0.0033196313 -0.9999945 0
vn -0 0 -1
vn -0 0 -1
vn -0 0 -1
vn -0 0 -1
vn -0 0 1
vn -0 0 1
vn -0 0 1
vn -0 0 1
vn -1 0 0
vn -1 0 0
vn -1 0 0
vn -1 0 0
vn -0 1 0
vn -0 1 0
vn -0 1 0
vn -0 1 0
vn 1 0 0
vn 1 0 0
vn 1 0 0
vn 1 0 0
vn -0 -1 0
vn -0 -1 0
vn -0 -1 0
vn -0 -1 0
vn -0 0 -1
vn -0 0 -1
vn -0 0 -1
vn -0 0 -1
vn -0 0 1
vn -0 0 1
vn -0 0 1
vn -0 0 1
vn -1 0 0
vn -1 0 0
vn -1 0 0
vn -1 0 0
vn -0 1 0
vn -0 1 0
vn -0 1 0
vn -0 1 0
vn 1 0 0
vn 1 0 0
vn 1 0 0
vn 1 0 0
vn -0 -1 0
vn -0 -1 0
vn -0 -1 0
vn -0 -1 0
vn -0 0 -1
vn -0 0 -1
vn -0 0 -1
vn -0 0 -1
vn -0 0 1
vn -0 0 1
vn -0 0 1
vn -0 0 1
g Walkway2_0
f 3/3/3 2/2/2 1/1/1
f 4/4/4 3/3/3 1/1/1
f 7/7/7 6/6/6 5/5/5
f 8/8/8 7/7/7 5/5/5
f 11/11/11 10/10/10 9/9/9
f 12/12/12 11/11/11 9/9/9
f 15/15/15 14/14/14 13/13/13
f 16/16/16 15/15/15 13/13/13
f 19/19/19 18/18/18 17/17/17
f 20/20/20 19/19/19 17/17/17
f 23/23/23 22/22/22 21/21/21
f 24/24/24 23/23/23 21/21/21
f 27/27/27 26/26/26 25/25/25
f 28/28/28 27/27/27 25/25/25
f 31/31/31 30/30/30 29/29/29
f 32/32/32 31/31/31 29/29/29
f 35/35/35 34/34/34 33/33/33
f 36/36/36 35/35/35 33/33/33
f 39/39/39 38/38/38 37/37/37
f 40/40/40 39/39/39 37/37/37
f 43/43/43 42/42/42 41/41/41
f 44/44/44 43/43/43 41/41/41
f 47/47/47 46/46/46 45/45/45
f 48/48/48 47/47/47 45/45/45
g Walkway2_1
f 51/51/51 50/50/50 49/49/49
f 52/52/52 51/51/51 49/49/49
f 55/55/55 54/54/54 53/53/53
f 56/56/56 55/55/55 53/53/53
f 59/59/59 58/58/58 57/57/57
f 60/60/60 59/59/59 57/57/57
f 63/63/63 62/62/62 61/61/61
f 64/64/64 63/63/63 61/61/61
f 67/67/67 66/66/66 65/65/65
f 68/68/68 67/67/67 65/65/65
f 71/71/71 70/70/70 69/69/69
f 72/72/72 71/71/71 69/69/69
f 75/75/75 74/74/74 73/73/73
f 76/76/76 75/75/75 73/73/73
f 79/79/79 78/78/78 77/77/77
f 80/80/80 79/79/79 77/77/77
f 83/83/83 82/82/82 81/81/81
f 84/84/84 83/83/83 81/81/81
f 87/87/87 86/86/86 85/85/85
f 88/88/88 87/87/87 85/85/85
f 91/91/91 90/90/90 89/89/89
f 92/92/92 91/91/91 89/89/89
f 95/95/95 94/94/94 93/93/93
f 96/96/96 95/95/95 93/93/93
