g warningStickers
v -0.009358734 0.46627426 0
v 0.8607595 0.5 0
v 0.8607595 0.46627426 0
v -0.009358734 0.5 0
v -0.05362285 0.46627426 0
v -0.05362285 0.5 0
v -0.05362285 0.1657462 0
v -0.42790887 0.46627426 0
v -0.009358734 0.1657462 0
v -0.42790887 0.5 0
v -0.05362285 0.044367816 0
v -0.8500676 0.46627426 0
v -0.8500676 0.5 0
v -0.009358734 0.044367816 0
v -0.8607595 0.46627426 0
v -0.8607595 0.5 0
v -0.8607595 0.1657462 0
v -0.8500676 0.1657462 0
v -0.8607595 0.044367816 0
v -0.8500676 0.044367816 0
v -0.8607595 -0.5 0
v -0.8500676 -0.5 0
v -0.05362285 0.014835492 0
v -0.10040859 0.014835492 0
v -0.009358734 0.014835492 0
v 0.8607595 0.044367816 0
v 0.8607595 0.014835492 0
v -0.10040859 0.044367816 0
v -0.33953577 0.014835492 0
v -0.33953577 0.044367816 0
v -0.42790887 0.014835492 0
v -0.42790887 0.044367816 0
v -0.10040859 -0.40838826 0
v -0.10040859 -0.1507326 0
v -0.05362285 -0.1507326 0
v -0.05362285 -0.40838826 0
v -0.009358734 -0.1507326 0
v -0.009358734 -0.40838826 0
v 0.8607595 -0.1507326 0
v 0.8607595 -0.40838826 0
v -0.009358734 -0.5 0
v 0.8607595 -0.5 0
v -0.05362285 -0.5 0
v -0.10040859 -0.5 0
v -0.33953577 -0.5 0
v -0.33953577 -0.40838826 0
v -0.42790887 -0.5 0
v -0.42790887 -0.40838826 0
v -0.33953577 -0.1507326 0
v -0.42790887 -0.1507326 0
vt 0.4946289 0.9663086
vt 1 1
vt 1 0.9663086
vt 0.4946289 1
vt 0.46875 0.9663086
vt 0.46875 1
vt 0.46875 0.66552734
vt 0.25146484 0.9663086
vt 0.4946289 0.66552734
vt 0.25146484 1
vt 0.46875 0.5444336
vt 0.006210327 0.9663086
vt 0.006210327 1
vt 0.4946289 0.5444336
vt 0 0.9663086
vt 0 1
vt 0 0.66552734
vt 0.006210327 0.66552734
vt 0 0.5444336
vt 0.006210327 0.5444336
vt 0 0
vt 0.006210327 0
vt 0.46875 0.51464844
vt 0.4416504 0.51464844
vt 0.4946289 0.51464844
vt 1 0.5444336
vt 1 0.51464844
vt 0.4416504 0.5444336
vt 0.30273438 0.51464844
vt 0.30273438 0.5444336
vt 0.25146484 0.51464844
vt 0.25146484 0.5444336
vt 0.4416504 0.09161377
vt 0.4416504 0.34936523
vt 0.46875 0.34936523
vt 0.46875 0.09161377
vt 0.4946289 0.34936523
vt 0.4946289 0.09161377
vt 1 0.34936523
vt 1 0.09161377
vt 0.4946289 0
vt 1 0
vt 0.46875 0
vt 0.4416504 0
vt 0.30273438 0
vt 0.30273438 0.09161377
vt 0.25146484 0
vt 0.25146484 0.09161377
vt 0.30273438 0.34936523
vt 0.25146484 0.34936523
vn -0 0 1
vn -0 0 1
vn -0 0 1
vn -0 0 1
vn -0 0 1
vn -0 0 1
vn -0 0 1
vn -0 0 1
vn -0 0 1
vn -0 0 1
vn -0 0 1
vn -0 0 1
vn -0 0 1
vn -0 0 1
vn -0 0 1
vn -0 0 1
vn -0 0 1
vn -0 0 1
vn -0 0 1
vn -0 0 1
vn -0 0 1
vn -0 0 1
vn -0 0 1
vn -0 0 1
vn -0 0 1
vn -0 0 1
vn -0 0 1
vn -0 0 1
vn -0 0 1
vn -0 0 1
vn -0 0 1
vn -0 0 1
vn -0 0 1
vn -0 0 1
vn -0 0 1
vn -0 0 1
vn -0 0 1
vn -0 0 1
vn -0 0 1
vn -0 0 1
vn -0 0 1
vn -0 0 1
vn -0 0 1
vn -0 0 1
vn -0 0 1
vn -0 0 1
vn -0 0 1
vn -0 0 1
vn -0 0 1
vn -0 0 1
g warningStickers_0
f 3/3/3 2/2/2 1/1/1
f 2/2/2 4/4/4 1/1/1
f 1/1/1 4/4/4 5/5/5
f 4/4/4 6/6/6 5/5/5
f 1/1/1 5/5/5 7/7/7
f 5/5/5 6/6/6 8/8/8
f 9/9/9 1/1/1 7/7/7
f 6/6/6 10/10/10 8/8/8
f 9/9/9 7/7/7 11/11/11
f 8/8/8 10/10/10 12/12/12
f 10/10/10 13/13/13 12/12/12
f 14/14/14 9/9/9 11/11/11
f 12/12/12 13/13/13 15/15/15
f 13/13/13 16/16/16 15/15/15
f 12/12/12 15/15/15 17/17/17
f 18/18/18 12/12/12 17/17/17
f 18/18/18 17/17/17 19/19/19
f 20/20/20 18/18/18 19/19/19
f 20/20/20 19/19/19 21/21/21
f 22/22/22 20/20/20 21/21/21
f 14/14/14 11/11/11 23/23/23
f 23/23/23 11/11/11 24/24/24
f 25/25/25 14/14/14 23/23/23
f 26/26/26 14/14/14 25/25/25
f 27/27/27 26/26/26 25/25/25
f 11/11/11 28/28/28 24/24/24
f 24/24/24 28/28/28 29/29/29
f 28/28/28 30/30/30 29/29/29
f 29/29/29 30/30/30 31/31/31
f 30/30/30 32/32/32 31/31/31
f 35/35/35 34/34/34 33/33/33
f 36/36/36 35/35/35 33/33/33
f 37/37/37 35/35/35 36/36/36
f 38/38/38 37/37/37 36/36/36
f 39/39/39 37/37/37 38/38/38
f 40/40/40 39/39/39 38/38/38
f 40/40/40 38/38/38 41/41/41
f 42/42/42 40/40/40 41/41/41
f 41/41/41 38/38/38 43/43/43
f 38/38/38 36/36/36 43/43/43
f 43/43/43 36/36/36 44/44/44
f 36/36/36 33/33/33 44/44/44
f 44/44/44 33/33/33 45/45/45
f 33/33/33 46/46/46 45/45/45
f 45/45/45 46/46/46 47/47/47
f 46/46/46 48/48/48 47/47/47
f 46/46/46 49/49/49 48/48/48
f 49/49/49 50/50/50 48/48/48
